<svg width="22" height="22" viewBox="0 0 22 22" fill="none" xmlns="http://www.w3.org/2000/svg">
<path d="M0.910339 10.8868C0.910339 16.6113 5.54944 21.2685 11.2518 21.2685C13.2049 21.2685 15.1069 20.7191 16.7523 19.6798C16.9511 19.5542 17.0109 19.2904 16.8857 19.0908C16.7606 18.8911 16.4978 18.8312 16.299 18.9568C15.3049 19.5849 14.208 20.0165 13.0631 20.2389L12.3765 17.179C12.2317 16.5335 12.3847 15.867 12.7963 15.3503C13.208 14.8336 13.8221 14.5372 14.4811 14.5372H15.6925C15.9276 14.5372 16.118 14.346 16.118 14.1101C16.118 13.8742 15.9276 13.6829 15.6925 13.6829H14.4811C13.5621 13.6829 12.7058 14.0962 12.1318 14.8167C11.5578 15.5373 11.3444 16.4667 11.5464 17.3667L12.219 20.3647C11.8988 20.3974 11.5761 20.4145 11.2517 20.4145C9.88198 20.4145 8.57947 20.1212 7.40234 19.5947L8.14844 16.0359C8.31897 15.2227 8.11758 14.3863 7.59607 13.741C7.07456 13.0957 6.30065 12.7256 5.47286 12.7256H1.93918C1.82283 12.1304 1.76117 11.5158 1.76117 10.8869C1.76117 10.6766 1.7686 10.4665 1.78238 10.2571L5.84722 10.1958C6.79919 10.1814 7.6334 9.55999 7.923 8.64946L9.06111 5.07136C9.27849 4.38789 9.16146 3.66365 8.7399 3.08429C8.39533 2.61068 7.89685 2.30247 7.33602 2.20559C8.54935 1.65408 9.87965 1.35948 11.2516 1.35948C13.5503 1.35948 15.6606 2.18435 17.3046 3.55447C16.2439 3.69309 15.2557 4.12489 14.4233 4.8177C13.4701 5.61108 12.8139 6.66951 12.5256 7.8784C12.4447 8.21748 12.1458 8.45429 11.7985 8.45429H11.6957C11.1304 8.45429 10.6705 8.91604 10.6705 9.48361V11.5451C10.6705 12.1126 11.1304 12.5744 11.6957 12.5744H13.7492C14.3146 12.5744 14.7745 12.1126 14.7745 11.5451V11.4619C14.7745 11.048 15.1099 10.7113 15.5222 10.7113H17.0206C18.3448 10.7113 19.6278 10.222 20.6185 9.35337C20.6994 9.85283 20.7421 10.3649 20.7421 10.8869C20.7421 11.8437 20.5975 12.7853 20.3225 13.683H17.3943C17.1593 13.683 16.9688 13.8742 16.9688 14.1101C16.9688 14.346 17.1593 14.5373 17.3943 14.5373H20.0163C19.4747 15.8473 18.6433 17.0351 17.5667 17.9991C17.3913 18.1561 17.3759 18.4261 17.5324 18.6022C17.6165 18.6968 17.733 18.745 17.8501 18.745C17.9508 18.745 18.052 18.7092 18.1331 18.6366C20.332 16.6676 21.593 13.8429 21.593 10.8869C21.593 5.16242 16.9539 0.505157 11.2516 0.505157C8.13908 0.505157 5.2216 1.89305 3.24731 4.31288C3.09839 4.49541 3.12506 4.7645 3.30687 4.914C3.48858 5.06344 3.75674 5.03673 3.9056 4.8542C4.48446 4.14471 5.152 3.53237 5.88517 3.02682H6.95202C7.39201 3.02682 7.7932 3.23139 8.05268 3.58807C8.31222 3.94476 8.38432 4.39068 8.25044 4.81143L7.11234 8.38953C6.93404 8.9501 6.42052 9.3327 5.83445 9.34152L1.87712 9.40126C2.04646 8.32216 2.39892 7.27649 2.92055 6.31966C3.03332 6.11276 2.9577 5.85318 2.75155 5.7399C2.54539 5.62663 2.28688 5.7026 2.17404 5.90956C1.34738 7.42615 0.910339 9.14732 0.910339 10.8868ZM20.4061 8.37228C20.4035 8.37501 20.4006 8.37746 20.3979 8.38025C19.5276 9.31869 18.2967 9.85687 17.0208 9.85687H15.5224C14.6409 9.85687 13.9237 10.5768 13.9237 11.4617V11.5449C13.9237 11.6398 13.8439 11.72 13.7494 11.72H11.6959C11.6014 11.72 11.5216 11.6398 11.5216 11.5449V9.48344C11.5216 9.38856 11.6014 9.30838 11.6959 9.30838H11.7986C12.5412 9.30838 13.1805 8.80208 13.3534 8.0771C13.5984 7.04937 14.1563 6.14966 14.9666 5.47514C15.777 4.80067 16.7611 4.41699 17.8125 4.36568L18.1489 4.34928C19.2027 5.46916 19.9893 6.84469 20.4061 8.37228ZM5.47291 13.5797C6.0431 13.5797 6.57607 13.8347 6.93534 14.2791C7.29455 14.7235 7.4332 15.2997 7.31583 15.8598L6.61601 19.1977C4.48066 17.9926 2.85429 15.9824 2.14789 13.5797H5.47291Z" fill="white"/>
</svg>
