<?xml version="1.0" encoding="UTF-8" standalone="no"?>
<!DOCTYPE svg PUBLIC "-//W3C//DTD SVG 1.1//EN" "http://www.w3.org/Graphics/SVG/1.1/DTD/svg11.dtd">
<svg width="100%" height="100%" viewBox="0 0 24 24" version="1.1" xmlns="http://www.w3.org/2000/svg" xmlns:xlink="http://www.w3.org/1999/xlink" xml:space="preserve" style="fill-rule:evenodd;clip-rule:evenodd;stroke-linejoin:round;stroke-miterlimit:1.41421;">
    <path d="M13,14.725C13,9.584 16.892,4.206 23,3L23.984,5.126C21.769,5.961 19.821,8.868 19.604,10.872C22.095,11.264 24,13.419 24,16.021C24,19.203 21.416,21 18.801,21C15.786,21 13,18.695 13,14.725L13,14.725ZM0,14.725C0,9.584 3.892,4.206 10,3L10.984,5.126C8.769,5.961 6.821,8.868 6.604,10.872C9.095,11.264 11,13.419 11,16.021C11,19.203 8.416,21 5.801,21C2.786,21 0,18.695 0,14.725Z" style="fill:rgb(207,235,243);fill-rule:nonzero;"/>
</svg>
