<svg width="24" height="24" viewBox="0 0 24 24" fill="none" xmlns="http://www.w3.org/2000/svg">
<g clip-path="url(#clip0)">
<path d="M11.9988 4.77956e-07C9.62594 0.00067022 7.30652 0.704928 5.33385 2.02373C3.36119 3.34252 1.82386 5.21664 0.916257 7.4091C0.00865255 9.60156 -0.228471 12.0139 0.234869 14.3411C0.698209 16.6684 1.8412 18.8059 3.51933 20.4836C5.19746 22.1612 7.33536 23.3036 9.66271 23.7663C11.9901 24.229 14.4023 23.9912 16.5946 23.083C18.7868 22.1748 20.6604 20.6369 21.9787 18.6639C23.2969 16.6908 24.0005 14.3712 24.0005 11.9983C24.0005 10.4224 23.6901 8.86189 23.0869 7.40597C22.4837 5.95005 21.5996 4.62722 20.4851 3.51303C19.3706 2.39884 18.0475 1.51512 16.5914 0.912345C15.1353 0.309573 13.5748 -0.000444322 11.9988 4.77956e-07ZM12.8455 15.7912C11.6195 17.3693 9.35399 17.8231 7.51174 17.2135C6.66195 16.9191 5.9078 16.3999 5.32941 15.7112C4.75102 15.0225 4.37001 14.19 4.22685 13.3021C4.18877 13.0466 4.17291 12.7882 4.17944 12.53C4.17062 12.3721 4.17062 12.2138 4.17944 12.0559C4.35554 9.68534 6.46871 7.61959 8.86295 7.59249C10.1627 7.5125 11.4415 7.94811 12.4221 8.80486C12.0192 9.24848 11.606 9.68873 11.1691 10.0985C10.3022 9.5702 9.25917 9.1706 8.24322 9.52618C7.84454 9.6508 7.47481 9.8539 7.15579 10.1235C6.83676 10.3932 6.57488 10.7239 6.38556 11.0962C6.19624 11.4685 6.08329 11.875 6.05337 12.2916C6.02345 12.7082 6.07716 13.1267 6.21133 13.5222C6.33607 13.9314 6.55267 14.3067 6.84461 14.6194C7.27725 15.0905 7.84345 15.4181 8.46742 15.5585C9.09139 15.6989 9.74336 15.6454 10.3361 15.4051C10.7327 15.2437 11.0858 14.9913 11.367 14.6684C11.6481 14.3455 11.8495 13.961 11.9548 13.5459C11.01 13.5256 10.0652 13.5459 9.12032 13.5121C9.12032 12.9499 9.12032 12.3911 9.12032 11.8188C10.695 11.8188 12.2731 11.8188 13.8614 11.8188C13.9461 13.2073 13.7429 14.6872 12.8488 15.7912H12.8455ZM19.7471 11.8324V13.2411H18.3349C18.3349 13.7153 18.3349 14.1826 18.3349 14.6567H16.9329C16.9329 14.1826 16.9329 13.7153 16.9329 13.2445H15.5208V11.8324H16.9329C16.9329 11.3616 16.9329 10.8909 16.9329 10.4202H18.3383C18.3383 10.8909 18.3383 11.3616 18.3383 11.8324H19.7505H19.7471Z" fill="#12233D"/>
</g>
<defs>
<clipPath id="clip0">
<rect width="24" height="24" fill="white"/>
</clipPath>
</defs>
</svg>
