<svg width="60" height="60" viewBox="0 0 60 60" fill="none" xmlns="http://www.w3.org/2000/svg">
<rect width="60" height="60" fill="white"/>
<path d="M37.3091 15.9683H31.3091V7.19357C32.5449 6.98405 33.4909 5.91373 33.4909 4.61905C33.4909 3.17508 32.3162 2 30.8727 2C29.4292 2 28.2545 3.17508 28.2545 4.61905C28.2545 5.91373 29.2006 6.98492 30.4364 7.19357V15.9683H22.6909C13.488 15.9683 6 23.4587 6 32.6647V34.3016V36.9206V47.561C6 50.84 8.66705 53.5079 11.945 53.5079H48.0541C51.3329 53.5079 54 50.84 54 47.561V36.9206V34.3016V32.6647C54 23.4587 46.5129 15.9683 37.3091 15.9683ZM29.1273 4.61905C29.1273 3.65611 29.9101 2.87302 30.8727 2.87302C31.8353 2.87302 32.6182 3.65611 32.6182 4.61905C32.6182 5.58198 31.8353 6.36508 30.8727 6.36508C29.9101 6.36508 29.1273 5.58198 29.1273 4.61905ZM53.1273 36.9206V47.561C53.1273 50.3581 50.8521 52.6349 48.0541 52.6349H11.945C9.14793 52.6349 6.87273 50.359 6.87273 47.561V36.9206V34.3016V32.6647C6.87273 23.9398 13.9689 16.8413 22.6909 16.8413H30.4364H31.3091H37.3091C46.0311 16.8413 53.1273 23.9398 53.1273 32.6647V34.3016V36.9206Z" fill="#12233D"/>
<path d="M15.0602 23.453C16.4531 22.1033 18.2797 21.2661 20.2058 21.095C20.4458 21.074 20.6239 20.8619 20.602 20.6218C20.5802 20.3817 20.3681 20.2036 20.129 20.2254C18.0048 20.414 15.9888 21.3368 14.4528 22.8262C14.28 22.9938 14.2756 23.2696 14.4432 23.4434C14.5287 23.5316 14.6431 23.5761 14.7565 23.5761C14.8665 23.5761 14.9756 23.535 15.0602 23.453Z" fill="#D62C2C" stroke="#D62C2C" stroke-width="0.5"/>
<path d="M36.5459 32.5557C35.1024 32.5557 33.9277 33.7307 33.9277 35.1747C33.9277 36.6187 35.1024 37.7938 36.5459 37.7938C37.9894 37.7938 39.1641 36.6187 39.1641 35.1747C39.1641 33.7307 37.9894 32.5557 36.5459 32.5557ZM36.5459 36.9207C35.5833 36.9207 34.8005 36.1376 34.8005 35.1747C34.8005 34.2118 35.5833 33.4287 36.5459 33.4287C37.5085 33.4287 38.2914 34.2118 38.2914 35.1747C38.2914 36.1376 37.5085 36.9207 36.5459 36.9207Z" fill="#12233D"/>
<path d="M22.5811 32.5557C21.1376 32.5557 19.9629 33.7307 19.9629 35.1747C19.9629 36.6187 21.1376 37.7938 22.5811 37.7938C24.0246 37.7938 25.1993 36.6187 25.1993 35.1747C25.1993 33.7307 24.0246 32.5557 22.5811 32.5557ZM22.5811 36.9207C21.6185 36.9207 20.8356 36.1376 20.8356 35.1747C20.8356 34.2118 21.6185 33.4287 22.5811 33.4287C23.5437 33.4287 24.3265 34.2118 24.3265 35.1747C24.3265 36.1376 23.5437 36.9207 22.5811 36.9207Z" fill="#12233D"/>
<path d="M39.327 24.6982H20.6725C17.3936 24.6982 14.7266 27.3671 14.7266 30.6461V38.8306C14.7266 42.1097 17.3936 44.7776 20.6725 44.7776H35.5289C35.6336 45.3739 35.9696 46.4817 37.0431 47.463C38.4517 48.7516 40.3778 48.8677 40.4598 48.8721C40.4677 48.8729 40.4755 48.8729 40.4825 48.8729C40.6282 48.8729 40.7635 48.7996 40.8455 48.6774C40.9311 48.549 40.9415 48.384 40.8743 48.2452C40.8709 48.2382 40.5287 47.5163 40.4432 46.3159C40.3856 45.5057 40.4834 44.9417 40.5541 44.658C43.2621 44.0923 45.2711 41.5815 45.2711 38.7023V30.6461C45.272 27.3671 42.605 24.6982 39.327 24.6982ZM44.3993 38.7023C44.3993 41.2515 42.5718 43.462 40.1482 43.8452C39.999 43.8688 39.8733 43.9683 39.814 44.108C39.7991 44.1412 39.4701 44.9452 39.5731 46.3805C39.6185 47.0055 39.725 47.518 39.8306 47.8951C39.2293 47.7616 38.3382 47.4647 37.6313 46.8196C36.4007 45.6943 36.3554 44.3996 36.3536 44.3359C36.3501 44.0975 36.1555 43.9055 35.9173 43.9055H20.6725C17.8754 43.9055 15.5993 41.6295 15.5993 38.8315V30.647C15.5993 27.8481 17.8754 25.5721 20.6725 25.5721H39.327C42.1232 25.5721 44.3993 27.849 44.3993 30.647V38.7023Z" fill="#12233D"/>
<path d="M39.5996 56.127H21.2723C21.0314 56.127 20.8359 56.3224 20.8359 56.5633C20.8359 56.8042 21.0314 56.9997 21.2723 56.9997H39.5996C39.8404 56.9997 40.0359 56.8042 40.0359 56.5633C40.0359 56.3224 39.8404 56.127 39.5996 56.127Z" fill="#12233D"/>
</svg>
