<svg width="60" height="60" viewBox="0 0 60 60" fill="none" xmlns="http://www.w3.org/2000/svg">
<rect width="60" height="60" fill="white"/>
<path d="M37.2294 27.4618C37.2269 27.4478 37.2198 27.4349 37.2147 27.4214C37.2081 27.4045 37.2025 27.388 37.1919 27.3726C37.1893 27.3691 37.1893 27.3651 37.1868 27.3621C37.1787 27.3516 37.168 27.3461 37.1584 27.3372C37.1493 27.3277 37.1432 27.3162 37.132 27.3082L32.8336 24.213C32.72 24.1322 32.5623 24.1557 32.4791 24.2668C32.3964 24.378 32.4208 24.5341 32.5334 24.6154L36.5523 27.5092L32.5334 30.403C32.4203 30.4843 32.3959 30.6403 32.4791 30.7515C32.5288 30.8178 32.6059 30.8532 32.6835 30.8532C32.7357 30.8532 32.788 30.8378 32.8336 30.8049L37.132 27.7101C37.1462 27.6996 37.1548 27.6857 37.166 27.6737C37.1721 27.6667 37.1807 27.6637 37.1863 27.6568C37.1888 27.6533 37.1888 27.6493 37.1914 27.6463C37.202 27.6313 37.2076 27.6149 37.2142 27.5974C37.2198 27.584 37.2264 27.571 37.2289 27.557C37.2324 27.5411 37.2309 27.5256 37.2309 27.5092C37.2309 27.4927 37.2329 27.4778 37.2294 27.4618Z" fill="#D62C2C"/>
<path d="M26.7525 24.2674C26.6693 24.1557 26.5101 24.1318 26.398 24.2136L22.0991 27.3088C22.0884 27.3163 22.0828 27.3273 22.0742 27.3357C22.0646 27.3457 22.0529 27.3512 22.0443 27.3627C22.0418 27.3662 22.0418 27.3701 22.0392 27.3736C22.0291 27.3881 22.0235 27.404 22.0174 27.4205C22.0118 27.4345 22.0052 27.4484 22.0022 27.4629C21.9991 27.4783 22.0002 27.4943 22.0002 27.5102C22.0002 27.5262 21.9991 27.5417 22.0022 27.5576C22.0052 27.5721 22.0123 27.586 22.0174 27.6C22.024 27.6164 22.0296 27.6319 22.0392 27.6469C22.0418 27.6509 22.0418 27.6548 22.0443 27.6578C22.0504 27.6658 22.059 27.6683 22.0656 27.6753C22.0767 27.6872 22.0849 27.7017 22.0986 27.7112L26.3975 30.8059C26.4426 30.8383 26.4948 30.8543 26.5471 30.8543C26.6252 30.8543 26.7023 30.8189 26.752 30.7526C26.8347 30.6409 26.8103 30.4853 26.6972 30.4041L22.6778 27.5102L26.6972 24.6164C26.8103 24.5342 26.8352 24.3781 26.7525 24.2674Z" fill="#D62C2C"/>
<path d="M30.8623 22.6346C30.7243 22.6007 30.5884 22.6825 30.5544 22.8156L28.1874 32.0804C28.1534 32.2145 28.2355 32.3496 28.3715 32.383C28.3923 32.388 28.413 32.3905 28.4333 32.3905C28.5469 32.3905 28.6499 32.3152 28.6788 32.2021L31.0459 22.9368C31.0803 22.8031 30.9982 22.668 30.8623 22.6346Z" fill="#D62C2C"/>
<rect x="15.5" y="1.5" width="28" height="57" rx="3.5" stroke="#12233D"/>
<line x1="24.5" y1="54.5684" x2="33.5" y2="54.5684" stroke="#12233D" stroke-linecap="round"/>
</svg>
