<svg width="54" height="34" viewBox="0 0 54 34" fill="none" xmlns="http://www.w3.org/2000/svg">
<mask id="mask0" mask-type="alpha" maskUnits="userSpaceOnUse" x="4" y="2" width="46" height="30">
<path fill-rule="evenodd" clip-rule="evenodd" d="M23.2384 3.84422L34.7925 7.82969C35.0171 7.90454 35.1761 8.12907 35.1668 8.37232C35.1663 8.3765 35.1657 8.3853 35.1648 8.39839C35.1476 8.64901 35.0232 10.4685 33.7073 11.3755C32.8466 11.9649 31.7333 12.0303 30.3767 11.5626L26.0638 10.0844C25.6989 11.0574 24.7353 13.022 22.7332 14.0979C21.8163 14.5938 20.8059 14.837 19.702 14.837C18.7384 14.837 17.6999 14.6499 16.6053 14.2757C16.3153 14.1728 16.1562 13.8547 16.2591 13.5647C16.362 13.2746 16.6801 13.1156 16.9702 13.2185C19.019 13.9202 20.7779 13.8921 22.1999 13.125C24.3894 11.9572 25.1289 9.40167 25.173 9.24929C25.1741 9.24541 25.1748 9.24308 25.175 9.24239C25.2218 9.0927 25.3153 8.96172 25.4557 8.88687C25.596 8.81203 25.755 8.80267 25.9047 8.84945L30.7603 10.5054C31.752 10.8515 32.5378 10.8328 33.0805 10.4586C33.6886 10.0376 33.9225 9.23303 34.0067 8.74654L22.8829 4.91075C22.0689 4.63009 21.1521 4.68622 20.3756 5.0698L19.7955 5.35047C18.7384 5.86502 17.4941 5.93987 16.3901 5.54693L15.7914 5.33175L11.0107 19.2716C10.9639 19.4119 10.861 19.5242 10.73 19.5897C10.6551 19.6271 10.5709 19.6458 10.4867 19.6458C10.4213 19.6458 10.3651 19.6364 10.2996 19.6084L4.37755 17.5782C4.08753 17.4753 3.92848 17.1572 4.0314 16.8672L8.99921 2.37539C9.04599 2.23506 9.1489 2.12279 9.27987 2.0573C9.41085 1.99181 9.5699 1.98246 9.71023 2.02924L15.623 4.04068C15.6697 4.0594 15.7165 4.08746 15.7633 4.11553L16.755 4.47104C17.5783 4.77042 18.5045 4.71429 19.2903 4.33071L19.8704 4.05004C20.9182 3.54484 22.1438 3.46999 23.2384 3.84422ZM5.27569 16.6988L10.1406 18.3641L14.7435 4.95753L14.6126 4.89204L9.87863 3.27353L5.27569 16.6988Z" fill="white"/>
<path fill-rule="evenodd" clip-rule="evenodd" d="M42.8772 2.40365L49.632 16.1283C49.7629 16.4089 49.6507 16.7364 49.37 16.8767L43.8221 19.5898L41.3803 21.8352C39.4344 23.6221 37.2545 25.119 34.8782 26.2791L24.1099 31.5463C23.7825 31.7053 23.427 31.7895 23.0715 31.7895C22.8095 31.7895 22.5476 31.7427 22.295 31.6585C21.6962 31.4527 21.2097 31.0224 20.929 30.4517C20.7232 30.0494 20.6484 29.6097 20.6952 29.17L19.6754 29.6752C19.3386 29.8436 18.9831 29.9184 18.6369 29.9184C17.7575 29.9184 16.9155 29.4319 16.5039 28.5899C16.2793 28.1221 16.2232 27.6263 16.298 27.1585C16.1951 27.1679 16.0922 27.1772 15.9893 27.1772C15.1099 27.1772 14.2679 26.6907 13.8562 25.8487C13.3978 24.9132 13.613 23.8186 14.324 23.1169C13.8937 22.883 13.5381 22.5275 13.323 22.0784C13.0423 21.5077 13.0049 20.8622 13.2107 20.2634C13.4165 19.6647 13.8469 19.1782 14.4176 18.8975L18.5247 16.8861C18.796 16.7551 19.1328 16.8674 19.2731 17.148C19.4041 17.4287 19.2918 17.7562 19.0112 17.8965L14.9041 19.9079C14.6047 20.0576 14.3801 20.3102 14.2679 20.6283C14.1556 20.9464 14.1743 21.2832 14.324 21.5826C14.4737 21.882 14.7263 22.1065 15.0444 22.2188C15.3625 22.331 15.6993 22.3123 15.9987 22.1626L23.7357 18.3736C24.007 18.2426 24.3438 18.3549 24.4842 18.6356C24.6151 18.9162 24.5029 19.2437 24.2222 19.384L16.4851 23.173L15.4186 23.6969C14.8011 23.9963 14.5485 24.7541 14.8479 25.3716C15.1473 25.9891 15.9051 26.2417 16.5226 25.9423L19.8251 24.3331L26.2243 21.199C26.4956 21.068 26.8324 21.1803 26.9727 21.461C27.1037 21.7416 26.9915 22.0691 26.7108 22.2094L18.0662 26.4381C17.4488 26.7469 17.1962 27.4953 17.4956 28.1128C17.7949 28.7302 18.5527 28.9828 19.1702 28.6835L28.0206 24.3518C28.2919 24.2209 28.6287 24.3331 28.769 24.6138C28.9 24.8945 28.7877 25.2219 28.5071 25.3622L22.4914 28.3092C22.192 28.4589 21.9675 28.7115 21.8552 29.0296C21.743 29.3477 21.7617 29.6845 21.9114 29.9839C22.0611 30.2833 22.3137 30.5078 22.6318 30.6201C22.9499 30.7323 23.2867 30.7136 23.586 30.5639L34.3543 25.2967C36.6277 24.1834 38.7327 22.752 40.5945 21.04L42.793 19.0285L36.2441 5.65004C36.1131 5.36937 36.2254 5.04192 36.5061 4.90159L42.1288 2.15105C42.2598 2.08556 42.4188 2.07621 42.5591 2.12299C42.6995 2.16976 42.8117 2.27268 42.8772 2.40365ZM37.4978 5.65939L43.7379 18.411L48.3502 16.1563L42.1194 3.4047L37.4978 5.65939Z" fill="white"/>
</mask>
<g mask="url(#mask0)">
<path fill-rule="evenodd" clip-rule="evenodd" d="M23.2384 3.84422L34.7925 7.82969C35.0171 7.90454 35.1761 8.12907 35.1668 8.37232C35.1663 8.3765 35.1657 8.3853 35.1648 8.39839C35.1476 8.64901 35.0232 10.4685 33.7073 11.3755C32.8466 11.9649 31.7333 12.0303 30.3767 11.5626L26.0638 10.0844C25.6989 11.0574 24.7353 13.022 22.7332 14.0979C21.8163 14.5938 20.8059 14.837 19.702 14.837C18.7384 14.837 17.6999 14.6499 16.6053 14.2757C16.3153 14.1728 16.1562 13.8547 16.2591 13.5647C16.362 13.2746 16.6801 13.1156 16.9702 13.2185C19.019 13.9202 20.7779 13.8921 22.1999 13.125C24.3894 11.9572 25.1289 9.40167 25.173 9.24929C25.1741 9.24541 25.1748 9.24308 25.175 9.24239C25.2218 9.0927 25.3153 8.96172 25.4557 8.88687C25.596 8.81203 25.755 8.80267 25.9047 8.84945L30.7603 10.5054C31.752 10.8515 32.5378 10.8328 33.0805 10.4586C33.6886 10.0376 33.9225 9.23303 34.0067 8.74654L22.8829 4.91075C22.0689 4.63009 21.1521 4.68622 20.3756 5.0698L19.7955 5.35047C18.7384 5.86502 17.4941 5.93987 16.3901 5.54693L15.7914 5.33175L11.0107 19.2716C10.9639 19.4119 10.861 19.5242 10.73 19.5897C10.6551 19.6271 10.5709 19.6458 10.4867 19.6458C10.4213 19.6458 10.3651 19.6364 10.2996 19.6084L4.37755 17.5782C4.08753 17.4753 3.92848 17.1572 4.0314 16.8672L8.99921 2.37539C9.04599 2.23506 9.1489 2.12279 9.27987 2.0573C9.41085 1.99181 9.5699 1.98246 9.71023 2.02924L15.623 4.04068C15.6697 4.0594 15.7165 4.08746 15.7633 4.11553L16.755 4.47104C17.5783 4.77042 18.5045 4.71429 19.2903 4.33071L19.8704 4.05004C20.9182 3.54484 22.1438 3.46999 23.2384 3.84422ZM5.27569 16.6988L10.1406 18.3641L14.7435 4.95753L14.6126 4.89204L9.87863 3.27353L5.27569 16.6988Z" fill="white"/>
<path fill-rule="evenodd" clip-rule="evenodd" d="M42.8772 2.40365L49.632 16.1283C49.7629 16.4089 49.6507 16.7364 49.37 16.8767L43.8221 19.5898L41.3803 21.8352C39.4344 23.6221 37.2545 25.119 34.8782 26.2791L24.1099 31.5463C23.7825 31.7053 23.427 31.7895 23.0715 31.7895C22.8095 31.7895 22.5476 31.7427 22.295 31.6585C21.6962 31.4527 21.2097 31.0224 20.929 30.4517C20.7232 30.0494 20.6484 29.6097 20.6952 29.17L19.6754 29.6752C19.3386 29.8436 18.9831 29.9184 18.6369 29.9184C17.7575 29.9184 16.9155 29.4319 16.5039 28.5899C16.2793 28.1221 16.2232 27.6263 16.298 27.1585C16.1951 27.1679 16.0922 27.1772 15.9893 27.1772C15.1099 27.1772 14.2679 26.6907 13.8562 25.8487C13.3978 24.9132 13.613 23.8186 14.324 23.1169C13.8937 22.883 13.5381 22.5275 13.323 22.0784C13.0423 21.5077 13.0049 20.8622 13.2107 20.2634C13.4165 19.6647 13.8469 19.1782 14.4176 18.8975L18.5247 16.8861C18.796 16.7551 19.1328 16.8674 19.2731 17.148C19.4041 17.4287 19.2918 17.7562 19.0112 17.8965L14.9041 19.9079C14.6047 20.0576 14.3801 20.3102 14.2679 20.6283C14.1556 20.9464 14.1743 21.2832 14.324 21.5826C14.4737 21.882 14.7263 22.1065 15.0444 22.2188C15.3625 22.331 15.6993 22.3123 15.9987 22.1626L23.7357 18.3736C24.007 18.2426 24.3438 18.3549 24.4842 18.6356C24.6151 18.9162 24.5029 19.2437 24.2222 19.384L16.4851 23.173L15.4186 23.6969C14.8011 23.9963 14.5485 24.7541 14.8479 25.3716C15.1473 25.9891 15.9051 26.2417 16.5226 25.9423L19.8251 24.3331L26.2243 21.199C26.4956 21.068 26.8324 21.1803 26.9727 21.461C27.1037 21.7416 26.9915 22.0691 26.7108 22.2094L18.0662 26.4381C17.4488 26.7469 17.1962 27.4953 17.4956 28.1128C17.7949 28.7302 18.5527 28.9828 19.1702 28.6835L28.0206 24.3518C28.2919 24.2209 28.6287 24.3331 28.769 24.6138C28.9 24.8945 28.7877 25.2219 28.5071 25.3622L22.4914 28.3092C22.192 28.4589 21.9675 28.7115 21.8552 29.0296C21.743 29.3477 21.7617 29.6845 21.9114 29.9839C22.0611 30.2833 22.3137 30.5078 22.6318 30.6201C22.9499 30.7323 23.2867 30.7136 23.586 30.5639L34.3543 25.2967C36.6277 24.1834 38.7327 22.752 40.5945 21.04L42.793 19.0285L36.2441 5.65004C36.1131 5.36937 36.2254 5.04192 36.5061 4.90159L42.1288 2.15105C42.2598 2.08556 42.4188 2.07621 42.5591 2.12299C42.6995 2.16976 42.8117 2.27268 42.8772 2.40365ZM37.4978 5.65939L43.7379 18.411L48.3502 16.1563L42.1194 3.4047L37.4978 5.65939Z" fill="white"/>
<path fill-rule="evenodd" clip-rule="evenodd" d="M23.2384 3.84422L34.7925 7.82969C35.0171 7.90454 35.1761 8.12907 35.1668 8.37232C35.1663 8.3765 35.1657 8.3853 35.1648 8.39839C35.1476 8.64901 35.0232 10.4685 33.7073 11.3755C32.8466 11.9649 31.7333 12.0303 30.3767 11.5626L26.0638 10.0844C25.6989 11.0574 24.7353 13.022 22.7332 14.0979C21.8163 14.5938 20.8059 14.837 19.702 14.837C18.7384 14.837 17.6999 14.6499 16.6053 14.2757C16.3153 14.1728 16.1562 13.8547 16.2591 13.5647C16.362 13.2746 16.6801 13.1156 16.9702 13.2185C19.019 13.9202 20.7779 13.8921 22.1999 13.125C24.3894 11.9572 25.1289 9.40167 25.173 9.24929C25.1741 9.24541 25.1748 9.24308 25.175 9.24239C25.2218 9.0927 25.3153 8.96172 25.4557 8.88687C25.596 8.81203 25.755 8.80267 25.9047 8.84945L30.7603 10.5054C31.752 10.8515 32.5378 10.8328 33.0805 10.4586C33.6886 10.0376 33.9225 9.23303 34.0067 8.74654L22.8829 4.91075C22.0689 4.63009 21.1521 4.68622 20.3756 5.0698L19.7955 5.35047C18.7384 5.86502 17.4941 5.93987 16.3901 5.54693L15.7914 5.33175L11.0107 19.2716C10.9639 19.4119 10.861 19.5242 10.73 19.5897C10.6551 19.6271 10.5709 19.6458 10.4867 19.6458C10.4213 19.6458 10.3651 19.6364 10.2996 19.6084L4.37755 17.5782C4.08753 17.4753 3.92848 17.1572 4.0314 16.8672L8.99921 2.37539C9.04599 2.23506 9.1489 2.12279 9.27987 2.0573C9.41085 1.99181 9.5699 1.98246 9.71023 2.02924L15.623 4.04068C15.6697 4.0594 15.7165 4.08746 15.7633 4.11553L16.755 4.47104C17.5783 4.77042 18.5045 4.71429 19.2903 4.33071L19.8704 4.05004C20.9182 3.54484 22.1438 3.46999 23.2384 3.84422ZM5.27569 16.6988L10.1406 18.3641L14.7435 4.95753L14.6126 4.89204L9.87863 3.27353L5.27569 16.6988Z" stroke="#12233D" stroke-width="0.1"/>
<path fill-rule="evenodd" clip-rule="evenodd" d="M42.8772 2.40365L49.632 16.1283C49.7629 16.4089 49.6507 16.7364 49.37 16.8767L43.8221 19.5898L41.3803 21.8352C39.4344 23.6221 37.2545 25.119 34.8782 26.2791L24.1099 31.5463C23.7825 31.7053 23.427 31.7895 23.0715 31.7895C22.8095 31.7895 22.5476 31.7427 22.295 31.6585C21.6962 31.4527 21.2097 31.0224 20.929 30.4517C20.7232 30.0494 20.6484 29.6097 20.6952 29.17L19.6754 29.6752C19.3386 29.8436 18.9831 29.9184 18.6369 29.9184C17.7575 29.9184 16.9155 29.4319 16.5039 28.5899C16.2793 28.1221 16.2232 27.6263 16.298 27.1585C16.1951 27.1679 16.0922 27.1772 15.9893 27.1772C15.1099 27.1772 14.2679 26.6907 13.8562 25.8487C13.3978 24.9132 13.613 23.8186 14.324 23.1169C13.8937 22.883 13.5381 22.5275 13.323 22.0784C13.0423 21.5077 13.0049 20.8622 13.2107 20.2634C13.4165 19.6647 13.8469 19.1782 14.4176 18.8975L18.5247 16.8861C18.796 16.7551 19.1328 16.8674 19.2731 17.148C19.4041 17.4287 19.2918 17.7562 19.0112 17.8965L14.9041 19.9079C14.6047 20.0576 14.3801 20.3102 14.2679 20.6283C14.1556 20.9464 14.1743 21.2832 14.324 21.5826C14.4737 21.882 14.7263 22.1065 15.0444 22.2188C15.3625 22.331 15.6993 22.3123 15.9987 22.1626L23.7357 18.3736C24.007 18.2426 24.3438 18.3549 24.4842 18.6356C24.6151 18.9162 24.5029 19.2437 24.2222 19.384L16.4851 23.173L15.4186 23.6969C14.8011 23.9963 14.5485 24.7541 14.8479 25.3716C15.1473 25.9891 15.9051 26.2417 16.5226 25.9423L19.8251 24.3331L26.2243 21.199C26.4956 21.068 26.8324 21.1803 26.9727 21.461C27.1037 21.7416 26.9915 22.0691 26.7108 22.2094L18.0662 26.4381C17.4488 26.7469 17.1962 27.4953 17.4956 28.1128C17.7949 28.7302 18.5527 28.9828 19.1702 28.6835L28.0206 24.3518C28.2919 24.2209 28.6287 24.3331 28.769 24.6138C28.9 24.8945 28.7877 25.2219 28.5071 25.3622L22.4914 28.3092C22.192 28.4589 21.9675 28.7115 21.8552 29.0296C21.743 29.3477 21.7617 29.6845 21.9114 29.9839C22.0611 30.2833 22.3137 30.5078 22.6318 30.6201C22.9499 30.7323 23.2867 30.7136 23.586 30.5639L34.3543 25.2967C36.6277 24.1834 38.7327 22.752 40.5945 21.04L42.793 19.0285L36.2441 5.65004C36.1131 5.36937 36.2254 5.04192 36.5061 4.90159L42.1288 2.15105C42.2598 2.08556 42.4188 2.07621 42.5591 2.12299C42.6995 2.16976 42.8117 2.27268 42.8772 2.40365ZM37.4978 5.65939L43.7379 18.411L48.3502 16.1563L42.1194 3.4047L37.4978 5.65939Z" stroke="#12233D" stroke-width="0.1"/>
</g>
</svg>
