<svg width="54" height="34" viewBox="0 0 54 34" fill="none" xmlns="http://www.w3.org/2000/svg">
<path d="M26.9686 28.6225L27.0039 28.5871L38.2833 17.3078C41.2206 14.3705 41.221 9.59059 38.2833 6.6533C36.86 5.23045 34.9682 4.44685 32.9558 4.44685C31.119 4.44685 29.4006 5.12818 28.0299 6.32367L28.0286 6.32482L26.9686 7.3157L25.9091 6.32529L25.9078 6.32414C24.5371 5.12818 22.8187 4.44731 20.9814 4.44731C18.9689 4.44731 17.0767 5.23091 15.6539 6.65377C13.6248 8.68283 13.0309 11.5824 13.8046 14.154H12.3544C11.6154 11.2084 12.3639 7.96871 14.6664 5.66579C16.4103 3.92178 18.6955 3.05005 20.9814 3.05005C23.1193 3.05005 25.2399 3.84419 26.9351 5.37121L26.9686 5.40135L27.0021 5.3712C28.6968 3.8442 30.8178 3.05005 32.9558 3.05005C35.2412 3.05005 37.5268 3.92178 39.2708 5.66573C42.7583 9.15373 42.7583 14.8079 39.2708 18.2958L26.9686 30.598L15.1149 18.7444H17.0905L26.9686 28.6225Z" fill="white"/>
<path d="M38.2833 6.6533C41.221 9.59059 41.2206 14.3705 38.2833 17.3078L27.0039 28.5871L26.9686 28.6225L17.0905 18.7444H15.1149L26.9686 30.598L39.2708 18.2958C42.7583 14.8079 42.7583 9.15373 39.2708 5.66573C37.5268 3.92178 35.2412 3.05005 32.9558 3.05005C30.8178 3.05005 28.6968 3.8442 27.0021 5.3712L26.9686 5.40135L26.9351 5.37121C25.2399 3.84419 23.1193 3.05005 20.9814 3.05005C18.6955 3.05005 16.4103 3.92178 14.6664 5.66579C12.3639 7.96871 11.6154 11.2084 12.3544 14.154H13.8046C13.0309 11.5824 13.6248 8.68283 15.6539 6.65377C17.0767 5.23091 18.9689 4.44731 20.9814 4.44731C22.8187 4.44731 24.5371 5.12818 25.9078 6.32414L25.9091 6.32529L26.9686 7.3157L28.0286 6.32482L28.0299 6.32367C29.4006 5.12818 31.119 4.44685 32.9558 4.44685C34.9682 4.44685 36.86 5.23045 38.2833 6.6533ZM38.2833 6.6533L38.2479 6.68866" stroke="#12233D" stroke-width="0.1"/>
<path d="M21.4045 10.2692L21.3659 10.2374L21.4045 10.2692C21.538 10.107 21.7783 10.0219 22.018 10.0583L22.0181 10.0583C22.2584 10.0946 22.443 10.2434 22.4976 10.4297L22.4976 10.4297L25.073 19.218L25.0981 19.304L25.1581 19.2374L28.7864 15.208C28.8996 15.0823 29.0802 15.0061 29.275 15.0061H33.3438C33.6878 15.0061 33.95 15.2355 33.95 15.5001C33.95 15.7647 33.6878 15.9942 33.3438 15.9942H29.6042H29.5819L29.567 16.0107L25.3011 20.7481C25.1867 20.8751 25.0049 20.95 24.8125 20.95C24.7718 20.95 24.7307 20.9465 24.6896 20.9396C24.4551 20.9001 24.2762 20.7529 24.2226 20.5703L21.6664 11.8466L21.6398 11.756L21.5798 11.8288L17.9657 16.2174L17.9657 16.2174C17.8541 16.3529 17.6665 16.4366 17.4625 16.4366H13.6562C13.3122 16.4366 13.05 16.2071 13.05 15.9425C13.05 15.678 13.3122 15.4485 13.6562 15.4485H17.116H17.1396L17.1546 15.4303L21.4045 10.2692Z" fill="white" stroke="#12233D" stroke-width="0.1"/>
</svg>
