<svg width="54" height="34" viewBox="0 0 54 34" fill="none" xmlns="http://www.w3.org/2000/svg">
<path d="M41.9142 9.28497L27.1452 3.13273C26.715 2.95576 26.2541 2.95576 25.8239 3.13273L11.0549 9.28497C10.4199 9.56604 10 10.1802 10 10.9089C10 11.1379 10.0102 11.3669 10.1127 11.5751V21.1106H11.5465V12.7723L14.3119 13.9902V27.1379C14.3119 27.3982 14.4655 27.648 14.6908 27.7729L14.9571 27.9291C18.4702 29.9278 22.4645 31 26.4999 31C30.5353 31 34.5297 29.9278 38.0427 27.9291L38.309 27.7729C38.5343 27.648 38.6777 27.3982 38.6777 27.1275V13.9902L41.9551 12.5537C42.6106 12.2622 43.0101 11.6376 42.9998 10.9089C42.9896 10.1802 42.5799 9.56604 41.9142 9.28497ZM37.254 26.7111C33.9766 28.5537 30.2485 29.5322 26.4999 29.5322C22.7513 29.5322 19.0232 28.5537 15.7458 26.7111V14.6252L25.8034 19.039C26.0185 19.1327 26.2643 19.1848 26.4999 19.1848C26.7355 19.1848 26.9813 19.1327 27.1964 19.039L37.254 14.6252V26.7111ZM41.3918 11.2108L26.6228 17.6962C26.5409 17.7274 26.4589 17.7274 26.377 17.6962L11.608 11.2108C11.4441 11.1379 11.4236 11.0026 11.4236 10.9193C11.4339 10.8465 11.4544 10.7007 11.6182 10.6383L26.3872 4.48601C26.4282 4.46519 26.4692 4.46519 26.4999 4.46519C26.5409 4.46519 26.5818 4.4756 26.6126 4.48601L41.3816 10.6383C41.5454 10.7111 41.5762 10.8465 41.5762 10.9193C41.5762 10.9922 41.5557 11.1379 41.3918 11.2108Z" fill="white"/>
</svg>
