<?xml version="1.0" encoding="UTF-8" standalone="no"?>
<svg width="33px" height="33px" viewBox="0 0 33 33" version="1.1" xmlns="http://www.w3.org/2000/svg" xmlns:xlink="http://www.w3.org/1999/xlink" xmlns:sketch="http://www.bohemiancoding.com/sketch/ns">
    <!-- Generator: Sketch 3.3.3 (12072) - http://www.bohemiancoding.com/sketch -->
    <title>Imported Layers</title>
    <desc>Created with Sketch.</desc>
    <defs></defs>
    <g id="Page-1" stroke="none" stroke-width="1" fill="none" fill-rule="evenodd" sketch:type="MSPage">
        <g id="Artboard-1-Copy-2" sketch:type="MSArtboardGroup" transform="translate(-628.000000, -4003.000000)" fill="#FFFFFF" opacity="0.6">
            <g id="Imported-Layers" sketch:type="MSLayerGroup" transform="translate(628.000000, 4003.000000)">
                <path d="M16.222,0.261 C7.385,0.261 0.222,7.42 0.222,16.261 C0.222,25.099 7.385,32.261 16.222,32.261 C25.059,32.261 32.222,25.099 32.222,16.261 C32.222,7.42 25.058,0.261 16.222,0.261 L16.222,0.261 Z M19.939,16.258 L17.551,16.258 L17.551,24.906 L13.974,24.906 L13.974,16.258 L12.185,16.258 L12.185,13.279 L13.974,13.279 L13.974,11.488 C13.974,9.05 14.983,7.604 17.85,7.604 L20.245,7.604 L20.245,10.583 L18.763,10.583 C17.645,10.583 17.572,10.999 17.572,11.772 L17.567,13.265 L20.273,13.265 L19.939,16.258 L19.939,16.258 Z" id="Fill-1" sketch:type="MSShapeGroup"></path>
            </g>
        </g>
    </g>
</svg>