<?xml version="1.0" encoding="UTF-8" standalone="no"?>
<svg width="33px" height="33px" viewBox="0 0 33 33" version="1.1" xmlns="http://www.w3.org/2000/svg" xmlns:xlink="http://www.w3.org/1999/xlink" xmlns:sketch="http://www.bohemiancoding.com/sketch/ns">
    <!-- Generator: Sketch 3.3.3 (12072) - http://www.bohemiancoding.com/sketch -->
    <title>Fill 2 + Fill 3 + Fill 4</title>
    <desc>Created with Sketch.</desc>
    <defs></defs>
    <g id="Page-1" stroke="none" stroke-width="1" fill="none" fill-rule="evenodd" sketch:type="MSPage">
        <g id="Artboard-1-Copy-2" sketch:type="MSArtboardGroup" transform="translate(-731.000000, -4004.000000)" fill="#FFFFFF" opacity="0.6">
            <g id="Fill-2-+-Fill-3-+-Fill-4" sketch:type="MSLayerGroup" transform="translate(731.000000, 4004.000000)">
                <path d="M7.097,24.247 C6.841,24.685 6.714,25.2 6.714,25.768 C6.714,27.061 7.443,28.122 8.548,28.682 C9.628,29.264 10.849,29.544 12.058,29.544 C13.181,29.544 14.191,29.315 15.084,28.809 C15.98,28.313 16.522,27.413 16.522,26.205 C16.522,25.809 16.422,25.425 16.334,25.104 C16.28,24.953 16.196,24.792 16.095,24.625 C15.966,24.452 15.866,24.313 15.796,24.187 C15.612,23.958 15.192,23.583 15.025,23.415 C14.839,23.26 14.288,22.85 14.129,22.727 C13.959,22.623 13.334,22.17 13.221,22.102 C13.065,22.083 12.823,22.081 12.51,22.081 C11.487,22.081 10.531,22.185 9.469,22.536 C8.404,22.868 7.608,23.351 7.097,24.247" id="Fill-2" sketch:type="MSShapeGroup"></path>
                <path d="M14.823,13.957 C14.823,12.82 14.509,11.479 13.927,10.289 C13.343,9.101 12.277,8.227 11.027,8.227 C9.265,8.227 8.256,9.744 8.256,11.553 C8.256,12.449 8.469,13.452 8.924,14.438 C9.379,15.417 9.961,16.229 10.82,16.727 C11.258,16.966 11.716,17.096 12.201,17.096 C14.049,17.099 14.823,15.849 14.823,13.957" id="Fill-3" sketch:type="MSShapeGroup"></path>
                <path d="M16.823,0.129 C7.987,0.129 0.823,7.293 0.823,16.129 C0.823,19.795 2.057,23.177 4.135,25.871 C4.309,24.832 4.947,23.67 5.979,22.927 C7.186,22.041 8.833,21.629 10.243,21.406 C10.938,21.302 11.649,21.225 12.387,21.218 C11.778,20.437 11.479,19.726 11.479,19.101 C11.479,18.872 11.522,18.646 11.579,18.497 C11.641,18.342 11.751,18.042 11.792,17.888 C11.409,17.932 11.083,17.956 10.801,17.956 C7.981,17.956 5.655,15.868 5.655,13.06 C5.655,10.413 7.702,8.081 10.331,7.498 C11.227,7.31 12.108,7.213 12.989,7.213 L19.2,7.213 L17.28,8.336 L15.362,8.336 C16.712,9.19 17.479,10.861 17.479,12.524 C17.479,13.929 16.983,15.045 16.356,15.712 C16.044,16.038 15.731,16.354 15.418,16.62 C14.793,17.182 14.295,17.766 14.295,18.454 C14.295,18.952 14.647,19.421 15.149,19.851 C15.391,20.075 15.67,20.289 15.971,20.539 C16.575,21.008 17.2,21.592 17.71,22.263 C18.207,22.951 18.559,23.909 18.559,24.992 C18.559,28.013 15.663,30.854 10.6,30.854 L10.575,30.854 C12.503,31.667 14.622,32.125 16.846,32.125 C25.687,32.125 32.846,24.961 32.846,16.125 C32.823,7.295 25.656,0.129 16.823,0.129 L16.823,0.129 Z M27.733,12.664 L24.094,12.664 L24.094,16.306 L22.276,16.306 L22.276,12.664 L18.637,12.664 L18.637,10.849 L22.276,10.849 L22.276,7.205 L24.094,7.205 L24.094,10.849 L27.733,10.849 L27.733,12.664 L27.733,12.664 Z" id="Fill-4" sketch:type="MSShapeGroup"></path>
            </g>
        </g>
    </g>
</svg>