<?xml version="1.0" encoding="utf-8" standalone="no"?>
<!-- Generator: Adobe Illustrator 19.2.1, SVG Export Plug-In . SVG Version: 6.00 Build 0)  -->
<svg width="33px" height="33px" viewBox="0 0 33 33" version="1.1" id="Layer_1" xmlns="http://www.w3.org/2000/svg" xmlns:xlink="http://www.w3.org/1999/xlink" xml:space="preserve">
<style type="text/css">
	.st0{display:none;opacity:0.56;fill:#180F28;}
	.st1{opacity:0.56;}
	.st2{fill:#FFFFFF;}
</style>
<path class="st0" d="M16,0C7.2,0,0,7.2,0,16c0,8.8,7.2,16,16,16s16-7.2,16-16C32,7.2,24.8,0,16,0z M12.5,24.5l-5.9-3V9.1l5.9,2.9
	V24.5z M13.6,18.2v-5.2l4.7,7.8L13.6,18.2z M15.8,14.7l3.5-5.8l5.6,2.7l-5.6,9.1L15.8,14.7z M25.1,24.5l-5.4-2.8l5.4-8.9V24.5z"/>
<g class="st1">
	<path class="st2" d="M16,0C7.2,0,0,7.2,0,16s7.2,16,16,16s16-7.2,16-16S24.8,0,16,0z M18,24.8c-0.4,0-1.2,0-2,0c-0.8,0-1.6,0-2,0
		c-1.7,0-8.5-0.1-8.5-8.3c0-1.9,0.6-3.2,1.7-4.4c-0.2-0.4-0.2-2.8,0.7-5c0,0,2.1,0.2,5.2,2.4c0.7-0.2,1.8-0.3,2.9-0.3
		s2.2,0.1,2.9,0.3C22,7.4,24,7.2,24,7.2c0.9,2.3,0.9,4.6,0.7,5c1.1,1.1,1.7,2.5,1.7,4.4C26.4,24.7,19.7,24.8,18,24.8z"/>
	<path class="st2" d="M16,15.9C16,15.9,16,15.9,16,15.9C16,15.9,16,15.9,16,15.9c-2.7,0-5.1-0.7-6.5,0.6c-0.8,0.8-1.2,1.7-1.2,2.7
		c0,4.2,3.3,4.7,7.6,4.7H16c4.3,0,7.6-0.5,7.6-4.7c0-1-0.4-1.9-1.2-2.7C21.1,15.2,18.7,15.9,16,15.9z M12.4,21.6
		c-0.8,0-1.5-0.9-1.5-2c0-1.1,0.7-2,1.5-2c0.8,0,1.5,0.9,1.5,2C13.9,20.7,13.2,21.6,12.4,21.6z M19.6,21.6c-0.8,0-1.5-0.9-1.5-2
		c0-1.1,0.7-2,1.5-2c0.8,0,1.5,0.9,1.5,2C21.1,20.7,20.4,21.6,19.6,21.6z"/>
</g>
</svg>
