<?xml version="1.0" encoding="UTF-8" standalone="no"?>
<svg width="32px" height="32px" viewBox="0 0 32 32" version="1.1" xmlns="http://www.w3.org/2000/svg" xmlns:xlink="http://www.w3.org/1999/xlink" xmlns:sketch="http://www.bohemiancoding.com/sketch/ns">
    <!-- Generator: Sketch 3.3.3 (12072) - http://www.bohemiancoding.com/sketch -->
    <title>Fill 5</title>
    <desc>Created with Sketch.</desc>
    <defs></defs>
    <g id="Page-1" stroke="none" stroke-width="1" fill="none" fill-rule="evenodd" sketch:type="MSPage">
        <g id="Artboard-1-Copy-2" sketch:type="MSArtboardGroup" transform="translate(-680.000000, -4004.000000)" fill="#FFFFFF" opacity="0.6">
            <g id="Fill-5" sketch:type="MSLayerGroup" transform="translate(680.000000, 4004.000000)">
                <path d="M15.999,0 C7.163,0 0,7.164 0,16 C0,24.841 7.163,32 15.999,32 C24.84,32 31.999,24.841 31.999,16 C31.999,7.166 24.833,0 15.999,0 L15.999,0 Z M26.041,11.139 C25.591,11.868 24.979,12.535 24.168,13.128 L24.168,13.475 C24.23,16.656 22.647,20.787 18.966,23.121 C17.123,24.296 15.07,24.884 12.778,24.884 C10.924,24.884 9.188,24.449 7.546,23.613 C7.106,23.384 6.792,23.21 6.643,23.092 C6.539,23.008 6.493,22.914 6.493,22.814 C6.493,22.631 6.643,22.48 6.828,22.48 C6.923,22.48 7.079,22.495 7.289,22.501 C7.498,22.522 7.655,22.524 7.76,22.524 C9.189,22.524 10.491,22.167 11.689,21.42 C10.251,21.086 9.089,20.021 8.628,18.608 C8.618,18.552 8.607,18.512 8.607,18.501 C8.607,18.333 8.753,18.18 8.922,18.18 C8.953,18.18 9.006,18.195 9.068,18.201 C9.13,18.217 9.172,18.222 9.193,18.222 C7.947,17.452 7.152,16.085 7.152,14.632 C7.152,14.421 7.34,14.253 7.548,14.253 C7.618,14.253 7.736,14.296 7.912,14.36 C8.1,14.444 8.193,14.506 8.225,14.506 C7.579,13.735 7.261,12.842 7.261,11.821 C7.261,11.104 7.47,10.222 7.825,9.696 C7.896,9.586 7.979,9.524 8.096,9.524 C8.2,9.524 8.305,9.571 8.367,9.655 C8.897,10.244 9.276,10.634 9.514,10.852 C11.231,12.41 13.43,13.354 15.72,13.55 C15.69,13.404 15.679,13.238 15.679,13.034 C15.679,10.7 17.575,8.805 19.908,8.805 C21.054,8.805 22.033,9.201 22.858,9.993 C23.516,9.849 24.254,9.555 25.046,9.139 C25.103,9.118 25.153,9.083 25.215,9.083 C25.396,9.083 25.554,9.239 25.554,9.417 C25.554,9.753 25.046,10.605 24.726,10.979 C24.825,10.953 25.205,10.792 25.495,10.701 C25.641,10.641 25.724,10.629 25.745,10.629 C25.933,10.629 26.081,10.785 26.081,10.965 C26.097,11.03 26.075,11.091 26.041,11.139 L26.041,11.139 Z" sketch:type="MSShapeGroup"></path>
            </g>
        </g>
    </g>
</svg>