<?xml version="1.0" encoding="UTF-8" standalone="no"?>
<svg width="33px" height="32px" viewBox="0 0 33 32" version="1.1" xmlns="http://www.w3.org/2000/svg" xmlns:xlink="http://www.w3.org/1999/xlink" xmlns:sketch="http://www.bohemiancoding.com/sketch/ns">
    <!-- Generator: Sketch 3.3.3 (12072) - http://www.bohemiancoding.com/sketch -->
    <title>Imported Layers</title>
    <desc>Created with Sketch.</desc>
    <defs></defs>
    <g id="Page-1" stroke="none" stroke-width="1" fill="none" fill-rule="evenodd" sketch:type="MSPage">
        <g id="Artboard-1-Copy-2" sketch:type="MSArtboardGroup" transform="translate(-783.000000, -4004.000000)" fill-opacity="0.600000024" fill="#FFFFFF">
            <g id="Imported-Layers" sketch:type="MSLayerGroup" transform="translate(783.000000, 4004.000000)">
                <path d="M16.8711935,0 C8.03996774,0 0.913032258,7.12693548 0.913032258,15.9581613 C0.913032258,24.7659677 8.03996774,31.9163226 16.8711935,31.9163226 C25.6779355,31.9163226 32.8293548,24.7659677 32.8293548,15.9581613 C32.8293548,7.13225806 25.6779355,0 16.8711935,0 L16.8711935,0 Z M24.6634516,21.3680323 C21.9042258,21.5521935 20.3904839,20.2396452 20.3904839,20.2396452 L19.1407419,26.2062581 L16.1984194,26.2062581 L17.9719032,17.9413548 C17.9719032,17.9413548 16.7626129,16.4499677 15.9163226,14.555129 C15.9163226,14.555129 16.3996129,21.4489355 10.433,21.4489355 C5.11148387,21.4489355 4.87729032,15.8857742 4.87729032,15.8857742 L4.83470968,8.30641935 L7.69187097,8.30641935 L7.69187097,15.7239677 C7.69187097,15.7239677 7.73232258,18.5055484 10.3531613,18.5055484 C12.9729355,18.5055484 13.1347419,16.0060645 13.1347419,15.8857742 L13.1347419,8.30641935 L15.9163226,8.30641935 C15.9163226,8.30641935 16.8030645,11.4105484 18.7777419,14.4348387 C18.7777419,14.4348387 19.8262903,9.87870968 24.3813548,9.87870968 C28.9364194,9.87870968 29.9849677,14.3943871 29.9849677,15.3620323 C29.9849677,16.3286129 29.5016774,21.0454839 24.6634516,21.3680323 L24.6634516,21.3680323 Z" id="Fill-1" sketch:type="MSShapeGroup"></path>
                <path d="M24.2206129,12.7007419 C21.3985806,12.7007419 21.0760323,17.2558065 21.0760323,17.2558065 C21.0760323,17.2558065 22.8378065,18.4959677 24.2898065,18.4970323 C26.8297419,18.4970323 27.2033871,15.7644194 27.2033871,15.4014194 C27.2033871,15.0394839 27.0426452,12.7007419 24.2206129,12.7007419" id="Fill-2" sketch:type="MSShapeGroup"></path>
            </g>
        </g>
    </g>
</svg>