<svg width="60" height="60" viewBox="0 0 60 60" fill="none" xmlns="http://www.w3.org/2000/svg">
<rect width="60" height="60" fill="white"/>
<path d="M52.8508 28.9042L29.8209 7.12679C29.8059 7.11249 29.7871 7.10772 29.7711 7.09628C29.7381 7.07245 29.7071 7.04766 29.6704 7.03336C29.6515 7.02574 29.6318 7.02478 29.6129 7.02002C29.5734 7.00953 29.5348 7 29.4944 7C29.4746 7 29.4548 7.00667 29.4351 7.00953C29.3955 7.01525 29.3579 7.02097 29.3212 7.03622C29.2986 7.04576 29.2798 7.06196 29.2591 7.07531C29.2327 7.09247 29.2035 7.10295 29.18 7.12488L14.1681 21.321C14.1662 21.3229 14.1634 21.3248 14.1615 21.3276L6.1492 28.9042C5.95908 29.0834 5.94967 29.3847 6.12662 29.5782C6.21885 29.6783 6.34403 29.7297 6.47015 29.7297C6.58591 29.7297 6.70074 29.6878 6.79109 29.6011L14.025 22.7604V52.5234C14.025 52.7865 14.2359 53 14.4956 53H44.5025C44.7623 53 44.9731 52.7865 44.9731 52.5234V22.7585L52.2089 29.6001C52.2993 29.6859 52.415 29.7288 52.5299 29.7288C52.656 29.7288 52.7811 29.6783 52.8734 29.5772C53.0503 29.3847 53.0409 29.0834 52.8508 28.9042ZM44.0319 52.0458H36.8525V40.5646L39.9472 38.5189C40.3217 38.9221 40.8516 39.1776 41.4408 39.1776C42.5759 39.1776 43.5001 38.2424 43.5001 37.0918C43.5001 35.9413 42.5768 35.0061 41.4408 35.0061C40.3048 35.0061 39.3824 35.9422 39.3824 37.0918C39.3824 37.3006 39.422 37.4989 39.4794 37.6886L36.1259 39.9059C36.1118 39.9154 36.1052 39.9288 36.0921 39.9393C36.0676 39.9593 36.045 39.9822 36.0252 40.0069C36.0055 40.0298 35.9895 40.0546 35.9754 40.0813C35.9603 40.107 35.9509 40.1347 35.9415 40.1633C35.9311 40.1938 35.9255 40.2252 35.9217 40.2586C35.9198 40.2748 35.9123 40.2882 35.9123 40.3053V52.0448H33.5593V28.3351L37.533 25.4705C37.9048 25.8395 38.4121 26.0682 38.9711 26.0682C40.1062 26.0682 41.0305 25.1331 41.0305 23.9825C41.0305 22.8319 40.1072 21.8967 38.9711 21.8967C37.8351 21.8967 36.9118 22.8319 36.9118 23.9825C36.9118 24.2208 36.9598 24.4458 37.0332 24.6593L32.8158 27.7002C32.8045 27.7079 32.7998 27.7203 32.7904 27.7279C32.7659 27.7489 32.7443 27.7736 32.7236 27.8003C32.7057 27.8232 32.6897 27.8461 32.6765 27.8718C32.6624 27.8985 32.6539 27.9271 32.6454 27.9567C32.636 27.9881 32.6285 28.0177 32.6257 28.0501C32.6247 28.0634 32.6181 28.0749 32.6181 28.0892V52.0458H27.932V33.3341C27.932 33.3169 27.9245 33.3026 27.9226 33.2864C27.9198 33.254 27.9141 33.2235 27.9038 33.1911C27.8943 33.1615 27.883 33.1339 27.8689 33.1081C27.8548 33.0824 27.8397 33.0586 27.8209 33.0357C27.8002 33.0099 27.7767 32.9871 27.7503 32.9661C27.7381 32.9556 27.7306 32.9432 27.7174 32.9337L21.8472 29.1025C22.0148 28.8013 22.1183 28.4581 22.1183 28.0892C22.1183 26.9395 21.195 26.0034 20.059 26.0034C18.923 26.0034 17.9997 26.9386 17.9997 28.0892C17.9997 29.2398 18.923 30.1749 20.059 30.1749C20.4834 30.1749 20.8787 30.0434 21.2063 29.8194L26.9908 33.5933V52.0448H23.5009V44.6532C23.5009 44.6446 23.4962 44.637 23.4962 44.6284C23.4952 44.595 23.4858 44.5645 23.4764 44.5312C23.4689 44.5035 23.4642 44.4749 23.4519 44.4492C23.4397 44.4225 23.4209 44.4006 23.4039 44.3767C23.3842 44.35 23.3663 44.3233 23.3428 44.3014C23.3362 44.2957 23.3334 44.2871 23.3258 44.2814L19.8839 41.4702C19.9874 41.2205 20.0449 40.9478 20.0449 40.6609C20.0449 39.5112 19.1216 38.5751 17.9855 38.5751C16.8495 38.5751 15.9262 39.5103 15.9262 40.6609C15.9262 41.8115 16.8495 42.7466 17.9855 42.7466C18.4966 42.7466 18.9597 42.5503 19.3201 42.2357L22.5588 44.881V52.0448H14.9672V21.8691L29.4991 8.12581L44.0319 21.8691V52.0458ZM40.3236 37.0918C40.3236 36.4675 40.8243 35.9594 41.4418 35.9594C42.0592 35.9594 42.5599 36.4665 42.5599 37.0918C42.5599 37.7172 42.0592 38.2243 41.4418 38.2243C40.8243 38.2243 40.3236 37.7172 40.3236 37.0918ZM37.853 23.9825C37.853 23.3581 38.3537 22.85 38.9711 22.85C39.5886 22.85 40.0893 23.3581 40.0893 23.9825C40.0893 24.6069 39.5886 25.115 38.9711 25.115C38.3537 25.115 37.853 24.6069 37.853 23.9825ZM20.058 29.2217C19.4416 29.2217 18.9399 28.7136 18.9399 28.0892C18.9399 27.4648 19.4416 26.9567 20.058 26.9567C20.6745 26.9567 21.1762 27.4648 21.1762 28.0892C21.1762 28.7136 20.6745 29.2217 20.058 29.2217ZM17.9855 41.7943C17.3691 41.7943 16.8674 41.2872 16.8674 40.6618C16.8674 40.0365 17.3691 39.5294 17.9855 39.5294C18.602 39.5294 19.1037 40.0365 19.1037 40.6618C19.1037 41.2872 18.6011 41.7943 17.9855 41.7943Z" fill="#12233D"/>
<path d="M31.3815 26.8598C31.3815 27.899 30.5531 28.7196 29.5579 28.7196C28.5628 28.7196 27.7344 27.899 27.7344 26.8598C27.7344 25.8206 28.5628 25 29.5579 25C30.5531 25 31.3815 25.8206 31.3815 26.8598Z" stroke="#D62C2C" stroke-width="2"/>
</svg>
