<svg width="60" height="60" viewBox="0 0 60 60" fill="none" xmlns="http://www.w3.org/2000/svg">
<path d="M26.75 35.5005V47.5005C25.922 47.5012 25.2507 48.1725 25.25 49.0005V50.5005C25.2507 51.3285 25.922 51.9997 26.75 52.0005H28.25C29.078 51.9997 29.7493 51.3285 29.75 50.5005V49.0005C29.7493 48.1725 29.078 47.5012 28.25 47.5005V35.5005H26.75ZM28.2511 50.5005H26.75V49.0005H28.25L28.2511 50.5005Z" fill="#D62C2C"/>
<path d="M32.1 40.7504L32.1 35.6005H33.4V40.7505L33.4 40.7506C33.4004 41.2196 33.7809 41.6001 34.2499 41.6005H34.25H34.9999C36.1869 41.6019 37.1486 42.5636 37.15 43.7506V47.5005V47.6004L37.2499 47.6005C38.0228 47.6012 38.6493 48.2277 38.65 49.0006V50.5004C38.6493 51.2732 38.0228 51.8998 37.2499 51.9005H35.7501C34.9772 51.8998 34.3507 51.2732 34.35 50.5004V49.0006C34.3507 48.2277 34.9772 47.6012 35.7501 47.6005L35.85 47.6004V47.5005V43.7505L35.85 43.7504C35.8496 43.2814 35.4691 42.9009 35.0001 42.9005H35H34.2501C33.0631 42.8991 32.1014 41.9374 32.1 40.7504ZM37.35 49.0004L37.3499 48.9005H37.25H35.75H35.65V49.0005V50.5005V50.6005H35.75H37.2511H37.3512L37.3511 50.5004L37.35 49.0004Z" fill="#12233D" stroke="white" stroke-width="0.2"/>
<path d="M43.9991 44.4005H43.999H42.4991C41.3121 44.3991 40.3504 43.4374 40.349 42.2504L40.349 35.6005H41.649V42.2505L41.649 42.2506C41.6494 42.7196 42.03 43.1001 42.4989 43.1005H42.499H43.9989C45.186 43.1019 46.1476 44.0635 46.149 45.2506V47.5005V47.6004L46.2489 47.6005C47.0218 47.6012 47.6483 48.2277 47.649 49.0006V50.5004C47.6483 51.2732 47.0218 51.8998 46.2489 51.9005H44.7491C43.9763 51.8998 43.3497 51.2732 43.349 50.5004V49.0006C43.3497 48.2277 43.9763 47.6012 44.7491 47.6005L44.849 47.6004V47.5005V45.2505V45.2504C44.8486 44.7814 44.4681 44.4009 43.9991 44.4005ZM46.349 49.0004L46.3489 48.9005H46.249H44.749H44.649V49.0005V50.5005V50.6005H44.749H46.2501H46.3502L46.3501 50.5004L46.349 49.0004Z" fill="#12233D" stroke="white" stroke-width="0.2"/>
<path d="M20.35 42.2506V42.2505V35.6005H21.65V42.2504C21.6486 43.4374 20.6869 44.3991 19.4999 44.4005H18H17.9999C17.5309 44.4009 17.1504 44.7814 17.15 45.2504V45.2505V47.5005V47.6004L17.2499 47.6005C18.0228 47.6012 18.6493 48.2277 18.65 49.0006V50.5004C18.6493 51.2732 18.0228 51.8998 17.2499 51.9005H15.7501C14.9772 51.8998 14.3507 51.2732 14.35 50.5004L14.35 49.0005C14.3507 48.2277 14.9773 47.6012 15.7501 47.6005L15.85 47.6004V47.5005L15.85 45.2506C15.85 45.2506 15.85 45.2505 15.85 45.2505C15.8515 44.0635 16.8131 43.1019 18.0001 43.1005L19.5 43.1005L19.5001 43.1005C19.9691 43.1001 20.3496 42.7196 20.35 42.2506ZM17.2511 50.6005H17.3512L17.3511 50.5004L17.35 49.0004L17.3499 48.9005H17.25H15.75H15.65V49.0005V50.5005V50.6005H15.75H17.2511Z" fill="#12233D" stroke="white" stroke-width="0.2"/>
<path d="M46.8543 22.0126L46.8654 22.1H46.9535H47C50.2586 22.1 52.9 24.7414 52.9 28C52.9 31.2586 50.2586 33.9 47 33.9H16.25C11.7488 33.9 8.1 30.2512 8.1 25.75C8.1 21.2488 11.7488 17.6 16.25 17.6H19.25H19.35V17.5V16.75C19.35 11.4205 23.6705 7.1 29 7.1C34.3295 7.1 38.65 11.4205 38.65 16.75V16.85H38.75H40.9998C43.9719 16.854 46.4787 19.0644 46.8543 22.0126ZM41.0001 18.15H41H37.35V16.75C37.35 12.1384 33.6116 8.4 29 8.4C24.3884 8.4 20.65 12.1384 20.65 16.75V18.9H16.25C12.4667 18.9 9.4 21.9667 9.4 25.75C9.4 29.5332 12.4667 32.6 16.25 32.6H47C49.5403 32.6 51.6 30.5403 51.6 28C51.6 25.4597 49.5403 23.4 47 23.4H45.6V22.75V22.7499C45.5974 20.2107 43.5392 18.1526 41.0001 18.15Z" fill="#12233D" stroke="white" stroke-width="0.2"/>
</svg>
