<svg width="60" height="60" viewBox="0 0 60 60" fill="none" xmlns="http://www.w3.org/2000/svg">
<rect width="60" height="60" fill="white"/>
<path d="M49.1764 16.7302C50.4 15.9788 51.2264 14.6328 51.2264 13.0852C51.2264 10.7253 49.3217 8.80481 46.9811 8.80481C44.6406 8.80481 42.7358 10.7253 42.7358 13.0852C42.7358 14.6328 43.5623 15.9788 44.7858 16.7302C41.6887 17.6224 39.3481 20.341 39.0066 23.6569C37.3236 22.1663 35.2802 21.0858 33.0217 20.5693C35.9491 19.3641 38.0189 16.4658 38.0189 13.0852C38.0189 8.62693 34.4217 5 30 5C25.5783 5 21.9811 8.62693 21.9811 13.0852C21.9811 16.4658 24.0509 19.3641 26.9783 20.5702C24.7198 21.0858 22.6774 22.1663 20.9934 23.6578C20.6519 20.3419 18.3123 17.6224 15.2151 16.7312C16.4377 15.9788 17.2642 14.6319 17.2642 13.0852C17.2642 10.7253 15.3594 8.80481 13.0189 8.80481C10.6783 8.80481 8.77358 10.7253 8.77358 13.0852C8.77358 14.6319 9.6 15.9788 10.8226 16.7302C7.46698 17.6966 5 20.8099 5 24.4996C5 24.7622 5.21132 24.9752 5.4717 24.9752C5.73208 24.9752 5.9434 24.7622 5.9434 24.4996C5.9434 20.5655 9.11698 17.3656 13.0189 17.3656C16.9208 17.3656 20.0943 20.5655 20.0943 24.4996C20.0943 24.5082 20.0981 24.5148 20.0991 24.5215C17.7642 26.9975 16.3208 30.3352 16.3208 34.0116C16.3208 34.2742 16.5321 34.4872 16.7925 34.4872C17.0528 34.4872 17.2642 34.2742 17.2642 34.0116C17.2642 26.9309 22.9774 21.1704 30 21.1704C37.0226 21.1704 42.7358 26.9309 42.7358 34.0116C42.7358 34.2742 42.9472 34.4872 43.2075 34.4872C43.4679 34.4872 43.6792 34.2742 43.6792 34.0116C43.6792 30.3352 42.2358 26.9975 39.9009 24.5215C39.9019 24.5148 39.9057 24.5082 39.9057 24.4996C39.9057 20.5655 43.0792 17.3656 46.9811 17.3656C50.883 17.3656 54.0566 20.5655 54.0566 24.4996C54.0566 24.7622 54.2679 24.9752 54.5283 24.9752C54.7887 24.9752 55 24.7622 55 24.4996C55 20.8099 52.533 17.6966 49.1764 16.7302ZM9.71698 13.0852C9.71698 11.2494 11.1981 9.75601 13.0189 9.75601C14.8396 9.75601 16.3208 11.2494 16.3208 13.0852C16.3208 14.921 14.8396 16.4144 13.0189 16.4144C11.1981 16.4144 9.71698 14.921 9.71698 13.0852ZM22.9245 13.0852C22.9245 9.15104 26.0981 5.9512 30 5.9512C33.9019 5.9512 37.0755 9.15104 37.0755 13.0852C37.0755 17.0194 33.9019 20.2192 30 20.2192C26.0981 20.2192 22.9245 17.0194 22.9245 13.0852ZM43.6792 13.0852C43.6792 11.2494 45.1604 9.75601 46.9811 9.75601C48.8019 9.75601 50.283 11.2494 50.283 13.0852C50.283 14.921 48.8019 16.4144 46.9811 16.4144C45.1604 16.4144 43.6792 14.921 43.6792 13.0852Z" fill="#12233D"/>
<path d="M28.1406 54.9996V48.5381" stroke="#12233D"/>
<path d="M32.7188 54.9996V48.5381" stroke="#12233D"/>
<path d="M21.382 48.7306L30.4301 32.9291L39.4783 48.7306H21.382Z" stroke="#D62C2C"/>
</svg>
