<svg width="60" height="60" viewBox="0 0 60 60" fill="none" xmlns="http://www.w3.org/2000/svg">
<rect width="60" height="60" fill="white"/>
<path d="M24.1956 8.64111C25.9334 6.10007 27.7016 4.2197 29.5 3C31.2984 4.2197 33.0666 6.10007 34.8044 8.64111C38.28 13.7232 39.8763 19.5676 39.5934 26.1743C40.5836 26.7435 41.5535 27.4855 42.5033 28.4002C44.3825 30.2501 45.2009 32.1 44.9584 33.9499L44.2916 38.8591C43.6046 42.132 42.6952 43.7989 41.5636 43.8599C41.0787 43.8599 40.4421 43.6566 39.6541 43.2501C38.0577 42.4572 36.4714 41.0851 34.8953 39.1336L33.3495 40.2313C32.0764 40.9631 30.7933 41.3087 29.5 41.268C28.2067 41.3087 26.9236 40.9631 25.6505 40.2313L24.1047 39.1336C22.5286 41.0851 20.9423 42.4572 19.3459 43.2501C18.5579 43.6566 17.9213 43.8599 17.4364 43.8599C16.3048 43.7989 15.3954 42.132 14.7084 38.8591L14.0416 33.9499C13.7991 32.1 14.6175 30.2501 16.4967 28.4002C17.4465 27.4855 18.4164 26.7435 19.4066 26.1743C19.1237 19.5676 20.72 13.7232 24.1956 8.64111Z" stroke="#12233D" stroke-linecap="round" stroke-linejoin="round"/>
<line x1="0.5" y1="-0.5" x2="10.6354" y2="-0.5" transform="matrix(-0.340218 -0.940347 0.939032 -0.34383 37.6035 55.3311)" stroke="#D62C2C" stroke-linecap="round" stroke-linejoin="round"/>
<line x1="0.5" y1="-0.5" x2="10.6354" y2="-0.5" transform="matrix(-0.340218 0.940347 -0.939032 -0.34383 24.7246 44.8604)" stroke="#D62C2C" stroke-linecap="round" stroke-linejoin="round"/>
<line x1="29.3613" y1="46.3564" x2="29.3613" y2="56.4996" stroke="#D62C2C" stroke-linecap="round" stroke-linejoin="round"/>
<path d="M31.3325 16.4547C31.3325 17.6251 31.0695 18.6599 30.6694 19.3844C30.2596 20.1265 29.7741 20.4398 29.3557 20.4398C28.9373 20.4398 28.4518 20.1265 28.042 19.3844C27.642 18.6599 27.3789 17.6251 27.3789 16.4547C27.3789 15.2844 27.642 14.2496 28.042 13.5251C28.4518 12.783 28.9373 12.4697 29.3557 12.4697C29.7741 12.4697 30.2596 12.783 30.6694 13.5251C31.0695 14.2496 31.3325 15.2844 31.3325 16.4547Z" stroke="#12233D"/>
</svg>
