<svg height="110" width="111" xmlns="http://www.w3.org/2000/svg" viewBox="0 0 111 110"><path fill="#fffffe" fill-rule="evenodd" d="M104.52 49.48h4.23s3.17 8.84 0 18.84h-4.51"/><path stroke="#1a1919" fill="none" d="M104.52 49.48h4.23s3.17 8.84 0 18.84h-4.51"/><path fill="#fffffe" fill-rule="evenodd" d="M6.98 49.48H2.75s-3.17 8.84 0 18.84h4.52"/><path stroke="#1a1919" fill="none" d="M6.98 49.48H2.75s-3.17 8.84 0 18.84h4.52"/><path fill="#fffffe" fill-rule="evenodd" d="M98.55 75.5l-1.28-1.53c-.1.08-9.67 7.95-25.72 9.36-.45-1.28-1.67-2.22-3.11-2.22h-5c-1.82 0-3.31 1.49-3.31 3.31s1.49 3.32 3.31 3.32h5c1.5 0 2.77-1.03 3.17-2.4 16.77-1.44 26.53-9.49 26.94-9.84zm0 0"/><path stroke="#1a1919" fill="none" d="M98.55 75.5l-1.28-1.53c-.1.08-9.67 7.95-25.72 9.36-.45-1.28-1.67-2.22-3.11-2.22h-5c-1.82 0-3.31 1.49-3.31 3.31s1.49 3.32 3.31 3.32h5c1.5 0 2.77-1.03 3.17-2.4 16.77-1.44 26.53-9.49 26.94-9.84zm0 0"/><path fill="#fffffe" fill-rule="evenodd" d="M95 16.74C82 .99 61.25 1.24 55.75 1.24S29.5.99 16.5 16.74s-9.25 51-9 54.5-1.75 32.25 42.75 38h11c44.5-5.75 42.5-34.5 42.75-38s4-38.75-9-54.5zm1 72.75c-4.75 6.75-20.45 16.5-39.23 16.25h-2.04c-18.78.25-34.48-9.5-39.23-16.25S6 46.24 16.75 34.24s39-12.25 39-12.25 28.25.25 39 12.25 6 48.5 1.25 55.25zm0 0"/><path stroke="#1a1919" fill="none" d="M95 16.74C82 .99 61.25 1.24 55.75 1.24S29.5.99 16.5 16.74s-9.25 51-9 54.5-1.75 32.25 42.75 38h11c44.5-5.75 42.5-34.5 42.75-38s4-38.75-9-54.5zm1 72.75c-4.75 6.75-20.45 16.5-39.23 16.25h-2.04c-18.78.25-34.48-9.5-39.23-16.25S6 46.24 16.75 34.24s39-12.25 39-12.25 28.25.25 39 12.25 6 48.5 1.25 55.25zm0 0"/><path fill="#fffffe" fill-rule="evenodd" d="M55.75 21.99s-28.25.25-39 12.25-6 48.5-1.25 55.25 20.45 16.5 39.23 16.25h2.04c18.78.25 34.48-9.5 39.23-16.25s9.5-43.25-1.25-55.25-39-12.25-39-12.25zm39 62.75c-1.75 2.75-14.8 17.5-38.02 17h-1.96c-23.22.5-36.27-14.25-38.02-17s-9.01-43.76 7-51.25c16.01-7.5 32-7.25 32-7.25s15.99-.25 32 7.25c16.01 7.49 8.75 48.5 7 51.25zm0 0"/><path stroke="#1a1919" fill="none" d="M55.75 21.99s-28.25.25-39 12.25-6 48.5-1.25 55.25 20.45 16.5 39.23 16.25h2.04c18.78.25 34.48-9.5 39.23-16.25s9.5-43.25-1.25-55.25-39-12.25-39-12.25zm39 62.75c-1.75 2.75-14.8 17.5-38.02 17h-1.96c-23.22.5-36.27-14.25-38.02-17s-9.01-43.76 7-51.25c16.01-7.5 32-7.25 32-7.25s15.99-.25 32 7.25c16.01 7.49 8.75 48.5 7 51.25zm0 0"/><path fill="#fffffe" fill-rule="evenodd" d="M34.6 4.39c-1.38.48-2.76 1.04-4.15 1.68-1 2.4-4.29 11.42-.9 20.36 1.1-.39 2.23-.75 3.36-1.08-2.61-9.48.63-18.44 1.69-20.96zm0 0"/><path stroke="#1a1919" fill="none" d="M34.6 4.39c-1.38.48-2.76 1.04-4.15 1.68-1 2.4-4.29 11.42-.9 20.36 1.1-.39 2.23-.75 3.36-1.08-2.61-9.48.63-18.44 1.69-20.96zm0 0"/><path fill="#fffffe" fill-rule="evenodd" d="M77.05 4.39c1.38.48 2.76 1.04 4.15 1.68 1.01 2.4 4.29 11.42.9 20.36-1.1-.39-2.23-.75-3.36-1.08 2.6-9.48-.63-18.44-1.69-20.96zm0 0"/><path stroke="#1a1919" fill="none" d="M77.05 4.39c1.38.48 2.76 1.04 4.15 1.68 1.01 2.4 4.29 11.42.9 20.36-1.1-.39-2.23-.75-3.36-1.08 2.6-9.48-.63-18.44-1.69-20.96zm0 0"/></svg>