<?xml-stylesheet type="text/css" href="/merged-stylesheets-prefixed.css" ?>
<svg id="Layer_1" xmlns="http://www.w3.org/2000/svg" viewBox="0 0 150 150">
  <style>
    .st0{fill:none;stroke:#FFFFFF;stroke-width:2;stroke-miterlimit:10;}
    .st1{fill:#EF4324;stroke:#FFFFFF;stroke-width:2;stroke-miterlimit:10;}
    .st2{fill:#FFFFFF;stroke:#FFFFFF;stroke-width:2;stroke-miterlimit:10;}
    .st3{fill:#333333;}
  </style><path class="st0" d="M56.6 15.1v8.4"/>
  <line class="st0" x1="56.6" y1="15.1" x2="56.6" y2="23.5"/>
  <circle class="st0" cx="56.6" cy="13.4" r="2.2"/>
  <line class="st0" x1="93.4" y1="15.7" x2="93.4" y2="23.9"/>
  <circle class="st0" cx="93.4" cy="13.4" r="2.2"/>
  <circle class="st0" cx="105.4" cy="13.4" r="2.2"/>
  <line class="st0" x1="103.7" y1="13.4" x2="95.6" y2="13.4"/>
  <circle class="st1" cx="75" cy="31.5" r="8.6"/>
  <circle class="st2" cx="75" cy="29.4" r="4.1"/>
  <circle class="st3" cx="74.9" cy="27.7" r="2.4"/>
  <path class="st0" d="M75,117v-4.7 M75,132.6c2,0,3.6-1.6,3.6-3.6s-1.6-3.6-3.6-3.6s-3.6,1.6-3.6,3.6S73,132.6,75,132.6z M75,136.9
    c4.3,0,7.8-3.5,7.8-7.8s-3.5-7.8-7.8-7.8c-4.3,0-7.8,3.5-7.8,7.8S70.7,136.9,75,136.9z M87,129.1c0-6.6-5.4-12-12-12s-12,5.4-12,12
     M103.4,52.9H46.6v59.4h56.8V52.9z"/>
  <rect x="54.4" y="61" class="st0" width="41.3" height="21.6"/>
  <path class="st0" d="M103.4,45.2c0-15.7-12.7-28.4-28.4-28.4S46.6,29.5,46.6,45.2H103.4z"/>
  <polyline class="st0" points="46.6,59.5 35,59.5 35,92.6 "/>
  <path class="st0" d="M28.8,98.8c0-3.4,2.8-6.2,6.2-6.2s6.2,2.8,6.2,6.2"/>
  <polyline class="st0" points="103.4,59.5 115,59.5 115,92.6 "/>
  <path class="st0" d="M121.2,98.8c0-3.4-2.8-6.2-6.2-6.2c-3.4,0-6.2,2.8-6.2,6.2"/>
  <line class="st0 keen-stack--chest" x1="54.4" y1="67.9" x2="95.6" y2="67.9"/>
  <line class="st0 keen-stack--chest-two" x1="54.4" y1="75.7" x2="95.6" y2="75.7"/>
</svg>
