<?xml-stylesheet type="text/css" href="/merged-stylesheets.css" ?>
<svg class="keen-eye" id="Layer_1" xmlns="http://www.w3.org/2000/svg" viewBox="0 0 150 150">
  <style>.st0{fill:#EF4324;stroke:#FFFFFF;stroke-width:2;stroke-miterlimit:10;} .st1{fill:none;stroke:#FFFFFF;stroke-width:2;stroke-miterlimit:10;} .st2{fill:#FFFFFF;stroke:#FFFFFF;stroke-width:2;stroke-miterlimit:10;} .st3{fill:#333333;}
  </style>
  <circle class="st0" cx="50.7" cy="43.1" r="14.8"/>
  <path class="st1 keen-eye--hand" d="M110.6,58.7c0,4.5-3.6,8.1-8.1,8.1c-4.5,0-8.1-3.6-8.1-8.1s3.6-8.1,8.1-8.1C107,50.6,110.6,54.3,110.6,58.7z
     M129.1,65.7c-2.7,0-4.8,2.2-4.8,4.8c0,2.7,2.2,4.8,4.8,4.8c2.7,0,4.8-2.2,4.8-4.8C134,67.8,131.8,65.7,129.1,65.7z M125.3,68.5
    l-15.1-6.4"/>
  <path class="st1" d="M42.8,117c0,4.9-4,8.9-8.9,8.9s-8.9-4-8.9-8.9c0-4.9,4-8.9,8.9-8.9S42.8,112.1,42.8,117z M38.2,117
    c0-2.3-1.9-4.2-4.2-4.2c-2.3,0-4.2,1.9-4.2,4.2c0,2.3,1.9,4.2,4.2,4.2C36.3,121.2,38.2,119.3,38.2,117z M65.5,108.1
    c-4.9,0-8.9,4-8.9,8.9c0,4.9,4,8.9,8.9,8.9s8.9-4,8.9-8.9C74.4,112.1,70.4,108.1,65.5,108.1z M69.7,117c0-2.3-1.9-4.2-4.2-4.2
    c-2.3,0-4.2,1.9-4.2,4.2c0,2.3,1.9,4.2,4.2,4.2C67.8,121.2,69.7,119.3,69.7,117z M96.6,108.1c-4.9,0-8.9,4-8.9,8.9
    c0,4.9,4,8.9,8.9,8.9c4.9,0,8.9-4,8.9-8.9C105.5,112.1,101.6,108.1,96.6,108.1z M100.9,117c0-2.3-1.9-4.2-4.2-4.2
    c-2.3,0-4.2,1.9-4.2,4.2c0,2.3,1.9,4.2,4.2,4.2C99,121.2,100.9,119.3,100.9,117z M15.9,98.4V117h4.5v0c0-7.4,6-13.5,13.5-13.5
    s13.5,6,13.5,13.5v0h4.4v0c0-7.4,6-13.5,13.5-13.5s13.5,6,13.5,13.5v0h4.4v0c0-7.4,6-13.5,13.5-13.5s13.5,6,13.5,13.5v0h4.3V98.4
    H15.9z M96.9,89.2H34v9.3h62.9V89.2z M86.8,89.2V76.7H65.2v12.5H86.8z M59.4,89.2v-8H42v8 M50.7,56.9v24.3 M50.7,28.3v-8.2
     M86.8,76.7l9.8-12.3 M50.7,15.5c-1.2,0-2.2,1-2.2,2.2c0,1.2,1,2.2,2.2,2.2c1.2,0,2.2-1,2.2-2.2C53,16.5,52,15.5,50.7,15.5z
     M63.2,15.5c-1.2,0-2.2,1-2.2,2.2c0,1.2,1,2.2,2.2,2.2s2.2-1,2.2-2.2C65.5,16.5,64.5,15.5,63.2,15.5z M38.2,15.5
    c-1.2,0-2.2,1-2.2,2.2c0,1.2,1,2.2,2.2,2.2c1.2,0,2.2-1,2.2-2.2C40.4,16.5,39.4,15.5,38.2,15.5z M48.5,17.7h-8 M61,17.7h-8"/>
  <circle class="st2" cx="50.7" cy="38.7" r="6.3"/>
  <circle class="st3" cx="52.5" cy="38.5" r="4.1"/>
</svg>
