<?xml-stylesheet type="text/css" href="/merged-stylesheets-prefixed.css" ?>
<svg class="keen-ethics" id="Layer_1" xmlns="http://www.w3.org/2000/svg" viewBox="0 0 150 150">
  <style>
    .st0{fill:#EE4324;stroke:#FFFFFF;stroke-width:2;stroke-miterlimit:10;}
    .st1{fill:none;stroke:#FFFFFF;stroke-width:2;stroke-miterlimit:10;}
    .st2{fill:#FFFFFF;stroke:#FFFFFF;stroke-width:2;stroke-miterlimit:10;}
    .st3{fill:#231F20;}
  </style>
  <g transform="translate(95,-30) rotate(45)" stroke="none" stroke-width="1" fill="none" fill-rule="evenodd">
    <polyline class="st0" points="69.5,73.2 69.5,64.1 80.5,64.1 80.5,73.2 "/>
    <rect x="66.7" y="73.2" class="st0" width="16.6" height="26.9"/>
    <path class="st1" d="M75,44.4v9.3 M88.2,53.7H61.8v10.4h26.4V53.7z"/>
    <path class="st1" d="M53.9,103.8H10.7c-1.7,0-3-1.3-3-3V67.4c0-1.7,1.3-3,3-3h43.2c1.7,0,3,1.3,3,3v33.4
      C56.9,102.5,55.6,103.8,53.9,103.8z M32.3,103.8V64.4 M21.3,103.8V64.4 M43.3,103.8V64.4 M66.7,84.1h-59 M7.7,93.1h49.2 M7.7,75.1
      h49.2"/>
    <path class="st1" d="M139.3,103.8H96.1c-1.7,0-3-1.3-3-3V67.4c0-1.7,1.3-3,3-3h43.2c1.7,0,3,1.3,3,3v33.4
      C142.3,102.5,141,103.8,139.3,103.8z M117.7,103.8V64.4 M106.7,64.4v39.4 M128.7,103.8V64.4 M142.3,84.1h-59 M93.1,93.1h49.2
       M93.1,75.1h49.2"/>
    <path class="st1 keen-ethics--part-top" d="M75,23v8.2 M75,18.4c-1.2,0-2.2,1-2.2,2.2c0,1.2,1,2.2,2.2,2.2c1.2,0,2.2-1,2.2-2.2
      C77.2,19.4,76.2,18.4,75,18.4z M61.8,31.2c0,7.3,5.9,13.2,13.2,13.2s13.2-5.9,13.2-13.2H61.8z"/>
    <line class="st1" x1="75" y1="109.5" x2="75" y2="100.2"/>
    <path class="st1" d="M65.8,118.6c0-5.1,4.1-9.2,9.2-9.2s9.2,4.1,9.2,9.2H65.8z"/>
    <path class="st1 keen-ethics--part-bottom" d="M84.2,122.5c0,5.1-4.1,9.2-9.2,9.2s-9.2-4.1-9.2-9.2H84.2z"/>
    <circle class="st2" cx="75" cy="84.1" r="3.9"/>
    <circle class="st3" cx="74.9" cy="82.7" r="2.5"/>
  </g>
</svg>
