<?xml-stylesheet type="text/css" href="../css/style.min.css" ?>
<svg class="keen-methodology" id="Layer_1" xmlns="http://www.w3.org/2000/svg" viewBox="0 0 150 150">
  <style>
    .st0{fill:#EF4324;stroke:#FFFFFF;stroke-width:2;stroke-miterlimit:10;}
    .st1{fill:#FFFFFF;stroke:#FFFFFF;stroke-width:2;stroke-miterlimit:10;}
    .st2{fill:#333333;}
    .st3{fill:none;stroke:#FFFFFF;stroke-width:2;stroke-miterlimit:10;}
  </style>
  <path class="st0" d="M86.4,34.3c0,5.6-4.5,14.3-10.1,14.3c-5.6,0-10.1-8.7-10.1-14.3s4.5-10.1,10.1-10.1
    C81.8,24.2,86.4,28.7,86.4,34.3z"/>
  <circle class="st1" cx="76.2" cy="31.3" r="4.3"/>
  <circle class="st2" cx="76.1" cy="29.8" r="2.8"/>
  <circle class="st3" cx="76.2" cy="100.4" r="14"/>
  <circle class="st3" cx="76.2" cy="100.4" r="8"/>
  <circle class="st3" cx="76.2" cy="100.4" r="3.2"/>
  <path class="st3" d="M102.1,34.7c0,14.3-11.6,42.9-25.9,42.9S50.3,49,50.3,34.7S61.9,8.8,76.2,8.8S102.1,20.4,102.1,34.7z
     M76.2,77.6v8.8"/>
  <path class="st3" d="M62.2,100.4"/>
  <circle class="st3" cx="70.2" cy="131.6" r="4"/>
  <line class="st3" x1="70.2" y1="113.1" x2="70.2" y2="127.6"/>
  <circle class="st3" cx="82.3" cy="131.6" r="4"/>
  <line class="st3" x1="82.3" y1="113.1" x2="82.3" y2="127.6"/>
  <path class="st3" d="M38.2,95.2c1.4,0,2.6,1.2,2.6,2.6s-1.2,2.6-2.6,2.6c-1.4,0-2.6-1.2-2.6-2.6S36.8,95.2,38.2,95.2z M31.6,76.6
    c0,2.2,1.8,4,4,4s4-1.8,4-4c0-2.2-1.8-4-4-4S31.6,74.4,31.6,76.6z M35.6,97.8V80.5 M38.2,100.4h24"/>
  <path class="st3 keen-methodology--hand-right" d="M116.8,97.6c0,1.4-1.2,2.6-2.6,2.6s-2.6-1.2-2.6-2.6s1.2-2.6,2.6-2.6S116.8,96.2,116.8,97.6z M116.8,72.4
    c-2.2,0-4,1.8-4,4c0,2.2,1.8,4,4,4s4-1.8,4-4C120.9,74.2,119.1,72.4,116.8,72.4z M116.8,80.3v17.3"/>
  <line class="st3" x1="114.3" y1="100.2" x2="90.3" y2="100.2"/>
</svg>
