<?xml-stylesheet type="text/css" href="../css/style.min.css" ?>
<svg class="rocket" width="98" height="99" viewBox="0 0 118 119" xmlns="http://www.w3.org/2000/svg">
  <title>Rocket</title>
  <g transform="translate(10 10) rotate(45 64.35 82.435)" stroke-width="2" fill="none" fill-rule="evenodd">
    <path d="M15 16L30 1l15 15v60H15V16z" stroke="#333"/>
    <path stroke="#333" fill="#FFF" d="M.858 76L15 61.858 29.142 76 15 90.142zM29.858 76L44 61.858 58.142 76 44 90.142z"/>
    <path stroke="#333" fill="#FFF" d="M15.858 84L30 69.858 44.142 84 30 98.142z"/>
    <path class="rocket--fire" stroke="#DE4F4F" d="M20.1 98l9.9-9.9 9.9 9.9-9.9 9.9z"/>
    <path class="rocket--fire" stroke="#DE4F4F" d="M25.757 107L30 102.757 34.243 107 30 111.243z"/>
    <circle stroke="#DE4F4F" cx="30" cy="29" r="7"/>
    <path class="rocket--path" d="M7 92v21.024M52 92v21.024M30 117v21.024" stroke="#979797"/>
  </g>
</svg>
