<?xml version="1.0"?>
<svg xmlns="http://www.w3.org/2000/svg" xmlns:xlink="http://www.w3.org/1999/xlink" version="1.1" id="Capa_1" x="0px" y="0px" viewBox="0 0 53 53" style="enable-background:new 0 0 53 53;" xml:space="preserve" width="512px" height="512px" class=""><g><rect x="27" y="28" style="fill:#E7E5E5" width="2" height="18" data-original="#424A60" class="" data-old_color="#424A60"/><rect x="37.5" y="2.893" transform="matrix(0.7071 0.7071 -0.7071 0.7071 20.8223 -23.2696)" style="fill:#E7E5E5" width="2" height="21.213" data-original="#424A60" class="" data-old_color="#424A60"/><rect x="15" y="21.858" transform="matrix(0.7071 0.7071 -0.7071 0.7071 30.1421 -0.7696)" style="fill:#E7E5E5" width="2" height="28.284" data-original="#424A60" class="" data-old_color="#424A60"/><rect x="10.722" y="13.5" transform="matrix(0.7071 0.7071 -0.7071 0.7071 15.6716 -8.8345)" style="fill:#E7E5E5" width="15.556" height="2" data-original="#424A60" class="" data-old_color="#424A60"/><rect x="26.893" y="32.5" transform="matrix(0.7071 0.7071 -0.7071 0.7071 34.6716 -16.7046)" style="fill:#E7E5E5" width="21.213" height="2" data-original="#424A60" class="" data-old_color="#424A60"/><circle style="fill:#D62C2C" cx="48" cy="5" r="5" data-original="#43B05C" class="" data-old_color="#43B05C"/><circle style="fill:#B9BCE5" cx="28" cy="48" r="5" data-original="#7383BF" class="" data-old_color="#7383BF"/><circle style="fill:#B9BCE5" cx="5" cy="46" r="5" data-original="#57D8AB" class="" data-old_color="#57D8AB"/><circle style="fill:#D62C2C" cx="12" cy="8" r="3" data-original="#D75A4A" class="" data-old_color="#D75A4A"/><circle style="fill:#B9BCE5" cx="44" cy="40" r="3" data-original="#EBBA16" class="" data-old_color="#EBBA16"/><circle style="fill:#310A44" cx="28" cy="24" r="7" data-original="#4B6DAA" class="active-path" data-old_color="#4B6DAA"/></g> </svg>
