<?xml version="1.0" encoding="utf-8"?>
<!-- Generator: Adobe Illustrator 19.0.0, SVG Export Plug-In . SVG Version: 6.00 Build 0)  -->
<svg version="1.1" id="Layer_1" xmlns="http://www.w3.org/2000/svg" xmlns:xlink="http://www.w3.org/1999/xlink" x="0px" y="0px"
	 viewBox="0 0 478 828" style="enable-background:new 0 0 478 828;" xml:space="preserve">
<style type="text/css">
	.st0{fill:none;}
	.st1{fill:#F2F2F2;}
</style>
<g id="XMLID_52_">
	<path id="XMLID_158_" class="st0" d="M366.6,75h-28.5c-6.1,0-8.3-0.8-8.7,6.9c-0.2,4-1.7,7-4,9.5c-2.4,2.5-5.6,4.7-9.3,5.8
		c-2.5,0.8-5.3,1.7-8,1.7h-5.4H181.9h-5.4c-2.7,0-5.5-1-8-1.8c-3.7-1.2-7-3.3-9.3-5.8c-2.4-2.6-3.8-5.5-4-9.5c-0.4-7.7-2.6-7-8.7-7
		h-28.8C100.2,75,85,87.4,85,104.8v613.3c0,17.5,15.2,32.9,32.6,32.9h249c17.5,0,30.4-15.4,30.4-32.9V104.8
		C397,87.4,384.1,75,366.6,75z"/>
	<path id="XMLID_156_" d="M416,219V106.6c0-28.8-22.4-50.6-51.2-50.6H116c-28.8,0-53,21.9-53,50.6V150h-3v27h3v25h-3v51h3v15h-3v51
		h3v401.4c0,28.8,24.3,53.6,53,53.6h248.8c28.8,0,51.2-24.8,51.2-53.6V302h4v-83H416z M282.3,78.5c0,2.4-2,4.4-4.4,4.4
		s-4.4-2-4.4-4.4s2-4.4,4.4-4.4S282.3,76.1,282.3,78.5z M222.8,78h39c1.7,0,3,1,3,2.5s-1.3,2.5-3,2.5h-39c-1.7,0-3-1-3-2.5
		S221.1,78,222.8,78z M397,718.1c0,17.5-12.9,32.9-30.4,32.9h-249c-17.5,0-32.6-15.4-32.6-32.9V104.8C85,87.4,100.2,75,117.6,75
		h28.8c6.1,0,8.3-0.9,8.7,6.8c0.2,4,1.7,7,4,9.6c2.4,2.5,5.6,4.8,9.3,5.9c2.5,0.8,5.3,1.7,8,1.7h5.4h120.7h5.4c2.7,0,5.5-1.1,8-1.9
		c3.7-1.2,7-3.2,9.3-5.7c2.4-2.5,3.8-5.4,4-9.4c0.4-7.7,2.6-7.1,8.7-7.1h28.5c17.5,0,30.4,12.4,30.4,29.8V718.1z"/>
	<path id="XMLID_159_" class="st1" d="M261.8,78h-39c-1.7,0-3,1-3,2.5s1.3,2.5,3,2.5h39c1.7,0,3-1,3-2.5S263.4,78,261.8,78z"/>
	<circle id="XMLID_51_" class="st1" cx="277.9" cy="78.5" r="4.4"/>
</g>
</svg>
