<svg xmlns="http://www.w3.org/2000/svg" width="120" height="120" fill-rule="evenodd"><path fill="#fff" d="M0 0h120v120H0z"/><g fill="#000"><path d="M0 0h120v10H0zm0 110h120v10H0z" fill-rule="nonzero"/><path d="M52.8 4H120v112.27H0V4h52.8zm8.16 7.953v96.366h50.88V11.953H60.96zm-43.054 71.17V67.007l5.677-6.108 17.095 22.225h7.645l-20.67-26.222L46.584 36.98H39.17L18.43 59.397h-.525V36.98H12v46.145h5.906zm82.848-4.887h-22.93v-15.66h21.742v-5.052H77.823v-14.62h22.93V37.8h-28.71v45.562h28.712z"/></g><circle fill="#d62c2c" cx="60" cy="77" r="7"/></svg>