<svg xmlns="http://www.w3.org/2000/svg" viewBox="0 0 60 60" width="512" height="512"><path d="M50.976 26.194c-.53-9-7.948-16.194-16.89-16.194-5.43 0-10.688 2.663-13.946 7.008-.075-.04-.154-.066-.23-.102a9.32 9.32 0 0 0-.604-.269c-.114-.045-.228-.086-.343-.126a9.06 9.06 0 0 0-.619-.191c-.115-.03-.23-.063-.345-.09-.225-.05-.455-.1-.687-.125-.1-.015-.2-.035-.302-.046-.332-.037-.668-.06-1.01-.06-4.963 0-9 4.037-9 9 0 .127.008.252.016.377v.004C2.857 27.65 0 32.4 0 37.154 0 44.237 5.762 50 12.845 50h24.508c.104 0 .207-.006.31-.014l.062-.008.134.008c.102.008.204.014.31.014h9.803C54.604 50 60 44.604 60 37.972c0-5.49-3.827-10.412-9.024-11.778zM47.972 48H38.17c-.06 0-.116-.005-.174-.01l-.27-.01-.198.01c-.057.004-.115.01-.173.01H12.845A10.86 10.86 0 0 1 2 37.154C2 33 4.705 28.688 8.433 26.9L9 26.63V26c0-.127.008-.256.015-.386l.01-.16-.012-.2C9.006 25.163 9 25.082 9 25a7.01 7.01 0 0 1 7-7c.31 0 .614.027.917.067.078.01.156.023.233.036.267.044.53.102.79.177.035.01.07.017.106.027.285.087.563.197.835.32.07.032.14.067.2.1a7.04 7.04 0 0 1 .702.396C21.72 20.373 23 22.538 23 25a1 1 0 1 0 2 0c0-2.754-1.246-5.22-3.2-6.87C24.667 14.38 29.388 12 34.085 12c7.745 0 14.177 6.135 14.848 13.888-1.022-.072-2.552-.11-4.083.124a1 1 0 0 0 .149 1.989.96.96 0 0 0 .151-.012c2.227-.337 4.548-.02 4.684-.002C54.5 28.872 58 33.16 58 37.972 58 43.5 53.5 48 47.972 48z" fill="#d62c2c"/></svg>