<svg xmlns="http://www.w3.org/2000/svg" viewBox="0 0 54 54" width="512" height="512" fill="#d62c2c"><path d="M27 0C12.112 0 0 12.112 0 27s12.112 27 27 27 27-12.112 27-27S41.888 0 27 0zm0 52C13.215 52 2 40.785 2 27S13.215 2 27 2s25 11.215 25 25-11.215 25-25 25zm.707-37.707a1 1 0 0 0-1.414 1.414L37.586 27 26.293 38.293a1 1 0 0 0 0 1.414c.195.195.45.293.707.293s.512-.098.707-.293L39.205 28.2a1.71 1.71 0 0 0 0-2.418l-11.498-11.5zM29.205 25.8L17.707 14.293a1 1 0 0 0-1.414 1.414L27.586 27 16.293 38.293a1 1 0 0 0 0 1.414c.195.195.45.293.707.293s.512-.098.707-.293L29.205 28.2a1.71 1.71 0 0 0 0-2.418z"/></svg>