<svg xmlns="http://www.w3.org/2000/svg" viewBox="0 0 57 57" width="512" height="512"><path d="M56.575 27.683l-27-19c-.306-.216-.703-.242-1.036-.07A1 1 0 0 0 28 9.5v17.777L1.575 8.694C1.27 8.48.872 8.453.54 8.625A1 1 0 0 0 0 9.513v37.975a1 1 0 0 0 .539.888 1.02 1.02 0 0 0 .461.111c.202 0 .403-.062.575-.182L28 29.723V47.5a1 1 0 0 0 .539.888A1.01 1.01 0 0 0 29 48.5c.202 0 .404-.062.575-.183l27-19c.267-.186.425-.492.425-.817s-.158-.63-.425-.817zM2 45.562V11.44L26.262 28.5 2 45.562zm28 .01V11.427L54.263 28.5 30 45.573z" fill="#d62c2c"/></svg>