<svg xmlns="http://www.w3.org/2000/svg" viewBox="0 0 192 192" width="500" height="500"><path d="M96 23.04c-8.445 0-15.36 6.915-15.36 15.36 0 4.545 2.1 8.58 5.28 11.4l-26.4 45.72-26.04-13.08a15.34 15.34 0 0 0 1.08-5.64c0-8.445-6.915-15.36-15.36-15.36S3.84 68.355 3.84 76.8c0 8.355 6.795 15.225 15.12 15.36l11.76 50.28v22.68a3.85 3.85 0 0 0 3.84 3.84h122.88a3.85 3.85 0 0 0 3.84-3.84v-22.68l11.76-50.28c8.325-.135 15.12-7.005 15.12-15.36 0-8.445-6.915-15.36-15.36-15.36s-15.36 6.915-15.36 15.36c0 1.8.375 3.555.96 5.16l-26.28 13.2-26.16-45.24c3.255-2.82 5.4-6.915 5.4-11.52 0-8.445-6.915-15.36-15.36-15.36zm0 7.68c4.3 0 7.68 3.4 7.68 7.68 0 2.55-1.245 4.725-3.12 6.12-.165-.015-.315-.015-.48 0-1 .135-1.905.645-2.52 1.44-.5.105-1.02.12-1.56.12-.885 0-1.74-.1-2.52-.36a1.79 1.79 0 0 0-.24-.12c-.045-.015-.075-.105-.12-.12H93c-.045-.015-.075-.105-.12-.12a3.23 3.23 0 0 0-.72-.36c-2.295-1.32-3.84-3.735-3.84-6.6 0-4.3 3.4-7.68 7.68-7.68zM92.76 53.4c1.035.225 2.145.36 3.24.36 1.05 0 2.13-.15 3.12-.36l28.08 48.72c1.005 1.77 3.2 2.46 5.04 1.56l30.6-15.36c.855.735 1.755 1.38 2.76 1.92l-11.16 48H37.56l-11.16-48c.825-.45 1.56-.975 2.28-1.56l30.6 15.36a3.84 3.84 0 0 0 5.16-1.56zM19.2 69.12c4.3 0 7.68 3.4 7.68 7.68 0 1.455-.4 2.805-1.08 3.96-.015.015-.105-.015-.12 0-.5.375-.93.87-1.2 1.44v.12c-.75.72-1.635 1.32-2.64 1.68-.03.015-.1-.015-.12 0-.495.03-1 .15-1.44.36h-.12c-.075.015-.15.105-.24.12-.24.015-.48 0-.72 0-4.3 0-7.68-3.4-7.68-7.68s3.4-7.68 7.68-7.68zm153.6 0c4.3 0 7.68 3.4 7.68 7.68s-3.4 7.68-7.68 7.68c-.42 0-.8-.06-1.2-.12-.345-.135-.705-.2-1.08-.24-1.32-.405-2.46-1.17-3.36-2.16a3.84 3.84 0 0 0-.96-1.32c-.645-1.125-1.08-2.43-1.08-3.84 0-4.3 3.4-7.68 7.68-7.68zm-134.4 76.8h115.2v15.36H38.4z" fill="#d62c2c"/></svg>