<svg xmlns="http://www.w3.org/2000/svg" viewBox="0 0 33.875 33.875" width="512" height="512" fill="#d62c2c"><path d="M21.173 32.393c-4.1 0-6.222-.592-7.618-.984-.655-.184-1.13-.317-1.558-.317H6.34a.5.5 0 0 1-.5-.5V18.816a.5.5 0 0 1 .5-.5c1.96 0 3.658-1.084 5.046-3.222l5.162-7.354c1.95-2.514 3.032-5.272 3.226-6.146l.072-.35C19.965.632 20.09 0 21.107 0c1.995 0 3.072 2.303 3.072 4.47 0 1.338-.504 3.138-1.54 5.503-.403.92-.34 1.563-.163 1.833.088.135.212.198.4.198h7.937c.966.11 2.68.864 2.68 2.938 0 1.374-.498 2.14-.968 2.557.464.42.968 1.155.968 2.355 0 1.396-.925 2.276-1.6 2.736.354.405.698 1.087.698 2.21 0 1.597-1.362 2.408-2.23 2.763.344.622.41 1.356.24 2.364-.296 1.73-3.1 2.466-9.408 2.466zm-14.334-2.3h5.158c.566 0 1.123.156 1.828.354 1.344.377 3.375.947 7.348.947 7.084 0 8.316-1.023 8.42-1.633.2-1.17-.014-1.675-.425-2.11a.5.5 0 0 1 .25-.83c.02-.005 2.15-.524 2.15-2.02s-.74-1.794-.77-1.806a.51.51 0 0 1-.326-.464c-.002-.205.114-.393.305-.47.017-.007 1.705-.715 1.705-2.205s-1.063-1.903-1.073-1.907a.5.5 0 0 1 .051-.953c.034-.01 1.022-.32 1.022-2.053 0-1.714-1.668-1.933-1.74-1.94l-7.877.003c-.517 0-.952-.23-1.227-.65-.432-.66-.4-1.674.084-2.782.98-2.236 1.456-3.905 1.456-5.102 0-1.44-.642-3.47-2.072-3.47a.57.57 0 0 0-.199.02l-.08.416-.077.376c-.21.94-1.357 3.895-3.412 6.542l-5.113 7.286c-1.47 2.263-3.278 3.49-5.385 3.658v10.794z"/><path d="M6.34 33.875H.893a.5.5 0 0 1-.5-.5v-17.18a.5.5 0 0 1 .5-.5H6.34a.5.5 0 0 1 .5.5v17.18a.5.5 0 0 1-.5.5zm-4.946-1H5.84v-16.18H1.393v16.18z"/></svg>