<?xml version="1.0" encoding="UTF-8"?>
<svg xmlns="http://www.w3.org/2000/svg" xmlns:xlink="http://www.w3.org/1999/xlink" width="250px" height="250px" viewBox="0 0 250 250" version="1.1">
<g id="surface14537">
<path style=" stroke:none;fill-rule:nonzero;fill:rgb(83.921569%,17.254902%,17.254902%);fill-opacity:1;" d="M 124.921875 9.933594 C 124.636719 9.9375 124.351562 9.964844 124.074219 10.019531 C 61.046875 10.523438 10 61.859375 10 125 C 10 188.453125 61.546875 240 125 240 C 156.285156 240 184.664062 227.457031 205.410156 207.148438 C 206.121094 206.722656 206.714844 206.125 207.140625 205.410156 C 227.449219 184.664062 240 156.289062 240 125 C 240 61.855469 188.949219 10.515625 125.917969 10.019531 C 125.589844 9.957031 125.257812 9.925781 124.921875 9.933594 Z M 120 20.125 L 120 60.253906 C 86.492188 62.820312 60 90.847656 60 125 C 60 160.839844 89.160156 190 125 190 C 141.121094 190 155.855469 184.0625 167.226562 174.304688 L 195.566406 202.636719 C 176.921875 219.589844 152.222656 230 125 230 C 66.949219 230 20 183.050781 20 125 C 20 68.628906 64.277344 22.730469 120 20.125 Z M 130 20.125 C 185.722656 22.730469 230 68.628906 230 125 C 230 152.222656 219.589844 176.921875 202.636719 195.566406 L 174.304688 167.226562 C 184.0625 155.855469 190 141.121094 190 125 C 190 90.847656 163.507812 62.820312 130 60.253906 Z M 125 70 C 155.433594 70 180 94.566406 180 125 C 180 155.433594 155.433594 180 125 180 C 94.566406 180 70 155.433594 70 125 C 70 94.566406 94.566406 70 125 70 Z M 125 70 "/>
</g>
</svg>
