<svg xmlns="http://www.w3.org/2000/svg" viewBox="0 0 210 210" width="500" height="500"><path d="M105 8.4C51.696 8.4 8.4 51.696 8.4 105s43.296 96.6 96.6 96.6 96.6-43.296 96.6-96.6S158.304 8.4 105 8.4zm0 8.4c48.76 0 88.2 39.44 88.2 88.2s-39.44 88.2-88.2 88.2-88.2-39.44-88.2-88.2S56.24 16.8 105 16.8zm-.263 28.48c-.607.082-1.263.328-1.837.656l-3.806 2.23c-2.264 1.313-3.02 4.298-1.706 6.563l32.944 56.7 12.075-7.088-32.944-56.7c-.984-1.7-2.888-2.592-4.725-2.362zM94.63 64.18c-1.837-.246-3.74.525-4.725 2.23l-4.2 7.22 12.47 7.22 4.2-7.087c1.33-2.264.558-5.234-1.706-6.562l-4.2-2.494c-.574-.328-1.23-.443-1.838-.525zm-9.975 11.156L55.65 125.213l12.337 7.22 29.138-49.744zM43.313 97.913v13.913h17.72l8.138-13.913zm46.725 0l-7.744 13.913h45.15L119.7 97.913zm51.58 0l7.48 13.913h17.325V97.913zm2.1 8.794l-12.075 6.956 6.956 12.075 12.075-7.087zm6.43 15.225c-.4.066-.902.295-1.312.525l-6.562 3.806c-3.232 1.936-.738 7.563 0 8.794 4.184 7.005 8.433 6.07 11.68 11.025 1.788 2.707 1.28 3.823 1.837 4.725.213.328 1.034.77 1.313.394 5.02-6.94 3.495-18.966-.13-24.28-1.477-2.166-3.987-5.447-6.825-4.987zm-96.075 5.906l-6.038 22.706c-.115.4.033.837.394 1.05s.886.164 1.18-.13l16.8-16.275z" fill="#d62c2c"/></svg>