<svg xmlns="http://www.w3.org/2000/svg" viewBox="0 0 511 511" width="512" height="512" fill="#d62c2c"><path d="M436.166 74.834C387.908 26.577 323.747 0 255.5 0S123.092 26.577 74.834 74.834 0 187.253 0 255.5s26.577 132.408 74.834 180.666S187.253 511 255.5 511s132.408-26.577 180.666-74.834S511 323.747 511 255.5s-26.576-132.408-74.834-180.666zM255.5 496C122.888 496 15 388.112 15 255.5S122.888 15 255.5 15 496 122.888 496 255.5 388.112 496 255.5 496zm160-184H391v-85.03a7.5 7.5 0 1 0-15 0v92.53a7.5 7.5 0 0 0 7.5 7.5h15.046L335.5 396.35 272.454 327H287.5a7.5 7.5 0 0 0 7.5-7.5V111h81v81.03a7.5 7.5 0 1 0 15 0V103.5a7.5 7.5 0 0 0-7.5-7.5h-96a7.5 7.5 0 0 0-7.5 7.5V312h-24.5c-6.37 0-9.845 7.82-5.55 12.545l80 88c2.933 3.225 8.167 3.225 11.1 0l80-88c4.294-4.724.82-12.545-5.55-12.545zM262.358 194.534a7.5 7.5 0 0 0-1.309-8.079l-80-88c-2.932-3.225-8.167-3.225-11.1 0l-80 88C85.655 191.18 89.13 199 95.5 199H120v208.5a7.5 7.5 0 0 0 7.5 7.5h96a7.5 7.5 0 0 0 7.5-7.5V199h24.5c2.97 0 5.658-1.75 6.858-4.466zM223.5 184a7.5 7.5 0 0 0-7.5 7.5V400h-81V191.5a7.5 7.5 0 0 0-7.5-7.5h-15.046l63.046-69.35L238.546 184H223.5z"/></svg>