<svg width="24" height="24" viewBox="0 0 24 24" fill="none" xmlns="http://www.w3.org/2000/svg">
<g opacity="0.4">
<g clip-path="url(#clip0)">
<path d="M11.9988 4.77956e-07C9.62594 0.00067022 7.30652 0.704928 5.33385 2.02373C3.36119 3.34252 1.82386 5.21664 0.916257 7.4091C0.00865255 9.60156 -0.228471 12.0139 0.234869 14.3411C0.698209 16.6684 1.8412 18.8059 3.51933 20.4836C5.19746 22.1612 7.33536 23.3036 9.66271 23.7663C11.9901 24.229 14.4023 23.9912 16.5946 23.083C18.7868 22.1748 20.6604 20.6369 21.9787 18.6639C23.2969 16.6908 24.0005 14.3712 24.0005 11.9983C24.0005 10.4224 23.6901 8.86189 23.0869 7.40597C22.4837 5.95005 21.5996 4.62722 20.4851 3.51303C19.3706 2.39884 18.0475 1.51512 16.5914 0.912345C15.1353 0.309573 13.5748 -0.000444322 11.9988 4.77956e-07ZM15.1009 11.9983H13.1367V19.198H10.4275V11.9983H8.63605V9.5194H10.4343V8.05644C10.4343 6.02455 10.9829 4.79865 13.367 4.79865H15.3514V7.28094H14.1086C13.1807 7.28094 13.1367 7.61959 13.1367 8.27318V9.51602H15.3684L15.1009 11.9983Z" fill="white"/>
</g>
</g>
<defs>
<clipPath id="clip0">
<rect width="24" height="24" fill="white"/>
</clipPath>
</defs>
</svg>
