<svg width="24" height="24" viewBox="0 0 24 24" fill="none" xmlns="http://www.w3.org/2000/svg">
<g clip-path="url(#clip0)">
<path d="M12.0158 11.9374H11.9819C10.4918 11.9374 9.18128 11.5615 8.40577 12.276C8.19116 12.4615 8.01943 12.6915 7.90248 12.9499C7.78553 13.2084 7.72616 13.4892 7.72848 13.7728C7.72848 16.0892 9.58427 16.3736 11.965 16.3736H11.9988C14.3694 16.3736 16.2353 16.0892 16.2353 13.7728C16.2376 13.4892 16.1783 13.2084 16.0613 12.9499C15.9444 12.6915 15.7726 12.4615 15.558 12.276C14.8198 11.5581 13.5058 11.9374 12.0158 11.9374ZM9.98387 15.1003C9.53009 15.1003 9.16435 14.5924 9.16435 13.9625C9.16435 13.3326 9.53347 12.8246 9.98387 12.8246C10.4343 12.8246 10.8034 13.3326 10.8034 13.9625C10.8034 14.5924 10.4444 15.1003 9.99065 15.1003H9.98387ZM14.0002 15.1003C13.5465 15.1003 13.1807 14.5924 13.1807 13.9625C13.1807 13.3326 13.5498 12.8246 14.0002 12.8246C14.4506 12.8246 14.8198 13.3326 14.8198 13.9625C14.8198 14.5924 14.4608 15.1003 14.007 15.1003H14.0002ZM11.9988 4.77956e-07C9.62594 0.00067022 7.30652 0.704928 5.33385 2.02373C3.36119 3.34252 1.82386 5.21664 0.916257 7.4091C0.00865255 9.60156 -0.228471 12.0139 0.234869 14.3411C0.698209 16.6684 1.8412 18.8059 3.51933 20.4836C5.19746 22.1612 7.33536 23.3036 9.66271 23.7663C11.9901 24.229 14.4023 23.9912 16.5946 23.083C18.7868 22.1748 20.6604 20.6369 21.9787 18.6639C23.2969 16.6908 24.0005 14.3712 24.0005 11.9983C24.0005 10.4224 23.6901 8.86189 23.0869 7.40597C22.4837 5.95005 21.5996 4.62722 20.4851 3.51303C19.3706 2.39884 18.0475 1.51512 16.5914 0.912345C15.1353 0.309573 13.5748 -0.000444322 11.9988 4.77956e-07ZM13.0927 16.9324H10.905C9.9534 16.9324 6.19101 16.8613 6.19101 12.32C6.18019 11.8704 6.25805 11.423 6.42017 11.0035C6.58229 10.584 6.82548 10.2005 7.13584 9.87498C7.04102 9.6447 7.03763 8.33413 7.53545 7.07775C7.53545 7.07775 8.68008 7.20305 10.4106 8.3917C10.9335 8.27994 11.4677 8.22993 12.0022 8.2427C12.5368 8.22984 13.071 8.27985 13.5939 8.3917C15.3244 7.20305 16.469 7.07775 16.469 7.07775C16.9668 8.33075 16.9634 9.64132 16.8686 9.87498C17.179 10.2005 17.4221 10.584 17.5843 11.0035C17.7464 11.423 17.8243 11.8704 17.8134 12.32C17.81 16.8511 14.0443 16.9324 13.0927 16.9324Z" fill="#12233D"/>
</g>
<defs>
<clipPath id="clip0">
<rect width="24" height="24" fill="white"/>
</clipPath>
</defs>
</svg>
