<svg width="14" height="17" viewBox="0 0 14 17" fill="none" xmlns="http://www.w3.org/2000/svg">
<path d="M12.5459 14.2949C13.1056 14.2583 13.2825 14.1677 13.2748 14.0488C13.2615 13.8429 13.0442 13.5106 12.8198 13.1675C12.5661 12.7794 12.3048 12.3798 12.2221 11.9869C12.0599 11.2164 12.0034 10.3181 11.9443 9.37681C11.7474 6.245 11.5186 2.60591 7.00832 2.7065L7.00835 2.70779C6.99367 2.70812 6.97917 2.70757 6.96491 2.70624C2.48092 2.62087 2.25226 6.25126 2.05578 9.37682C1.99661 10.3181 1.94012 11.2164 1.77792 11.9869C1.69526 12.3798 1.43395 12.7794 1.1802 13.1675C0.955876 13.5106 0.738571 13.8429 0.725218 14.0489C0.717506 14.1678 0.894495 14.2583 1.45416 14.2949H7.00003H12.5459L12.5459 14.2949ZM13.9976 14.0046C14.0326 14.545 13.6976 14.9267 12.5947 15.0003C12.579 15.0023 12.5631 15.0033 12.5469 15.0033H7H1.45311V15.0033C1.44552 15.0033 1.43788 15.0031 1.4302 15.0026L1.43024 15.0019C0.307339 14.9325 -0.0328485 14.549 0.00244769 14.0046C0.0274067 13.6194 0.294805 13.2105 0.570813 12.7884C0.788896 12.4548 1.01345 12.1114 1.06934 11.8458C1.22024 11.1289 1.27533 10.2531 1.33301 9.33526C1.54921 5.89653 1.80081 1.90242 6.97242 2.00048C6.97878 2.00001 6.98519 1.99969 6.99164 1.99955L6.99167 2.00067L6.99999 2.00075C12.1986 1.88777 12.4504 5.8904 12.667 9.33527C12.7247 10.2531 12.7797 11.1289 12.9306 11.8458C12.9865 12.1114 13.2111 12.4548 13.4292 12.7883C13.7052 13.2105 13.9726 13.6194 13.9975 14.0045L13.9976 14.0046Z" fill="white"/>
<path d="M9.41395 14.6482C9.41395 15.2975 9.14433 15.8855 8.70844 16.311C8.27256 16.7366 7.67038 16.9999 7.00532 16.9999C6.34025 16.9999 5.73807 16.7366 5.30219 16.311C4.8663 15.8855 4.59668 15.2975 4.59668 14.6482C4.59668 14.4525 4.75911 14.2939 4.95947 14.2939H7.00531H9.05116C9.25151 14.2939 9.41394 14.4525 9.41394 14.6482H9.41395ZM8.19545 15.8102C8.41838 15.5925 8.57903 15.314 8.64915 15.0024H7.00532H5.36148C5.4316 15.314 5.59225 15.5925 5.81519 15.8102C6.11973 16.1075 6.54052 16.2914 7.00532 16.2914C7.47011 16.2914 7.8909 16.1075 8.19545 15.8102Z" fill="white"/>
<path d="M5.28639 2.2288C5.28639 2.42443 5.44882 2.58302 5.64917 2.58302C5.84953 2.58302 6.01196 2.42442 6.01196 2.2288V1.14496C6.01196 1.02529 6.06237 0.916206 6.14357 0.83694C6.22475 0.757661 6.33648 0.708438 6.45904 0.708438H7.53013C7.65269 0.708438 7.76441 0.757661 7.84559 0.83694C7.92679 0.916206 7.97721 1.02529 7.97721 1.14496V2.2288C7.97721 2.42443 8.13964 2.58302 8.33999 2.58302C8.54035 2.58302 8.70278 2.42442 8.70278 2.2288V1.14496C8.70278 0.829723 8.57096 0.543385 8.35859 0.33606C8.14625 0.128711 7.85299 0 7.53012 0H6.45903C6.13617 0 5.84291 0.12871 5.63057 0.33606C5.4182 0.543382 5.28638 0.82972 5.28638 1.14496V2.2288H5.28639Z" fill="white"/>
</svg>
