<svg width="24" height="24" viewBox="0 0 24 24" fill="none" xmlns="http://www.w3.org/2000/svg">
<g opacity="0.4">
<path d="M11.9831 14.3865C13.3033 14.3865 14.3865 13.3033 14.3865 11.9831C14.3865 11.4753 14.2172 10.9676 13.9464 10.5952C13.5064 9.98592 12.7955 9.57971 11.9831 9.57971C11.1707 9.57971 10.4598 9.98592 10.0198 10.5952C9.74896 11.0014 9.57971 11.4753 9.57971 11.9831C9.57971 13.3033 10.6629 14.3865 11.9831 14.3865Z" fill="white"/>
<path d="M17.2299 9.07189V7.04086V6.73621H16.9253H14.9281V9.07189H17.2299Z" fill="white"/>
<path d="M11.9831 0C5.38223 0 0 5.38223 0 11.9831C0 18.6178 5.38223 24 11.9831 24C18.6178 24 24 18.6178 24 11.9831C24 5.38223 18.6178 0 11.9831 0ZM18.8209 10.5952V16.1805C18.8209 17.6361 17.6361 18.8209 16.1805 18.8209H7.81946C6.36389 18.8209 5.17913 17.6361 5.17913 16.1805V10.5952V7.81946C5.17913 6.36389 6.36389 5.17913 7.81946 5.17913H16.1805C17.6361 5.17913 18.8209 6.36389 18.8209 7.81946V10.5952Z" fill="white"/>
<path d="M15.7404 11.9831C15.7404 14.048 14.0817 15.7066 12.0169 15.7066C9.95198 15.7066 8.29331 14.048 8.29331 11.9831C8.29331 11.4753 8.39486 11.0014 8.56411 10.5952H6.53308V16.1805C6.53308 16.8914 7.10854 17.5007 7.85325 17.5007H16.2143C16.9252 17.5007 17.5345 16.9253 17.5345 16.1805V10.5952H15.5035C15.6389 11.0353 15.7404 11.5092 15.7404 11.9831Z" fill="white"/>
</g>
</svg>
