<svg width="24" height="24" viewBox="0 0 24 24" fill="none" xmlns="http://www.w3.org/2000/svg">
<g clip-path="url(#clip0)">
<path d="M11.9988 4.77956e-07C9.62594 0.00067022 7.30652 0.704928 5.33385 2.02373C3.36119 3.34252 1.82386 5.21664 0.916257 7.4091C0.00865255 9.60156 -0.228471 12.0139 0.234869 14.3411C0.698209 16.6684 1.8412 18.8059 3.51933 20.4836C5.19746 22.1612 7.33536 23.3036 9.66271 23.7663C11.9901 24.229 14.4023 23.9912 16.5946 23.083C18.7868 22.1748 20.6604 20.6369 21.9787 18.6639C23.2969 16.6908 24.0005 14.3712 24.0005 11.9983C24.0005 10.4224 23.6901 8.86189 23.0869 7.40597C22.4837 5.95005 21.5996 4.62722 20.4851 3.51303C19.3706 2.39884 18.0475 1.51512 16.5914 0.912345C15.1353 0.309573 13.5748 -0.000444322 11.9988 4.77956e-07ZM8.99841 17.8129H6.00137V7.3148H9.00179L8.99841 17.8129ZM7.59302 6.67137C7.31506 6.67137 7.04334 6.58895 6.81223 6.43452C6.58111 6.28009 6.40098 6.0606 6.29461 5.8038C6.18824 5.547 6.1604 5.26442 6.21463 4.9918C6.26886 4.71918 6.40271 4.46877 6.59926 4.27222C6.7958 4.07567 7.04622 3.94182 7.31884 3.88759C7.59146 3.83337 7.87404 3.8612 8.13084 3.96757C8.38764 4.07394 8.60713 4.25407 8.76156 4.48519C8.91598 4.7163 8.99841 4.98802 8.99841 5.26598C8.99751 5.63813 8.84905 5.99472 8.58558 6.25755C8.32212 6.52038 7.96516 6.66799 7.59302 6.66798V6.67137ZM19.4999 17.8129H16.4995V11.321C16.4995 10.5591 16.2827 10.0274 15.3481 10.0274C14.9385 9.99956 14.5317 10.1127 14.1954 10.3481C13.859 10.5834 13.6133 10.9267 13.499 11.321V17.8129H10.4986V7.3148H13.499V8.33075C14.3633 7.67707 15.4159 7.32066 16.4995 7.3148C17.4714 7.3148 19.4999 7.89728 19.4999 11.4124V17.8129Z" fill="#12233D"/>
</g>
<defs>
<clipPath id="clip0">
<rect width="24" height="24" fill="white"/>
</clipPath>
</defs>
</svg>
