<svg width="24" height="24" viewBox="0 0 24 24" fill="none" xmlns="http://www.w3.org/2000/svg">
<g clip-path="url(#clip0)">
<path d="M11.9988 4.77956e-07C9.62594 0.00067022 7.30652 0.704928 5.33385 2.02373C3.36119 3.34252 1.82386 5.21664 0.916257 7.4091C0.00865255 9.60156 -0.228471 12.0139 0.234869 14.3411C0.698209 16.6684 1.8412 18.8059 3.51933 20.4836C5.19746 22.1612 7.33536 23.3036 9.66271 23.7663C11.9901 24.229 14.4023 23.9912 16.5946 23.083C18.7868 22.1748 20.6604 20.6369 21.9787 18.6639C23.2969 16.6908 24.0005 14.3712 24.0005 11.9983C24.0005 10.4224 23.6901 8.86189 23.0869 7.40597C22.4837 5.95005 21.5996 4.62722 20.4851 3.51303C19.3706 2.39884 18.0475 1.51512 16.5914 0.912345C15.1353 0.309573 13.5748 -0.000444322 11.9988 4.77956e-07ZM17.9692 9.30606V9.68873C17.9692 13.5933 14.9993 18.094 9.56395 18.094C7.96202 18.0934 6.39398 17.6326 5.04638 16.7665C5.28019 16.7937 5.51539 16.8072 5.75077 16.8071C7.08033 16.8091 8.372 16.3643 9.41833 15.544C8.80184 15.532 8.20448 15.3278 7.70967 14.9599C7.21486 14.592 6.84731 14.0787 6.65835 13.4917C7.10139 13.5736 7.55709 13.5563 7.99262 13.4409C7.32416 13.3058 6.72298 12.9437 6.29095 12.416C5.85892 11.8883 5.62262 11.2275 5.62209 10.5455V10.4981C6.03732 10.7284 6.50202 10.855 6.97668 10.8672C6.35234 10.449 5.91046 9.80898 5.74066 9.07695C5.57086 8.34492 5.68586 7.57572 6.06233 6.92536C6.8046 7.83926 7.73101 8.58661 8.78127 9.11873C9.83152 9.65086 10.9821 9.95584 12.158 10.0138C12.0051 9.37888 12.0667 8.71117 12.3333 8.11495C12.5999 7.51872 13.0564 7.02756 13.6315 6.71813C14.2067 6.4087 14.8681 6.29843 15.5125 6.40454C16.157 6.51064 16.7481 6.82715 17.1937 7.30464C17.8551 7.17276 18.4894 6.93003 19.0698 6.58671C18.8493 7.27176 18.3871 7.85316 17.7694 8.22238C18.3537 8.1527 18.9244 7.99634 19.4626 7.75843C19.0626 8.36046 18.5566 8.88484 17.9692 9.30606Z" fill="#12233D"/>
</g>
<defs>
<clipPath id="clip0">
<rect width="24" height="24" fill="white"/>
</clipPath>
</defs>
</svg>
