<svg width="24" height="24" viewBox="0 0 24 24" fill="none" xmlns="http://www.w3.org/2000/svg">
<path fill-rule="evenodd" clip-rule="evenodd" d="M3.47429 0.0483926C3.75699 0.0483926 4.0397 0.119413 4.29099 0.272908L12.1175 5.03354L19.7029 0.225943C20.0291 0.0278645 20.4283 -0.043951 20.8126 0.0262951C21.1969 0.0965413 21.5349 0.303095 21.7522 0.600517C21.9694 0.897938 22.0482 1.26186 21.9712 1.61224C21.8941 1.96261 21.6675 2.27072 21.3413 2.4688L12.938 7.7724C12.6958 7.92039 12.4108 7.99959 12.1192 8C11.8276 8.00041 11.5423 7.922 11.2996 7.77469L2.65507 2.51806C2.39209 2.35709 2.19269 2.12345 2.08618 1.85148C1.97967 1.57952 1.97168 1.28358 2.06337 1.00716C2.15506 0.73075 2.3416 0.488443 2.59556 0.315862C2.84953 0.143282 3.15753 0.0495312 3.47429 0.0483926Z" fill="white"/>
<path fill-rule="evenodd" clip-rule="evenodd" d="M3.47429 6.04839C3.75699 6.04839 4.0397 6.11941 4.29099 6.27291L12.1175 11.0335L19.7029 6.22594C20.0291 6.02786 20.4283 5.95605 20.8126 6.0263C21.1969 6.09654 21.5349 6.3031 21.7522 6.60052C21.9694 6.89794 22.0482 7.26186 21.9712 7.61224C21.8941 7.96261 21.6675 8.27072 21.3413 8.4688L12.938 13.7724C12.6958 13.9204 12.4108 13.9996 12.1192 14C11.8276 14.0004 11.5423 13.922 11.2996 13.7747L2.65507 8.51806C2.39209 8.35709 2.19269 8.12345 2.08618 7.85148C1.97967 7.57952 1.97168 7.28358 2.06337 7.00716C2.15506 6.73075 2.3416 6.48844 2.59556 6.31586C2.84953 6.14328 3.15753 6.04953 3.47429 6.04839Z" fill="white" fill-opacity="0.6"/>
<path fill-rule="evenodd" clip-rule="evenodd" d="M3.47429 12.0484C3.75699 12.0484 4.0397 12.1194 4.29099 12.2729L12.1175 17.0335L19.7029 12.2259C20.0291 12.0279 20.4283 11.956 20.8126 12.0263C21.1969 12.0965 21.5349 12.3031 21.7522 12.6005C21.9694 12.8979 22.0482 13.2619 21.9712 13.6122C21.8941 13.9626 21.6675 14.2707 21.3413 14.4688L12.938 19.7724C12.6958 19.9204 12.4108 19.9996 12.1192 20C11.8276 20.0004 11.5423 19.922 11.2996 19.7747L2.65507 14.5181C2.39209 14.3571 2.19269 14.1234 2.08618 13.8515C1.97967 13.5795 1.97168 13.2836 2.06337 13.0072C2.15506 12.7307 2.3416 12.4884 2.59556 12.3159C2.84953 12.1433 3.15753 12.0495 3.47429 12.0484Z" fill="white" fill-opacity="0.2"/>
</svg>
