<svg width="40" height="37" viewBox="0 0 40 37" fill="none" xmlns="http://www.w3.org/2000/svg">
<path d="M4.85308 6.77183C5.45366 6.77183 5.94053 6.28496 5.94053 5.68438C5.94053 5.08379 5.45366 4.59692 4.85308 4.59692C4.25249 4.59692 3.76562 5.08379 3.76562 5.68438C3.76562 6.28496 4.25249 6.77183 4.85308 6.77183Z" fill="url(#paint0_linear)"/>
<path d="M7.90581 6.77183C8.5064 6.77183 8.99326 6.28496 8.99326 5.68438C8.99326 5.08379 8.5064 4.59692 7.90581 4.59692C7.30523 4.59692 6.81836 5.08379 6.81836 5.68438C6.81836 6.28496 7.30523 6.77183 7.90581 6.77183Z" fill="url(#paint1_linear)"/>
<path d="M10.9585 6.77183C11.5591 6.77183 12.046 6.28496 12.046 5.68438C12.046 5.08379 11.5591 4.59692 10.9585 4.59692C10.358 4.59692 9.87109 5.08379 9.87109 5.68438C9.87109 6.28496 10.358 6.77183 10.9585 6.77183Z" fill="url(#paint2_linear)"/>
<path d="M38.1863 1H1.54753C0.711026 1 0 1.6692 0 2.54753V32.4525C0 33.289 0.669201 34 1.54753 34H38.2281C39.0646 34 39.7757 33.3308 39.7757 32.4525V2.5057C39.7338 1.6692 39.0646 1 38.1863 1ZM38.1027 2.63118V8.73764H1.63118V2.63118H38.1027ZM1.63118 32.327V10.3688H38.1027V32.3688H1.63118V32.327Z" fill="url(#paint3_linear)"/>
<path d="M19.8678 12.962C15.2252 12.962 11.4609 16.7263 11.4609 21.3689C11.4609 26.0115 15.2252 29.7757 19.8678 29.7757C24.5104 29.7757 28.2746 26.0115 28.2746 21.3689C28.2746 16.7263 24.5104 12.962 19.8678 12.962ZM19.8678 28.1027C16.1453 28.1027 13.0921 25.0495 13.0921 21.3271C13.0921 17.6046 16.1453 14.5932 19.8678 14.5932C23.5902 14.5932 26.6434 17.6464 26.6434 21.3689C26.6434 25.0913 23.5902 28.1027 19.8678 28.1027Z" fill="url(#paint4_linear)"/>
<path d="M18.7804 17.479C19.1987 17.3536 19.4496 16.8935 19.366 16.4752C19.2405 16.057 18.7804 15.806 18.3622 15.8897C16.4801 16.3916 14.9744 17.8973 14.4306 19.8212C14.3052 20.2395 14.5561 20.6996 15.0162 20.825C15.0998 20.825 15.1417 20.8669 15.2253 20.8669C15.6017 20.8669 15.8945 20.6159 16.02 20.2813C16.3546 18.9011 17.442 17.8555 18.7804 17.479Z" fill="url(#paint5_linear)"/>
<path d="M19.8672 18.441C18.2779 18.441 16.9395 19.7376 16.9395 21.3688C16.9395 22.9582 18.236 24.2966 19.8672 24.2966C21.4984 24.2966 22.795 23 22.795 21.3688C22.795 19.7376 21.4566 18.441 19.8672 18.441ZM19.8672 22.6235C19.1562 22.6235 18.5706 22.038 18.5706 21.327C18.5706 20.6159 19.1562 20.0304 19.8672 20.0304C20.5782 20.0304 21.1638 20.6159 21.1638 21.327C21.1638 22.038 20.5782 22.6235 19.8672 22.6235Z" fill="url(#paint6_linear)"/>
<defs>
<linearGradient id="paint0_linear" x1="3.76562" y1="4.59692" x2="5.94053" y2="6.77183" gradientUnits="userSpaceOnUse">
<stop stop-color="#DE3535"/>
<stop offset="1" stop-color="#E46D2E"/>
</linearGradient>
<linearGradient id="paint1_linear" x1="6.81836" y1="4.59692" x2="8.99326" y2="6.77183" gradientUnits="userSpaceOnUse">
<stop stop-color="#DE3535"/>
<stop offset="1" stop-color="#E46D2E"/>
</linearGradient>
<linearGradient id="paint2_linear" x1="9.87109" y1="4.59692" x2="12.046" y2="6.77183" gradientUnits="userSpaceOnUse">
<stop stop-color="#DE3535"/>
<stop offset="1" stop-color="#E46D2E"/>
</linearGradient>
<linearGradient id="paint3_linear" x1="0" y1="1" x2="32.4328" y2="40.092" gradientUnits="userSpaceOnUse">
<stop stop-color="#DE3535"/>
<stop offset="1" stop-color="#E46D2E"/>
</linearGradient>
<linearGradient id="paint4_linear" x1="11.4609" y1="12.962" x2="28.2746" y2="29.7757" gradientUnits="userSpaceOnUse">
<stop stop-color="#DE3535"/>
<stop offset="1" stop-color="#E46D2E"/>
</linearGradient>
<linearGradient id="paint5_linear" x1="14.3984" y1="15.8737" x2="19.3916" y2="20.8572" gradientUnits="userSpaceOnUse">
<stop stop-color="#DE3535"/>
<stop offset="1" stop-color="#E46D2E"/>
</linearGradient>
<linearGradient id="paint6_linear" x1="16.9395" y1="18.441" x2="22.795" y2="24.2966" gradientUnits="userSpaceOnUse">
<stop stop-color="#DE3535"/>
<stop offset="1" stop-color="#E46D2E"/>
</linearGradient>
</defs>
</svg>
