<svg width="64" height="64" viewBox="0 0 64 64" fill="none" xmlns="http://www.w3.org/2000/svg">
<rect width="64" height="64" rx="24" fill="white"/>
<path d="M32.9133 38.4448C32.8175 38.2885 32.6832 38.1594 32.5233 38.0698C32.3633 37.9803 32.183 37.9332 31.9997 37.9332C31.8164 37.9332 31.6361 37.9803 31.4762 38.0698C31.3162 38.1594 31.1819 38.2885 31.0861 38.4448L26.5057 45.909C26.3965 46.0865 26.3415 46.292 26.3474 46.5003C26.3532 46.7086 26.4197 46.9107 26.5386 47.0818C26.6575 47.2529 26.8238 47.3856 27.017 47.4637C27.2102 47.5418 27.4219 47.5618 27.6263 47.5214L29.8875 47.076V52.2677C29.8879 52.5517 30.001 52.824 30.2018 53.0248C30.4027 53.2257 30.6749 53.3387 30.959 53.3392H33.0395C33.3236 53.3388 33.5959 53.2258 33.7967 53.0249C33.9976 52.8241 34.1106 52.5518 34.111 52.2677V47.0758L36.3722 47.5214C36.5766 47.5619 36.7884 47.5419 36.9816 47.4638C37.1749 47.3858 37.3412 47.2531 37.4601 47.0819C37.5791 46.9108 37.6456 46.7087 37.6514 46.5004C37.6572 46.2921 37.6022 46.0866 37.493 45.909L32.9133 38.4448ZM33.6424 45.7963C33.558 45.7796 33.4709 45.7819 33.3875 45.8029C33.304 45.8239 33.2263 45.8631 33.1598 45.9178C33.0934 45.9724 33.0398 46.0411 33.0031 46.1189C32.9663 46.1967 32.9473 46.2816 32.9473 46.3677V52.175H31.0521V46.3677C31.0521 46.2817 31.033 46.1967 30.9963 46.1189C30.9595 46.0412 30.906 45.9725 30.8395 45.9179C30.773 45.8633 30.6953 45.8241 30.6119 45.8031C30.5285 45.7821 30.4414 45.7799 30.3571 45.7965L27.6084 46.3379L31.9997 39.1835L36.3906 46.3386L33.6424 45.7963Z" fill="#D62C2C"/>
<path d="M31.4174 30.3249V34.0945C31.4174 34.2489 31.4787 34.3971 31.588 34.5063C31.6972 34.6155 31.8453 34.6768 31.9997 34.6768C32.1542 34.6768 32.3023 34.6155 32.4115 34.5063C32.5207 34.3971 32.5821 34.2489 32.5821 34.0945V30.3249C32.5821 30.1704 32.5207 30.0223 32.4115 29.9131C32.3023 29.8039 32.1542 29.7426 31.9997 29.7426C31.8453 29.7426 31.6972 29.8039 31.588 29.9131C31.4787 30.0223 31.4174 30.1704 31.4174 30.3249Z" fill="#D62C2C"/>
<path d="M40.7164 38.4595H36.947C36.7926 38.4595 36.6445 38.5208 36.5353 38.63C36.4261 38.7392 36.3647 38.8874 36.3647 39.0418C36.3647 39.1963 36.4261 39.3444 36.5353 39.4536C36.6445 39.5628 36.7926 39.6242 36.947 39.6242H40.7164C40.8709 39.6242 41.019 39.5628 41.1282 39.4536C41.2374 39.3444 41.2988 39.1963 41.2988 39.0418C41.2988 38.8874 41.2374 38.7392 41.1282 38.63C41.019 38.5208 40.8709 38.4595 40.7164 38.4595Z" fill="#D62C2C"/>
<path d="M27.6347 39.0418C27.6347 38.8874 27.5734 38.7392 27.4642 38.63C27.355 38.5208 27.2068 38.4595 27.0524 38.4595H23.283C23.1286 38.4595 22.9804 38.5208 22.8712 38.63C22.762 38.7392 22.7007 38.8874 22.7007 39.0418C22.7007 39.1963 22.762 39.3444 22.8712 39.4536C22.9804 39.5628 23.1286 39.6242 23.283 39.6242H27.0524C27.2068 39.6242 27.355 39.5628 27.4642 39.4536C27.5734 39.3444 27.6347 39.1963 27.6347 39.0418Z" fill="#D62C2C"/>
<path d="M37.7516 32.4662L35.0861 35.1317C35.0317 35.1857 34.9884 35.2499 34.9588 35.3207C34.9293 35.3914 34.914 35.4673 34.9138 35.544C34.9137 35.6207 34.9287 35.6967 34.9579 35.7675C34.9872 35.8384 35.0302 35.9028 35.0844 35.957C35.1387 36.0113 35.2031 36.0542 35.274 36.0835C35.3449 36.1127 35.4208 36.1277 35.4975 36.1275C35.5742 36.1274 35.6501 36.112 35.7209 36.0824C35.7916 36.0529 35.8558 36.0096 35.9098 35.9551L38.5751 33.2896C38.6811 33.1798 38.7398 33.0327 38.7385 32.88C38.7372 32.7273 38.6759 32.5813 38.568 32.4733C38.46 32.3653 38.3139 32.3041 38.1613 32.3028C38.0086 32.3014 37.8615 32.3601 37.7516 32.4662Z" fill="#D62C2C"/>
<path d="M25.4244 32.4662C25.3152 32.5754 25.2539 32.7235 25.2539 32.8779C25.2539 33.0323 25.3152 33.1804 25.4244 33.2896L28.0896 35.9551C28.199 36.0635 28.3469 36.1242 28.5009 36.1239C28.6549 36.1236 28.8025 36.0623 28.9114 35.9534C29.0203 35.8445 29.0817 35.6969 29.082 35.5429C29.0824 35.3889 29.0217 35.241 28.9133 35.1317L26.2478 32.4662C26.1386 32.357 25.9905 32.2957 25.8361 32.2957C25.6817 32.2957 25.5336 32.357 25.4244 32.4662Z" fill="#D62C2C"/>
<path d="M31.9997 28.0437C33.7182 28.0437 35.398 27.5341 36.8268 26.5794C38.2556 25.6247 39.3693 24.2677 40.0269 22.6801C40.6845 21.0925 40.8566 19.3455 40.5213 17.6601C40.1861 15.9747 39.3586 14.4265 38.1434 13.2114C36.9283 11.9963 35.3802 11.1688 33.6948 10.8336C32.0094 10.4983 30.2624 10.6704 28.6748 11.328C27.0872 11.9856 25.7302 13.0992 24.7755 14.5281C23.8208 15.9569 23.3112 17.6367 23.3112 19.3551C23.3137 21.6587 24.2299 23.8673 25.8587 25.4961C27.4876 27.125 29.6961 28.0412 31.9997 28.0437ZM31.9997 11.8313C33.4878 11.8313 34.9425 12.2726 36.1798 13.0993C37.417 13.926 38.3814 15.1011 38.9509 16.4759C39.5203 17.8507 39.6693 19.3635 39.379 20.823C39.0887 22.2825 38.3721 23.6231 37.3199 24.6753C36.2677 25.7275 34.927 26.4441 33.4676 26.7344C32.0081 27.0247 30.4953 26.8757 29.1205 26.3063C27.7457 25.7368 26.5706 24.7725 25.7439 23.5352C24.9172 22.2979 24.4759 20.8432 24.4759 19.3551C24.4782 17.3605 25.2717 15.4482 26.6822 14.0379C28.0927 12.6276 30.0051 11.8343 31.9997 11.8322V11.8313Z" fill="#12233D"/>
<path d="M57.5062 25.9808C56.647 24.4937 55.3661 23.2947 53.8255 22.5354C52.2849 21.7762 50.5537 21.4908 48.8509 21.7153C47.1481 21.9397 45.5501 22.664 44.2589 23.7966C42.9677 24.9292 42.0413 26.4191 41.5968 28.0781C41.1523 29.7371 41.2096 31.4907 41.7615 33.1171C42.3135 34.7436 43.3353 36.1698 44.6977 37.2156C46.0601 38.2614 47.7021 38.8798 49.4159 38.9925C51.1297 39.1053 52.8385 38.7074 54.3262 37.8491C56.3197 36.6951 57.7741 34.7975 58.3703 32.5725C58.9665 30.3475 58.6557 27.9769 57.5062 25.9808ZM53.7439 36.8405C52.4552 37.5846 50.9748 37.9298 49.4898 37.8326C48.0049 37.7353 46.5822 37.1999 45.4016 36.294C44.221 35.3881 43.3355 34.1525 42.8572 32.7434C42.3788 31.3343 42.3291 29.8149 42.7142 28.3775C43.0993 26.9401 43.9021 25.6492 45.0209 24.6681C46.1397 23.6869 47.5244 23.0596 48.9997 22.8653C50.4751 22.6711 51.9749 22.9188 53.3095 23.577C54.6442 24.2352 55.7536 25.2744 56.4976 26.5631C57.4929 28.2918 57.7618 30.3446 57.2454 32.2713C56.729 34.198 55.4695 35.8412 53.7432 36.8405H53.7439Z" fill="#12233D"/>
<path d="M22.4102 27.8672C21.8901 25.926 20.713 24.2253 19.0795 23.0547C17.446 21.8841 15.4572 21.3162 13.4518 21.4476C11.4465 21.5789 9.54879 22.4016 8.082 23.7753C6.61521 25.149 5.67011 26.9888 5.40771 28.9812C5.14532 30.9736 5.58188 32.9954 6.643 34.702C7.70412 36.4086 9.32416 37.6945 11.2271 38.3406C13.13 38.9867 15.1981 38.953 17.0789 38.2453C18.9598 37.5375 20.5371 36.1995 21.5421 34.4593C22.1154 33.4724 22.4873 32.3817 22.6363 31.2502C22.7853 30.1186 22.7085 28.9688 22.4102 27.8672ZM20.5334 33.8769C19.6633 35.3845 18.2972 36.5438 16.6682 37.1571C15.0391 37.7704 13.2477 37.7999 11.5993 37.2405C9.95092 36.6811 8.54749 35.5675 7.62817 34.0893C6.70885 32.6111 6.33052 30.8599 6.55764 29.1341C6.78476 27.4083 7.60328 25.8146 8.87374 24.6246C10.1442 23.4346 11.788 22.7219 13.5249 22.6081C15.2619 22.4942 16.9847 22.9861 18.3996 24C19.8146 25.014 20.8342 26.4872 21.2847 28.1686C21.5432 29.1226 21.6099 30.1184 21.4809 31.0983C21.352 32.0783 21.0299 33.023 20.5334 33.8776V33.8769Z" fill="#12233D"/>
<path d="M14.017 33.3127C13.8626 33.3127 13.7145 33.2513 13.6053 33.1421C13.4961 33.0329 13.4347 32.8848 13.4347 32.7303V27.8387C13.4347 27.6842 13.4961 27.5361 13.6053 27.4269C13.7145 27.3177 13.8626 27.2563 14.017 27.2563C14.1715 27.2563 14.3196 27.3177 14.4288 27.4269C14.538 27.5361 14.5994 27.6842 14.5994 27.8387V32.7303C14.5994 32.8848 14.538 33.0329 14.4288 33.1421C14.3196 33.2513 14.1715 33.3127 14.017 33.3127Z" fill="#12233D"/>
<path d="M30.5055 22.3831C30.351 22.3831 30.2029 22.3218 30.0937 22.2126C29.9845 22.1034 29.9231 21.9552 29.9231 21.8008V16.9091C29.9231 16.7547 29.9845 16.6066 30.0937 16.4973C30.2029 16.3881 30.351 16.3268 30.5055 16.3268C30.6599 16.3268 30.808 16.3881 30.9172 16.4973C31.0264 16.6066 31.0878 16.7547 31.0878 16.9091V21.8008C31.0878 21.9552 31.0264 22.1034 30.9172 22.2126C30.808 22.3218 30.6599 22.3831 30.5055 22.3831Z" fill="#12233D"/>
<path d="M33.494 22.3831C33.3396 22.3831 33.1915 22.3218 33.0822 22.2126C32.973 22.1034 32.9117 21.9552 32.9117 21.8008V16.9091C32.9117 16.7547 32.973 16.6066 33.0822 16.4973C33.1915 16.3881 33.3396 16.3268 33.494 16.3268C33.6485 16.3268 33.7966 16.3881 33.9058 16.4973C34.015 16.6066 34.0764 16.7547 34.0764 16.9091V21.8008C34.0764 21.9552 34.015 22.1034 33.9058 22.2126C33.7966 22.3218 33.6485 22.3831 33.494 22.3831Z" fill="#12233D"/>
<path d="M46.9929 33.3524C46.8385 33.3524 46.6903 33.291 46.5811 33.1818C46.4719 33.0726 46.4106 32.9245 46.4106 32.77V27.8784C46.4106 27.7239 46.4719 27.5758 46.5811 27.4666C46.6903 27.3574 46.8385 27.296 46.9929 27.296C47.1474 27.296 47.2955 27.3574 47.4047 27.4666C47.5139 27.5758 47.5752 27.7239 47.5752 27.8784V32.77C47.5752 32.9245 47.5139 33.0726 47.4047 33.1818C47.2955 33.291 47.1474 33.3524 46.9929 33.3524Z" fill="#12233D"/>
<path d="M49.9824 33.3524C49.8279 33.3524 49.6798 33.291 49.5706 33.1818C49.4614 33.0726 49.4 32.9245 49.4 32.77V27.8784C49.4 27.7239 49.4614 27.5758 49.5706 27.4666C49.6798 27.3574 49.8279 27.296 49.9824 27.296C50.1368 27.296 50.2849 27.3574 50.3942 27.4666C50.5034 27.5758 50.5647 27.7239 50.5647 27.8784V32.77C50.5647 32.9245 50.5034 33.0726 50.3942 33.1818C50.2849 33.291 50.1368 33.3524 49.9824 33.3524Z" fill="#12233D"/>
<path d="M52.9698 33.3524C52.8154 33.3524 52.6672 33.291 52.558 33.1818C52.4488 33.0726 52.3875 32.9245 52.3875 32.77V27.8784C52.3875 27.7239 52.4488 27.5758 52.558 27.4666C52.6672 27.3574 52.8154 27.296 52.9698 27.296C53.1243 27.296 53.2724 27.3574 53.3816 27.4666C53.4908 27.5758 53.5522 27.7239 53.5522 27.8784V32.77C53.5522 32.9245 53.4908 33.0726 53.3816 33.1818C53.2724 33.291 53.1243 33.3524 52.9698 33.3524Z" fill="#12233D"/>
</svg>
