<svg width="172" height="139" viewBox="0 0 172 139" fill="none" xmlns="http://www.w3.org/2000/svg">
<path d="M19.9756 105.24C19.9756 104.557 20.0929 103.88 20.3276 103.208C20.5729 102.525 20.9249 101.917 21.3836 101.384C21.8529 100.84 22.4236 100.403 23.0956 100.072C23.7676 99.7413 24.5302 99.576 25.3836 99.576C26.3969 99.576 27.2662 99.8053 27.9916 100.264C28.7169 100.723 29.2556 101.32 29.6076 102.056L28.4716 102.792C28.3009 102.429 28.0929 102.125 27.8476 101.88C27.6129 101.635 27.3516 101.437 27.0636 101.288C26.7862 101.139 26.4982 101.032 26.1996 100.968C25.9009 100.904 25.6076 100.872 25.3196 100.872C24.6902 100.872 24.1302 101.005 23.6396 101.272C23.1596 101.528 22.7542 101.869 22.4236 102.296C22.0929 102.712 21.8422 103.187 21.6716 103.72C21.5116 104.243 21.4316 104.771 21.4316 105.304C21.4316 105.901 21.5276 106.472 21.7196 107.016C21.9222 107.549 22.1996 108.024 22.5516 108.44C22.9036 108.856 23.3196 109.187 23.7996 109.432C24.2796 109.677 24.8022 109.8 25.3676 109.8C25.6662 109.8 25.9702 109.763 26.2796 109.688C26.5996 109.613 26.9036 109.496 27.1916 109.336C27.4796 109.165 27.7462 108.957 27.9916 108.712C28.2476 108.456 28.4556 108.152 28.6156 107.8L29.8156 108.456C29.6342 108.883 29.3782 109.261 29.0476 109.592C28.7276 109.912 28.3596 110.184 27.9436 110.408C27.5382 110.632 27.1062 110.803 26.6476 110.92C26.1889 111.037 25.7409 111.096 25.3036 111.096C24.5249 111.096 23.8102 110.925 23.1596 110.584C22.5089 110.243 21.9436 109.8 21.4636 109.256C20.9942 108.701 20.6262 108.077 20.3596 107.384C20.1036 106.68 19.9756 105.965 19.9756 105.24ZM31.4258 99.32H32.8338V108.84C32.8338 109.149 32.9138 109.395 33.0738 109.576C33.2445 109.747 33.4791 109.832 33.7778 109.832C33.8951 109.832 34.0338 109.816 34.1938 109.784C34.3538 109.741 34.5031 109.693 34.6418 109.64L34.8658 110.776C34.6311 110.872 34.3538 110.952 34.0338 111.016C33.7138 111.08 33.4311 111.112 33.1858 111.112C32.6418 111.112 32.2098 110.957 31.8898 110.648C31.5805 110.339 31.4258 109.907 31.4258 109.352V99.32ZM39.6199 111.16C38.9906 111.16 38.4146 111.043 37.8919 110.808C37.3799 110.573 36.9373 110.259 36.5639 109.864C36.2013 109.469 35.9186 109.011 35.7159 108.488C35.5133 107.965 35.4119 107.416 35.4119 106.84C35.4119 106.253 35.5133 105.699 35.7159 105.176C35.9293 104.653 36.2173 104.195 36.5799 103.8C36.9533 103.405 37.3959 103.091 37.9079 102.856C38.4306 102.621 39.0013 102.504 39.6199 102.504C40.2386 102.504 40.8093 102.621 41.3319 102.856C41.8546 103.091 42.2973 103.405 42.6599 103.8C43.0333 104.195 43.3213 104.653 43.5239 105.176C43.7373 105.699 43.8439 106.253 43.8439 106.84C43.8439 107.416 43.7426 107.965 43.5399 108.488C43.3373 109.011 43.0493 109.469 42.6759 109.864C42.3026 110.259 41.8546 110.573 41.3319 110.808C40.8199 111.043 40.2493 111.16 39.6199 111.16ZM36.8519 106.856C36.8519 107.293 36.9213 107.699 37.0599 108.072C37.2093 108.445 37.4066 108.771 37.6519 109.048C37.9079 109.325 38.2013 109.544 38.5319 109.704C38.8733 109.864 39.2359 109.944 39.6199 109.944C40.0039 109.944 40.3613 109.864 40.6919 109.704C41.0333 109.544 41.3319 109.325 41.5879 109.048C41.8439 108.76 42.0413 108.429 42.1799 108.056C42.3293 107.672 42.4039 107.261 42.4039 106.824C42.4039 106.397 42.3293 105.997 42.1799 105.624C42.0413 105.24 41.8439 104.909 41.5879 104.632C41.3319 104.344 41.0333 104.12 40.6919 103.96C40.3613 103.8 40.0039 103.72 39.6199 103.72C39.2359 103.72 38.8733 103.805 38.5319 103.976C38.2013 104.136 37.9079 104.36 37.6519 104.648C37.4066 104.925 37.2093 105.256 37.0599 105.64C36.9213 106.013 36.8519 106.419 36.8519 106.856ZM48.1261 111.16C47.2514 111.16 46.5901 110.867 46.1421 110.28C45.6941 109.693 45.4701 108.819 45.4701 107.656V102.648H46.8781V107.384C46.8781 109.091 47.4701 109.944 48.6541 109.944C49.2301 109.944 49.7687 109.763 50.2701 109.4C50.7821 109.027 51.1607 108.52 51.4061 107.88V102.648H52.8141V109.272C52.8141 109.603 52.9634 109.773 53.2621 109.784V111C53.1021 111.021 52.9741 111.032 52.8781 111.032C52.7927 111.043 52.7074 111.048 52.6221 111.048C52.3447 111.048 52.1101 110.968 51.9181 110.808C51.7367 110.637 51.6407 110.429 51.6301 110.184L51.5981 109.208C51.2247 109.837 50.7341 110.323 50.1261 110.664C49.5181 110.995 48.8514 111.16 48.1261 111.16ZM58.5994 111.16C58.0234 111.16 57.4901 111.043 56.9994 110.808C56.5088 110.573 56.0874 110.259 55.7354 109.864C55.3834 109.469 55.1061 109.011 54.9034 108.488C54.7114 107.965 54.6154 107.416 54.6154 106.84C54.6154 106.253 54.7061 105.699 54.8874 105.176C55.0794 104.643 55.3408 104.179 55.6714 103.784C56.0128 103.389 56.4128 103.08 56.8714 102.856C57.3408 102.621 57.8528 102.504 58.4074 102.504C59.0794 102.504 59.6768 102.68 60.1994 103.032C60.7328 103.384 61.1541 103.811 61.4634 104.312V99.32H62.8714V109.272C62.8714 109.603 63.0208 109.773 63.3194 109.784V111C63.1701 111.021 63.0474 111.037 62.9514 111.048C62.8661 111.059 62.7808 111.064 62.6954 111.064C62.4181 111.064 62.1728 110.973 61.9594 110.792C61.7568 110.6 61.6554 110.381 61.6554 110.136V109.432C61.3248 109.976 60.8821 110.403 60.3274 110.712C59.7834 111.011 59.2074 111.16 58.5994 111.16ZM58.9354 109.944C59.1914 109.944 59.4528 109.896 59.7194 109.8C59.9968 109.704 60.2528 109.571 60.4874 109.4C60.7328 109.229 60.9408 109.032 61.1114 108.808C61.2928 108.573 61.4101 108.328 61.4634 108.072V105.672C61.3674 105.405 61.2234 105.155 61.0314 104.92C60.8394 104.675 60.6208 104.467 60.3754 104.296C60.1408 104.115 59.8848 103.976 59.6074 103.88C59.3408 103.773 59.0741 103.72 58.8074 103.72C58.3914 103.72 58.0128 103.811 57.6714 103.992C57.3408 104.163 57.0528 104.397 56.8074 104.696C56.5728 104.984 56.3914 105.32 56.2634 105.704C56.1354 106.077 56.0714 106.461 56.0714 106.856C56.0714 107.272 56.1461 107.672 56.2954 108.056C56.4448 108.429 56.6474 108.755 56.9034 109.032C57.1594 109.309 57.4581 109.533 57.7994 109.704C58.1514 109.864 58.5301 109.944 58.9354 109.944ZM72.4488 99.64H73.6648L78.3048 111H76.7688L75.4248 107.672H70.6568L69.3288 111H67.7928L72.4488 99.64ZM75.1048 106.552L73.0568 101.304L70.9448 106.552H75.1048ZM84.0929 111.16C83.3996 111.16 82.7863 110.989 82.2529 110.648C81.7303 110.307 81.3143 109.875 81.0049 109.352V114.408H79.5969V102.648H80.8449V104.216C81.1756 103.704 81.6023 103.293 82.1249 102.984C82.6583 102.664 83.2449 102.504 83.8849 102.504C84.4609 102.504 84.9889 102.621 85.4689 102.856C85.9489 103.091 86.3649 103.411 86.7169 103.816C87.0689 104.211 87.3409 104.669 87.5329 105.192C87.7356 105.715 87.8369 106.259 87.8369 106.824C87.8369 107.421 87.7463 107.987 87.5649 108.52C87.3836 109.043 87.1276 109.501 86.7969 109.896C86.4663 110.28 86.0716 110.589 85.6129 110.824C85.1543 111.048 84.6476 111.16 84.0929 111.16ZM83.6609 109.944C84.0769 109.944 84.4503 109.859 84.7809 109.688C85.1223 109.507 85.4103 109.272 85.6449 108.984C85.8903 108.685 86.0769 108.349 86.2049 107.976C86.3329 107.603 86.3969 107.219 86.3969 106.824C86.3969 106.408 86.3223 106.013 86.1729 105.64C86.0236 105.256 85.8209 104.925 85.5649 104.648C85.3089 104.36 85.0049 104.136 84.6529 103.976C84.3116 103.805 83.9383 103.72 83.5329 103.72C83.2769 103.72 83.0103 103.773 82.7329 103.88C82.4663 103.976 82.2103 104.109 81.9649 104.28C81.7303 104.44 81.5223 104.637 81.3409 104.872C81.1703 105.096 81.0583 105.336 81.0049 105.592V107.976C81.1223 108.253 81.2716 108.515 81.4529 108.76C81.6343 108.995 81.8423 109.203 82.0769 109.384C82.3116 109.555 82.5623 109.693 82.8289 109.8C83.0956 109.896 83.3729 109.944 83.6609 109.944ZM94.0617 111.16C93.3684 111.16 92.755 110.989 92.2217 110.648C91.699 110.307 91.283 109.875 90.9737 109.352V114.408H89.5657V102.648H90.8137V104.216C91.1444 103.704 91.571 103.293 92.0937 102.984C92.627 102.664 93.2137 102.504 93.8537 102.504C94.4297 102.504 94.9577 102.621 95.4377 102.856C95.9177 103.091 96.3337 103.411 96.6857 103.816C97.0377 104.211 97.3097 104.669 97.5017 105.192C97.7044 105.715 97.8057 106.259 97.8057 106.824C97.8057 107.421 97.715 107.987 97.5337 108.52C97.3524 109.043 97.0964 109.501 96.7657 109.896C96.435 110.28 96.0404 110.589 95.5817 110.824C95.123 111.048 94.6164 111.16 94.0617 111.16ZM93.6297 109.944C94.0457 109.944 94.419 109.859 94.7497 109.688C95.091 109.507 95.379 109.272 95.6137 108.984C95.859 108.685 96.0457 108.349 96.1737 107.976C96.3017 107.603 96.3657 107.219 96.3657 106.824C96.3657 106.408 96.291 106.013 96.1417 105.64C95.9924 105.256 95.7897 104.925 95.5337 104.648C95.2777 104.36 94.9737 104.136 94.6217 103.976C94.2804 103.805 93.907 103.72 93.5017 103.72C93.2457 103.72 92.979 103.773 92.7017 103.88C92.435 103.976 92.179 104.109 91.9337 104.28C91.699 104.44 91.491 104.637 91.3097 104.872C91.139 105.096 91.027 105.336 90.9737 105.592V107.976C91.091 108.253 91.2404 108.515 91.4217 108.76C91.603 108.995 91.811 109.203 92.0457 109.384C92.2804 109.555 92.531 109.693 92.7977 109.8C93.0644 109.896 93.3417 109.944 93.6297 109.944ZM99.5664 99.32H100.974V108.84C100.974 109.149 101.054 109.395 101.214 109.576C101.385 109.747 101.62 109.832 101.918 109.832C102.036 109.832 102.174 109.816 102.334 109.784C102.494 109.741 102.644 109.693 102.782 109.64L103.006 110.776C102.772 110.872 102.494 110.952 102.174 111.016C101.854 111.08 101.572 111.112 101.326 111.112C100.782 111.112 100.35 110.957 100.03 110.648C99.7211 110.339 99.5664 109.907 99.5664 109.352V99.32ZM104.113 111V102.648H105.521V111H104.113ZM104.113 101.08V99.32H105.521V101.08H104.113ZM107.24 106.808C107.24 106.221 107.341 105.667 107.544 105.144C107.747 104.621 108.035 104.168 108.408 103.784C108.781 103.389 109.224 103.08 109.736 102.856C110.259 102.621 110.84 102.504 111.48 102.504C112.312 102.504 113.027 102.691 113.624 103.064C114.232 103.427 114.691 103.917 115 104.536L113.624 104.968C113.411 104.573 113.112 104.269 112.728 104.056C112.344 103.832 111.917 103.72 111.448 103.72C111.064 103.72 110.701 103.8 110.36 103.96C110.019 104.109 109.725 104.323 109.48 104.6C109.235 104.877 109.037 105.203 108.888 105.576C108.749 105.949 108.68 106.36 108.68 106.808C108.68 107.245 108.755 107.656 108.904 108.04C109.053 108.424 109.251 108.76 109.496 109.048C109.752 109.325 110.045 109.544 110.376 109.704C110.717 109.864 111.08 109.944 111.464 109.944C111.709 109.944 111.949 109.912 112.184 109.848C112.429 109.773 112.648 109.677 112.84 109.56C113.043 109.443 113.219 109.309 113.368 109.16C113.517 109 113.624 108.829 113.688 108.648L115.064 109.064C114.936 109.373 114.755 109.656 114.52 109.912C114.296 110.168 114.029 110.387 113.72 110.568C113.411 110.749 113.064 110.893 112.68 111C112.307 111.107 111.912 111.16 111.496 111.16C110.867 111.16 110.291 111.043 109.768 110.808C109.245 110.573 108.797 110.259 108.424 109.864C108.051 109.469 107.757 109.011 107.544 108.488C107.341 107.955 107.24 107.395 107.24 106.808ZM118.803 111.16C118.409 111.16 118.041 111.096 117.699 110.968C117.358 110.829 117.059 110.643 116.803 110.408C116.558 110.173 116.361 109.901 116.211 109.592C116.073 109.272 116.003 108.925 116.003 108.552C116.003 108.168 116.089 107.821 116.259 107.512C116.43 107.192 116.67 106.92 116.979 106.696C117.299 106.472 117.673 106.296 118.099 106.168C118.537 106.04 119.011 105.976 119.523 105.976C119.929 105.976 120.339 106.013 120.755 106.088C121.171 106.163 121.539 106.264 121.859 106.392V105.72C121.859 105.037 121.667 104.504 121.283 104.12C120.899 103.725 120.355 103.528 119.651 103.528C118.809 103.528 117.923 103.853 116.995 104.504L116.531 103.592C117.609 102.867 118.691 102.504 119.779 102.504C120.878 102.504 121.731 102.797 122.339 103.384C122.958 103.971 123.267 104.797 123.267 105.864V109.272C123.267 109.603 123.417 109.773 123.715 109.784V111C123.566 111.021 123.443 111.037 123.347 111.048C123.251 111.059 123.15 111.064 123.043 111.064C122.766 111.064 122.542 110.984 122.371 110.824C122.211 110.653 122.115 110.451 122.083 110.216L122.051 109.624C121.678 110.125 121.203 110.509 120.627 110.776C120.062 111.032 119.454 111.16 118.803 111.16ZM119.171 110.104C119.673 110.104 120.137 110.013 120.563 109.832C121.001 109.64 121.331 109.389 121.555 109.08C121.758 108.877 121.859 108.669 121.859 108.456V107.224C121.177 106.957 120.467 106.824 119.731 106.824C119.027 106.824 118.451 106.973 118.003 107.272C117.566 107.571 117.347 107.96 117.347 108.44C117.347 108.675 117.39 108.893 117.475 109.096C117.571 109.299 117.699 109.475 117.859 109.624C118.03 109.773 118.227 109.891 118.451 109.976C118.675 110.061 118.915 110.104 119.171 110.104ZM129.776 110.584C129.691 110.627 129.579 110.68 129.44 110.744C129.302 110.797 129.142 110.856 128.96 110.92C128.79 110.973 128.598 111.016 128.384 111.048C128.182 111.091 127.968 111.112 127.744 111.112C127.232 111.112 126.79 110.973 126.416 110.696C126.043 110.408 125.856 109.965 125.856 109.368V103.752H124.72V102.648H125.856V99.864H127.264V102.648H129.136V103.752H127.264V108.936C127.286 109.245 127.387 109.469 127.568 109.608C127.75 109.747 127.963 109.816 128.208 109.816C128.486 109.816 128.736 109.773 128.96 109.688C129.195 109.592 129.355 109.517 129.44 109.464L129.776 110.584ZM131.081 111V102.648H132.489V111H131.081ZM131.081 101.08V99.32H132.489V101.08H131.081ZM138.417 111.16C137.787 111.16 137.211 111.043 136.689 110.808C136.177 110.573 135.734 110.259 135.361 109.864C134.998 109.469 134.715 109.011 134.513 108.488C134.31 107.965 134.209 107.416 134.209 106.84C134.209 106.253 134.31 105.699 134.513 105.176C134.726 104.653 135.014 104.195 135.377 103.8C135.75 103.405 136.193 103.091 136.705 102.856C137.227 102.621 137.798 102.504 138.417 102.504C139.035 102.504 139.606 102.621 140.129 102.856C140.651 103.091 141.094 103.405 141.457 103.8C141.83 104.195 142.118 104.653 142.321 105.176C142.534 105.699 142.641 106.253 142.641 106.84C142.641 107.416 142.539 107.965 142.337 108.488C142.134 109.011 141.846 109.469 141.473 109.864C141.099 110.259 140.651 110.573 140.129 110.808C139.617 111.043 139.046 111.16 138.417 111.16ZM135.649 106.856C135.649 107.293 135.718 107.699 135.857 108.072C136.006 108.445 136.203 108.771 136.449 109.048C136.705 109.325 136.998 109.544 137.329 109.704C137.67 109.864 138.033 109.944 138.417 109.944C138.801 109.944 139.158 109.864 139.489 109.704C139.83 109.544 140.129 109.325 140.385 109.048C140.641 108.76 140.838 108.429 140.977 108.056C141.126 107.672 141.201 107.261 141.201 106.824C141.201 106.397 141.126 105.997 140.977 105.624C140.838 105.24 140.641 104.909 140.385 104.632C140.129 104.344 139.83 104.12 139.489 103.96C139.158 103.8 138.801 103.72 138.417 103.72C138.033 103.72 137.67 103.805 137.329 103.976C136.998 104.136 136.705 104.36 136.449 104.648C136.203 104.925 136.006 105.256 135.857 105.64C135.718 106.013 135.649 106.419 135.649 106.856ZM151.595 111H150.187V106.328C150.187 105.432 150.048 104.781 149.771 104.376C149.504 103.971 149.094 103.768 148.539 103.768C148.251 103.768 147.963 103.827 147.675 103.944C147.387 104.051 147.115 104.2 146.859 104.392C146.603 104.584 146.379 104.813 146.187 105.08C145.995 105.347 145.851 105.64 145.755 105.96V111H144.347V102.648H145.627V104.44C145.958 103.853 146.432 103.384 147.051 103.032C147.68 102.68 148.363 102.504 149.099 102.504C149.579 102.504 149.979 102.595 150.299 102.776C150.619 102.947 150.875 103.192 151.067 103.512C151.259 103.821 151.392 104.189 151.467 104.616C151.552 105.043 151.595 105.507 151.595 106.008V111ZM2.70375 135V123.64H6.63975C7.54642 123.64 8.34108 123.789 9.02375 124.088C9.71708 124.387 10.2931 124.792 10.7517 125.304C11.2104 125.816 11.5518 126.419 11.7758 127.112C12.0104 127.795 12.1278 128.525 12.1278 129.304C12.1278 130.168 11.9998 130.952 11.7438 131.656C11.4878 132.349 11.1198 132.947 10.6398 133.448C10.1598 133.939 9.57842 134.323 8.89575 134.6C8.22375 134.867 7.47175 135 6.63975 135H2.70375ZM10.6718 129.304C10.6718 128.664 10.5811 128.077 10.3998 127.544C10.2291 127 9.96775 126.536 9.61575 126.152C9.27442 125.768 8.85308 125.469 8.35175 125.256C7.85042 125.032 7.27975 124.92 6.63975 124.92H4.14375V133.72H6.63975C7.29042 133.72 7.86642 133.608 8.36775 133.384C8.87975 133.16 9.30108 132.851 9.63175 132.456C9.97308 132.061 10.2291 131.597 10.3998 131.064C10.5811 130.52 10.6718 129.933 10.6718 129.304ZM17.6289 135.16C16.9995 135.16 16.4235 135.048 15.9009 134.824C15.3782 134.589 14.9302 134.275 14.5569 133.88C14.1835 133.485 13.8902 133.027 13.6769 132.504C13.4742 131.971 13.3729 131.411 13.3729 130.824C13.3729 130.237 13.4742 129.683 13.6769 129.16C13.8902 128.637 14.1835 128.179 14.5569 127.784C14.9409 127.389 15.3942 127.08 15.9169 126.856C16.4395 126.621 17.0155 126.504 17.6449 126.504C18.2742 126.504 18.8449 126.621 19.3569 126.856C19.8795 127.091 20.3222 127.405 20.6849 127.8C21.0475 128.184 21.3249 128.637 21.5169 129.16C21.7195 129.672 21.8209 130.205 21.8209 130.76C21.8209 130.877 21.8155 130.984 21.8049 131.08C21.8049 131.176 21.7995 131.251 21.7889 131.304H14.8609C14.8929 131.72 14.9889 132.099 15.1489 132.44C15.3089 132.781 15.5169 133.075 15.7729 133.32C16.0289 133.565 16.3169 133.757 16.6369 133.896C16.9675 134.035 17.3142 134.104 17.6769 134.104C17.9329 134.104 18.1835 134.072 18.4289 134.008C18.6742 133.933 18.9035 133.837 19.1169 133.72C19.3302 133.603 19.5169 133.459 19.6769 133.288C19.8475 133.117 19.9755 132.925 20.0609 132.712L21.2769 133.048C21.1382 133.357 20.9462 133.64 20.7009 133.896C20.4662 134.152 20.1889 134.376 19.8689 134.568C19.5595 134.749 19.2129 134.893 18.8289 135C18.4449 135.107 18.0449 135.16 17.6289 135.16ZM20.4929 130.264C20.4609 129.869 20.3595 129.507 20.1889 129.176C20.0289 128.835 19.8209 128.547 19.5649 128.312C19.3195 128.077 19.0315 127.896 18.7009 127.768C18.3702 127.629 18.0182 127.56 17.6449 127.56C17.2715 127.56 16.9195 127.629 16.5889 127.768C16.2582 127.896 15.9649 128.083 15.7089 128.328C15.4635 128.563 15.2609 128.845 15.1009 129.176C14.9515 129.507 14.8609 129.869 14.8289 130.264H20.4929ZM25.5833 135L22.2873 126.648H23.7433L26.3833 133.768L29.0393 126.648H30.3833L27.0873 135H25.5833ZM35.1914 135.16C34.562 135.16 33.986 135.048 33.4634 134.824C32.9407 134.589 32.4927 134.275 32.1194 133.88C31.746 133.485 31.4527 133.027 31.2394 132.504C31.0367 131.971 30.9354 131.411 30.9354 130.824C30.9354 130.237 31.0367 129.683 31.2394 129.16C31.4527 128.637 31.746 128.179 32.1194 127.784C32.5034 127.389 32.9567 127.08 33.4794 126.856C34.002 126.621 34.578 126.504 35.2074 126.504C35.8367 126.504 36.4074 126.621 36.9194 126.856C37.442 127.091 37.8847 127.405 38.2474 127.8C38.61 128.184 38.8874 128.637 39.0794 129.16C39.282 129.672 39.3834 130.205 39.3834 130.76C39.3834 130.877 39.378 130.984 39.3674 131.08C39.3674 131.176 39.362 131.251 39.3514 131.304H32.4234C32.4554 131.72 32.5514 132.099 32.7114 132.44C32.8714 132.781 33.0794 133.075 33.3354 133.32C33.5914 133.565 33.8794 133.757 34.1994 133.896C34.53 134.035 34.8767 134.104 35.2394 134.104C35.4954 134.104 35.746 134.072 35.9914 134.008C36.2367 133.933 36.466 133.837 36.6794 133.72C36.8927 133.603 37.0794 133.459 37.2394 133.288C37.41 133.117 37.538 132.925 37.6234 132.712L38.8394 133.048C38.7007 133.357 38.5087 133.64 38.2634 133.896C38.0287 134.152 37.7514 134.376 37.4314 134.568C37.122 134.749 36.7754 134.893 36.3914 135C36.0074 135.107 35.6074 135.16 35.1914 135.16ZM38.0554 130.264C38.0234 129.869 37.922 129.507 37.7514 129.176C37.5914 128.835 37.3834 128.547 37.1274 128.312C36.882 128.077 36.594 127.896 36.2634 127.768C35.9327 127.629 35.5807 127.56 35.2074 127.56C34.834 127.56 34.482 127.629 34.1514 127.768C33.8207 127.896 33.5274 128.083 33.2714 128.328C33.026 128.563 32.8234 128.845 32.6634 129.176C32.514 129.507 32.4234 129.869 32.3914 130.264H38.0554ZM40.9805 123.32H42.3885V132.84C42.3885 133.149 42.4685 133.395 42.6285 133.576C42.7992 133.747 43.0338 133.832 43.3325 133.832C43.4498 133.832 43.5885 133.816 43.7485 133.784C43.9085 133.741 44.0578 133.693 44.1965 133.64L44.4205 134.776C44.1858 134.872 43.9085 134.952 43.5885 135.016C43.2685 135.08 42.9858 135.112 42.7405 135.112C42.1965 135.112 41.7645 134.957 41.4445 134.648C41.1352 134.339 40.9805 133.907 40.9805 133.352V123.32ZM49.1746 135.16C48.5453 135.16 47.9693 135.043 47.4466 134.808C46.9346 134.573 46.492 134.259 46.1186 133.864C45.756 133.469 45.4733 133.011 45.2706 132.488C45.068 131.965 44.9666 131.416 44.9666 130.84C44.9666 130.253 45.068 129.699 45.2706 129.176C45.484 128.653 45.772 128.195 46.1346 127.8C46.508 127.405 46.9506 127.091 47.4626 126.856C47.9853 126.621 48.556 126.504 49.1746 126.504C49.7933 126.504 50.364 126.621 50.8866 126.856C51.4093 127.091 51.852 127.405 52.2146 127.8C52.588 128.195 52.876 128.653 53.0786 129.176C53.292 129.699 53.3986 130.253 53.3986 130.84C53.3986 131.416 53.2973 131.965 53.0946 132.488C52.892 133.011 52.604 133.469 52.2306 133.864C51.8573 134.259 51.4093 134.573 50.8866 134.808C50.3746 135.043 49.804 135.16 49.1746 135.16ZM46.4066 130.856C46.4066 131.293 46.476 131.699 46.6146 132.072C46.764 132.445 46.9613 132.771 47.2066 133.048C47.4626 133.325 47.756 133.544 48.0866 133.704C48.428 133.864 48.7906 133.944 49.1746 133.944C49.5586 133.944 49.916 133.864 50.2466 133.704C50.588 133.544 50.8866 133.325 51.1426 133.048C51.3986 132.76 51.596 132.429 51.7346 132.056C51.884 131.672 51.9586 131.261 51.9586 130.824C51.9586 130.397 51.884 129.997 51.7346 129.624C51.596 129.24 51.3986 128.909 51.1426 128.632C50.8866 128.344 50.588 128.12 50.2466 127.96C49.916 127.8 49.5586 127.72 49.1746 127.72C48.7906 127.72 48.428 127.805 48.0866 127.976C47.756 128.136 47.4626 128.36 47.2066 128.648C46.9613 128.925 46.764 129.256 46.6146 129.64C46.476 130.013 46.4066 130.419 46.4066 130.856ZM59.6008 135.16C58.9074 135.16 58.2941 134.989 57.7608 134.648C57.2381 134.307 56.8221 133.875 56.5128 133.352V138.408H55.1048V126.648H56.3528V128.216C56.6834 127.704 57.1101 127.293 57.6328 126.984C58.1661 126.664 58.7528 126.504 59.3928 126.504C59.9688 126.504 60.4968 126.621 60.9768 126.856C61.4568 127.091 61.8728 127.411 62.2248 127.816C62.5768 128.211 62.8488 128.669 63.0408 129.192C63.2434 129.715 63.3448 130.259 63.3448 130.824C63.3448 131.421 63.2541 131.987 63.0728 132.52C62.8914 133.043 62.6354 133.501 62.3048 133.896C61.9741 134.28 61.5794 134.589 61.1208 134.824C60.6621 135.048 60.1554 135.16 59.6008 135.16ZM59.1688 133.944C59.5848 133.944 59.9581 133.859 60.2888 133.688C60.6301 133.507 60.9181 133.272 61.1528 132.984C61.3981 132.685 61.5848 132.349 61.7128 131.976C61.8408 131.603 61.9048 131.219 61.9048 130.824C61.9048 130.408 61.8301 130.013 61.6808 129.64C61.5314 129.256 61.3288 128.925 61.0728 128.648C60.8168 128.36 60.5128 128.136 60.1608 127.976C59.8194 127.805 59.4461 127.72 59.0408 127.72C58.7848 127.72 58.5181 127.773 58.2408 127.88C57.9741 127.976 57.7181 128.109 57.4728 128.28C57.2381 128.44 57.0301 128.637 56.8488 128.872C56.6781 129.096 56.5661 129.336 56.5128 129.592V131.976C56.6301 132.253 56.7794 132.515 56.9608 132.76C57.1421 132.995 57.3501 133.203 57.5848 133.384C57.8194 133.555 58.0701 133.693 58.3368 133.8C58.6034 133.896 58.8808 133.944 59.1688 133.944ZM77.6655 135H76.2575V130.328C76.2575 129.453 76.1135 128.808 75.8255 128.392C75.5482 127.976 75.1322 127.768 74.5775 127.768C74.0015 127.768 73.4842 127.976 73.0255 128.392C72.5775 128.797 72.2575 129.325 72.0655 129.976V135H70.6575V130.328C70.6575 129.432 70.5188 128.781 70.2415 128.376C69.9642 127.971 69.5482 127.768 68.9935 127.768C68.4282 127.768 67.9162 127.971 67.4575 128.376C66.9988 128.771 66.6735 129.299 66.4815 129.96V135H65.0735V126.648H66.3535V128.44C66.6948 127.821 67.1375 127.347 67.6815 127.016C68.2255 126.675 68.8388 126.504 69.5215 126.504C70.2255 126.504 70.7802 126.696 71.1855 127.08C71.6015 127.453 71.8575 127.939 71.9535 128.536C72.7002 127.181 73.7615 126.504 75.1375 126.504C75.6175 126.504 76.0175 126.595 76.3375 126.776C76.6682 126.947 76.9295 127.192 77.1215 127.512C77.3135 127.821 77.4522 128.189 77.5375 128.616C77.6228 129.043 77.6655 129.507 77.6655 130.008V135ZM83.5508 135.16C82.9214 135.16 82.3454 135.048 81.8228 134.824C81.3001 134.589 80.8521 134.275 80.4788 133.88C80.1054 133.485 79.8121 133.027 79.5988 132.504C79.3961 131.971 79.2948 131.411 79.2948 130.824C79.2948 130.237 79.3961 129.683 79.5988 129.16C79.8121 128.637 80.1054 128.179 80.4788 127.784C80.8628 127.389 81.3161 127.08 81.8388 126.856C82.3614 126.621 82.9374 126.504 83.5668 126.504C84.1961 126.504 84.7668 126.621 85.2788 126.856C85.8014 127.091 86.2441 127.405 86.6068 127.8C86.9694 128.184 87.2468 128.637 87.4388 129.16C87.6414 129.672 87.7428 130.205 87.7428 130.76C87.7428 130.877 87.7374 130.984 87.7268 131.08C87.7268 131.176 87.7214 131.251 87.7108 131.304H80.7828C80.8148 131.72 80.9107 132.099 81.0707 132.44C81.2308 132.781 81.4388 133.075 81.6948 133.32C81.9508 133.565 82.2388 133.757 82.5588 133.896C82.8894 134.035 83.2361 134.104 83.5988 134.104C83.8548 134.104 84.1054 134.072 84.3508 134.008C84.5961 133.933 84.8254 133.837 85.0388 133.72C85.2521 133.603 85.4388 133.459 85.5988 133.288C85.7694 133.117 85.8974 132.925 85.9828 132.712L87.1988 133.048C87.0601 133.357 86.8681 133.64 86.6228 133.896C86.3881 134.152 86.1108 134.376 85.7908 134.568C85.4814 134.749 85.1348 134.893 84.7508 135C84.3668 135.107 83.9668 135.16 83.5508 135.16ZM86.4148 130.264C86.3828 129.869 86.2814 129.507 86.1108 129.176C85.9508 128.835 85.7428 128.547 85.4868 128.312C85.2414 128.077 84.9534 127.896 84.6228 127.768C84.2921 127.629 83.9401 127.56 83.5668 127.56C83.1934 127.56 82.8414 127.629 82.5108 127.768C82.1801 127.896 81.8868 128.083 81.6308 128.328C81.3854 128.563 81.1828 128.845 81.0228 129.176C80.8734 129.507 80.7828 129.869 80.7508 130.264H86.4148ZM96.5559 135H95.1479V130.328C95.1479 129.432 95.0092 128.781 94.7319 128.376C94.4652 127.971 94.0545 127.768 93.4999 127.768C93.2119 127.768 92.9239 127.827 92.6359 127.944C92.3479 128.051 92.0759 128.2 91.8199 128.392C91.5639 128.584 91.3399 128.813 91.1479 129.08C90.9559 129.347 90.8119 129.64 90.7159 129.96V135H89.3079V126.648H90.5879V128.44C90.9185 127.853 91.3932 127.384 92.0119 127.032C92.6412 126.68 93.3239 126.504 94.0599 126.504C94.5399 126.504 94.9399 126.595 95.2599 126.776C95.5799 126.947 95.8359 127.192 96.0279 127.512C96.2199 127.821 96.3532 128.189 96.4279 128.616C96.5132 129.043 96.5559 129.507 96.5559 130.008V135ZM102.987 134.584C102.902 134.627 102.79 134.68 102.651 134.744C102.513 134.797 102.353 134.856 102.171 134.92C102.001 134.973 101.809 135.016 101.595 135.048C101.393 135.091 101.179 135.112 100.955 135.112C100.443 135.112 100.001 134.973 99.6273 134.696C99.2539 134.408 99.0673 133.965 99.0673 133.368V127.752H97.9313V126.648H99.0673V123.864H100.475V126.648H102.347V127.752H100.475V132.936C100.497 133.245 100.598 133.469 100.779 133.608C100.961 133.747 101.174 133.816 101.419 133.816C101.697 133.816 101.947 133.773 102.171 133.688C102.406 133.592 102.566 133.517 102.651 133.464L102.987 134.584ZM115.235 126.024C115.107 125.875 114.936 125.731 114.723 125.592C114.51 125.453 114.27 125.331 114.003 125.224C113.736 125.107 113.443 125.016 113.123 124.952C112.814 124.877 112.488 124.84 112.147 124.84C111.262 124.84 110.611 125.005 110.195 125.336C109.79 125.667 109.587 126.12 109.587 126.696C109.587 127.005 109.646 127.261 109.763 127.464C109.88 127.667 110.062 127.843 110.307 127.992C110.563 128.131 110.878 128.253 111.251 128.36C111.624 128.467 112.067 128.579 112.579 128.696C113.166 128.824 113.694 128.973 114.163 129.144C114.643 129.304 115.048 129.507 115.379 129.752C115.72 129.997 115.976 130.296 116.147 130.648C116.328 131 116.419 131.432 116.419 131.944C116.419 132.488 116.312 132.963 116.099 133.368C115.886 133.763 115.592 134.093 115.219 134.36C114.856 134.616 114.424 134.808 113.923 134.936C113.422 135.053 112.878 135.112 112.291 135.112C111.416 135.112 110.584 134.979 109.795 134.712C109.016 134.435 108.307 134.035 107.667 133.512L108.355 132.296C108.526 132.477 108.744 132.659 109.011 132.84C109.288 133.021 109.598 133.187 109.939 133.336C110.291 133.475 110.664 133.592 111.059 133.688C111.464 133.773 111.886 133.816 112.323 133.816C113.134 133.816 113.763 133.672 114.211 133.384C114.659 133.096 114.883 132.664 114.883 132.088C114.883 131.768 114.808 131.501 114.659 131.288C114.52 131.064 114.312 130.872 114.035 130.712C113.758 130.552 113.411 130.413 112.995 130.296C112.59 130.168 112.126 130.04 111.603 129.912C111.027 129.773 110.52 129.624 110.083 129.464C109.646 129.304 109.278 129.112 108.979 128.888C108.691 128.664 108.472 128.392 108.323 128.072C108.174 127.752 108.099 127.368 108.099 126.92C108.099 126.376 108.2 125.896 108.403 125.48C108.606 125.064 108.888 124.712 109.251 124.424C109.614 124.136 110.046 123.923 110.547 123.784C111.048 123.635 111.592 123.56 112.179 123.56C112.947 123.56 113.64 123.677 114.259 123.912C114.878 124.147 115.427 124.461 115.907 124.856L115.235 126.024ZM121.785 135.16C121.156 135.16 120.58 135.048 120.057 134.824C119.534 134.589 119.086 134.275 118.713 133.88C118.34 133.485 118.046 133.027 117.833 132.504C117.63 131.971 117.529 131.411 117.529 130.824C117.529 130.237 117.63 129.683 117.833 129.16C118.046 128.637 118.34 128.179 118.713 127.784C119.097 127.389 119.55 127.08 120.073 126.856C120.596 126.621 121.172 126.504 121.801 126.504C122.43 126.504 123.001 126.621 123.513 126.856C124.036 127.091 124.478 127.405 124.841 127.8C125.204 128.184 125.481 128.637 125.673 129.16C125.876 129.672 125.977 130.205 125.977 130.76C125.977 130.877 125.972 130.984 125.961 131.08C125.961 131.176 125.956 131.251 125.945 131.304H119.017C119.049 131.72 119.145 132.099 119.305 132.44C119.465 132.781 119.673 133.075 119.929 133.32C120.185 133.565 120.473 133.757 120.793 133.896C121.124 134.035 121.47 134.104 121.833 134.104C122.089 134.104 122.34 134.072 122.585 134.008C122.83 133.933 123.06 133.837 123.273 133.72C123.486 133.603 123.673 133.459 123.833 133.288C124.004 133.117 124.132 132.925 124.217 132.712L125.433 133.048C125.294 133.357 125.102 133.64 124.857 133.896C124.622 134.152 124.345 134.376 124.025 134.568C123.716 134.749 123.369 134.893 122.985 135C122.601 135.107 122.201 135.16 121.785 135.16ZM124.649 130.264C124.617 129.869 124.516 129.507 124.345 129.176C124.185 128.835 123.977 128.547 123.721 128.312C123.476 128.077 123.188 127.896 122.857 127.768C122.526 127.629 122.174 127.56 121.801 127.56C121.428 127.56 121.076 127.629 120.745 127.768C120.414 127.896 120.121 128.083 119.865 128.328C119.62 128.563 119.417 128.845 119.257 129.176C119.108 129.507 119.017 129.869 118.985 130.264H124.649ZM131.958 127.88C131.254 127.901 130.63 128.083 130.086 128.424C129.553 128.765 129.174 129.24 128.95 129.848V135H127.542V126.648H128.854V128.584C129.142 128.008 129.521 127.544 129.99 127.192C130.46 126.829 130.961 126.627 131.494 126.584C131.601 126.584 131.692 126.584 131.766 126.584C131.841 126.584 131.905 126.589 131.958 126.6V127.88ZM135.771 135L132.475 126.648H133.931L136.571 133.768L139.227 126.648H140.571L137.275 135H135.771ZM141.964 135V126.648H143.372V135H141.964ZM141.964 125.08V123.32H143.372V125.08H141.964ZM145.092 130.808C145.092 130.221 145.193 129.667 145.396 129.144C145.598 128.621 145.886 128.168 146.26 127.784C146.633 127.389 147.076 127.08 147.588 126.856C148.11 126.621 148.692 126.504 149.332 126.504C150.164 126.504 150.878 126.691 151.476 127.064C152.084 127.427 152.542 127.917 152.852 128.536L151.476 128.968C151.262 128.573 150.964 128.269 150.58 128.056C150.196 127.832 149.769 127.72 149.3 127.72C148.916 127.72 148.553 127.8 148.212 127.96C147.87 128.109 147.577 128.323 147.332 128.6C147.086 128.877 146.889 129.203 146.74 129.576C146.601 129.949 146.532 130.36 146.532 130.808C146.532 131.245 146.606 131.656 146.756 132.04C146.905 132.424 147.102 132.76 147.348 133.048C147.604 133.325 147.897 133.544 148.228 133.704C148.569 133.864 148.932 133.944 149.316 133.944C149.561 133.944 149.801 133.912 150.036 133.848C150.281 133.773 150.5 133.677 150.692 133.56C150.894 133.443 151.07 133.309 151.22 133.16C151.369 133 151.476 132.829 151.54 132.648L152.916 133.064C152.788 133.373 152.606 133.656 152.372 133.912C152.148 134.168 151.881 134.387 151.572 134.568C151.262 134.749 150.916 134.893 150.532 135C150.158 135.107 149.764 135.16 149.348 135.16C148.718 135.16 148.142 135.043 147.62 134.808C147.097 134.573 146.649 134.259 146.276 133.864C145.902 133.469 145.609 133.011 145.396 132.488C145.193 131.955 145.092 131.395 145.092 130.808ZM158.129 135.16C157.5 135.16 156.924 135.048 156.401 134.824C155.878 134.589 155.43 134.275 155.057 133.88C154.684 133.485 154.39 133.027 154.177 132.504C153.974 131.971 153.873 131.411 153.873 130.824C153.873 130.237 153.974 129.683 154.177 129.16C154.39 128.637 154.684 128.179 155.057 127.784C155.441 127.389 155.894 127.08 156.417 126.856C156.94 126.621 157.516 126.504 158.145 126.504C158.774 126.504 159.345 126.621 159.857 126.856C160.38 127.091 160.822 127.405 161.185 127.8C161.548 128.184 161.825 128.637 162.017 129.16C162.22 129.672 162.321 130.205 162.321 130.76C162.321 130.877 162.316 130.984 162.305 131.08C162.305 131.176 162.3 131.251 162.289 131.304H155.361C155.393 131.72 155.489 132.099 155.649 132.44C155.809 132.781 156.017 133.075 156.273 133.32C156.529 133.565 156.817 133.757 157.137 133.896C157.468 134.035 157.814 134.104 158.177 134.104C158.433 134.104 158.684 134.072 158.929 134.008C159.174 133.933 159.404 133.837 159.617 133.72C159.83 133.603 160.017 133.459 160.177 133.288C160.348 133.117 160.476 132.925 160.561 132.712L161.777 133.048C161.638 133.357 161.446 133.64 161.201 133.896C160.966 134.152 160.689 134.376 160.369 134.568C160.06 134.749 159.713 134.893 159.329 135C158.945 135.107 158.545 135.16 158.129 135.16ZM160.993 130.264C160.961 129.869 160.86 129.507 160.689 129.176C160.529 128.835 160.321 128.547 160.065 128.312C159.82 128.077 159.532 127.896 159.201 127.768C158.87 127.629 158.518 127.56 158.145 127.56C157.772 127.56 157.42 127.629 157.089 127.768C156.758 127.896 156.465 128.083 156.209 128.328C155.964 128.563 155.761 128.845 155.601 129.176C155.452 129.507 155.361 129.869 155.329 130.264H160.993ZM166.814 135.16C166.142 135.16 165.481 135.059 164.83 134.856C164.179 134.643 163.619 134.339 163.15 133.944L163.758 133C164.249 133.373 164.739 133.656 165.23 133.848C165.721 134.029 166.238 134.12 166.782 134.12C167.39 134.12 167.87 134.003 168.222 133.768C168.585 133.523 168.766 133.181 168.766 132.744C168.766 132.541 168.718 132.371 168.622 132.232C168.526 132.083 168.382 131.955 168.19 131.848C167.998 131.741 167.753 131.645 167.454 131.56C167.155 131.475 166.809 131.384 166.414 131.288C165.913 131.16 165.481 131.037 165.118 130.92C164.755 130.803 164.457 130.664 164.222 130.504C163.987 130.344 163.817 130.152 163.71 129.928C163.603 129.704 163.55 129.427 163.55 129.096C163.55 128.68 163.63 128.312 163.79 127.992C163.961 127.661 164.19 127.389 164.478 127.176C164.766 126.952 165.102 126.787 165.486 126.68C165.881 126.563 166.302 126.504 166.75 126.504C167.379 126.504 167.966 126.605 168.51 126.808C169.054 127.011 169.513 127.277 169.886 127.608L169.246 128.456C168.894 128.147 168.499 127.917 168.062 127.768C167.625 127.608 167.177 127.528 166.718 127.528C166.206 127.528 165.769 127.64 165.406 127.864C165.054 128.077 164.878 128.424 164.878 128.904C164.878 129.096 164.91 129.256 164.974 129.384C165.049 129.512 165.166 129.624 165.326 129.72C165.486 129.816 165.689 129.901 165.934 129.976C166.19 130.051 166.494 130.131 166.846 130.216C167.401 130.344 167.881 130.477 168.286 130.616C168.702 130.744 169.043 130.899 169.31 131.08C169.587 131.261 169.79 131.475 169.918 131.72C170.057 131.965 170.126 132.264 170.126 132.616C170.126 133.395 169.827 134.013 169.23 134.472C168.633 134.931 167.827 135.16 166.814 135.16Z" fill="#12233D"/>
<path d="M91.7145 0.250027L91.7139 0.250028C88.8525 0.249149 86.0425 1.0104 83.5728 2.45552C81.1032 3.90063 79.063 5.97745 77.662 8.47243L77.5745 8.6283L77.3987 8.59588C76.7542 8.47704 76.1001 8.41817 75.4447 8.42003L75.4443 8.42003C72.576 8.42356 69.8213 9.54127 67.7614 11.5373C65.7016 13.5333 64.4977 16.2515 64.4039 19.1182L64.3978 19.3048L64.2171 19.3519C62.023 19.9244 60.1129 21.2771 58.8445 23.1568C57.5761 25.0364 57.0365 27.314 57.3267 29.5629C57.6169 31.8118 58.7171 33.8778 60.4211 35.3738C62.1251 36.8699 64.3161 37.6933 66.5836 37.69H66.584H68.584C68.7829 37.69 68.9737 37.611 69.1143 37.4704C69.255 37.3297 69.334 37.1389 69.334 36.94C69.334 36.7411 69.255 36.5504 69.1143 36.4097C68.9737 36.269 68.7829 36.19 68.584 36.19H66.584H66.5775L66.5775 36.1899C64.6507 36.14 62.8101 35.3802 61.4091 34.0563C60.0081 32.7325 59.1455 30.9378 58.9867 29.0168C58.8279 27.0958 59.3841 25.1839 60.5487 23.6479C61.7132 22.112 63.4041 21.0602 65.2966 20.6946L65.3015 20.6936L65.3015 20.6937C65.4776 20.6633 65.6371 20.5711 65.7512 20.4336C65.8654 20.2961 65.9266 20.1223 65.924 19.9437L65.924 19.94L65.924 19.7176C65.9188 19.6292 65.9188 19.5406 65.924 19.4523C65.9287 16.9293 66.9316 14.5105 68.7139 12.7244C70.4979 10.9365 72.9175 9.92817 75.4432 9.92003L75.4447 9.92002C76.2246 9.92231 77.001 10.0224 77.7559 10.2178C77.9215 10.2599 78.0964 10.2441 78.2518 10.1733C78.4073 10.1023 78.5339 9.98044 78.6106 9.82774L78.834 9.94003M91.7145 0.250027L104.354 35.96M91.7145 0.250027C93.8419 0.246144 95.9492 0.661325 97.9162 1.47187C99.8832 2.28241 101.671 3.47243 103.178 4.974C104.685 6.47556 105.882 8.25926 106.7 10.2233C107.517 12.1871 107.94 14.2927 107.944 16.42M91.7145 0.250027L107.944 16.42M78.834 9.94003L78.6105 9.82796C80.0927 6.8724 82.5298 4.50419 85.5266 3.10739C88.5234 1.71058 91.9042 1.36711 95.1208 2.13267C98.3373 2.89822 101.201 4.72791 103.247 7.32501C105.293 9.92211 106.402 13.1343 106.394 16.4407L106.394 16.4422C106.384 17.6368 106.234 18.8261 105.948 19.9859C105.908 20.1755 105.944 20.3731 106.047 20.5372C106.15 20.7024 106.314 20.8208 106.504 20.8672L106.513 20.8694L106.513 20.8696C108.328 21.3871 109.895 22.5439 110.924 24.1265C111.954 25.709 112.376 27.6105 112.113 29.4799C111.849 31.3493 110.919 33.0604 109.493 34.2974C108.067 35.5344 106.241 36.2137 104.354 36.21M78.834 9.94003C80.2909 7.03483 82.6864 4.70698 85.6322 3.33398C88.578 1.96098 91.9012 1.62336 95.0629 2.37587C98.2246 3.12838 101.039 4.92689 103.051 7.47973C105.062 10.0326 106.152 13.19 106.144 16.44L75.444 10.17C76.2032 10.1723 76.9591 10.2697 77.694 10.46C77.9148 10.5162 78.1482 10.4953 78.3556 10.4007C78.5629 10.3061 78.7317 10.1436 78.834 9.94003ZM104.354 36.21L104.354 35.96M104.354 36.21H104.354V35.96M104.354 36.21H101.354C101.155 36.21 100.964 36.289 100.824 36.4297C100.683 36.5704 100.604 36.7611 100.604 36.96C100.604 37.1589 100.683 37.3497 100.824 37.4904C100.964 37.631 101.155 37.71 101.354 37.71H104.354M104.354 35.96H101.354C101.089 35.96 100.834 36.0654 100.647 36.2529C100.459 36.4405 100.354 36.6948 100.354 36.96C100.354 37.2252 100.459 37.4796 100.647 37.6671C100.834 37.8547 101.089 37.96 101.354 37.96H104.354M104.354 37.71L104.354 37.96M104.354 37.71C106.092 37.7087 107.796 37.2217 109.272 36.3039C110.749 35.3861 111.94 34.074 112.71 32.5155C113.481 30.9571 113.801 29.2144 113.634 27.4839C113.467 25.7537 112.82 24.1045 111.766 22.7223C110.733 21.3849 109.361 20.3489 107.791 19.7222L107.598 19.6449L107.639 19.4405C107.84 18.4462 107.942 17.4344 107.944 16.42M104.354 37.71H104.354V37.96M104.354 37.96L107.944 16.42M68.584 35.94H66.584L108.194 16.42C108.19 14.2598 107.761 12.1215 106.93 10.1272C106.1 8.13286 104.885 6.32164 103.355 4.7969C101.824 3.27216 100.009 2.06377 98.0114 1.24072C96.0141 0.417672 93.8743 -0.00391584 91.714 2.74079e-05C88.8082 -0.000865112 85.9546 0.772203 83.4466 2.23974C80.9386 3.70728 78.8667 5.81633 77.444 8.35003C76.7843 8.22839 76.1148 8.16813 75.444 8.17003C72.5109 8.17365 69.6939 9.31661 67.5875 11.3577C65.481 13.3989 64.25 16.1785 64.154 19.11C61.901 19.6978 59.9397 21.0869 58.6372 23.0169C57.3348 24.947 56.7807 27.2856 57.0787 29.5949C57.3767 31.9041 58.5064 34.0255 60.2561 35.5617C62.0059 37.0979 64.2556 37.9434 66.584 37.94H68.584C68.8492 37.94 69.1036 37.8347 69.2911 37.6471C69.4787 37.4596 69.584 37.2052 69.584 36.94C69.584 36.6748 69.4787 36.4205 69.2911 36.2329C69.1036 36.0454 68.8492 35.94 68.584 35.94Z" fill="#12233D" stroke="white" stroke-width="0.5"/>
<path fill-rule="evenodd" clip-rule="evenodd" d="M82.1659 27.9376C81.625 28.1072 81.1005 28.3246 80.5984 28.5877L77.9235 27.2424C76.8509 28.1389 76.1389 28.8509 75.2424 29.9235L76.5877 32.5984C76.3246 33.1002 76.1072 33.6247 75.9379 34.1659L73.0953 35.1052C72.9682 36.5334 72.9682 37.4694 73.0953 38.8973L75.9376 39.8368C76.1072 40.3775 76.3246 40.902 76.5877 41.4041L75.2424 44.0789C76.1389 45.1516 76.8509 45.8639 77.9235 46.7604L80.5984 45.4147C81.1002 45.6779 81.6247 45.8953 82.1659 46.0645L83.1052 48.9071C84.4966 49.0309 85.5059 49.0309 86.8973 48.9071L87.8368 46.0648C88.3775 45.8956 88.902 45.6779 89.4041 45.4147L92.0789 46.7604C93.1516 45.8639 93.8639 45.1516 94.7604 44.0789L93.4147 41.4041C93.6779 40.9023 93.8953 40.3778 94.0645 39.8368L96.9071 38.8973C97.031 37.5059 97.031 36.4966 96.9071 35.1052L94.0648 34.1659C93.8956 33.625 93.6779 33.1005 93.4147 32.5984L94.7604 29.9235C93.8639 28.8509 93.1516 28.1389 92.0789 27.2424L89.4041 28.5877C88.9023 28.3246 88.3778 28.1072 87.8368 27.9379L86.8973 25.0953C85.4694 24.9682 84.5334 24.9682 83.1052 25.0953L82.1659 27.9376ZM84.0349 26.2684L83.1429 28.9678C82.2419 29.1756 81.3977 29.5315 80.6364 30.0073L78.0952 28.7289C77.6 29.1428 77.1428 29.6 76.7289 30.0952L78.0073 32.6364C77.5312 33.3977 77.1759 34.2419 76.9678 35.1429L74.2684 36.0349C74.2107 36.6805 74.2107 37.3219 74.2684 37.9676L76.9678 38.8599C77.1756 39.7609 77.5315 40.6048 78.0073 41.3661L76.7289 43.9073C77.1428 44.4028 77.6 44.8597 78.0952 45.2739L80.6364 43.9952C81.3977 44.4716 82.2419 44.8268 83.1429 45.0347L84.0349 47.734C84.6805 47.7917 85.3219 47.7917 85.9676 47.734L86.8599 45.0347C87.7609 44.8268 88.6048 44.4713 89.3661 43.9952L91.9073 45.2739C92.4028 44.8597 92.8597 44.4028 93.2739 43.9073L91.9952 41.3661C92.4716 40.6048 92.8268 39.7609 93.0347 38.8599L95.734 37.9676C95.7918 37.3219 95.7918 36.6805 95.734 36.0349L93.0347 35.1429C92.8268 34.2419 92.4713 33.3977 91.9952 32.6364L93.2739 30.0952C92.8597 29.6 92.4028 29.1428 91.9073 28.7289L89.3661 30.0073C88.6048 29.5312 87.7609 29.1759 86.8599 28.9678L85.9676 26.2684C85.3219 26.2107 84.6805 26.2107 84.0349 26.2684ZM85.0014 33.0532C82.8211 33.0532 81.0532 34.8211 81.0532 37.0014C81.0532 39.1816 82.8211 40.9492 85.0014 40.9492C87.1816 40.9492 88.9492 39.1816 88.9492 37.0014C88.9492 34.8211 87.1816 33.0532 85.0014 33.0532ZM85.0014 34.3038C86.4909 34.3038 87.6987 35.5116 87.6987 37.0014C87.6987 38.4909 86.4909 39.6987 85.0014 39.6987C83.5116 39.6987 82.3038 38.4909 82.3038 37.0014C82.3038 35.5116 83.5116 34.3038 85.0014 34.3038Z" fill="#D62C2C"/>
</svg>
