<svg width="32" height="32" viewBox="0 0 32 32" fill="none" xmlns="http://www.w3.org/2000/svg">
<path opacity="0.75" fill-rule="evenodd" clip-rule="evenodd" d="M32 16C32 24.8366 24.8366 32 16 32C7.16344 32 0 24.8366 0 16C0 7.16344 7.16344 0 16 0C24.8366 0 32 7.16344 32 16ZM19.875 15.6875C19.875 17.655 18.28 19.25 16.3125 19.25C14.345 19.25 12.75 17.655 12.75 15.6875C12.75 13.72 14.345 12.125 16.3125 12.125C18.28 12.125 19.875 13.72 19.875 15.6875ZM16.6875 26C19.8442 26 22.6812 24.6555 24.6376 22.5175L21.2003 19.2296C20.1011 20.613 18.4042 21.5 16.5 21.5C13.1863 21.5 10.5 18.8137 10.5 15.5C10.5 12.1863 13.1863 9.5 16.5 9.5C18.4436 9.5 20.1714 10.4242 21.2679 11.8571L24.64 8.48503C22.6835 6.3456 19.8454 5 16.6875 5C10.785 5 6 9.70101 6 15.5C6 21.299 10.785 26 16.6875 26Z" fill="#fff"/>
</svg>
