<svg xmlns="http://www.w3.org/2000/svg" viewBox="-4083 -9838 64.444 50"><defs><style>.cls-1{fill:url(#linear-gradient)}</style><linearGradient id="linear-gradient" x2="1" y2="1" gradientUnits="objectBoundingBox"><stop offset="0" stop-color="#de3535"/><stop offset="1" stop-color="#e46d2e"/></linearGradient></defs><path id="Database_icon" data-name="Database icon" class="cls-1" d="M63.333 67.111h-5.555V51.556a1.11 1.11 0 0 0-1.111-1.111h-4.445v-2.223a1.11 1.11 0 0 0-1.111-1.111h-5.555V31.556a1.11 1.11 0 0 0-1.111-1.111H40v-3.334A1.11 1.11 0 0 0 38.889 26H25.556a1.11 1.11 0 0 0-1.111 1.111v3.333H20a1.11 1.11 0 0 0-1.111 1.111v15.556h-5.556a1.11 1.11 0 0 0-1.111 1.111v2.222H7.778a1.11 1.11 0 0 0-1.111 1.111v15.556H1.111A1.11 1.11 0 0 0 0 68.222v6.667A1.11 1.11 0 0 0 1.111 76h13.333a1.11 1.11 0 0 0 1.111-1.111v-6.667a1.11 1.11 0 0 0-1.111-1.111H8.889V52.667h3.333v2.222A1.11 1.11 0 0 0 13.333 56h13.334a1.11 1.11 0 0 0 1.111-1.111v-2.222h3.333v14.444h-5.555a1.11 1.11 0 0 0-1.111 1.111v6.667A1.11 1.11 0 0 0 25.556 76h13.333A1.11 1.11 0 0 0 40 74.889v-6.667a1.11 1.11 0 0 0-1.111-1.111h-5.556V52.667h3.333v2.222A1.11 1.11 0 0 0 37.778 56h13.333a1.11 1.11 0 0 0 1.111-1.111v-2.222h3.333v14.444H50a1.11 1.11 0 0 0-1.111 1.111v6.667A1.11 1.11 0 0 0 50 76h13.333a1.11 1.11 0 0 0 1.111-1.111v-6.667a1.11 1.11 0 0 0-1.111-1.111zm-50 2.222v4.444H2.222v-4.444zm13.334-41.111h11.111v6.667H26.667zm-1.111 25.556H14.444v-4.445h11.112zm12.222 15.555v4.444H26.667v-4.444zm-1.111-21.111v2.222h-8.889v-2.222a1.11 1.11 0 0 0-1.111-1.111h-5.556V32.667h3.333V36a1.11 1.11 0 0 0 1.111 1.111h13.334A1.11 1.11 0 0 0 40 36v-3.333h3.333v14.444h-5.555a1.11 1.11 0 0 0-1.111 1.111zM50 53.778H38.889v-4.445H50zm12.222 20H51.111v-4.445h11.111z" transform="translate(-4083 -9864)"/></svg>