<svg width="33" height="36" viewBox="0 0 33 36" fill="none" xmlns="http://www.w3.org/2000/svg">
<path d="M17.4094 32.3827V34.1695H23.1693C23.689 34.1695 24.0787 34.6054 24.0787 35.0848C24.0787 35.6078 23.6457 36 23.1693 36H9.83071C9.31102 36 8.92126 35.5642 8.92126 35.0848C8.92126 34.5618 9.35433 34.1695 9.83071 34.1695H15.5906V32.3827C15.5906 31.8597 16.0236 31.4674 16.5 31.4674C17.0197 31.4674 17.4094 31.8597 17.4094 32.3827ZM31.0945 28.4167H1.90551C1.8622 28.4167 1.86221 28.3731 1.86221 28.3731V8.10724C1.86221 8.06366 1.90551 8.06366 1.90551 8.06366H10.0906C10.6102 8.06366 11 7.62784 11 7.14843C11 6.66902 10.5669 6.2332 10.0906 6.2332H1.90551C0.866142 6.2332 0 7.10485 0 8.15083V28.3731C0 29.4191 0.866142 30.2907 1.90551 30.2907H31.0945C32.1339 30.2907 33 29.4191 33 28.3731V8.10724C33 7.06126 32.1339 6.18962 31.0945 6.18962H23.0394C22.5197 6.18962 22.1299 6.62544 22.1299 7.10485C22.1299 7.58425 22.563 8.02008 23.0394 8.02008H31.0945C31.1378 8.02008 31.1378 8.06366 31.1378 8.06366V28.2859C31.1378 28.3731 31.1378 28.4167 31.0945 28.4167ZM20.7441 3.31318V4.70781V4.92573V19.0028C20.7441 19.2208 20.6575 19.3951 20.5709 19.5694L17.2362 23.9712C17.063 24.1892 16.8032 24.3199 16.5 24.3199C16.1969 24.3199 15.937 24.1892 15.7638 23.9712L12.4291 19.5694C12.2992 19.3951 12.2559 19.2208 12.2559 19.0028V4.96931V4.70781V3.31318C12.2559 1.48271 13.7283 0.000911382 15.5472 0.000911382H17.4094C19.2717 -0.042671 20.7441 1.48271 20.7441 3.31318ZM18.9252 18.0876V5.62304H17.4528V18.0876H18.9252ZM14.0748 3.79258H18.8819V3.31318C18.8819 2.48511 18.2323 1.83137 17.4094 1.83137H15.5472C14.7244 1.83137 14.0748 2.48511 14.0748 3.31318V3.79258V3.79258ZM14.0748 5.62304V18.0876H15.5472V5.62304H14.0748ZM17.9724 19.9617H15.0276L16.5 21.8793L17.9724 19.9617Z" fill="url(#paint0_linear)"/>
<defs>
<linearGradient id="paint0_linear" x1="0" y1="0" x2="35.8642" y2="32.8755" gradientUnits="userSpaceOnUse">
<stop stop-color="#DE3535"/>
<stop offset="1" stop-color="#E46D2E"/>
</linearGradient>
</defs>
</svg>
