<svg width="32" height="64" viewBox="0 0 32 64" fill="none" xmlns="http://www.w3.org/2000/svg">
<path d="M32 64C27.7977 64 23.6365 63.1723 19.7541 61.5641C15.8717 59.956 12.3441 57.5989 9.37258 54.6274C6.40111 51.6559 4.04401 48.1283 2.43586 44.2459C0.827705 40.3634 0 36.2023 0 32C0 27.7977 0.827705 23.6365 2.43586 19.7541C4.04401 15.8717 6.40111 12.3441 9.37259 9.37258C12.3441 6.40111 15.8717 4.044 19.7541 2.43585C23.6366 0.827704 27.7977 -3.67377e-07 32 0V3.2C28.2179 3.2 24.4729 3.94493 20.9787 5.39227C17.4845 6.8396 14.3097 8.961 11.6353 11.6353C8.961 14.3097 6.83961 17.4845 5.39227 20.9787C3.94493 24.4729 3.2 28.2179 3.2 32C3.2 35.7821 3.94493 39.5271 5.39227 43.0213C6.8396 46.5155 8.961 49.6903 11.6353 52.3647C14.3097 55.039 17.4845 57.1604 20.9787 58.6077C24.4729 60.0551 28.2179 60.8 32 60.8V64Z" fill="#717B8B"/>
</svg>
