<svg width="9" height="17" viewBox="0 0 9 17" fill="none" xmlns="http://www.w3.org/2000/svg">
<path d="M8.51567 0.00340545L6.39322 0C4.00873 0 2.46776 1.58098 2.46776 4.02797V5.88513H0.333734C0.149329 5.88513 0 6.03463 0 6.21903V8.90985C0 9.09425 0.149499 9.24358 0.333734 9.24358H2.46776V16.0334C2.46776 16.2178 2.61709 16.3671 2.80149 16.3671H5.58579C5.77019 16.3671 5.91952 16.2176 5.91952 16.0334V9.24358H8.4147C8.5991 9.24358 8.74843 9.09425 8.74843 8.90985L8.74945 6.21903C8.74945 6.13049 8.7142 6.04569 8.65171 5.98303C8.58922 5.92037 8.50409 5.88513 8.41555 5.88513H5.91952V4.31079C5.91952 3.5541 6.09984 3.16996 7.08555 3.16996L8.51533 3.16945C8.69956 3.16945 8.84889 3.01995 8.84889 2.83572V0.337139C8.84889 0.153075 8.69973 0.00374599 8.51567 0.00340545Z" fill="white"/>
</svg>
