<svg width="16" height="16" viewBox="0 0 16 16" fill="none" xmlns="http://www.w3.org/2000/svg">
<circle cx="8" cy="8" r="7.75" stroke="#12233D" stroke-width="0.5"/>
<path d="M7.98259 6.0008C7.92026 6.00396 7.86099 6.02494 7.81427 6.06035L4.09955 8.91907C4.07094 8.93959 4.04745 8.96482 4.03047 8.99325C4.01349 9.02169 4.00337 9.05276 4.00071 9.08461C3.99805 9.11646 4.0029 9.14844 4.01498 9.17866C4.02706 9.20887 4.04612 9.2367 4.07102 9.26049C4.09593 9.28428 4.12617 9.30355 4.15996 9.31715C4.19374 9.33075 4.23038 9.3384 4.26769 9.33965C4.30501 9.34091 4.34224 9.33574 4.37716 9.32445C4.41209 9.31315 4.44401 9.29598 4.47102 9.27393L8 6.55915L11.529 9.27393C11.556 9.29598 11.5879 9.31315 11.6228 9.32445C11.6578 9.33574 11.695 9.34091 11.7323 9.33966C11.7696 9.33841 11.8063 9.33075 11.84 9.31715C11.8738 9.30355 11.9041 9.28428 11.929 9.26049C11.9539 9.2367 11.9729 9.20887 11.985 9.17866C11.9971 9.14844 12.002 9.11646 11.9993 9.08461C11.9966 9.05276 11.9865 9.02169 11.9695 8.99326C11.9525 8.96482 11.9291 8.93959 11.9004 8.91907L8.18574 6.06035C8.15817 6.03943 8.12602 6.0234 8.09114 6.01317C8.05627 6.00295 8.01937 5.99874 7.98259 6.0008Z" fill="#12233D"/>
</svg>
