<svg width="17" height="15" viewBox="0 0 17 15" fill="none" xmlns="http://www.w3.org/2000/svg">
<path d="M14.7735 4.34163C14.9476 3.81936 15.0347 3.27796 15.0347 2.71722C15.0347 1.96947 14.8702 1.26684 14.5415 0.609375C13.852 0.609375 13.2428 0.735185 12.7141 0.986499C12.1857 1.23788 11.583 1.62784 10.9064 2.15638C10.0557 1.95014 9.15297 1.84702 8.19919 1.84702C7.15489 1.84702 6.15898 1.95989 5.21149 2.18547C4.52186 1.64396 3.91273 1.24604 3.38416 0.991376C2.85559 0.736709 2.24327 0.609409 1.54707 0.609409C1.21834 1.26687 1.05399 1.96954 1.05399 2.71725C1.05399 3.28453 1.14096 3.83244 1.31502 4.3609C0.438285 5.38587 0 6.66208 0 8.18978C0 9.53068 0.199737 10.5973 0.599449 11.3903C0.812225 11.8091 1.08931 12.1798 1.43098 12.5022C1.77251 12.8243 2.1625 13.0856 2.60085 13.2855C3.03927 13.4851 3.48071 13.6512 3.92553 13.7832C4.37032 13.9153 4.86177 14.0121 5.40002 14.0731C5.93824 14.1346 6.41361 14.1748 6.82612 14.1943C7.23864 14.2134 7.69622 14.2232 8.19916 14.2232C8.79207 14.2232 9.33012 14.2086 9.81379 14.1797C10.2973 14.1508 10.8499 14.0797 11.472 13.9672C12.094 13.8543 12.6419 13.7011 13.1158 13.5078C13.5896 13.3145 14.0441 13.0373 14.4792 12.6764C14.9142 12.3153 15.2541 11.8867 15.4992 11.3903C15.8922 10.591 16.0889 9.52411 16.0889 8.18981C16.0887 6.65565 15.6503 5.37297 14.7735 4.34163ZM13.6137 11.3756C13.4074 11.7979 13.1463 12.1296 12.8305 12.3715C12.5145 12.6133 12.1214 12.8066 11.6509 12.9518C11.1802 13.0968 10.7292 13.1918 10.2973 13.2368C9.86523 13.282 9.38519 13.3045 8.85648 13.3045H7.2321C6.70357 13.3045 6.22325 13.282 5.79144 13.2368C5.35959 13.1918 4.9084 13.0968 4.43781 12.9518C3.96739 12.8066 3.57424 12.6133 3.25831 12.3715C2.94239 12.1295 2.68135 11.7979 2.47508 11.3756C2.26884 10.9532 2.16568 10.4586 2.16568 9.89144C2.16568 9.11772 2.38808 8.46016 2.8329 7.91896C3.27769 7.37745 3.88032 7.1068 4.64086 7.1068C4.91815 7.1068 5.54663 7.17443 6.52638 7.30982C6.984 7.3807 7.49005 7.41616 8.04433 7.41616C8.59877 7.41616 9.10475 7.38081 9.5623 7.30982C10.5551 7.1744 11.1834 7.1068 11.4479 7.1068C12.2084 7.1068 12.811 7.37759 13.2558 7.91896C13.7006 8.4604 13.9229 9.11772 13.9229 9.89144C13.9229 10.4587 13.8197 10.9536 13.6137 11.3756Z" fill="white"/>
</svg>
