<svg xmlns="http://www.w3.org/2000/svg" viewBox="-4071 -12834 40 40"><defs><style>.cls-1{fill:url(#linear-gradient)}</style><linearGradient id="linear-gradient" x2="1" y2="1" gradientUnits="objectBoundingBox"><stop offset="0" stop-color="#de3535"/><stop offset="1" stop-color="#e46d2e"/></linearGradient></defs><path id="High_Performance_icon" data-name="High Performance icon" class="cls-1" d="M38.823 37.647h-3.764V23.765a1.112 1.112 0 0 0-1.177-1.177h-4.706A1.112 1.112 0 0 0 28 23.765v13.882h-3.53v-6.353a1.112 1.112 0 0 0-1.177-1.177h-4.705a1.112 1.112 0 0 0-1.177 1.177v6.353h-3.529V27.294a1.112 1.112 0 0 0-1.177-1.177H8a1.112 1.112 0 0 0-1.177 1.177v10.353h-4.47V25.706l8.235-6.176 8.941 5.412a1.109 1.109 0 0 0 1.412-.235L37.176 9.412a1.165 1.165 0 1 0-1.647-1.647L20 22.353l-8.941-5.412a1.5 1.5 0 0 0-1.412 0l-7.294 5.424V1.177A1.111 1.111 0 0 0 1.176 0 1.112 1.112 0 0 0 0 1.177v37.646A1.112 1.112 0 0 0 1.176 40h37.647a1.176 1.176 0 1 0 0-2.353zm-8.47-12.706h2.353v12.706h-2.353zm-10.588 7.53h2.353v5.177h-2.353zm-10.588-4h2.353v9.177H9.176z" transform="translate(-4071 -12834)"/></svg>