<svg width="172" height="129" viewBox="0 0 172 129" fill="none" xmlns="http://www.w3.org/2000/svg">
<path d="M21.7663 100V88.64H23.2063V100H21.7663ZM32.9465 100H31.5385V95.328C31.5385 94.432 31.3998 93.7813 31.1225 93.376C30.8558 92.9707 30.4452 92.768 29.8905 92.768C29.6025 92.768 29.3145 92.8267 29.0265 92.944C28.7385 93.0507 28.4665 93.2 28.2105 93.392C27.9545 93.584 27.7305 93.8133 27.5385 94.08C27.3465 94.3467 27.2025 94.64 27.1065 94.96V100H25.6985V91.648H26.9785V93.44C27.3092 92.8533 27.7838 92.384 28.4025 92.032C29.0318 91.68 29.7145 91.504 30.4505 91.504C30.9305 91.504 31.3305 91.5947 31.6505 91.776C31.9705 91.9467 32.2265 92.192 32.4185 92.512C32.6105 92.8213 32.7438 93.1893 32.8185 93.616C32.9038 94.0427 32.9465 94.5067 32.9465 95.008V100ZM39.3779 99.584C39.2925 99.6267 39.1805 99.68 39.0419 99.744C38.9032 99.7973 38.7432 99.856 38.5619 99.92C38.3912 99.9733 38.1992 100.016 37.9859 100.048C37.7832 100.091 37.5699 100.112 37.3459 100.112C36.8339 100.112 36.3912 99.9733 36.0179 99.696C35.6445 99.408 35.4579 98.9653 35.4579 98.368V92.752H34.3219V91.648H35.4579V88.864H36.8659V91.648H38.7379V92.752H36.8659V97.936C36.8872 98.2453 36.9885 98.4693 37.1699 98.608C37.3512 98.7467 37.5645 98.816 37.8099 98.816C38.0872 98.816 38.3379 98.7733 38.5619 98.688C38.7965 98.592 38.9565 98.5173 39.0419 98.464L39.3779 99.584ZM44.2695 100.16C43.6402 100.16 43.0642 100.048 42.5415 99.824C42.0188 99.5893 41.5708 99.2747 41.1975 98.88C40.8242 98.4853 40.5308 98.0267 40.3175 97.504C40.1148 96.9707 40.0135 96.4107 40.0135 95.824C40.0135 95.2373 40.1148 94.6827 40.3175 94.16C40.5308 93.6373 40.8242 93.1787 41.1975 92.784C41.5815 92.3893 42.0348 92.08 42.5575 91.856C43.0802 91.6213 43.6562 91.504 44.2855 91.504C44.9148 91.504 45.4855 91.6213 45.9975 91.856C46.5202 92.0907 46.9628 92.4053 47.3255 92.8C47.6882 93.184 47.9655 93.6373 48.1575 94.16C48.3602 94.672 48.4615 95.2053 48.4615 95.76C48.4615 95.8773 48.4562 95.984 48.4455 96.08C48.4455 96.176 48.4402 96.2507 48.4295 96.304H41.5015C41.5335 96.72 41.6295 97.0987 41.7895 97.44C41.9495 97.7813 42.1575 98.0747 42.4135 98.32C42.6695 98.5653 42.9575 98.7573 43.2775 98.896C43.6082 99.0347 43.9548 99.104 44.3175 99.104C44.5735 99.104 44.8242 99.072 45.0695 99.008C45.3148 98.9333 45.5442 98.8373 45.7575 98.72C45.9708 98.6027 46.1575 98.4587 46.3175 98.288C46.4882 98.1173 46.6162 97.9253 46.7015 97.712L47.9175 98.048C47.7788 98.3573 47.5868 98.64 47.3415 98.896C47.1068 99.152 46.8295 99.376 46.5095 99.568C46.2002 99.7493 45.8535 99.8933 45.4695 100C45.0855 100.107 44.6855 100.16 44.2695 100.16ZM47.1335 95.264C47.1015 94.8693 47.0002 94.5067 46.8295 94.176C46.6695 93.8347 46.4615 93.5467 46.2055 93.312C45.9602 93.0773 45.6722 92.896 45.3415 92.768C45.0108 92.6293 44.6588 92.56 44.2855 92.56C43.9122 92.56 43.5602 92.6293 43.2295 92.768C42.8988 92.896 42.6055 93.0827 42.3495 93.328C42.1042 93.5627 41.9015 93.8453 41.7415 94.176C41.5922 94.5067 41.5015 94.8693 41.4695 95.264H47.1335ZM54.4426 92.88C53.7386 92.9013 53.1146 93.0827 52.5706 93.424C52.0373 93.7653 51.6586 94.24 51.4346 94.848V100H50.0266V91.648H51.3386V93.584C51.6266 93.008 52.0053 92.544 52.4746 92.192C52.944 91.8293 53.4453 91.6267 53.9786 91.584C54.0853 91.584 54.176 91.584 54.2506 91.584C54.3253 91.584 54.3893 91.5893 54.4426 91.6V92.88ZM63.0871 100H61.6791V95.328C61.6791 94.432 61.5405 93.7813 61.2631 93.376C60.9965 92.9707 60.5858 92.768 60.0311 92.768C59.7431 92.768 59.4551 92.8267 59.1671 92.944C58.8791 93.0507 58.6071 93.2 58.3511 93.392C58.0951 93.584 57.8711 93.8133 57.6791 94.08C57.4871 94.3467 57.3431 94.64 57.2471 94.96V100H55.8391V91.648H57.1191V93.44C57.4498 92.8533 57.9245 92.384 58.5431 92.032C59.1725 91.68 59.8551 91.504 60.5911 91.504C61.0711 91.504 61.4711 91.5947 61.7911 91.776C62.1111 91.9467 62.3671 92.192 62.5591 92.512C62.7511 92.8213 62.8845 93.1893 62.9591 93.616C63.0445 94.0427 63.0871 94.5067 63.0871 95.008V100ZM68.9726 100.16C68.3433 100.16 67.7673 100.048 67.2446 99.824C66.722 99.5893 66.274 99.2747 65.9006 98.88C65.5273 98.4853 65.234 98.0267 65.0206 97.504C64.818 96.9707 64.7166 96.4107 64.7166 95.824C64.7166 95.2373 64.818 94.6827 65.0206 94.16C65.234 93.6373 65.5273 93.1787 65.9006 92.784C66.2846 92.3893 66.738 92.08 67.2606 91.856C67.7833 91.6213 68.3593 91.504 68.9886 91.504C69.618 91.504 70.1886 91.6213 70.7006 91.856C71.2233 92.0907 71.666 92.4053 72.0286 92.8C72.3913 93.184 72.6686 93.6373 72.8606 94.16C73.0633 94.672 73.1646 95.2053 73.1646 95.76C73.1646 95.8773 73.1593 95.984 73.1486 96.08C73.1486 96.176 73.1433 96.2507 73.1326 96.304H66.2046C66.2366 96.72 66.3326 97.0987 66.4926 97.44C66.6526 97.7813 66.8606 98.0747 67.1166 98.32C67.3726 98.5653 67.6606 98.7573 67.9806 98.896C68.3113 99.0347 68.658 99.104 69.0206 99.104C69.2766 99.104 69.5273 99.072 69.7726 99.008C70.018 98.9333 70.2473 98.8373 70.4606 98.72C70.674 98.6027 70.8606 98.4587 71.0206 98.288C71.1913 98.1173 71.3193 97.9253 71.4046 97.712L72.6206 98.048C72.482 98.3573 72.29 98.64 72.0446 98.896C71.81 99.152 71.5326 99.376 71.2126 99.568C70.9033 99.7493 70.5566 99.8933 70.1726 100C69.7886 100.107 69.3886 100.16 68.9726 100.16ZM71.8366 95.264C71.8046 94.8693 71.7033 94.5067 71.5326 94.176C71.3726 93.8347 71.1646 93.5467 70.9086 93.312C70.6633 93.0773 70.3753 92.896 70.0446 92.768C69.714 92.6293 69.362 92.56 68.9886 92.56C68.6153 92.56 68.2633 92.6293 67.9326 92.768C67.602 92.896 67.3086 93.0827 67.0526 93.328C66.8073 93.5627 66.6046 93.8453 66.4446 94.176C66.2953 94.5067 66.2046 94.8693 66.1726 95.264H71.8366ZM78.9716 99.584C78.8863 99.6267 78.7743 99.68 78.6356 99.744C78.497 99.7973 78.337 99.856 78.1556 99.92C77.985 99.9733 77.793 100.016 77.5796 100.048C77.377 100.091 77.1636 100.112 76.9396 100.112C76.4276 100.112 75.985 99.9733 75.6116 99.696C75.2383 99.408 75.0516 98.9653 75.0516 98.368V92.752H73.9156V91.648H75.0516V88.864H76.4596V91.648H78.3316V92.752H76.4596V97.936C76.481 98.2453 76.5823 98.4693 76.7636 98.608C76.945 98.7467 77.1583 98.816 77.4036 98.816C77.681 98.816 77.9316 98.7733 78.1556 98.688C78.3903 98.592 78.5503 98.5173 78.6356 98.464L78.9716 99.584ZM87.9715 100.16C87.3422 100.16 86.7662 100.043 86.2435 99.808C85.7315 99.5733 85.2888 99.2587 84.9155 98.864C84.5528 98.4693 84.2702 98.0107 84.0675 97.488C83.8648 96.9653 83.7635 96.416 83.7635 95.84C83.7635 95.2533 83.8648 94.6987 84.0675 94.176C84.2808 93.6533 84.5688 93.1947 84.9315 92.8C85.3048 92.4053 85.7475 92.0907 86.2595 91.856C86.7822 91.6213 87.3528 91.504 87.9715 91.504C88.5902 91.504 89.1608 91.6213 89.6835 91.856C90.2062 92.0907 90.6488 92.4053 91.0115 92.8C91.3848 93.1947 91.6728 93.6533 91.8755 94.176C92.0888 94.6987 92.1955 95.2533 92.1955 95.84C92.1955 96.416 92.0942 96.9653 91.8915 97.488C91.6888 98.0107 91.4008 98.4693 91.0275 98.864C90.6542 99.2587 90.2062 99.5733 89.6835 99.808C89.1715 100.043 88.6008 100.16 87.9715 100.16ZM85.2035 95.856C85.2035 96.2933 85.2728 96.6987 85.4115 97.072C85.5608 97.4453 85.7582 97.7707 86.0035 98.048C86.2595 98.3253 86.5528 98.544 86.8835 98.704C87.2248 98.864 87.5875 98.944 87.9715 98.944C88.3555 98.944 88.7128 98.864 89.0435 98.704C89.3848 98.544 89.6835 98.3253 89.9395 98.048C90.1955 97.76 90.3928 97.4293 90.5315 97.056C90.6808 96.672 90.7555 96.2613 90.7555 95.824C90.7555 95.3973 90.6808 94.9973 90.5315 94.624C90.3928 94.24 90.1955 93.9093 89.9395 93.632C89.6835 93.344 89.3848 93.12 89.0435 92.96C88.7128 92.8 88.3555 92.72 87.9715 92.72C87.5875 92.72 87.2248 92.8053 86.8835 92.976C86.5528 93.136 86.2595 93.36 86.0035 93.648C85.7582 93.9253 85.5608 94.256 85.4115 94.64C85.2728 95.0133 85.2035 95.4187 85.2035 95.856ZM94.209 100V92.752H93.073V91.648H94.209V91.472C94.209 90.4373 94.4383 89.6267 94.897 89.04C95.3557 88.4533 95.9797 88.16 96.769 88.16C97.0997 88.16 97.425 88.208 97.745 88.304C98.065 88.3893 98.353 88.512 98.609 88.672L98.257 89.712C98.1077 89.6053 97.921 89.52 97.697 89.456C97.4837 89.392 97.2703 89.36 97.057 89.36C96.5877 89.36 96.2303 89.536 95.985 89.888C95.7397 90.24 95.617 90.752 95.617 91.424V91.648H97.841V92.752H95.617V100H94.209ZM110.865 89.92H106.945V100H105.505V89.92H101.585V88.64H110.865V89.92ZM119.525 100H118.117V95.328C118.117 94.464 117.967 93.824 117.669 93.408C117.37 92.9813 116.933 92.768 116.357 92.768C116.079 92.768 115.802 92.8267 115.525 92.944C115.247 93.0507 114.986 93.2 114.741 93.392C114.506 93.584 114.293 93.8133 114.101 94.08C113.919 94.3467 113.781 94.64 113.685 94.96V100H112.277V88.32H113.685V93.44C114.015 92.832 114.463 92.3573 115.029 92.016C115.594 91.6747 116.213 91.504 116.885 91.504C117.375 91.504 117.791 91.5947 118.133 91.776C118.474 91.9573 118.746 92.2027 118.949 92.512C119.151 92.8213 119.295 93.1947 119.381 93.632C119.477 94.0587 119.525 94.5173 119.525 95.008V100ZM121.714 100V91.648H123.122V100H121.714ZM121.714 90.08V88.32H123.122V90.08H121.714ZM132.65 100H131.242V95.328C131.242 94.432 131.103 93.7813 130.826 93.376C130.559 92.9707 130.148 92.768 129.594 92.768C129.306 92.768 129.018 92.8267 128.73 92.944C128.442 93.0507 128.17 93.2 127.914 93.392C127.658 93.584 127.434 93.8133 127.242 94.08C127.05 94.3467 126.906 94.64 126.81 94.96V100H125.402V91.648H126.682V93.44C127.012 92.8533 127.487 92.384 128.106 92.032C128.735 91.68 129.418 91.504 130.154 91.504C130.634 91.504 131.034 91.5947 131.354 91.776C131.674 91.9467 131.93 92.192 132.122 92.512C132.314 92.8213 132.447 93.1893 132.522 93.616C132.607 94.0427 132.65 94.5067 132.65 95.008V100ZM138.167 100.096C137.602 100.096 137.079 99.9787 136.599 99.744C136.13 99.5093 135.724 99.1947 135.383 98.8C135.042 98.4053 134.775 97.952 134.583 97.44C134.402 96.928 134.311 96.3947 134.311 95.84C134.311 95.2533 134.402 94.6987 134.583 94.176C134.775 93.6427 135.042 93.1787 135.383 92.784C135.724 92.3893 136.13 92.08 136.599 91.856C137.079 91.6213 137.607 91.504 138.183 91.504C138.887 91.504 139.495 91.6747 140.007 92.016C140.519 92.3573 140.951 92.7893 141.303 93.312V91.648H142.551V99.904C142.551 100.501 142.439 101.024 142.215 101.472C141.991 101.931 141.687 102.315 141.303 102.624C140.919 102.933 140.466 103.168 139.943 103.328C139.431 103.488 138.882 103.568 138.295 103.568C137.346 103.568 136.572 103.403 135.975 103.072C135.388 102.752 134.898 102.304 134.503 101.728L135.319 101.008C135.65 101.499 136.076 101.867 136.599 102.112C137.122 102.357 137.687 102.48 138.295 102.48C138.679 102.48 139.042 102.427 139.383 102.32C139.735 102.213 140.039 102.053 140.295 101.84C140.551 101.627 140.754 101.36 140.903 101.04C141.063 100.72 141.143 100.341 141.143 99.904V98.432C140.983 98.688 140.791 98.9227 140.567 99.136C140.354 99.3387 140.119 99.5147 139.863 99.664C139.607 99.8027 139.335 99.9093 139.047 99.984C138.759 100.059 138.466 100.096 138.167 100.096ZM138.599 98.944C138.898 98.944 139.186 98.8907 139.463 98.784C139.74 98.6773 139.996 98.5387 140.231 98.368C140.466 98.1867 140.663 97.984 140.823 97.76C140.983 97.536 141.09 97.3067 141.143 97.072V94.672C141.026 94.384 140.871 94.1227 140.679 93.888C140.498 93.6533 140.29 93.4507 140.055 93.28C139.82 93.0987 139.564 92.96 139.287 92.864C139.02 92.768 138.748 92.72 138.471 92.72C138.044 92.72 137.66 92.8107 137.319 92.992C136.988 93.1733 136.706 93.4133 136.471 93.712C136.236 94.0107 136.055 94.352 135.927 94.736C135.799 95.1093 135.735 95.488 135.735 95.872C135.735 96.288 135.81 96.6827 135.959 97.056C136.108 97.4293 136.311 97.7547 136.567 98.032C136.823 98.3093 137.122 98.5333 137.463 98.704C137.815 98.864 138.194 98.944 138.599 98.944ZM147.752 100.16C147.08 100.16 146.418 100.059 145.768 99.856C145.117 99.6427 144.557 99.3387 144.088 98.944L144.696 98C145.186 98.3733 145.677 98.656 146.168 98.848C146.658 99.0293 147.176 99.12 147.72 99.12C148.328 99.12 148.808 99.0027 149.16 98.768C149.522 98.5227 149.704 98.1813 149.704 97.744C149.704 97.5413 149.656 97.3707 149.56 97.232C149.464 97.0827 149.32 96.9547 149.128 96.848C148.936 96.7413 148.69 96.6453 148.391 96.56C148.093 96.4747 147.746 96.384 147.352 96.288C146.85 96.16 146.418 96.0373 146.056 95.92C145.693 95.8027 145.394 95.664 145.16 95.504C144.925 95.344 144.754 95.152 144.648 94.928C144.541 94.704 144.488 94.4267 144.488 94.096C144.488 93.68 144.568 93.312 144.728 92.992C144.898 92.6613 145.128 92.3893 145.416 92.176C145.704 91.952 146.04 91.7867 146.424 91.68C146.818 91.5627 147.24 91.504 147.688 91.504C148.317 91.504 148.904 91.6053 149.448 91.808C149.992 92.0107 150.45 92.2773 150.824 92.608L150.184 93.456C149.832 93.1467 149.437 92.9173 149 92.768C148.562 92.608 148.114 92.528 147.656 92.528C147.144 92.528 146.706 92.64 146.344 92.864C145.992 93.0773 145.816 93.424 145.816 93.904C145.816 94.096 145.848 94.256 145.912 94.384C145.986 94.512 146.104 94.624 146.264 94.72C146.424 94.816 146.626 94.9013 146.872 94.976C147.128 95.0507 147.432 95.1307 147.784 95.216C148.338 95.344 148.818 95.4773 149.224 95.616C149.64 95.744 149.981 95.8987 150.248 96.08C150.525 96.2613 150.728 96.4747 150.856 96.72C150.994 96.9653 151.064 97.264 151.064 97.616C151.064 98.3947 150.765 99.0133 150.168 99.472C149.57 99.9307 148.765 100.16 147.752 100.16ZM2.70375 125V113.64H6.63975C7.54642 113.64 8.34108 113.789 9.02375 114.088C9.71708 114.387 10.2931 114.792 10.7517 115.304C11.2104 115.816 11.5518 116.419 11.7758 117.112C12.0104 117.795 12.1278 118.525 12.1278 119.304C12.1278 120.168 11.9998 120.952 11.7438 121.656C11.4878 122.349 11.1198 122.947 10.6398 123.448C10.1598 123.939 9.57842 124.323 8.89575 124.6C8.22375 124.867 7.47175 125 6.63975 125H2.70375ZM10.6718 119.304C10.6718 118.664 10.5811 118.077 10.3998 117.544C10.2291 117 9.96775 116.536 9.61575 116.152C9.27442 115.768 8.85308 115.469 8.35175 115.256C7.85042 115.032 7.27975 114.92 6.63975 114.92H4.14375V123.72H6.63975C7.29042 123.72 7.86642 123.608 8.36775 123.384C8.87975 123.16 9.30108 122.851 9.63175 122.456C9.97308 122.061 10.2291 121.597 10.3998 121.064C10.5811 120.52 10.6718 119.933 10.6718 119.304ZM17.6289 125.16C16.9995 125.16 16.4235 125.048 15.9009 124.824C15.3782 124.589 14.9302 124.275 14.5569 123.88C14.1835 123.485 13.8902 123.027 13.6769 122.504C13.4742 121.971 13.3729 121.411 13.3729 120.824C13.3729 120.237 13.4742 119.683 13.6769 119.16C13.8902 118.637 14.1835 118.179 14.5569 117.784C14.9409 117.389 15.3942 117.08 15.9169 116.856C16.4395 116.621 17.0155 116.504 17.6449 116.504C18.2742 116.504 18.8449 116.621 19.3569 116.856C19.8795 117.091 20.3222 117.405 20.6849 117.8C21.0475 118.184 21.3249 118.637 21.5169 119.16C21.7195 119.672 21.8209 120.205 21.8209 120.76C21.8209 120.877 21.8155 120.984 21.8049 121.08C21.8049 121.176 21.7995 121.251 21.7889 121.304H14.8609C14.8929 121.72 14.9889 122.099 15.1489 122.44C15.3089 122.781 15.5169 123.075 15.7729 123.32C16.0289 123.565 16.3169 123.757 16.6369 123.896C16.9675 124.035 17.3142 124.104 17.6769 124.104C17.9329 124.104 18.1835 124.072 18.4289 124.008C18.6742 123.933 18.9035 123.837 19.1169 123.72C19.3302 123.603 19.5169 123.459 19.6769 123.288C19.8475 123.117 19.9755 122.925 20.0609 122.712L21.2769 123.048C21.1382 123.357 20.9462 123.64 20.7009 123.896C20.4662 124.152 20.1889 124.376 19.8689 124.568C19.5595 124.749 19.2129 124.893 18.8289 125C18.4449 125.107 18.0449 125.16 17.6289 125.16ZM20.4929 120.264C20.4609 119.869 20.3595 119.507 20.1889 119.176C20.0289 118.835 19.8209 118.547 19.5649 118.312C19.3195 118.077 19.0315 117.896 18.7009 117.768C18.3702 117.629 18.0182 117.56 17.6449 117.56C17.2715 117.56 16.9195 117.629 16.5889 117.768C16.2582 117.896 15.9649 118.083 15.7089 118.328C15.4635 118.563 15.2609 118.845 15.1009 119.176C14.9515 119.507 14.8609 119.869 14.8289 120.264H20.4929ZM25.5833 125L22.2873 116.648H23.7433L26.3833 123.768L29.0393 116.648H30.3833L27.0873 125H25.5833ZM35.1914 125.16C34.562 125.16 33.986 125.048 33.4634 124.824C32.9407 124.589 32.4927 124.275 32.1194 123.88C31.746 123.485 31.4527 123.027 31.2394 122.504C31.0367 121.971 30.9354 121.411 30.9354 120.824C30.9354 120.237 31.0367 119.683 31.2394 119.16C31.4527 118.637 31.746 118.179 32.1194 117.784C32.5034 117.389 32.9567 117.08 33.4794 116.856C34.002 116.621 34.578 116.504 35.2074 116.504C35.8367 116.504 36.4074 116.621 36.9194 116.856C37.442 117.091 37.8847 117.405 38.2474 117.8C38.61 118.184 38.8874 118.637 39.0794 119.16C39.282 119.672 39.3834 120.205 39.3834 120.76C39.3834 120.877 39.378 120.984 39.3674 121.08C39.3674 121.176 39.362 121.251 39.3514 121.304H32.4234C32.4554 121.72 32.5514 122.099 32.7114 122.44C32.8714 122.781 33.0794 123.075 33.3354 123.32C33.5914 123.565 33.8794 123.757 34.1994 123.896C34.53 124.035 34.8767 124.104 35.2394 124.104C35.4954 124.104 35.746 124.072 35.9914 124.008C36.2367 123.933 36.466 123.837 36.6794 123.72C36.8927 123.603 37.0794 123.459 37.2394 123.288C37.41 123.117 37.538 122.925 37.6234 122.712L38.8394 123.048C38.7007 123.357 38.5087 123.64 38.2634 123.896C38.0287 124.152 37.7514 124.376 37.4314 124.568C37.122 124.749 36.7754 124.893 36.3914 125C36.0074 125.107 35.6074 125.16 35.1914 125.16ZM38.0554 120.264C38.0234 119.869 37.922 119.507 37.7514 119.176C37.5914 118.835 37.3834 118.547 37.1274 118.312C36.882 118.077 36.594 117.896 36.2634 117.768C35.9327 117.629 35.5807 117.56 35.2074 117.56C34.834 117.56 34.482 117.629 34.1514 117.768C33.8207 117.896 33.5274 118.083 33.2714 118.328C33.026 118.563 32.8234 118.845 32.6634 119.176C32.514 119.507 32.4234 119.869 32.3914 120.264H38.0554ZM40.9805 113.32H42.3885V122.84C42.3885 123.149 42.4685 123.395 42.6285 123.576C42.7992 123.747 43.0338 123.832 43.3325 123.832C43.4498 123.832 43.5885 123.816 43.7485 123.784C43.9085 123.741 44.0578 123.693 44.1965 123.64L44.4205 124.776C44.1858 124.872 43.9085 124.952 43.5885 125.016C43.2685 125.08 42.9858 125.112 42.7405 125.112C42.1965 125.112 41.7645 124.957 41.4445 124.648C41.1352 124.339 40.9805 123.907 40.9805 123.352V113.32ZM49.1746 125.16C48.5453 125.16 47.9693 125.043 47.4466 124.808C46.9346 124.573 46.492 124.259 46.1186 123.864C45.756 123.469 45.4733 123.011 45.2706 122.488C45.068 121.965 44.9666 121.416 44.9666 120.84C44.9666 120.253 45.068 119.699 45.2706 119.176C45.484 118.653 45.772 118.195 46.1346 117.8C46.508 117.405 46.9506 117.091 47.4626 116.856C47.9853 116.621 48.556 116.504 49.1746 116.504C49.7933 116.504 50.364 116.621 50.8866 116.856C51.4093 117.091 51.852 117.405 52.2146 117.8C52.588 118.195 52.876 118.653 53.0786 119.176C53.292 119.699 53.3986 120.253 53.3986 120.84C53.3986 121.416 53.2973 121.965 53.0946 122.488C52.892 123.011 52.604 123.469 52.2306 123.864C51.8573 124.259 51.4093 124.573 50.8866 124.808C50.3746 125.043 49.804 125.16 49.1746 125.16ZM46.4066 120.856C46.4066 121.293 46.476 121.699 46.6146 122.072C46.764 122.445 46.9613 122.771 47.2066 123.048C47.4626 123.325 47.756 123.544 48.0866 123.704C48.428 123.864 48.7906 123.944 49.1746 123.944C49.5586 123.944 49.916 123.864 50.2466 123.704C50.588 123.544 50.8866 123.325 51.1426 123.048C51.3986 122.76 51.596 122.429 51.7346 122.056C51.884 121.672 51.9586 121.261 51.9586 120.824C51.9586 120.397 51.884 119.997 51.7346 119.624C51.596 119.24 51.3986 118.909 51.1426 118.632C50.8866 118.344 50.588 118.12 50.2466 117.96C49.916 117.8 49.5586 117.72 49.1746 117.72C48.7906 117.72 48.428 117.805 48.0866 117.976C47.756 118.136 47.4626 118.36 47.2066 118.648C46.9613 118.925 46.764 119.256 46.6146 119.64C46.476 120.013 46.4066 120.419 46.4066 120.856ZM59.6008 125.16C58.9074 125.16 58.2941 124.989 57.7608 124.648C57.2381 124.307 56.8221 123.875 56.5128 123.352V128.408H55.1048V116.648H56.3528V118.216C56.6834 117.704 57.1101 117.293 57.6328 116.984C58.1661 116.664 58.7528 116.504 59.3928 116.504C59.9688 116.504 60.4968 116.621 60.9768 116.856C61.4568 117.091 61.8728 117.411 62.2248 117.816C62.5768 118.211 62.8488 118.669 63.0408 119.192C63.2434 119.715 63.3448 120.259 63.3448 120.824C63.3448 121.421 63.2541 121.987 63.0728 122.52C62.8914 123.043 62.6354 123.501 62.3048 123.896C61.9741 124.28 61.5794 124.589 61.1208 124.824C60.6621 125.048 60.1554 125.16 59.6008 125.16ZM59.1688 123.944C59.5848 123.944 59.9581 123.859 60.2888 123.688C60.6301 123.507 60.9181 123.272 61.1528 122.984C61.3981 122.685 61.5848 122.349 61.7128 121.976C61.8408 121.603 61.9048 121.219 61.9048 120.824C61.9048 120.408 61.8301 120.013 61.6808 119.64C61.5314 119.256 61.3288 118.925 61.0728 118.648C60.8168 118.36 60.5128 118.136 60.1608 117.976C59.8194 117.805 59.4461 117.72 59.0408 117.72C58.7848 117.72 58.5181 117.773 58.2408 117.88C57.9741 117.976 57.7181 118.109 57.4728 118.28C57.2381 118.44 57.0301 118.637 56.8488 118.872C56.6781 119.096 56.5661 119.336 56.5128 119.592V121.976C56.6301 122.253 56.7794 122.515 56.9608 122.76C57.1421 122.995 57.3501 123.203 57.5848 123.384C57.8194 123.555 58.0701 123.693 58.3368 123.8C58.6034 123.896 58.8808 123.944 59.1688 123.944ZM77.6655 125H76.2575V120.328C76.2575 119.453 76.1135 118.808 75.8255 118.392C75.5482 117.976 75.1322 117.768 74.5775 117.768C74.0015 117.768 73.4842 117.976 73.0255 118.392C72.5775 118.797 72.2575 119.325 72.0655 119.976V125H70.6575V120.328C70.6575 119.432 70.5188 118.781 70.2415 118.376C69.9642 117.971 69.5482 117.768 68.9935 117.768C68.4282 117.768 67.9162 117.971 67.4575 118.376C66.9988 118.771 66.6735 119.299 66.4815 119.96V125H65.0735V116.648H66.3535V118.44C66.6948 117.821 67.1375 117.347 67.6815 117.016C68.2255 116.675 68.8388 116.504 69.5215 116.504C70.2255 116.504 70.7802 116.696 71.1855 117.08C71.6015 117.453 71.8575 117.939 71.9535 118.536C72.7002 117.181 73.7615 116.504 75.1375 116.504C75.6175 116.504 76.0175 116.595 76.3375 116.776C76.6682 116.947 76.9295 117.192 77.1215 117.512C77.3135 117.821 77.4522 118.189 77.5375 118.616C77.6228 119.043 77.6655 119.507 77.6655 120.008V125ZM83.5508 125.16C82.9214 125.16 82.3454 125.048 81.8228 124.824C81.3001 124.589 80.8521 124.275 80.4788 123.88C80.1054 123.485 79.8121 123.027 79.5988 122.504C79.3961 121.971 79.2948 121.411 79.2948 120.824C79.2948 120.237 79.3961 119.683 79.5988 119.16C79.8121 118.637 80.1054 118.179 80.4788 117.784C80.8628 117.389 81.3161 117.08 81.8388 116.856C82.3614 116.621 82.9374 116.504 83.5668 116.504C84.1961 116.504 84.7668 116.621 85.2788 116.856C85.8014 117.091 86.2441 117.405 86.6068 117.8C86.9694 118.184 87.2468 118.637 87.4388 119.16C87.6414 119.672 87.7428 120.205 87.7428 120.76C87.7428 120.877 87.7374 120.984 87.7268 121.08C87.7268 121.176 87.7214 121.251 87.7108 121.304H80.7828C80.8148 121.72 80.9107 122.099 81.0707 122.44C81.2308 122.781 81.4388 123.075 81.6948 123.32C81.9508 123.565 82.2388 123.757 82.5588 123.896C82.8894 124.035 83.2361 124.104 83.5988 124.104C83.8548 124.104 84.1054 124.072 84.3508 124.008C84.5961 123.933 84.8254 123.837 85.0388 123.72C85.2521 123.603 85.4388 123.459 85.5988 123.288C85.7694 123.117 85.8974 122.925 85.9828 122.712L87.1988 123.048C87.0601 123.357 86.8681 123.64 86.6228 123.896C86.3881 124.152 86.1108 124.376 85.7908 124.568C85.4814 124.749 85.1348 124.893 84.7508 125C84.3668 125.107 83.9668 125.16 83.5508 125.16ZM86.4148 120.264C86.3828 119.869 86.2814 119.507 86.1108 119.176C85.9508 118.835 85.7428 118.547 85.4868 118.312C85.2414 118.077 84.9534 117.896 84.6228 117.768C84.2921 117.629 83.9401 117.56 83.5668 117.56C83.1934 117.56 82.8414 117.629 82.5108 117.768C82.1801 117.896 81.8868 118.083 81.6308 118.328C81.3854 118.563 81.1828 118.845 81.0228 119.176C80.8734 119.507 80.7828 119.869 80.7508 120.264H86.4148ZM96.5559 125H95.1479V120.328C95.1479 119.432 95.0092 118.781 94.7319 118.376C94.4652 117.971 94.0545 117.768 93.4999 117.768C93.2119 117.768 92.9239 117.827 92.6359 117.944C92.3479 118.051 92.0759 118.2 91.8199 118.392C91.5639 118.584 91.3399 118.813 91.1479 119.08C90.9559 119.347 90.8119 119.64 90.7159 119.96V125H89.3079V116.648H90.5879V118.44C90.9185 117.853 91.3932 117.384 92.0119 117.032C92.6412 116.68 93.3239 116.504 94.0599 116.504C94.5399 116.504 94.9399 116.595 95.2599 116.776C95.5799 116.947 95.8359 117.192 96.0279 117.512C96.2199 117.821 96.3532 118.189 96.4279 118.616C96.5132 119.043 96.5559 119.507 96.5559 120.008V125ZM102.987 124.584C102.902 124.627 102.79 124.68 102.651 124.744C102.513 124.797 102.353 124.856 102.171 124.92C102.001 124.973 101.809 125.016 101.595 125.048C101.393 125.091 101.179 125.112 100.955 125.112C100.443 125.112 100.001 124.973 99.6273 124.696C99.2539 124.408 99.0673 123.965 99.0673 123.368V117.752H97.9313V116.648H99.0673V113.864H100.475V116.648H102.347V117.752H100.475V122.936C100.497 123.245 100.598 123.469 100.779 123.608C100.961 123.747 101.174 123.816 101.419 123.816C101.697 123.816 101.947 123.773 102.171 123.688C102.406 123.592 102.566 123.517 102.651 123.464L102.987 124.584ZM115.235 116.024C115.107 115.875 114.936 115.731 114.723 115.592C114.51 115.453 114.27 115.331 114.003 115.224C113.736 115.107 113.443 115.016 113.123 114.952C112.814 114.877 112.488 114.84 112.147 114.84C111.262 114.84 110.611 115.005 110.195 115.336C109.79 115.667 109.587 116.12 109.587 116.696C109.587 117.005 109.646 117.261 109.763 117.464C109.88 117.667 110.062 117.843 110.307 117.992C110.563 118.131 110.878 118.253 111.251 118.36C111.624 118.467 112.067 118.579 112.579 118.696C113.166 118.824 113.694 118.973 114.163 119.144C114.643 119.304 115.048 119.507 115.379 119.752C115.72 119.997 115.976 120.296 116.147 120.648C116.328 121 116.419 121.432 116.419 121.944C116.419 122.488 116.312 122.963 116.099 123.368C115.886 123.763 115.592 124.093 115.219 124.36C114.856 124.616 114.424 124.808 113.923 124.936C113.422 125.053 112.878 125.112 112.291 125.112C111.416 125.112 110.584 124.979 109.795 124.712C109.016 124.435 108.307 124.035 107.667 123.512L108.355 122.296C108.526 122.477 108.744 122.659 109.011 122.84C109.288 123.021 109.598 123.187 109.939 123.336C110.291 123.475 110.664 123.592 111.059 123.688C111.464 123.773 111.886 123.816 112.323 123.816C113.134 123.816 113.763 123.672 114.211 123.384C114.659 123.096 114.883 122.664 114.883 122.088C114.883 121.768 114.808 121.501 114.659 121.288C114.52 121.064 114.312 120.872 114.035 120.712C113.758 120.552 113.411 120.413 112.995 120.296C112.59 120.168 112.126 120.04 111.603 119.912C111.027 119.773 110.52 119.624 110.083 119.464C109.646 119.304 109.278 119.112 108.979 118.888C108.691 118.664 108.472 118.392 108.323 118.072C108.174 117.752 108.099 117.368 108.099 116.92C108.099 116.376 108.2 115.896 108.403 115.48C108.606 115.064 108.888 114.712 109.251 114.424C109.614 114.136 110.046 113.923 110.547 113.784C111.048 113.635 111.592 113.56 112.179 113.56C112.947 113.56 113.64 113.677 114.259 113.912C114.878 114.147 115.427 114.461 115.907 114.856L115.235 116.024ZM121.785 125.16C121.156 125.16 120.58 125.048 120.057 124.824C119.534 124.589 119.086 124.275 118.713 123.88C118.34 123.485 118.046 123.027 117.833 122.504C117.63 121.971 117.529 121.411 117.529 120.824C117.529 120.237 117.63 119.683 117.833 119.16C118.046 118.637 118.34 118.179 118.713 117.784C119.097 117.389 119.55 117.08 120.073 116.856C120.596 116.621 121.172 116.504 121.801 116.504C122.43 116.504 123.001 116.621 123.513 116.856C124.036 117.091 124.478 117.405 124.841 117.8C125.204 118.184 125.481 118.637 125.673 119.16C125.876 119.672 125.977 120.205 125.977 120.76C125.977 120.877 125.972 120.984 125.961 121.08C125.961 121.176 125.956 121.251 125.945 121.304H119.017C119.049 121.72 119.145 122.099 119.305 122.44C119.465 122.781 119.673 123.075 119.929 123.32C120.185 123.565 120.473 123.757 120.793 123.896C121.124 124.035 121.47 124.104 121.833 124.104C122.089 124.104 122.34 124.072 122.585 124.008C122.83 123.933 123.06 123.837 123.273 123.72C123.486 123.603 123.673 123.459 123.833 123.288C124.004 123.117 124.132 122.925 124.217 122.712L125.433 123.048C125.294 123.357 125.102 123.64 124.857 123.896C124.622 124.152 124.345 124.376 124.025 124.568C123.716 124.749 123.369 124.893 122.985 125C122.601 125.107 122.201 125.16 121.785 125.16ZM124.649 120.264C124.617 119.869 124.516 119.507 124.345 119.176C124.185 118.835 123.977 118.547 123.721 118.312C123.476 118.077 123.188 117.896 122.857 117.768C122.526 117.629 122.174 117.56 121.801 117.56C121.428 117.56 121.076 117.629 120.745 117.768C120.414 117.896 120.121 118.083 119.865 118.328C119.62 118.563 119.417 118.845 119.257 119.176C119.108 119.507 119.017 119.869 118.985 120.264H124.649ZM131.958 117.88C131.254 117.901 130.63 118.083 130.086 118.424C129.553 118.765 129.174 119.24 128.95 119.848V125H127.542V116.648H128.854V118.584C129.142 118.008 129.521 117.544 129.99 117.192C130.46 116.829 130.961 116.627 131.494 116.584C131.601 116.584 131.692 116.584 131.766 116.584C131.841 116.584 131.905 116.589 131.958 116.6V117.88ZM135.771 125L132.475 116.648H133.931L136.571 123.768L139.227 116.648H140.571L137.275 125H135.771ZM141.964 125V116.648H143.372V125H141.964ZM141.964 115.08V113.32H143.372V115.08H141.964ZM145.092 120.808C145.092 120.221 145.193 119.667 145.396 119.144C145.598 118.621 145.886 118.168 146.26 117.784C146.633 117.389 147.076 117.08 147.588 116.856C148.11 116.621 148.692 116.504 149.332 116.504C150.164 116.504 150.878 116.691 151.476 117.064C152.084 117.427 152.542 117.917 152.852 118.536L151.476 118.968C151.262 118.573 150.964 118.269 150.58 118.056C150.196 117.832 149.769 117.72 149.3 117.72C148.916 117.72 148.553 117.8 148.212 117.96C147.87 118.109 147.577 118.323 147.332 118.6C147.086 118.877 146.889 119.203 146.74 119.576C146.601 119.949 146.532 120.36 146.532 120.808C146.532 121.245 146.606 121.656 146.756 122.04C146.905 122.424 147.102 122.76 147.348 123.048C147.604 123.325 147.897 123.544 148.228 123.704C148.569 123.864 148.932 123.944 149.316 123.944C149.561 123.944 149.801 123.912 150.036 123.848C150.281 123.773 150.5 123.677 150.692 123.56C150.894 123.443 151.07 123.309 151.22 123.16C151.369 123 151.476 122.829 151.54 122.648L152.916 123.064C152.788 123.373 152.606 123.656 152.372 123.912C152.148 124.168 151.881 124.387 151.572 124.568C151.262 124.749 150.916 124.893 150.532 125C150.158 125.107 149.764 125.16 149.348 125.16C148.718 125.16 148.142 125.043 147.62 124.808C147.097 124.573 146.649 124.259 146.276 123.864C145.902 123.469 145.609 123.011 145.396 122.488C145.193 121.955 145.092 121.395 145.092 120.808ZM158.129 125.16C157.5 125.16 156.924 125.048 156.401 124.824C155.878 124.589 155.43 124.275 155.057 123.88C154.684 123.485 154.39 123.027 154.177 122.504C153.974 121.971 153.873 121.411 153.873 120.824C153.873 120.237 153.974 119.683 154.177 119.16C154.39 118.637 154.684 118.179 155.057 117.784C155.441 117.389 155.894 117.08 156.417 116.856C156.94 116.621 157.516 116.504 158.145 116.504C158.774 116.504 159.345 116.621 159.857 116.856C160.38 117.091 160.822 117.405 161.185 117.8C161.548 118.184 161.825 118.637 162.017 119.16C162.22 119.672 162.321 120.205 162.321 120.76C162.321 120.877 162.316 120.984 162.305 121.08C162.305 121.176 162.3 121.251 162.289 121.304H155.361C155.393 121.72 155.489 122.099 155.649 122.44C155.809 122.781 156.017 123.075 156.273 123.32C156.529 123.565 156.817 123.757 157.137 123.896C157.468 124.035 157.814 124.104 158.177 124.104C158.433 124.104 158.684 124.072 158.929 124.008C159.174 123.933 159.404 123.837 159.617 123.72C159.83 123.603 160.017 123.459 160.177 123.288C160.348 123.117 160.476 122.925 160.561 122.712L161.777 123.048C161.638 123.357 161.446 123.64 161.201 123.896C160.966 124.152 160.689 124.376 160.369 124.568C160.06 124.749 159.713 124.893 159.329 125C158.945 125.107 158.545 125.16 158.129 125.16ZM160.993 120.264C160.961 119.869 160.86 119.507 160.689 119.176C160.529 118.835 160.321 118.547 160.065 118.312C159.82 118.077 159.532 117.896 159.201 117.768C158.87 117.629 158.518 117.56 158.145 117.56C157.772 117.56 157.42 117.629 157.089 117.768C156.758 117.896 156.465 118.083 156.209 118.328C155.964 118.563 155.761 118.845 155.601 119.176C155.452 119.507 155.361 119.869 155.329 120.264H160.993ZM166.814 125.16C166.142 125.16 165.481 125.059 164.83 124.856C164.179 124.643 163.619 124.339 163.15 123.944L163.758 123C164.249 123.373 164.739 123.656 165.23 123.848C165.721 124.029 166.238 124.12 166.782 124.12C167.39 124.12 167.87 124.003 168.222 123.768C168.585 123.523 168.766 123.181 168.766 122.744C168.766 122.541 168.718 122.371 168.622 122.232C168.526 122.083 168.382 121.955 168.19 121.848C167.998 121.741 167.753 121.645 167.454 121.56C167.155 121.475 166.809 121.384 166.414 121.288C165.913 121.16 165.481 121.037 165.118 120.92C164.755 120.803 164.457 120.664 164.222 120.504C163.987 120.344 163.817 120.152 163.71 119.928C163.603 119.704 163.55 119.427 163.55 119.096C163.55 118.68 163.63 118.312 163.79 117.992C163.961 117.661 164.19 117.389 164.478 117.176C164.766 116.952 165.102 116.787 165.486 116.68C165.881 116.563 166.302 116.504 166.75 116.504C167.379 116.504 167.966 116.605 168.51 116.808C169.054 117.011 169.513 117.277 169.886 117.608L169.246 118.456C168.894 118.147 168.499 117.917 168.062 117.768C167.625 117.608 167.177 117.528 166.718 117.528C166.206 117.528 165.769 117.64 165.406 117.864C165.054 118.077 164.878 118.424 164.878 118.904C164.878 119.096 164.91 119.256 164.974 119.384C165.049 119.512 165.166 119.624 165.326 119.72C165.486 119.816 165.689 119.901 165.934 119.976C166.19 120.051 166.494 120.131 166.846 120.216C167.401 120.344 167.881 120.477 168.286 120.616C168.702 120.744 169.043 120.899 169.31 121.08C169.587 121.261 169.79 121.475 169.918 121.72C170.057 121.965 170.126 122.264 170.126 122.616C170.126 123.395 169.827 124.013 169.23 124.472C168.633 124.931 167.827 125.16 166.814 125.16Z" fill="#12233D"/>
<path d="M109.779 22.978L85.3095 0.133C85.2935 0.118 85.2735 0.113 85.2565 0.101C85.2215 0.0759998 85.1885 0.0499998 85.1495 0.0349998C85.1295 0.0269998 85.1085 0.0259999 85.0885 0.0209999C85.0465 0.00999991 85.0055 0 84.9625 0C84.9415 0 84.9205 0.00700023 84.8995 0.0100002C84.8575 0.0160002 84.8175 0.0220001 84.7785 0.0380001C84.7545 0.0480001 84.7345 0.0650005 84.7125 0.0790005C84.6845 0.0970005 84.6535 0.108 84.6285 0.131L68.6785 15.023C68.6765 15.025 68.6735 15.027 68.6715 15.03L60.1585 22.978C59.9565 23.166 59.9465 23.482 60.1345 23.685C60.2325 23.79 60.3655 23.844 60.4995 23.844C60.6225 23.844 60.7445 23.8 60.8405 23.709L68.5265 16.533V47.755C68.5265 48.031 68.7505 48.255 69.0265 48.255H100.909C101.185 48.255 101.409 48.031 101.409 47.755V16.531L109.097 23.708C109.193 23.798 109.316 23.843 109.438 23.843C109.572 23.843 109.705 23.79 109.803 23.684C109.991 23.482 109.981 23.166 109.779 22.978ZM100.409 47.254H92.7805V35.21L96.0685 33.064C96.4665 33.487 97.0295 33.755 97.6555 33.755C98.8615 33.755 99.8435 32.774 99.8435 31.567C99.8435 30.36 98.8625 29.379 97.6555 29.379C96.4485 29.379 95.4685 30.361 95.4685 31.567C95.4685 31.786 95.5105 31.994 95.5715 32.193L92.0085 34.519C91.9935 34.529 91.9865 34.543 91.9725 34.554C91.9465 34.575 91.9225 34.599 91.9015 34.625C91.8805 34.649 91.8635 34.675 91.8485 34.703C91.8325 34.73 91.8225 34.759 91.8125 34.789C91.8015 34.821 91.7955 34.854 91.7915 34.889C91.7895 34.906 91.7815 34.92 91.7815 34.938V47.253H89.2815V22.381L93.5035 19.376C93.8985 19.763 94.4375 20.003 95.0315 20.003C96.2375 20.003 97.2195 19.022 97.2195 17.815C97.2195 16.608 96.2385 15.627 95.0315 15.627C93.8245 15.627 92.8435 16.608 92.8435 17.815C92.8435 18.065 92.8945 18.301 92.9725 18.525L88.4915 21.715C88.4795 21.723 88.4745 21.736 88.4645 21.744C88.4385 21.766 88.4155 21.792 88.3935 21.82C88.3745 21.844 88.3575 21.868 88.3435 21.895C88.3285 21.923 88.3195 21.953 88.3105 21.984C88.3005 22.017 88.2925 22.048 88.2895 22.082C88.2885 22.096 88.2815 22.108 88.2815 22.123V47.254H83.3025V27.625C83.3025 27.607 83.2945 27.592 83.2925 27.575C83.2895 27.541 83.2835 27.509 83.2725 27.475C83.2625 27.444 83.2505 27.415 83.2355 27.388C83.2205 27.361 83.2045 27.336 83.1845 27.312C83.1625 27.285 83.1375 27.261 83.1095 27.239C83.0965 27.228 83.0885 27.215 83.0745 27.205L76.8375 23.186C77.0155 22.87 77.1255 22.51 77.1255 22.123C77.1255 20.917 76.1445 19.935 74.9375 19.935C73.7305 19.935 72.7495 20.916 72.7495 22.123C72.7495 23.33 73.7305 24.311 74.9375 24.311C75.3885 24.311 75.8085 24.173 76.1565 23.938L82.3025 27.897V47.253H78.5945V39.499C78.5945 39.49 78.5895 39.482 78.5895 39.473C78.5885 39.438 78.5785 39.406 78.5685 39.371C78.5605 39.342 78.5555 39.312 78.5425 39.285C78.5295 39.257 78.5095 39.234 78.4915 39.209C78.4705 39.181 78.4515 39.153 78.4265 39.13C78.4195 39.124 78.4165 39.115 78.4085 39.109L74.7515 36.16C74.8615 35.898 74.9225 35.612 74.9225 35.311C74.9225 34.105 73.9415 33.123 72.7345 33.123C71.5275 33.123 70.5465 34.104 70.5465 35.311C70.5465 36.518 71.5275 37.499 72.7345 37.499C73.2775 37.499 73.7695 37.293 74.1525 36.963L77.5935 39.738V47.253H69.5275V15.598L84.9675 1.181L100.409 15.598V47.254ZM96.4685 31.567C96.4685 30.912 97.0005 30.379 97.6565 30.379C98.3125 30.379 98.8445 30.911 98.8445 31.567C98.8445 32.223 98.3125 32.755 97.6565 32.755C97.0005 32.755 96.4685 32.223 96.4685 31.567ZM93.8435 17.815C93.8435 17.16 94.3755 16.627 95.0315 16.627C95.6875 16.627 96.2195 17.16 96.2195 17.815C96.2195 18.47 95.6875 19.003 95.0315 19.003C94.3755 19.003 93.8435 18.47 93.8435 17.815ZM74.9365 23.311C74.2815 23.311 73.7485 22.778 73.7485 22.123C73.7485 21.468 74.2815 20.935 74.9365 20.935C75.5915 20.935 76.1245 21.468 76.1245 22.123C76.1245 22.778 75.5915 23.311 74.9365 23.311ZM72.7345 36.5C72.0795 36.5 71.5465 35.968 71.5465 35.312C71.5465 34.656 72.0795 34.124 72.7345 34.124C73.3895 34.124 73.9225 34.656 73.9225 35.312C73.9225 35.968 73.3885 36.5 72.7345 36.5Z" fill="#12233D"/>
<circle cx="86" cy="27" r="2" stroke="#D62C2C" stroke-width="2"/>
</svg>
