<svg xmlns="http://www.w3.org/2000/svg" viewBox="-3683 -7895 50 54.212"><defs><style>.cls-1{fill:#47848f}</style></defs><g id="electron" transform="translate(-3683.2 -7895)"><path id="Path_2080" data-name="Path 2080" class="cls-1" d="M20.883 31.358c-7.083-1.307-12.672.072-14.924 3.921C4.289 38.148 4.761 42 7.121 46.064a.716.716 0 0 0 1.235-.726c-2.106-3.668-2.505-6.972-1.162-9.332 1.852-3.2 6.863-4.43 13.4-3.232a.709.709 0 0 0 .835-.581.685.685 0 0 0-.546-.835zm-10.058 19.68a44.647 44.647 0 0 0 10.821 8.533c10.276 5.919 21.206 7.516 26.616 3.849a.73.73 0 0 0-.835-1.2C42.6 65.526 32.212 64 22.372 58.337a43.554 43.554 0 0 1-10.494-8.279.719.719 0 0 0-1.053.98z" transform="translate(-3.036 -19.666)"/><path id="Path_2081" data-name="Path 2081" class="cls-1" d="M46.58 50.245c4.648-5.483 6.245-11 4.03-14.851-1.634-2.832-5.12-4.321-9.695-4.394a.726.726 0 0 0 0 1.452c4.139.036 7.117 1.344 8.46 3.667 1.852 3.2.4 8.134-3.885 13.181a.721.721 0 1 0 1.089.944zM34.67 31.654a45.855 45.855 0 0 0-12.927 5.12C11.1 42.91 4.2 51.951 5.149 58.487a.734.734 0 1 0 1.451-.218c-.871-5.81 5.7-14.343 15.868-20.225A44.6 44.6 0 0 1 35 33.07a.7.7 0 0 0 .545-.871.771.771 0 0 0-.875-.545z" transform="translate(-3.097 -19.744)"/><path id="Path_2082" data-name="Path 2082" class="cls-1" d="M14.4 49.235c2.433 6.754 6.391 10.93 10.857 10.93 3.268 0 6.245-2.215 8.606-6.137a.716.716 0 1 0-1.235-.726c-2.106 3.522-4.684 5.41-7.371 5.41-3.7 0-7.226-3.7-9.477-9.985a.741.741 0 0 0-.944-.436.725.725 0 0 0-.436.944zm22.15-1.307a45.054 45.054 0 0 0 1.924-13.471c0-12.019-4.212-22.4-10.2-25.054a.715.715 0 1 0-.581 1.307c5.338 2.36 9.332 12.2 9.332 23.747a44.683 44.683 0 0 1-1.852 13.036.734.734 0 0 0 .472.908.769.769 0 0 0 .908-.472zM50.2 47.2a3.486 3.486 0 1 0-3.486 3.486A3.487 3.487 0 0 0 50.2 47.2zm-1.452 0a2.033 2.033 0 1 1-2.033-2.033 2.03 2.03 0 0 1 2.033 2.033zM3.686 50.688A3.486 3.486 0 1 0 .2 47.2a3.487 3.487 0 0 0 3.486 3.486zm0-1.452A2.033 2.033 0 1 1 5.719 47.2a2.03 2.03 0 0 1-2.033 2.035z" transform="translate(0 -5.953)"/><path id="Path_2083" data-name="Path 2083" class="cls-1" d="M63.086 6.972A3.486 3.486 0 1 0 59.6 3.486a3.487 3.487 0 0 0 3.486 3.486zm0-1.452a2.033 2.033 0 1 1 2.033-2.033 2.054 2.054 0 0 1-2.033 2.032zm.508 25.454A2.507 2.507 0 1 1 65.519 28a2.492 2.492 0 0 1-1.925 2.973z" transform="translate(-37.831)"/></g></svg>