<svg xmlns="http://www.w3.org/2000/svg" viewBox="-3319 -17217 50 49.025"><defs><style>.cls-1{fill:url(#linear-gradient)}</style><linearGradient id="linear-gradient" x2="1" y2="1" gradientUnits="objectBoundingBox"><stop offset="0" stop-color="#3f70cc"/><stop offset="1" stop-color="#3143ce"/></linearGradient></defs><path id="Path_6716" data-name="Path 6716" class="cls-1" d="M.439.438l42.82 45.357a2 2 0 0 0 2.574-.172 1.9 1.9 0 0 0 .257-2.4L.439.438zM14 4.725l32.606 35.154a2 2 0 0 0 2.574-.171 1.9 1.9 0 0 0 .257-2.4zM4.472 13.9L37.08 49.053a2 2 0 0 0 2.574-.172 1.9 1.9 0 0 0 .257-2.4zm20.987-5.488l22.781 24.56a1.4 1.4 0 0 0 1.8-.12 1.328 1.328 0 0 0 .18-1.677L25.459 8.412zM7.61 24.531l22.781 24.56a1.4 1.4 0 0 0 1.8-.12 1.327 1.327 0 0 0 .18-1.677zm29.556-10.8l10.326 11.162a.72.72 0 0 0 .89-.056.6.6 0 0 0 .089-.786zM13.311 35.849l10.325 11.165a.72.72 0 0 0 .89-.056.6.6 0 0 0 .089-.786z" transform="translate(-3319.439 -17217.438)"/></svg>