<svg width="44" height="45" viewBox="0 0 44 45" fill="none" xmlns="http://www.w3.org/2000/svg">
<path d="M7.76097 44.9509C8.12166 44.9509 8.48539 44.8366 8.79297 44.6019L14.5965 40.1572C15.0275 40.2199 12.3225 40.2083 12.7677 40.2083L28.8088 40.2265C29.167 40.2265 29.5373 40.2265 29.9167 40.1865C30.2005 40.1567 31.0069 39.4408 31.2102 39.2375L42.9468 27.501C43.6616 26.7861 44.044 25.7936 43.996 24.7778C43.9479 23.7645 43.4729 22.8124 42.6913 22.1659C41.2748 20.9938 39.098 21.143 37.7356 22.5064L32.4997 27.7428C32.0085 27.4539 31.4556 27.2971 30.8925 27.2971C30.8915 27.2971 30.891 27.2971 30.89 27.2971C30.7848 27.2925 28.3125 27.1994 27.7136 27.1939C27.2977 27.1974 26.8702 27.206 26.4347 27.2146C24.2715 27.2581 22.036 27.3021 20.0226 26.7775C19.5612 26.6566 19.1186 26.5281 18.6876 26.4027C16.5229 25.7739 14.4781 25.18 11.8591 26.0855C9.5695 26.8716 7.3937 28.3999 5.01351 30.8944L0.553124 34.941C-0.123749 35.5516 -0.187997 36.6099 0.407935 37.2984L6.47804 44.3651C6.81092 44.7511 7.28392 44.9514 7.76097 44.9509ZM1.58665 36.0828L6.0698 32.016C6.08345 32.0033 6.09711 31.9902 6.10976 31.977C8.32048 29.6565 10.3066 28.2471 12.3615 27.5419C14.5191 26.7968 16.1693 27.2748 18.2581 27.8819C18.7017 28.0109 19.1575 28.1429 19.6336 28.2679C21.8544 28.8461 24.3044 28.7975 26.466 28.755C26.8955 28.7464 27.3169 28.7378 27.7277 28.7348C28.1689 28.7292 29.9496 28.7996 30.8581 28.8375C31.318 28.8375 31.7515 29.0181 32.0798 29.3464C32.4082 29.6742 32.5888 30.1083 32.5888 30.5681C32.5888 31.5253 31.8122 32.3038 30.8581 32.3038C30.8581 32.3038 19.5268 32.3038 19.4332 32.3038C19.0184 32.3038 18.5156 32.7713 18.5763 33.223C18.6577 33.8291 19.5117 33.8872 19.9841 33.8448H30.8586C32.6626 33.8448 34.1297 32.3752 34.1297 30.5686C34.1297 29.9363 33.9481 29.3318 33.6127 28.8107L38.8263 23.597C39.6327 22.7902 40.8999 22.6834 41.7109 23.3542C42.1652 23.7301 42.4308 24.2618 42.4586 24.8511C42.4864 25.4344 42.2673 26.0035 41.8586 26.4123L30.1221 38.1488C29.7675 38.5034 28.8179 38.6866 28.8098 38.6866H28.5715C28.5715 38.6866 14.1144 38.5874 13.9323 38.727L7.8586 43.3786C7.79233 43.4292 7.69874 43.4211 7.64714 43.3604L1.5745 36.2922C1.52038 36.2295 1.52493 36.1384 1.58665 36.0828Z" fill="url(#paint0_linear)"/>
<path d="M27.5448 7.64746C24.816 7.64746 22.5957 9.86779 22.5957 12.5965C22.5957 15.3253 24.816 17.5456 27.5448 17.5456C30.2735 17.5456 32.4938 15.3253 32.4938 12.5965C32.4938 9.86779 30.274 7.64746 27.5448 7.64746ZM27.5448 15.9516C25.6917 15.9516 24.1897 14.4496 24.1897 12.5965C24.1897 10.7435 25.6917 9.2415 27.5448 9.2415C29.3978 9.2415 30.8998 10.7435 30.8998 12.5965C30.8998 14.4496 29.3978 15.9516 27.5448 15.9516Z" fill="url(#paint1_linear)"/>
<path d="M38.7912 6.88458L38.1143 5.71194C37.6044 4.82917 36.6543 4.28079 35.6345 4.28079C35.1337 4.28079 34.6394 4.41334 34.2048 4.66426L33.7819 4.90809C32.968 4.24741 32.0604 3.7228 31.083 3.34946V2.86229C31.083 1.28393 29.7991 0 28.2207 0H26.8665C25.2881 0 24.0042 1.28393 24.0042 2.86229V3.34946C23.0253 3.72382 22.1167 4.24892 21.3018 4.91113L20.8829 4.66426C20.4483 4.41334 19.9541 4.28079 19.4533 4.28079C18.4329 4.28079 17.4828 4.82917 16.9729 5.71245L16.296 6.88509C15.5069 8.25199 15.9768 10.0059 17.3437 10.7951L17.7611 11.0359C17.6776 11.5519 17.6356 12.077 17.6356 12.597C17.6356 13.1171 17.6776 13.6422 17.7611 14.1582L17.3437 14.399C15.9773 15.1882 15.5074 16.9421 16.296 18.3085L16.9729 19.4811C17.4828 20.3639 18.4329 20.9123 19.4527 20.9123C19.9536 20.9123 20.4478 20.7797 20.8824 20.5288L21.3053 20.285C22.1193 20.9456 23.0268 21.4697 24.0042 21.8436V22.3308C24.0042 23.9091 25.2881 25.193 26.8665 25.193H28.2207C29.7991 25.193 31.083 23.9091 31.083 22.3308V21.8436C32.0619 21.4692 32.9705 20.9441 33.7855 20.2819L34.2043 20.5288C34.6389 20.7797 35.1337 20.9123 35.634 20.9123C36.6538 20.9123 37.6044 20.3639 38.1143 19.4806L38.7912 18.308C39.5804 16.9411 39.1104 15.1872 37.7435 14.3985L37.3262 14.1577C37.4096 13.6417 37.4516 13.1166 37.4516 12.5965C37.4516 12.0765 37.4096 11.5514 37.3262 11.0354L37.7435 10.7946C39.1104 10.0054 39.5804 8.25148 38.7912 6.88458ZM36.9467 9.41401L36.5046 9.66948C35.9481 9.99071 35.6416 10.6185 35.7468 11.2524C35.8196 11.69 35.8581 12.1387 35.8581 12.597C35.8581 13.0554 35.8196 13.5041 35.7468 13.9417C35.6416 14.5755 35.9481 15.2033 36.5046 15.5246L36.9467 15.7801C37.5533 16.1301 37.7612 16.9056 37.4111 17.5122L36.7343 18.6848C36.4995 19.0916 36.0731 19.3192 35.6345 19.3192C35.4195 19.3192 35.2014 19.2646 35.0016 19.1492L34.5544 18.8912C34.3116 18.7511 34.0414 18.6813 33.7728 18.6813C33.4278 18.6813 33.0853 18.7966 32.8061 19.0253C32.1135 19.5929 31.3279 20.0497 30.475 20.371C29.8765 20.5966 29.489 21.1773 29.489 21.8168V22.3318C29.489 23.0319 28.9214 23.6 28.2207 23.6H26.8665C26.1663 23.6 25.5982 23.0324 25.5982 22.3318V21.8158C25.5982 21.1763 25.2107 20.5951 24.6123 20.3699C23.7593 20.0487 22.9737 19.5919 22.2812 19.0243C22.0019 18.7956 21.6594 18.6803 21.3144 18.6803C21.0458 18.6803 20.7756 18.7501 20.5328 18.8902L20.0856 19.1482C19.8858 19.2636 19.6678 19.3182 19.4527 19.3182C19.0147 19.3182 18.5882 19.0906 18.3535 18.6838L17.6766 17.5112C17.3265 16.9046 17.5344 16.1291 18.141 15.779L18.5831 15.5236C19.1396 15.2023 19.4462 14.5745 19.3409 13.9407C19.2681 13.5031 19.2297 13.0543 19.2297 12.596C19.2297 12.1377 19.2681 11.689 19.3409 11.2514C19.4462 10.6175 19.1396 9.9897 18.5831 9.66846L18.141 9.41299C17.5344 9.06292 17.3265 8.2874 17.6766 7.68084L18.3535 6.5082C18.5882 6.10147 19.0147 5.87382 19.4533 5.87382C19.6683 5.87382 19.8863 5.92846 20.0861 6.0438L20.5333 6.3018C20.7761 6.44193 21.0463 6.51175 21.3149 6.51175C21.6599 6.51175 22.0029 6.3964 22.2817 6.16774C22.9742 5.60065 23.7599 5.14333 24.6128 4.82209C25.2112 4.59647 25.5987 4.01571 25.5987 3.37627V2.86128C25.5987 2.16114 26.1663 1.59303 26.867 1.59303H28.2212C28.9214 1.59303 29.4895 2.16063 29.4895 2.86128V3.37627C29.4895 4.01571 29.877 4.59697 30.4755 4.82209C31.3284 5.14333 32.114 5.60014 32.8066 6.16774C33.0858 6.3964 33.4283 6.51175 33.7733 6.51175C34.042 6.51175 34.3121 6.44193 34.5549 6.3018L35.0021 6.0438C35.2019 5.92846 35.42 5.87382 35.635 5.87382C36.0731 5.87382 36.4995 6.10147 36.7343 6.5082L37.4111 7.68084C37.7607 8.28841 37.5533 9.06393 36.9467 9.41401Z" fill="url(#paint2_linear)"/>
<defs>
<linearGradient id="paint0_linear" x1="0" y1="21.3765" x2="19.6273" y2="58.0094" gradientUnits="userSpaceOnUse">
<stop stop-color="#DE3535"/>
<stop offset="1" stop-color="#E46D2E"/>
</linearGradient>
<linearGradient id="paint1_linear" x1="22.5957" y1="7.64746" x2="32.4938" y2="17.5456" gradientUnits="userSpaceOnUse">
<stop stop-color="#DE3535"/>
<stop offset="1" stop-color="#E46D2E"/>
</linearGradient>
<linearGradient id="paint2_linear" x1="15.9131" y1="0" x2="41.0262" y2="23.1872" gradientUnits="userSpaceOnUse">
<stop stop-color="#DE3535"/>
<stop offset="1" stop-color="#E46D2E"/>
</linearGradient>
</defs>
</svg>
