<svg width="46" height="50" viewBox="0 0 46 50" fill="none" xmlns="http://www.w3.org/2000/svg">
<path d="M38.2052 10.2866C38.0036 6.68058 34.9239 3.91443 31.3066 4.11601C30.6795 4.14961 30.0635 4.2728 29.4812 4.48558C25.1024 -0.789135 17.2743 -1.51707 11.9996 2.86173C9.25585 5.14632 7.6208 8.49481 7.52001 12.0673C3.2084 13.1984 0.162285 17.0172 0.005499 21.4632C-0.0840928 24.1734 0.923814 26.8051 2.82764 28.7425C4.67547 30.6464 7.19524 31.7663 9.84939 31.8671C9.51342 32.4158 9.32304 33.043 9.32304 33.6925V37.5337C8.90868 37.6793 8.52791 37.9145 8.22554 38.2169C7.10564 39.3368 7.10564 41.151 8.22554 42.2709C9.34544 43.3908 11.1597 43.3908 12.2796 42.2709C13.3995 41.151 13.3995 39.3368 12.2796 38.2169C11.8428 37.7801 11.2829 37.5001 10.6669 37.4105V33.6813C10.6669 32.7854 11.2269 31.9902 12.0668 31.6767L15.9864 30.2208C17.3527 29.7057 18.2598 28.4066 18.2598 26.9507V23.2886C18.2598 22.9191 17.9574 22.6167 17.5879 22.6167C17.2183 22.6167 16.9159 22.9191 16.9159 23.2886V26.9507C16.9159 27.8466 16.356 28.6418 15.5161 28.9553L11.5964 30.4112C11.5068 30.4448 11.4284 30.4784 11.3389 30.5232H10.2078C7.78878 30.5344 5.4706 29.5489 3.79075 27.8018C2.1557 26.122 1.27098 23.8486 1.34938 21.508C1.48376 17.4764 4.3731 14.0607 8.32633 13.2544C8.6511 13.1872 8.87508 12.896 8.86388 12.5712C8.86388 12.5152 8.86388 12.4592 8.86388 12.4032C8.86388 6.28861 13.8138 1.33867 19.9285 1.33867C23.3777 1.33867 26.6366 2.95132 28.7309 5.69507C28.9212 5.94144 29.2572 6.03104 29.5372 5.89665C32.1577 4.72076 35.2375 5.89665 36.4133 8.51721C36.7157 9.18915 36.8725 9.90588 36.8725 10.645C36.8725 10.6674 36.8725 10.701 36.8725 10.7234C36.8613 11.0146 37.0405 11.2722 37.3093 11.3729C41.1729 12.8512 43.7151 16.5693 43.6927 20.7017C43.6591 25.5172 40.0082 29.6497 35.1927 30.4L31.3066 28.9553C30.4667 28.6418 29.9067 27.8466 29.9067 26.9507V23.2886C29.9067 22.9191 29.6044 22.6167 29.2348 22.6167C28.8652 22.6167 28.5629 22.9191 28.5629 23.2886V26.9507C28.5629 28.4066 29.47 29.7057 30.8363 30.2208L34.7559 31.6767C35.5958 31.9902 36.1558 32.7854 36.1558 33.6813V37.4105C34.5879 37.6457 33.5128 39.1016 33.748 40.6694C33.9832 42.2373 35.439 43.3124 37.0069 43.0772C38.5747 42.842 39.6498 41.3862 39.4147 39.8183C39.3251 39.2136 39.0451 38.6424 38.6083 38.2169C38.2948 37.9033 37.9252 37.6681 37.5108 37.5337V33.6813C37.5108 32.8638 37.2197 32.0798 36.7045 31.4527C38.8099 30.8704 40.7025 29.7057 42.1584 28.0818C43.9838 26.066 45.0142 23.4342 45.0366 20.7129C45.0478 16.1885 42.36 12.0785 38.2052 10.2866ZM10.4093 38.732C11.2493 38.8216 11.854 39.5607 11.7644 40.4007C11.7308 40.7478 11.574 41.0726 11.3277 41.319C10.7341 41.9125 9.771 41.9125 9.17745 41.319C8.58391 40.7254 8.58391 39.7623 9.17745 39.1688C9.33424 39.012 9.52462 38.8888 9.7374 38.8104C9.95018 38.9112 10.2078 38.8776 10.4093 38.732ZM37.0965 38.8104C37.8804 39.0904 38.2948 39.9639 38.0148 40.759C37.9364 40.9718 37.8132 41.1622 37.6564 41.319C37.0629 41.9125 36.0998 41.9125 35.5062 41.319C34.9127 40.7254 34.9127 39.7623 35.5062 39.1688C35.7526 38.9224 36.0774 38.7656 36.4245 38.732C36.6149 38.8776 36.8725 38.9112 37.0965 38.8104Z" fill="url(#paint0_linear)"/>
<path d="M24.084 33.8045V10.9698C24.084 10.6002 23.7816 10.2979 23.412 10.2979C23.0425 10.2979 22.7401 10.6002 22.7401 10.9698V33.8045C21.2059 34.1741 20.2539 35.7307 20.6347 37.265C20.9483 38.5528 22.0906 39.46 23.412 39.46C24.9911 39.46 26.279 38.1721 26.279 36.593C26.279 35.2715 25.3719 34.1181 24.084 33.8045ZM24.4872 37.6681C23.8936 38.2617 22.9305 38.2617 22.3369 37.6681C21.7434 37.0746 21.7434 36.1115 22.3369 35.5179C22.6169 35.238 22.9865 35.0812 23.3785 35.07C23.3897 35.07 23.4009 35.07 23.412 35.07C23.4232 35.07 23.4344 35.07 23.4456 35.07C23.8376 35.0812 24.2072 35.238 24.4872 35.5179C25.0807 36.1115 25.0807 37.0746 24.4872 37.6681Z" fill="url(#paint1_linear)"/>
<path d="M31.3742 44.3428V34.6669C31.3742 33.0655 30.0752 31.7664 28.4625 31.7552C27.6002 31.7552 26.9059 31.0497 26.8947 30.1873V16.5694C26.8947 16.1998 26.5923 15.8975 26.2227 15.8975C25.8532 15.8975 25.5508 16.1998 25.5508 16.5694V30.1873C25.5508 31.7888 26.8499 33.0879 28.4625 33.0991C29.3248 33.0991 30.0192 33.8046 30.0304 34.6669V44.3428C28.4961 44.7124 27.5442 46.2579 27.9138 47.8033C28.037 48.3185 28.3057 48.7888 28.6753 49.1584C29.7952 50.2783 31.6094 50.2783 32.7293 49.1584C33.8492 48.0385 33.8492 46.2243 32.7293 45.1044C32.3486 44.7236 31.8894 44.466 31.3742 44.3428ZM30.6575 48.6544C29.8176 48.632 29.1568 47.9377 29.1792 47.0978C29.1904 46.7058 29.3472 46.3363 29.6272 46.0675C29.9072 45.7875 30.2767 45.6307 30.6687 45.6195C30.6799 45.6195 30.6911 45.6195 30.7023 45.6195C30.7135 45.6195 30.7247 45.6195 30.7359 45.6195C31.5758 45.6419 32.2366 46.3363 32.2142 47.1762C32.1918 48.0049 31.4974 48.6768 30.6575 48.6544Z" fill="url(#paint2_linear)"/>
<path d="M18.36 33.0991C19.9614 33.0991 21.2605 31.8 21.2717 30.1873V16.5694C21.2717 16.1998 20.9693 15.8975 20.5997 15.8975C20.2302 15.8975 19.9278 16.1998 19.9278 16.5694V30.1873C19.9278 31.0497 19.2223 31.744 18.36 31.7552C16.7585 31.7552 15.4594 33.0543 15.4482 34.6669V44.3428C13.914 44.7124 12.9621 46.2579 13.3316 47.8033C13.7012 49.3488 15.2466 50.2895 16.7921 49.9199C18.3376 49.5504 19.2783 48.0049 18.9087 46.4594C18.6511 45.4179 17.8448 44.6004 16.7921 44.3428V34.6669C16.7921 33.7934 17.4976 33.0991 18.36 33.0991ZM17.1953 46.0563C17.7888 46.6498 17.8 47.6129 17.1953 48.2177C16.6017 48.8112 15.6386 48.8224 15.0339 48.2177C14.4403 47.6241 14.4291 46.661 15.0339 46.0563C15.3138 45.7763 15.6834 45.6195 16.0754 45.6083C16.0866 45.6083 16.0978 45.6083 16.109 45.6083C16.1202 45.6083 16.1314 45.6083 16.1426 45.6083C16.5569 45.6195 16.9265 45.7763 17.1953 46.0563Z" fill="url(#paint3_linear)"/>
<defs>
<linearGradient id="paint0_linear" x1="0" y1="0" x2="43.0697" y2="44.9936" gradientUnits="userSpaceOnUse">
<stop stop-color="#DE3535"/>
<stop offset="1" stop-color="#E46D2E"/>
</linearGradient>
<linearGradient id="paint1_linear" x1="20.5508" y1="10.2979" x2="31.5816" y2="12.4646" gradientUnits="userSpaceOnUse">
<stop stop-color="#DE3535"/>
<stop offset="1" stop-color="#E46D2E"/>
</linearGradient>
<linearGradient id="paint2_linear" x1="25.5508" y1="15.8975" x2="40.7475" y2="19.4708" gradientUnits="userSpaceOnUse">
<stop stop-color="#DE3535"/>
<stop offset="1" stop-color="#E46D2E"/>
</linearGradient>
<linearGradient id="paint3_linear" x1="13.252" y1="15.8975" x2="28.4509" y2="19.4717" gradientUnits="userSpaceOnUse">
<stop stop-color="#DE3535"/>
<stop offset="1" stop-color="#E46D2E"/>
</linearGradient>
</defs>
</svg>
