<svg xmlns="http://www.w3.org/2000/svg" viewBox="4979 -7875 50 20.441"><path data-name="Path 2226" d="M5017.856-7868.234a2.528 2.528 0 0 0-1.615-1.449 3.8 3.8 0 0 0-3.339.51c-.1.067-.192.131-.334.232-.292-.772-.916-.757-1.56-.706-.1.009-.192 0-.289 0h-1.906v14.726c0 .12.009.244.016.362h3.971v-3.934a17.068 17.068 0 0 0 1.71.156 3.48 3.48 0 0 0 3.641-2.734c.023-.08.048-.16.067-.244a13.148 13.148 0 0 0 .244-4.48 6.773 6.773 0 0 0-.606-2.439zm-3.484 6.182c-.181.877-.7 1.122-1.581.8v-.739c0-1.43.009-2.861-.006-4.289a.4.4 0 0 1 .306-.447c.125-.04.245-.094.373-.131.544-.158.9.021.969.578a12.506 12.506 0 0 1-.061 4.228zm-12.163-7.278c-.016.985-.006 1.97-.006 2.977-.442-.055-.833-.114-1.227-.151a2.941 2.941 0 0 0-.611.022c-.823.108-.935.238-.935 1.049v6.87h-3.949v-11.056a2 2 0 0 1 .261-.028c.854 0 1.708.006 2.564-.007a.418.418 0 0 1 .446.268c.121.26.275.5.42.765a2.116 2.116 0 0 1 2.706-1.123c.233.067.334.154.331.414zm4.952-3.669a2 2 0 0 1-2 2h-.006a1.875 1.875 0 0 1-.482-.059 1.97 1.97 0 0 1-.905-.506 2 2 0 0 1 1.088-3.413.459.459 0 0 1 .071-.022h.432a.244.244 0 0 1 .029.015 2 2 0 0 1 1.773 1.984zm-3.989 3.369h3.928v11.075h-3.928zm25.563 3.378a3.95 3.95 0 0 0-4.535-3.589c-2.324.1-3.714 1.14-4.283 3.218a9.669 9.669 0 0 0-.011 5.1 3.847 3.847 0 0 0 3.15 3 9.986 9.986 0 0 0 4.465-.138c.851-.214.851-.212.851-1.087v-2.029c-.369.066-.685.125-1 .179a8.831 8.831 0 0 1-2.826.2 1.077 1.077 0 0 1-.946-1.379h5.4c-.084-1.205-.114-2.348-.265-3.476zm-5.218 1.294c.056-.619.1-1.214.173-1.8a.954.954 0 0 1 .231-.477.635.635 0 0 1 1.131.231c.137.66.158 1.345.235 2.051zm-31.007-1.793v4.4a3.138 3.138 0 0 0 .013.361c.059.49.241.657.736.628.431-.026.86-.091 1.329-.144v2.818a9.7 9.7 0 0 1-4.125.2 2.616 2.616 0 0 1-1.924-2.833c-.018-1.795-.005-3.585-.006-5.38v-.414h-1.433v-2.519h1.426c.15-.741.3-1.455.434-2.173a.442.442 0 0 1 .383-.429c1.042-.234 2.077-.5 3.155-.754v3.333h2.109l-.523 2.535h-1.554c-.007.145-.02.257-.02.371zm-5.887 5.154a3.284 3.284 0 0 1-3.334 3.22 10.429 10.429 0 0 1-3.813-.4c-.108-.028-.263-.163-.265-.25-.02-.881-.011-1.76-.011-2.672.636.131 1.236.284 1.844.377a3.86 3.86 0 0 0 1.145.022.829.829 0 0 0 .525-.4.527.527 0 0 0-.235-.69c-.324-.2-.677-.36-1.014-.543a11.511 11.511 0 0 1-1.16-.65 2.9 2.9 0 0 1-1.239-2.075 1.84 1.84 0 0 0-.066-.241v-.65c.059-.29.1-.588.178-.872a3.15 3.15 0 0 1 2.667-2.283 7.978 7.978 0 0 1 4.092.272.353.353 0 0 1 .294.4c-.017.817-.006 1.634-.006 2.44-.685-.126-1.342-.258-2.006-.358a2.087 2.087 0 0 0-.821.011.7.7 0 0 0-.463.4.755.755 0 0 0 .253.606 6.851 6.851 0 0 0 .982.523 10.274 10.274 0 0 1 1.256.7 3.145 3.145 0 0 1 1.197 3.113z"/></svg>