<svg width="16" height="16" viewBox="0 0 16 16" fill="none" xmlns="http://www.w3.org/2000/svg">
<path d="M15.9953 9.37088V15.2844H12.567V9.76694C12.567 8.38089 12.0711 7.43497 10.8302 7.43497C9.88289 7.43497 9.31915 8.07245 9.07114 8.68911C8.9807 8.90956 8.95742 9.2164 8.95742 9.52499V15.2844H5.52796C5.52796 15.2844 5.57415 5.9396 5.52796 4.9714H8.95709V6.43323C8.95013 6.44417 8.9411 6.45596 8.93455 6.46655H8.95709V6.43323C9.41268 5.73153 10.2263 4.72912 12.0475 4.72912C14.3038 4.72908 15.9953 6.20311 15.9953 9.37088ZM1.94059 0C0.767379 0 0 0.769537 0 1.7815C0 2.77142 0.745178 3.56431 1.89508 3.56431H1.91798C3.11392 3.56431 3.85769 2.77157 3.85769 1.7815C3.83515 0.769537 3.11392 0 1.94059 0ZM0.20368 15.2844H3.63184V4.9714H0.20368V15.2844Z" fill="white"/>
</svg>
