<svg xmlns="http://www.w3.org/2000/svg" viewBox="-4069 -17357.998 35 59.998"><defs><style>.cls-1{fill:url(#linear-gradient)}</style><linearGradient id="linear-gradient" x2="1" y2="1" gradientUnits="objectBoundingBox"><stop offset="0" stop-color="#de3535"/><stop offset="1" stop-color="#e46d2e"/></linearGradient></defs><path id="Mobile_icon" data-name="Mobile icon" class="cls-1" d="M-307-1607a4.012 4.012 0 0 1-4-4v-36a.945.945 0 0 1-1-1v-1a.945.945 0 0 1 1-1v-1a.946.946 0 0 1-1-1v-1a.945.945 0 0 1 1-1v-1a.945.945 0 0 1-1-1v-1a.945.945 0 0 1 1-1v-5a4.012 4.012 0 0 1 4-4h26a4.012 4.012 0 0 1 4 4v52a4.012 4.012 0 0 1-4 4zm17-5a4 4 0 0 1-1.363 3H-281a2.006 2.006 0 0 0 2-2v-4h-12.362a3.994 3.994 0 0 1 1.362 3zm-19 1a2.006 2.006 0 0 0 2 2h10.363a4 4 0 0 1-1.363-3 3.994 3.994 0 0 1 1.363-3H-309zm13-1a2.006 2.006 0 0 0 2 2 2.006 2.006 0 0 0 2-2 2.006 2.006 0 0 0-2-2 2.006 2.006 0 0 0-2 2zm-13-5h30v-42h-30zm0-46v2h30v-2a2.006 2.006 0 0 0-2-2h-26a2.006 2.006 0 0 0-2 2zm19.3 32.7a.968.968 0 0 1 0-1.4l5.3-5.3-5.3-5.3a.967.967 0 0 1 0-1.4.966.966 0 0 1 1.4 0l6 6a.965.965 0 0 1 0 1.4l-6 6a.909.909 0 0 1-.7.3.909.909 0 0 1-.7-.3zm-5.5.3a1.038 1.038 0 0 1-.8-1.2l2-12a1.037 1.037 0 0 1 1.2-.8 1.037 1.037 0 0 1 .8 1.2l-2 12a.973.973 0 0 1-1 .8zm-4.5-.3l-6-6a1.378 1.378 0 0 1-.3-.4 1.017 1.017 0 0 1 .3-1l6-6a.966.966 0 0 1 1.4 0 .967.967 0 0 1 0 1.4l-5.3 5.3 5.3 5.3a.968.968 0 0 1 0 1.4.91.91 0 0 1-.7.3.907.907 0 0 1-.7-.3zm4.7-31.7a.945.945 0 0 1-1-1 .945.945 0 0 1 1-1h5a.945.945 0 0 1 1 1 .945.945 0 0 1-1 1zm-4 0a.944.944 0 0 1-1-1 .945.945 0 0 1 1-1h1a.945.945 0 0 1 1 1 .945.945 0 0 1-1 1z" transform="translate(-3757 -15691)"/></svg>