<svg width="36" height="34" viewBox="0 0 36 34" fill="none" xmlns="http://www.w3.org/2000/svg">
<path d="M31.5347 30.795C31.3297 30.795 31.1331 30.7136 30.9881 30.5686C30.8432 30.4236 30.7617 30.227 30.7617 30.022V25.6097C30.7617 25.4047 30.8432 25.2081 30.9881 25.0632C31.1331 24.9182 31.3297 24.8368 31.5347 24.8368C31.7397 24.8368 31.9363 24.9182 32.0812 25.0632C32.2262 25.2081 32.3076 25.4047 32.3076 25.6097V30.022C32.3076 30.227 32.2262 30.4236 32.0812 30.5686C31.9363 30.7136 31.7397 30.795 31.5347 30.795Z" fill="#D62C2C"/>
<path d="M35.005 30.795H24.9183C24.7133 30.795 24.5167 30.7136 24.3717 30.5686C24.2267 30.4236 24.1453 30.227 24.1453 30.022C24.1453 29.817 24.2267 29.6204 24.3717 29.4755C24.5167 29.3305 24.7133 29.2491 24.9183 29.2491H34.232V23.3771C34.2312 22.6463 33.9405 21.9457 33.4238 21.4289C32.9071 20.9121 32.2065 20.6214 31.4757 20.6205H24.888C24.2331 20.6177 23.5989 20.8493 23.1 21.2733C22.601 21.6973 22.2701 22.2859 22.1672 22.9325C22.1509 23.0327 22.1151 23.1288 22.0618 23.2151C22.0084 23.3015 21.9386 23.3765 21.8562 23.4359C21.7739 23.4952 21.6807 23.5378 21.5819 23.5612C21.4831 23.5845 21.3806 23.5882 21.2804 23.5719C21.1802 23.5557 21.0842 23.5199 20.9978 23.4665C20.9115 23.4132 20.8365 23.3433 20.7771 23.261C20.7177 23.1786 20.6752 23.0854 20.6518 22.9866C20.6285 22.8878 20.6248 22.7854 20.6411 22.6852C20.8016 21.6755 21.3179 20.7566 22.0967 20.0943C22.8756 19.4321 23.8656 19.0703 24.888 19.0743H31.4757C32.6164 19.0756 33.71 19.5294 34.5166 20.336C35.3231 21.1427 35.7768 22.2364 35.7779 23.3771V30.022C35.7779 30.227 35.6965 30.4236 35.5515 30.5686C35.4066 30.7136 35.21 30.795 35.005 30.795Z" fill="#D62C2C"/>
<path d="M28.1821 18.178C27.1914 18.178 26.223 17.8842 25.3994 17.3338C24.5757 16.7835 23.9337 16.0012 23.5546 15.086C23.1755 14.1708 23.0763 13.1637 23.2696 12.1921C23.4628 11.2205 23.9399 10.328 24.6404 9.62754C25.3408 8.92706 26.2333 8.45002 27.2049 8.25676C28.1765 8.0635 29.1836 8.16269 30.0988 8.54179C31.014 8.92089 31.7963 9.56286 32.3467 10.3865C32.897 11.2102 33.1908 12.1786 33.1908 13.1692C33.1895 14.4972 32.6613 15.7705 31.7223 16.7095C30.7833 17.6485 29.5101 18.1767 28.1821 18.178ZM28.1821 9.70642C27.4972 9.70642 26.8277 9.90951 26.2582 10.29C25.6888 10.6705 25.2449 11.2113 24.9828 11.8441C24.7207 12.4768 24.6522 13.1731 24.7858 13.8448C24.9194 14.5165 25.2492 15.1335 25.7335 15.6178C26.2178 16.1021 26.8348 16.4319 27.5065 16.5655C28.1782 16.6991 28.8745 16.6306 29.5072 16.3685C30.14 16.1064 30.6808 15.6625 31.0613 15.0931C31.4418 14.5236 31.6449 13.8541 31.6449 13.1692C31.6437 12.2513 31.2784 11.3714 30.6292 10.7225C29.98 10.0735 29.1 9.70856 28.1821 9.70766V9.70642Z" fill="#D62C2C"/>
<path d="M17.9619 9.70766C17.7569 9.70766 17.5603 9.62622 17.4154 9.48127C17.2704 9.33631 17.189 9.13971 17.189 8.93471V2.53962C17.189 2.33463 17.2704 2.13802 17.4154 1.99307C17.5603 1.84811 17.7569 1.76667 17.9619 1.76667C18.1669 1.76667 18.3635 1.84811 18.5085 1.99307C18.6534 2.13802 18.7349 2.33463 18.7349 2.53962V8.93471C18.7349 9.13971 18.6534 9.33631 18.5085 9.48127C18.3635 9.62622 18.1669 9.70766 17.9619 9.70766Z" fill="#D62C2C"/>
<path d="M21.383 5.001C21.2815 5.00112 21.181 4.98118 21.0873 4.94234C20.9935 4.9035 20.9083 4.84653 20.8367 4.77469L18.0064 1.94445L15.1759 4.77469C15.0301 4.91548 14.8349 4.99339 14.6322 4.99163C14.4295 4.98987 14.2357 4.90858 14.0924 4.76527C13.949 4.62196 13.8678 4.42809 13.866 4.22543C13.8642 4.02276 13.9421 3.82751 14.0829 3.68173L17.4598 0.304865C17.6048 0.159959 17.8013 0.0785561 18.0063 0.0785561C18.2112 0.0785561 18.4078 0.159959 18.5528 0.304865L21.9296 3.68173C22.0377 3.78985 22.1112 3.92756 22.141 4.07746C22.1707 4.22737 22.1554 4.38273 22.0969 4.52393C22.0384 4.66512 21.9394 4.7858 21.8123 4.87072C21.6852 4.95563 21.5358 5.00097 21.383 5.001Z" fill="#D62C2C"/>
<path d="M21.3588 33.8386H14.6533C14.4483 33.8386 14.2517 33.7571 14.1068 33.6122C13.9618 33.4672 13.8804 33.2706 13.8804 33.0656V28.653C13.8804 28.448 13.9618 28.2514 14.1068 28.1064C14.2517 27.9615 14.4483 27.88 14.6533 27.88C14.8583 27.88 15.0549 27.9615 15.1999 28.1064C15.3448 28.2514 15.4263 28.448 15.4263 28.653V32.2927H20.5859V28.653C20.5859 28.448 20.6673 28.2514 20.8123 28.1064C20.9572 27.9615 21.1538 27.88 21.3588 27.88C21.5638 27.88 21.7604 27.9615 21.9054 28.1064C22.0503 28.2514 22.1318 28.448 22.1318 28.653V33.0656C22.1318 33.2706 22.0503 33.4672 21.9054 33.6122C21.7604 33.7571 21.5638 33.8386 21.3588 33.8386Z" fill="#F9F9FB"/>
<path d="M24.8294 33.8386H11.1831C10.9781 33.8386 10.7815 33.7571 10.6366 33.6122C10.4916 33.4672 10.4102 33.2706 10.4102 33.0656V26.4204C10.4115 25.2798 10.8652 24.1863 11.6717 23.3798C12.4783 22.5733 13.5718 22.1197 14.7124 22.1185H21.3001C22.4407 22.1197 23.5342 22.5733 24.3408 23.3798C25.1473 24.1863 25.601 25.2798 25.6023 26.4204V33.0656C25.6023 33.2706 25.5209 33.4672 25.376 33.6122C25.231 33.7571 25.0344 33.8386 24.8294 33.8386ZM11.9561 32.2927H24.0564V26.4204C24.0555 25.6897 23.7648 24.9891 23.2481 24.4725C22.7314 23.9558 22.0308 23.6652 21.3001 23.6644H14.7124C13.9817 23.6652 13.2811 23.9558 12.7644 24.4725C12.2477 24.9891 11.957 25.6897 11.9561 26.4204V32.2927Z" fill="#F9F9FB"/>
<path d="M18.0065 21.2212C17.0159 21.2212 16.0475 20.9275 15.2238 20.3771C14.4001 19.8267 13.7582 19.0445 13.3791 18.1293C13 17.214 12.9008 16.2069 13.094 15.2353C13.2873 14.2638 13.7643 13.3713 14.4648 12.6708C15.1653 11.9703 16.0578 11.4933 17.0294 11.3C18.001 11.1068 19.0081 11.2059 19.9233 11.585C20.8385 11.9641 21.6208 12.6061 22.1711 13.4298C22.7215 14.2535 23.0152 15.2219 23.0152 16.2125C23.0139 17.5405 22.4858 18.8137 21.5468 19.7528C20.6077 20.6918 19.3345 21.2199 18.0065 21.2212ZM18.0065 12.7497C17.3216 12.7497 16.6521 12.9528 16.0827 13.3333C15.5132 13.7138 15.0694 14.2546 14.8073 14.8873C14.5452 15.5201 14.4766 16.2163 14.6102 16.8881C14.7439 17.5598 15.0737 18.1768 15.5579 18.6611C16.0422 19.1454 16.6592 19.4752 17.331 19.6088C18.0027 19.7424 18.6989 19.6738 19.3317 19.4117C19.9644 19.1496 20.5053 18.7058 20.8858 18.1363C21.2663 17.5669 21.4693 16.8974 21.4693 16.2125C21.468 15.2946 21.1027 14.4148 20.4536 13.7659C19.8044 13.117 18.9244 12.7521 18.0065 12.7512V12.7497Z" fill="#F9F9FB"/>
<path d="M4.46582 30.795C4.26082 30.795 4.06422 30.7136 3.91926 30.5686C3.77431 30.4236 3.69287 30.227 3.69287 30.022V25.6097C3.69287 25.4047 3.77431 25.2081 3.91926 25.0632C4.06422 24.9182 4.26082 24.8368 4.46582 24.8368C4.67082 24.8368 4.86742 24.9182 5.01238 25.0632C5.15734 25.2081 5.23877 25.4047 5.23877 25.6097V30.022C5.23877 30.227 5.15734 30.4236 5.01238 30.5686C4.86742 30.7136 4.67082 30.795 4.46582 30.795Z" fill="#F9F9FB"/>
<path d="M11.0935 30.795H0.995363C0.790363 30.795 0.59376 30.7136 0.448803 30.5686C0.303847 30.4236 0.222412 30.227 0.222412 30.022V23.3771C0.22364 22.2365 0.677294 21.1428 1.48385 20.3362C2.2904 19.5296 3.38398 19.0759 4.52466 19.0746H11.1124C12.1386 19.0697 13.1324 19.4338 13.9126 20.1006C14.6928 20.7674 15.2073 21.6923 15.3624 22.7068C15.3801 22.808 15.3776 22.9117 15.3548 23.0119C15.332 23.112 15.2895 23.2067 15.2298 23.2902C15.17 23.3738 15.0942 23.4446 15.0068 23.4985C14.9194 23.5524 14.8221 23.5884 14.7206 23.6043C14.6191 23.6202 14.5155 23.6157 14.4157 23.591C14.316 23.5664 14.2222 23.5221 14.1398 23.4608C14.0573 23.3995 13.988 23.3224 13.9357 23.234C13.8834 23.1456 13.8493 23.0476 13.8353 22.9458C13.7357 22.2961 13.4059 21.7039 12.906 21.277C12.4062 20.8502 11.7696 20.6172 11.1124 20.6205H4.52466C3.79385 20.6214 3.09324 20.9121 2.57651 21.4289C2.05978 21.9457 1.76913 22.6463 1.76831 23.3771V29.2491H11.0935C11.2985 29.2491 11.4951 29.3305 11.6401 29.4755C11.785 29.6204 11.8664 29.817 11.8664 30.022C11.8664 30.227 11.785 30.4236 11.6401 30.5686C11.4951 30.7136 11.2985 30.795 11.0935 30.795Z" fill="#F9F9FB"/>
<path d="M7.81829 18.178C6.82766 18.178 5.85928 17.8842 5.0356 17.3338C4.21192 16.7835 3.56994 16.0012 3.19084 15.086C2.81174 14.1708 2.71255 13.1637 2.90581 12.1921C3.09908 11.2205 3.57611 10.328 4.27659 9.62754C4.97708 8.92706 5.86954 8.45002 6.84114 8.25676C7.81274 8.0635 8.81982 8.16269 9.73505 8.54178C10.6503 8.92088 11.4325 9.56286 11.9829 10.3865C12.5333 11.2102 12.827 12.1786 12.827 13.1692C12.8257 14.4972 12.2976 15.7705 11.3585 16.7095C10.4195 17.6485 9.14629 18.1766 7.81829 18.178ZM7.81829 9.70642C7.13341 9.70642 6.46391 9.90951 5.89445 10.29C5.325 10.6705 4.88116 11.2113 4.61907 11.8441C4.35697 12.4768 4.2884 13.1731 4.42201 13.8448C4.55563 14.5165 4.88543 15.1335 5.36971 15.6178C5.854 16.1021 6.47101 16.4319 7.14273 16.5655C7.81445 16.6991 8.51071 16.6306 9.14346 16.3685C9.7762 16.1064 10.317 15.6625 10.6975 15.0931C11.078 14.5236 11.2811 13.8541 11.2811 13.1692C11.2799 12.2513 10.9146 11.3714 10.2654 10.7224C9.61627 10.0735 8.7362 9.70855 7.81829 9.70765V9.70642Z" fill="#F9F9FB"/>
</svg>
