<svg width="44" height="44" viewBox="0 0 44 44" fill="none" xmlns="http://www.w3.org/2000/svg">
<path d="M22.0005 3.91031C18.4226 3.91031 14.925 4.97128 11.9501 6.95905C8.97523 8.94682 6.65657 11.7721 5.28737 15.0776C3.91817 18.3832 3.55992 22.0205 4.25794 25.5296C4.95595 29.0388 6.67887 32.2621 9.20882 34.7921C11.7388 37.322 14.9621 39.0449 18.4713 39.743C21.9804 40.441 25.6177 40.0827 28.9233 38.7135C32.2288 37.3443 35.0541 35.0257 37.0419 32.0508C39.0296 29.0759 40.0906 25.5783 40.0906 22.0004C40.0851 17.2043 38.1775 12.6062 34.7861 9.21482C31.3947 5.82345 26.7966 3.91578 22.0005 3.91031ZM22.0005 38.6159C18.7142 38.6159 15.5018 37.6414 12.7694 35.8157C10.037 33.9899 7.90738 31.395 6.64979 28.3589C5.39221 25.3228 5.06317 21.982 5.70428 18.7589C6.34539 15.5358 7.92785 12.5752 10.2516 10.2515C12.5753 7.92783 15.5359 6.34536 18.759 5.70425C21.982 5.06314 25.3229 5.39218 28.3589 6.64976C31.395 7.90735 33.99 10.037 35.8157 12.7694C37.6414 15.5018 38.6159 18.7142 38.6159 22.0004C38.6109 26.4056 36.8588 30.6289 33.7439 33.7438C30.6289 36.8587 26.4056 38.6109 22.0005 38.6159Z" fill="#F9F9FB"/>
<path d="M22.0004 8.68059C21.8049 8.68059 21.6173 8.60291 21.4791 8.46463C21.3408 8.32635 21.2631 8.1388 21.2631 7.94325V1.42873C21.2631 1.23317 21.3408 1.04563 21.4791 0.907352C21.6173 0.769074 21.8049 0.691391 22.0004 0.691391C22.196 0.691391 22.3835 0.769074 22.5218 0.907352C22.6601 1.04563 22.7378 1.23317 22.7378 1.42873V7.94325C22.7378 8.1388 22.6601 8.32635 22.5218 8.46463C22.3835 8.60291 22.196 8.68059 22.0004 8.68059Z" fill="#F9F9FB"/>
<path d="M22.0004 43.3095C21.8049 43.3095 21.6173 43.2318 21.4791 43.0935C21.3408 42.9553 21.2631 42.7677 21.2631 42.5722V36.0576C21.2631 35.8621 21.3408 35.6745 21.4791 35.5363C21.6173 35.398 21.8049 35.3203 22.0004 35.3203C22.196 35.3203 22.3835 35.398 22.5218 35.5363C22.6601 35.6745 22.7378 35.8621 22.7378 36.0576V42.5722C22.7378 42.7677 22.6601 42.9553 22.5218 43.0935C22.3835 43.2318 22.196 43.3095 22.0004 43.3095Z" fill="#F9F9FB"/>
<path d="M42.5722 22.7378H36.0576C35.8621 22.7378 35.6745 22.6601 35.5363 22.5218C35.398 22.3835 35.3203 22.196 35.3203 22.0004C35.3203 21.8049 35.398 21.6173 35.5363 21.4791C35.6745 21.3408 35.8621 21.2631 36.0576 21.2631H42.5722C42.7677 21.2631 42.9553 21.3408 43.0935 21.4791C43.2318 21.6173 43.3095 21.8049 43.3095 22.0004C43.3095 22.196 43.2318 22.3835 43.0935 22.5218C42.9553 22.6601 42.7677 22.7378 42.5722 22.7378Z" fill="#F9F9FB"/>
<path d="M7.94324 22.7378H1.42872C1.23316 22.7378 1.04562 22.6601 0.907338 22.5218C0.769061 22.3835 0.691378 22.196 0.691378 22.0004C0.691378 21.8049 0.769061 21.6173 0.907338 21.4791C1.04562 21.3408 1.23316 21.2631 1.42872 21.2631H7.94324C8.13879 21.2631 8.32634 21.3408 8.46461 21.4791C8.60289 21.6173 8.68057 21.8049 8.68057 22.0004C8.68057 22.196 8.60289 22.3835 8.46461 22.5218C8.32634 22.6601 8.13879 22.7378 7.94324 22.7378Z" fill="#F9F9FB"/>
<path d="M20.5238 26.2873C20.4024 26.2873 20.2829 26.2573 20.176 26.2C20.069 26.1427 19.9778 26.0599 19.9105 25.959C19.8432 25.858 19.8018 25.742 19.7901 25.6212C19.7784 25.5004 19.7967 25.3786 19.8433 25.2666L22.7968 18.1681C22.8719 17.9875 23.0157 17.8441 23.1964 17.7695C23.3772 17.695 23.5802 17.6952 23.7608 17.7703C23.9414 17.8454 24.0847 17.9892 24.1593 18.17C24.2339 18.3508 24.2336 18.5538 24.1585 18.7343L21.2042 25.8328C21.1483 25.9673 21.0539 26.0822 20.9328 26.1631C20.8117 26.244 20.6694 26.2872 20.5238 26.2873Z" fill="#D62C2C"/>
<path d="M27.8836 26.2631C27.7378 26.2631 27.5953 26.2198 27.4742 26.1387C27.353 26.0577 27.2585 25.9426 27.2028 25.8079C27.147 25.6732 27.1324 25.5251 27.1608 25.3821C27.1892 25.2391 27.2594 25.1078 27.3624 25.0047L30.3663 22.0004L27.3624 18.9962C27.292 18.9282 27.2358 18.8469 27.1972 18.7569C27.1585 18.6669 27.1382 18.5702 27.1373 18.4723C27.1365 18.3744 27.1551 18.2773 27.1922 18.1867C27.2293 18.0961 27.284 18.0137 27.3533 17.9445C27.4225 17.8753 27.5048 17.8205 27.5954 17.7834C27.6861 17.7464 27.7832 17.7277 27.8811 17.7286C27.979 17.7294 28.0757 17.7498 28.1657 17.7884C28.2556 17.827 28.337 17.8832 28.405 17.9536L31.9304 21.479C31.9989 21.5475 32.0532 21.6288 32.0903 21.7182C32.1273 21.8077 32.1464 21.9036 32.1464 22.0004C32.1464 22.0973 32.1273 22.1932 32.0903 22.2827C32.0532 22.3721 31.9989 22.4534 31.9304 22.5219L28.405 26.0473C28.3366 26.1158 28.2553 26.1702 28.1658 26.2072C28.0763 26.2443 27.9804 26.2633 27.8836 26.2631Z" fill="#D62C2C"/>
<path d="M16.1174 26.2631C16.0205 26.2633 15.9246 26.2443 15.8351 26.2072C15.7456 26.1702 15.6644 26.1158 15.5959 26.0473L12.0706 22.5219C12.0021 22.4534 11.9478 22.3721 11.9107 22.2827C11.8736 22.1932 11.8546 22.0973 11.8546 22.0004C11.8546 21.9036 11.8736 21.8077 11.9107 21.7182C11.9478 21.6288 12.0021 21.5475 12.0706 21.479L15.5959 17.9536C15.735 17.8193 15.9213 17.745 16.1146 17.7467C16.3079 17.7484 16.4928 17.8259 16.6296 17.9626C16.7663 18.0993 16.8438 18.2843 16.8455 18.4776C16.8472 18.6709 16.7729 18.8572 16.6385 18.9962L13.6346 22.0004L16.6385 25.0047C16.7416 25.1078 16.8117 25.2391 16.8401 25.3821C16.8685 25.5251 16.8539 25.6732 16.7982 25.8079C16.7424 25.9426 16.648 26.0577 16.5268 26.1387C16.4056 26.2198 16.2632 26.2631 16.1174 26.2631Z" fill="#D62C2C"/>
</svg>
