<svg width="38" height="33" viewBox="0 0 38 33" fill="none" xmlns="http://www.w3.org/2000/svg">
<path d="M35.7298 6.635H28.6882V5.135C28.6882 4.8588 28.4644 4.635 28.1882 4.635H27.8132V4.0166C27.8132 1.8018 26.0114 0 23.7966 0H14.1298C11.915 0 10.1132 1.8018 10.1132 4.0166V4.635H9.7058C9.4296 4.635 9.2058 4.8588 9.2058 5.135V6.635H2.1964C1.2278 6.635 0.440002 7.423 0.440002 8.3914V30.3022C0.440002 31.2708 1.2278 32.0586 2.1964 32.0586H35.7298C36.6984 32.0586 37.4864 31.2708 37.4864 30.3022V8.3914C37.4864 7.4228 36.6984 6.635 35.7298 6.635ZM14.9132 6.635V5.135C14.9132 4.8588 14.6894 4.635 14.4132 4.635H14.0706V4.05C14.0706 3.8846 14.2052 3.75 14.3706 3.75H23.5558C23.7212 3.75 23.8558 3.8846 23.8558 4.05V4.635H23.4808C23.2046 4.635 22.9808 4.8588 22.9808 5.135V6.635H14.9132ZM23.9808 5.635H27.6882V6.635H23.9808V5.635ZM11.1132 4.0166C11.1132 2.3534 12.4666 1 14.1298 1H23.7966C25.4598 1 26.8132 2.3534 26.8132 4.0166V4.635H24.8558V4.05C24.8558 3.3332 24.2726 2.75 23.5558 2.75H14.3706C13.6538 2.75 13.0706 3.3332 13.0706 4.05V4.635H11.1132V4.0166ZM10.2058 5.635H13.9132V6.635H10.2058V5.635ZM35.7298 31.0586H2.1964C1.7792 31.0586 1.44 30.7194 1.44 30.3022V19.65H12.2632C12.5394 19.65 12.7632 19.4262 12.7632 19.15C12.7632 18.8738 12.5394 18.65 12.2632 18.65H1.44V8.3914C1.44 7.9742 1.7792 7.635 2.1964 7.635H9.7058H14.4132H23.4808H28.1882H35.7298C36.147 7.635 36.4864 7.9742 36.4864 8.3914V18.65H25.6632C25.387 18.65 25.1632 18.8738 25.1632 19.15C25.1632 19.4262 25.387 19.65 25.6632 19.65H36.4864V30.3022C36.4864 30.7194 36.147 31.0586 35.7298 31.0586Z" fill="white"/>
<path d="M18.9632 17.068C17.7622 17.068 16.785 18.0452 16.785 19.2462C16.785 20.4472 17.7622 21.4242 18.9632 21.4242C20.1642 21.4242 21.1414 20.4472 21.1414 19.2462C21.1414 18.0452 20.1642 17.068 18.9632 17.068ZM18.9632 20.424C18.3136 20.424 17.785 19.8956 17.785 19.246C17.785 18.5964 18.3136 18.0678 18.9632 18.0678C19.6128 18.0678 20.1414 18.5964 20.1414 19.246C20.1414 19.8958 19.6128 20.424 18.9632 20.424Z" fill="#D62C2C"/>
<path d="M23.169 22.7182C23.4776 22.4098 23.5386 21.9316 23.3172 21.5554L22.9232 20.8864L23.6752 20.6918C24.0974 20.5822 24.3924 20.201 24.3924 19.7648V18.727C24.3924 18.2908 24.0974 17.9096 23.6752 17.8C23.675 17.8 23.675 17.8 23.6748 17.8L22.9232 17.6054L23.3174 16.936C23.5384 16.56 23.4774 16.082 23.169 15.7734L22.4354 15.0398C22.1268 14.7312 21.6486 14.6704 21.2726 14.8918L20.6036 15.2856L20.4088 14.534C20.2992 14.1116 19.9182 13.8164 19.4818 13.8164H18.4444C18.0076 13.8164 17.6264 14.1118 17.5174 14.534L17.3226 15.2856L16.6536 14.8918C16.2776 14.6704 15.7994 14.731 15.4908 15.0398L14.757 15.7736C14.4488 16.0822 14.3878 16.5602 14.609 16.9362L15.003 17.6054L14.251 17.8C13.8288 17.9096 13.5338 18.2908 13.5338 18.727V19.7648C13.5338 20.201 13.8288 20.5822 14.2514 20.6918L15.003 20.8864L14.6088 21.5556C14.3878 21.9318 14.4486 22.4098 14.7572 22.7184L15.4908 23.4522C15.7996 23.761 16.278 23.8218 16.6536 23.6002L17.3226 23.2062L17.5172 23.9576C17.6264 24.3802 18.0076 24.6756 18.4444 24.6756H19.4818C19.9182 24.6756 20.2992 24.3804 20.4088 23.958L20.6036 23.2062L21.2726 23.6002C21.6484 23.8214 22.1268 23.761 22.4354 23.4522L23.169 22.7182ZM20.576 22.03C20.4362 21.9296 20.2552 21.9066 20.0952 21.9722C19.9358 22.0376 19.8218 22.1788 19.7926 22.3486L19.449 23.6754H18.4772L18.1344 22.3516C18.1052 22.1818 17.9934 22.0374 17.834 21.972C17.6746 21.9066 17.4954 21.926 17.3554 22.0264L16.1746 22.7218L15.4874 22.0342L16.1852 20.85C16.2814 20.7096 16.301 20.5298 16.2346 20.373C16.1684 20.2162 16.0282 20.104 15.8602 20.0754L14.5338 19.732V18.76L15.8574 18.4172C16.026 18.3882 16.1682 18.275 16.234 18.1172C16.3 17.9592 16.2806 17.7788 16.1826 17.6382L15.4874 16.4576L16.1746 15.7702L17.3502 16.4618C17.4904 16.5622 17.6716 16.5846 17.831 16.5196C17.9904 16.4542 18.1044 16.3128 18.1336 16.143L18.4772 14.8164H19.449L19.7918 16.1402C19.8208 16.31 19.9328 16.4544 20.0922 16.5196C20.2514 16.5848 20.4304 16.5654 20.5708 16.4652L21.7516 15.77L22.4388 16.4574L21.7436 17.638C21.6456 17.7782 21.6248 17.9588 21.6906 18.1166C21.7566 18.2746 21.8972 18.3874 22.066 18.4164L23.3924 18.7598V19.7318L22.0688 20.0744C21.901 20.1034 21.7606 20.2174 21.6942 20.3744C21.628 20.5312 21.6474 20.713 21.7436 20.8536L22.4388 22.034L21.7516 22.7216L20.576 22.03Z" fill="#D62C2C"/>
</svg>
