<svg width="172" height="118" viewBox="0 0 172 118" fill="none" xmlns="http://www.w3.org/2000/svg">
<path d="M16.4459 114V102.64H21.1819C21.6833 102.64 22.1419 102.747 22.5579 102.96C22.9846 103.163 23.3473 103.44 23.6459 103.792C23.9553 104.133 24.1953 104.523 24.3659 104.96C24.5366 105.387 24.6219 105.824 24.6219 106.272C24.6219 106.741 24.5419 107.195 24.3819 107.632C24.2219 108.069 23.9926 108.459 23.6939 108.8C23.4059 109.141 23.0539 109.413 22.6379 109.616C22.2326 109.819 21.7793 109.92 21.2779 109.92H17.8859V114H16.4459ZM17.8859 108.64H21.1979C21.4966 108.64 21.7633 108.581 21.9979 108.464C22.2433 108.336 22.4513 108.165 22.6219 107.952C22.7926 107.728 22.9259 107.472 23.0219 107.184C23.1179 106.896 23.1659 106.592 23.1659 106.272C23.1659 105.941 23.1073 105.632 22.9899 105.344C22.8833 105.056 22.7339 104.805 22.5419 104.592C22.3606 104.379 22.1419 104.213 21.8859 104.096C21.6406 103.979 21.3793 103.92 21.1019 103.92H17.8859V108.64ZM30.4028 102.704H31.7628L33.2668 106.656L34.7868 102.704H36.1468L34.1788 107.648L36.1308 112.336L39.9708 102.64H41.5388L36.7868 114H35.5388L33.2828 108.64L31.0108 114H29.7628L25.0268 102.64H26.5788L30.4348 112.336L32.3708 107.648L30.4028 102.704ZM45.5426 102.64H46.7586L51.3986 114H49.8626L48.5186 110.672H43.7506L42.4226 114H40.8866L45.5426 102.64ZM48.1986 109.552L46.1506 104.304L44.0386 109.552H48.1986ZM56.4616 114V102.64H60.3976C61.3042 102.64 62.0989 102.789 62.7816 103.088C63.4749 103.387 64.0509 103.792 64.5096 104.304C64.9682 104.816 65.3096 105.419 65.5336 106.112C65.7682 106.795 65.8856 107.525 65.8856 108.304C65.8856 109.168 65.7576 109.952 65.5016 110.656C65.2456 111.349 64.8776 111.947 64.3976 112.448C63.9176 112.939 63.3362 113.323 62.6536 113.6C61.9816 113.867 61.2296 114 60.3976 114H56.4616ZM64.4296 108.304C64.4296 107.664 64.3389 107.077 64.1576 106.544C63.9869 106 63.7256 105.536 63.3736 105.152C63.0322 104.768 62.6109 104.469 62.1096 104.256C61.6082 104.032 61.0376 103.92 60.3976 103.92H57.9016V112.72H60.3976C61.0482 112.72 61.6242 112.608 62.1256 112.384C62.6376 112.16 63.0589 111.851 63.3896 111.456C63.7309 111.061 63.9869 110.597 64.1576 110.064C64.3389 109.52 64.4296 108.933 64.4296 108.304ZM71.3867 114.16C70.7574 114.16 70.1814 114.048 69.6587 113.824C69.136 113.589 68.688 113.275 68.3147 112.88C67.9414 112.485 67.648 112.027 67.4347 111.504C67.232 110.971 67.1307 110.411 67.1307 109.824C67.1307 109.237 67.232 108.683 67.4347 108.16C67.648 107.637 67.9414 107.179 68.3147 106.784C68.6987 106.389 69.152 106.08 69.6747 105.856C70.1974 105.621 70.7734 105.504 71.4027 105.504C72.032 105.504 72.6027 105.621 73.1147 105.856C73.6374 106.091 74.08 106.405 74.4427 106.8C74.8054 107.184 75.0827 107.637 75.2747 108.16C75.4774 108.672 75.5787 109.205 75.5787 109.76C75.5787 109.877 75.5734 109.984 75.5627 110.08C75.5627 110.176 75.5574 110.251 75.5467 110.304H68.6187C68.6507 110.72 68.7467 111.099 68.9067 111.44C69.0667 111.781 69.2747 112.075 69.5307 112.32C69.7867 112.565 70.0747 112.757 70.3947 112.896C70.7254 113.035 71.072 113.104 71.4347 113.104C71.6907 113.104 71.9414 113.072 72.1867 113.008C72.432 112.933 72.6614 112.837 72.8747 112.72C73.088 112.603 73.2747 112.459 73.4347 112.288C73.6054 112.117 73.7334 111.925 73.8187 111.712L75.0347 112.048C74.896 112.357 74.704 112.64 74.4587 112.896C74.224 113.152 73.9467 113.376 73.6267 113.568C73.3174 113.749 72.9707 113.893 72.5867 114C72.2027 114.107 71.8027 114.16 71.3867 114.16ZM74.2507 109.264C74.2187 108.869 74.1174 108.507 73.9467 108.176C73.7867 107.835 73.5787 107.547 73.3227 107.312C73.0774 107.077 72.7894 106.896 72.4587 106.768C72.128 106.629 71.776 106.56 71.4027 106.56C71.0294 106.56 70.6774 106.629 70.3467 106.768C70.016 106.896 69.7227 107.083 69.4667 107.328C69.2214 107.563 69.0187 107.845 68.8587 108.176C68.7094 108.507 68.6187 108.869 68.5867 109.264H74.2507ZM79.3411 114L76.0451 105.648H77.5011L80.1411 112.768L82.7971 105.648H84.1411L80.8451 114H79.3411ZM88.9492 114.16C88.3199 114.16 87.7439 114.048 87.2212 113.824C86.6985 113.589 86.2505 113.275 85.8772 112.88C85.5039 112.485 85.2105 112.027 84.9972 111.504C84.7945 110.971 84.6932 110.411 84.6932 109.824C84.6932 109.237 84.7945 108.683 84.9972 108.16C85.2105 107.637 85.5039 107.179 85.8772 106.784C86.2612 106.389 86.7145 106.08 87.2372 105.856C87.7599 105.621 88.3359 105.504 88.9652 105.504C89.5945 105.504 90.1652 105.621 90.6772 105.856C91.1999 106.091 91.6425 106.405 92.0052 106.8C92.3679 107.184 92.6452 107.637 92.8372 108.16C93.0399 108.672 93.1412 109.205 93.1412 109.76C93.1412 109.877 93.1359 109.984 93.1252 110.08C93.1252 110.176 93.1199 110.251 93.1092 110.304H86.1812C86.2132 110.72 86.3092 111.099 86.4692 111.44C86.6292 111.781 86.8372 112.075 87.0932 112.32C87.3492 112.565 87.6372 112.757 87.9572 112.896C88.2879 113.035 88.6345 113.104 88.9972 113.104C89.2532 113.104 89.5039 113.072 89.7492 113.008C89.9945 112.933 90.2239 112.837 90.4372 112.72C90.6505 112.603 90.8372 112.459 90.9972 112.288C91.1679 112.117 91.2959 111.925 91.3812 111.712L92.5972 112.048C92.4585 112.357 92.2665 112.64 92.0212 112.896C91.7865 113.152 91.5092 113.376 91.1892 113.568C90.8799 113.749 90.5332 113.893 90.1492 114C89.7652 114.107 89.3652 114.16 88.9492 114.16ZM91.8132 109.264C91.7812 108.869 91.6799 108.507 91.5092 108.176C91.3492 107.835 91.1412 107.547 90.8852 107.312C90.6399 107.077 90.3519 106.896 90.0212 106.768C89.6905 106.629 89.3385 106.56 88.9652 106.56C88.5919 106.56 88.2399 106.629 87.9092 106.768C87.5785 106.896 87.2852 107.083 87.0292 107.328C86.7839 107.563 86.5812 107.845 86.4212 108.176C86.2719 108.507 86.1812 108.869 86.1492 109.264H91.8132ZM94.7383 102.32H96.1463V111.84C96.1463 112.149 96.2263 112.395 96.3863 112.576C96.557 112.747 96.7916 112.832 97.0903 112.832C97.2076 112.832 97.3463 112.816 97.5063 112.784C97.6663 112.741 97.8156 112.693 97.9543 112.64L98.1783 113.776C97.9436 113.872 97.6663 113.952 97.3463 114.016C97.0263 114.08 96.7436 114.112 96.4983 114.112C95.9543 114.112 95.5223 113.957 95.2023 113.648C94.893 113.339 94.7383 112.907 94.7383 112.352V102.32ZM102.932 114.16C102.303 114.16 101.727 114.043 101.204 113.808C100.692 113.573 100.25 113.259 99.8764 112.864C99.5138 112.469 99.2311 112.011 99.0284 111.488C98.8258 110.965 98.7244 110.416 98.7244 109.84C98.7244 109.253 98.8258 108.699 99.0284 108.176C99.2418 107.653 99.5298 107.195 99.8924 106.8C100.266 106.405 100.708 106.091 101.22 105.856C101.743 105.621 102.314 105.504 102.932 105.504C103.551 105.504 104.122 105.621 104.644 105.856C105.167 106.091 105.61 106.405 105.972 106.8C106.346 107.195 106.634 107.653 106.836 108.176C107.05 108.699 107.156 109.253 107.156 109.84C107.156 110.416 107.055 110.965 106.852 111.488C106.65 112.011 106.362 112.469 105.988 112.864C105.615 113.259 105.167 113.573 104.644 113.808C104.132 114.043 103.562 114.16 102.932 114.16ZM100.164 109.856C100.164 110.293 100.234 110.699 100.372 111.072C100.522 111.445 100.719 111.771 100.964 112.048C101.22 112.325 101.514 112.544 101.844 112.704C102.186 112.864 102.548 112.944 102.932 112.944C103.316 112.944 103.674 112.864 104.004 112.704C104.346 112.544 104.644 112.325 104.9 112.048C105.156 111.76 105.354 111.429 105.492 111.056C105.642 110.672 105.716 110.261 105.716 109.824C105.716 109.397 105.642 108.997 105.492 108.624C105.354 108.24 105.156 107.909 104.9 107.632C104.644 107.344 104.346 107.12 104.004 106.96C103.674 106.8 103.316 106.72 102.932 106.72C102.548 106.72 102.186 106.805 101.844 106.976C101.514 107.136 101.22 107.36 100.964 107.648C100.719 107.925 100.522 108.256 100.372 108.64C100.234 109.013 100.164 109.419 100.164 109.856ZM113.359 114.16C112.665 114.16 112.052 113.989 111.519 113.648C110.996 113.307 110.58 112.875 110.271 112.352V117.408H108.863V105.648H110.111V107.216C110.441 106.704 110.868 106.293 111.391 105.984C111.924 105.664 112.511 105.504 113.151 105.504C113.727 105.504 114.255 105.621 114.735 105.856C115.215 106.091 115.631 106.411 115.983 106.816C116.335 107.211 116.607 107.669 116.799 108.192C117.001 108.715 117.103 109.259 117.103 109.824C117.103 110.421 117.012 110.987 116.831 111.52C116.649 112.043 116.393 112.501 116.063 112.896C115.732 113.28 115.337 113.589 114.879 113.824C114.42 114.048 113.913 114.16 113.359 114.16ZM112.927 112.944C113.343 112.944 113.716 112.859 114.047 112.688C114.388 112.507 114.676 112.272 114.911 111.984C115.156 111.685 115.343 111.349 115.471 110.976C115.599 110.603 115.663 110.219 115.663 109.824C115.663 109.408 115.588 109.013 115.439 108.64C115.289 108.256 115.087 107.925 114.831 107.648C114.575 107.36 114.271 107.136 113.919 106.976C113.577 106.805 113.204 106.72 112.799 106.72C112.543 106.72 112.276 106.773 111.999 106.88C111.732 106.976 111.476 107.109 111.231 107.28C110.996 107.44 110.788 107.637 110.607 107.872C110.436 108.096 110.324 108.336 110.271 108.592V110.976C110.388 111.253 110.537 111.515 110.719 111.76C110.9 111.995 111.108 112.203 111.343 112.384C111.577 112.555 111.828 112.693 112.095 112.8C112.361 112.896 112.639 112.944 112.927 112.944ZM131.423 114H130.015V109.328C130.015 108.453 129.871 107.808 129.583 107.392C129.306 106.976 128.89 106.768 128.335 106.768C127.759 106.768 127.242 106.976 126.783 107.392C126.335 107.797 126.015 108.325 125.823 108.976V114H124.415V109.328C124.415 108.432 124.277 107.781 123.999 107.376C123.722 106.971 123.306 106.768 122.751 106.768C122.186 106.768 121.674 106.971 121.215 107.376C120.757 107.771 120.431 108.299 120.239 108.96V114H118.831V105.648H120.111V107.44C120.453 106.821 120.895 106.347 121.439 106.016C121.983 105.675 122.597 105.504 123.279 105.504C123.983 105.504 124.538 105.696 124.943 106.08C125.359 106.453 125.615 106.939 125.711 107.536C126.458 106.181 127.519 105.504 128.895 105.504C129.375 105.504 129.775 105.595 130.095 105.776C130.426 105.947 130.687 106.192 130.879 106.512C131.071 106.821 131.21 107.189 131.295 107.616C131.381 108.043 131.423 108.507 131.423 109.008V114ZM137.309 114.16C136.679 114.16 136.103 114.048 135.581 113.824C135.058 113.589 134.61 113.275 134.237 112.88C133.863 112.485 133.57 112.027 133.357 111.504C133.154 110.971 133.053 110.411 133.053 109.824C133.053 109.237 133.154 108.683 133.357 108.16C133.57 107.637 133.863 107.179 134.237 106.784C134.621 106.389 135.074 106.08 135.597 105.856C136.119 105.621 136.695 105.504 137.325 105.504C137.954 105.504 138.525 105.621 139.037 105.856C139.559 106.091 140.002 106.405 140.365 106.8C140.727 107.184 141.005 107.637 141.197 108.16C141.399 108.672 141.501 109.205 141.501 109.76C141.501 109.877 141.495 109.984 141.485 110.08C141.485 110.176 141.479 110.251 141.469 110.304H134.541C134.573 110.72 134.669 111.099 134.829 111.44C134.989 111.781 135.197 112.075 135.453 112.32C135.709 112.565 135.997 112.757 136.317 112.896C136.647 113.035 136.994 113.104 137.357 113.104C137.613 113.104 137.863 113.072 138.109 113.008C138.354 112.933 138.583 112.837 138.797 112.72C139.01 112.603 139.197 112.459 139.357 112.288C139.527 112.117 139.655 111.925 139.741 111.712L140.957 112.048C140.818 112.357 140.626 112.64 140.381 112.896C140.146 113.152 139.869 113.376 139.549 113.568C139.239 113.749 138.893 113.893 138.509 114C138.125 114.107 137.725 114.16 137.309 114.16ZM140.173 109.264C140.141 108.869 140.039 108.507 139.869 108.176C139.709 107.835 139.501 107.547 139.245 107.312C138.999 107.077 138.711 106.896 138.381 106.768C138.05 106.629 137.698 106.56 137.325 106.56C136.951 106.56 136.599 106.629 136.269 106.768C135.938 106.896 135.645 107.083 135.389 107.328C135.143 107.563 134.941 107.845 134.781 108.176C134.631 108.507 134.541 108.869 134.509 109.264H140.173ZM150.314 114H148.906V109.328C148.906 108.432 148.767 107.781 148.49 107.376C148.223 106.971 147.812 106.768 147.258 106.768C146.97 106.768 146.682 106.827 146.394 106.944C146.106 107.051 145.834 107.2 145.578 107.392C145.322 107.584 145.098 107.813 144.906 108.08C144.714 108.347 144.57 108.64 144.474 108.96V114H143.066V105.648H144.346V107.44C144.676 106.853 145.151 106.384 145.77 106.032C146.399 105.68 147.082 105.504 147.818 105.504C148.298 105.504 148.698 105.595 149.018 105.776C149.338 105.947 149.594 106.192 149.786 106.512C149.978 106.821 150.111 107.189 150.186 107.616C150.271 108.043 150.314 108.507 150.314 109.008V114ZM156.745 113.584C156.66 113.627 156.548 113.68 156.409 113.744C156.27 113.797 156.11 113.856 155.929 113.92C155.758 113.973 155.566 114.016 155.353 114.048C155.15 114.091 154.937 114.112 154.713 114.112C154.201 114.112 153.758 113.973 153.385 113.696C153.012 113.408 152.825 112.965 152.825 112.368V106.752H151.689V105.648H152.825V102.864H154.233V105.648H156.105V106.752H154.233V111.936C154.254 112.245 154.356 112.469 154.537 112.608C154.718 112.747 154.932 112.816 155.177 112.816C155.454 112.816 155.705 112.773 155.929 112.688C156.164 112.592 156.324 112.517 156.409 112.464L156.745 113.584Z" fill="#12233D"/>
<path d="M57.2945 30V12.96H64.3025C65.0225 12.96 65.6865 13.112 66.2945 13.416C66.9025 13.72 67.4225 14.128 67.8545 14.64C68.3025 15.136 68.6465 15.704 68.8865 16.344C69.1425 16.968 69.2705 17.6 69.2705 18.24C69.2705 18.928 69.1505 19.592 68.9105 20.232C68.6865 20.872 68.3585 21.44 67.9265 21.936C67.5105 22.432 67.0065 22.832 66.4145 23.136C65.8225 23.424 65.1665 23.568 64.4465 23.568H58.5185V30H57.2945ZM58.5185 22.44H64.3985C64.9585 22.44 65.4625 22.328 65.9105 22.104C66.3585 21.864 66.7345 21.552 67.0385 21.168C67.3585 20.768 67.5985 20.32 67.7585 19.824C67.9345 19.312 68.0225 18.784 68.0225 18.24C68.0225 17.68 67.9185 17.152 67.7105 16.656C67.5185 16.144 67.2465 15.696 66.8945 15.312C66.5585 14.928 66.1585 14.624 65.6945 14.4C65.2465 14.176 64.7665 14.064 64.2545 14.064H58.5185V22.44ZM78.4709 13.08H79.6709L82.2149 19.272L84.7589 13.08H85.9589L82.9589 20.256L86.5349 28.56L93.0629 12.96H94.4069L87.1109 30H85.9829L82.2389 21.24L78.4709 30H77.3429L70.0709 12.96H71.3909L77.9429 28.56L81.4709 20.256L78.4709 13.08Z" fill="#12233D"/>
<path d="M102.326 12.96H103.382L110.582 30H109.286L106.91 24.384H98.7742L96.3982 30H95.0782L102.326 12.96ZM106.574 23.376L102.854 14.448L99.0622 23.376H106.574Z" fill="#D62C2C"/>
</svg>
