<svg width="70" height="48" viewBox="0 0 70 48" fill="none" xmlns="http://www.w3.org/2000/svg">
<path fill-rule="evenodd" clip-rule="evenodd" d="M54.5222 32C63.0778 32 70 24.8 70 16C70 7.2 63 -6.11959e-07 54.4444 -1.35991e-06C45.8889 -2.10786e-06 38.8889 7.2 38.8889 16C38.8889 33.68 52.8111 48 70 48C70 48 59.8111 44.08 54.5222 32ZM31.1111 16C31.1111 7.2 24.1111 -4.01173e-06 15.5556 -4.75968e-06C7 -5.50763e-06 3.56685e-06 7.19999 2.79753e-06 16C1.25189e-06 33.68 13.9222 48 31.1111 48C31.1111 48 20.9222 44.08 15.6333 32C24.1889 32 31.1111 24.8 31.1111 16Z" fill="#F2F2F2"/>
</svg>
