<svg width="172" height="136" viewBox="0 0 172 136" fill="none" xmlns="http://www.w3.org/2000/svg">
<path d="M36.0303 101.24C36.0303 100.557 36.1476 99.88 36.3823 99.208C36.6276 98.5253 36.9796 97.9173 37.4383 97.384C37.9076 96.84 38.4783 96.4027 39.1503 96.072C39.8223 95.7413 40.5849 95.576 41.4383 95.576C42.4516 95.576 43.3209 95.8053 44.0463 96.264C44.7716 96.7227 45.3103 97.32 45.6623 98.056L44.5263 98.792C44.3556 98.4293 44.1476 98.1253 43.9023 97.88C43.6676 97.6347 43.4063 97.4373 43.1183 97.288C42.8409 97.1387 42.5529 97.032 42.2543 96.968C41.9556 96.904 41.6623 96.872 41.3743 96.872C40.7449 96.872 40.1849 97.0053 39.6943 97.272C39.2143 97.528 38.8089 97.8693 38.4783 98.296C38.1476 98.712 37.8969 99.1867 37.7263 99.72C37.5663 100.243 37.4863 100.771 37.4863 101.304C37.4863 101.901 37.5823 102.472 37.7743 103.016C37.9769 103.549 38.2543 104.024 38.6063 104.44C38.9583 104.856 39.3743 105.187 39.8543 105.432C40.3343 105.677 40.8569 105.8 41.4223 105.8C41.7209 105.8 42.0249 105.763 42.3343 105.688C42.6543 105.613 42.9583 105.496 43.2463 105.336C43.5343 105.165 43.8009 104.957 44.0463 104.712C44.3023 104.456 44.5103 104.152 44.6703 103.8L45.8703 104.456C45.6889 104.883 45.4329 105.261 45.1023 105.592C44.7823 105.912 44.4143 106.184 43.9983 106.408C43.5929 106.632 43.1609 106.803 42.7023 106.92C42.2436 107.037 41.7956 107.096 41.3583 107.096C40.5796 107.096 39.8649 106.925 39.2143 106.584C38.5636 106.243 37.9983 105.8 37.5182 105.256C37.0489 104.701 36.6809 104.077 36.4143 103.384C36.1583 102.68 36.0303 101.965 36.0303 101.24ZM54.6965 107H53.2885V102.328C53.2885 101.464 53.1392 100.824 52.8405 100.408C52.5418 99.9813 52.1045 99.768 51.5285 99.768C51.2512 99.768 50.9738 99.8267 50.6965 99.944C50.4192 100.051 50.1578 100.2 49.9125 100.392C49.6778 100.584 49.4645 100.813 49.2725 101.08C49.0912 101.347 48.9525 101.64 48.8565 101.96V107H47.4485V95.32H48.8565V100.44C49.1872 99.832 49.6352 99.3573 50.2005 99.016C50.7658 98.6747 51.3845 98.504 52.0565 98.504C52.5472 98.504 52.9632 98.5947 53.3045 98.776C53.6458 98.9573 53.9178 99.2027 54.1205 99.512C54.3232 99.8213 54.4672 100.195 54.5525 100.632C54.6485 101.059 54.6965 101.517 54.6965 102.008V107ZM59.03 107.16C58.6353 107.16 58.2673 107.096 57.926 106.968C57.5847 106.829 57.286 106.643 57.03 106.408C56.7847 106.173 56.5873 105.901 56.438 105.592C56.2993 105.272 56.23 104.925 56.23 104.552C56.23 104.168 56.3153 103.821 56.486 103.512C56.6567 103.192 56.8967 102.92 57.206 102.696C57.526 102.472 57.8993 102.296 58.326 102.168C58.7633 102.04 59.238 101.976 59.75 101.976C60.1553 101.976 60.566 102.013 60.982 102.088C61.398 102.163 61.766 102.264 62.086 102.392V101.72C62.086 101.037 61.894 100.504 61.51 100.12C61.126 99.7253 60.582 99.528 59.878 99.528C59.0353 99.528 58.15 99.8533 57.222 100.504L56.758 99.592C57.8353 98.8667 58.918 98.504 60.006 98.504C61.1047 98.504 61.958 98.7973 62.566 99.384C63.1847 99.9707 63.494 100.797 63.494 101.864V105.272C63.494 105.603 63.6433 105.773 63.942 105.784V107C63.7927 107.021 63.67 107.037 63.574 107.048C63.478 107.059 63.3767 107.064 63.27 107.064C62.9927 107.064 62.7687 106.984 62.598 106.824C62.438 106.653 62.342 106.451 62.31 106.216L62.278 105.624C61.9047 106.125 61.43 106.509 60.854 106.776C60.2887 107.032 59.6807 107.16 59.03 107.16ZM59.398 106.104C59.8993 106.104 60.3633 106.013 60.79 105.832C61.2273 105.64 61.558 105.389 61.782 105.08C61.9847 104.877 62.086 104.669 62.086 104.456V103.224C61.4033 102.957 60.694 102.824 59.958 102.824C59.254 102.824 58.678 102.973 58.23 103.272C57.7927 103.571 57.574 103.96 57.574 104.44C57.574 104.675 57.6167 104.893 57.702 105.096C57.798 105.299 57.926 105.475 58.086 105.624C58.2567 105.773 58.454 105.891 58.678 105.976C58.902 106.061 59.142 106.104 59.398 106.104ZM70.0029 106.584C69.9175 106.627 69.8055 106.68 69.6669 106.744C69.5282 106.797 69.3682 106.856 69.1869 106.92C69.0162 106.973 68.8242 107.016 68.6109 107.048C68.4082 107.091 68.1949 107.112 67.9709 107.112C67.4589 107.112 67.0162 106.973 66.6429 106.696C66.2695 106.408 66.0829 105.965 66.0829 105.368V99.752H64.9469V98.648H66.0829V95.864H67.4909V98.648H69.3629V99.752H67.4909V104.936C67.5122 105.245 67.6135 105.469 67.7949 105.608C67.9762 105.747 68.1895 105.816 68.4349 105.816C68.7122 105.816 68.9629 105.773 69.1869 105.688C69.4215 105.592 69.5815 105.517 69.6669 105.464L70.0029 106.584ZM75.5959 107.16C74.9452 107.16 74.3532 107 73.8199 106.68C73.2865 106.36 72.8652 105.944 72.5559 105.432V107H71.3079V95.32H72.7159V100.312C73.0679 99.768 73.4999 99.3307 74.0119 99C74.5239 98.6693 75.1212 98.504 75.8039 98.504C76.3799 98.504 76.8972 98.6267 77.3559 98.872C77.8145 99.1173 78.2039 99.4427 78.5239 99.848C78.8545 100.243 79.1052 100.707 79.2759 101.24C79.4572 101.763 79.5479 102.301 79.5479 102.856C79.5479 103.443 79.4465 103.997 79.2439 104.52C79.0412 105.043 78.7639 105.501 78.4119 105.896C78.0599 106.28 77.6385 106.589 77.1479 106.824C76.6679 107.048 76.1505 107.16 75.5959 107.16ZM75.2439 105.944C75.6599 105.944 76.0439 105.859 76.3959 105.688C76.7479 105.517 77.0519 105.288 77.3079 105C77.5639 104.712 77.7612 104.387 77.8999 104.024C78.0385 103.651 78.1079 103.261 78.1079 102.856C78.1079 102.451 78.0385 102.061 77.8999 101.688C77.7719 101.304 77.5852 100.968 77.3399 100.68C77.1052 100.392 76.8172 100.163 76.4759 99.992C76.1452 99.8107 75.7772 99.72 75.3719 99.72C75.0732 99.72 74.7905 99.7733 74.5239 99.88C74.2572 99.9867 74.0065 100.131 73.7719 100.312C73.5479 100.483 73.3452 100.685 73.1639 100.92C72.9932 101.155 72.8439 101.405 72.7159 101.672V104.088C72.7692 104.355 72.8812 104.6 73.0519 104.824C73.2332 105.048 73.4412 105.245 73.6759 105.416C73.9212 105.576 74.1772 105.704 74.4439 105.8C74.7212 105.896 74.9879 105.944 75.2439 105.944ZM84.9246 107.16C84.2953 107.16 83.7193 107.043 83.1966 106.808C82.6846 106.573 82.242 106.259 81.8686 105.864C81.506 105.469 81.2233 105.011 81.0206 104.488C80.818 103.965 80.7166 103.416 80.7166 102.84C80.7166 102.253 80.818 101.699 81.0206 101.176C81.234 100.653 81.522 100.195 81.8846 99.8C82.258 99.4053 82.7006 99.0907 83.2126 98.856C83.7353 98.6213 84.306 98.504 84.9246 98.504C85.5433 98.504 86.114 98.6213 86.6366 98.856C87.1593 99.0907 87.602 99.4053 87.9646 99.8C88.338 100.195 88.626 100.653 88.8286 101.176C89.042 101.699 89.1486 102.253 89.1486 102.84C89.1486 103.416 89.0473 103.965 88.8446 104.488C88.642 105.011 88.354 105.469 87.9806 105.864C87.6073 106.259 87.1593 106.573 86.6366 106.808C86.1246 107.043 85.554 107.16 84.9246 107.16ZM82.1566 102.856C82.1566 103.293 82.226 103.699 82.3646 104.072C82.514 104.445 82.7113 104.771 82.9566 105.048C83.2126 105.325 83.506 105.544 83.8366 105.704C84.178 105.864 84.5406 105.944 84.9246 105.944C85.3086 105.944 85.666 105.864 85.9966 105.704C86.338 105.544 86.6366 105.325 86.8926 105.048C87.1486 104.76 87.346 104.429 87.4846 104.056C87.634 103.672 87.7086 103.261 87.7086 102.824C87.7086 102.397 87.634 101.997 87.4846 101.624C87.346 101.24 87.1486 100.909 86.8926 100.632C86.6366 100.344 86.338 100.12 85.9966 99.96C85.666 99.8 85.3086 99.72 84.9246 99.72C84.5406 99.72 84.178 99.8053 83.8366 99.976C83.506 100.136 83.2126 100.36 82.9566 100.648C82.7113 100.925 82.514 101.256 82.3646 101.64C82.226 102.013 82.1566 102.419 82.1566 102.856ZM95.0498 106.584C94.9644 106.627 94.8524 106.68 94.7138 106.744C94.5751 106.797 94.4151 106.856 94.2338 106.92C94.0631 106.973 93.8711 107.016 93.6578 107.048C93.4551 107.091 93.2418 107.112 93.0178 107.112C92.5058 107.112 92.0631 106.973 91.6898 106.696C91.3164 106.408 91.1298 105.965 91.1298 105.368V99.752H89.9938V98.648H91.1298V95.864H92.5378V98.648H94.4098V99.752H92.5378V104.936C92.5591 105.245 92.6604 105.469 92.8418 105.608C93.0231 105.747 93.2364 105.816 93.4818 105.816C93.7591 105.816 94.0098 105.773 94.2338 105.688C94.4684 105.592 94.6284 105.517 94.7138 105.464L95.0498 106.584ZM99.2828 107.16C98.6108 107.16 97.9494 107.059 97.2988 106.856C96.6481 106.643 96.0881 106.339 95.6188 105.944L96.2268 105C96.7174 105.373 97.2081 105.656 97.6988 105.848C98.1894 106.029 98.7068 106.12 99.2508 106.12C99.8588 106.12 100.339 106.003 100.691 105.768C101.053 105.523 101.235 105.181 101.235 104.744C101.235 104.541 101.187 104.371 101.091 104.232C100.995 104.083 100.851 103.955 100.659 103.848C100.467 103.741 100.221 103.645 99.9227 103.56C99.6241 103.475 99.2774 103.384 98.8828 103.288C98.3814 103.16 97.9494 103.037 97.5868 102.92C97.2241 102.803 96.9254 102.664 96.6908 102.504C96.4561 102.344 96.2854 102.152 96.1788 101.928C96.0721 101.704 96.0188 101.427 96.0188 101.096C96.0188 100.68 96.0988 100.312 96.2588 99.992C96.4294 99.6613 96.6588 99.3893 96.9468 99.176C97.2348 98.952 97.5708 98.7867 97.9548 98.68C98.3494 98.5627 98.7708 98.504 99.2188 98.504C99.8481 98.504 100.435 98.6053 100.979 98.808C101.523 99.0107 101.981 99.2773 102.355 99.608L101.715 100.456C101.363 100.147 100.968 99.9173 100.531 99.768C100.093 99.608 99.6454 99.528 99.1868 99.528C98.6748 99.528 98.2374 99.64 97.8748 99.864C97.5228 100.077 97.3468 100.424 97.3468 100.904C97.3468 101.096 97.3788 101.256 97.4428 101.384C97.5174 101.512 97.6348 101.624 97.7948 101.72C97.9548 101.816 98.1574 101.901 98.4028 101.976C98.6588 102.051 98.9628 102.131 99.3148 102.216C99.8694 102.344 100.349 102.477 100.755 102.616C101.171 102.744 101.512 102.899 101.779 103.08C102.056 103.261 102.259 103.475 102.387 103.72C102.525 103.965 102.595 104.264 102.595 104.616C102.595 105.395 102.296 106.013 101.699 106.472C101.101 106.931 100.296 107.16 99.2828 107.16ZM116.132 107L114.948 105.768C114.489 106.216 113.972 106.563 113.396 106.808C112.831 107.043 112.223 107.16 111.572 107.16C111.049 107.16 110.564 107.08 110.116 106.92C109.668 106.76 109.279 106.541 108.948 106.264C108.617 105.976 108.356 105.64 108.164 105.256C107.983 104.872 107.892 104.451 107.892 103.992C107.892 103.619 107.951 103.272 108.068 102.952C108.196 102.632 108.361 102.339 108.564 102.072C108.777 101.805 109.017 101.56 109.284 101.336C109.551 101.101 109.833 100.883 110.132 100.68C109.876 100.392 109.657 100.131 109.476 99.896C109.295 99.6613 109.145 99.4427 109.028 99.24C108.921 99.0267 108.841 98.8293 108.788 98.648C108.735 98.456 108.708 98.2587 108.708 98.056C108.708 97.6933 108.783 97.3573 108.932 97.048C109.081 96.728 109.284 96.456 109.54 96.232C109.807 95.9973 110.116 95.816 110.468 95.688C110.831 95.56 111.22 95.496 111.636 95.496C112.02 95.496 112.377 95.5493 112.708 95.656C113.049 95.7627 113.343 95.9173 113.588 96.12C113.844 96.3227 114.041 96.568 114.18 96.856C114.329 97.144 114.404 97.464 114.404 97.816C114.404 98.136 114.34 98.4347 114.212 98.712C114.095 98.9893 113.929 99.2507 113.716 99.496C113.513 99.7307 113.268 99.9547 112.98 100.168C112.692 100.381 112.388 100.595 112.068 100.808L114.964 103.848C115.167 103.464 115.321 103.048 115.428 102.6C115.545 102.141 115.604 101.656 115.604 101.144H116.772C116.761 101.837 116.671 102.483 116.5 103.08C116.34 103.677 116.105 104.221 115.796 104.712L117.988 107H116.132ZM111.716 106.04C112.196 106.04 112.644 105.944 113.06 105.752C113.476 105.56 113.849 105.293 114.18 104.952L110.948 101.544C110.447 101.907 110.036 102.285 109.716 102.68C109.407 103.064 109.252 103.507 109.252 104.008C109.252 104.328 109.321 104.616 109.46 104.872C109.599 105.128 109.78 105.341 110.004 105.512C110.239 105.683 110.5 105.816 110.788 105.912C111.087 105.997 111.396 106.04 111.716 106.04ZM110.004 98.024C110.004 98.1413 110.02 98.2587 110.052 98.376C110.095 98.4827 110.159 98.6107 110.244 98.76C110.34 98.8987 110.468 99.0693 110.628 99.272C110.788 99.464 110.996 99.6933 111.252 99.96C111.807 99.608 112.255 99.272 112.596 98.952C112.937 98.6213 113.108 98.2533 113.108 97.848C113.108 97.4747 112.969 97.1707 112.692 96.936C112.415 96.6907 112.063 96.568 111.636 96.568C111.156 96.568 110.761 96.712 110.452 97C110.153 97.2773 110.004 97.6187 110.004 98.024ZM126.425 95.64H127.641L132.281 107H130.745L129.401 103.672H124.633L123.305 107H121.769L126.425 95.64ZM129.081 102.552L127.033 97.304L124.921 102.552H129.081ZM133.798 107V95.64H135.238V107H133.798ZM36.4538 132V120.64H40.3898C41.2964 120.64 42.0911 120.789 42.7738 121.088C43.4671 121.387 44.0431 121.792 44.5017 122.304C44.9604 122.816 45.3018 123.419 45.5258 124.112C45.7604 124.795 45.8778 125.525 45.8778 126.304C45.8778 127.168 45.7498 127.952 45.4938 128.656C45.2378 129.349 44.8698 129.947 44.3898 130.448C43.9098 130.939 43.3284 131.323 42.6458 131.6C41.9738 131.867 41.2218 132 40.3898 132H36.4538ZM44.4218 126.304C44.4218 125.664 44.3311 125.077 44.1498 124.544C43.9791 124 43.7178 123.536 43.3658 123.152C43.0244 122.768 42.6031 122.469 42.1018 122.256C41.6004 122.032 41.0298 121.92 40.3898 121.92H37.8938V130.72H40.3898C41.0404 130.72 41.6164 130.608 42.1178 130.384C42.6298 130.16 43.0511 129.851 43.3818 129.456C43.7231 129.061 43.9791 128.597 44.1498 128.064C44.3311 127.52 44.4218 126.933 44.4218 126.304ZM51.3789 132.16C50.7495 132.16 50.1735 132.048 49.6509 131.824C49.1282 131.589 48.6802 131.275 48.3069 130.88C47.9335 130.485 47.6402 130.027 47.4269 129.504C47.2242 128.971 47.1229 128.411 47.1229 127.824C47.1229 127.237 47.2242 126.683 47.4269 126.16C47.6402 125.637 47.9335 125.179 48.3069 124.784C48.6909 124.389 49.1442 124.08 49.6669 123.856C50.1895 123.621 50.7655 123.504 51.3949 123.504C52.0242 123.504 52.5949 123.621 53.1069 123.856C53.6295 124.091 54.0722 124.405 54.4349 124.8C54.7975 125.184 55.0749 125.637 55.2669 126.16C55.4695 126.672 55.5709 127.205 55.5709 127.76C55.5709 127.877 55.5655 127.984 55.5549 128.08C55.5549 128.176 55.5495 128.251 55.5389 128.304H48.6109C48.6429 128.72 48.7389 129.099 48.8989 129.44C49.0589 129.781 49.2669 130.075 49.5229 130.32C49.7789 130.565 50.0669 130.757 50.3869 130.896C50.7175 131.035 51.0642 131.104 51.4269 131.104C51.6829 131.104 51.9335 131.072 52.1789 131.008C52.4242 130.933 52.6535 130.837 52.8669 130.72C53.0802 130.603 53.2669 130.459 53.4269 130.288C53.5975 130.117 53.7255 129.925 53.8109 129.712L55.0269 130.048C54.8882 130.357 54.6962 130.64 54.4509 130.896C54.2162 131.152 53.9389 131.376 53.6189 131.568C53.3095 131.749 52.9629 131.893 52.5789 132C52.1949 132.107 51.7949 132.16 51.3789 132.16ZM54.2429 127.264C54.2109 126.869 54.1095 126.507 53.9389 126.176C53.7789 125.835 53.5709 125.547 53.3149 125.312C53.0695 125.077 52.7815 124.896 52.4509 124.768C52.1202 124.629 51.7682 124.56 51.3949 124.56C51.0215 124.56 50.6695 124.629 50.3389 124.768C50.0082 124.896 49.7149 125.083 49.4589 125.328C49.2135 125.563 49.0109 125.845 48.8509 126.176C48.7015 126.507 48.6109 126.869 48.5789 127.264H54.2429ZM59.3333 132L56.0373 123.648H57.4933L60.1333 130.768L62.7893 123.648H64.1333L60.8373 132H59.3333ZM68.9414 132.16C68.312 132.16 67.736 132.048 67.2134 131.824C66.6907 131.589 66.2427 131.275 65.8694 130.88C65.496 130.485 65.2027 130.027 64.9894 129.504C64.7867 128.971 64.6854 128.411 64.6854 127.824C64.6854 127.237 64.7867 126.683 64.9894 126.16C65.2027 125.637 65.496 125.179 65.8694 124.784C66.2534 124.389 66.7067 124.08 67.2294 123.856C67.752 123.621 68.328 123.504 68.9574 123.504C69.5867 123.504 70.1574 123.621 70.6694 123.856C71.192 124.091 71.6347 124.405 71.9974 124.8C72.36 125.184 72.6374 125.637 72.8294 126.16C73.032 126.672 73.1334 127.205 73.1334 127.76C73.1334 127.877 73.128 127.984 73.1174 128.08C73.1174 128.176 73.112 128.251 73.1014 128.304H66.1734C66.2054 128.72 66.3014 129.099 66.4614 129.44C66.6214 129.781 66.8294 130.075 67.0854 130.32C67.3414 130.565 67.6294 130.757 67.9494 130.896C68.28 131.035 68.6267 131.104 68.9894 131.104C69.2454 131.104 69.496 131.072 69.7414 131.008C69.9867 130.933 70.216 130.837 70.4294 130.72C70.6427 130.603 70.8294 130.459 70.9894 130.288C71.16 130.117 71.288 129.925 71.3734 129.712L72.5894 130.048C72.4507 130.357 72.2587 130.64 72.0134 130.896C71.7787 131.152 71.5014 131.376 71.1814 131.568C70.872 131.749 70.5254 131.893 70.1414 132C69.7574 132.107 69.3574 132.16 68.9414 132.16ZM71.8054 127.264C71.7734 126.869 71.672 126.507 71.5014 126.176C71.3414 125.835 71.1334 125.547 70.8774 125.312C70.632 125.077 70.344 124.896 70.0134 124.768C69.6827 124.629 69.3307 124.56 68.9574 124.56C68.584 124.56 68.232 124.629 67.9014 124.768C67.5707 124.896 67.2774 125.083 67.0214 125.328C66.776 125.563 66.5734 125.845 66.4134 126.176C66.264 126.507 66.1734 126.869 66.1414 127.264H71.8054ZM74.7305 120.32H76.1385V129.84C76.1385 130.149 76.2185 130.395 76.3785 130.576C76.5492 130.747 76.7838 130.832 77.0825 130.832C77.1998 130.832 77.3385 130.816 77.4985 130.784C77.6585 130.741 77.8078 130.693 77.9465 130.64L78.1705 131.776C77.9358 131.872 77.6585 131.952 77.3385 132.016C77.0185 132.08 76.7358 132.112 76.4905 132.112C75.9465 132.112 75.5145 131.957 75.1945 131.648C74.8852 131.339 74.7305 130.907 74.7305 130.352V120.32ZM82.9246 132.16C82.2953 132.16 81.7193 132.043 81.1966 131.808C80.6846 131.573 80.242 131.259 79.8686 130.864C79.506 130.469 79.2233 130.011 79.0206 129.488C78.818 128.965 78.7166 128.416 78.7166 127.84C78.7166 127.253 78.818 126.699 79.0206 126.176C79.234 125.653 79.522 125.195 79.8846 124.8C80.258 124.405 80.7006 124.091 81.2126 123.856C81.7353 123.621 82.306 123.504 82.9246 123.504C83.5433 123.504 84.114 123.621 84.6366 123.856C85.1593 124.091 85.602 124.405 85.9646 124.8C86.338 125.195 86.626 125.653 86.8286 126.176C87.042 126.699 87.1486 127.253 87.1486 127.84C87.1486 128.416 87.0473 128.965 86.8446 129.488C86.642 130.011 86.354 130.469 85.9806 130.864C85.6073 131.259 85.1593 131.573 84.6366 131.808C84.1246 132.043 83.554 132.16 82.9246 132.16ZM80.1566 127.856C80.1566 128.293 80.226 128.699 80.3646 129.072C80.514 129.445 80.7113 129.771 80.9566 130.048C81.2126 130.325 81.506 130.544 81.8366 130.704C82.178 130.864 82.5406 130.944 82.9246 130.944C83.3086 130.944 83.666 130.864 83.9966 130.704C84.338 130.544 84.6366 130.325 84.8926 130.048C85.1486 129.76 85.346 129.429 85.4846 129.056C85.634 128.672 85.7086 128.261 85.7086 127.824C85.7086 127.397 85.634 126.997 85.4846 126.624C85.346 126.24 85.1486 125.909 84.8926 125.632C84.6366 125.344 84.338 125.12 83.9966 124.96C83.666 124.8 83.3086 124.72 82.9246 124.72C82.5406 124.72 82.178 124.805 81.8366 124.976C81.506 125.136 81.2126 125.36 80.9566 125.648C80.7113 125.925 80.514 126.256 80.3646 126.64C80.226 127.013 80.1566 127.419 80.1566 127.856ZM93.3508 132.16C92.6574 132.16 92.0441 131.989 91.5108 131.648C90.9881 131.307 90.5721 130.875 90.2628 130.352V135.408H88.8548V123.648H90.1028V125.216C90.4334 124.704 90.8601 124.293 91.3828 123.984C91.9161 123.664 92.5028 123.504 93.1428 123.504C93.7188 123.504 94.2468 123.621 94.7268 123.856C95.2068 124.091 95.6228 124.411 95.9748 124.816C96.3268 125.211 96.5988 125.669 96.7908 126.192C96.9934 126.715 97.0948 127.259 97.0948 127.824C97.0948 128.421 97.0041 128.987 96.8228 129.52C96.6414 130.043 96.3854 130.501 96.0548 130.896C95.7241 131.28 95.3294 131.589 94.8708 131.824C94.4121 132.048 93.9054 132.16 93.3508 132.16ZM92.9188 130.944C93.3348 130.944 93.7081 130.859 94.0388 130.688C94.3801 130.507 94.6681 130.272 94.9028 129.984C95.1481 129.685 95.3348 129.349 95.4628 128.976C95.5908 128.603 95.6548 128.219 95.6548 127.824C95.6548 127.408 95.5801 127.013 95.4308 126.64C95.2814 126.256 95.0788 125.925 94.8228 125.648C94.5668 125.36 94.2628 125.136 93.9108 124.976C93.5694 124.805 93.1961 124.72 92.7908 124.72C92.5348 124.72 92.2681 124.773 91.9908 124.88C91.7241 124.976 91.4681 125.109 91.2228 125.28C90.9881 125.44 90.7801 125.637 90.5988 125.872C90.4281 126.096 90.3161 126.336 90.2628 126.592V128.976C90.3801 129.253 90.5294 129.515 90.7108 129.76C90.8921 129.995 91.1001 130.203 91.3348 130.384C91.5694 130.555 91.8201 130.693 92.0868 130.8C92.3534 130.896 92.6308 130.944 92.9188 130.944ZM111.416 132H110.008V127.328C110.008 126.453 109.864 125.808 109.576 125.392C109.298 124.976 108.882 124.768 108.328 124.768C107.752 124.768 107.234 124.976 106.776 125.392C106.328 125.797 106.008 126.325 105.816 126.976V132H104.408V127.328C104.408 126.432 104.269 125.781 103.992 125.376C103.714 124.971 103.298 124.768 102.744 124.768C102.178 124.768 101.666 124.971 101.208 125.376C100.749 125.771 100.424 126.299 100.232 126.96V132H98.8235V123.648H100.104V125.44C100.445 124.821 100.888 124.347 101.432 124.016C101.976 123.675 102.589 123.504 103.272 123.504C103.976 123.504 104.53 123.696 104.936 124.08C105.352 124.453 105.608 124.939 105.704 125.536C106.45 124.181 107.512 123.504 108.888 123.504C109.368 123.504 109.768 123.595 110.088 123.776C110.418 123.947 110.68 124.192 110.872 124.512C111.064 124.821 111.202 125.189 111.288 125.616C111.373 126.043 111.416 126.507 111.416 127.008V132ZM117.301 132.16C116.671 132.16 116.095 132.048 115.573 131.824C115.05 131.589 114.602 131.275 114.229 130.88C113.855 130.485 113.562 130.027 113.349 129.504C113.146 128.971 113.045 128.411 113.045 127.824C113.045 127.237 113.146 126.683 113.349 126.16C113.562 125.637 113.855 125.179 114.229 124.784C114.613 124.389 115.066 124.08 115.589 123.856C116.111 123.621 116.687 123.504 117.317 123.504C117.946 123.504 118.517 123.621 119.029 123.856C119.551 124.091 119.994 124.405 120.357 124.8C120.719 125.184 120.997 125.637 121.189 126.16C121.391 126.672 121.493 127.205 121.493 127.76C121.493 127.877 121.487 127.984 121.477 128.08C121.477 128.176 121.471 128.251 121.461 128.304H114.533C114.565 128.72 114.661 129.099 114.821 129.44C114.981 129.781 115.189 130.075 115.445 130.32C115.701 130.565 115.989 130.757 116.309 130.896C116.639 131.035 116.986 131.104 117.349 131.104C117.605 131.104 117.855 131.072 118.101 131.008C118.346 130.933 118.575 130.837 118.789 130.72C119.002 130.603 119.189 130.459 119.349 130.288C119.519 130.117 119.647 129.925 119.733 129.712L120.949 130.048C120.81 130.357 120.618 130.64 120.373 130.896C120.138 131.152 119.861 131.376 119.541 131.568C119.231 131.749 118.885 131.893 118.501 132C118.117 132.107 117.717 132.16 117.301 132.16ZM120.165 127.264C120.133 126.869 120.031 126.507 119.861 126.176C119.701 125.835 119.493 125.547 119.237 125.312C118.991 125.077 118.703 124.896 118.373 124.768C118.042 124.629 117.69 124.56 117.317 124.56C116.943 124.56 116.591 124.629 116.261 124.768C115.93 124.896 115.637 125.083 115.381 125.328C115.135 125.563 114.933 125.845 114.773 126.176C114.623 126.507 114.533 126.869 114.501 127.264H120.165ZM130.306 132H128.898V127.328C128.898 126.432 128.759 125.781 128.482 125.376C128.215 124.971 127.805 124.768 127.25 124.768C126.962 124.768 126.674 124.827 126.386 124.944C126.098 125.051 125.826 125.2 125.57 125.392C125.314 125.584 125.09 125.813 124.898 126.08C124.706 126.347 124.562 126.64 124.466 126.96V132H123.058V123.648H124.338V125.44C124.669 124.853 125.143 124.384 125.762 124.032C126.391 123.68 127.074 123.504 127.81 123.504C128.29 123.504 128.69 123.595 129.01 123.776C129.33 123.947 129.586 124.192 129.778 124.512C129.97 124.821 130.103 125.189 130.178 125.616C130.263 126.043 130.306 126.507 130.306 127.008V132ZM136.737 131.584C136.652 131.627 136.54 131.68 136.401 131.744C136.263 131.797 136.103 131.856 135.921 131.92C135.751 131.973 135.559 132.016 135.345 132.048C135.143 132.091 134.929 132.112 134.705 132.112C134.193 132.112 133.751 131.973 133.377 131.696C133.004 131.408 132.817 130.965 132.817 130.368V124.752H131.681V123.648H132.817V120.864H134.225V123.648H136.097V124.752H134.225V129.936C134.247 130.245 134.348 130.469 134.529 130.608C134.711 130.747 134.924 130.816 135.169 130.816C135.447 130.816 135.697 130.773 135.921 130.688C136.156 130.592 136.316 130.517 136.401 130.464L136.737 131.584Z" fill="#12233D"/>
<path d="M90.3091 13.9636H84.3091V5.19185C85.5449 4.9824 86.4909 3.91244 86.4909 2.61818C86.4909 1.17469 85.3162 0 83.8727 0C82.4292 0 81.2545 1.17469 81.2545 2.61818C81.2545 3.91244 82.2006 4.98327 83.4364 5.19185V13.9636H75.6909C66.488 13.9636 59 21.4516 59 30.6545V32.2909V34.9091V45.5459C59 48.8239 61.6671 51.4909 64.945 51.4909H101.054C104.333 51.4909 107 48.8239 107 45.5459V34.9091V32.2909V30.6545C107 21.4516 99.5129 13.9636 90.3091 13.9636ZM82.1273 2.61818C82.1273 1.65556 82.9101 0.872727 83.8727 0.872727C84.8353 0.872727 85.6182 1.65556 85.6182 2.61818C85.6182 3.5808 84.8353 4.36364 83.8727 4.36364C82.9101 4.36364 82.1273 3.5808 82.1273 2.61818ZM106.127 34.9091V45.5459C106.127 48.3421 103.852 50.6182 101.054 50.6182H64.945C62.1479 50.6182 59.8727 48.343 59.8727 45.5459V34.9091V32.2909V30.6545C59.8727 21.9325 66.9689 14.8364 75.6909 14.8364H83.4364H84.3091H90.3091C99.0311 14.8364 106.127 21.9325 106.127 30.6545V32.2909V34.9091Z" fill="#12233D"/>
<path d="M68.0599 21.4456C69.4527 20.0963 71.2793 19.2594 73.2055 19.0883C73.4455 19.0674 73.6235 18.8553 73.6017 18.6153C73.5799 18.3753 73.3678 18.1973 73.1287 18.2191C71.0044 18.4076 68.9884 19.3301 67.4524 20.8189C67.2796 20.9865 67.2753 21.2623 67.4428 21.436C67.5284 21.5241 67.6427 21.5686 67.7561 21.5686C67.8661 21.5686 67.9752 21.5276 68.0599 21.4456Z" fill="#D62C2C" stroke="#D62C2C" stroke-width="0.5"/>
<path d="M89.5454 30.5454C88.1019 30.5454 86.9272 31.7201 86.9272 33.1636C86.9272 34.6071 88.1019 35.7818 89.5454 35.7818C90.9889 35.7818 92.1636 34.6071 92.1636 33.1636C92.1636 31.7201 90.9889 30.5454 89.5454 30.5454ZM89.5454 34.909C88.5828 34.909 87.8 34.1262 87.8 33.1636C87.8 32.201 88.5828 31.4181 89.5454 31.4181C90.508 31.4181 91.2909 32.201 91.2909 33.1636C91.2909 34.1262 90.508 34.909 89.5454 34.909Z" fill="#12233D"/>
<path d="M75.5818 30.5454C74.1383 30.5454 72.9636 31.7201 72.9636 33.1636C72.9636 34.6071 74.1383 35.7818 75.5818 35.7818C77.0253 35.7818 78.2 34.6071 78.2 33.1636C78.2 31.7201 77.0253 30.5454 75.5818 30.5454ZM75.5818 34.909C74.6192 34.909 73.8364 34.1262 73.8364 33.1636C73.8364 32.201 74.6192 31.4181 75.5818 31.4181C76.5444 31.4181 77.3273 32.201 77.3273 33.1636C77.3273 34.1262 76.5444 34.909 75.5818 34.909Z" fill="#12233D"/>
<path d="M92.3277 22.6909H73.6732C70.3943 22.6909 67.7273 25.3588 67.7273 28.6368V36.8186C67.7273 40.0966 70.3943 42.7636 73.6732 42.7636H88.5296C88.6343 43.3597 88.9703 44.4672 90.0438 45.4482C91.4524 46.7363 93.3785 46.8524 93.4605 46.8567C93.4684 46.8576 93.4762 46.8576 93.4832 46.8576C93.629 46.8576 93.7642 46.7843 93.8463 46.6621C93.9318 46.5338 93.9423 46.3689 93.8751 46.2301C93.8716 46.2231 93.5295 45.5014 93.4439 44.3014C93.3863 43.4915 93.4841 42.9277 93.5548 42.6441C96.2629 42.0786 98.2719 39.5686 98.2719 36.6903V28.6368C98.2728 25.3588 95.6057 22.6909 92.3277 22.6909ZM97.4 36.6903C97.4 39.2387 95.5725 41.4484 93.149 41.8316C92.9997 41.8551 92.8741 41.9546 92.8147 42.0943C92.7999 42.1274 92.4709 42.9312 92.5738 44.366C92.6192 44.9908 92.7257 45.5031 92.8313 45.8802C92.23 45.7466 91.3389 45.4499 90.632 44.805C89.4015 43.68 89.3561 42.3858 89.3543 42.322C89.3509 42.0838 89.1562 41.8918 88.918 41.8918H73.6732C70.8761 41.8918 68.6 39.6166 68.6 36.8195V28.6377C68.6 25.8397 70.8761 23.5645 73.6732 23.5645H92.3277C95.1239 23.5645 97.4 25.8406 97.4 28.6377V36.6903Z" fill="#12233D"/>
<path d="M92.5999 54.1089H74.2727C74.0318 54.1089 73.8363 54.3044 73.8363 54.5453C73.8363 54.7861 74.0318 54.9816 74.2727 54.9816H92.5999C92.8408 54.9816 93.0363 54.7861 93.0363 54.5453C93.0363 54.3044 92.8408 54.1089 92.5999 54.1089Z" fill="#12233D"/>
</svg>
