<svg width="172" height="143" viewBox="0 0 172 143" fill="none" xmlns="http://www.w3.org/2000/svg">
<path d="M36.7387 118V109.216L32.9627 115.952H32.1467L28.3547 109.216V118H26.9147V106.64H28.4347L32.5467 114.016L36.6747 106.64H38.1787V118H36.7387ZM40.6751 118V109.648H42.0831V118H40.6751ZM40.6751 108.08V106.32H42.0831V108.08H40.6751ZM51.6106 118H50.2026V113.328C50.2026 112.432 50.0639 111.781 49.7866 111.376C49.5199 110.971 49.1092 110.768 48.5546 110.768C48.2666 110.768 47.9786 110.827 47.6906 110.944C47.4026 111.051 47.1306 111.2 46.8746 111.392C46.6186 111.584 46.3946 111.813 46.2026 112.08C46.0106 112.347 45.8666 112.64 45.7706 112.96V118H44.3626V109.648H45.6426V111.44C45.9732 110.853 46.4479 110.384 47.0666 110.032C47.6959 109.68 48.3786 109.504 49.1146 109.504C49.5946 109.504 49.9946 109.595 50.3146 109.776C50.6346 109.947 50.8906 110.192 51.0826 110.512C51.2746 110.821 51.4079 111.189 51.4826 111.616C51.5679 112.043 51.6106 112.507 51.6106 113.008V118ZM53.8001 118V109.648H55.2081V118H53.8001ZM53.8001 108.08V106.32H55.2081V108.08H53.8001ZM70.0796 118H68.6716V113.328C68.6716 112.453 68.5276 111.808 68.2396 111.392C67.9622 110.976 67.5462 110.768 66.9916 110.768C66.4156 110.768 65.8982 110.976 65.4396 111.392C64.9916 111.797 64.6716 112.325 64.4796 112.976V118H63.0716V113.328C63.0716 112.432 62.9329 111.781 62.6556 111.376C62.3782 110.971 61.9622 110.768 61.4076 110.768C60.8422 110.768 60.3302 110.971 59.8716 111.376C59.4129 111.771 59.0876 112.299 58.8956 112.96V118H57.4876V109.648H58.7676V111.44C59.1089 110.821 59.5516 110.347 60.0956 110.016C60.6396 109.675 61.2529 109.504 61.9356 109.504C62.6396 109.504 63.1942 109.696 63.5996 110.08C64.0156 110.453 64.2716 110.939 64.3676 111.536C65.1142 110.181 66.1756 109.504 67.5516 109.504C68.0316 109.504 68.4316 109.595 68.7516 109.776C69.0822 109.947 69.3436 110.192 69.5356 110.512C69.7276 110.821 69.8662 111.189 69.9516 111.616C70.0369 112.043 70.0796 112.507 70.0796 113.008V118ZM74.8448 118.16C73.9701 118.16 73.3088 117.867 72.8608 117.28C72.4128 116.693 72.1888 115.819 72.1888 114.656V109.648H73.5968V114.384C73.5968 116.091 74.1888 116.944 75.3728 116.944C75.9488 116.944 76.4875 116.763 76.9888 116.4C77.5008 116.027 77.8795 115.52 78.1248 114.88V109.648H79.5328V116.272C79.5328 116.603 79.6821 116.773 79.9808 116.784V118C79.8208 118.021 79.6928 118.032 79.5968 118.032C79.5115 118.043 79.4261 118.048 79.3408 118.048C79.0635 118.048 78.8288 117.968 78.6368 117.808C78.4555 117.637 78.3595 117.429 78.3488 117.184L78.3168 116.208C77.9435 116.837 77.4528 117.323 76.8448 117.664C76.2368 117.995 75.5701 118.16 74.8448 118.16ZM94.4702 118H93.0622V113.328C93.0622 112.453 92.9182 111.808 92.6302 111.392C92.3529 110.976 91.9369 110.768 91.3822 110.768C90.8062 110.768 90.2889 110.976 89.8302 111.392C89.3822 111.797 89.0622 112.325 88.8702 112.976V118H87.4622V113.328C87.4622 112.432 87.3235 111.781 87.0462 111.376C86.7689 110.971 86.3529 110.768 85.7982 110.768C85.2329 110.768 84.7209 110.971 84.2622 111.376C83.8035 111.771 83.4782 112.299 83.2862 112.96V118H81.8782V109.648H83.1582V111.44C83.4995 110.821 83.9422 110.347 84.4862 110.016C85.0302 109.675 85.6435 109.504 86.3262 109.504C87.0302 109.504 87.5849 109.696 87.9902 110.08C88.4062 110.453 88.6622 110.939 88.7582 111.536C89.5049 110.181 90.5662 109.504 91.9422 109.504C92.4222 109.504 92.8222 109.595 93.1422 109.776C93.4729 109.947 93.7342 110.192 93.9262 110.512C94.1182 110.821 94.2569 111.189 94.3422 111.616C94.4275 112.043 94.4702 112.507 94.4702 113.008V118ZM100.703 106.64L104.463 116.192L108.207 106.64H109.727L105.087 118H103.839L99.1834 106.64H100.703ZM111.034 118V109.648H112.442V118H111.034ZM111.034 108.08V106.32H112.442V108.08H111.034ZM116.866 118.16C116.471 118.16 116.103 118.096 115.762 117.968C115.421 117.829 115.122 117.643 114.866 117.408C114.621 117.173 114.423 116.901 114.274 116.592C114.135 116.272 114.066 115.925 114.066 115.552C114.066 115.168 114.151 114.821 114.322 114.512C114.493 114.192 114.733 113.92 115.042 113.696C115.362 113.472 115.735 113.296 116.162 113.168C116.599 113.04 117.074 112.976 117.586 112.976C117.991 112.976 118.402 113.013 118.818 113.088C119.234 113.163 119.602 113.264 119.922 113.392V112.72C119.922 112.037 119.73 111.504 119.346 111.12C118.962 110.725 118.418 110.528 117.714 110.528C116.871 110.528 115.986 110.853 115.058 111.504L114.594 110.592C115.671 109.867 116.754 109.504 117.842 109.504C118.941 109.504 119.794 109.797 120.402 110.384C121.021 110.971 121.33 111.797 121.33 112.864V116.272C121.33 116.603 121.479 116.773 121.778 116.784V118C121.629 118.021 121.506 118.037 121.41 118.048C121.314 118.059 121.213 118.064 121.106 118.064C120.829 118.064 120.605 117.984 120.434 117.824C120.274 117.653 120.178 117.451 120.146 117.216L120.114 116.624C119.741 117.125 119.266 117.509 118.69 117.776C118.125 118.032 117.517 118.16 116.866 118.16ZM117.234 117.104C117.735 117.104 118.199 117.013 118.626 116.832C119.063 116.64 119.394 116.389 119.618 116.08C119.821 115.877 119.922 115.669 119.922 115.456V114.224C119.239 113.957 118.53 113.824 117.794 113.824C117.09 113.824 116.514 113.973 116.066 114.272C115.629 114.571 115.41 114.96 115.41 115.44C115.41 115.675 115.453 115.893 115.538 116.096C115.634 116.299 115.762 116.475 115.922 116.624C116.093 116.773 116.29 116.891 116.514 116.976C116.738 117.061 116.978 117.104 117.234 117.104ZM127.869 118.16C127.219 118.16 126.627 118 126.093 117.68C125.56 117.36 125.139 116.944 124.829 116.432V118H123.581V106.32H124.989V111.312C125.341 110.768 125.773 110.331 126.285 110C126.797 109.669 127.395 109.504 128.077 109.504C128.653 109.504 129.171 109.627 129.629 109.872C130.088 110.117 130.477 110.443 130.797 110.848C131.128 111.243 131.379 111.707 131.549 112.24C131.731 112.763 131.821 113.301 131.821 113.856C131.821 114.443 131.72 114.997 131.517 115.52C131.315 116.043 131.037 116.501 130.685 116.896C130.333 117.28 129.912 117.589 129.421 117.824C128.941 118.048 128.424 118.16 127.869 118.16ZM127.517 116.944C127.933 116.944 128.317 116.859 128.669 116.688C129.021 116.517 129.325 116.288 129.581 116C129.837 115.712 130.035 115.387 130.173 115.024C130.312 114.651 130.381 114.261 130.381 113.856C130.381 113.451 130.312 113.061 130.173 112.688C130.045 112.304 129.859 111.968 129.613 111.68C129.379 111.392 129.091 111.163 128.749 110.992C128.419 110.811 128.051 110.72 127.645 110.72C127.347 110.72 127.064 110.773 126.797 110.88C126.531 110.987 126.28 111.131 126.045 111.312C125.821 111.483 125.619 111.685 125.437 111.92C125.267 112.155 125.117 112.405 124.989 112.672V115.088C125.043 115.355 125.155 115.6 125.325 115.824C125.507 116.048 125.715 116.245 125.949 116.416C126.195 116.576 126.451 116.704 126.717 116.8C126.995 116.896 127.261 116.944 127.517 116.944ZM133.582 106.32H134.99V115.84C134.99 116.149 135.07 116.395 135.23 116.576C135.401 116.747 135.635 116.832 135.934 116.832C136.051 116.832 136.19 116.816 136.35 116.784C136.51 116.741 136.659 116.693 136.798 116.64L137.022 117.776C136.787 117.872 136.51 117.952 136.19 118.016C135.87 118.08 135.587 118.112 135.342 118.112C134.798 118.112 134.366 117.957 134.046 117.648C133.737 117.339 133.582 116.907 133.582 116.352V106.32ZM141.824 118.16C141.195 118.16 140.619 118.048 140.096 117.824C139.574 117.589 139.126 117.275 138.752 116.88C138.379 116.485 138.086 116.027 137.872 115.504C137.67 114.971 137.568 114.411 137.568 113.824C137.568 113.237 137.67 112.683 137.872 112.16C138.086 111.637 138.379 111.179 138.752 110.784C139.136 110.389 139.59 110.08 140.112 109.856C140.635 109.621 141.211 109.504 141.84 109.504C142.47 109.504 143.04 109.621 143.552 109.856C144.075 110.091 144.518 110.405 144.88 110.8C145.243 111.184 145.52 111.637 145.712 112.16C145.915 112.672 146.016 113.205 146.016 113.76C146.016 113.877 146.011 113.984 146 114.08C146 114.176 145.995 114.251 145.984 114.304H139.056C139.088 114.72 139.184 115.099 139.344 115.44C139.504 115.781 139.712 116.075 139.968 116.32C140.224 116.565 140.512 116.757 140.832 116.896C141.163 117.035 141.51 117.104 141.872 117.104C142.128 117.104 142.379 117.072 142.624 117.008C142.87 116.933 143.099 116.837 143.312 116.72C143.526 116.603 143.712 116.459 143.872 116.288C144.043 116.117 144.171 115.925 144.256 115.712L145.472 116.048C145.334 116.357 145.142 116.64 144.896 116.896C144.662 117.152 144.384 117.376 144.064 117.568C143.755 117.749 143.408 117.893 143.024 118C142.64 118.107 142.24 118.16 141.824 118.16ZM144.688 113.264C144.656 112.869 144.555 112.507 144.384 112.176C144.224 111.835 144.016 111.547 143.76 111.312C143.515 111.077 143.227 110.896 142.896 110.768C142.566 110.629 142.214 110.56 141.84 110.56C141.467 110.56 141.115 110.629 140.784 110.768C140.454 110.896 140.16 111.083 139.904 111.328C139.659 111.563 139.456 111.845 139.296 112.176C139.147 112.507 139.056 112.869 139.024 113.264H144.688ZM57.6959 142V130.64H62.4319C62.9333 130.64 63.3919 130.747 63.8079 130.96C64.2346 131.163 64.5973 131.44 64.8959 131.792C65.2053 132.133 65.4453 132.523 65.6159 132.96C65.7866 133.387 65.8719 133.824 65.8719 134.272C65.8719 134.741 65.7919 135.195 65.6319 135.632C65.4719 136.069 65.2426 136.459 64.9439 136.8C64.6559 137.141 64.3039 137.413 63.8879 137.616C63.4826 137.819 63.0293 137.92 62.5279 137.92H59.1359V142H57.6959ZM59.1359 136.64H62.4479C62.7466 136.64 63.0133 136.581 63.2479 136.464C63.4933 136.336 63.7013 136.165 63.8719 135.952C64.0426 135.728 64.1759 135.472 64.2719 135.184C64.3679 134.896 64.4159 134.592 64.4159 134.272C64.4159 133.941 64.3573 133.632 64.2399 133.344C64.1333 133.056 63.9839 132.805 63.7919 132.592C63.6106 132.379 63.3919 132.213 63.1359 132.096C62.8906 131.979 62.6293 131.92 62.3519 131.92H59.1359V136.64ZM71.8567 134.88C71.1527 134.901 70.5287 135.083 69.9847 135.424C69.4514 135.765 69.0727 136.24 68.8487 136.848V142H67.4407V133.648H68.7527V135.584C69.0407 135.008 69.4194 134.544 69.8887 134.192C70.358 133.829 70.8594 133.627 71.3927 133.584C71.4994 133.584 71.59 133.584 71.6647 133.584C71.7394 133.584 71.8034 133.589 71.8567 133.6V134.88ZM76.7137 142.16C76.0844 142.16 75.5084 142.043 74.9857 141.808C74.4737 141.573 74.031 141.259 73.6577 140.864C73.295 140.469 73.0124 140.011 72.8097 139.488C72.607 138.965 72.5057 138.416 72.5057 137.84C72.5057 137.253 72.607 136.699 72.8097 136.176C73.023 135.653 73.311 135.195 73.6737 134.8C74.047 134.405 74.4897 134.091 75.0017 133.856C75.5244 133.621 76.095 133.504 76.7137 133.504C77.3324 133.504 77.903 133.621 78.4257 133.856C78.9484 134.091 79.391 134.405 79.7537 134.8C80.127 135.195 80.415 135.653 80.6177 136.176C80.831 136.699 80.9377 137.253 80.9377 137.84C80.9377 138.416 80.8364 138.965 80.6337 139.488C80.431 140.011 80.143 140.469 79.7697 140.864C79.3964 141.259 78.9484 141.573 78.4257 141.808C77.9137 142.043 77.343 142.16 76.7137 142.16ZM73.9457 137.856C73.9457 138.293 74.015 138.699 74.1537 139.072C74.303 139.445 74.5004 139.771 74.7457 140.048C75.0017 140.325 75.295 140.544 75.6257 140.704C75.967 140.864 76.3297 140.944 76.7137 140.944C77.0977 140.944 77.455 140.864 77.7857 140.704C78.127 140.544 78.4257 140.325 78.6817 140.048C78.9377 139.76 79.135 139.429 79.2737 139.056C79.423 138.672 79.4977 138.261 79.4977 137.824C79.4977 137.397 79.423 136.997 79.2737 136.624C79.135 136.24 78.9377 135.909 78.6817 135.632C78.4257 135.344 78.127 135.12 77.7857 134.96C77.455 134.8 77.0977 134.72 76.7137 134.72C76.3297 134.72 75.967 134.805 75.6257 134.976C75.295 135.136 75.0017 135.36 74.7457 135.648C74.5004 135.925 74.303 136.256 74.1537 136.64C74.015 137.013 73.9457 137.419 73.9457 137.856ZM86.0838 142.16C85.5078 142.16 84.9745 142.043 84.4838 141.808C83.9931 141.573 83.5718 141.259 83.2198 140.864C82.8678 140.469 82.5905 140.011 82.3878 139.488C82.1958 138.965 82.0998 138.416 82.0998 137.84C82.0998 137.253 82.1905 136.699 82.3718 136.176C82.5638 135.643 82.8251 135.179 83.1558 134.784C83.4971 134.389 83.8971 134.08 84.3558 133.856C84.8251 133.621 85.3371 133.504 85.8918 133.504C86.5638 133.504 87.1611 133.68 87.6838 134.032C88.2171 134.384 88.6385 134.811 88.9478 135.312V130.32H90.3558V140.272C90.3558 140.603 90.5051 140.773 90.8038 140.784V142C90.6545 142.021 90.5318 142.037 90.4358 142.048C90.3505 142.059 90.2651 142.064 90.1798 142.064C89.9025 142.064 89.6571 141.973 89.4438 141.792C89.2411 141.6 89.1398 141.381 89.1398 141.136V140.432C88.8091 140.976 88.3665 141.403 87.8118 141.712C87.2678 142.011 86.6918 142.16 86.0838 142.16ZM86.4198 140.944C86.6758 140.944 86.9371 140.896 87.2038 140.8C87.4811 140.704 87.7371 140.571 87.9718 140.4C88.2171 140.229 88.4251 140.032 88.5958 139.808C88.7771 139.573 88.8945 139.328 88.9478 139.072V136.672C88.8518 136.405 88.7078 136.155 88.5158 135.92C88.3238 135.675 88.1051 135.467 87.8598 135.296C87.6251 135.115 87.3691 134.976 87.0918 134.88C86.8251 134.773 86.5585 134.72 86.2918 134.72C85.8758 134.72 85.4971 134.811 85.1558 134.992C84.8251 135.163 84.5371 135.397 84.2918 135.696C84.0571 135.984 83.8758 136.32 83.7478 136.704C83.6198 137.077 83.5558 137.461 83.5558 137.856C83.5558 138.272 83.6305 138.672 83.7798 139.056C83.9291 139.429 84.1318 139.755 84.3878 140.032C84.6438 140.309 84.9425 140.533 85.2838 140.704C85.6358 140.864 86.0145 140.944 86.4198 140.944ZM95.2823 142.16C94.4076 142.16 93.7463 141.867 93.2983 141.28C92.8503 140.693 92.6263 139.819 92.6263 138.656V133.648H94.0343V138.384C94.0343 140.091 94.6263 140.944 95.8103 140.944C96.3863 140.944 96.925 140.763 97.4263 140.4C97.9383 140.027 98.317 139.52 98.5623 138.88V133.648H99.9703V140.272C99.9703 140.603 100.12 140.773 100.418 140.784V142C100.258 142.021 100.13 142.032 100.034 142.032C99.949 142.043 99.8636 142.048 99.7783 142.048C99.501 142.048 99.2663 141.968 99.0743 141.808C98.893 141.637 98.797 141.429 98.7863 141.184L98.7543 140.208C98.381 140.837 97.8903 141.323 97.2823 141.664C96.6743 141.995 96.0076 142.16 95.2823 142.16ZM101.756 137.808C101.756 137.221 101.857 136.667 102.06 136.144C102.262 135.621 102.55 135.168 102.924 134.784C103.297 134.389 103.74 134.08 104.252 133.856C104.774 133.621 105.356 133.504 105.996 133.504C106.828 133.504 107.542 133.691 108.14 134.064C108.748 134.427 109.206 134.917 109.516 135.536L108.14 135.968C107.926 135.573 107.628 135.269 107.244 135.056C106.86 134.832 106.433 134.72 105.964 134.72C105.58 134.72 105.217 134.8 104.876 134.96C104.534 135.109 104.241 135.323 103.996 135.6C103.75 135.877 103.553 136.203 103.404 136.576C103.265 136.949 103.196 137.36 103.196 137.808C103.196 138.245 103.27 138.656 103.42 139.04C103.569 139.424 103.766 139.76 104.012 140.048C104.268 140.325 104.561 140.544 104.892 140.704C105.233 140.864 105.596 140.944 105.98 140.944C106.225 140.944 106.465 140.912 106.7 140.848C106.945 140.773 107.164 140.677 107.356 140.56C107.558 140.443 107.734 140.309 107.884 140.16C108.033 140 108.14 139.829 108.204 139.648L109.58 140.064C109.452 140.373 109.27 140.656 109.036 140.912C108.812 141.168 108.545 141.387 108.236 141.568C107.926 141.749 107.58 141.893 107.196 142C106.822 142.107 106.428 142.16 106.012 142.16C105.382 142.16 104.806 142.043 104.284 141.808C103.761 141.573 103.313 141.259 102.94 140.864C102.566 140.469 102.273 140.011 102.06 139.488C101.857 138.955 101.756 138.395 101.756 137.808ZM115.495 141.584C115.41 141.627 115.298 141.68 115.159 141.744C115.02 141.797 114.86 141.856 114.679 141.92C114.508 141.973 114.316 142.016 114.103 142.048C113.9 142.091 113.687 142.112 113.463 142.112C112.951 142.112 112.508 141.973 112.135 141.696C111.762 141.408 111.575 140.965 111.575 140.368V134.752H110.439V133.648H111.575V130.864H112.983V133.648H114.855V134.752H112.983V139.936C113.004 140.245 113.106 140.469 113.287 140.608C113.468 140.747 113.682 140.816 113.927 140.816C114.204 140.816 114.455 140.773 114.679 140.688C114.914 140.592 115.074 140.517 115.159 140.464L115.495 141.584Z" fill="#12233D"/>
<path d="M80.291 6.65994C82.0451 4.11042 83.8298 2.22377 85.6451 1C87.4603 2.22377 89.245 4.11042 90.9991 6.65994C94.5072 11.759 96.1185 17.6229 95.833 24.2517C96.8324 24.8228 97.8114 25.5672 98.77 26.4851C100.667 28.3411 101.493 30.1972 101.248 32.0532L100.575 36.9789C99.8816 40.2627 98.9638 41.9352 97.8216 41.9964C97.3321 41.9964 96.6896 41.7924 95.8941 41.3845C94.2828 40.589 92.6817 39.2123 91.0908 37.2542L89.5305 38.3556C88.2456 39.0899 86.9504 39.4366 85.6451 39.3958C84.3397 39.4366 83.0445 39.0899 81.7596 38.3556L80.1993 37.2542C78.6084 39.2123 77.0073 40.589 75.396 41.3845C74.6005 41.7924 73.958 41.9964 73.4685 41.9964C72.3263 41.9352 71.4085 40.2627 70.715 36.9789L70.042 32.0532C69.7972 30.1972 70.6233 28.3411 72.5201 26.4851C73.4787 25.5672 74.4577 24.8228 75.4571 24.2517C75.1716 17.6229 76.7829 11.759 80.291 6.65994Z" stroke="#12233D" stroke-linecap="round" stroke-linejoin="round"/>
<line x1="93.1834" y1="53.207" x2="89.7015" y2="43.6406" stroke="#D62C2C" stroke-linecap="round" stroke-linejoin="round"/>
<line x1="81.1231" y1="43.6409" x2="77.6412" y2="53.2072" stroke="#D62C2C" stroke-linecap="round" stroke-linejoin="round"/>
<line x1="85.5" y1="44.5" x2="85.5" y2="54.6803" stroke="#D62C2C" stroke-linecap="round" stroke-linejoin="round"/>
<path d="M87.5 14.5C87.5 15.674 87.2346 16.7122 86.8307 17.4392C86.4174 18.1831 85.9263 18.5 85.5 18.5C85.0737 18.5 84.5826 18.1831 84.1693 17.4392C83.7654 16.7122 83.5 15.674 83.5 14.5C83.5 13.326 83.7654 12.2878 84.1693 11.5608C84.5826 10.8169 85.0737 10.5 85.5 10.5C85.9263 10.5 86.4174 10.8169 86.8307 11.5608C87.2346 12.2878 87.5 13.326 87.5 14.5Z" stroke="#12233D"/>
</svg>
