<svg width="48" height="96" viewBox="0 0 48 96" fill="none" xmlns="http://www.w3.org/2000/svg">
<g clip-path="url(#clip0)">
<path fill-rule="evenodd" clip-rule="evenodd" d="M24 57C24.4243 57 24.8313 57.158 25.1314 57.4393C25.4314 57.7206 25.6 58.1022 25.6 58.5V64.5C25.6 64.8978 25.4314 65.2794 25.1314 65.5607C24.8313 65.842 24.4243 66 24 66C23.5757 66 23.1687 65.842 22.8686 65.5607C22.5686 65.2794 22.4 64.8978 22.4 64.5V58.5C22.4 58.1022 22.5686 57.7206 22.8686 57.4393C23.1687 57.158 23.5757 57 24 57ZM36.8 81V63C36.8 59.8174 35.4514 56.7652 33.051 54.5147C30.6505 52.2643 27.3948 51 24 51C20.6052 51 17.3495 52.2643 14.949 54.5147C12.5486 56.7652 11.2 59.8174 11.2 63V81C11.2 84.1826 12.5486 87.2348 14.949 89.4853C17.3495 91.7357 20.6052 93 24 93C27.3948 93 30.6505 91.7357 33.051 89.4853C35.4514 87.2348 36.8 84.1826 36.8 81ZM24 48C19.7565 48 15.6869 49.5804 12.6863 52.3934C9.68571 55.2064 8 59.0218 8 63V81C8 84.9782 9.68571 88.7936 12.6863 91.6066C15.6869 94.4196 19.7565 96 24 96C28.2435 96 32.3131 94.4196 35.3137 91.6066C38.3143 88.7936 40 84.9782 40 81V63C40 59.0218 38.3143 55.2064 35.3137 52.3934C32.3131 49.5804 28.2435 48 24 48V48Z" fill="#D62C2C"/>
</g>
<path fill-rule="evenodd" clip-rule="evenodd" d="M15.4743 35.9516C15.757 35.9516 16.0397 35.8806 16.291 35.7271L24.1175 30.9665L31.7029 35.7741C32.0291 35.9721 32.4283 36.044 32.8126 35.9737C33.1969 35.9035 33.5349 35.6969 33.7522 35.3995C33.9694 35.1021 34.0482 34.7381 33.9712 34.3878C33.8941 34.0374 33.6675 33.7293 33.3413 33.5312L24.938 28.2276C24.6958 28.0796 24.4108 28.0004 24.1192 28C23.8276 27.9996 23.5423 28.078 23.2996 28.2253L14.6551 33.4819C14.3921 33.6429 14.1927 33.8766 14.0862 34.1485C13.9797 34.4205 13.9717 34.7164 14.0634 34.9928C14.1551 35.2693 14.3416 35.5116 14.5956 35.6841C14.8495 35.8567 15.1575 35.9505 15.4743 35.9516Z" fill="#D62C2C"/>
<path opacity="0.6" fill-rule="evenodd" clip-rule="evenodd" d="M15.4743 27.9516C15.757 27.9516 16.0397 27.8806 16.291 27.7271L24.1175 22.9665L31.7029 27.7741C32.0291 27.9721 32.4283 28.044 32.8126 27.9737C33.1969 27.9035 33.5349 27.6969 33.7522 27.3995C33.9694 27.1021 34.0482 26.7381 33.9712 26.3878C33.8941 26.0374 33.6675 25.7293 33.3413 25.5312L24.938 20.2276C24.6958 20.0796 24.4108 20.0004 24.1192 20C23.8276 19.9996 23.5423 20.078 23.2996 20.2253L14.6551 25.4819C14.3921 25.6429 14.1927 25.8766 14.0862 26.1485C13.9797 26.4205 13.9717 26.7164 14.0634 26.9928C14.1551 27.2693 14.3416 27.5116 14.5956 27.6841C14.8495 27.8567 15.1575 27.9505 15.4743 27.9516Z" fill="#D62C2C"/>
<path opacity="0.2" fill-rule="evenodd" clip-rule="evenodd" d="M15.4743 19.9516C15.757 19.9516 16.0397 19.8806 16.291 19.7271L24.1175 14.9665L31.7029 19.7741C32.0291 19.9721 32.4283 20.044 32.8126 19.9737C33.1969 19.9035 33.5349 19.6969 33.7522 19.3995C33.9694 19.1021 34.0482 18.7381 33.9712 18.3878C33.8941 18.0374 33.6675 17.7293 33.3413 17.5312L24.938 12.2276C24.6958 12.0796 24.4108 12.0004 24.1192 12C23.8276 11.9996 23.5423 12.078 23.2996 12.2253L14.6551 17.4819C14.3921 17.6429 14.1927 17.8766 14.0862 18.1485C13.9797 18.4205 13.9717 18.7164 14.0634 18.9928C14.1551 19.2693 14.3416 19.5116 14.5956 19.6841C14.8495 19.8567 15.1575 19.9505 15.4743 19.9516Z" fill="#D62C2C"/>
<defs>
<clipPath id="clip0">
<rect width="48" height="48" fill="white" transform="translate(0 48)"/>
</clipPath>
</defs>
</svg>
