<svg width="26" height="18" viewBox="0 0 26 18" fill="none" xmlns="http://www.w3.org/2000/svg">
<path d="M25.0764 9.21176H0.511764C0.229117 9.21176 0 8.98259 0 8.7C0 8.41735 0.229117 8.18823 0.511764 8.18823H25.0764C25.359 8.18823 25.5882 8.41735 25.5882 8.7C25.5882 8.98259 25.359 9.21176 25.0764 9.21176Z" fill="#12233D" fill-opacity="0.5"/>
<path d="M16.888 17.4C16.757 17.4 16.6261 17.35 16.5261 17.2501C16.3263 17.0503 16.3263 16.7262 16.5261 16.5263L24.3524 8.70003L16.5261 0.873671C16.3263 0.673827 16.3263 0.349778 16.5261 0.149883C16.726 -0.049961 17.0499 -0.049961 17.2499 0.149883L25.4381 8.33811C25.638 8.53795 25.638 8.862 25.4381 9.0619L17.2499 17.2501C17.1499 17.35 17.019 17.4 16.888 17.4Z" fill="#12233D" fill-opacity="0.5"/>
</svg>
