<svg width="613" height="149" viewBox="0 0 613 149" fill="none" xmlns="http://www.w3.org/2000/svg">
<rect width="62" height="62" fill="#12233D"/>
<rect y="87" width="62" height="62" fill="#12233D"/>
<path d="M197.88 37.8002V123H189.6V83.1602H139.08V123H130.68V37.8002H139.08V75.7202H189.6V37.8002H197.88Z" fill="#12233D"/>
<path d="M276.513 115.56V123H219.273V37.8002H275.433V45.2402H227.673V75.9602H269.313V83.0402H227.673V115.56H276.513Z" fill="#12233D"/>
<path d="M356.478 101.04C356.478 104.24 355.838 107.2 354.558 109.92C353.278 112.56 351.558 114.88 349.398 116.88C347.238 118.8 344.718 120.32 341.838 121.44C338.958 122.48 335.878 123 332.598 123H292.398V37.8002H333.438C336.398 37.8002 339.078 38.4402 341.478 39.7202C343.878 41.0002 345.918 42.6802 347.598 44.7602C349.278 46.7602 350.558 49.0802 351.438 51.7202C352.398 54.2802 352.878 56.8802 352.878 59.5202C352.878 63.8402 351.798 67.8002 349.638 71.4002C347.478 74.9202 344.478 77.5602 340.638 79.3202C345.518 80.7602 349.358 83.4402 352.158 87.3602C355.038 91.2802 356.478 95.8402 356.478 101.04ZM348.078 99.6002C348.078 97.5202 347.718 95.5202 346.998 93.6002C346.278 91.6002 345.238 89.8802 343.878 88.4402C342.598 86.9202 341.038 85.7202 339.198 84.8402C337.438 83.8802 335.518 83.4002 333.438 83.4002H300.798V115.68H332.598C334.758 115.68 336.758 115.24 338.598 114.36C340.518 113.48 342.158 112.32 343.518 110.88C344.958 109.36 346.078 107.64 346.878 105.72C347.678 103.72 348.078 101.68 348.078 99.6002ZM300.798 45.1202V76.5602H330.078C332.158 76.5602 334.078 76.1202 335.838 75.2402C337.678 74.3602 339.238 73.2002 340.518 71.7602C341.798 70.3202 342.798 68.6802 343.518 66.8402C344.238 64.9202 344.598 62.9202 344.598 60.8402C344.598 58.6802 344.238 56.6402 343.518 54.7202C342.878 52.8002 341.918 51.1602 340.638 49.8002C339.438 48.3602 337.998 47.2402 336.318 46.4402C334.638 45.5602 332.798 45.1202 330.798 45.1202H300.798Z" fill="#12233D"/>
<path d="M372.32 123V37.8002H408.32C412 37.8002 415.36 38.6002 418.4 40.2002C421.52 41.7202 424.2 43.7602 426.44 46.3202C428.68 48.8002 430.4 51.6402 431.6 54.8402C432.88 58.0402 433.52 61.2802 433.52 64.5602C433.52 67.6802 433.04 70.6802 432.08 73.5602C431.2 76.3602 429.92 78.9202 428.24 81.2402C426.64 83.4802 424.68 85.4002 422.36 87.0002C420.04 88.5202 417.44 89.5602 414.56 90.1202L435.44 123H425.96L405.92 91.5602H380.72V123H372.32ZM380.72 84.1202H408.56C411.04 84.1202 413.28 83.6002 415.28 82.5602C417.36 81.4402 419.12 79.9602 420.56 78.1202C422 76.2802 423.12 74.2002 423.92 71.8802C424.72 69.5602 425.12 67.1202 425.12 64.5602C425.12 62.0002 424.64 59.5602 423.68 57.2402C422.8 54.8402 421.56 52.7602 419.96 51.0002C418.44 49.2402 416.6 47.8402 414.44 46.8002C412.36 45.7602 410.16 45.2402 407.84 45.2402H380.72V84.1202Z" fill="#12233D"/>
<path d="M485.039 123.6C479.119 123.6 473.679 122.4 468.719 120C463.839 117.52 459.639 114.28 456.119 110.28C452.599 106.2 449.879 101.56 447.959 96.3602C446.039 91.1602 445.079 85.8402 445.079 80.4002C445.079 74.7202 446.079 69.2802 448.079 64.0802C450.159 58.8802 452.999 54.2802 456.599 50.2802C460.199 46.2802 464.439 43.1202 469.319 40.8002C474.199 38.4002 479.479 37.2002 485.159 37.2002C491.079 37.2002 496.479 38.4802 501.359 41.0402C506.319 43.5202 510.519 46.8002 513.959 50.8802C517.479 54.9602 520.199 59.6002 522.119 64.8002C524.039 69.9202 524.999 75.1602 524.999 80.5202C524.999 86.2002 523.959 91.6402 521.879 96.8402C519.879 102.04 517.079 106.64 513.479 110.64C509.959 114.56 505.759 117.72 500.879 120.12C495.999 122.44 490.719 123.6 485.039 123.6ZM453.479 80.4002C453.479 85.0402 454.239 89.5202 455.759 93.8402C457.279 98.0802 459.439 101.88 462.239 105.24C465.039 108.52 468.359 111.16 472.199 113.16C476.039 115.08 480.319 116.04 485.039 116.04C489.839 116.04 494.199 115 498.119 112.92C502.039 110.84 505.359 108.12 508.079 104.76C510.799 101.4 512.879 97.6002 514.319 93.3602C515.839 89.1202 516.599 84.8002 516.599 80.4002C516.599 75.7602 515.799 71.3202 514.199 67.0802C512.679 62.7602 510.519 58.9602 507.719 55.6802C504.919 52.4002 501.599 49.8002 497.759 47.8802C493.919 45.8802 489.679 44.8802 485.039 44.8802C480.239 44.8802 475.879 45.9202 471.959 48.0002C468.039 50.0002 464.719 52.6802 461.999 56.0402C459.279 59.4002 457.159 63.2002 455.639 67.4402C454.199 71.6802 453.479 76.0002 453.479 80.4002Z" fill="#12233D"/>
<path d="M549.236 53.4002V123H540.836V37.8002H547.316L603.716 108.72V37.9202H612.116V123H604.796L549.236 53.4002Z" fill="#12233D"/>
</svg>
