<svg width="321" height="316" viewBox="0 0 321 316" fill="none" xmlns="http://www.w3.org/2000/svg">
<path d="M311.933 211.123C312.631 210.075 311.584 209.026 310.538 209.725C303.21 213.57 287.857 219.163 259.942 219.163C258.547 219.163 211.092 219.163 210.394 219.163C208.998 219.163 208.3 219.163 207.952 218.464C207.603 218.114 207.603 217.066 207.603 216.017V195.394C207.603 194.345 206.207 193.996 205.858 194.695C205.858 194.695 162.59 246.777 156.31 254.117C155.961 254.816 155.961 255.515 156.31 255.865C162.59 263.555 205.509 315.637 205.509 315.637C206.207 316.336 207.603 315.986 207.603 314.937V293.615C207.603 292.217 207.952 291.169 209.696 291.169C209.696 291.169 215.977 291.169 239.006 291.169C261.338 291.169 269.015 285.226 285.763 256.913L311.933 211.123Z" fill="black"/>
<path d="M318.565 189.801C322.403 183.159 321.705 175.12 316.471 166.381L287.859 116.397C287.51 116.047 286.812 115.698 286.463 116.047L225.051 151.351C224.702 151.7 224.353 152.4 224.702 152.749L256.804 208.676C257.153 209.026 257.502 209.375 257.851 209.375C281.927 209.375 310.191 203.782 318.565 189.801Z" fill="black"/>
<path d="M40.4659 264.952C41.1638 266.001 42.5595 265.651 42.5595 264.603C42.9084 256.214 45.6999 240.135 59.6572 216.016C59.6572 215.667 84.4314 173.372 84.4314 173.023C85.1292 171.974 85.4782 171.275 86.176 171.275C86.8739 171.275 87.5717 171.624 88.6185 171.974L106.414 182.111C107.461 182.46 108.159 181.761 107.81 180.713C107.81 180.713 84.4314 117.445 80.942 108.008C80.5931 107.309 79.8952 106.959 79.1974 106.959C69.7762 108.707 3.13017 119.892 3.13017 119.892C2.08338 119.892 1.73445 121.64 2.78124 121.989L21.2746 132.476C22.3214 133.175 23.3682 133.874 22.3214 135.621C22.3214 135.621 19.181 140.865 7.66629 161.138C-3.84847 180.363 -2.80167 190.15 13.5981 218.463L40.4659 264.952Z" fill="black"/>
<path d="M55.4703 281.382C59.3085 288.023 66.2872 291.518 76.7551 291.518H134.329C135.027 291.518 135.376 291.169 135.376 290.47V219.513C135.376 218.813 135.027 218.464 134.329 218.464H70.1254C69.7765 218.464 69.4275 218.813 69.0786 219.163C56.5171 239.786 47.4448 267.05 55.4703 281.382Z" fill="black"/>
<path d="M130.142 0C129.095 0 128.746 1.39817 129.444 2.09726C136.772 6.64131 148.984 17.1276 162.942 41.246C162.942 41.5956 187.716 83.8903 187.716 84.2398C188.414 85.2884 188.763 85.9875 188.414 86.6866C188.065 87.3857 187.716 87.7352 186.32 88.4343L168.525 98.5711C167.478 98.9206 167.827 100.319 168.873 100.668C168.873 100.668 235.519 112.203 244.941 113.601C245.639 113.601 246.336 113.252 246.685 112.553C250.175 103.465 273.902 39.8479 273.902 39.8479C274.251 38.7993 273.204 37.7506 272.157 38.4497L253.664 48.936C252.617 49.6351 251.57 49.9846 250.524 48.2369C250.524 48.2369 247.383 42.6442 235.868 22.7203C225.4 3.84497 216.328 0 183.529 0H130.142Z" fill="black"/>
<path d="M108.508 4.89453C100.832 4.89453 94.2019 9.43859 88.9679 18.5267L60.3555 68.5113C60.0065 68.8609 60.3555 69.5599 60.7044 69.9095L122.116 105.213C122.465 105.563 123.163 105.213 123.512 104.864L155.614 48.9369C155.963 48.5874 155.963 48.2378 155.614 47.8883C143.75 26.5662 124.908 5.24407 108.508 4.89453Z" fill="black"/>
</svg>
