<svg xmlns="http://www.w3.org/2000/svg" viewBox="-3633 4139 30 30"><defs><style>.cls-1{fill:#a0adc9}</style></defs><g id="Twitter_icon" data-name="Twitter icon" transform="translate(-3633 4139)"><path id="Path_489" data-name="Path 489" class="cls-1" d="M15 0a15 15 0 1 0 15 15A15.017 15.017 0 0 0 15 0zm6.692 11.567c.007.149.01.3.01.448a9.821 9.821 0 0 1-15.116 8.272 6.971 6.971 0 0 0 5.112-1.43 3.456 3.456 0 0 1-3.225-2.4 3.466 3.466 0 0 0 1.559-.058 3.453 3.453 0 0 1-2.769-3.385v-.044a3.438 3.438 0 0 0 1.563.431 3.458 3.458 0 0 1-1.069-4.607 9.8 9.8 0 0 0 7.116 3.606 3.455 3.455 0 0 1 5.883-3.15 6.891 6.891 0 0 0 2.193-.838 3.468 3.468 0 0 1-1.52 1.91 6.864 6.864 0 0 0 1.983-.543 6.945 6.945 0 0 1-1.72 1.788z"/></g></svg>