<svg width="24" height="24" viewBox="0 0 24 24" fill="none" xmlns="http://www.w3.org/2000/svg">
<path d="M11.9831 14.3865C13.3032 14.3865 14.3865 13.3032 14.3865 11.9831C14.3865 11.4753 14.2172 10.9676 13.9464 10.5952C13.5063 9.98589 12.7955 9.57968 11.9831 9.57968C11.1707 9.57968 10.4598 9.98589 10.0197 10.5952C9.74894 11.0014 9.57969 11.4753 9.57969 11.9831C9.57969 13.3032 10.6629 14.3865 11.9831 14.3865Z" fill="#12233D"/>
<path d="M17.2299 9.07194V7.04091V6.73625H16.9252H14.9281V9.07194H17.2299Z" fill="#12233D"/>
<path d="M11.9831 0C5.38223 0 0 5.38223 0 11.9831C0 18.6178 5.38223 24 11.9831 24C18.6178 24 24 18.6178 24 11.9831C24 5.38223 18.6178 0 11.9831 0ZM18.8209 10.5952V16.1805C18.8209 17.6361 17.6361 18.8209 16.1805 18.8209H7.81946C6.36389 18.8209 5.17913 17.6361 5.17913 16.1805V10.5952V7.81946C5.17913 6.36389 6.36389 5.17913 7.81946 5.17913H16.1805C17.6361 5.17913 18.8209 6.36389 18.8209 7.81946V10.5952V10.5952Z" fill="#12233D"/>
<path d="M15.7405 11.9831C15.7405 14.048 14.0818 15.7066 12.0169 15.7066C9.95205 15.7066 8.29337 14.048 8.29337 11.9831C8.29337 11.4753 8.39492 11.0014 8.56418 10.5952H6.53315V16.1805C6.53315 16.8914 7.1086 17.5007 7.85332 17.5007H16.2144C16.9252 17.5007 17.5346 16.9252 17.5346 16.1805V10.5952H15.5035C15.6389 11.0353 15.7405 11.5092 15.7405 11.9831Z" fill="#12233D"/>
</svg>
