<svg xmlns="http://www.w3.org/2000/svg" viewBox="-3798 4139 30 30"><defs><style>.cls-1{fill:#fff}</style></defs><g id="LinkedIn_icon" data-name="LinkedIn icon" transform="translate(-3798 4139)"><path id="Path_494" data-name="Path 494" class="cls-1" d="M26.339 21.3a2.4 2.4 0 0 0-2.178 1.2v-1.03h-2.418c.031.682 0 7.275 0 7.275h2.418V24.68a1.629 1.629 0 0 1 .079-.59 1.324 1.324 0 0 1 1.241-.885c.875 0 1.225.667 1.225 1.646v3.892h2.419v-4.172c-.002-2.233-1.195-3.271-2.786-3.271zm-2.18 1.227h-.015a.181.181 0 0 0 .015-.025z" transform="translate(-8.606 -8.43)"/><path id="Rectangle_239" data-name="Rectangle 239" class="cls-1" transform="translate(9.379 13.04)" d="M0 0h2.418v7.275H0z"/><path id="Path_495" data-name="Path 495" class="cls-1" d="M15 0a15 15 0 1 0 15 15A15.017 15.017 0 0 0 15 0zm7.954 21.785a1.168 1.168 0 0 1-1.184 1.154H8.127a1.168 1.168 0 0 1-1.182-1.154V7.982a1.169 1.169 0 0 1 1.182-1.154h13.644a1.169 1.169 0 0 1 1.184 1.154v13.8z"/><path id="Path_496" data-name="Path 496" class="cls-1" d="M16.655 15.777a1.26 1.26 0 1 0-.032 2.513h.016a1.261 1.261 0 1 0 .016-2.513z" transform="translate(-6.051 -6.244)"/></g></svg>