<svg width="40" height="37" viewBox="0 0 40 37" fill="none" xmlns="http://www.w3.org/2000/svg">
<path d="M35.9905 3.53907H26.9564C26.1578 2.44273 25.1114 1.55066 23.9025 0.935626C22.6936 0.32059 21.3564 0 20 0C18.6436 0 17.3065 0.32059 16.0976 0.935626C14.8887 1.55066 13.8422 2.44273 13.0436 3.53907H4.00949C3.47359 3.54283 2.96107 3.75901 2.58435 4.14017C2.20763 4.52134 1.99749 5.03637 2.00002 5.57227V27.4787C1.99749 28.0146 2.20763 28.5296 2.58435 28.9108C2.96107 29.292 3.47359 29.5082 4.00949 29.5119H17.08V32.4407H13.04C12.8808 32.4407 12.7282 32.5039 12.6157 32.6165C12.5032 32.729 12.44 32.8816 12.44 33.0407V35.4C12.44 35.5591 12.5032 35.7117 12.6157 35.8243C12.7282 35.9368 12.8808 36 13.04 36H26.9601C27.1192 36 27.2718 35.9368 27.3843 35.8243C27.4969 35.7117 27.5601 35.5591 27.5601 35.4V33.0407C27.5601 32.8816 27.4969 32.729 27.3843 32.6165C27.2718 32.5039 27.1192 32.4407 26.9601 32.4407H22.92V29.5119H35.9905C36.5264 29.5082 37.039 29.292 37.4157 28.9108C37.7924 28.5296 38.0025 28.0146 38 27.4787V5.57227C38.0025 5.03637 37.7924 4.52134 37.4157 4.14017C37.039 3.75901 36.5264 3.54283 35.9905 3.53907V3.53907ZM20 17.7152C22.3301 17.6942 24.5567 16.7499 26.1914 15.0893C27.8261 13.4288 28.7354 11.1877 28.7199 8.85763C28.7199 8.26691 28.6616 7.67764 28.546 7.09835H34.0361C34.0958 7.09889 34.1547 7.11133 34.2095 7.13494C34.2643 7.15856 34.3138 7.19288 34.3551 7.23589C34.3965 7.27889 34.4288 7.32972 34.4503 7.38538C34.4717 7.44105 34.4818 7.50044 34.48 7.56007V25.4909C34.4818 25.5505 34.4717 25.6099 34.4503 25.6656C34.4288 25.7213 34.3965 25.7721 34.3551 25.8151C34.3138 25.8581 34.2643 25.8924 34.2095 25.916C34.1547 25.9397 34.0958 25.9521 34.0361 25.9526H5.96389C5.90424 25.9521 5.8453 25.9397 5.79052 25.916C5.73574 25.8924 5.68623 25.8581 5.64489 25.8151C5.60355 25.7721 5.57121 25.7213 5.54977 25.6656C5.52833 25.6099 5.51823 25.5505 5.52004 25.4909V7.56007C5.51823 7.50044 5.52833 7.44105 5.54977 7.38538C5.57121 7.32972 5.60355 7.27889 5.64489 7.23589C5.68623 7.19288 5.73574 7.15856 5.79052 7.13494C5.8453 7.11133 5.90424 7.09889 5.96389 7.09835H11.454C11.3384 7.67764 11.2802 8.26691 11.2801 8.85763C11.2646 11.1877 12.174 13.4288 13.8087 15.0893C15.4434 16.7499 17.67 17.6942 20 17.7152V17.7152ZM20 1.20001C22.0119 1.2207 23.9335 2.03851 25.3432 3.47406C26.7529 4.90961 27.5358 6.84568 27.5199 8.85763C27.538 9.85663 27.3569 10.8492 26.9872 11.7774C26.6174 12.7057 26.0663 13.5509 25.3663 14.2638C24.6662 14.9767 23.8311 15.543 22.9097 15.9295C21.9883 16.316 20.9992 16.5151 20 16.5151C19.0009 16.5151 18.0117 16.316 17.0903 15.9295C16.169 15.543 15.3339 14.9767 14.6338 14.2638C13.9337 13.5509 13.3827 12.7057 13.0129 11.7774C12.6431 10.8492 12.462 9.85663 12.4801 8.85763C12.4643 6.84568 13.2471 4.90961 14.6568 3.47406C16.0666 2.03851 17.9881 1.2207 20 1.20001V1.20001ZM26.3601 34.8H13.64V33.6407H26.3601V34.8ZM21.72 32.4407H18.28V29.5119H21.72V32.4407ZM36.8 27.4787C36.8029 27.6965 36.7193 27.9065 36.5675 28.0627C36.4158 28.2189 36.2083 28.3085 35.9905 28.3119H4.00949C3.79175 28.3085 3.58425 28.2189 3.43251 28.0627C3.28076 27.9065 3.19715 27.6965 3.20002 27.4787V5.57227C3.19715 5.35452 3.28076 5.14452 3.43251 4.98833C3.58425 4.83213 3.79175 4.74249 4.00949 4.73907H12.2866C12.0943 5.11329 11.9287 5.50069 11.7913 5.89835H5.96389C5.5257 5.9012 5.10653 6.07776 4.79835 6.38928C4.49017 6.70081 4.31815 7.12187 4.32004 7.56007V25.4909C4.31815 25.9291 4.49017 26.3502 4.79835 26.6617C5.10653 26.9732 5.5257 27.1498 5.96389 27.1526H34.0361C34.4743 27.1498 34.8935 26.9732 35.2017 26.6617C35.5099 26.3502 35.6819 25.9291 35.68 25.4909V7.56007C35.6819 7.12187 35.5099 6.70081 35.2017 6.38928C34.8935 6.07776 34.4743 5.9012 34.0361 5.89835H28.2088C28.0713 5.50069 27.9058 5.11329 27.7135 4.73907H35.9905C36.2083 4.74249 36.4158 4.83213 36.5675 4.98833C36.7193 5.14452 36.8029 5.35452 36.8 5.57227V27.4787Z" fill="url(#paint0_linear)"/>
<path d="M19.6377 25.2601C19.7422 25.3399 19.8701 25.3831 20.0016 25.3831C20.1331 25.3831 20.2609 25.3399 20.3655 25.2601L25.0055 21.721C25.1052 21.6449 25.1786 21.5394 25.2153 21.4194C25.2519 21.2994 25.2501 21.1709 25.2099 21.052C25.1697 20.9331 25.0933 20.8298 24.9914 20.7567C24.8894 20.6835 24.7671 20.6441 24.6416 20.6441H22.9216V18.8848C22.9216 18.7257 22.8584 18.573 22.7459 18.4605C22.6334 18.348 22.4807 18.2848 22.3216 18.2848H17.6816C17.5224 18.2848 17.3698 18.348 17.2573 18.4605C17.1448 18.573 17.0816 18.7257 17.0816 18.8848V20.6441H15.3616C15.2361 20.6441 15.1138 20.6835 15.0118 20.7567C14.9099 20.8298 14.8335 20.9331 14.7933 21.052C14.7531 21.1709 14.7512 21.2994 14.7879 21.4194C14.8246 21.5394 14.8979 21.6449 14.9977 21.721L19.6377 25.2601ZM17.6816 21.8441C17.8407 21.8441 17.9933 21.7808 18.1058 21.6683C18.2183 21.5558 18.2816 21.4032 18.2816 21.2441V19.4848H21.7216V21.2441C21.7216 21.4032 21.7848 21.5558 21.8974 21.6683C22.0099 21.7808 22.1625 21.8441 22.3216 21.8441H22.8657L20.0016 24.0284L17.1375 21.8441H17.6816Z" fill="url(#paint1_linear)"/>
<path d="M19.9979 12.9968C20.8191 13.0086 21.6252 12.7759 22.3138 12.3283C23.0023 11.8807 23.5421 11.2384 23.8646 10.4831C24.187 9.72778 24.2775 8.89363 24.1246 8.08675C23.9716 7.27987 23.5821 6.53672 23.0056 5.95184C22.4291 5.36696 21.6916 4.96679 20.887 4.80222C20.0824 4.63766 19.2471 4.71614 18.4872 5.02769C17.7273 5.33923 17.0773 5.86976 16.6198 6.55179C16.1623 7.23381 15.918 8.0365 15.918 8.85776C15.9115 9.94727 16.3373 10.9949 17.1022 11.7708C17.867 12.5468 18.9084 12.9877 19.9979 12.9968V12.9968ZM19.9979 5.91869C20.5818 5.90681 21.1559 6.06909 21.6471 6.38483C22.1384 6.70057 22.5245 7.15546 22.7561 7.69149C22.9878 8.22753 23.0546 8.82042 22.948 9.39455C22.8413 9.96869 22.5661 10.4981 22.1574 10.9152C21.7487 11.3323 21.225 11.6182 20.6532 11.7365C20.0813 11.8548 19.4872 11.8001 18.9466 11.5793C18.4059 11.3586 17.9433 10.9819 17.6176 10.4972C17.292 10.0124 17.118 9.44171 17.118 8.85776C17.1111 8.0864 17.4105 7.34379 17.9503 6.79282C18.4902 6.24185 19.2266 5.92749 19.9979 5.91869V5.91869Z" fill="url(#paint2_linear)"/>
<defs>
<linearGradient id="paint0_linear" x1="2" y1="0" x2="38" y2="36" gradientUnits="userSpaceOnUse">
<stop stop-color="#DE3535"/>
<stop offset="1" stop-color="#E46D2E"/>
</linearGradient>
<linearGradient id="paint1_linear" x1="14.7617" y1="18.2848" x2="21.3535" y2="28.0166" gradientUnits="userSpaceOnUse">
<stop stop-color="#DE3535"/>
<stop offset="1" stop-color="#E46D2E"/>
</linearGradient>
<linearGradient id="paint2_linear" x1="15.918" y1="4.71826" x2="24.1969" y2="12.9973" gradientUnits="userSpaceOnUse">
<stop stop-color="#DE3535"/>
<stop offset="1" stop-color="#E46D2E"/>
</linearGradient>
</defs>
</svg>
