<svg width="34" height="44" viewBox="0 0 34 44" fill="none" xmlns="http://www.w3.org/2000/svg">
<path d="M18.4416 1.43448C17.5732 0.695076 16.3126 0.695276 15.4444 1.43448C11.6682 4.65028 9.50244 9.33928 9.50244 14.2993V30.0963C9.50244 30.3725 9.72624 30.5963 10.0024 30.5963H23.8836C24.1598 30.5963 24.3836 30.3725 24.3836 30.0963V14.2995C24.3836 9.33948 22.2178 4.65028 18.4416 1.43448ZM23.3836 29.5963H10.5024V14.2995C10.5024 9.63288 12.54 5.22148 16.0928 2.19588C16.5854 1.77628 17.3006 1.77648 17.7932 2.19588C21.346 5.22128 23.3836 9.63288 23.3836 14.2995V29.5963Z" fill="#F9F9FB"/>
<path d="M22.0762 31.7653C21.8 31.7653 21.5762 31.9891 21.5762 32.2653V34.0067H12.3098V32.2653C12.3098 31.9891 12.086 31.7653 11.8098 31.7653C11.5336 31.7653 11.3098 31.9891 11.3098 32.2653V34.5067C11.3098 34.7829 11.5336 35.0067 11.8098 35.0067H14.619C13.8994 35.6481 13.443 36.5789 13.443 37.6165C13.443 39.4037 16.2408 42.7909 16.56 43.1711C16.655 43.2843 16.7952 43.3499 16.943 43.3499C17.0908 43.3499 17.231 43.2845 17.326 43.1711C17.6452 42.7909 20.443 39.4037 20.443 37.6165C20.443 36.5789 19.9866 35.6483 19.267 35.0067H22.0762C22.3524 35.0067 22.5762 34.7829 22.5762 34.5067V32.2653C22.5762 31.9891 22.3524 31.7653 22.0762 31.7653ZM19.443 37.6163C19.443 38.5731 18.0378 40.6707 16.943 42.0569C15.8482 40.6709 14.443 38.5731 14.443 37.6163C14.443 36.2377 15.5644 35.1163 16.943 35.1163C18.3216 35.1163 19.443 36.2377 19.443 37.6163Z" fill="#F9F9FB"/>
<path d="M7.83331 26.9391H1.36011V22.6333L8.07111 19.0059C8.31411 18.8747 8.40451 18.5713 8.27331 18.3283C8.14211 18.0855 7.83851 17.9949 7.59571 18.1263L0.622507 21.8955C0.460907 21.9829 0.360107 22.1517 0.360107 22.3353V27.4393C0.360107 27.7155 0.583907 27.9393 0.860107 27.9393H7.83331C8.10951 27.9393 8.33331 27.7155 8.33331 27.4393C8.33331 27.1631 8.10951 26.9391 7.83331 26.9391Z" fill="#F9F9FB"/>
<path d="M33.264 21.8953L26.2908 18.1261C26.0476 17.9943 25.7446 18.0853 25.6132 18.3281C25.482 18.5711 25.5724 18.8745 25.8154 19.0057L32.5264 22.6331V26.9389H26.0532C25.777 26.9389 25.5532 27.1627 25.5532 27.4389C25.5532 27.7151 25.777 27.9389 26.0532 27.9389H33.0264C33.3026 27.9389 33.5264 27.7151 33.5264 27.4389V22.3349C33.5262 22.1515 33.4254 21.9827 33.264 21.8953Z" fill="#F9F9FB"/>
<path d="M16.9431 18.0661C16.6669 18.0661 16.4431 18.2899 16.4431 18.5661V27.4393C16.4431 27.7155 16.6669 27.9393 16.9431 27.9393C17.2193 27.9393 17.4431 27.7155 17.4431 27.4393V18.5661C17.4431 18.2899 17.2193 18.0661 16.9431 18.0661Z" fill="#D62C2C"/>
<path d="M16.9432 14.9831C15.3556 14.9831 14.064 13.6915 14.064 12.1039C14.064 10.5163 15.3556 9.22488 16.9432 9.22488C18.5308 9.22488 19.8224 10.5165 19.8224 12.1041C19.8224 13.6917 18.5308 14.9831 16.9432 14.9831ZM16.9432 10.2249C15.907 10.2249 15.064 11.0679 15.064 12.1041C15.064 13.1403 15.907 13.9833 16.9432 13.9833C17.9794 13.9833 18.8224 13.1403 18.8224 12.1041C18.8224 11.0679 17.9794 10.2249 16.9432 10.2249Z" fill="#D62C2C"/>
</svg>
