<svg width="64" height="64" viewBox="0 0 64 64" fill="none" xmlns="http://www.w3.org/2000/svg">
<rect width="64" height="64" rx="24" fill="white"/>
<path d="M22.5567 25.4837C22.4258 25.4837 22.3002 25.4317 22.2077 25.3391C22.1151 25.2466 22.0632 25.1211 22.0632 24.9902V22.6583C22.0629 22.4634 21.9854 22.2767 21.8476 22.139C21.7098 22.0012 21.523 21.9237 21.3282 21.9235H19.0502C18.8554 21.9238 18.6687 22.0013 18.531 22.139C18.3933 22.2768 18.3159 22.4635 18.3157 22.6583V24.9902C18.3157 25.1211 18.2637 25.2466 18.1711 25.3391C18.0786 25.4317 17.9531 25.4837 17.8222 25.4837C17.6913 25.4837 17.5658 25.4317 17.4732 25.3391C17.3807 25.2466 17.3287 25.1211 17.3287 24.9902V22.6583C17.3291 22.2018 17.5107 21.7642 17.8334 21.4414C18.1561 21.1186 18.5937 20.937 19.0502 20.9365H21.3282C21.7847 20.937 22.2224 21.1185 22.5452 21.4413C22.8681 21.7641 23.0496 22.2018 23.0502 22.6583V24.9902C23.0502 25.1211 22.9982 25.2466 22.9056 25.3391C22.8131 25.4317 22.6875 25.4837 22.5567 25.4837Z" fill="#D62C2C"/>
<path d="M20.1618 21.5345C19.7265 21.5344 19.301 21.4053 18.9391 21.1635C18.5772 20.9216 18.2951 20.5779 18.1286 20.1757C17.962 19.7736 17.9185 19.3311 18.0034 18.9042C18.0884 18.4773 18.298 18.0851 18.6058 17.7774C18.9136 17.4696 19.3058 17.26 19.7327 17.1751C20.1596 17.0902 20.6021 17.1338 21.0042 17.3004C21.4064 17.4669 21.7501 17.749 21.9919 18.111C22.2337 18.4729 22.3628 18.8984 22.3628 19.3336C22.3622 19.9172 22.1301 20.4766 21.7174 20.8893C21.3048 21.3019 20.7453 21.5339 20.1618 21.5345ZM20.1618 18.1194C19.9217 18.1195 19.687 18.1907 19.4874 18.3241C19.2879 18.4575 19.1323 18.6471 19.0405 18.8689C18.9486 19.0907 18.9246 19.3347 18.9715 19.5702C19.0183 19.8056 19.134 20.0219 19.3037 20.1916C19.4735 20.3614 19.6898 20.477 19.9252 20.5238C20.1607 20.5706 20.4047 20.5465 20.6265 20.4547C20.8483 20.3628 21.0379 20.2072 21.1712 20.0076C21.3046 19.808 21.3758 19.5733 21.3758 19.3333C21.3754 19.0115 21.2473 18.703 21.0197 18.4755C20.7921 18.248 20.4836 18.1201 20.1618 18.1198V18.1194Z" fill="#D62C2C"/>
<path d="M20.1618 13.9592C18.935 13.9592 17.7357 14.323 16.7156 15.0046C15.6955 15.6862 14.9005 16.655 14.431 17.7884C13.9615 18.9219 13.8387 20.1691 14.078 21.3723C14.3174 22.5756 14.9081 23.6809 15.7756 24.5484C16.6431 25.4159 17.7484 26.0066 18.9516 26.246C20.1549 26.4853 21.4021 26.3625 22.5356 25.893C23.669 25.4235 24.6378 24.6285 25.3194 23.6084C26.001 22.5883 26.3648 21.389 26.3648 20.1622C26.3629 18.5176 25.7087 16.941 24.5459 15.7781C23.383 14.6152 21.8063 13.9611 20.1618 13.9592ZM20.1618 25.3782C19.1302 25.3782 18.1217 25.0723 17.264 24.4991C16.4062 23.926 15.7377 23.1114 15.3429 22.1583C14.9481 21.2052 14.8448 20.1564 15.0461 19.1446C15.2473 18.1328 15.7441 17.2034 16.4735 16.474C17.203 15.7445 18.1324 15.2477 19.1442 15.0465C20.156 14.8452 21.2048 14.9485 22.1579 15.3433C23.1109 15.7381 23.9256 16.4066 24.4987 17.2644C25.0718 18.1221 25.3777 19.1306 25.3777 20.1622C25.3762 21.5451 24.8261 22.8709 23.8483 23.8487C22.8705 24.8266 21.5447 25.3766 20.1618 25.3782Z" fill="#D62C2C"/>
<path d="M51.5061 12H36.1693C36.0384 12 35.9129 12.052 35.8203 12.1445C35.7278 12.2371 35.6758 12.3626 35.6758 12.4935V27.8305C35.6758 27.9614 35.7278 28.0869 35.8203 28.1794C35.9129 28.272 36.0384 28.324 36.1693 28.324H43.0543V33.3972L41.5702 31.9133C41.4772 31.8234 41.3525 31.7737 41.2231 31.7748C41.0937 31.776 40.9699 31.8279 40.8784 31.9194C40.7869 32.0109 40.735 32.1346 40.7339 32.264C40.7328 32.3934 40.7825 32.5181 40.8724 32.6112L43.1988 34.9375C43.2446 34.9834 43.299 35.0198 43.3589 35.0446C43.4188 35.0694 43.483 35.0821 43.5478 35.0821C43.6126 35.0821 43.6768 35.0694 43.7367 35.0446C43.7966 35.0198 43.851 34.9834 43.8968 34.9375L46.2232 32.6112C46.3131 32.5181 46.3628 32.3934 46.3617 32.264C46.3606 32.1346 46.3087 32.0109 46.2172 31.9194C46.1257 31.8279 46.0019 31.776 45.8725 31.7748C45.7431 31.7737 45.6185 31.8234 45.5254 31.9133L44.0413 33.398V28.3248H51.5065C51.6374 28.3248 51.7629 28.2728 51.8554 28.1802C51.948 28.0877 52 27.9622 52 27.8313V12.4935C52 12.4287 51.9872 12.3645 51.9624 12.3046C51.9376 12.2447 51.9012 12.1902 51.8553 12.1444C51.8094 12.0986 51.755 12.0622 51.6951 12.0375C51.6351 12.0127 51.5709 11.9999 51.5061 12ZM51.0126 27.337H36.6628V12.987H51.0126V27.337Z" fill="#12233D"/>
<path d="M27.8303 35.6799H12.4935C12.3626 35.6799 12.2371 35.7319 12.1445 35.8245C12.052 35.917 12 36.0426 12 36.1734V51.5104C12 51.6413 12.052 51.7668 12.1445 51.8594C12.2371 51.9519 12.3626 52.0039 12.4935 52.0039H27.8303C27.9612 52.0039 28.0867 51.9519 28.1792 51.8594C28.2718 51.7668 28.3238 51.6413 28.3238 51.5104V36.1734C28.3238 36.0426 28.2718 35.917 28.1792 35.8245C28.0867 35.7319 27.9612 35.6799 27.8303 35.6799ZM27.3368 51.0169H12.987V36.6669H27.3368V51.0169Z" fill="#12233D"/>
<path d="M51.5061 35.6799H36.1693C36.0384 35.6799 35.9129 35.7319 35.8204 35.8245C35.7278 35.917 35.6758 36.0426 35.6758 36.1734V43.3484H30.6016L32.0857 41.8645C32.1782 41.772 32.2302 41.6464 32.2302 41.5155C32.2302 41.3846 32.1782 41.2591 32.0857 41.1665C31.9931 41.074 31.8676 41.022 31.7367 41.022C31.6058 41.022 31.4802 41.074 31.3876 41.1665L29.0613 43.4931C28.9687 43.5857 28.9168 43.7112 28.9168 43.842C28.9168 43.9729 28.9687 44.0984 29.0613 44.1909L31.3878 46.5173C31.4805 46.6092 31.6058 46.6607 31.7363 46.6604C31.8668 46.6601 31.9919 46.6082 32.0842 46.5159C32.1765 46.4236 32.2285 46.2985 32.2288 46.168C32.2291 46.0375 32.1777 45.9122 32.0859 45.8195L30.6018 44.3354H35.676V51.5104C35.676 51.6413 35.728 51.7668 35.8206 51.8594C35.9131 51.9519 36.0386 52.0039 36.1695 52.0039H51.5063C51.6372 52.0039 51.7627 51.9519 51.8553 51.8594C51.9478 51.7668 51.9998 51.6413 51.9998 51.5104V36.1734C51.9998 36.1086 51.987 36.0444 51.9622 35.9845C51.9374 35.9246 51.901 35.8702 51.8552 35.8244C51.8093 35.7786 51.7549 35.7422 51.695 35.7174C51.6351 35.6927 51.5709 35.6799 51.5061 35.6799ZM51.0126 51.0169H36.6628V36.6669H51.0126V51.0169Z" fill="#12233D"/>
<path d="M33.398 20.6555L31.9139 22.1394C31.8681 22.1852 31.8317 22.2396 31.8069 22.2995C31.7821 22.3594 31.7694 22.4236 31.7694 22.4884C31.7694 22.5532 31.7821 22.6174 31.8069 22.6773C31.8317 22.7371 31.8681 22.7916 31.9139 22.8374C31.9598 22.8832 32.0142 22.9196 32.0741 22.9444C32.1339 22.9692 32.1981 22.9819 32.2629 22.9819C32.3278 22.9819 32.3919 22.9692 32.4518 22.9444C32.5117 22.9196 32.5661 22.8832 32.6119 22.8374L34.9383 20.5108C35.0309 20.4183 35.0828 20.2928 35.0828 20.1619C35.0828 20.031 35.0309 19.9055 34.9383 19.813L32.6118 17.4866C32.5191 17.3947 32.3938 17.3433 32.2633 17.3435C32.1328 17.3438 32.0077 17.3958 31.9154 17.488C31.8231 17.5803 31.7711 17.7054 31.7708 17.8359C31.7705 17.9664 31.8219 18.0917 31.9137 18.1844L33.3978 19.6685H28.3246V12.4935C28.3246 12.3626 28.2726 12.2371 28.18 12.1445C28.0875 12.052 27.962 12 27.8311 12H12.4935C12.3626 12 12.2371 12.052 12.1445 12.1445C12.052 12.2371 12 12.3626 12 12.4935V27.8305C12 27.9614 12.052 28.0869 12.1445 28.1794C12.2371 28.272 12.3626 28.324 12.4935 28.324H27.8303C27.9612 28.324 28.0867 28.272 28.1792 28.1794C28.2718 28.0869 28.3238 27.9614 28.3238 27.8305V20.6555H33.398ZM27.3378 27.337H12.987V12.987H27.3368L27.3378 27.337Z" fill="#12233D"/>
<path d="M20.1618 49.6821C21.293 49.6821 22.3988 49.3467 23.3394 48.7183C24.2799 48.0899 25.013 47.1966 25.4459 46.1516C25.8788 45.1065 25.9921 43.9565 25.7715 42.8471C25.5508 41.7376 25.0061 40.7185 24.2063 39.9186C23.4064 39.1188 22.3873 38.574 21.2779 38.3533C20.1684 38.1326 19.0184 38.2459 17.9734 38.6788C16.9283 39.1116 16.035 39.8447 15.4066 40.7852C14.7781 41.7258 14.4427 42.8316 14.4427 43.9627C14.4444 45.479 15.0475 46.9327 16.1197 48.0049C17.1918 49.0772 18.6455 49.6803 20.1618 49.6821ZM20.1618 39.2306C21.0978 39.2306 22.0128 39.5081 22.791 40.0281C23.5693 40.5481 24.1759 41.2871 24.5341 42.1519C24.8923 43.0166 24.986 43.9681 24.8034 44.8861C24.6208 45.8041 24.1701 46.6474 23.5083 47.3092C22.8464 47.971 22.0032 48.4218 21.0852 48.6043C20.1672 48.7869 19.2157 48.6932 18.3509 48.335C17.4862 47.9768 16.7471 47.3702 16.2271 46.592C15.7072 45.8137 15.4296 44.8987 15.4297 43.9627C15.4311 42.7082 15.9302 41.5054 16.8173 40.6182C17.7044 39.7311 18.9072 39.2321 20.1618 39.2306Z" fill="#D62C2C"/>
<path d="M19.6684 45.8185C19.6604 45.8185 19.6521 45.8185 19.644 45.8185C19.5751 45.815 19.5077 45.7972 19.4462 45.7661C19.3847 45.735 19.3303 45.6914 19.2867 45.638L17.9106 43.9564C17.8682 43.9064 17.8363 43.8484 17.8165 43.786C17.7968 43.7235 17.7897 43.6577 17.7957 43.5925C17.8016 43.5272 17.8205 43.4638 17.8512 43.406C17.882 43.3481 17.9239 43.2969 17.9746 43.2554C18.0253 43.2139 18.0838 43.183 18.1466 43.1643C18.2094 43.1456 18.2752 43.1397 18.3404 43.1467C18.4055 43.1538 18.4686 43.1738 18.5259 43.2055C18.5833 43.2372 18.6337 43.28 18.6743 43.3314L19.7052 44.5908L21.842 42.4541C21.8876 42.407 21.942 42.3694 22.0022 42.3435C22.0624 42.3177 22.1272 42.3041 22.1927 42.3035C22.2583 42.3029 22.3232 42.3154 22.3839 42.3402C22.4445 42.365 22.4996 42.4017 22.546 42.448C22.5923 42.4943 22.629 42.5494 22.6538 42.6101C22.6786 42.6707 22.6911 42.7357 22.6905 42.8013C22.6899 42.8668 22.6763 42.9315 22.6505 42.9918C22.6246 43.052 22.587 43.1064 22.5399 43.1519L20.0175 45.6738C19.9716 45.7196 19.9172 45.756 19.8573 45.7808C19.7975 45.8057 19.7333 45.8184 19.6684 45.8185Z" fill="#D62C2C"/>
<path d="M44.8635 17.7604H40.2575C40.1267 17.7604 40.0011 17.7085 39.9086 17.6159C39.816 17.5234 39.764 17.3978 39.764 17.2669C39.764 17.1361 39.816 17.0105 39.9086 16.918C40.0011 16.8254 40.1267 16.7734 40.2575 16.7734H44.8635C44.9944 16.7734 45.1199 16.8254 45.2125 16.918C45.305 17.0105 45.357 17.1361 45.357 17.2669C45.357 17.3978 45.305 17.5234 45.2125 17.6159C45.1199 17.7085 44.9944 17.7604 44.8635 17.7604Z" fill="#12233D"/>
<path d="M46.8375 20.6555H40.2575C40.1267 20.6555 40.0011 20.6035 39.9086 20.5109C39.816 20.4184 39.764 20.2928 39.764 20.162C39.764 20.0311 39.816 19.9056 39.9086 19.813C40.0011 19.7205 40.1267 19.6685 40.2575 19.6685H46.8375C46.9684 19.6685 47.094 19.7205 47.1865 19.813C47.2791 19.9056 47.3311 20.0311 47.3311 20.162C47.3311 20.2928 47.2791 20.4184 47.1865 20.5109C47.094 20.6035 46.9684 20.6555 46.8375 20.6555Z" fill="#12233D"/>
<path d="M46.8375 23.5507H40.2575C40.1267 23.5507 40.0011 23.4987 39.9086 23.4062C39.816 23.3136 39.764 23.1881 39.764 23.0572C39.764 22.9263 39.816 22.8008 39.9086 22.7083C40.0011 22.6157 40.1267 22.5637 40.2575 22.5637H46.8375C46.9684 22.5637 47.094 22.6157 47.1865 22.7083C47.2791 22.8008 47.3311 22.9263 47.3311 23.0572C47.3311 23.1881 47.2791 23.3136 47.1865 23.4062C47.094 23.4987 46.9684 23.5507 46.8375 23.5507Z" fill="#12233D"/>
<path d="M44.8635 41.561H40.2575C40.1267 41.561 40.0011 41.509 39.9086 41.4164C39.816 41.3239 39.764 41.1984 39.764 41.0675C39.764 40.9366 39.816 40.8111 39.9086 40.7185C40.0011 40.626 40.1267 40.574 40.2575 40.574H44.8635C44.9944 40.574 45.1199 40.626 45.2125 40.7185C45.305 40.8111 45.357 40.9366 45.357 41.0675C45.357 41.1984 45.305 41.3239 45.2125 41.4164C45.1199 41.509 44.9944 41.561 44.8635 41.561Z" fill="#12233D"/>
<path d="M46.8375 44.4563H40.2575C40.1267 44.4563 40.0011 44.4043 39.9086 44.3117C39.816 44.2192 39.764 44.0936 39.764 43.9627C39.764 43.8319 39.816 43.7063 39.9086 43.6138C40.0011 43.5212 40.1267 43.4692 40.2575 43.4692H46.8375C46.9684 43.4692 47.094 43.5212 47.1865 43.6138C47.2791 43.7063 47.3311 43.8319 47.3311 43.9627C47.3311 44.0936 47.2791 44.2192 47.1865 44.3117C47.094 44.4043 46.9684 44.4563 46.8375 44.4563Z" fill="#12233D"/>
<path d="M46.8375 47.3515H40.2575C40.1267 47.3515 40.0011 47.2995 39.9086 47.207C39.816 47.1144 39.764 46.9889 39.764 46.858C39.764 46.7271 39.816 46.6016 39.9086 46.509C40.0011 46.4165 40.1267 46.3645 40.2575 46.3645H46.8375C46.9684 46.3645 47.094 46.4165 47.1865 46.509C47.2791 46.6016 47.3311 46.7271 47.3311 46.858C47.3311 46.9889 47.2791 47.1144 47.1865 47.207C47.094 47.2995 46.9684 47.3515 46.8375 47.3515Z" fill="#12233D"/>
</svg>
