<svg width="64" height="64" viewBox="0 0 64 64" fill="none" xmlns="http://www.w3.org/2000/svg">
<rect width="64" height="64" rx="24" fill="white"/>
<path d="M34.8344 50.5728H15.7241V14.0041H20.7706C20.9108 14.0041 21.0453 13.9478 21.1444 13.8474C21.2436 13.7471 21.2993 13.611 21.2993 13.4691C21.2993 13.3272 21.2436 13.1911 21.1444 13.0908C21.0453 12.9905 20.9108 12.9341 20.7706 12.9341H15.1954C15.0552 12.9341 14.9207 12.9905 14.8215 13.0908C14.7224 13.1911 14.6667 13.3272 14.6667 13.4691V51.1078C14.6667 51.2497 14.7224 51.3858 14.8215 51.4861C14.9207 51.5864 15.0552 51.6428 15.1954 51.6428H34.8344C34.9746 51.6428 35.1091 51.5864 35.2082 51.4861C35.3074 51.3858 35.3631 51.2497 35.3631 51.1078C35.3631 50.9659 35.3074 50.8298 35.2082 50.7295C35.1091 50.6291 34.9746 50.5728 34.8344 50.5728Z" fill="#12233D"/>
<path d="M37.2665 14.0041H42.313V35.9617C42.313 36.1036 42.3687 36.2397 42.4678 36.3401C42.567 36.4404 42.7015 36.4968 42.8417 36.4968C42.9819 36.4968 43.1164 36.4404 43.2155 36.3401C43.3147 36.2397 43.3704 36.1036 43.3704 35.9617V13.4691C43.3704 13.3272 43.3147 13.1911 43.2155 13.0908C43.1164 12.9905 42.9819 12.9341 42.8417 12.9341H37.2665C37.1263 12.9341 36.9918 12.9905 36.8927 13.0908C36.7935 13.1911 36.7378 13.3272 36.7378 13.4691C36.7378 13.611 36.7935 13.7471 36.8927 13.8474C36.9918 13.9478 37.1263 14.0041 37.2665 14.0041Z" fill="#12233D"/>
<path d="M23.9429 16.2739H34.0943C34.5148 16.2734 34.918 16.1041 35.2153 15.8032C35.5127 15.5023 35.6799 15.0943 35.6804 14.6688V12.2718C35.6799 11.8463 35.5127 11.4383 35.2153 11.1374C34.918 10.8365 34.5148 10.6672 34.0943 10.6667H23.9429C23.5224 10.6672 23.1192 10.8365 22.8219 11.1374C22.5245 11.4383 22.3573 11.8463 22.3568 12.2718V14.6688C22.3573 15.0943 22.5245 15.5023 22.8219 15.8032C23.1192 16.1041 23.5224 16.2734 23.9429 16.2739ZM23.4142 12.2718C23.4142 12.1299 23.4699 11.9939 23.5691 11.8935C23.6682 11.7932 23.8027 11.7368 23.9429 11.7368H34.0943C34.2345 11.7368 34.369 11.7932 34.4681 11.8935C34.5673 11.9939 34.623 12.1299 34.623 12.2718V14.6688C34.623 14.739 34.6093 14.8086 34.5827 14.8735C34.5562 14.9384 34.5172 14.9974 34.4681 15.0471C34.419 15.0968 34.3607 15.1362 34.2966 15.1631C34.2324 15.19 34.1637 15.2038 34.0943 15.2038H23.9429C23.8735 15.2038 23.8048 15.19 23.7406 15.1631C23.6765 15.1362 23.6182 15.0968 23.5691 15.0471C23.52 14.9974 23.481 14.9384 23.4545 14.8735C23.4279 14.8086 23.4142 14.739 23.4142 14.6688V12.2718Z" fill="#12233D"/>
<path d="M29.0185 18.8306C27.0459 18.8306 25.1175 19.4225 23.4772 20.5316C21.837 21.6406 20.5586 23.217 19.8037 25.0613C19.0488 26.9056 18.8513 28.935 19.2361 30.8929C19.621 32.8508 20.5709 34.6492 21.9658 36.0608C23.3607 37.4723 25.1379 38.4336 27.0727 38.8231C29.0075 39.2125 31.0129 39.0126 32.8355 38.2487C34.658 37.4848 36.2157 36.1911 37.3117 34.5313C38.4076 32.8714 38.9926 30.92 38.9926 28.9238C38.9896 26.2478 37.9378 23.6824 36.0679 21.7902C34.1981 19.898 31.6629 18.8336 29.0185 18.8306ZM29.0185 37.9469C27.255 37.9469 25.531 37.4177 24.0647 36.4263C22.5984 35.4348 21.4555 34.0256 20.7806 32.3768C20.1057 30.728 19.9292 28.9138 20.2732 27.1634C20.6173 25.4131 21.4665 23.8054 22.7135 22.5434C23.9605 21.2815 25.5493 20.4222 27.279 20.074C29.0086 19.7258 30.8015 19.9045 32.4308 20.5875C34.0601 21.2704 35.4527 22.4269 36.4325 23.9108C37.4122 25.3946 37.9352 27.1392 37.9352 28.9238C37.9325 31.316 36.9922 33.6095 35.3206 35.3011C33.649 36.9927 31.3826 37.9442 29.0185 37.9469Z" fill="#12233D"/>
<path d="M51.4714 37.5671H36.9493C36.8091 37.5671 36.6746 37.6235 36.5754 37.7238C36.4763 37.8242 36.4206 37.9603 36.4206 38.1022V52.7986C36.4206 52.9405 36.4763 53.0765 36.5754 53.1769C36.6746 53.2772 36.8091 53.3336 36.9493 53.3336H51.4714C51.6116 53.3336 51.7461 53.2772 51.8452 53.1769C51.9444 53.0765 52.0001 52.9405 52.0001 52.7986V38.1022C52.0001 37.9603 51.9444 37.8242 51.8452 37.7238C51.7461 37.6235 51.6116 37.5671 51.4714 37.5671ZM50.9427 38.6372V41.5987H37.478V38.6372H50.9427ZM37.478 52.2635V42.6687H50.9427V52.2635H37.478Z" fill="#D62C2C"/>
<path d="M41.1469 43.5603H38.9615C38.8212 43.5603 38.6867 43.6167 38.5876 43.717C38.4884 43.8173 38.4327 43.9534 38.4327 44.0953V46.3067C38.4327 46.4486 38.4884 46.5847 38.5876 46.685C38.6867 46.7854 38.8212 46.8417 38.9615 46.8417H41.1469C41.2872 46.8417 41.4217 46.7854 41.5208 46.685C41.62 46.5847 41.6757 46.4486 41.6757 46.3067V44.0953C41.6757 43.9534 41.62 43.8173 41.5208 43.717C41.4217 43.6167 41.2872 43.5603 41.1469 43.5603ZM40.6182 45.7717H39.4902V44.6304H40.6182V45.7717Z" fill="#12233D"/>
<path d="M45.3029 43.5603H43.1177C42.9774 43.5603 42.843 43.6167 42.7438 43.717C42.6446 43.8173 42.5889 43.9534 42.5889 44.0953V46.3067C42.5889 46.4486 42.6446 46.5847 42.7438 46.685C42.843 46.7854 42.9774 46.8417 43.1177 46.8417H45.3029C45.4432 46.8417 45.5776 46.7854 45.6768 46.685C45.7759 46.5847 45.8316 46.4486 45.8316 46.3067V44.0953C45.8316 43.9534 45.7759 43.8173 45.6768 43.717C45.5776 43.6167 45.4432 43.5603 45.3029 43.5603ZM44.7742 45.7717H43.6464V44.6304H44.7742V45.7717Z" fill="#12233D"/>
<path d="M49.459 43.5603H47.2737C47.1335 43.5603 46.999 43.6167 46.8999 43.717C46.8007 43.8173 46.745 43.9534 46.745 44.0953V46.3067C46.745 46.4486 46.8007 46.5847 46.8999 46.685C46.999 46.7854 47.1335 46.8417 47.2737 46.8417H49.459C49.5992 46.8417 49.7337 46.7854 49.8328 46.685C49.932 46.5847 49.9877 46.4486 49.9877 46.3067V44.0953C49.9877 43.9534 49.932 43.8173 49.8328 43.717C49.7337 43.6167 49.5992 43.5603 49.459 43.5603ZM48.9303 45.7717H47.8024V44.6304H48.9303V45.7717Z" fill="#12233D"/>
<path d="M41.1469 47.7341H38.9615C38.8212 47.7341 38.6867 47.7905 38.5876 47.8908C38.4884 47.9912 38.4327 48.1273 38.4327 48.2692V50.4805C38.4327 50.6224 38.4884 50.7585 38.5876 50.8589C38.6867 50.9592 38.8212 51.0156 38.9615 51.0156H41.1469C41.2872 51.0156 41.4217 50.9592 41.5208 50.8589C41.62 50.7585 41.6757 50.6224 41.6757 50.4805V48.2692C41.6757 48.1273 41.62 47.9912 41.5208 47.8908C41.4217 47.7905 41.2872 47.7341 41.1469 47.7341ZM40.6182 49.9455H39.4902V48.8042H40.6182V49.9455Z" fill="#12233D"/>
<path d="M45.3029 47.7341H43.1177C42.9774 47.7341 42.843 47.7905 42.7438 47.8908C42.6446 47.9912 42.5889 48.1273 42.5889 48.2692V50.4805C42.5889 50.6224 42.6446 50.7585 42.7438 50.8589C42.843 50.9592 42.9774 51.0156 43.1177 51.0156H45.3029C45.4432 51.0156 45.5776 50.9592 45.6768 50.8589C45.7759 50.7585 45.8316 50.6224 45.8316 50.4805V48.2692C45.8316 48.1273 45.7759 47.9912 45.6768 47.8908C45.5776 47.7905 45.4432 47.7341 45.3029 47.7341ZM44.7742 49.9455H43.6464V48.8042H44.7742V49.9455Z" fill="#12233D"/>
<path d="M49.459 47.7341H47.2737C47.1335 47.7341 46.999 47.7905 46.8999 47.8908C46.8007 47.9912 46.745 48.1273 46.745 48.2692V50.4805C46.745 50.6224 46.8007 50.7585 46.8999 50.8589C46.999 50.9592 47.1335 51.0156 47.2737 51.0156H49.459C49.5992 51.0156 49.7337 50.9592 49.8328 50.8589C49.932 50.7585 49.9877 50.6224 49.9877 50.4805V48.2692C49.9877 48.1273 49.932 47.9912 49.8328 47.8908C49.7337 47.7905 49.5992 47.7341 49.459 47.7341ZM48.9303 49.9455H47.8024V48.8042H48.9303V49.9455Z" fill="#12233D"/>
<path d="M31.5211 43.2391C31.5211 43.0972 31.4654 42.9611 31.3663 42.8608C31.2671 42.7605 31.1326 42.7041 30.9924 42.7041H25.015C24.8747 42.7041 24.7403 42.7605 24.6411 42.8608C24.542 42.9611 24.4863 43.0972 24.4863 43.2391C24.4863 43.381 24.542 43.5171 24.6411 43.6175C24.7403 43.7178 24.8747 43.7742 25.015 43.7742H30.9924C31.1326 43.7742 31.2671 43.7178 31.3663 43.6175C31.4654 43.5171 31.5211 43.381 31.5211 43.2391Z" fill="#12233D"/>
<path d="M22.8999 42.7041H19.573C19.4328 42.7041 19.2983 42.7605 19.1992 42.8608C19.1 42.9611 19.0443 43.0972 19.0443 43.2391C19.0443 43.381 19.1 43.5171 19.1992 43.6175C19.2983 43.7178 19.4328 43.7742 19.573 43.7742H22.8999C23.0401 43.7742 23.1746 43.7178 23.2737 43.6175C23.3729 43.5171 23.4286 43.381 23.4286 43.2391C23.4286 43.0972 23.3729 42.9611 23.2737 42.8608C23.1746 42.7605 23.0401 42.7041 22.8999 42.7041Z" fill="#12233D"/>
<path d="M26.9389 46.5212C26.7986 46.5212 26.6642 46.5776 26.565 46.6779C26.4659 46.7783 26.4102 46.9144 26.4102 47.0563C26.4102 47.1982 26.4659 47.3343 26.565 47.4346C26.6642 47.5349 26.7986 47.5913 26.9389 47.5913H28.8774C29.0176 47.5913 29.1521 47.5349 29.2512 47.4346C29.3504 47.3343 29.4061 47.1982 29.4061 47.0563C29.4061 46.9144 29.3504 46.7783 29.2512 46.6779C29.1521 46.5776 29.0176 46.5212 28.8774 46.5212H26.9389Z" fill="#12233D"/>
<path d="M19.0443 47.0563C19.0443 47.1982 19.1 47.3343 19.1992 47.4346C19.2983 47.5349 19.4328 47.5913 19.573 47.5913H24.824C24.9642 47.5913 25.0987 47.5349 25.1978 47.4346C25.297 47.3343 25.3527 47.1982 25.3527 47.0563C25.3527 46.9144 25.297 46.7783 25.1978 46.6779C25.0987 46.5776 24.9642 46.5212 24.824 46.5212H19.573C19.4328 46.5212 19.2983 46.5776 19.1992 46.6779C19.1 46.7783 19.0443 46.9144 19.0443 47.0563Z" fill="#12233D"/>
<path d="M31.6589 30.0314C31.4728 29.6873 31.2065 29.3943 30.8831 29.178C30.3918 28.8724 29.8636 28.6323 29.3116 28.4636C28.8004 28.3175 28.3223 28.072 27.9039 27.7409C27.7765 27.6141 27.6776 27.461 27.614 27.292C27.5503 27.1231 27.5234 26.9422 27.5351 26.7618C27.5252 26.5679 27.5565 26.3741 27.627 26.1936C27.6975 26.013 27.8055 25.8499 27.9437 25.7153C28.2719 25.4353 28.6942 25.2944 29.1225 25.3219C29.3412 25.3095 29.5599 25.3468 29.7626 25.431C29.9652 25.5153 30.1466 25.6443 30.2935 25.8088C30.5411 26.1094 30.6881 26.4817 30.7133 26.8722C30.7299 27.0118 30.7957 27.1407 30.8987 27.2351C31.0018 27.3295 31.135 27.383 31.274 27.3858C31.3521 27.3859 31.4293 27.3696 31.5008 27.3379C31.5724 27.3062 31.6366 27.2597 31.6894 27.2016C31.7423 27.1434 31.7826 27.0747 31.8078 26.9999C31.833 26.9251 31.8426 26.8459 31.8359 26.7671C31.8041 26.1751 31.5922 25.6074 31.2293 25.1419C30.8283 24.6685 30.265 24.3666 29.6527 24.2968V23.5726C29.6527 23.4352 29.5988 23.3034 29.5028 23.2062C29.4067 23.109 29.2765 23.0544 29.1407 23.0544C29.0049 23.0544 28.8747 23.109 28.7787 23.2062C28.6827 23.3034 28.6287 23.4352 28.6287 23.5726V24.2949C28.0403 24.3548 27.4894 24.6152 27.0663 25.0334C26.847 25.2647 26.6759 25.5383 26.5633 25.838C26.4506 26.1376 26.3987 26.4571 26.4106 26.7774C26.3878 27.3908 26.6026 27.9891 27.0094 28.4445C27.3993 28.8679 28.0446 29.2184 28.9802 29.5157C29.6737 29.7586 30.1584 30.0139 30.4213 30.2743C30.5441 30.3973 30.6401 30.5448 30.7032 30.7076C30.7663 30.8703 30.795 31.0446 30.7875 31.2192C30.7944 31.4159 30.7564 31.6115 30.6765 31.791C30.5967 31.9704 30.477 32.1288 30.3269 32.254C29.9739 32.5378 29.5313 32.6829 29.0809 32.6625C28.58 32.6943 28.0872 32.5236 27.7106 32.1878C27.4392 31.9138 27.2745 31.5499 27.2467 31.1629C27.2286 31.0239 27.1619 30.896 27.0587 30.8024C26.9555 30.7088 26.8226 30.6557 26.6841 30.6527C26.6045 30.6528 26.5259 30.6698 26.4532 30.7026C26.3805 30.7353 26.3155 30.7832 26.2622 30.843C26.2096 30.902 26.1698 30.9716 26.1455 31.0472C26.1211 31.1227 26.1127 31.2026 26.1207 31.2817C26.1646 31.8799 26.4093 32.445 26.8142 32.8831C27.2987 33.3608 27.9356 33.6481 28.6105 33.6936V34.2796C28.6105 34.4162 28.6642 34.5472 28.7596 34.6438C28.8551 34.7404 28.9846 34.7947 29.1196 34.7947C29.2546 34.7947 29.384 34.7404 29.4795 34.6438C29.575 34.5472 29.6286 34.4162 29.6286 34.2796V33.6846C30.2328 33.6297 30.8016 33.3725 31.2452 32.9538C31.4701 32.7251 31.6459 32.452 31.7618 32.1515C31.8777 31.851 31.9311 31.5296 31.9188 31.2072C31.9288 30.7996 31.8395 30.3959 31.6589 30.0314Z" fill="#D62C2C"/>
</svg>
