<svg width="17" height="15" viewBox="0 0 17 15" fill="none" xmlns="http://www.w3.org/2000/svg">
<path d="M16.8359 2.22741C16.2162 2.50198 15.5513 2.68819 14.8527 2.77133C15.566 2.34419 16.1121 1.66668 16.3708 0.861858C15.7018 1.25742 14.9632 1.54465 14.1763 1.70035C13.5461 1.0281 12.6498 0.609375 11.6556 0.609375C9.7482 0.609375 8.20169 2.15588 8.20169 4.06219C8.20169 4.33255 8.2322 4.59662 8.29113 4.84913C5.42116 4.70498 2.87627 3.32997 1.17301 1.24058C0.875274 1.74979 0.705897 2.34311 0.705897 2.97647C0.705897 4.17476 1.31609 5.23206 2.2419 5.85065C1.67589 5.83172 1.14355 5.67601 0.677507 5.4172V5.46034C0.677507 7.13309 1.86843 8.52915 3.44753 8.84688C3.15821 8.92474 2.85313 8.96787 2.53752 8.96787C2.31449 8.96787 2.09882 8.94578 1.88735 8.90369C2.32709 10.2766 3.60219 11.275 5.11294 11.3024C3.93148 12.2282 2.44178 12.7784 0.823748 12.7784C0.544966 12.7784 0.270365 12.7616 0 12.731C1.52863 13.7126 3.34341 14.2849 5.2939 14.2849C11.6472 14.2849 15.12 9.02259 15.12 4.45882L15.1084 4.01171C15.787 3.52773 16.374 2.91966 16.8359 2.22741Z" fill="white"/>
</svg>
