<svg width="32" height="32" viewBox="0 0 32 32" fill="none" xmlns="http://www.w3.org/2000/svg">
<g opacity="0.75">
<path d="M22.7473 13.2773C20.837 13.2773 20.2183 15.1198 20.0377 16.2172V16.2533L19.8164 17.283C20.6347 18.0061 21.6786 18.4227 22.7698 18.4617C23.1196 18.4763 23.4688 18.42 23.7963 18.2962C24.1238 18.1724 24.4229 17.9836 24.6755 17.7413C24.9282 17.4989 25.1293 17.2079 25.2666 16.8859C25.404 16.5638 25.4748 16.2173 25.4748 15.8672C25.4748 15.5171 25.404 15.1706 25.2666 14.8485C25.1293 14.5265 24.9282 14.2355 24.6755 13.9932C24.4229 13.7508 24.1238 13.5621 23.7963 13.4383C23.4688 13.3145 23.1196 13.2582 22.7698 13.2728L22.7473 13.2773Z" fill="#fff"/>
<path d="M15.9955 6.37364e-07C12.8312 0.000893753 9.73819 0.940036 7.1076 2.69868C4.47701 4.45733 2.42695 6.9565 1.21664 9.88019C0.0063293 12.8039 -0.30988 16.0208 0.307993 19.1242C0.925867 22.2276 2.45007 25.0781 4.68789 27.3153C6.92571 29.5525 9.77665 31.0759 12.8802 31.6929C15.9838 32.3099 19.2006 31.9928 22.124 30.7816C25.0473 29.5705 27.5459 27.5197 29.3038 24.8886C31.0617 22.2576 32 19.1643 32 16C32 13.8985 31.586 11.8175 30.7816 9.87602C29.9773 7.93452 28.7983 6.17049 27.3121 4.68469C25.8259 3.1989 24.0615 2.02044 22.1198 1.21663C20.1781 0.412822 18.097 -0.000592512 15.9955 6.37364e-07ZM22.7468 21.1075C21.4819 21.1079 20.2447 20.7374 19.1883 20.0418L18.0412 25.5241H15.3316L16.9393 17.9644C16.1943 17.0068 15.5581 15.9693 15.0426 14.871V16.0181C15.0629 16.6965 14.9467 17.3721 14.7011 18.0048C14.4555 18.6375 14.0853 19.2145 13.6126 19.7015C13.1399 20.1885 12.5742 20.5757 11.9491 20.8401C11.324 21.1045 10.6522 21.2408 9.97347 21.2408C9.29475 21.2408 8.62293 21.1045 7.99783 20.8401C7.37273 20.5757 6.80706 20.1885 6.33434 19.7015C5.86163 19.2145 5.49148 18.6375 5.24584 18.0048C5.00021 17.3721 4.88407 16.6965 4.90432 16.0181V9.18544H7.52809V16.0181C7.52809 16.666 7.78549 17.2874 8.24366 17.7456C8.70184 18.2038 9.32326 18.4612 9.97122 18.4612C10.6192 18.4612 11.2406 18.2038 11.6988 17.7456C12.1569 17.2874 12.4143 16.666 12.4143 16.0181V9.18544H15.0381C15.62 11.187 16.4901 13.0931 17.6212 14.8439C18.3889 12.2382 20.2811 10.6531 22.7197 10.6531C24.1061 10.6531 25.4356 11.2038 26.4159 12.1841C27.3962 13.1644 27.9469 14.494 27.9469 15.8803C27.9469 17.2667 27.3962 18.5962 26.4159 19.5765C25.4356 20.5568 24.1061 21.1075 22.7197 21.1075H22.7468Z" fill="#fff"/>
</g>
</svg>
