<svg xmlns="http://www.w3.org/2000/svg" viewBox="-4071 -17780 40 40"><defs><style>.cls-1{fill:url(#linear-gradient)}</style><linearGradient id="linear-gradient" x2="1" y2="1" gradientUnits="objectBoundingBox"><stop offset="0" stop-color="#de3535"/><stop offset="1" stop-color="#e46d2e"/></linearGradient></defs><path id="Web_icon" data-name="Web icon" class="cls-1" d="M20 0a20 20 0 1 0 20 20A20.023 20.023 0 0 0 20 0zm-4.823 2.69a11.822 11.822 0 0 0-2.3 3.433 28.351 28.351 0 0 0-1.325 3.621h-6.3a18.015 18.015 0 0 1 9.925-7.054zM4.018 11.795h7.029a39.606 39.606 0 0 0-.813 7.179H2.079a18.227 18.227 0 0 1 1.939-7.179zm-1.934 9.231h8.152a37.5 37.5 0 0 0 .828 7.179h-7a17.339 17.339 0 0 1-1.98-7.179zm3.223 9.231h6.271a22.681 22.681 0 0 0 1.3 3.57 12.352 12.352 0 0 0 2.261 3.423 17.816 17.816 0 0 1-9.832-6.994zm13.667 7.525c-1.949-.674-3.985-3.32-5.271-7.525h5.271zm0-9.576h-5.822a35.439 35.439 0 0 1-.864-7.179h6.687v7.179zm0-9.231h-6.688a37.527 37.527 0 0 1 .859-7.179h5.829v7.179zm0-9.231h-5.282a26.638 26.638 0 0 1 1.034-2.751c1.2-2.6 2.71-4.265 4.248-4.776zm18.947 9.231h-8.155a39.6 39.6 0 0 0-.813-7.179h7.029a18.226 18.226 0 0 1 1.939 7.178zm-3.172-9.231h-6.3a28.213 28.213 0 0 0-1.325-3.61A12.538 12.538 0 0 0 24.892 2.7a18.454 18.454 0 0 1 9.857 7.044zM21.026 2.238c1.538.537 3.033 2.191 4.215 4.754a26.78 26.78 0 0 1 1.068 2.751h-5.283V2.238zm0 9.556h5.829a37.527 37.527 0 0 1 .859 7.179h-6.688zm0 9.231h6.687a35.439 35.439 0 0 1-.864 7.179h-5.823zm0 16.733v-7.5H26.3c-1.275 4.101-3.223 6.791-5.274 7.501zm3.942-.531a13.566 13.566 0 0 0 2.152-3.412 22.549 22.549 0 0 0 1.3-3.56h6.271a17.683 17.683 0 0 1-9.723 6.974zm10.971-9.023h-7a37.506 37.506 0 0 0 .828-7.179h8.152a17.341 17.341 0 0 1-1.98 7.18z" transform="translate(-4071 -17780)"/></svg>