<svg width="64" height="64" viewBox="0 0 64 64" fill="none" xmlns="http://www.w3.org/2000/svg">
<rect width="64" height="64" rx="24" fill="white"/>
<path d="M21.2028 45.6301H8.55944C8.41107 45.6301 8.26877 45.5712 8.16386 45.4663C8.05894 45.3614 8 45.2191 8 45.0707V19.1731C8 19.0247 8.05894 18.8824 8.16386 18.7775C8.26877 18.6726 8.41107 18.6136 8.55944 18.6136H21.2028C21.3512 18.6136 21.4935 18.6726 21.5984 18.7775C21.7033 18.8824 21.7622 19.0247 21.7622 19.1731V45.0707C21.7622 45.2191 21.7033 45.3614 21.5984 45.4663C21.4935 45.5712 21.3512 45.6301 21.2028 45.6301ZM9.11888 44.5113H20.6434V19.7325H9.11888V44.5113Z" fill="#12233D"/>
<path d="M27.6925 31.6073C27.5786 31.6073 27.4675 31.5726 27.3739 31.5078C27.2802 31.4429 27.2087 31.3511 27.1686 31.2444C27.1286 31.1378 27.1221 31.0215 27.1499 30.9111C27.1778 30.8007 27.2386 30.7014 27.3244 30.6265L30.3425 27.9924C30.4452 27.9028 30.5771 27.8538 30.7134 27.8545C30.8497 27.8552 30.981 27.9057 31.0827 27.9965L33.9276 30.5341C34.0383 30.6328 34.1053 30.7715 34.1138 30.9197C34.1223 31.0678 34.0715 31.2133 33.9728 31.324C33.874 31.4348 33.7353 31.5017 33.5872 31.5102C33.439 31.5187 33.2936 31.468 33.1829 31.3692L30.7063 29.1601L28.0602 31.4695C27.9584 31.5584 27.8277 31.6074 27.6925 31.6073Z" fill="#12233D"/>
<path d="M33.4863 28.7991C33.1664 28.7991 32.8537 28.7043 32.5877 28.5265C32.3217 28.3488 32.1144 28.0962 31.992 27.8006C31.8695 27.505 31.8375 27.1798 31.8999 26.866C31.9624 26.5523 32.1164 26.2641 32.3427 26.0379C32.5689 25.8117 32.8571 25.6576 33.1709 25.5953C33.4847 25.5329 33.8099 25.5649 34.1054 25.6874C34.401 25.8099 34.6536 26.0172 34.8313 26.2832C35.009 26.5492 35.1038 26.862 35.1038 27.1819C35.1033 27.6107 34.9327 28.0218 34.6295 28.325C34.3263 28.6282 33.9151 28.7987 33.4863 28.7991ZM33.4863 26.6833C33.3877 26.6833 33.2913 26.7126 33.2093 26.7673C33.1273 26.8221 33.0634 26.9 33.0257 26.9911C32.988 27.0822 32.9781 27.1824 32.9973 27.2792C33.0166 27.3759 33.064 27.4647 33.1338 27.5344C33.2035 27.6042 33.2923 27.6516 33.389 27.6709C33.4858 27.6901 33.586 27.6803 33.6771 27.6425C33.7682 27.6048 33.8461 27.5409 33.9009 27.4589C33.9556 27.3769 33.9849 27.2805 33.9849 27.1819C33.9846 27.0498 33.9319 26.9232 33.8385 26.8299C33.745 26.7366 33.6184 26.6841 33.4863 26.684V26.6833Z" fill="#12233D"/>
<path d="M27.6925 40.0585C27.5786 40.0586 27.4674 40.0238 27.3737 39.959C27.2801 39.8941 27.2084 39.8022 27.1684 39.6956C27.1284 39.5889 27.1219 39.4726 27.1498 39.3621C27.1776 39.2516 27.2386 39.1523 27.3244 39.0774L30.3425 36.4436C30.4452 36.3539 30.5771 36.3048 30.7134 36.3055C30.8497 36.3062 30.981 36.3567 31.0828 36.4474L33.9276 38.9852C34.0362 39.0846 34.1012 39.2227 34.1087 39.3696C34.1161 39.5166 34.0654 39.6606 33.9674 39.7704C33.8695 39.8802 33.7322 39.947 33.5854 39.9563C33.4385 39.9656 33.2939 39.9167 33.1829 39.8202L30.7064 37.611L28.0602 39.9204C27.9585 40.0095 27.8278 40.0586 27.6925 40.0585Z" fill="#12233D"/>
<path d="M33.4863 37.2513C33.1664 37.2513 32.8537 37.1564 32.5877 36.9787C32.3217 36.801 32.1144 36.5483 31.992 36.2528C31.8696 35.9572 31.8375 35.632 31.9 35.3183C31.9624 35.0045 32.1164 34.7163 32.3426 34.4901C32.5688 34.2639 32.857 34.1098 33.1708 34.0474C33.4845 33.985 33.8098 34.0171 34.1053 34.1395C34.4009 34.2619 34.6535 34.4692 34.8312 34.7352C35.0089 35.0012 35.1038 35.3139 35.1038 35.6338C35.1034 36.0627 34.9328 36.4738 34.6296 36.7771C34.3263 37.0803 33.9152 37.2509 33.4863 37.2513ZM33.4863 35.1355C33.3877 35.1355 33.2913 35.1647 33.2093 35.2195C33.1273 35.2743 33.0634 35.3522 33.0257 35.4433C32.988 35.5344 32.9781 35.6347 32.9974 35.7314C33.0166 35.8281 33.0641 35.9169 33.1339 35.9867C33.2036 36.0564 33.2925 36.1038 33.3892 36.1231C33.4859 36.1423 33.5862 36.1324 33.6773 36.0946C33.7684 36.0568 33.8462 35.9929 33.901 35.9109C33.9557 35.8288 33.985 35.7324 33.9849 35.6338C33.9848 35.5016 33.9322 35.3749 33.8387 35.2815C33.7453 35.188 33.6185 35.1355 33.4863 35.1355Z" fill="#12233D"/>
<path d="M38.3217 45.6301H25.6783C25.5299 45.6301 25.3876 45.5712 25.2827 45.4663C25.1778 45.3614 25.1189 45.2191 25.1189 45.0707V19.1731C25.1189 19.0247 25.1778 18.8824 25.2827 18.7775C25.3876 18.6726 25.5299 18.6136 25.6783 18.6136H38.3217C38.47 18.6136 38.6123 18.6726 38.7173 18.7775C38.8222 18.8824 38.8811 19.0247 38.8811 19.1731V45.0707C38.8811 45.2191 38.8222 45.3614 38.7173 45.4663C38.6123 45.5712 38.47 45.6301 38.3217 45.6301ZM26.2378 44.5113H37.7622V19.7325H26.2378V44.5113Z" fill="#12233D"/>
<path d="M55.4406 45.6301H42.7972C42.6488 45.6301 42.5065 45.5712 42.4016 45.4663C42.2967 45.3614 42.2378 45.2191 42.2378 45.0707V19.1731C42.2378 19.0247 42.2967 18.8824 42.4016 18.7775C42.5065 18.6726 42.6488 18.6136 42.7972 18.6136H55.4406C55.5889 18.6136 55.7312 18.6726 55.8362 18.7775C55.9411 18.8824 56 19.0247 56 19.1731V45.0707C56 45.2191 55.9411 45.3614 55.8362 45.4663C55.7312 45.5712 55.5889 45.6301 55.4406 45.6301ZM43.3567 44.5113H54.8811V19.7325H43.3567V44.5113Z" fill="#12233D"/>
<path d="M15.3696 30.526C15.3211 30.4391 15.2502 30.3667 15.1644 30.3163C15.0785 30.2658 14.9807 30.2393 14.8811 30.2393C14.7815 30.2393 14.6838 30.2658 14.5979 30.3163C14.512 30.3667 14.4411 30.4391 14.3926 30.526L10.4454 37.5974C10.3989 37.6807 10.3745 37.7745 10.3745 37.8699V45.0702C10.3745 45.2185 10.4334 45.3608 10.5383 45.4657C10.6433 45.5707 10.7856 45.6296 10.9339 45.6296H18.8283C18.9767 45.6296 19.119 45.5707 19.2239 45.4657C19.3288 45.3608 19.3877 45.2185 19.3877 45.0702V37.8704C19.3877 37.775 19.3633 37.6811 19.3168 37.5978L15.3696 30.526ZM13.4653 34.4831H16.2969L17.8752 37.3109H11.887L13.4653 34.4831ZM14.8811 31.9464L15.6724 33.3642H14.0898L14.8811 31.9464ZM11.4934 44.5112V38.4298H18.2689V44.5112H11.4934Z" fill="#12233D"/>
<path d="M27.1329 24.5647V31.0477C27.1329 31.1961 27.1918 31.3384 27.2967 31.4433C27.4016 31.5482 27.5439 31.6071 27.6923 31.6071H36.3077C36.4561 31.6071 36.5984 31.5482 36.7033 31.4433C36.8082 31.3384 36.8671 31.1961 36.8671 31.0477V24.5647C36.8671 24.4163 36.8082 24.274 36.7033 24.1691C36.5984 24.0642 36.4561 24.0052 36.3077 24.0052H27.6923C27.5439 24.0052 27.4016 24.0642 27.2967 24.1691C27.1918 24.274 27.1329 24.4163 27.1329 24.5647ZM28.2518 25.1241H35.7483V30.4883H28.2518V25.1241Z" fill="#12233D"/>
<path d="M36.8671 39.499V33.0168C36.8671 32.8685 36.8082 32.7262 36.7033 32.6213C36.5984 32.5163 36.4561 32.4574 36.3077 32.4574H27.6923C27.5439 32.4574 27.4016 32.5163 27.2967 32.6213C27.1918 32.7262 27.1329 32.8685 27.1329 33.0168V39.499C27.1329 39.6473 27.1918 39.7896 27.2967 39.8946C27.4016 39.9995 27.5439 40.0584 27.6923 40.0584H36.3077C36.4561 40.0584 36.5984 39.9995 36.7033 39.8946C36.8082 39.7896 36.8671 39.6473 36.8671 39.499ZM35.7483 38.9395H28.2518V33.5763H35.7483V38.9395Z" fill="#12233D"/>
<path d="M49.1189 32.6812C49.9881 32.6812 50.8378 32.4235 51.5605 31.9406C52.2832 31.4577 52.8465 30.7713 53.1791 29.9683C53.5117 29.1652 53.5988 28.2816 53.4292 27.4291C53.2596 26.5766 52.8411 25.7935 52.2265 25.1789C51.6118 24.5643 50.8288 24.1457 49.9763 23.9762C49.1238 23.8066 48.2401 23.8936 47.4371 24.2263C46.6341 24.5589 45.9477 25.1222 45.4648 25.8449C44.9819 26.5676 44.7242 27.4173 44.7242 28.2865C44.7255 29.4516 45.1889 30.5687 46.0128 31.3926C46.8367 32.2165 47.9537 32.6799 49.1189 32.6812ZM48.5315 27.7302C48.5315 27.614 48.5659 27.5004 48.6305 27.4038C48.695 27.3072 48.7868 27.2319 48.8941 27.1875C49.0014 27.143 49.1196 27.1314 49.2335 27.154C49.3475 27.1767 49.4521 27.2326 49.5343 27.3148C49.6164 27.3969 49.6724 27.5016 49.695 27.6156C49.7177 27.7295 49.7061 27.8476 49.6616 27.9549C49.6171 28.0623 49.5419 28.154 49.4453 28.2186C49.3487 28.2831 49.2351 28.3176 49.1189 28.3176C48.9632 28.3173 48.8139 28.2554 48.7038 28.1453C48.5937 28.0351 48.5317 27.8859 48.5315 27.7302ZM48.1063 31.4001V29.9628C48.1064 29.8923 48.1344 29.8248 48.1842 29.775C48.234 29.7252 48.3015 29.6972 48.3719 29.6971H49.9021C49.9726 29.6972 50.0401 29.7252 50.09 29.775C50.1398 29.8248 50.1679 29.8923 50.168 29.9628V31.3864C49.5008 31.6156 48.7769 31.6204 48.1068 31.4001H48.1063ZM49.1189 25.0108C49.7838 25.0099 50.4331 25.2116 50.9805 25.589C51.5278 25.9664 51.9472 26.5016 52.1826 27.1234C52.4181 27.7451 52.4586 28.4239 52.2986 29.0692C52.1386 29.7145 51.7857 30.2957 51.2871 30.7355V29.9632C51.2864 29.7037 51.2129 29.4496 51.0748 29.2299C50.9368 29.0101 50.7398 28.8336 50.5063 28.7204C50.6894 28.4647 50.7982 28.1635 50.8209 27.8499C50.8436 27.5363 50.7792 27.2226 50.6348 26.9432C50.4904 26.6639 50.2717 26.4299 50.0028 26.2671C49.7338 26.1042 49.4251 26.0188 49.1107 26.0203C48.7963 26.0219 48.4884 26.1102 48.221 26.2756C47.9536 26.441 47.7371 26.6771 47.5954 26.9578C47.4537 27.2384 47.3923 27.5528 47.418 27.8662C47.4437 28.1795 47.5554 28.4797 47.7409 28.7336C47.5144 28.8498 47.3244 29.0261 47.1915 29.2432C47.0587 29.4603 46.9882 29.7098 46.9879 29.9643V30.7699C46.4793 30.3349 46.1163 29.7544 45.9478 29.1067C45.7793 28.459 45.8136 27.7752 46.0458 27.1475C46.2781 26.5198 46.6972 25.9785 47.2467 25.5964C47.7962 25.2144 48.4496 25.01 49.1189 25.0108Z" fill="#12233D"/>
<path d="M53.2773 36.1678H44.9976C44.8492 36.1678 44.7069 36.2268 44.602 36.3317C44.4971 36.4366 44.4381 36.5789 44.4381 36.7273V39.45C44.4381 39.5983 44.4971 39.7406 44.602 39.8456C44.7069 39.9505 44.8492 40.0094 44.9976 40.0094H53.2773C53.4257 40.0094 53.568 39.9505 53.6729 39.8456C53.7778 39.7406 53.8368 39.5983 53.8368 39.45V36.7273C53.8368 36.5789 53.7778 36.4366 53.6729 36.3317C53.568 36.2268 53.4257 36.1678 53.2773 36.1678ZM52.7179 38.8905H45.557V37.2867H52.7179V38.8905Z" fill="#D62C2C"/>
<path d="M29.2196 16.8949C29.3302 16.8949 29.4383 16.8621 29.5303 16.8006C29.6223 16.7391 29.694 16.6518 29.7363 16.5496C29.7787 16.4474 29.7898 16.335 29.7682 16.2265C29.7467 16.118 29.6934 16.0183 29.6152 15.94C27.9423 14.2708 25.6755 13.3334 23.3122 13.3334C20.949 13.3334 18.6822 14.2708 17.0092 15.94C16.9085 16.0458 16.8532 16.1867 16.8549 16.3327C16.8567 16.4787 16.9155 16.6183 17.0188 16.7215C17.1221 16.8248 17.2616 16.8835 17.4077 16.8853C17.5537 16.887 17.6946 16.8316 17.8003 16.7309C19.2633 15.2712 21.2456 14.4515 23.3122 14.4515C25.3789 14.4515 27.3611 15.2712 28.8242 16.7309C28.876 16.7829 28.9377 16.8242 29.0055 16.8524C29.0734 16.8805 29.1461 16.895 29.2196 16.8949Z" fill="#D62C2C"/>
<path d="M46.1997 47.2637C44.7367 48.7234 42.7544 49.5431 40.6878 49.5431C38.6211 49.5431 36.6389 48.7234 35.1758 47.2637C35.0703 47.1618 34.929 47.1054 34.7823 47.1067C34.6356 47.108 34.4953 47.1668 34.3916 47.2705C34.2879 47.3743 34.229 47.5146 34.2278 47.6613C34.2265 47.808 34.2829 47.9493 34.3848 48.0548C36.0577 49.7241 38.3245 50.6615 40.6878 50.6615C43.0511 50.6615 45.3179 49.7241 46.9908 48.0548C47.0927 47.9493 47.1491 47.808 47.1478 47.6613C47.1465 47.5146 47.0877 47.3743 46.984 47.2705C46.8802 47.1668 46.7399 47.108 46.5932 47.1067C46.4466 47.1054 46.3052 47.1618 46.1997 47.2637Z" fill="#D62C2C"/>
<path d="M11.9441 26.6952H17.9301C18.0784 26.6952 18.2207 26.6362 18.3257 26.5313C18.4306 26.4264 18.4895 26.2841 18.4895 26.1357C18.4895 25.9874 18.4306 25.8451 18.3257 25.7401C18.2207 25.6352 18.0784 25.5763 17.9301 25.5763H11.9441C11.7957 25.5763 11.6534 25.6352 11.5485 25.7401C11.4436 25.8451 11.3846 25.9874 11.3846 26.1357C11.3846 26.2841 11.4436 26.4264 11.5485 26.5313C11.6534 26.6362 11.7957 26.6952 11.9441 26.6952Z" fill="#12233D"/>
<path d="M11.9441 28.7877H17.9301C18.0784 28.7877 18.2207 28.7288 18.3257 28.6238C18.4306 28.5189 18.4895 28.3766 18.4895 28.2283C18.4895 28.0799 18.4306 27.9376 18.3257 27.8327C18.2207 27.7278 18.0784 27.6688 17.9301 27.6688H11.9441C11.7957 27.6688 11.6534 27.7278 11.5485 27.8327C11.4436 27.9376 11.3846 28.0799 11.3846 28.2283C11.3846 28.3766 11.4436 28.5189 11.5485 28.6238C11.6534 28.7288 11.7957 28.7877 11.9441 28.7877Z" fill="#12233D"/>
</svg>
