<svg xmlns="http://www.w3.org/2000/svg" xmlns:xlink="http://www.w3.org/1999/xlink" viewBox="-4071 -13375 40 36.1">
  <defs>
    <style>
      .cls-1 {
        fill: url(#linear-gradient);
      }
    </style>
    <linearGradient id="linear-gradient" x2="1" y2="1" gradientUnits="objectBoundingBox">
      <stop offset="0" stop-color="#de3535"/>
      <stop offset="1" stop-color="#e46d2e"/>
    </linearGradient>
  </defs>
  <path id="Agile_PM_icon" data-name="Agile PM icon" class="cls-1" d="M-301.123-2685.847a18.187,18.187,0,0,1-6.029-8.924l-1.62.434a.975.975,0,0,1-.948-.258.976.976,0,0,1-.243-.952l2.347-8.2a.974.974,0,0,1,.686-.674.975.975,0,0,1,.931.24l6.135,5.933a.977.977,0,0,1,.266.946.976.976,0,0,1-.692.7l-1.207.323a12.121,12.121,0,0,0,11.62,8.533,12.132,12.132,0,0,0,10.334-5.73.978.978,0,0,1,.609-.432.972.972,0,0,1,.737.124l3.3,2.073a.976.976,0,0,1,.308,1.345,18.149,18.149,0,0,1-6.418,6.143,18.033,18.033,0,0,1-8.869,2.331A18.062,18.062,0,0,1-301.123-2685.847Zm-4.842-10.958a.979.979,0,0,1,.45.611,16.033,16.033,0,0,0,15.638,12.342,16.084,16.084,0,0,0,7.908-2.078,16.183,16.183,0,0,0,5.182-4.671l-1.65-1.037a14.062,14.062,0,0,1-11.441,5.835,14.146,14.146,0,0,1-8.856-3.128,14.218,14.218,0,0,1-4.911-7.826.975.975,0,0,1,.7-1.162l.486-.13-3.727-3.6-1.426,4.984.9-.24a.966.966,0,0,1,.252-.033A.98.98,0,0,1-305.965-2696.8Zm31.964,1.526-6.134-5.932a.975.975,0,0,1-.266-.946.976.976,0,0,1,.692-.7l1.584-.425a12.259,12.259,0,0,0-11.75-8.868A12.2,12.2,0,0,0-300-2706.766a.976.976,0,0,1-1.354.263l-3.241-2.185a.976.976,0,0,1-.413-.623.976.976,0,0,1,.149-.732A18.058,18.058,0,0,1-289.876-2718a18.1,18.1,0,0,1,11.4,4.058,18.172,18.172,0,0,1,6.006,9.148l1.244-.333a.975.975,0,0,1,.949.258.974.974,0,0,1,.242.952l-2.347,8.205a.976.976,0,0,1-.685.674.973.973,0,0,1-.253.033A.977.977,0,0,1-274-2695.278Zm-2-7.5a.977.977,0,0,1-.7,1.138l-.84.225,3.727,3.6,1.426-4.984-.538.144a.977.977,0,0,1-.76-.109.975.975,0,0,1-.445-.625,16.207,16.207,0,0,0-15.745-12.664,16.106,16.106,0,0,0-12.794,6.3l1.626,1.1a14.147,14.147,0,0,1,11.167-5.448A14.209,14.209,0,0,1-276-2702.778ZM-290.64-2698a1.006,1.006,0,0,1-.986-1c0-.017-.009-.057-.008-.074s-.024-.031-.024-.049v-6.635a.975.975,0,0,1,.976-.975.975.975,0,0,1,.976.975v5.806h3.75a.976.976,0,0,1,.977.976.976.976,0,0,1-.977.976Z" transform="translate(-3761 -10657)"/>
</svg>
