<svg xmlns="http://www.w3.org/2000/svg" xmlns:xlink="http://www.w3.org/1999/xlink" viewBox="-4078.586 -6425 60.586 54.208">
  <defs>
    <style>
      .cls-1 {
        fill: url(#linear-gradient);
      }

      .cls-2 {
        fill: #fff;
      }

      .cls-3 {
        fill: #e14f32;
      }
    </style>
    <linearGradient id="linear-gradient" x2="1" y2="1" gradientUnits="objectBoundingBox">
      <stop offset="0" stop-color="#de3535"/>
      <stop offset="1" stop-color="#e46d2e"/>
    </linearGradient>
  </defs>
  <g id="API_icon" data-name="API icon" transform="translate(-4381 -6470.001)">
    <path id="Path_6372" data-name="Path 6372" class="cls-1" d="M2.408-827.384a4,4,0,0,1,.788-5.6,4,4,0,0,1,5.6.787,4,4,0,0,1-.788,5.6,3.982,3.982,0,0,1-2.4.805A3.994,3.994,0,0,1,2.408-827.384Zm6.422-8.343,2.868-4.1,1.638,1.147-2.867,4.1Zm35.577-1.657a3.982,3.982,0,0,1-.788-2.029,10.5,10.5,0,0,1-2.931.415h-21a10.5,10.5,0,0,1-10.5-10.5,10.5,10.5,0,0,1,10.5-10.5h21a10.5,10.5,0,0,1,10.5,10.5,10.453,10.453,0,0,1-1.929,6.066A3.981,3.981,0,0,1,50.8-842.2a4,4,0,0,1-.787,5.6,3.984,3.984,0,0,1-2.4.805A4,4,0,0,1,44.407-837.384Zm4.928-21.251,2.877-2.778,1.39,1.439L50.725-857.2ZM54.188-866a4,4,0,0,1,4-4,4,4,0,0,1,4,4,4,4,0,0,1-4,4A4,4,0,0,1,54.188-866Zm-25,4v-6h2v6Zm-3.5-13.5a4.5,4.5,0,0,1,4.5-4.5,4.5,4.5,0,0,1,4.5,4.5,4.5,4.5,0,0,1-4.5,4.5A4.5,4.5,0,0,1,25.689-875.5Z" transform="translate(300.812 925)"/>
    <rect id="Rectangle_2150" data-name="Rectangle 2150" class="cls-2" width="38" height="17" rx="8.5" transform="translate(312 67.001)"/>
    <path id="Path_7023" data-name="Path 7023" class="cls-3" d="M7.592,0,6.747-1.963H2.938L2.093,0H-.065L3.861-9.087H5.824L9.75,0ZM4.849-6.383,3.7-3.744H5.98ZM17.063-8.274a3.1,3.1,0,0,1,.955,2.5,2.957,2.957,0,0,1-.981,2.464,4.774,4.774,0,0,1-3,.78H12.831V0H10.8V-9.087h3.211A4.665,4.665,0,0,1,17.063-8.274ZM15.574-4.7a1.747,1.747,0,0,0,.364-1.2,1.267,1.267,0,0,0-.474-1.118,2.607,2.607,0,0,0-1.476-.331H12.831V-4.29H14.2A1.81,1.81,0,0,0,15.574-4.7ZM19.6-9.087h2.028V0H19.6Z" transform="translate(319 80)"/>
    <circle id="Ellipse_6329" data-name="Ellipse 6329" class="cls-2" cx="2.5" cy="2.5" r="2.5" transform="translate(328.5 47.001)"/>
    <circle id="Ellipse_6330" data-name="Ellipse 6330" class="cls-2" cx="2" cy="2" r="2" transform="translate(357 57.001)"/>
  </g>
</svg>
