<svg xmlns="http://www.w3.org/2000/svg" viewBox="-4068 -10500 33.999 60"><defs><style>.cls-1{fill:url(#linear-gradient)}</style><linearGradient id="linear-gradient" x2="1" y2="1" gradientUnits="objectBoundingBox"><stop offset="0" stop-color="#de3535"/><stop offset="1" stop-color="#e46d2e"/></linearGradient></defs><path id="Apps_icon" data-name="Apps icon" class="cls-1" d="M-295.6 2a4.41 4.41 0 0 1-4.4-4.406V-53.6a4.41 4.41 0 0 1 4.4-4.4h25.19a4.41 4.41 0 0 1 4.4 4.4v51.2a4.41 4.41 0 0 1-4.396 4.4zm-2.4-4.4a2.408 2.408 0 0 0 2.4 2.4h25.19A2.408 2.408 0 0 0-268-2.4V-10h-30zm0-9.6h30v-38h-30zm0-41.6v1.6h30v-1.6a2.408 2.408 0 0 0-2.406-2.4H-295.6a2.408 2.408 0 0 0-2.4 2.4zM-287-5a4 4 0 0 1 4-4 4 4 0 0 1 4 4 4 4 0 0 1-4 4 4 4 0 0 1-4-4zm2 0a2 2 0 0 0 2 2 2 2 0 0 0 2-2 2 2 0 0 0-2-2 2 2 0 0 0-2 2zm9.039-16A2.041 2.041 0 0 1-278-23.038v-3.924A2.04 2.04 0 0 1-275.962-29h3.924A2.04 2.04 0 0 1-270-26.962v3.924A2.041 2.041 0 0 1-272.038-21zm-.039-2.038l3.963.038a.039.039 0 0 0 .038-.038v-3.924l-3.963-.038zM-284.962-21A2.041 2.041 0 0 1-287-23.038v-3.924A2.04 2.04 0 0 1-284.962-29h3.924A2.04 2.04 0 0 1-279-26.962v3.924A2.041 2.041 0 0 1-281.038-21zm-.038-2.038l3.963.038a.039.039 0 0 0 .038-.038v-3.924l-3.963-.038zM-293.962-21A2.041 2.041 0 0 1-296-23.038v-3.924A2.04 2.04 0 0 1-293.962-29h3.924A2.04 2.04 0 0 1-288-26.962v3.924A2.041 2.041 0 0 1-290.038-21zm-.038-2.038l3.963.038a.039.039 0 0 0 .038-.038v-3.924l-3.963-.038zM-275.962-30A2.041 2.041 0 0 1-278-32.038v-3.924A2.04 2.04 0 0 1-275.962-38h3.924A2.04 2.04 0 0 1-270-35.962v3.924A2.041 2.041 0 0 1-272.038-30zm-.038-2.038l3.963.038a.039.039 0 0 0 .038-.038v-3.924l-3.963-.038zM-284.962-30A2.041 2.041 0 0 1-287-32.038v-3.924A2.04 2.04 0 0 1-284.962-38h3.924A2.04 2.04 0 0 1-279-35.962v3.924A2.041 2.041 0 0 1-281.038-30zm-.038-2.038l3.963.038a.039.039 0 0 0 .038-.038v-3.924l-3.963-.038zM-293.962-30A2.041 2.041 0 0 1-296-32.038v-3.924A2.04 2.04 0 0 1-293.962-38h3.924A2.04 2.04 0 0 1-288-35.962v3.924A2.041 2.041 0 0 1-290.038-30zm-.038-2.038l3.963.038a.039.039 0 0 0 .038-.038v-3.924l-3.963-.038zm18.039-6.942A2.041 2.041 0 0 1-278-41.018v-3.924a2.041 2.041 0 0 1 2.038-2.038h3.924A2.04 2.04 0 0 1-270-44.942v3.924a2.041 2.041 0 0 1-2.038 2.039zm-.039-2.039l3.963.039a.038.038 0 0 0 .038-.039v-3.923l-3.962-.039zm-8.961 2.039A2.041 2.041 0 0 1-287-41.018v-3.924a2.041 2.041 0 0 1 2.039-2.038h3.924A2.04 2.04 0 0 1-279-44.942v3.924a2.041 2.041 0 0 1-2.038 2.039zm-.039-2.039l3.963.039a.038.038 0 0 0 .038-.039v-3.923l-3.962-.039zm-8.961 2.039A2.041 2.041 0 0 1-296-41.018v-3.924a2.041 2.041 0 0 1 2.039-2.038h3.924A2.04 2.04 0 0 1-288-44.942v3.924a2.041 2.041 0 0 1-2.038 2.039zm-.039-2.039l3.963.039a.038.038 0 0 0 .038-.039v-3.923l-3.962-.039zM-280-53a1 1 0 0 1-1-1 1 1 0 0 1 1-1h1a1 1 0 0 1 1 1 1 1 0 0 1-1 1zm-7 0a1 1 0 0 1-1-1 1 1 0 0 1 1-1h4a1 1 0 0 1 1 1 1 1 0 0 1-1 1z" transform="translate(-3768 -10442)"/></svg>