<svg xmlns="http://www.w3.org/2000/svg" xmlns:xlink="http://www.w3.org/1999/xlink" viewBox="-4074 -10056.001 45 53.864">
  <defs>
    <style>
      .cls-1 {
        fill: url(#linear-gradient);
      }
    </style>
    <linearGradient id="linear-gradient" x2="1" y2="1" gradientUnits="objectBoundingBox">
      <stop offset="0" stop-color="#de3535"/>
      <stop offset="1" stop-color="#e46d2e"/>
    </linearGradient>
  </defs>
  <path id="Back-End_icon" data-name="Back-End icon" class="cls-1" d="M26.81-390.21l-.64-1.4a1.206,1.206,0,0,0-1.105-.717,1.035,1.035,0,0,0-.427.077L23.2-391.7a3.527,3.527,0,0,1-1.261.233A3.5,3.5,0,0,1,19.033-393a3.444,3.444,0,0,1-.407-3.239l.543-1.435a1.229,1.229,0,0,0-.64-1.533l-1.4-.64a3.533,3.533,0,0,1-2.133-3.2,3.508,3.508,0,0,1,2.075-3.219l1.4-.64a1.227,1.227,0,0,0,.64-1.532l-.543-1.435a3.513,3.513,0,0,1,.408-3.239,3.6,3.6,0,0,1,2.909-1.532,3.522,3.522,0,0,1,1.26.233l1.436.543a1.1,1.1,0,0,0,.427.077,1.218,1.218,0,0,0,1.105-.717l.64-1.4A3.608,3.608,0,0,1,30.029-418a3.507,3.507,0,0,1,3.219,2.075l.64,1.4a1.207,1.207,0,0,0,1.105.718,1.041,1.041,0,0,0,.428-.078l1.435-.543a3.546,3.546,0,0,1,1.261-.232,3.5,3.5,0,0,1,2.909,1.532,3.442,3.442,0,0,1,.407,3.238l-.543,1.435a1.228,1.228,0,0,0,.64,1.532l1.4.64A3.507,3.507,0,0,1,45-403.067a3.507,3.507,0,0,1-2.075,3.218l-1.4.64a1.23,1.23,0,0,0-.64,1.533l.543,1.435a3.544,3.544,0,0,1-.407,3.258,3.624,3.624,0,0,1-2.909,1.552,3.573,3.573,0,0,1-1.261-.252l-1.435-.562a1.1,1.1,0,0,0-.427-.077,1.219,1.219,0,0,0-1.106.717l-.64,1.4a3.507,3.507,0,0,1-3.218,2.075A3.507,3.507,0,0,1,26.81-390.21Zm1.435-2.365.64,1.4a1.206,1.206,0,0,0,1.105.717,1.19,1.19,0,0,0,1.106-.717l.64-1.4a3.559,3.559,0,0,1,3.218-2.075,3.422,3.422,0,0,1,1.241.233l1.436.543a1.183,1.183,0,0,0,1.435-.446,1.155,1.155,0,0,0,.136-1.105l-.543-1.435a3.54,3.54,0,0,1,1.842-4.46l1.4-.64a1.207,1.207,0,0,0,.718-1.105,1.191,1.191,0,0,0-.718-1.106l-1.4-.64a3.559,3.559,0,0,1-1.842-4.46l.543-1.435a1.155,1.155,0,0,0-.136-1.105,1.242,1.242,0,0,0-1.435-.446l-1.436.544a3.44,3.44,0,0,1-1.241.232,3.56,3.56,0,0,1-3.218-2.074l-.64-1.4a1.208,1.208,0,0,0-1.106-.717,1.191,1.191,0,0,0-1.105.717l-.64,1.4a3.56,3.56,0,0,1-3.219,2.074,3.443,3.443,0,0,1-1.241-.232l-1.435-.544a1.185,1.185,0,0,0-1.436.446,1.157,1.157,0,0,0-.135,1.105l.543,1.435a3.541,3.541,0,0,1-1.842,4.46l-1.4.64a1.207,1.207,0,0,0-.718,1.106,1.19,1.19,0,0,0,.718,1.105l1.4.64a3.559,3.559,0,0,1,1.842,4.46l-.543,1.435a1.157,1.157,0,0,0,.135,1.105,1.244,1.244,0,0,0,1.436.446l1.435-.543a3.425,3.425,0,0,1,1.241-.233A3.56,3.56,0,0,1,28.245-392.576Zm-3.316-10.491a5.057,5.057,0,0,1,5.042-5.043,5.057,5.057,0,0,1,5.042,5.043,5.057,5.057,0,0,1-5.042,5.042A5.044,5.044,0,0,1,24.929-403.067Zm2.326,0a2.723,2.723,0,0,0,2.715,2.714,2.722,2.722,0,0,0,2.714-2.714,2.722,2.722,0,0,0-2.714-2.715A2.723,2.723,0,0,0,27.256-403.067ZM11.81-414.21l-.64-1.4a1.207,1.207,0,0,0-1.105-.717,1.034,1.034,0,0,0-.427.077L8.2-415.7a3.527,3.527,0,0,1-1.261.233A3.5,3.5,0,0,1,4.033-417a3.444,3.444,0,0,1-.407-3.239l.543-1.435a1.229,1.229,0,0,0-.64-1.533l-1.4-.64A3.533,3.533,0,0,1,0-427.047a3.508,3.508,0,0,1,2.075-3.219l1.4-.64a1.227,1.227,0,0,0,.64-1.532l-.543-1.435a3.513,3.513,0,0,1,.408-3.239,3.6,3.6,0,0,1,2.909-1.532,3.522,3.522,0,0,1,1.26.233l1.436.543a1.1,1.1,0,0,0,.427.077,1.218,1.218,0,0,0,1.105-.717l.64-1.4A3.608,3.608,0,0,1,15.028-442a3.507,3.507,0,0,1,3.219,2.075l.64,1.4a1.207,1.207,0,0,0,1.105.718,1.042,1.042,0,0,0,.427-.078l1.435-.543a3.546,3.546,0,0,1,1.261-.232,3.5,3.5,0,0,1,2.909,1.532,3.442,3.442,0,0,1,.407,3.238l-.543,1.435a1.228,1.228,0,0,0,.64,1.532l1.4.64A3.507,3.507,0,0,1,30-427.066a3.507,3.507,0,0,1-2.075,3.218l-1.4.64a1.23,1.23,0,0,0-.64,1.533l.543,1.435a3.544,3.544,0,0,1-.407,3.258,3.624,3.624,0,0,1-2.909,1.552,3.573,3.573,0,0,1-1.261-.252l-1.435-.562a1.1,1.1,0,0,0-.427-.077,1.219,1.219,0,0,0-1.106.717l-.64,1.4a3.507,3.507,0,0,1-3.218,2.075A3.507,3.507,0,0,1,11.81-414.21Zm1.435-2.365.64,1.4a1.206,1.206,0,0,0,1.105.717,1.19,1.19,0,0,0,1.106-.717l.64-1.4a3.559,3.559,0,0,1,3.218-2.075,3.422,3.422,0,0,1,1.241.233l1.436.543a1.184,1.184,0,0,0,1.435-.446,1.155,1.155,0,0,0,.136-1.105l-.543-1.435a3.54,3.54,0,0,1,1.842-4.46l1.4-.64a1.207,1.207,0,0,0,.718-1.105,1.191,1.191,0,0,0-.718-1.106l-1.4-.64a3.559,3.559,0,0,1-1.842-4.46l.543-1.435a1.155,1.155,0,0,0-.136-1.105,1.242,1.242,0,0,0-1.435-.446l-1.436.544a3.44,3.44,0,0,1-1.241.232,3.56,3.56,0,0,1-3.218-2.075l-.64-1.4a1.208,1.208,0,0,0-1.106-.717,1.191,1.191,0,0,0-1.105.717l-.64,1.4a3.56,3.56,0,0,1-3.219,2.075,3.444,3.444,0,0,1-1.241-.232l-1.435-.544a1.185,1.185,0,0,0-1.435.446,1.157,1.157,0,0,0-.135,1.105l.543,1.435a3.541,3.541,0,0,1-1.842,4.46l-1.4.64a1.207,1.207,0,0,0-.718,1.106,1.19,1.19,0,0,0,.718,1.105l1.4.64a3.559,3.559,0,0,1,1.842,4.46l-.543,1.435a1.157,1.157,0,0,0,.135,1.105,1.244,1.244,0,0,0,1.435.446l1.435-.543a3.425,3.425,0,0,1,1.241-.233A3.56,3.56,0,0,1,13.244-416.575ZM9.929-427.066a5.057,5.057,0,0,1,5.042-5.043,5.057,5.057,0,0,1,5.042,5.043,5.057,5.057,0,0,1-5.042,5.042A5.044,5.044,0,0,1,9.929-427.066Zm2.326,0a2.723,2.723,0,0,0,2.715,2.714,2.722,2.722,0,0,0,2.714-2.714,2.722,2.722,0,0,0-2.714-2.715A2.723,2.723,0,0,0,12.255-427.066Z" transform="translate(-4074 -9614.001)"/>
</svg>
