<svg width="65" height="65" viewBox="0 0 65 65" fill="none" xmlns="http://www.w3.org/2000/svg">
<path d="M48.8 38.7594C54.3 28.9594 53 16.1594 44.5 7.65943C28.1 -8.74057 0 2.95943 0 26.0594C0 40.4594 11.7 52.1594 26.1 52.1594C30.7 52.1594 35 50.9594 38.8 48.8594L51.9 61.9594C54.7 64.7594 59.2 64.7594 62 61.9594C64.8 59.1594 64.8 54.6594 62 51.8594L48.8 38.7594ZM2 26.0594C2 4.75943 28 -6.14057 43.1 9.05943C58.2 24.1594 47.4 50.1594 26.1 50.1594C12.8 50.0594 2 39.2594 2 26.0594ZM60.5 60.4594C58.5 62.4594 55.3 62.4594 53.3 60.4594L40.5 47.6594C43.4 45.7594 45.8 43.2594 47.7 40.4594L60.5 53.2594C62.5 55.2594 62.5 58.4594 60.5 60.4594Z" fill="url(#paint0_linear)"/>
<path d="M18.3 29.4595H12.3C11.7 29.4595 11.3 29.8595 11.3 30.4595V39.4595C11.3 40.0595 11.7 40.4595 12.3 40.4595H18.3C18.9 40.4595 19.3 40.0595 19.3 39.4595V30.4595C19.3 29.8595 18.8 29.4595 18.3 29.4595ZM17.3 38.4595H13.3V31.4595H17.3V38.4595Z" fill="url(#paint1_linear)"/>
<path d="M29.5 24.3594H24.5C23.9 24.3594 23.5 24.7594 23.5 25.3594V40.3594C23.5 40.9594 23.9 41.3594 24.5 41.3594H29.5C30.1 41.3594 30.5 40.9594 30.5 40.3594V25.3594C30.5 24.8594 30.1 24.3594 29.5 24.3594ZM28.5 39.3594H25.5V26.3594H28.5V39.3594Z" fill="url(#paint2_linear)"/>
<path d="M40.5 19.3594H35.5C34.9 19.3594 34.5 19.7594 34.5 20.3594V40.3594C34.5 40.9594 34.9 41.3594 35.5 41.3594H40.5C41.1 41.3594 41.5 40.9594 41.5 40.3594V20.3594C41.5 19.8594 41.1 19.3594 40.5 19.3594ZM39.5 39.3594H36.5V21.3594H39.5V39.3594Z" fill="url(#paint3_linear)"/>
<path d="M32.7 11.3595L26.9 10.9595C26.3 10.9595 25.9 11.3595 25.8 11.8595C25.8 12.4595 26.2 12.8595 26.7 12.9595L29.9 13.1595L12.3 25.5595C11.8 25.8595 11.7 26.4595 12.1 26.9595C12.4 27.4595 13 27.5595 13.5 27.1595L31 14.7595L30.2 17.6595C30.1 18.1595 30.4 18.7595 30.9 18.8595C31.4 18.9595 32 18.6595 32.1 18.1595L33.6 12.6595C33.8 12.1595 33.5 11.3595 32.7 11.3595Z" fill="url(#paint4_linear)"/>
<defs>
<linearGradient id="paint0_linear" x1="0" y1="0" x2="64.0594" y2="64.1" gradientUnits="userSpaceOnUse">
<stop stop-color="#DE3535"/>
<stop offset="1" stop-color="#E46D2E"/>
</linearGradient>
<linearGradient id="paint1_linear" x1="11.3" y1="29.4595" x2="21.7649" y2="37.0703" gradientUnits="userSpaceOnUse">
<stop stop-color="#DE3535"/>
<stop offset="1" stop-color="#E46D2E"/>
</linearGradient>
<linearGradient id="paint2_linear" x1="23.5" y1="24.3594" x2="35.4704" y2="29.2884" gradientUnits="userSpaceOnUse">
<stop stop-color="#DE3535"/>
<stop offset="1" stop-color="#E46D2E"/>
</linearGradient>
<linearGradient id="paint3_linear" x1="34.5" y1="19.3594" x2="47.2129" y2="23.4044" gradientUnits="userSpaceOnUse">
<stop stop-color="#DE3535"/>
<stop offset="1" stop-color="#E46D2E"/>
</linearGradient>
<linearGradient id="paint4_linear" x1="11.8531" y1="10.9595" x2="27.6666" y2="31.9265" gradientUnits="userSpaceOnUse">
<stop stop-color="#DE3535"/>
<stop offset="1" stop-color="#E46D2E"/>
</linearGradient>
</defs>
</svg>
