<svg xmlns="http://www.w3.org/2000/svg" viewBox="-3562.121 7266.625 51.299 51.299"><defs><style>.cls-1{fill:none;stroke:#de4f4f;stroke-width:3px}.cls-2{filter:url(#Star)}</style><filter id="Star" x="-3562.121" y="7266.625" width="51.299" height="51.299" filterUnits="userSpaceOnUse"><feOffset dy="3"/><feGaussianBlur stdDeviation="3" result="blur"/><feFlood flood-color="#cb3737" flood-opacity=".302"/><feComposite operator="in" in2="blur"/><feComposite in="SourceGraphic"/></filter></defs><g class="cls-2"><path id="Star-2" data-name="Star" class="cls-1" d="M7.472 17.744v-.886c-.417-3.238-3.55-3.717-4.7-3.783q-.1 0-.191-.008h-.228l.057-.018a2.8 2.8 0 0 1 .39-5.577H3.25c3.219-.058 4.026-2.612 4.22-4.156V2.8a2.816 2.816 0 0 1 .056-.559v-.083l.009.056a2.8 2.8 0 0 1 5.542.585v.81c.5 3.961 4.863 3.86 4.863 3.86h-.027a2.8 2.8 0 0 1-.166 5.6h-1.826a4.549 4.549 0 0 0-2.846 3.951v.718a2.8 2.8 0 1 1-5.6 0z" transform="rotate(45 -10549.635 -631.522)"/></g></svg>