<svg width="57" height="49" viewBox="0 0 57 49" fill="none" xmlns="http://www.w3.org/2000/svg">
<path fill-rule="evenodd" clip-rule="evenodd" d="M26.4466 2.23974C28.9546 0.772203 31.8082 -0.000865112 34.714 2.74079e-05C36.8743 -0.00391584 39.0141 0.417672 41.0114 1.24072C43.0088 2.06377 44.8244 3.27216 46.3547 4.7969C47.885 6.32164 49.1 8.13286 49.9304 10.1272C50.7607 12.1215 51.1901 14.2598 51.194 16.42C51.1919 17.4511 51.0881 18.4794 50.884 19.49C52.4949 20.1334 53.9039 21.197 54.964 22.57C56.0466 23.9894 56.7112 25.683 56.8826 27.4599C57.0541 29.2367 56.7257 31.0262 55.9344 32.6264C55.1432 34.2265 53.9205 35.5738 52.4045 36.5162C50.8884 37.4586 49.1391 37.9587 47.354 37.96H44.354C44.0888 37.96 43.8344 37.8547 43.6469 37.6671C43.4594 37.4796 43.354 37.2252 43.354 36.96C43.354 36.6948 43.4594 36.4405 43.6469 36.2529C43.8344 36.0654 44.0888 35.96 44.354 35.96H47.354C49.1815 35.9636 50.9486 35.306 52.3291 34.1085C53.7096 32.9111 54.6103 31.2547 54.865 29.4451C55.1197 27.6354 54.7111 25.7947 53.7148 24.2628C52.7184 22.7308 51.2015 21.611 49.444 21.11C49.1915 21.0481 48.9729 20.8903 48.8348 20.67C48.6967 20.4498 48.6497 20.1843 48.704 19.93C48.9862 18.7878 49.1339 17.6165 49.144 16.44C49.1521 13.19 48.0621 10.0326 46.0507 7.47973C44.0394 4.92689 41.2246 3.12838 38.0629 2.37587C34.9012 1.62336 31.578 1.96098 28.6322 3.33398C25.6864 4.70698 23.2909 7.03483 21.834 9.94003C21.7317 10.1436 21.5629 10.3061 21.3556 10.4007C21.1482 10.4953 20.9148 10.5162 20.694 10.46C19.9591 10.2697 19.2032 10.1723 18.444 10.17C15.9844 10.178 13.6282 11.1599 11.8908 12.901C10.1535 14.642 9.17664 17.0004 9.17401 19.46C9.1688 19.5433 9.1688 19.6268 9.17401 19.71V19.94C9.17747 20.1783 9.09577 20.4099 8.9436 20.5932C8.79143 20.7766 8.5788 20.8995 8.34401 20.94C6.51198 21.294 4.87523 22.3121 3.74789 23.799C2.62056 25.2858 2.08208 27.1367 2.2358 28.9962C2.38953 30.8558 3.22463 32.5931 4.58081 33.8746C5.937 35.1562 7.71873 35.8917 9.58401 35.94H11.584C11.8492 35.94 12.1036 36.0454 12.2911 36.2329C12.4787 36.4205 12.584 36.6748 12.584 36.94C12.584 37.2052 12.4787 37.4596 12.2911 37.6471C12.1036 37.8347 11.8492 37.94 11.584 37.94H9.58401C7.25563 37.9434 5.00587 37.0979 3.25613 35.5617C1.5064 34.0255 0.376736 31.9041 0.0787299 29.5949C-0.219276 27.2856 0.334824 24.947 1.63724 23.0169C2.93966 21.0869 4.90104 19.6978 7.15401 19.11C7.24996 16.1785 8.48105 13.3989 10.5875 11.3577C12.6939 9.31661 15.5109 8.17365 18.444 8.17003C19.1148 8.16813 19.7843 8.22839 20.444 8.35003C21.8667 5.81633 23.9386 3.70728 26.4466 2.23974ZM23.5984 28.5877C24.1005 28.3246 24.625 28.1072 25.1659 27.9376L26.1052 25.0953C27.5334 24.9682 28.4694 24.9682 29.8973 25.0953L30.8368 27.9379C31.3778 28.1072 31.9023 28.3246 32.4041 28.5877L35.0789 27.2424C36.1516 28.1389 36.8639 28.8509 37.7604 29.9235L36.4147 32.5984C36.6779 33.1005 36.8956 33.625 37.0648 34.1659L39.9072 35.1052C40.0309 36.4966 40.0309 37.5059 39.9072 38.8973L37.0645 39.8368C36.8953 40.3778 36.6779 40.9023 36.4147 41.4041L37.7604 44.0789C36.8639 45.1516 36.1516 45.8639 35.0789 46.7604L32.4041 45.4147C31.902 45.6779 31.3775 45.8956 30.8368 46.0648L29.8973 48.9072C28.5059 49.0309 27.4966 49.0309 26.1052 48.9072L25.1659 46.0645C24.6247 45.8953 24.1002 45.6779 23.5984 45.4147L20.9235 46.7604C19.8509 45.8639 19.1389 45.1516 18.2424 44.0789L19.5877 41.4041C19.3246 40.902 19.1072 40.3775 18.9376 39.8368L16.0953 38.8973C15.9682 37.4694 15.9682 36.5334 16.0953 35.1052L18.9379 34.1659C19.1072 33.6247 19.3246 33.1002 19.5877 32.5984L18.2424 29.9235C19.1389 28.8509 19.8509 28.1389 20.9235 27.2424L23.5984 28.5877ZM26.1429 28.9678L27.0349 26.2684C27.6805 26.2107 28.3219 26.2107 28.9676 26.2684L29.8599 28.9678C30.7609 29.1759 31.6048 29.5312 32.3661 30.0073L34.9073 28.7289C35.4028 29.1428 35.8597 29.6 36.2739 30.0952L34.9952 32.6364C35.4713 33.3977 35.8268 34.2419 36.0346 35.1429L38.734 36.0349C38.7918 36.6805 38.7918 37.3219 38.734 37.9676L36.0346 38.8599C35.8268 39.7609 35.4716 40.6048 34.9952 41.3661L36.2739 43.9073C35.8597 44.4028 35.4028 44.8597 34.9073 45.2739L32.3661 43.9952C31.6048 44.4713 30.7609 44.8268 29.8599 45.0346L28.9676 47.734C28.3219 47.7917 27.6805 47.7917 27.0349 47.734L26.1429 45.0346C25.2419 44.8268 24.3977 44.4716 23.6364 43.9952L21.0952 45.2739C20.6 44.8597 20.1428 44.4028 19.7289 43.9073L21.0073 41.3661C20.5315 40.6048 20.1756 39.7609 19.9678 38.8599L17.2684 37.9676C17.2107 37.3219 17.2107 36.6805 17.2684 36.0349L19.9678 35.1429C20.1759 34.2419 20.5312 33.3977 21.0073 32.6364L19.7289 30.0952C20.1428 29.6 20.6 29.1428 21.0952 28.7289L23.6364 30.0073C24.3977 29.5315 25.2419 29.1756 26.1429 28.9678ZM24.0532 37.0014C24.0532 34.8211 25.8211 33.0532 28.0014 33.0532C30.1816 33.0532 31.9492 34.8211 31.9492 37.0014C31.9492 39.1816 30.1816 40.9492 28.0014 40.9492C25.8211 40.9492 24.0532 39.1816 24.0532 37.0014ZM30.6987 37.0014C30.6987 35.5116 29.4909 34.3038 28.0014 34.3038C26.5116 34.3038 25.3038 35.5116 25.3038 37.0014C25.3038 38.4909 26.5116 39.6987 28.0014 39.6987C29.4909 39.6987 30.6987 38.4909 30.6987 37.0014Z" fill="url(#paint0_linear)"/>
<defs>
<linearGradient id="paint0_linear" x1="0" y1="0" x2="48.4542" y2="56.2929" gradientUnits="userSpaceOnUse">
<stop stop-color="#DE3535"/>
<stop offset="1" stop-color="#E46D2E"/>
</linearGradient>
</defs>
</svg>
