<svg xmlns="http://www.w3.org/2000/svg" viewBox="-3800.983 9222 15.004 18">
  <defs>
    <style>
      .cls-1 {
        fill: #4c5a9a;
      }
    </style>
  </defs>
  <g id="Pin_icon" data-name="Pin icon" transform="translate(-3800.983 9222)">
    <path id="Path_631" data-name="Path 631" class="cls-1" d="M56.534,0a7.4,7.4,0,0,0-7.2,6.477,6.919,6.919,0,0,0,.1,2.063h0s.012.078.05.225a6.988,6.988,0,0,0,.505,1.425,20.938,20.938,0,0,0,6.393,7.662.674.674,0,0,0,.833,0,20.917,20.917,0,0,0,6.4-7.665,6.692,6.692,0,0,0,.505-1.425c.035-.144.05-.225.05-.225h0A6.92,6.92,0,0,0,64.3,7.179,7.357,7.357,0,0,0,56.534,0ZM56.8,10.752a3.568,3.568,0,0,1-3.644-3.488,3.647,3.647,0,0,1,7.288,0A3.568,3.568,0,0,1,56.8,10.752Z" transform="translate(-49.299 0)"/>
  </g>
</svg>
