<svg xmlns="http://www.w3.org/2000/svg" viewBox="-3738.965 9467.176 11.003 11">
  <defs>
    <style>
      .cls-1 {
        fill: #353490;
      }
    </style>
  </defs>
  <path id="Star" class="cls-1" d="M4.068,9.944l0-.011A1.5,1.5,0,0,1,4,9.5V9.025A2.455,2.455,0,0,0,1.5,7q-.062,0-.123-.005c-.071,0-.112,0-.112,0l.029-.009A1.5,1.5,0,0,1,1.5,4h.241A2.259,2.259,0,0,0,4,1.774V1.5a1.508,1.508,0,0,1,.03-.3c0-.029,0-.045,0-.045l0,.03A1.5,1.5,0,0,1,7,1.5v.431C7.269,4.055,9.607,4,9.607,4L9.592,4A1.5,1.5,0,0,1,9.5,7H8.525A2.436,2.436,0,0,0,7,9.115V9.5a1.5,1.5,0,0,1-2.934.444Z" transform="translate(-3738.965 9467.176)"/>
</svg>
