<svg xmlns="http://www.w3.org/2000/svg" viewBox="-3800.983 9524 15 11.786"><defs><style>.cls-1{fill:#4c5a9a}</style></defs><g id="Mail_icon" data-name="Mail icon" transform="translate(-3800.983 9524)"><path id="Path_632" data-name="Path 632" class="cls-1" d="M1.44 58.453q.285.2 1.716 1.193t2.193 1.527l.356.255q.272.2.452.318t.435.272a2.525 2.525 0 0 0 .481.226 1.326 1.326 0 0 0 .419.075h.017a1.327 1.327 0 0 0 .419-.075 2.528 2.528 0 0 0 .481-.226q.255-.151.435-.272t.452-.318q.272-.2.356-.255l3.917-2.72a3.976 3.976 0 0 0 1.021-1.03 2.211 2.211 0 0 0 .41-1.264 1.351 1.351 0 0 0-1.339-1.339H1.339a1.2 1.2 0 0 0-.992.435A1.69 1.69 0 0 0 0 56.343a1.955 1.955 0 0 0 .46 1.143 4.155 4.155 0 0 0 .98.967z" transform="translate(0 -54.82)"/><path id="Path_633" data-name="Path 633" class="cls-1" d="M14.163 185.165q-2.745 1.858-4.168 2.888-.477.351-.774.548a4.779 4.779 0 0 1-.791.4 2.409 2.409 0 0 1-.921.205h-.017a2.409 2.409 0 0 1-.921-.206 4.781 4.781 0 0 1-.791-.4q-.3-.2-.774-.548-1.13-.829-4.16-2.888a4.434 4.434 0 0 1-.846-.727v6.646a1.289 1.289 0 0 0 .393.946 1.289 1.289 0 0 0 .946.394h12.322a1.343 1.343 0 0 0 1.339-1.34v-6.646a4.616 4.616 0 0 1-.837.728z" transform="translate(0 -180.637)"/></g></svg>