<svg xmlns="http://www.w3.org/2000/svg" xmlns:xlink="http://www.w3.org/1999/xlink" viewBox="-4073 -13014 45 38.586">
  <defs>
    <style>
      .cls-1 {
        fill: url(#linear-gradient);
      }
    </style>
    <linearGradient id="linear-gradient" x2="1" y2="1" gradientUnits="objectBoundingBox">
      <stop offset="0" stop-color="#de3535"/>
      <stop offset="1" stop-color="#e46d2e"/>
    </linearGradient>
  </defs>
  <path id="Cutting_Edge_Technologies" data-name="Cutting Edge Technologies" class="cls-1" d="M26.024-3000.9a9.5,9.5,0,0,1,9.487-9.488A9.5,9.5,0,0,1,45-3000.9a9.492,9.492,0,0,1-9.488,9.488A9.492,9.492,0,0,1,26.024-3000.9Zm2.255-.009a7.246,7.246,0,0,0,7.232,7.233,7.246,7.246,0,0,0,7.233-7.233,7.246,7.246,0,0,0-7.233-7.233A7.245,7.245,0,0,0,28.279-3000.911Zm-21.957,4.463A6.327,6.327,0,0,1,0-3002.77a6.408,6.408,0,0,1,2.743-5.254,6.321,6.321,0,0,1-2.724-5.19,6.375,6.375,0,0,1,2.724-5.227,6.263,6.263,0,0,1-2.724-5.172v-.093A6.3,6.3,0,0,1,6.313-3030H31.159a6.3,6.3,0,0,1,6.294,6.294v.093a6.292,6.292,0,0,1-2.714,5.172,6.309,6.309,0,0,1,2.714,5.181,1.146,1.146,0,0,1-1.132,1.15,1.107,1.107,0,0,1-1.132-1.1,4.077,4.077,0,0,0-4.068-4.1H6.322a4.069,4.069,0,0,0-4.068,4.067,4.078,4.078,0,0,0,4.068,4.105H25.214a1.131,1.131,0,0,1,1.132,1.132,1.131,1.131,0,0,1-1.132,1.132H6.322a4.069,4.069,0,0,0-4.068,4.068,4.077,4.077,0,0,0,4.068,4.1H23.31a1.131,1.131,0,0,1,1.132,1.132,1.131,1.131,0,0,1-1.132,1.132Zm-4.068-27.239v.092a4.046,4.046,0,0,0,4.04,4.04H31.141a4.045,4.045,0,0,0,4.039-4.04v-.092a4.045,4.045,0,0,0-4.039-4.04H6.294A4.046,4.046,0,0,0,2.254-3023.687Zm32.117,25.905v-1.989H32.384a1.131,1.131,0,0,1-1.132-1.132,1.131,1.131,0,0,1,1.132-1.132h1.988v-1.988a1.131,1.131,0,0,1,1.132-1.132,1.131,1.131,0,0,1,1.132,1.132v1.988h1.988a1.131,1.131,0,0,1,1.132,1.132,1.131,1.131,0,0,1-1.132,1.132H36.634v1.989a1.131,1.131,0,0,1-1.132,1.132A1.131,1.131,0,0,1,34.371-2997.782Zm-25.813-5.007a1.2,1.2,0,0,1,1.2-1.2,1.2,1.2,0,0,1,1.2,1.2,1.2,1.2,0,0,1-1.2,1.2A1.2,1.2,0,0,1,8.558-3002.789Zm9.8,1.132a1.131,1.131,0,0,1-1.132-1.132,1.131,1.131,0,0,1,1.132-1.132h4.767a1.131,1.131,0,0,1,1.132,1.132,1.131,1.131,0,0,1-1.132,1.132Zm-9.8-11.559a1.2,1.2,0,0,1,1.2-1.2,1.2,1.2,0,0,1,1.2,1.2,1.2,1.2,0,0,1-1.2,1.2A1.2,1.2,0,0,1,8.558-3013.215Zm9.8,1.132a1.131,1.131,0,0,1-1.132-1.132,1.131,1.131,0,0,1,1.132-1.132H28.877a1.131,1.131,0,0,1,1.132,1.132,1.14,1.14,0,0,1-1.123,1.132Zm-9.8-11.558a1.2,1.2,0,0,1,1.2-1.2,1.2,1.2,0,0,1,1.2,1.2,1.2,1.2,0,0,1-1.2,1.2A1.2,1.2,0,0,1,8.558-3023.641Zm9.8,1.132a1.131,1.131,0,0,1-1.132-1.132,1.131,1.131,0,0,1,1.132-1.132H28.877a1.138,1.138,0,0,1,1.141,1.132,1.131,1.131,0,0,1-1.132,1.132Z" transform="translate(-4073 -9984)"/>
</svg>
