<svg xmlns="http://www.w3.org/2000/svg" xmlns:xlink="http://www.w3.org/1999/xlink" viewBox="-4071 -17564 40 40">
  <defs>
    <style>
      .cls-1 {
        fill: url(#linear-gradient);
      }
    </style>
    <linearGradient id="linear-gradient" x2="1" y2="1" gradientUnits="objectBoundingBox">
      <stop offset="0" stop-color="#de3535"/>
      <stop offset="1" stop-color="#e46d2e"/>
    </linearGradient>
  </defs>
  <path id="Desktop_icon" data-name="Desktop icon" class="cls-1" d="M-302.174-1426a.869.869,0,0,1-.869-.87,4.354,4.354,0,0,1,4.348-4.348h6.087v-1.739h-13.044A4.354,4.354,0,0,1-310-1437.3v-24.348a4.354,4.354,0,0,1,4.347-4.348h31.3a4.354,4.354,0,0,1,4.348,4.348v24.348a4.354,4.354,0,0,1-4.348,4.348h-13.044v1.739h6.088a4.355,4.355,0,0,1,4.348,4.348.87.87,0,0,1-.87.87Zm1.018-1.739h22.311a2.616,2.616,0,0,0-2.461-1.739H-298.7A2.615,2.615,0,0,0-301.156-1427.739Zm10.287-3.479h1.739v-1.739h-1.739Zm-17.392-6.087a2.612,2.612,0,0,0,2.608,2.609h31.3a2.613,2.613,0,0,0,2.609-2.609v-.869h-36.522Zm0-24.348v21.74h36.522v-21.74a2.612,2.612,0,0,0-2.609-2.608h-31.3A2.611,2.611,0,0,0-308.261-1461.652Zm28.7,18.261a.87.87,0,0,1-.869-.869v-5.217a.87.87,0,0,1,.869-.87h3.479a.87.87,0,0,1,.869.87v5.217a.87.87,0,0,1-.869.869Zm.869-1.74h1.74v-3.478h-1.74Zm-5.217.87v-3.119l-.254.254a.87.87,0,0,1-1.229,0,.87.87,0,0,1,0-1.229l1.739-1.739a.865.865,0,0,1,.948-.188.872.872,0,0,1,.536.8v5.217a.87.87,0,0,1-.87.869A.87.87,0,0,1-283.913-1444.261Zm-7.826.869a.87.87,0,0,1-.869-.869v-5.217a.87.87,0,0,1,.869-.87h3.478a.87.87,0,0,1,.869.87v5.217a.869.869,0,0,1-.869.869Zm.87-1.74h1.739v-3.478h-1.739Zm-5.218.87v-3.119l-.254.254a.87.87,0,0,1-1.229,0,.87.87,0,0,1,0-1.229l1.739-1.739a.868.868,0,0,1,.949-.188.87.87,0,0,1,.537.8v5.217a.873.873,0,0,1-.871.869A.87.87,0,0,1-296.087-1444.261Zm-7.826.869a.87.87,0,0,1-.869-.869v-5.217a.87.87,0,0,1,.869-.87h3.478a.87.87,0,0,1,.869.87v5.217a.87.87,0,0,1-.869.869Zm.869-1.74h1.739v-3.478h-1.739Zm23.478-8.695a.87.87,0,0,1-.869-.869v-5.217a.87.87,0,0,1,.869-.87h3.479a.87.87,0,0,1,.869.87v5.217a.87.87,0,0,1-.869.869Zm.869-1.74h1.74v-3.478h-1.74Zm-5.217.87v-3.119l-.254.254a.87.87,0,0,1-1.229,0,.87.87,0,0,1,0-1.229l1.739-1.739a.862.862,0,0,1,.948-.188.871.871,0,0,1,.536.8v5.217a.87.87,0,0,1-.87.869A.87.87,0,0,1-283.913-1454.7Zm-5.217,0v-3.119l-.254.254a.87.87,0,0,1-1.229,0,.87.87,0,0,1,0-1.229l1.739-1.739a.863.863,0,0,1,.948-.188.868.868,0,0,1,.537.8v5.217a.872.872,0,0,1-.871.869A.87.87,0,0,1-289.13-1454.7Zm-7.826.869a.87.87,0,0,1-.869-.869v-5.217a.87.87,0,0,1,.869-.87h3.479a.87.87,0,0,1,.869.87v5.217a.87.87,0,0,1-.869.869Zm.87-1.74h1.739v-3.478h-1.739Zm-7.826,1.74a.87.87,0,0,1-.869-.869v-5.217a.87.87,0,0,1,.869-.87h3.478a.87.87,0,0,1,.869.87v5.217a.87.87,0,0,1-.869.869Zm.869-1.74h1.739v-3.478h-1.739Z" transform="translate(-3761 -16098)"/>
</svg>
