<svg xmlns="http://www.w3.org/2000/svg" xmlns:xlink="http://www.w3.org/1999/xlink" viewBox="-4083 -9838 64.444 50">
  <defs>
    <style>
      .cls-1 {
        fill: url(#linear-gradient);
      }
    </style>
    <linearGradient id="linear-gradient" x2="1" y2="1" gradientUnits="objectBoundingBox">
      <stop offset="0" stop-color="#de3535"/>
      <stop offset="1" stop-color="#e46d2e"/>
    </linearGradient>
  </defs>
  <path id="Database_icon" data-name="Database icon" class="cls-1" d="M63.333,67.111H57.778V51.556a1.11,1.11,0,0,0-1.111-1.111H52.222V48.222a1.11,1.11,0,0,0-1.111-1.111H45.556V31.556a1.11,1.11,0,0,0-1.111-1.111H40V27.111A1.11,1.11,0,0,0,38.889,26H25.556a1.11,1.11,0,0,0-1.111,1.111v3.333H20a1.11,1.11,0,0,0-1.111,1.111V47.111H13.333a1.11,1.11,0,0,0-1.111,1.111v2.222H7.778a1.11,1.11,0,0,0-1.111,1.111V67.111H1.111A1.11,1.11,0,0,0,0,68.222v6.667A1.11,1.11,0,0,0,1.111,76H14.444a1.11,1.11,0,0,0,1.111-1.111V68.222a1.11,1.11,0,0,0-1.111-1.111H8.889V52.667h3.333v2.222A1.11,1.11,0,0,0,13.333,56H26.667a1.11,1.11,0,0,0,1.111-1.111V52.667h3.333V67.111H25.556a1.11,1.11,0,0,0-1.111,1.111v6.667A1.11,1.11,0,0,0,25.556,76H38.889A1.11,1.11,0,0,0,40,74.889V68.222a1.11,1.11,0,0,0-1.111-1.111H33.333V52.667h3.333v2.222A1.11,1.11,0,0,0,37.778,56H51.111a1.11,1.11,0,0,0,1.111-1.111V52.667h3.333V67.111H50a1.11,1.11,0,0,0-1.111,1.111v6.667A1.11,1.11,0,0,0,50,76H63.333a1.11,1.11,0,0,0,1.111-1.111V68.222A1.11,1.11,0,0,0,63.333,67.111Zm-50,2.222v4.444H2.222V69.333ZM26.667,28.222H37.778v6.667H26.667ZM25.556,53.778H14.444V49.333H25.556ZM37.778,69.333v4.444H26.667V69.333ZM36.667,48.222v2.222H27.778V48.222a1.11,1.11,0,0,0-1.111-1.111H21.111V32.667h3.333V36a1.11,1.11,0,0,0,1.111,1.111H38.889A1.11,1.11,0,0,0,40,36V32.667h3.333V47.111H37.778A1.11,1.11,0,0,0,36.667,48.222ZM50,53.778H38.889V49.333H50Zm12.222,20H51.111V69.333H62.222Z" transform="translate(-4083 -9864)"/>
</svg>
