<svg width="224" height="224" viewBox="0 0 224 224" fill="none" xmlns="http://www.w3.org/2000/svg">
<path d="M53.2295 180.035C53.2295 191.019 62.2108 200.001 73.1955 200.001C84.1803 200.001 93.1616 191.019 93.1616 180.035C93.1616 169.05 84.1803 160.068 73.1955 160.068C62.2108 160.068 53.2295 169.05 53.2295 180.035ZM79.3443 180.035C79.3443 183.42 76.5808 186.183 73.1955 186.183C69.8103 186.183 67.0468 183.42 67.0468 180.035C67.0468 176.649 69.8103 173.886 73.1955 173.886C76.5808 173.886 79.3443 176.649 79.3443 180.035Z" fill="url(#paint0_linear)"/>
<path d="M177.655 160.068C166.67 160.068 157.688 169.05 157.688 180.035C157.688 191.019 166.67 200.001 177.655 200.001C188.639 200.001 197.621 191.019 197.621 180.035C197.621 169.05 188.639 160.068 177.655 160.068ZM177.655 186.183C174.269 186.183 171.506 183.42 171.506 180.035C171.506 176.649 174.269 173.886 177.655 173.886C181.04 173.886 183.803 176.649 183.803 180.035C183.803 183.42 181.04 186.183 177.655 186.183Z" fill="url(#paint1_linear)"/>
<path d="M7.90867 36.8173H28.3583L35.0597 70.3934L50.7424 148.738C50.8115 149.014 50.9496 149.221 51.0187 149.498C51.1569 149.843 51.226 150.189 51.4333 150.465C51.6405 150.948 51.9169 151.294 52.2623 151.708C52.4696 151.985 52.6768 152.192 52.8841 152.468C53.2986 152.814 53.7131 153.09 54.1967 153.367C54.4731 153.505 54.6803 153.712 54.9567 153.781C55.7166 154.057 56.6148 154.265 57.4438 154.265H197.137C200.246 154.265 203.009 152.192 203.769 149.152L223.321 77.3712C223.874 75.2986 223.459 73.0878 222.146 71.3607C220.834 69.6335 218.83 68.6663 216.689 68.6663H48.8771L48.6698 67.6991L40.7939 28.5269C40.1721 25.2799 37.3396 23 34.0234 23H7.90867C4.1089 23 1 26.1089 1 29.9087C1 33.7084 4.1089 36.8173 7.90867 36.8173ZM207.776 82.4836L191.956 140.447H63.178L51.6405 82.4836H207.776Z" fill="url(#paint2_linear)"/>
<defs>
<linearGradient id="paint0_linear" x1="59.1992" y1="166.969" x2="84.2255" y2="195.951" gradientUnits="userSpaceOnUse">
<stop stop-color="#E04333"/>
<stop offset="1" stop-color="#E46A3D"/>
</linearGradient>
<linearGradient id="paint1_linear" x1="163.658" y1="166.969" x2="188.684" y2="195.951" gradientUnits="userSpaceOnUse">
<stop stop-color="#E04333"/>
<stop offset="1" stop-color="#E46A3D"/>
</linearGradient>
<linearGradient id="paint2_linear" x1="34.2719" y1="45.6818" x2="101.527" y2="177.737" gradientUnits="userSpaceOnUse">
<stop stop-color="#E04333"/>
<stop offset="1" stop-color="#E46A3D"/>
</linearGradient>
</defs>
</svg>
