<?xml version="1.0" encoding="utf-8"?>
<!-- Generator: Adobe Illustrator 21.0.0, SVG Export Plug-In . SVG Version: 6.00 Build 0)  -->
<svg version="1.1" id="Слой_1" xmlns="http://www.w3.org/2000/svg" xmlns:xlink="http://www.w3.org/1999/xlink" x="0px" y="0px"
	 viewBox="0 0 186.9 186.9" style="enable-background:new 0 0 186.9 186.9;" xml:space="preserve">
<style type="text/css">
	.st0{opacity:0.3;fill:#3F47CC;enable-background:new    ;}
	.st1{fill:#4C5CA2;}
	.st2{fill:#FFFFFF;}
	.st3{fill:#7E92CB;}
	.st4{fill:#7383BF;}
	.st5{fill:#E7F3FC;}
	.st6{fill:#518EF8;}
	.st7{fill:#3A5BBC;}
	.st8{fill:#ACD1FC;}
</style>
<g>
	<path class="st6" d="M140.2,56.5v85.4c0,4.6-3.7,8.3-8.3,8.3H55c-4.6,0-8.3-3.7-8.3-8.3V29.4c0-4.6,3.7-8.3,8.3-8.3h49.8
		L140.2,56.5z"/>
	<g>
		<rect x="69.5" y="85.9" class="st2" width="47.8" height="5.3"/>
		<rect x="69.5" y="97.8" class="st2" width="47.8" height="5.3"/>
		<rect x="69.5" y="109.6" class="st2" width="47.8" height="5.3"/>
		<rect x="69.5" y="121.5" class="st2" width="34" height="5.3"/>
	</g>
	<polygon class="st7" points="109.7,55.7 140.2,68.3 140.2,56.5 122.9,51.3 	"/>
	<path class="st8" d="M140.2,56.5h-27c-4.6,0-8.3-3.7-8.3-8.3v-27L140.2,56.5z"/>
</g>
</svg>
