<svg version="1.1" id="Слой_1" xmlns="http://www.w3.org/2000/svg" x="0" y="0" viewBox="0 0 186.9 186.9" xml:space="preserve"><style>.st2{fill:#fff}</style><path d="M140.2 56.5v85.4c0 4.6-3.7 8.3-8.3 8.3H55c-4.6 0-8.3-3.7-8.3-8.3V29.4c0-4.6 3.7-8.3 8.3-8.3h49.8l35.4 35.4z" fill="#518ef8"/><path class="st2" d="M69.5 85.9h47.8v5.3H69.5zM69.5 97.8h47.8v5.3H69.5zM69.5 109.6h47.8v5.3H69.5zM69.5 121.5h34v5.3h-34z"/><path fill="#3a5bbc" d="M109.7 55.7l30.5 12.6V56.5l-17.3-5.2z"/><path d="M140.2 56.5h-27c-4.6 0-8.3-3.7-8.3-8.3v-27l35.3 35.3z" fill="#acd1fc"/></svg>