<svg xmlns="http://www.w3.org/2000/svg" xmlns:xlink="http://www.w3.org/1999/xlink" viewBox="-4075 -10263 48.476 35">
  <defs>
    <style>
      .cls-1 {
        fill: url(#linear-gradient);
      }
    </style>
    <linearGradient id="linear-gradient" x2="1" y2="1" gradientUnits="objectBoundingBox">
      <stop offset="0" stop-color="#de3535"/>
      <stop offset="1" stop-color="#e46d2e"/>
    </linearGradient>
  </defs>
  <path id="Front-End_icon" data-name="Front-End icon" class="cls-1" d="M-307.31-186.891a2.692,2.692,0,0,1-2.69-2.69V-219.2a2.693,2.693,0,0,1,2.69-2.691h43.1a2.694,2.694,0,0,1,2.691,2.691v29.62a2.693,2.693,0,0,1-2.691,2.69Zm-.711-2.69a.711.711,0,0,0,.711.711h43.1a.712.712,0,0,0,.712-.711v-24.595h-44.519Zm0-29.62v3.046H-263.5V-219.2a.712.712,0,0,0-.712-.711h-43.1A.711.711,0,0,0-308.021-219.2ZM-288.9-196.97a.988.988,0,0,1-.436-1.329l4.678-9.259a.989.989,0,0,1,1.329-.437.99.99,0,0,1,.437,1.33l-4.678,9.259a.989.989,0,0,1-.883.543A.979.979,0,0,1-288.9-196.97Zm8.062-.508a.99.99,0,0,1,0-1.4l3.767-3.767-3.767-3.767a.99.99,0,0,1,0-1.4.99.99,0,0,1,1.4,0l4.466,4.468a.99.99,0,0,1,.29.7.991.991,0,0,1-.29.7l-4.466,4.466a.987.987,0,0,1-.7.29A.986.986,0,0,1-280.838-197.478Zm-11.951,0-4.466-4.466a.993.993,0,0,1-.29-.7.99.99,0,0,1,.29-.7l4.466-4.468a.99.99,0,0,1,1.4,0,.99.99,0,0,1,0,1.4l-3.767,3.767,3.767,3.767a.99.99,0,0,1,0,1.4.987.987,0,0,1-.7.29A.986.986,0,0,1-292.789-197.478Z" transform="translate(-3765 -10041.109)"/>
</svg>
