<svg width="172" height="108" viewBox="0 0 172 108" fill="none" xmlns="http://www.w3.org/2000/svg">
<path d="M21.0356 92.704H22.3956L23.8996 96.656L25.4196 92.704H26.7796L24.8116 97.648L26.7636 102.336L30.6036 92.64H32.1716L27.4196 104H26.1716L23.9156 98.64L21.6436 104H20.3956L15.6596 92.64H17.2116L21.0676 102.336L23.0036 97.648L21.0356 92.704ZM36.0351 104.16C35.4058 104.16 34.8298 104.048 34.3071 103.824C33.7845 103.589 33.3365 103.275 32.9631 102.88C32.5898 102.485 32.2965 102.027 32.0831 101.504C31.8805 100.971 31.7791 100.411 31.7791 99.824C31.7791 99.2373 31.8805 98.6827 32.0831 98.16C32.2965 97.6373 32.5898 97.1787 32.9631 96.784C33.3471 96.3893 33.8005 96.08 34.3231 95.856C34.8458 95.6213 35.4218 95.504 36.0511 95.504C36.6805 95.504 37.2511 95.6213 37.7631 95.856C38.2858 96.0907 38.7285 96.4053 39.0911 96.8C39.4538 97.184 39.7311 97.6373 39.9231 98.16C40.1258 98.672 40.2271 99.2053 40.2271 99.76C40.2271 99.8773 40.2218 99.984 40.2111 100.08C40.2111 100.176 40.2058 100.251 40.1951 100.304H33.2671C33.2991 100.72 33.3951 101.099 33.5551 101.44C33.7151 101.781 33.9231 102.075 34.1791 102.32C34.4351 102.565 34.7231 102.757 35.0431 102.896C35.3738 103.035 35.7205 103.104 36.0831 103.104C36.3391 103.104 36.5898 103.072 36.8351 103.008C37.0805 102.933 37.3098 102.837 37.5231 102.72C37.7365 102.603 37.9231 102.459 38.0831 102.288C38.2538 102.117 38.3818 101.925 38.4671 101.712L39.6831 102.048C39.5445 102.357 39.3525 102.64 39.1071 102.896C38.8725 103.152 38.5951 103.376 38.2751 103.568C37.9658 103.749 37.6191 103.893 37.2351 104C36.8511 104.107 36.4511 104.16 36.0351 104.16ZM38.8991 99.264C38.8671 98.8693 38.7658 98.5067 38.5951 98.176C38.4351 97.8347 38.2271 97.5467 37.9711 97.312C37.7258 97.0773 37.4378 96.896 37.1071 96.768C36.7765 96.6293 36.4245 96.56 36.0511 96.56C35.6778 96.56 35.3258 96.6293 34.9951 96.768C34.6645 96.896 34.3711 97.0827 34.1151 97.328C33.8698 97.5627 33.6671 97.8453 33.5071 98.176C33.3578 98.5067 33.2671 98.8693 33.2351 99.264H38.8991ZM46.0803 104.16C45.4296 104.16 44.8376 104 44.3043 103.68C43.7709 103.36 43.3496 102.944 43.0403 102.432V104H41.7923V92.32H43.2003V97.312C43.5523 96.768 43.9843 96.3307 44.4963 96C45.0083 95.6693 45.6056 95.504 46.2883 95.504C46.8643 95.504 47.3816 95.6267 47.8403 95.872C48.2989 96.1173 48.6883 96.4427 49.0083 96.848C49.3389 97.2427 49.5896 97.7067 49.7603 98.24C49.9416 98.7627 50.0323 99.3013 50.0323 99.856C50.0323 100.443 49.9309 100.997 49.7283 101.52C49.5256 102.043 49.2483 102.501 48.8963 102.896C48.5443 103.28 48.1229 103.589 47.6323 103.824C47.1523 104.048 46.6349 104.16 46.0803 104.16ZM45.7283 102.944C46.1443 102.944 46.5283 102.859 46.8803 102.688C47.2323 102.517 47.5363 102.288 47.7923 102C48.0483 101.712 48.2456 101.387 48.3843 101.024C48.5229 100.651 48.5923 100.261 48.5923 99.856C48.5923 99.4507 48.5229 99.0613 48.3843 98.688C48.2563 98.304 48.0696 97.968 47.8243 97.68C47.5896 97.392 47.3016 97.1627 46.9603 96.992C46.6296 96.8107 46.2616 96.72 45.8563 96.72C45.5576 96.72 45.2749 96.7733 45.0083 96.88C44.7416 96.9867 44.4909 97.1307 44.2563 97.312C44.0323 97.4827 43.8296 97.6853 43.6483 97.92C43.4776 98.1547 43.3283 98.4053 43.2003 98.672V101.088C43.2536 101.355 43.3656 101.6 43.5363 101.824C43.7176 102.048 43.9256 102.245 44.1603 102.416C44.4056 102.576 44.6616 102.704 44.9283 102.8C45.2056 102.896 45.4723 102.944 45.7283 102.944ZM56.0319 104V92.64H59.9679C60.8745 92.64 61.6692 92.7893 62.3519 93.088C63.0452 93.3867 63.6212 93.792 64.0799 94.304C64.5385 94.816 64.8799 95.4187 65.1039 96.112C65.3385 96.7947 65.4559 97.5253 65.4559 98.304C65.4559 99.168 65.3279 99.952 65.0719 100.656C64.8159 101.349 64.4479 101.947 63.9679 102.448C63.4879 102.939 62.9065 103.323 62.2239 103.6C61.5519 103.867 60.7999 104 59.9679 104H56.0319ZM63.9999 98.304C63.9999 97.664 63.9092 97.0773 63.7279 96.544C63.5572 96 63.2959 95.536 62.9439 95.152C62.6025 94.768 62.1812 94.4693 61.6799 94.256C61.1785 94.032 60.6079 93.92 59.9679 93.92H57.4719V102.72H59.9679C60.6185 102.72 61.1945 102.608 61.6959 102.384C62.2079 102.16 62.6292 101.851 62.9599 101.456C63.3012 101.061 63.5572 100.597 63.7279 100.064C63.9092 99.52 63.9999 98.9333 63.9999 98.304ZM70.957 104.16C70.3277 104.16 69.7517 104.048 69.229 103.824C68.7063 103.589 68.2583 103.275 67.885 102.88C67.5117 102.485 67.2183 102.027 67.005 101.504C66.8023 100.971 66.701 100.411 66.701 99.824C66.701 99.2373 66.8023 98.6827 67.005 98.16C67.2183 97.6373 67.5117 97.1787 67.885 96.784C68.269 96.3893 68.7223 96.08 69.245 95.856C69.7677 95.6213 70.3437 95.504 70.973 95.504C71.6023 95.504 72.173 95.6213 72.685 95.856C73.2077 96.0907 73.6503 96.4053 74.013 96.8C74.3757 97.184 74.653 97.6373 74.845 98.16C75.0477 98.672 75.149 99.2053 75.149 99.76C75.149 99.8773 75.1437 99.984 75.133 100.08C75.133 100.176 75.1277 100.251 75.117 100.304H68.189C68.221 100.72 68.317 101.099 68.477 101.44C68.637 101.781 68.845 102.075 69.101 102.32C69.357 102.565 69.645 102.757 69.965 102.896C70.2957 103.035 70.6423 103.104 71.005 103.104C71.261 103.104 71.5117 103.072 71.757 103.008C72.0023 102.933 72.2317 102.837 72.445 102.72C72.6583 102.603 72.845 102.459 73.005 102.288C73.1757 102.117 73.3037 101.925 73.389 101.712L74.605 102.048C74.4663 102.357 74.2743 102.64 74.029 102.896C73.7943 103.152 73.517 103.376 73.197 103.568C72.8877 103.749 72.541 103.893 72.157 104C71.773 104.107 71.373 104.16 70.957 104.16ZM73.821 99.264C73.789 98.8693 73.6877 98.5067 73.517 98.176C73.357 97.8347 73.149 97.5467 72.893 97.312C72.6477 97.0773 72.3597 96.896 72.029 96.768C71.6983 96.6293 71.3463 96.56 70.973 96.56C70.5997 96.56 70.2477 96.6293 69.917 96.768C69.5863 96.896 69.293 97.0827 69.037 97.328C68.7917 97.5627 68.589 97.8453 68.429 98.176C68.2797 98.5067 68.189 98.8693 68.157 99.264H73.821ZM78.9114 104L75.6154 95.648H77.0714L79.7114 102.768L82.3674 95.648H83.7114L80.4154 104H78.9114ZM88.5195 104.16C87.8902 104.16 87.3142 104.048 86.7915 103.824C86.2688 103.589 85.8208 103.275 85.4475 102.88C85.0742 102.485 84.7808 102.027 84.5675 101.504C84.3648 100.971 84.2635 100.411 84.2635 99.824C84.2635 99.2373 84.3648 98.6827 84.5675 98.16C84.7808 97.6373 85.0742 97.1787 85.4475 96.784C85.8315 96.3893 86.2848 96.08 86.8075 95.856C87.3302 95.6213 87.9062 95.504 88.5355 95.504C89.1648 95.504 89.7355 95.6213 90.2475 95.856C90.7702 96.0907 91.2128 96.4053 91.5755 96.8C91.9382 97.184 92.2155 97.6373 92.4075 98.16C92.6102 98.672 92.7115 99.2053 92.7115 99.76C92.7115 99.8773 92.7062 99.984 92.6955 100.08C92.6955 100.176 92.6902 100.251 92.6795 100.304H85.7515C85.7835 100.72 85.8795 101.099 86.0395 101.44C86.1995 101.781 86.4075 102.075 86.6635 102.32C86.9195 102.565 87.2075 102.757 87.5275 102.896C87.8582 103.035 88.2048 103.104 88.5675 103.104C88.8235 103.104 89.0742 103.072 89.3195 103.008C89.5648 102.933 89.7942 102.837 90.0075 102.72C90.2208 102.603 90.4075 102.459 90.5675 102.288C90.7382 102.117 90.8662 101.925 90.9515 101.712L92.1675 102.048C92.0288 102.357 91.8368 102.64 91.5915 102.896C91.3568 103.152 91.0795 103.376 90.7595 103.568C90.4502 103.749 90.1035 103.893 89.7195 104C89.3355 104.107 88.9355 104.16 88.5195 104.16ZM91.3835 99.264C91.3515 98.8693 91.2502 98.5067 91.0795 98.176C90.9195 97.8347 90.7115 97.5467 90.4555 97.312C90.2102 97.0773 89.9222 96.896 89.5915 96.768C89.2608 96.6293 88.9088 96.56 88.5355 96.56C88.1622 96.56 87.8102 96.6293 87.4795 96.768C87.1488 96.896 86.8555 97.0827 86.5995 97.328C86.3542 97.5627 86.1515 97.8453 85.9915 98.176C85.8422 98.5067 85.7515 98.8693 85.7195 99.264H91.3835ZM94.3086 92.32H95.7166V101.84C95.7166 102.149 95.7966 102.395 95.9566 102.576C96.1273 102.747 96.362 102.832 96.6606 102.832C96.778 102.832 96.9166 102.816 97.0766 102.784C97.2366 102.741 97.386 102.693 97.5246 102.64L97.7486 103.776C97.514 103.872 97.2366 103.952 96.9166 104.016C96.5966 104.08 96.314 104.112 96.0686 104.112C95.5246 104.112 95.0926 103.957 94.7726 103.648C94.4633 103.339 94.3086 102.907 94.3086 102.352V92.32ZM102.503 104.16C101.873 104.16 101.297 104.043 100.775 103.808C100.263 103.573 99.8201 103.259 99.4468 102.864C99.0841 102.469 98.8014 102.011 98.5988 101.488C98.3961 100.965 98.2948 100.416 98.2948 99.84C98.2948 99.2533 98.3961 98.6987 98.5988 98.176C98.8121 97.6533 99.1001 97.1947 99.4628 96.8C99.8361 96.4053 100.279 96.0907 100.791 95.856C101.313 95.6213 101.884 95.504 102.503 95.504C103.121 95.504 103.692 95.6213 104.215 95.856C104.737 96.0907 105.18 96.4053 105.543 96.8C105.916 97.1947 106.204 97.6533 106.407 98.176C106.62 98.6987 106.727 99.2533 106.727 99.84C106.727 100.416 106.625 100.965 106.423 101.488C106.22 102.011 105.932 102.469 105.559 102.864C105.185 103.259 104.737 103.573 104.215 103.808C103.703 104.043 103.132 104.16 102.503 104.16ZM99.7348 99.856C99.7348 100.293 99.8041 100.699 99.9428 101.072C100.092 101.445 100.289 101.771 100.535 102.048C100.791 102.325 101.084 102.544 101.415 102.704C101.756 102.864 102.119 102.944 102.503 102.944C102.887 102.944 103.244 102.864 103.575 102.704C103.916 102.544 104.215 102.325 104.471 102.048C104.727 101.76 104.924 101.429 105.063 101.056C105.212 100.672 105.287 100.261 105.287 99.824C105.287 99.3973 105.212 98.9973 105.063 98.624C104.924 98.24 104.727 97.9093 104.471 97.632C104.215 97.344 103.916 97.12 103.575 96.96C103.244 96.8 102.887 96.72 102.503 96.72C102.119 96.72 101.756 96.8053 101.415 96.976C101.084 97.136 100.791 97.36 100.535 97.648C100.289 97.9253 100.092 98.256 99.9428 98.64C99.8041 99.0133 99.7348 99.4187 99.7348 99.856ZM112.929 104.16C112.236 104.16 111.622 103.989 111.089 103.648C110.566 103.307 110.15 102.875 109.841 102.352V107.408H108.433V95.648H109.681V97.216C110.012 96.704 110.438 96.2933 110.961 95.984C111.494 95.664 112.081 95.504 112.721 95.504C113.297 95.504 113.825 95.6213 114.305 95.856C114.785 96.0907 115.201 96.4107 115.553 96.816C115.905 97.2107 116.177 97.6693 116.369 98.192C116.572 98.7147 116.673 99.2587 116.673 99.824C116.673 100.421 116.582 100.987 116.401 101.52C116.22 102.043 115.964 102.501 115.633 102.896C115.302 103.28 114.908 103.589 114.449 103.824C113.99 104.048 113.484 104.16 112.929 104.16ZM112.497 102.944C112.913 102.944 113.286 102.859 113.617 102.688C113.958 102.507 114.246 102.272 114.481 101.984C114.726 101.685 114.913 101.349 115.041 100.976C115.169 100.603 115.233 100.219 115.233 99.824C115.233 99.408 115.158 99.0133 115.009 98.64C114.86 98.256 114.657 97.9253 114.401 97.648C114.145 97.36 113.841 97.136 113.489 96.976C113.148 96.8053 112.774 96.72 112.369 96.72C112.113 96.72 111.846 96.7733 111.569 96.88C111.302 96.976 111.046 97.1093 110.801 97.28C110.566 97.44 110.358 97.6373 110.177 97.872C110.006 98.096 109.894 98.336 109.841 98.592V100.976C109.958 101.253 110.108 101.515 110.289 101.76C110.47 101.995 110.678 102.203 110.913 102.384C111.148 102.555 111.398 102.693 111.665 102.8C111.932 102.896 112.209 102.944 112.497 102.944ZM130.994 104H129.586V99.328C129.586 98.4533 129.442 97.808 129.154 97.392C128.876 96.976 128.46 96.768 127.906 96.768C127.33 96.768 126.812 96.976 126.354 97.392C125.906 97.7973 125.586 98.3253 125.394 98.976V104H123.986V99.328C123.986 98.432 123.847 97.7813 123.57 97.376C123.292 96.9707 122.876 96.768 122.322 96.768C121.756 96.768 121.244 96.9707 120.786 97.376C120.327 97.7707 120.002 98.2987 119.81 98.96V104H118.402V95.648H119.682V97.44C120.023 96.8213 120.466 96.3467 121.01 96.016C121.554 95.6747 122.167 95.504 122.85 95.504C123.554 95.504 124.108 95.696 124.514 96.08C124.93 96.4533 125.186 96.9387 125.282 97.536C126.028 96.1813 127.09 95.504 128.466 95.504C128.946 95.504 129.346 95.5947 129.666 95.776C129.996 95.9467 130.258 96.192 130.45 96.512C130.642 96.8213 130.78 97.1893 130.866 97.616C130.951 98.0427 130.994 98.5067 130.994 99.008V104ZM136.879 104.16C136.25 104.16 135.674 104.048 135.151 103.824C134.628 103.589 134.18 103.275 133.807 102.88C133.434 102.485 133.14 102.027 132.927 101.504C132.724 100.971 132.623 100.411 132.623 99.824C132.623 99.2373 132.724 98.6827 132.927 98.16C133.14 97.6373 133.434 97.1787 133.807 96.784C134.191 96.3893 134.644 96.08 135.167 95.856C135.69 95.6213 136.266 95.504 136.895 95.504C137.524 95.504 138.095 95.6213 138.607 95.856C139.13 96.0907 139.572 96.4053 139.935 96.8C140.298 97.184 140.575 97.6373 140.767 98.16C140.97 98.672 141.071 99.2053 141.071 99.76C141.071 99.8773 141.066 99.984 141.055 100.08C141.055 100.176 141.05 100.251 141.039 100.304H134.111C134.143 100.72 134.239 101.099 134.399 101.44C134.559 101.781 134.767 102.075 135.023 102.32C135.279 102.565 135.567 102.757 135.887 102.896C136.218 103.035 136.564 103.104 136.927 103.104C137.183 103.104 137.434 103.072 137.679 103.008C137.924 102.933 138.154 102.837 138.367 102.72C138.58 102.603 138.767 102.459 138.927 102.288C139.098 102.117 139.226 101.925 139.311 101.712L140.527 102.048C140.388 102.357 140.196 102.64 139.951 102.896C139.716 103.152 139.439 103.376 139.119 103.568C138.81 103.749 138.463 103.893 138.079 104C137.695 104.107 137.295 104.16 136.879 104.16ZM139.743 99.264C139.711 98.8693 139.61 98.5067 139.439 98.176C139.279 97.8347 139.071 97.5467 138.815 97.312C138.57 97.0773 138.282 96.896 137.951 96.768C137.62 96.6293 137.268 96.56 136.895 96.56C136.522 96.56 136.17 96.6293 135.839 96.768C135.508 96.896 135.215 97.0827 134.959 97.328C134.714 97.5627 134.511 97.8453 134.351 98.176C134.202 98.5067 134.111 98.8693 134.079 99.264H139.743ZM149.884 104H148.476V99.328C148.476 98.432 148.337 97.7813 148.06 97.376C147.793 96.9707 147.383 96.768 146.828 96.768C146.54 96.768 146.252 96.8267 145.964 96.944C145.676 97.0507 145.404 97.2 145.148 97.392C144.892 97.584 144.668 97.8133 144.476 98.08C144.284 98.3467 144.14 98.64 144.044 98.96V104H142.636V95.648H143.916V97.44C144.247 96.8533 144.721 96.384 145.34 96.032C145.969 95.68 146.652 95.504 147.388 95.504C147.868 95.504 148.268 95.5947 148.588 95.776C148.908 95.9467 149.164 96.192 149.356 96.512C149.548 96.8213 149.681 97.1893 149.756 97.616C149.841 98.0427 149.884 98.5067 149.884 99.008V104ZM156.315 103.584C156.23 103.627 156.118 103.68 155.979 103.744C155.841 103.797 155.681 103.856 155.499 103.92C155.329 103.973 155.137 104.016 154.923 104.048C154.721 104.091 154.507 104.112 154.283 104.112C153.771 104.112 153.329 103.973 152.955 103.696C152.582 103.408 152.395 102.965 152.395 102.368V96.752H151.259V95.648H152.395V92.864H153.803V95.648H155.675V96.752H153.803V101.936C153.825 102.245 153.926 102.469 154.107 102.608C154.289 102.747 154.502 102.816 154.747 102.816C155.025 102.816 155.275 102.773 155.499 102.688C155.734 102.592 155.894 102.517 155.979 102.464L156.315 103.584Z" fill="#12233D"/>
<path d="M66.5698 4.683C67.3679 4.683 68.0165 4.03437 68.0165 3.23627C68.0165 2.43818 67.3679 1.78955 66.5698 1.78955C65.7726 1.78955 65.123 2.43818 65.123 3.23627C65.123 4.03437 65.7717 4.683 66.5698 4.683ZM66.5698 2.73053C66.849 2.73053 67.0765 2.95802 67.0765 3.23721C67.0765 3.51641 66.849 3.74389 66.5698 3.74389C66.2906 3.74389 66.0631 3.51641 66.0631 3.23721C66.0631 2.95802 66.2906 2.73053 66.5698 2.73053Z" fill="#D62C2C"/>
<path d="M69.3763 3.70713H71.3955C71.6549 3.70713 71.8655 3.49656 71.8655 3.23711C71.8655 2.97766 71.6549 2.76709 71.3955 2.76709H69.3763C69.1168 2.76709 68.9062 2.97766 68.9062 3.23711C68.9062 3.49656 69.1168 3.70713 69.3763 3.70713Z" fill="#D62C2C"/>
<path d="M73.3646 3.23772L72.8523 3.75004C72.669 3.93335 72.669 4.23134 72.8523 4.41465C72.9444 4.50677 73.0648 4.55189 73.1851 4.55189C73.3054 4.55189 73.4257 4.50583 73.5179 4.41465L74.0302 3.90232L74.5425 4.41465C74.6346 4.50677 74.755 4.55189 74.8753 4.55189C74.9956 4.55189 75.1159 4.50583 75.2081 4.41465C75.3914 4.23134 75.3914 3.93335 75.2081 3.75004L74.6957 3.23772L75.209 2.72445C75.3923 2.54115 75.3923 2.24315 75.209 2.05984C75.0257 1.87654 74.7277 1.87654 74.5444 2.05984L74.0311 2.57311L73.5179 2.05984C73.3346 1.87654 73.0366 1.87654 72.8533 2.05984C72.67 2.24315 72.67 2.54115 72.8533 2.72445L73.3646 3.23772Z" fill="#D62C2C"/>
<path d="M108.299 0H63.47C63.2106 0 63 0.210569 63 0.47002V36.53C63 36.7894 63.2106 37 63.47 37H108.299C108.558 37 108.769 36.7894 108.769 36.53V0.47002C108.769 0.209629 108.558 0 108.299 0ZM107.829 0.940041V5.68067H63.94V0.940041H107.829ZM63.94 36.06V6.62071H107.829V36.06H63.94Z" fill="#12233D"/>
<path d="M99.998 21.2509C99.9933 21.2246 99.9802 21.2001 99.9708 21.1747C99.9586 21.1428 99.9482 21.1118 99.9285 21.0826C99.9238 21.076 99.9238 21.0685 99.9191 21.0629C99.904 21.0431 99.8843 21.0328 99.8664 21.0159C99.8495 20.998 99.8382 20.9764 99.8176 20.9614L91.8507 15.1256C91.6401 14.9733 91.3478 15.0175 91.1936 15.2271C91.0404 15.4367 91.0855 15.731 91.2942 15.8842L98.7431 21.3402L91.2942 26.7962C91.0846 26.9494 91.0395 27.2436 91.1936 27.4533C91.2857 27.5783 91.4286 27.645 91.5725 27.645C91.6693 27.645 91.7661 27.6159 91.8507 27.5539L99.8176 21.719C99.8439 21.6993 99.8599 21.673 99.8805 21.6504C99.8918 21.6372 99.9078 21.6316 99.9181 21.6184C99.9228 21.6119 99.9228 21.6043 99.9275 21.5987C99.9473 21.5705 99.9576 21.5395 99.9698 21.5066C99.9802 21.4812 99.9924 21.4568 99.9971 21.4304C100.004 21.4004 100.001 21.3712 100.001 21.3402C100.001 21.3092 100.005 21.281 99.998 21.2509Z" fill="#12233D"/>
<path d="M80.578 15.2282C80.4238 15.0176 80.1287 14.9725 79.9209 15.1267L71.9531 20.9624C71.9334 20.9765 71.9231 20.9972 71.9071 21.0132C71.8892 21.032 71.8676 21.0423 71.8516 21.064C71.8469 21.0705 71.8469 21.0781 71.8422 21.0846C71.8234 21.1119 71.8131 21.142 71.8018 21.173C71.7915 21.1993 71.7792 21.2256 71.7736 21.2529C71.768 21.2821 71.7698 21.3121 71.7698 21.3422C71.7698 21.3723 71.768 21.4014 71.7736 21.4315C71.7792 21.4588 71.7924 21.4851 71.8018 21.5114C71.814 21.5424 71.8244 21.5716 71.8422 21.5998C71.8469 21.6073 71.8469 21.6148 71.8516 21.6205C71.8629 21.6355 71.8789 21.6402 71.8911 21.6534C71.9118 21.6759 71.9268 21.7032 71.9522 21.721L79.92 27.5559C80.0036 27.617 80.1005 27.6471 80.1973 27.6471C80.3421 27.6471 80.4849 27.5803 80.5771 27.4553C80.7303 27.2447 80.6852 26.9514 80.4755 26.7982L73.0257 21.3422L80.4755 15.8862C80.6852 15.7311 80.7312 15.4369 80.578 15.2282Z" fill="#12233D"/>
<path d="M88.1941 12.1502C87.9385 12.0863 87.6865 12.2404 87.6235 12.4914L83.2364 29.9593C83.1734 30.2121 83.3257 30.4669 83.5776 30.5299C83.6162 30.5393 83.6547 30.544 83.6923 30.544C83.9029 30.544 84.0937 30.402 84.1473 30.1886L88.5344 12.7199C88.5984 12.4679 88.4461 12.2132 88.1941 12.1502Z" fill="#12233D"/>
</svg>
