<svg xmlns="http://www.w3.org/2000/svg" xmlns:xlink="http://www.w3.org/1999/xlink" viewBox="-4073 -12656 45 45.082">
  <defs>
    <style>
      .cls-1 {
        fill: url(#linear-gradient);
      }
    </style>
    <linearGradient id="linear-gradient" x2="1" y2="1" gradientUnits="objectBoundingBox">
      <stop offset="0" stop-color="#de3535"/>
      <stop offset="1" stop-color="#e46d2e"/>
    </linearGradient>
  </defs>
  <path id="Path_4892" data-name="Path 4892" class="cls-1" d="M44.847,14.861,42.6,12.615a2.008,2.008,0,0,0-2.847,0l-.3.3A18.047,18.047,0,0,0,29.422,9.889h-.037a18.108,18.108,0,0,0-6.46,1.174l3.937-3.937a3.741,3.741,0,0,0,4.251-.739,3.728,3.728,0,0,0,1.1-2.643,3.69,3.69,0,0,0-1.1-2.643A3.744,3.744,0,0,0,28.47,0a3.69,3.69,0,0,0-2.643,1.1,3.744,3.744,0,0,0-1.1,2.643,3.792,3.792,0,0,0,.36,1.608L18,12.44l-.24-.24a2.008,2.008,0,0,0-2.847,0l-2.274,2.264a2.008,2.008,0,0,0,0,2.847l.24.24L5.79,24.639a3.741,3.741,0,0,0-4.251.739,3.743,3.743,0,0,0,2.643,6.386,3.69,3.69,0,0,0,2.643-1.1,3.739,3.739,0,0,0,.73-4.251l3.937-3.937A18.276,18.276,0,0,0,13.35,39l-.379.379a2.025,2.025,0,0,0,0,2.856l2.255,2.255a2.008,2.008,0,0,0,2.847,0l2.255-2.255a2.025,2.025,0,0,0,0-2.856l-2.255-2.255a2.008,2.008,0,0,0-2.847,0l-.065.065A15.783,15.783,0,0,1,15.6,20.009a1.936,1.936,0,0,0,.73.139,2.007,2.007,0,0,0,1.423-.591L20,17.3a2.019,2.019,0,0,0,.453-2.153,15.765,15.765,0,0,1,17.181-.434l-.139.139a2.025,2.025,0,0,0,0,2.856l2.255,2.255a2.008,2.008,0,0,0,2.847,0l2.255-2.255A2.005,2.005,0,0,0,44.847,14.861ZM18.221,40.821,16.64,42.4l-1.58-1.58,1.58-1.58ZM27.574,2.874a1.238,1.238,0,1,1,0,1.756h0a1.237,1.237,0,0,1-.36-.878A1.253,1.253,0,0,1,27.574,2.874ZM5.06,28.909a1.238,1.238,0,1,1,0-1.756A1.237,1.237,0,0,1,5.06,28.909ZM16.317,17.467l-1.58-1.58,1.58-1.58.786.786h0l.786.786Zm24.851.4-1.58-1.58,1.58-1.58,1.58,1.58Z" transform="translate(-4073.444 -12656)"/>
</svg>
