<svg xmlns="http://www.w3.org/2000/svg" xmlns:xlink="http://www.w3.org/1999/xlink" viewBox="-846 5327.999 45 51.512">
  <defs>
    <style>
      .cls-1 {
        fill: url(#linear-gradient);
      }
    </style>
    <linearGradient id="linear-gradient" x2="1" y2="1" gradientUnits="objectBoundingBox">
      <stop offset="0" stop-color="#3f70cc"/>
      <stop offset="1" stop-color="#3143ce"/>
    </linearGradient>
  </defs>
  <path id="Healthy_Life_Style" data-name="Healthy Life Style" class="cls-1" d="M25.866-12648.989a12.485,12.485,0,0,1-1.426-.53,11.86,11.86,0,0,1-1.308.477c-3.921,1.176-8.184.266-12.005-2.557a22.976,22.976,0,0,1-8.052-11.942,22.976,22.976,0,0,1,.164-14.4c1.641-4.455,4.7-7.56,8.623-8.732a13.169,13.169,0,0,1,10.915,1.808,9.953,9.953,0,0,0-9.484-6.963,1.3,1.3,0,0,1-1.3-1.3,1.3,1.3,0,0,1,1.3-1.3,12.467,12.467,0,0,1,6.6,1.879,8.436,8.436,0,0,1,2.407-4.979,8.468,8.468,0,0,1,8.153-2.187,1.3,1.3,0,0,1,.918.918,8.466,8.466,0,0,1-2.186,8.15,8.455,8.455,0,0,1-5.075,2.421,12.385,12.385,0,0,1,1.474,3.838,13.38,13.38,0,0,1,11.558-2.237c3.921,1.176,6.985,4.277,8.626,8.735a22.975,22.975,0,0,1,.164,14.4,22.968,22.968,0,0,1-8.055,11.942,14.49,14.49,0,0,1-8.583,3.056A11.969,11.969,0,0,1,25.866-12648.989Zm-.823-3.12a8.946,8.946,0,0,0,1.569.633c3.118.936,6.572.17,9.719-2.156a20.368,20.368,0,0,0,7.109-10.6c2.7-9.008-.462-17.938-7.045-19.909-3.546-1.064-7.533.089-10.944,3.161a1.3,1.3,0,0,1-.921.382,1.283,1.283,0,0,1-.875-.345c-3.434-3.141-7.461-4.326-11.047-3.253-6.584,1.975-9.745,10.9-7.048,19.909s10.247,14.728,16.83,12.756a9.241,9.241,0,0,0,1.477-.588,1.31,1.31,0,0,1,.582-.138A1.3,1.3,0,0,1,25.043-12652.109Zm-.912-43.587a5.867,5.867,0,0,0-1.664,4.88,5.873,5.873,0,0,0,4.88-1.664,5.867,5.867,0,0,0,1.664-4.88,5.845,5.845,0,0,0-.738-.046A5.861,5.861,0,0,0,24.13-12695.7Zm-16.965,30.93a19.172,19.172,0,0,1-.138-11.047c1.084-3.475,3.293-5.941,6.059-6.771a1.3,1.3,0,0,1,1.615.869,1.3,1.3,0,0,1-.869,1.615c-1.956.585-3.494,2.381-4.326,5.058a16.759,16.759,0,0,0,.146,9.532,1.3,1.3,0,0,1-.872,1.615,1.3,1.3,0,0,1-.373.055A1.3,1.3,0,0,1,7.165-12664.767Z" transform="translate(-848 18028.001)"/>
</svg>
