<svg xmlns="http://www.w3.org/2000/svg" xmlns:xlink="http://www.w3.org/1999/xlink" viewBox="-1661 5334 45 40.346">
  <defs>
    <style>
      .cls-1 {
        fill: url(#linear-gradient);
      }
    </style>
    <linearGradient id="linear-gradient" x2="1" y2="1" gradientUnits="objectBoundingBox">
      <stop offset="0" stop-color="#3f70cc"/>
      <stop offset="1" stop-color="#3143ce"/>
    </linearGradient>
  </defs>
  <path id="Heart" class="cls-1" d="M51.232,23.279c-1.281-6.446-5.864-10.6-11.766-10.6-3.3,0-6.873,1.359-10.368,3.922-3.534-2.641-7.106-4-10.446-4-5.9,0-10.523,4.194-11.766,10.718C5.022,32.987,11,45.84,28.515,52.83a1.514,1.514,0,0,0,1.165,0C47.155,45.685,53.1,32.87,51.232,23.279ZM29.1,49.646C13.721,43.277,8.4,32.171,9.993,23.9c.932-4.932,4.349-8.155,8.66-8.155,2.912,0,6.174,1.4,9.436,4.077a1.578,1.578,0,0,0,1.98,0c3.262-2.6,6.485-3.961,9.4-3.961,4.31,0,7.689,3.145,8.66,8.038,1.592,8.194-3.689,19.261-19.028,25.746Z" transform="translate(-1667.56 5321.4)"/>
</svg>
