<svg xmlns="http://www.w3.org/2000/svg" xmlns:xlink="http://www.w3.org/1999/xlink" viewBox="-1128 5331.001 69.999 45.995">
  <defs>
    <style>
      .cls-1 {
        fill: url(#linear-gradient);
      }
    </style>
    <linearGradient id="linear-gradient" x2="1" y2="1" gradientUnits="objectBoundingBox">
      <stop offset="0" stop-color="#3f70cc"/>
      <stop offset="1" stop-color="#3143ce"/>
    </linearGradient>
  </defs>
  <path id="Transparency" class="cls-1" d="M27.64-12656.261a4.22,4.22,0,0,1-.386-1.415l-.915.443a3.911,3.911,0,0,1-1.769.414,4.049,4.049,0,0,1-3.63-2.257,3.924,3.924,0,0,1-.414-1.871,3.917,3.917,0,0,1-1.284-.217,3.979,3.979,0,0,1-2.314-2.039,4.053,4.053,0,0,1,.427-4.243,4.056,4.056,0,0,1-1.243-1.472,4.067,4.067,0,0,1-.185-3.086,3.973,3.973,0,0,1,2.043-2.313l6.215-3.044a1.293,1.293,0,0,1,1.728.6,1.3,1.3,0,0,1-.6,1.731l-6.215,3.04a1.449,1.449,0,0,0-.727.829,1.392,1.392,0,0,0,.07,1.1,1.458,1.458,0,0,0,1.941.673l3.557-1.744,8.144-3.984a1.293,1.293,0,0,1,1.731.6,1.292,1.292,0,0,1-.6,1.728L25.7-12669.1l-.915.44-3.27,1.6-1.6.784a1.447,1.447,0,0,0-.673,1.944,1.436,1.436,0,0,0,.829.727,1.405,1.405,0,0,0,1.1-.069l4.628-2.273.373-.185,9.7-4.759a1.292,1.292,0,0,1,1.728.6,1.29,1.29,0,0,1-.6,1.728l-9.686,4.743-3.385,1.657a1.443,1.443,0,0,0-.73.828,1.406,1.406,0,0,0,.073,1.1,1.449,1.449,0,0,0,1.941.673l4.488-2.2,8.912-4.357a1.3,1.3,0,0,1,1.731.6,1.3,1.3,0,0,1-.6,1.728l-8.915,4.357-.2.1a1.448,1.448,0,0,0-.673,1.944,1.452,1.452,0,0,0,1.944.672l16.3-7.975a39.149,39.149,0,0,0,9.329-6.368l3.069-2.83-9.769-19.956a1.288,1.288,0,0,1,.6-1.728l8.513-4.159a1.315,1.315,0,0,1,.985-.058,1.3,1.3,0,0,1,.743.657l10.2,20.787a1.288,1.288,0,0,1-.6,1.728l-8.341,4.086-3.643,3.356a41.811,41.811,0,0,1-9.944,6.786l-16.3,7.972a3.911,3.911,0,0,1-1.769.414A4.049,4.049,0,0,1,27.64-12656.261Zm26.085-37.543,9.042,18.5,6.187-3.028-9.042-18.5Zm-41.9,21.313-8.956-3.069a1.3,1.3,0,0,1-.743-.657,1.305,1.305,0,0,1-.057-.987L9.6-12699.13a1.293,1.293,0,0,1,1.641-.8l8.972,3.069a1.054,1.054,0,0,1,.255.131l1.46.513a4.532,4.532,0,0,0,3.484-.2l.873-.427a7.224,7.224,0,0,1,5.428-.344l17.486,6.026a1.306,1.306,0,0,1,.87,1.26c-.016.144-.127,3.327-2.4,4.9-1.415.985-3.242,1.1-5.428.345l-6.129-2.1a11.891,11.891,0,0,1-5.084,5.915,9.977,9.977,0,0,1-4.8,1.17,15.005,15.005,0,0,1-4.829-.886,1.3,1.3,0,0,1-.8-1.642,1.293,1.293,0,0,1,1.641-.8c2.987,1.014,5.53.972,7.573-.131a9.784,9.784,0,0,0,4.271-5.584,1.355,1.355,0,0,1,.641-.813,1.291,1.291,0,0,1,1.03-.086l7.344,2.516c1.371.468,2.413.468,3.114-.017a3.355,3.355,0,0,0,1.141-1.94l-16.469-5.674a4.537,4.537,0,0,0-3.458.214l-.87.43a7.2,7.2,0,0,1-5.5.313l-.484-.169-7.1,20.654a1.305,1.305,0,0,1-1.227.873A1.411,1.411,0,0,1,11.828-12672.49Zm-6.888-5.1,6.515,2.23,6.671-19.471-6.512-2.229Z" transform="translate(-1130.001 18030.999)"/>
</svg>
