<svg xmlns="http://www.w3.org/2000/svg" xmlns:xlink="http://www.w3.org/1999/xlink" viewBox="-1399 5340 59.999 28.435">
  <defs>
    <style>
      .cls-1 {
        fill: url(#linear-gradient);
      }
    </style>
    <linearGradient id="linear-gradient" x2="1" y2="1" gradientUnits="objectBoundingBox">
      <stop offset="0" stop-color="#3f70cc"/>
      <stop offset="1" stop-color="#3143ce"/>
    </linearGradient>
  </defs>
  <path id="Chart" class="cls-1" d="M2424.566-4871.936a6.331,6.331,0,0,1,.964-3.364l-6.992-6.994a6.33,6.33,0,0,1-3.475,1.036,6.329,6.329,0,0,1-3.473-1.036l-6.883,6.883a6.334,6.334,0,0,1,1.034,3.475,6.377,6.377,0,0,1-6.37,6.371,6.378,6.378,0,0,1-6.371-6.371,6.378,6.378,0,0,1,6.371-6.371,6.328,6.328,0,0,1,3.473,1.034l6.883-6.883a6.329,6.329,0,0,1-1.034-3.474,6.377,6.377,0,0,1,6.37-6.371,6.378,6.378,0,0,1,6.371,6.371,6.329,6.329,0,0,1-1.034,3.474l6.953,6.955a6.339,6.339,0,0,1,3.584-1.106,6.328,6.328,0,0,1,3.473,1.034l6.883-6.882a6.333,6.333,0,0,1-1.034-3.475,6.378,6.378,0,0,1,6.37-6.371,6.377,6.377,0,0,1,6.371,6.371,6.377,6.377,0,0,1-6.37,6.371,6.33,6.33,0,0,1-3.474-1.036l-6.884,6.884a6.329,6.329,0,0,1,1.035,3.474,6.378,6.378,0,0,1-6.371,6.371A6.378,6.378,0,0,1,2424.566-4871.936Zm2.633,0a3.742,3.742,0,0,0,3.738,3.737,3.742,3.742,0,0,0,3.737-3.737,3.742,3.742,0,0,0-3.737-3.738A3.742,3.742,0,0,0,2427.2-4871.936Zm-31.566,0a3.742,3.742,0,0,0,3.738,3.737,3.743,3.743,0,0,0,3.738-3.737,3.743,3.743,0,0,0-3.738-3.738A3.742,3.742,0,0,0,2395.634-4871.936Zm47.259-15.693a3.741,3.741,0,0,0,3.736,3.737,3.742,3.742,0,0,0,3.739-3.737,3.742,3.742,0,0,0-3.739-3.737A3.741,3.741,0,0,0,2442.892-4887.629Zm-31.566,0a3.741,3.741,0,0,0,3.736,3.737,3.741,3.741,0,0,0,3.738-3.737,3.741,3.741,0,0,0-3.738-3.737A3.741,3.741,0,0,0,2411.327-4887.629Zm-2.151,14.346a1.316,1.316,0,0,1,0-1.862l2.677-2.678a1.316,1.316,0,0,1,1.862,0,1.314,1.314,0,0,1,0,1.861l-2.677,2.679a1.316,1.316,0,0,1-.932.386A1.311,1.311,0,0,1,2409.176-4873.284Zm23.107-8.412a1.317,1.317,0,0,1,0-1.861l2.679-2.679a1.316,1.316,0,0,1,1.862,0,1.316,1.316,0,0,1,0,1.862l-2.679,2.678a1.307,1.307,0,0,1-.931.386A1.312,1.312,0,0,1,2432.283-4881.7Z" transform="translate(-3792 10234)"/>
</svg>
