<svg xmlns="http://www.w3.org/2000/svg" xmlns:xlink="http://www.w3.org/1999/xlink" viewBox="-3683 -17226 54.999 67.225">
  <defs>
    <style>
      .cls-1 {
        fill: url(#linear-gradient);
      }
    </style>
    <linearGradient id="linear-gradient" x2="1" y2="1" gradientUnits="objectBoundingBox">
      <stop offset="0" stop-color="#3f70cc"/>
      <stop offset="1" stop-color="#3143ce"/>
    </linearGradient>
  </defs>
  <path id="Chat_bot" data-name="Chat bot" class="cls-1" d="M4238.919,17851.641v-6.113a4.582,4.582,0,0,1,9.164,0v6.113a4.582,4.582,0,1,1-9.164,0Zm3.052-6.113v6.113a1.528,1.528,0,0,0,3.056,0v-6.113a1.528,1.528,0,0,0-3.056,0Zm7.641,3.061v-12.225a1.525,1.525,0,0,1,1.528-1.529h3.056a1.53,1.53,0,0,0,1.528-1.527v-15.277a1.53,1.53,0,0,0-1.528-1.527h-21.39a1.53,1.53,0,0,0-1.528,1.527v15.277a1.53,1.53,0,0,0,1.528,1.527h12.221a1.528,1.528,0,1,1,0,3.057h-7.636v10.7a1.528,1.528,0,0,1-3.056,0v-10.7h-1.528a4.59,4.59,0,0,1-4.584-4.584v-13.748h-4.584a1.53,1.53,0,0,0-1.528,1.527V17829a4.576,4.576,0,0,1,3.056,4.3,1.528,1.528,0,0,1-3.056,0,1.526,1.526,0,1,0-3.052,0,1.528,1.528,0,0,1-3.056,0,4.577,4.577,0,0,1,3.056-4.3v-7.918a4.586,4.586,0,0,1,4.58-4.584h4.867a4.575,4.575,0,0,1,4.3-3.057h21.39a4.574,4.574,0,0,1,4.3,3.057h4.867a4.589,4.589,0,0,1,4.58,4.584V17829a4.576,4.576,0,0,1,3.056,4.3,1.528,1.528,0,0,1-3.056,0,1.528,1.528,0,0,0-3.056,0,1.528,1.528,0,0,1-3.056,0,4.577,4.577,0,0,1,3.056-4.3v-7.918a1.53,1.53,0,0,0-1.528-1.527h-4.584v13.748a4.586,4.586,0,0,1-4.58,4.584h-1.528v10.7a1.528,1.528,0,0,1-3.056,0Zm-1.528-24.449v-3.057a1.528,1.528,0,1,1,3.057,0v3.057a1.528,1.528,0,0,1-3.057,0Zm-6.112,0v-3.057a1.528,1.528,0,1,1,3.056,0v3.057a1.528,1.528,0,0,1-3.056,0Zm-6.108,0v-3.057a1.528,1.528,0,1,1,3.056,0v3.057a1.528,1.528,0,0,1-3.056,0Zm0-13.75a7.638,7.638,0,1,1,0-15.275h.152a7.64,7.64,0,0,1,14.972,0h.152a7.638,7.638,0,1,1,0,15.275Zm-4.584-7.641a4.591,4.591,0,0,0,4.584,4.586h15.277a4.585,4.585,0,0,0,0-9.17h-15.277A4.59,4.59,0,0,0,4231.278,17802.748Zm7.923-7.635h8.6a4.553,4.553,0,0,0-8.6,0Zm7.354,7.635a1.528,1.528,0,1,1,1.528,1.529A1.53,1.53,0,0,1,4246.555,17802.748Zm-9.165,0a1.528,1.528,0,1,1,1.528,1.529A1.527,1.527,0,0,1,4237.391,17802.748Z" transform="translate(-7899.001 -35015)"/>
</svg>
