<svg xmlns="http://www.w3.org/2000/svg" viewBox="471.954 -7885.046 50.046 37.788">
  <defs>
    <style>
      .cls-1, .cls-19 {
        fill: #0a0203;
      }

      .cls-1 {
        stroke: #0a0203;
      }

      .cls-1, .cls-10, .cls-11, .cls-12, .cls-13, .cls-14, .cls-15, .cls-16, .cls-17, .cls-18, .cls-2, .cls-3, .cls-4, .cls-5, .cls-6, .cls-7, .cls-8, .cls-9 {
        stroke-width: 0.094px;
      }

      .cls-2 {
        fill: #f8b059;
        stroke: #f8b059;
      }

      .cls-3 {
        fill: #f6941e;
        stroke: #f6941e;
      }

      .cls-4 {
        fill: #7d4b0f;
        stroke: #7d4b0f;
      }

      .cls-5 {
        fill: #0c0606;
        stroke: #0c0606;
        opacity: 0.81;
      }

      .cls-6 {
        fill: #99987d;
        stroke: #99987d;
      }

      .cls-7 {
        fill: #b3b39f;
        stroke: #b3b39f;
      }

      .cls-8 {
        fill: #4e4d3f;
        stroke: #4e4d3f;
      }

      .cls-9 {
        fill: #040202;
        stroke: #040202;
        opacity: 0.28;
      }

      .cls-10 {
        fill: #d6d6c7;
        stroke: #d6d6c7;
      }

      .cls-11 {
        fill: #c7c7b3;
        stroke: #c7c7b3;
      }

      .cls-12 {
        fill: #221c1b;
        stroke: #221c1b;
        opacity: 0.78;
      }

      .cls-13 {
        fill: #190e08;
        stroke: #190e08;
        opacity: 0.69;
      }

      .cls-14 {
        fill: #fc0101;
        stroke: #fc0101;
      }

      .cls-15 {
        fill: #97967c;
        stroke: #97967c;
      }

      .cls-16 {
        fill: #65655b;
        stroke: #65655b;
      }

      .cls-17 {
        fill: #090405;
        stroke: #090405;
        opacity: 0.56;
      }

      .cls-18 {
        fill: #4b493b;
        stroke: #4b493b;
      }
    </style>
  </defs>
  <g id="logo" transform="translate(471.879 -7885.064)">
    <g id="Group_458" data-name="Group 458" transform="translate(0.121 0.064)">
      <path id="Shape" class="cls-1" d="M4.078.476A1.021,1.021,0,0,1,4.863.071a1.541,1.541,0,0,1,.722.14,4.826,4.826,0,0,1,.627.443,1.568,1.568,0,0,1,.435.491A2.449,2.449,0,0,1,6.87,2.366a2.274,2.274,0,0,1-.212.249,2.012,2.012,0,0,1-.464.237l.53.583a3.812,3.812,0,0,1,.455.676c.131-.162.341-.211.5-.336a4.617,4.617,0,0,1,.708-.5,1.031,1.031,0,0,1,.254-.021l.077.055a2.839,2.839,0,0,0,.242.8,14.192,14.192,0,0,0,.48,1.354c.05,0,.1,0,.149,0a2.971,2.971,0,0,1,.349-.795,5.754,5.754,0,0,1,.4-.677,5.407,5.407,0,0,1,.645-.786l.154,0a6.75,6.75,0,0,0,.051,1.023c.058.258.018.523.059.783a6.01,6.01,0,0,0,.089,1.125c.174.3.475.5.671.788.3.327.594.654.885.988.168.195.289.426.464.615.138.154.246.334.39.484a1.278,1.278,0,0,1,.179.241c.086.143.22.248.308.39a1.615,1.615,0,0,0,.283.349c.113-.042.211-.137.343-.1l.076.084c.078.013.181,0,.22.087a5.609,5.609,0,0,1,.3.514c.146-.1.307-.166.455-.259a1.42,1.42,0,0,1,.712-.1c.2-.012.4.086.607.031.222-.059.407.141.628.114a3.1,3.1,0,0,0,.39-.181c.271-.11.548-.2.825-.293a5.794,5.794,0,0,1,.943-.334c.328-.05.654-.113.985-.136a1.627,1.627,0,0,1,.509-.054,8.643,8.643,0,0,0,1.283.115,3.758,3.758,0,0,1,.91.074c.242.044.45.185.688.243.21.064.4.178.611.242.4.174.711.49,1.108.663.258.164.542.282.792.457a6.575,6.575,0,0,1,.624.5,2.213,2.213,0,0,0,.326.337.933.933,0,0,1,.327.266,5.318,5.318,0,0,1,.8.813c.13.132.222.309.389.4.032-.044.06-.09.089-.135a1.187,1.187,0,0,1,.291-.122,4.381,4.381,0,0,1,.947-.071,4.714,4.714,0,0,1,.8.161,3.538,3.538,0,0,1,.642.21,3.226,3.226,0,0,1,.392.1c.171.081.348.15.52.23.249.17.487.357.746.51.151.12.288.259.451.365.088-.165.294-.168.444-.245a6.166,6.166,0,0,0,.913-.489,4.217,4.217,0,0,1,.682-.356,11.044,11.044,0,0,1,1.568-.737,1.635,1.635,0,0,0,.46-.2c-.123-.2-.026-.431.006-.645a.952.952,0,0,1,.306-.518,1.553,1.553,0,0,1,.973-.3.987.987,0,0,1,.816.375,2.4,2.4,0,0,1,.285.529,4.058,4.058,0,0,0-.138.5c-.057.193-.232.308-.365.445a1.638,1.638,0,0,1-.717.4c-.236-.043-.474-.071-.71-.113-.123.108-.2.262-.341.351a2.181,2.181,0,0,0-.226.224c-.218.171-.422.358-.641.526-.291.2-.595.375-.887.57a3.272,3.272,0,0,1-.533.384,7.657,7.657,0,0,0-1.042.765,2.786,2.786,0,0,1,.172.631,7.932,7.932,0,0,1-.037.835,1.642,1.642,0,0,1-.045.506,3.766,3.766,0,0,0-.174.411c-.056.244-.164.47-.238.708a2.522,2.522,0,0,1-.194.377c-.116.223-.188.468-.322.683-.06.1-.135.194-.192.3-.12.224-.291.413-.421.629a3.92,3.92,0,0,0-.51.567,2.35,2.35,0,0,1-.559.459c0,.088-.005.176,0,.264a.958.958,0,0,1-.225.321c-.082.052-.178,0-.26-.021a3.679,3.679,0,0,1-.059-.595l-.017.077c-.01-.079-.023-.158-.035-.236-.017-.11-.026-.222-.034-.332l-.127,0a1.4,1.4,0,0,1-.246-.308c-.176-.161-.291-.375-.457-.544-.107-.134-.265-.225-.345-.378a4.138,4.138,0,0,0-.453-.489,11.051,11.051,0,0,0-1.253-.957,5.672,5.672,0,0,0-.8-.4,6.7,6.7,0,0,0-1.329-.416,2.281,2.281,0,0,0-.624-.071,6.874,6.874,0,0,0-1.081-.019,1.978,1.978,0,0,0-1.086.3c-.123.08-.282.046-.408.124a7.759,7.759,0,0,1-1.064.473c-.291.15-.572.323-.871.461-.282.182-.6.3-.873.5-.442.229-.844.524-1.29.746-.409.279-.881.453-1.264.771a4.96,4.96,0,0,0-.8.62,2.937,2.937,0,0,1-.315.3c-.159.1-.246.285-.4.395l-.014.093c-.049.028-.1.055-.145.088a1.312,1.312,0,0,0,.021.242,3.128,3.128,0,0,0,.035.482,4.288,4.288,0,0,1,.14.818,6.649,6.649,0,0,0,.529,2.065c.117.209.161.448.269.661.092.186.159.385.267.563.108.145.177.315.283.462.174.257.284.551.451.811a1.306,1.306,0,0,1,.188.41,4.564,4.564,0,0,0,.233.879.552.552,0,0,1-.09.253,1.171,1.171,0,0,1-.423.334,2.416,2.416,0,0,1-.889.157,1.468,1.468,0,0,1-.618-.006c-.07-.032-.123.028-.174.065-.247.035-.467.159-.712.2-.171.064-.33.157-.508.205a2.752,2.752,0,0,1-1.146.2c-.32.03-.64.066-.959.112-.347,0-.686.1-1.035.091a4.584,4.584,0,0,1-.669-.028,6.46,6.46,0,0,1-1.266-.39A5.179,5.179,0,0,0,10,31.405a3.7,3.7,0,0,1-1.021-.445,2.263,2.263,0,0,1-.261-.254c-.359.139-.67.382-1.04.5a9.588,9.588,0,0,0-1.2.591c-.437.252-.905.442-1.346.687-.465.259-.955.465-1.44.684a1.548,1.548,0,0,0-.437.217,2.284,2.284,0,0,1-.182.946,2.073,2.073,0,0,0-.219.411,2.939,2.939,0,0,1-1.216.9,1,1,0,0,1-.539.039,1.42,1.42,0,0,1-.532-.146,1.083,1.083,0,0,1-.442-.652,4,4,0,0,1,0-.537,4,4,0,0,1,.211-.516,1.751,1.751,0,0,1,.443-.555,2.279,2.279,0,0,1,.592-.451,1.865,1.865,0,0,1,.841-.129c.173.027.38-.008.511.134a2.055,2.055,0,0,0,.378-.431c.409-.292.763-.656,1.174-.946.222-.208.457-.4.662-.627a8.811,8.811,0,0,1,.637-.654c.232-.184.407-.43.647-.6.21-.145.378-.342.575-.5.236-.191.446-.414.7-.587l-.073-.082a2.915,2.915,0,0,1-.094-.871,7.221,7.221,0,0,1-.02-.96,4.931,4.931,0,0,1,.261-.762,5.482,5.482,0,0,1,.276-.571c.244-.306.387-.678.62-.992a9.725,9.725,0,0,1,.657-.892,1.135,1.135,0,0,1,.469-.376c-.045-.179-.022-.366-.07-.544-.091-.369-.129-.749-.2-1.122a3.1,3.1,0,0,1-.228-.967,3.231,3.231,0,0,1-.133-1.4c.076-.329.075-.671.167-1a2.462,2.462,0,0,1,.151-.574c.118-.235.157-.5.266-.738.2-.3.356-.636.564-.935.143-.166.287-.331.426-.5.355-.337.717-.667,1.076-1a11.279,11.279,0,0,1,.927-.9c.143-.122.3-.231.442-.347a1.014,1.014,0,0,0,.175-.682.562.562,0,0,1,.4-.528,2.391,2.391,0,0,0,.517-.267,5.384,5.384,0,0,1-.387-.552c-.029-.05-.078-.1-.074-.158a1.49,1.49,0,0,1,.093-.179c.062-.047.121-.1.179-.148a23.59,23.59,0,0,1-2-2.336c-.267-.3-.537-.6-.828-.877a2.614,2.614,0,0,1-.5-.6c-.07-.446-.021-.9-.1-1.344-.124.194-.228.4-.344.6a5.385,5.385,0,0,1-.532.923.924.924,0,0,0-.187.26c-.072.211-.023.444-.1.653-.055.015-.111.022-.167.032-.1-.132-.06-.3-.1-.453-.151-.524-.245-1.064-.4-1.586a5.926,5.926,0,0,1-.187-.574c-.062-.2-.145-.389-.19-.592-.091.056-.17.126-.256.188a3.545,3.545,0,0,0-.673.37.286.286,0,0,1-.418,0c-.118-.148-.211-.316-.32-.472a7.232,7.232,0,0,1-.45-.917A7.6,7.6,0,0,0,5.816,3a1.278,1.278,0,0,1-.726-.129c-.179-.093-.4-.139-.513-.325a3.412,3.412,0,0,1-.427-.638A3.334,3.334,0,0,1,3.893.847C3.876.694,4,.589,4.079.475Zm.075.459a.883.883,0,0,0,.038.312,1.941,1.941,0,0,0,.373.842c.134.2.26.449.505.529a2.549,2.549,0,0,0,.609.166c0-.1-.022-.232.086-.288a.412.412,0,0,1,.281.139,1.421,1.421,0,0,0,.375-.129.577.577,0,0,0,.159-.45,2.351,2.351,0,0,0-.112-.592l.007.048a1.835,1.835,0,0,0-.8-.932,1.428,1.428,0,0,0-.9-.211.856.856,0,0,0-.624.565Zm2.077,2.39c.123.225.224.461.332.693s.269.43.378.66c.039.077.08.153.122.228.311-.234.707-.31,1.015-.548l.139-.177.131,0a.65.65,0,0,1,.128.348c-.008.316.2.578.247.881a2.853,2.853,0,0,0,.148.478c.065.361.187.708.257,1.069a3.434,3.434,0,0,0,.246-.281,21.035,21.035,0,0,0,1.093-2.048.609.609,0,0,1,.143-.128l.12.067c-.017.294,0,.588-.017.882a4.034,4.034,0,0,0-.008.662c.019.113.012.229.027.342.09.145.234.245.334.383a5.841,5.841,0,0,0,.5.5c.171.164.3.363.463.537a6.376,6.376,0,0,1,.483.633c.447.5.864,1.028,1.3,1.536a1.018,1.018,0,0,1,.2.337c.113-.063.257-.123.309-.248a3.452,3.452,0,0,0-.626-.725,6.612,6.612,0,0,1-.554-.728c-.25-.267-.45-.576-.689-.852-.136-.2-.336-.332-.481-.52-.268-.339-.591-.628-.867-.96a4.609,4.609,0,0,1-.069-.727c-.069-.474.035-.957-.05-1.428-.015-.171-.012-.343-.021-.514a4.041,4.041,0,0,0-.551.706c-.109.214-.255.406-.362.621s-.261.4-.384.607c-.079.153-.269.166-.42.157-.049-.093-.111-.18-.154-.276-.058-.169-.072-.349-.12-.521a8.561,8.561,0,0,0-.4-1.235l-.069-.2a4.329,4.329,0,0,0-.57.424,4.042,4.042,0,0,0-.56.289c-.1,0-.2,0-.3.01a1.04,1.04,0,0,0-.3-.37c-.209-.151-.308-.412-.516-.561l.015-.033c-.01-.131-.179,0-.05.035ZM20.3,9.791a6.053,6.053,0,0,0-.9.222c-.248.054-.458.214-.711.251a5.174,5.174,0,0,0-.744.331c-.126.084-.289.117-.374.253a14.025,14.025,0,0,0-1.274.592c-.6.295-1.2.612-1.77.957-.415.211-.819.442-1.231.658-.019.076-.038.151-.058.227-.085,0-.183-.029-.257.029a5.891,5.891,0,0,0-.707.582,10.873,10.873,0,0,1-1.055,1.028c-.189.2-.392.385-.587.579a5.091,5.091,0,0,0-.661.938.959.959,0,0,0-.061.08,2.66,2.66,0,0,1,.668-.184c.178,0,.354-.04.533-.045.317.017.629-.069.947-.048a4.66,4.66,0,0,1,.752.063,7.43,7.43,0,0,1,1.434.562,3.86,3.86,0,0,1,1.225.777,6.39,6.39,0,0,1,1.018.982c.148.235.311.46.455.7.3-.337.733-.535,1.014-.9.1-.152.282-.216.42-.33a5.817,5.817,0,0,1,.719-.489c.274-.143.558-.267.831-.413.168-.092.361-.112.532-.194s.377-.1.5-.257a6.189,6.189,0,0,0,.882-.378c.179-.068.36-.133.536-.21a1.807,1.807,0,0,0,.634-.339c.441-.13.846-.354,1.284-.495a2.762,2.762,0,0,1,.481-.193A3.685,3.685,0,0,1,25.313,15c.279.007.546-.1.827-.088s.52-.156.789-.086c.183.032.3.2.477.259a6.1,6.1,0,0,1,.936.387,3.194,3.194,0,0,1,.532.3c.251.255.573.424.831.672a8.7,8.7,0,0,1,.684.728c.08.112.158.224.233.34.159.258.377.472.521.74a3.33,3.33,0,0,1,.362.849,5.928,5.928,0,0,1,.294,1.024,4.685,4.685,0,0,1,.211.791,3.065,3.065,0,0,1,.149.757,4.651,4.651,0,0,1,.1.612l.056,0c.008-.179.035-.355.048-.534a5.9,5.9,0,0,0-.07-.832,5.038,5.038,0,0,0-.045-.821c-.038-.155-.08-.309-.106-.467a14.711,14.711,0,0,0-.785-2.365,8.884,8.884,0,0,0-.666-1.654c-.249-.321-.392-.71-.643-1.03-.127-.165-.316-.262-.452-.418-.2-.187-.358-.419-.573-.592-.271-.278-.509-.587-.773-.872a3.139,3.139,0,0,0-.411-.4c-.1-.106-.223-.188-.334-.283a5.528,5.528,0,0,0-1.041-.822,6.664,6.664,0,0,1-.672-.38c-.3-.168-.575-.362-.873-.527-.228-.114-.472-.189-.7-.3a2.364,2.364,0,0,0-.741-.066.907.907,0,0,0,.284.151c.129.059.232.164.366.212.251.229.583.344.821.59.384.338.7.74,1.074,1.092A8.783,8.783,0,0,1,27.218,13.6c.142.314.293.623.442.933a1.127,1.127,0,0,1,.074.58l-.11.029a10.936,10.936,0,0,0-.631-1.372,8.434,8.434,0,0,0-.834-1.245,5.4,5.4,0,0,0-.642-.769c-.17-.151-.307-.336-.467-.5a7.221,7.221,0,0,0-.86-.629,4.468,4.468,0,0,1-.5-.3,2.715,2.715,0,0,0-.742-.274c-.256-.079-.511-.161-.773-.217-.162-.048-.328-.079-.49-.129-.211-.071-.429.021-.644-.007-.249.014-.494.071-.743.076Zm-5.577.388a4.962,4.962,0,0,1-.836.536c.025.054.052.117.119.128l-.036.018a1.185,1.185,0,0,1,.319.479,5.7,5.7,0,0,0,.715-.494.809.809,0,0,1,.221-.134c-.108-.126-.158-.291-.276-.409-.027-.054-.052-.107-.075-.162a.187.187,0,0,0-.151.039Zm.875.607c-.143.137-.329.214-.483.336a7.131,7.131,0,0,1-.653.431c-.246.12-.45.311-.706.412a.573.573,0,0,0-.276.2,1.356,1.356,0,0,0-.084.52c.337-.177.674-.358,1.02-.52.234-.073.4-.272.618-.371.17-.076.323-.186.5-.257a1.36,1.36,0,0,0,.295-.239c.233-.147.475-.278.72-.4l.018.012a2.385,2.385,0,0,1,.311-.1c.193-.079.385-.162.577-.242.046.065.134-.055.051-.07a2.41,2.41,0,0,1-.553.054,4.505,4.505,0,0,0-.832-.069,2.267,2.267,0,0,1-.518.3Zm23.5.8a.783.783,0,0,0-.382.252.813.813,0,0,0-.145.568l-.04.214c.1.005.22-.04.3.041l.1.012c.053.046.106.09.162.133l-.077.258L38.99,13l-.026.11a1.525,1.525,0,0,0,.505.094,1.511,1.511,0,0,0,.672-.438,1.324,1.324,0,0,0,.256-.6l-.048-.076a.383.383,0,0,0-.08-.151.987.987,0,0,0-.5-.442,1.745,1.745,0,0,0-.668.083ZM38.483,12.9c-.289.138-.594.232-.884.366v0a1.866,1.866,0,0,0-.4.19c-.367.163-.71.376-1.08.529-.3.148-.558.371-.869.5-.257.158-.537.267-.8.405l-.08-.018a4.565,4.565,0,0,0,.271.383,2.93,2.93,0,0,1,.258.522,1.56,1.56,0,0,0,.052.168,7.325,7.325,0,0,1,.951-.691c.366-.2.647-.525,1.02-.714a3.971,3.971,0,0,0,1.065-.843,2.287,2.287,0,0,0,.583-.505c.077-.1.188-.186.19-.323a.555.555,0,0,0-.275.03Zm-8.322.556a1.423,1.423,0,0,1-.076.123c-.142.033-.287.052-.428.092-.031.022-.1.031-.063.081.192.224.428.4.636.61.108.129.208.265.313.4,0,.062.005.125.009.188a6.877,6.877,0,0,1,.4.6,7.308,7.308,0,0,1,.367.895c.14.308.224.638.348.952a13.525,13.525,0,0,1,.459,1.337c.132.3.163.64.289.946a6.211,6.211,0,0,1,.147.734c.031.307-.021.618.033.923a4.965,4.965,0,0,1,.023.628,3.531,3.531,0,0,1,.444-.369,5.2,5.2,0,0,0,.859-1.183c.082-.2.27-.338.306-.557.058-.133.108-.269.159-.405l-.15-.08c-.012-.082-.031-.184.071-.214a4.064,4.064,0,0,0-.166-1.536,4.691,4.691,0,0,0-.32-1.043,12.087,12.087,0,0,0-.516-1.1,8.327,8.327,0,0,0-.618-.888c-.2-.184-.34-.431-.59-.552a.785.785,0,0,0-.406-.34c-.305-.088-.608-.187-.914-.269a1.979,1.979,0,0,0-.618.023Zm2.209.4c-.019.05,0,.073.058.069a.94.94,0,0,1,.2.212h0a5.163,5.163,0,0,1,.829,1.06,6.024,6.024,0,0,1,.324.558,7.3,7.3,0,0,1,.616,1.694c.044.262.12.517.175.777a3.6,3.6,0,0,1,.041.7c.116-.249.181-.519.294-.77a1.535,1.535,0,0,0,.077-.79,1.894,1.894,0,0,0-.1-.935l-.02,0a.918.918,0,0,0-.067-.281,5.828,5.828,0,0,0-.3-.575,2.757,2.757,0,0,0-.641-.779c-.089-.086-.173-.2-.3-.21a5.372,5.372,0,0,0-.556-.4l-.01-.018-.048,0,.036,0c-.167-.088-.334-.178-.506-.253-.015-.058-.049-.076-.1-.053Zm-5.986,1.317c-.309.079-.632.016-.942.092a4.258,4.258,0,0,0-1.093.3,7.374,7.374,0,0,1-1.143.44,3.945,3.945,0,0,1-.54.246c-.443.247-.939.374-1.39.606-.269.147-.552.266-.826.4a7.881,7.881,0,0,0-1.692.889,1.142,1.142,0,0,1-.466.25,2.772,2.772,0,0,0-.191.212c-.3.36-.689.62-.992.974a.248.248,0,0,0-.057.1,11.8,11.8,0,0,0-.306,1.459,4.2,4.2,0,0,0-.061,1.539c.124-.227.361-.345.53-.53.152-.166.337-.3.5-.454a4.614,4.614,0,0,1,.532-.384c.387-.28.822-.479,1.227-.73.307-.191.625-.364.929-.56a2.5,2.5,0,0,1,.335-.177c.22-.1.412-.248.628-.354.422-.208.817-.466,1.235-.681a9.7,9.7,0,0,0,.989-.5,5.5,5.5,0,0,1,.892-.321,9.923,9.923,0,0,1,2.28-.04c.185.022.356.1.539.138a5.633,5.633,0,0,1,2.333,1.1,3.77,3.77,0,0,1,.45.339,3.214,3.214,0,0,1,.769.732,3.228,3.228,0,0,1,.323.424l.078.045a3.671,3.671,0,0,1,.359.51,1.367,1.367,0,0,0,.333.489c-.023-.236-.13-.453-.15-.689a5.415,5.415,0,0,0-.258-.935,6.139,6.139,0,0,0-.333-1.034c-.084-.186-.134-.385-.231-.565a5.857,5.857,0,0,0-.475-.688c-.147-.215-.3-.425-.443-.642a1.332,1.332,0,0,0-.258-.327,5.766,5.766,0,0,1-.657-.594,1.006,1.006,0,0,0-.3-.251c-.281-.133-.483-.391-.775-.5-.235-.119-.5-.16-.728-.294a1.8,1.8,0,0,0-.949-.039Zm-14.807,1.33c-.313.02-.626.034-.937.073l.049,0c-.223.04-.44.112-.661.16-.1.038-.239.04-.29.15a6.141,6.141,0,0,0-.241.607,12.1,12.1,0,0,0-.262,1.673,8.731,8.731,0,0,0,.147,1.451c.032.324.2.61.252.93.016.381.181.737.192,1.119a.8.8,0,0,1,.289-.054c.05-.018.1-.037.151-.054l.005-.019a5.087,5.087,0,0,1,1.336-.074,8.627,8.627,0,0,1,.866.067c.2.051.412.043.612.1.378.135.691.407,1.072.539a7.231,7.231,0,0,1,1.3.855c.255.229.47.5.731.722a5.738,5.738,0,0,1,.591.838c-.005-.192-.069-.376-.085-.567-.046-.448-.138-.889-.2-1.335a4.173,4.173,0,0,0-.053-.563c.016-.306-.046-.608-.041-.913,0-.337.029-.672.05-1.008.046-.361.174-.707.2-1.071a2.31,2.31,0,0,0,.083-.546c.009-.122-.089-.209-.137-.311a5.785,5.785,0,0,0-1.362-1.509,3.332,3.332,0,0,0-.724-.521,7.385,7.385,0,0,0-.948-.393c-.242-.1-.505-.133-.746-.237a2.469,2.469,0,0,0-1.235-.111Zm-1.244,6.276.015.019c-.153.03-.3.071-.453.114l-.01.106a6.267,6.267,0,0,0-1,1.168,4.862,4.862,0,0,1-.383.555c-.1.28-.325.493-.452.761a2.076,2.076,0,0,1,.58-.019l.128.014a4.02,4.02,0,0,1,.8.147,5.1,5.1,0,0,1,.75.291,3.584,3.584,0,0,1,1.036.819c.158.186.334.358.483.551a8.054,8.054,0,0,1,.564,1.013,3.353,3.353,0,0,1,.261.722,4.023,4.023,0,0,0,.126.58c.019.231.054.461.058.693a2.55,2.55,0,0,0-.063.488,6.609,6.609,0,0,1-.285,1.052c.457-.055.914-.118,1.375-.141.365-.068.738-.07,1.1-.124a5.6,5.6,0,0,0,.6-.143A2.075,2.075,0,0,0,16.3,31.1a.853.853,0,0,0,.384-.092c.083-.08.153-.173.235-.254a4.61,4.61,0,0,0,.091-.646c.019-.392.137-.774.117-1.168a6.733,6.733,0,0,1,.035-1.051,2.846,2.846,0,0,0-.255-1.223c-.069-.2-.141-.4-.224-.593a5.636,5.636,0,0,0-.469-.837,6.662,6.662,0,0,0-.719-.772,4.7,4.7,0,0,0-.866-.718c-.367-.266-.8-.415-1.184-.652a1.864,1.864,0,0,0-.8-.314c-.335-.015-.664-.089-1-.1-.262,0-.524-.014-.785.008-.179.022-.354.068-.534.078ZM7.921,25.715l-.04.095-.047.119a3.827,3.827,0,0,0-.246.8,4.507,4.507,0,0,0,.007.586c.033.276.033.555.078.829,0,.059.042.119.1.064.083-.065.136-.256.267-.184.145.115.337.027.5.1a3.046,3.046,0,0,1,.959.58,2.177,2.177,0,0,1,.314.64,1.467,1.467,0,0,1-.017.685c-.03.138-.171.2-.266.283a2.8,2.8,0,0,1-.557.3,2.869,2.869,0,0,0,.87.466,8.058,8.058,0,0,1,1.252.495,2.389,2.389,0,0,0,.885.212.971.971,0,0,0,.33-.373,3.426,3.426,0,0,0,.225-1.041,1.333,1.333,0,0,0,0-.638A7.523,7.523,0,0,0,12.2,28.5a7.89,7.89,0,0,0-.53-.957c-.118-.133-.226-.274-.348-.4a4.333,4.333,0,0,0-.372-.426,3.98,3.98,0,0,0-.683-.514,4.672,4.672,0,0,0-.637-.279,3.309,3.309,0,0,0-1.125-.241,3.152,3.152,0,0,0-.586.033Zm9.447,1.6a4.036,4.036,0,0,1,.059.918,11.879,11.879,0,0,1-.053,1.4c-.1.426-.082.868-.17,1.3a1.906,1.906,0,0,0,.718-.015c.332-.043.752-.075.912-.427a1.654,1.654,0,0,0-.145-.58,2.238,2.238,0,0,0-.147-.481c-.217-.368-.4-.758-.639-1.112-.125-.2-.224-.414-.339-.619a1.863,1.863,0,0,0-.2-.383Zm-9.46,1.15a3.443,3.443,0,0,1-.4.347l0,.016a2.583,2.583,0,0,0-.62.49c-.234.195-.457.4-.693.6-.252.248-.5.5-.773.724-.3.347-.612.676-.934,1-.163.1-.286.255-.438.374-.179.138-.35.287-.517.439a2.749,2.749,0,0,0-.361.3c-.054.068-.106.138-.161.205.04.05.079.1.118.152l.08-.07.031-.052.026.042c.792-.256,1.51-.69,2.278-1.007l.737-.351c.43-.174.782-.505,1.228-.641a3.112,3.112,0,0,0,.452-.212c.19-.1.393-.181.578-.294a8.943,8.943,0,0,0,.918-.5c.205-.214.078-.531.039-.785l-.021.009a1,1,0,0,0-.327-.456,2.417,2.417,0,0,0-.833-.407.46.46,0,0,0-.406.074ZM1.5,33.119a2.707,2.707,0,0,0-.44.347,1.661,1.661,0,0,0-.646,1.2.79.79,0,0,0,.164.4.937.937,0,0,0,.926.293,2.15,2.15,0,0,0,.656-.365,1.087,1.087,0,0,0,.283-.211,2.632,2.632,0,0,0,.537-1.264.762.762,0,0,0-.069-.113.756.756,0,0,0-.166-.236c-.037-.073-.07-.148-.1-.224a2.45,2.45,0,0,0-1.143.18Z" transform="translate(-0.121 -0.064)"/>
      <path id="Shape-2" data-name="Shape" class="cls-1" d="M99.019,65.209a5.845,5.845,0,0,0,.619-.051c.285.074.582.062.867.134a7.639,7.639,0,0,1,1,.158,3.472,3.472,0,0,1,1.011.655,1.633,1.633,0,0,1,.521,1.149c-.071.269-.231.58-.526.638-.444.107-.857.311-1.3.439a5.808,5.808,0,0,0-1.377.717c-.279.168-.574.308-.845.492-.239.165-.5.3-.743.446-.2.143-.392.305-.586.46-.381.269-.8.468-1.2.706-.191.043-.367.14-.563.164a1.589,1.589,0,0,1-1.219-.223c-.186-.113-.254-.331-.38-.5a1.283,1.283,0,0,1-.178-.626,1.824,1.824,0,0,1,.021-.546,2.524,2.524,0,0,1,.345-.934,4.76,4.76,0,0,0,.464-.965c.189-.213.313-.477.51-.684.165-.168.281-.381.462-.534a3.772,3.772,0,0,1,1.361-.8,5.428,5.428,0,0,1,1.193-.222C98.663,65.276,98.836,65.208,99.019,65.209Zm-.623.32a4.917,4.917,0,0,0-1.423.376c-.2.119-.406.218-.6.347a6.839,6.839,0,0,0-.666.709c-.173.2-.333.419-.505.623-.189.217-.236.522-.433.734a6.52,6.52,0,0,0-.266.676,2.387,2.387,0,0,0-.153.769,1.729,1.729,0,0,0,.354.97,1.011,1.011,0,0,0,.71.328c.165-.029.336,0,.5-.038a2.708,2.708,0,0,0,.93-.43,6.593,6.593,0,0,0,1.015-.661,4.519,4.519,0,0,1,.608-.391c.351-.255.739-.45,1.11-.674a9.005,9.005,0,0,1,.922-.5c.261-.161.558-.235.828-.376.173-.082.369-.1.54-.19.194-.094.414-.109.609-.2a.587.587,0,0,0,.236-.638,1.491,1.491,0,0,0-.287-.613,2.8,2.8,0,0,0-1.15-.7c-.388-.1-.789-.13-1.182-.2a6.432,6.432,0,0,0-.868-.029C98.945,65.416,98.678,65.54,98.4,65.529Z" transform="translate(-78.381 -54.265)"/>
      <path id="Shape-3" data-name="Shape" class="cls-1" d="M102.716,71.412c.045-.072.089-.173.193-.14a2.408,2.408,0,0,0,.394.295,3.486,3.486,0,0,1,.7.552l.068,0c.049-.13.079-.266.117-.4.042-.11.172-.065.259-.065l.038.093c0,.272.216.459.333.684.238-.132.323-.416.452-.64.09-.147.039-.372.2-.472.1-.011.157.084.207.152.128.189.294.347.429.532.065-.073.153-.139.166-.244.024-.087.005-.194.075-.262a.538.538,0,0,1,.325.054,5.186,5.186,0,0,1,.773.324,1.973,1.973,0,0,0,.328.115.524.524,0,0,1,.048.2c-.237.109-.436-.1-.646-.181s-.4-.171-.614-.235a3.591,3.591,0,0,1-.342.484.2.2,0,0,1-.2.1c-.049-.082-.081-.173-.133-.252a2.179,2.179,0,0,0-.377-.392c-.087.2-.163.4-.249.6s-.255.3-.319.493a.257.257,0,0,1-.259-.009,1.127,1.127,0,0,0-.358-.667c-.024.116-.048.232-.067.349-.063.03-.134.079-.205.042l-.291-.328a3.262,3.262,0,0,0-.592-.406,2.382,2.382,0,0,1,.118,1.058c.027.2.081.392.117.589.026.113-.112.156-.2.129a4.469,4.469,0,0,0-.449-.042,1.852,1.852,0,0,0-.378-.127c0,.123.1.209.141.316s.043.245.074.366a.289.289,0,0,1,0,.189.255.255,0,0,1-.248.032,3.348,3.348,0,0,0-.627-.145c.109.185.267.334.375.519a.139.139,0,0,1-.132.208c-.275-.023-.551,0-.826-.021-.052.262-.177.5-.226.766-.081-.015-.187.024-.245-.05-.091-.081.013-.2.037-.292.094-.188.1-.4.175-.6.211-.229.538-.032.8-.073-.064-.2-.245-.323-.369-.484-.077-.107.021-.2.1-.264a3.824,3.824,0,0,1,.911.173,4.6,4.6,0,0,0-.259-.734,1.682,1.682,0,0,1,.187-.142.578.578,0,0,1,.331.065,1.677,1.677,0,0,0,.53.091c-.087-.349-.02-.712-.072-1.063-.1-.281-.193-.568-.307-.845Z" transform="translate(-83.798 -59.35)"/>
      <path id="Shape-4" data-name="Shape" class="cls-1" d="M183.966,82.09a.315.315,0,0,1,.54.04c.134-.006.291-.027.385.094.134.247.355.476.341.778a.4.4,0,0,1-.208.327.662.662,0,0,1-.547.137.934.934,0,0,1-.479-.522A1.05,1.05,0,0,1,183.966,82.09Zm.227.237a.8.8,0,0,0,.343.839c.09.065.2,0,.288-.035A2.888,2.888,0,0,0,184.193,82.327Zm.256.005c.171.159.314.345.493.495a2.111,2.111,0,0,0-.229-.388C184.652,82.355,184.541,82.352,184.45,82.333Z" transform="translate(-153.136 -68.251)"/>
      <path id="Shape-5" data-name="Shape" class="cls-1" d="M191.165,94.873a.377.377,0,0,1,.5.1.7.7,0,0,1,.437.338,3.336,3.336,0,0,1,.358.786,1.265,1.265,0,0,1-.408.475.631.631,0,0,1-.56-.151,1.636,1.636,0,0,1-.382-.74,1.364,1.364,0,0,1-.043-.6C191.1,95.019,191.134,94.946,191.165,94.873Zm.171.294a1.214,1.214,0,0,0,.269.983.8.8,0,0,0,.336.183,2.006,2.006,0,0,0-.442-1.057l.128,0c.088.114.187.22.284.327.127.148.146.357.278.5a3.353,3.353,0,0,0-.26-.532,1.239,1.239,0,0,0-.526-.511.664.664,0,0,0-.067.111Z" transform="translate(-159.101 -78.964)"/>
      <path id="Shape-6" data-name="Shape" class="cls-1" d="M195.744,110.04a1.054,1.054,0,0,1,.687.311c.156.122.085.334.128.5a.662.662,0,0,1-.15.6.812.812,0,0,1-.515.22c-.26.033-.431-.228-.486-.452a1.13,1.13,0,0,1,.1-.959A.531.531,0,0,1,195.744,110.04Zm.294.349c.046.144.121.277.161.424a2.873,2.873,0,0,1,.01.41l.065-.031C196.371,110.914,196.347,110.518,196.039,110.39Zm-.223,1.052c.052-.062.134-.115.142-.205a1.009,1.009,0,0,0-.208-.819A.75.75,0,0,0,195.815,111.442Z" transform="translate(-162.671 -91.635)"/>
      <path id="Shape-7" data-name="Shape" class="cls-1" d="M57.062,138.552a1.845,1.845,0,0,1,.86,0,1.308,1.308,0,0,1,.579.348,1.091,1.091,0,0,1,.108.5.939.939,0,0,1-.164.435c-.063.129-.2.182-.316.255a1.448,1.448,0,0,1-1.014-.2,1.384,1.384,0,0,1-.5-.4l0-.1-.086-.048c.063-.154.009-.327.078-.477A2.255,2.255,0,0,1,57.062,138.552Zm.246.181a1.116,1.116,0,0,0-.582.386c.046.04.092.081.14.121a2.216,2.216,0,0,1,.41-.364.822.822,0,0,1,.442-.1C57.583,138.75,57.443,138.673,57.307,138.733Zm-.248.757a.773.773,0,0,0,.3.2,1.163,1.163,0,0,0,.566.146.4.4,0,0,0,.356-.306.38.38,0,0,0-.059-.438,1.922,1.922,0,0,0-.741-.031A1.386,1.386,0,0,0,57.06,139.49Z" transform="translate(-47.095 -115.333)"/>
      <path id="Shape-8" data-name="Shape" class="cls-1" d="M74.6,149.4a1.334,1.334,0,0,1,1.454.071,2.218,2.218,0,0,1,.536.592,1.2,1.2,0,0,1,.12.723,1.245,1.245,0,0,1-.37.614.53.53,0,0,1-.5.11,1.858,1.858,0,0,1-.6-.291c-.171-.134-.258-.349-.438-.475a.306.306,0,0,0-.079-.125,1.235,1.235,0,0,1-.359-.621A.642.642,0,0,1,74.6,149.4Zm.053.386a4.061,4.061,0,0,1,.746-.131,1.651,1.651,0,0,1,.846.414,1.757,1.757,0,0,0-.386-.4,1.24,1.24,0,0,0-.9-.188A.689.689,0,0,0,74.651,149.786Zm.15.226c-.184.09-.02.309.074.409l.015.094a.531.531,0,0,1,.287.215,1.158,1.158,0,0,0,.843.507.648.648,0,0,0,.369-.645,1.877,1.877,0,0,0-.98-.66,1.146,1.146,0,0,0-.608.083Z" transform="translate(-61.931 -124.255)"/>
      <path id="Shape-9" data-name="Shape" class="cls-1" d="M85.532,172.079a1.122,1.122,0,0,1,.743-.264.667.667,0,0,1,.5.314,1.324,1.324,0,0,1-.508,1.738.919.919,0,0,1-.645.106.625.625,0,0,1-.444-.494,1.239,1.239,0,0,1,.055-.531A1.622,1.622,0,0,1,85.532,172.079Zm.544.007a3.353,3.353,0,0,1,.31,1.334.988.988,0,0,0,.265-.679.816.816,0,0,0-.222-.6A2.168,2.168,0,0,0,86.076,172.087Zm-.5.493c-.056.175-.04.361-.1.533a.417.417,0,0,0,.378.576,2.452,2.452,0,0,1,.233-.232,2.109,2.109,0,0,0-.267-1.263A.773.773,0,0,0,85.573,172.58Z" transform="translate(-70.934 -143.073)"/>
    </g>
    <g id="Group_459" data-name="Group 459" transform="translate(0.412 0.355)">
      <path id="Shape-10" data-name="Shape" class="cls-2" d="M24.184,2.38a.856.856,0,0,1,.624-.565,1.428,1.428,0,0,1,.9.211,1.837,1.837,0,0,1,.8.932L26.511,3c-.361.088-.666-.175-.984-.293-.217-.038-.419-.129-.633-.174a6.219,6.219,0,0,1-.674.16A.882.882,0,0,1,24.184,2.38Z" transform="translate(-20.443 -1.8)"/>
      <path id="Shape-11" data-name="Shape" class="cls-2" d="M230.405,68.408a1.729,1.729,0,0,1,.667-.083.979.979,0,0,1,.5.442.9.9,0,0,0-.593-.1,1.2,1.2,0,0,0-.571.257,2.857,2.857,0,0,1-.291.292.743.743,0,0,1-.242.012.82.82,0,0,1,.146-.568A.786.786,0,0,1,230.405,68.408Z" transform="translate(-191.715 -57.178)"/>
      <path id="Shape-12" data-name="Shape" class="cls-2" d="M208,79.132a1.915,1.915,0,0,1,.4-.189.642.642,0,0,1-.378.474c-.276.108-.549.226-.813.357-.237.115-.41.323-.647.436-.166.081-.349.118-.518.195a3.135,3.135,0,0,1-.417.189.809.809,0,0,1-.376-.029c.266-.139.547-.247.8-.405.313-.128.569-.351.869-.5C207.294,79.508,207.636,79.294,208,79.132Z" transform="translate(-171.212 -66.032)"/>
      <path id="Shape-13" data-name="Shape" class="cls-2" d="M193.175,82.754l.044-.016c.173.075.339.165.507.252h-.037c-.1-.005-.209-.014-.312-.021h0A.945.945,0,0,0,193.175,82.754Z" transform="translate(-161.158 -69.193)"/>
      <path id="Shape-14" data-name="Shape" class="cls-2" d="M196.59,84.363a5.576,5.576,0,0,1,.558.4A.644.644,0,0,1,196.59,84.363Z" transform="translate(-164 -70.546)"/>
      <path id="Shape-15" data-name="Shape" class="cls-2" d="M45,153.345l.04-.1a2.287,2.287,0,0,0,.409-.018,6.354,6.354,0,0,1-.235.619,7.784,7.784,0,0,0-.21.834,1.607,1.607,0,0,0-.06.457,1.632,1.632,0,0,1-.153.536c-.046-.275-.046-.554-.078-.83a4.521,4.521,0,0,1-.006-.586,3.808,3.808,0,0,1,.246-.8Z" transform="translate(-37.533 -127.889)"/>
      <path id="Shape-16" data-name="Shape" class="cls-2" d="M28.606,172.411a2.613,2.613,0,0,1,.62-.49.841.841,0,0,1-.1.386c-.1.138-.25.219-.354.349a2.359,2.359,0,0,1-.336.376,5.006,5.006,0,0,0-.454.375c-.182.183-.414.3-.609.474a2.285,2.285,0,0,1-.354.267c-.3.159-.507.436-.811.581.322-.322.638-.651.934-1,.274-.223.521-.476.773-.724.236-.193.459-.4.693-.6Z" transform="translate(-22.132 -143.452)"/>
      <path id="Shape-17" data-name="Shape" class="cls-2" d="M2.948,196.687a2.447,2.447,0,0,1,1.143-.179c.032.074.064.149.1.222a.975.975,0,0,1-.5.154,2.146,2.146,0,0,0-.713.249,1.051,1.051,0,0,0-.386.238c-.106.133-.164.3-.28.426a4.062,4.062,0,0,1-.455.435,1.662,1.662,0,0,1,.646-1.2,2.642,2.642,0,0,1,.44-.347Z" transform="translate(-1.861 -163.924)"/>
    </g>
    <g id="Group_460" data-name="Group 460" transform="translate(0.412 1.087)">
      <path id="Shape-18" data-name="Shape" class="cls-3" d="M24.44,6.333a6.2,6.2,0,0,0,.674-.16c.214.045.416.136.633.174.318.118.623.381.984.293l.051.376c-.237.179-.434.476-.759.482a1.543,1.543,0,0,1-.69-.084,5.592,5.592,0,0,1-.519-.237,1.94,1.94,0,0,1-.372-.842Z" transform="translate(-20.661 -6.173)"/>
      <path id="Shape-19" data-name="Shape" class="cls-3" d="M99.572,66.87c.282.011.549-.113.831-.1a6.323,6.323,0,0,1,.867.029c.394.07.794.1,1.182.2a2.8,2.8,0,0,1,1.15.7,1.487,1.487,0,0,1,.287.613.587.587,0,0,1-.236.638c-.2.089-.415.1-.609.2-.172.088-.367.107-.54.19-.27.14-.568.215-.828.377a8.844,8.844,0,0,0-.923.5c-.37.224-.758.419-1.11.674a4.476,4.476,0,0,0-.608.391,6.561,6.561,0,0,1-1.015.66,2.7,2.7,0,0,1-.929.43c-.165.034-.336.009-.5.038a1.012,1.012,0,0,1-.71-.328,1.73,1.73,0,0,1-.355-.97,2.387,2.387,0,0,1,.153-.769,6.664,6.664,0,0,1,.266-.676c.2-.212.244-.516.433-.734.173-.2.332-.419.505-.623a6.838,6.838,0,0,1,.666-.709c.192-.129.4-.228.6-.347A4.935,4.935,0,0,1,99.572,66.87Zm-1.1.8c.114.277.2.564.306.845.053.352-.014.714.073,1.064a1.7,1.7,0,0,1-.53-.091.559.559,0,0,0-.33-.065,1.669,1.669,0,0,0-.187.142,4.611,4.611,0,0,1,.259.735,3.836,3.836,0,0,0-.911-.173c-.08.063-.179.157-.1.264.124.161.3.279.369.483-.262.042-.589-.156-.8.073-.077.192-.08.409-.174.6-.023.093-.128.211-.037.291.059.075.165.035.245.051.05-.264.175-.5.227-.766.275.023.551,0,.826.021a.139.139,0,0,0,.132-.208c-.108-.185-.265-.334-.375-.519a3.457,3.457,0,0,1,.627.145.256.256,0,0,0,.248-.032.289.289,0,0,0,0-.189c-.031-.121-.032-.248-.073-.366s-.137-.194-.141-.317a1.879,1.879,0,0,1,.378.128,4.139,4.139,0,0,1,.449.042c.085.026.223-.016.2-.129-.037-.2-.091-.389-.117-.589a2.379,2.379,0,0,0-.119-1.058,3.22,3.22,0,0,1,.593.406l.291.328c.07.037.142-.012.205-.042.018-.117.043-.233.067-.349a1.128,1.128,0,0,1,.357.668.257.257,0,0,0,.259.009c.065-.192.245-.308.318-.493.087-.2.164-.405.25-.6a2.173,2.173,0,0,1,.375.392c.052.079.085.17.134.252a.2.2,0,0,0,.2-.1,3.515,3.515,0,0,0,.342-.484c.21.064.406.164.613.235s.41.29.646.181a.5.5,0,0,0-.048-.2,1.984,1.984,0,0,1-.328-.114,5.178,5.178,0,0,0-.773-.325.536.536,0,0,0-.327-.054c-.068.068-.049.175-.074.262-.012.1-.1.171-.167.244-.135-.184-.3-.343-.428-.532-.051-.068-.109-.163-.207-.151-.157.1-.107.325-.2.472-.128.225-.213.508-.452.64-.117-.225-.333-.412-.333-.684l-.039-.093c-.088,0-.217-.046-.259.065-.037.132-.067.269-.117.4l-.068,0a3.482,3.482,0,0,0-.695-.552,2.316,2.316,0,0,1-.394-.295C98.564,67.494,98.519,67.6,98.475,67.668Z" transform="translate(-79.849 -56.628)"/>
      <path id="Shape-20" data-name="Shape" class="cls-3" d="M230.785,70.346a.911.911,0,0,1,.6.1.385.385,0,0,1,.078.151l.015.082a1.62,1.62,0,0,0-.347.467c-.125.271-.471.213-.691.349-.093.032-.193.151-.293.093l-.017-.023c.02-.087.056-.17.078-.258-.056-.043-.11-.087-.164-.133l-.1-.012c-.083-.081-.2-.035-.3-.041l.039-.214a.778.778,0,0,0,.242-.012,2.866,2.866,0,0,0,.29-.293,1.2,1.2,0,0,1,.571-.256Z" transform="translate(-191.522 -59.591)"/>
      <path id="Shape-21" data-name="Shape" class="cls-3" d="M208.886,76.573a.549.549,0,0,1,.273-.03c0,.137-.112.224-.188.323a2.31,2.31,0,0,1-.583.505,11.676,11.676,0,0,0-2.22,1.392,2.077,2.077,0,0,0-.82.728l-.046-.038a2.94,2.94,0,0,0-.258-.522,4.628,4.628,0,0,1-.272-.383l.082.018a.808.808,0,0,0,.374.028,3.233,3.233,0,0,0,.42-.189c.167-.078.349-.114.515-.2.237-.113.413-.321.648-.436.265-.131.536-.248.812-.356a.644.644,0,0,0,.378-.475v0C208.291,76.8,208.6,76.711,208.886,76.573Z" transform="translate(-170.813 -64.764)"/>
      <path id="Shape-22" data-name="Shape" class="cls-3" d="M194.379,84.107c.1.007.21.016.314.021l.049,0,.009.018a.643.643,0,0,0,.557.4c.132.014.216.124.3.21a2.747,2.747,0,0,1,.641.779,6.168,6.168,0,0,1,.3.576.949.949,0,0,1,.067.281l.02,0a1.891,1.891,0,0,1,.1.934,1.532,1.532,0,0,1-.076.79c-.114.251-.178.52-.294.77a3.633,3.633,0,0,0-.04-.7c-.055-.26-.131-.515-.176-.777a7.243,7.243,0,0,0-.616-1.694,5.912,5.912,0,0,0-.323-.558,5.179,5.179,0,0,0-.828-1.06Z" transform="translate(-162.16 -71.064)"/>
      <path id="Shape-23" data-name="Shape" class="cls-3" d="M45.5,153.172a3.122,3.122,0,0,1,.586-.033,3.323,3.323,0,0,1,1.125.24,4.786,4.786,0,0,1,.637.28,4.028,4.028,0,0,1,.683.514,4.343,4.343,0,0,1,.372.426c.122.128.23.269.348.4a7.948,7.948,0,0,1,.529.958,7.5,7.5,0,0,1,.325,1.227,2.508,2.508,0,0,1,0,.454,1.1,1.1,0,0,1-.457-.076,2.411,2.411,0,0,0-.545-.232,4.089,4.089,0,0,1-.5-.187,3.146,3.146,0,0,0-.512-.076c-.118-.042-.209-.138-.331-.17s-.255-.061-.377-.1a2.173,2.173,0,0,0-.313-.641,3.028,3.028,0,0,0-.959-.58c-.16-.068-.351.02-.5-.1-.131-.072-.184.12-.267.184-.055.055-.094-.006-.1-.063a1.647,1.647,0,0,0,.153-.537,1.571,1.571,0,0,1,.06-.455,7.572,7.572,0,0,1,.21-.834,6.474,6.474,0,0,0,.235-.619A2.54,2.54,0,0,1,45.5,153.172Z" transform="translate(-37.987 -128.544)"/>
      <path id="Shape-24" data-name="Shape" class="cls-3" d="M22.281,169.322a.46.46,0,0,1,.406-.074,2.385,2.385,0,0,1,.833.408,1,1,0,0,1,.327.455,2.553,2.553,0,0,0-.746.535c-.233.167-.436.372-.667.546a4.325,4.325,0,0,1-1.007.62c-.354.2-.684.436-1.054.6-.213.1-.389.259-.6.361a5.565,5.565,0,0,1-.993.421,5.485,5.485,0,0,0-.569.249,1.092,1.092,0,0,0-.6.4l-.031.051-.08.071c-.038-.052-.078-.1-.118-.151.055-.068.107-.137.161-.206a2.789,2.789,0,0,1,.361-.305c.168-.15.339-.3.517-.437a5.477,5.477,0,0,1,.438-.375c.3-.146.516-.424.811-.581a2.4,2.4,0,0,0,.354-.269c.195-.167.427-.288.609-.472a5.234,5.234,0,0,1,.453-.376,2.35,2.35,0,0,0,.336-.375c.1-.132.257-.212.354-.349a.848.848,0,0,0,.1-.387l0-.015a3.563,3.563,0,0,0,.4-.347Z" transform="translate(-14.785 -141.947)"/>
      <path id="Shape-25" data-name="Shape" class="cls-3" d="M4.193,197.845a.752.752,0,0,1,.166.237l.037.135a1.606,1.606,0,0,0-.251.5c-.1.256-.364.38-.549.566a1.924,1.924,0,0,1-.474.275,1.137,1.137,0,0,1-.412.167c-.227.051-.458-.044-.684.021a.79.79,0,0,1-.164-.4,3.955,3.955,0,0,0,.455-.435c.116-.127.174-.293.28-.426a1.048,1.048,0,0,1,.386-.238A2.093,2.093,0,0,1,3.7,198,.963.963,0,0,0,4.193,197.845Z" transform="translate(-1.862 -165.769)"/>
    </g>
    <g id="Group_461" data-name="Group 461" transform="translate(0.576 1.464)">
      <path id="Shape-26" data-name="Shape" class="cls-4" d="M28.578,8.477l-.007-.048a2.345,2.345,0,0,1,.112.592.577.577,0,0,1-.159.45,1.409,1.409,0,0,1-.375.129.413.413,0,0,0-.282-.139c-.107.056-.084.187-.086.288a2.552,2.552,0,0,1-.609-.166c-.245-.08-.371-.327-.505-.529a5.545,5.545,0,0,0,.519.238,1.545,1.545,0,0,0,.691.085c.324-.005.521-.3.758-.482l-.051-.376-.006-.041Z" transform="translate(-22.681 -8.429)"/>
      <path id="Shape-27" data-name="Shape" class="cls-4" d="M233.607,71.948l.049.076a1.324,1.324,0,0,1-.256.6.89.89,0,0,1-1.177.344l.024-.111.024.061.017.023c.1.057.2-.061.3-.093.22-.136.564-.078.691-.349a1.577,1.577,0,0,1,.347-.467Z" transform="translate(-193.835 -61.319)"/>
      <path id="Shape-28" data-name="Shape" class="cls-4" d="M208.8,82.9a11.753,11.753,0,0,1,2.222-1.393,4,4,0,0,1-1.067.844c-.371.189-.652.516-1.018.715a7.5,7.5,0,0,0-.952.691,1.363,1.363,0,0,1-.051-.168l.046.038A2.088,2.088,0,0,1,208.8,82.9Z" transform="translate(-173.609 -69.279)"/>
      <path id="Shape-29" data-name="Shape" class="cls-4" d="M24.988,174.421l.021-.01c.039.254.166.571-.039.785a8.924,8.924,0,0,1-.918.5c-.185.111-.387.19-.578.293a3.126,3.126,0,0,1-.452.212c-.446.135-.8.466-1.228.641l-.737.35c-.768.317-1.486.751-2.278,1.007l-.026-.043a1.111,1.111,0,0,1,.6-.4,5.759,5.759,0,0,1,.569-.249,5.384,5.384,0,0,0,.993-.421c.211-.1.387-.264.6-.361.37-.167.7-.408,1.054-.6a4.321,4.321,0,0,0,1.007-.619c.23-.173.434-.378.667-.547a2.524,2.524,0,0,1,.746-.533Z" transform="translate(-16.091 -146.634)"/>
      <path id="Shape-30" data-name="Shape" class="cls-4" d="M53.813,174.982c.123.044.251.072.377.1s.213.128.33.17a3.142,3.142,0,0,1,.513.078,4.821,4.821,0,0,0,.5.186,2.319,2.319,0,0,1,.546.232,1.116,1.116,0,0,0,.457.074,2.565,2.565,0,0,0,0-.454,1.339,1.339,0,0,1,0,.637,3.455,3.455,0,0,1-.225,1.041.984.984,0,0,1-.33.372,2.413,2.413,0,0,1-.886-.212,8.11,8.11,0,0,0-1.252-.494,2.9,2.9,0,0,1-.87-.465,2.956,2.956,0,0,0,.558-.3c.095-.088.236-.146.266-.284A1.466,1.466,0,0,0,53.813,174.982Z" transform="translate(-44.583 -147.11)"/>
      <path id="Shape-31" data-name="Shape" class="cls-4" d="M5.176,199.256a.739.739,0,0,1,.069.112,2.627,2.627,0,0,1-.537,1.265,1.108,1.108,0,0,1-.283.211,2.181,2.181,0,0,1-.656.365.934.934,0,0,1-.926-.293c.226-.065.457.031.684-.021a1.137,1.137,0,0,0,.412-.167,1.924,1.924,0,0,0,.474-.275c.185-.187.446-.31.549-.566a1.606,1.606,0,0,1,.251-.5l-.037-.135Z" transform="translate(-2.843 -167.321)"/>
    </g>
    <path id="Shape-32" data-name="Shape" class="cls-5" d="M.02.1C-.108.068.061-.063.07.068L.055.1.02.1Z" transform="translate(6.209 3.221)"/>
    <g id="Group_462" data-name="Group 462" transform="translate(6.229 3.323)">
      <path id="Shape-33" data-name="Shape" class="cls-6" d="M36.623,19.54l.035,0,.517.561a1.047,1.047,0,0,1,.3.37c.1-.008.2-.009.3-.01a1.532,1.532,0,0,0,.58-.159,2.786,2.786,0,0,0,.618-.351,8.551,8.551,0,0,1,.4,1.235c.049.172.063.352.121.521.042.1.1.183.153.276.15.008.34,0,.42-.157.123-.206.279-.39.384-.607s.253-.407.362-.621c.233.008.374-.207.533-.345l.038.153c.085.471-.019.954.05,1.428a4.611,4.611,0,0,0,.069.726c.276.332.6.62.867.96.145.188.345.324.482.52.239.277.439.585.689.853a6.709,6.709,0,0,0,.554.728,3.452,3.452,0,0,1,.626.725c-.052.125-.2.185-.309.248a1.017,1.017,0,0,0-.2-.337c-.439-.508-.856-1.035-1.3-1.536a6.419,6.419,0,0,0-.483-.633c-.16-.174-.292-.373-.463-.537a5.894,5.894,0,0,1-.5-.5c-.1-.137-.244-.237-.334-.383-.014-.114-.008-.229-.027-.342a4.069,4.069,0,0,1,.008-.662c.018-.294,0-.588.018-.882L41,20.712a.605.605,0,0,0-.143.128,21.093,21.093,0,0,1-1.093,2.048,2.481,2.481,0,0,1-.5-.787,2.858,2.858,0,0,1-.148-.478c-.051-.3-.255-.565-.247-.881a.649.649,0,0,0-.128-.348l-.131,0-.139.177c-.152-.125-.338-.039-.5.005-.233.059-.409.238-.635.314-.108-.23-.276-.426-.378-.66s-.209-.468-.332-.693Z" transform="translate(-36.623 -19.538)"/>
      <path id="Shape-34" data-name="Shape" class="cls-6" d="M70.88,58.54c.261.055.516.138.772.217a2.689,2.689,0,0,1,.742.274,4.589,4.589,0,0,0,.5.3,7.092,7.092,0,0,1,.859.629c.16.16.3.344.467.5a5.424,5.424,0,0,1,.642.769,8.41,8.41,0,0,1,.834,1.245,10.836,10.836,0,0,1,.632,1.371l.11-.029a1.13,1.13,0,0,0-.074-.58c-.148-.31-.3-.62-.441-.933a8.808,8.808,0,0,0-1.2-1.643c-.37-.353-.69-.754-1.074-1.093-.239-.245-.57-.361-.82-.59.229.049.443.15.67.2a4.188,4.188,0,0,1,.781.422c.282.134.472.4.752.536a2.57,2.57,0,0,1,.433.275,4.146,4.146,0,0,1,.572.427,3.226,3.226,0,0,0,.316.347,2.012,2.012,0,0,0,.6.209c.263.286.5.594.773.872.215.174.371.405.573.593.136.156.325.253.452.417.251.32.394.709.643,1.03a8.926,8.926,0,0,1,.666,1.654,14.745,14.745,0,0,1,.785,2.366c.026.157.068.312.106.467A4.978,4.978,0,0,1,81,69.6a5.848,5.848,0,0,1,.071.833c-.013.178-.04.355-.048.533h-.056a4.6,4.6,0,0,0-.1-.612,3.048,3.048,0,0,0-.15-.757,4.639,4.639,0,0,0-.211-.791,5.922,5.922,0,0,0-.294-1.024,3.309,3.309,0,0,0-.362-.849c-.144-.269-.363-.483-.521-.741-.074-.116-.153-.229-.233-.34a8.662,8.662,0,0,0-.684-.728c-.258-.248-.58-.417-.831-.672a3.164,3.164,0,0,0-.532-.3,6.025,6.025,0,0,0-.936-.387c-.173-.06-.294-.228-.477-.259-.269-.07-.52.1-.789.086s-.548.095-.827.088a3.72,3.72,0,0,0-.536.129,2.765,2.765,0,0,0-.481.192c-.438.141-.842.364-1.284.495-.283.047-.518.223-.8.286-.181.049-.341.148-.516.21a2.226,2.226,0,0,0-.74.43c-.127.159-.333.173-.5.257s-.364.1-.532.195c-.273.146-.557.269-.831.412a5.85,5.85,0,0,0-.72.489c-.137.115-.315.178-.42.33-.281.363-.709.561-1.014.9-.144-.237-.308-.461-.455-.7a6.4,6.4,0,0,0-1.017-.981,3.849,3.849,0,0,0-1.226-.777,7.367,7.367,0,0,0-1.434-.562,4.636,4.636,0,0,0-.752-.063c-.318-.021-.63.065-.947.048-.178,0-.354.041-.533.045a2.673,2.673,0,0,0-.668.184.864.864,0,0,1,.061-.08,3.5,3.5,0,0,1,.856-.165.4.4,0,0,0,.37-.162c.278-.452.591-.88.885-1.321.176-.255.461-.4.66-.63.134-.168.362-.209.512-.359.169-.166.417-.206.583-.376a4,4,0,0,1,.585-.419c.223-.193.469-.358.7-.535.391-.23.82-.384,1.2-.626.232-.128.467-.247.688-.392.342-.218.745-.311,1.085-.535.244-.156.518-.254.771-.392a2.822,2.822,0,0,1,.807-.224c.269-.054.542-.08.814-.108.294-.027.559-.178.851-.218S70.607,58.606,70.88,58.54ZM69.46,59.7c-.182,0-.356.068-.538.083A5.381,5.381,0,0,0,67.729,60a3.763,3.763,0,0,0-1.362.8c-.182.154-.3.366-.462.535-.2.207-.32.471-.51.683a4.731,4.731,0,0,1-.464.966,2.51,2.51,0,0,0-.345.933,1.792,1.792,0,0,0-.022.547,1.28,1.28,0,0,0,.178.624c.127.167.195.383.38.5a1.581,1.581,0,0,0,1.218.223,5.717,5.717,0,0,0,.564-.164c.4-.238.822-.437,1.2-.706.195-.154.383-.316.585-.46.248-.147.505-.281.744-.446.27-.184.565-.324.845-.493a5.844,5.844,0,0,1,1.378-.716c.438-.128.85-.331,1.294-.44.3-.057.455-.369.527-.638a1.635,1.635,0,0,0-.522-1.149,3.492,3.492,0,0,0-1.011-.655,7.631,7.631,0,0,0-1-.158c-.286-.072-.582-.06-.867-.134a6.024,6.024,0,0,1-.619.051Z" transform="translate(-54.931 -52.013)"/>
      <path id="Shape-35" data-name="Shape" class="cls-6" d="M60.34,98.095a2.474,2.474,0,0,1,1.235.112c.241.1.5.137.746.236a7.353,7.353,0,0,1,.948.393,3.315,3.315,0,0,1,.724.521,5.757,5.757,0,0,1,1.361,1.508c.049.1.147.189.138.311a2.343,2.343,0,0,1-.083.546c-.027.363-.156.709-.2,1.07-.021.336-.053.671-.05,1.009-.007.187-.037.371-.05.558a.9.9,0,0,0,.091.355,4.1,4.1,0,0,1,.053.563c.063.446.155.887.2,1.335.016.19.079.374.085.566a5.676,5.676,0,0,0-.591-.838c-.261-.223-.475-.493-.731-.722a7.215,7.215,0,0,0-1.3-.855c-.381-.132-.695-.4-1.072-.54-.2-.056-.411-.048-.612-.1-.283-.073-.579-.022-.866-.067a5.084,5.084,0,0,0-1.335.074,3.069,3.069,0,0,0,.038-.925c.026-.3-.145-.577-.145-.878a4.134,4.134,0,0,0-.142-.781,7.558,7.558,0,0,1-.1-1.246,1.166,1.166,0,0,1,.113-.375,4.933,4.933,0,0,1,.205-.586c.135-.233.215-.494.358-.722.088-.145.172-.292.257-.438-.057,0-.113-.008-.169-.01l-.049,0C59.714,98.129,60.027,98.115,60.34,98.095Z" transform="translate(-54.992 -84.924)"/>
      <path id="Shape-36" data-name="Shape" class="cls-6" d="M58.249,139.78c.135-.06.275.017.41.04a.809.809,0,0,0-.441.1,2.189,2.189,0,0,0-.41.363c-.048-.039-.094-.081-.14-.121A1.125,1.125,0,0,1,58.249,139.78Z" transform="translate(-54.145 -119.64)"/>
      <path id="Shape-37" data-name="Shape" class="cls-6" d="M76.124,151.01a.679.679,0,0,1,.306-.305,1.23,1.23,0,0,1,.9.188,1.748,1.748,0,0,1,.386.4,1.646,1.646,0,0,0-.846-.414A3.956,3.956,0,0,0,76.124,151.01Z" transform="translate(-69.513 -128.738)"/>
      <path id="Shape-38" data-name="Shape" class="cls-6" d="M90.6,173.446a2.053,2.053,0,0,1,.354.055.813.813,0,0,1,.222.6.988.988,0,0,1-.266.679A3.347,3.347,0,0,0,90.6,173.446Z" transform="translate(-81.57 -147.691)"/>
    </g>
    <g id="Group_463" data-name="Group 463" transform="translate(7.373 3.532)">
      <path id="Shape-39" data-name="Shape" class="cls-7" d="M44.017,21.21a4.338,4.338,0,0,1,.57-.424l.069.2a2.792,2.792,0,0,1-.618.351,1.535,1.535,0,0,1-.581.159,4.068,4.068,0,0,1,.561-.289Z" transform="translate(-43.457 -20.786)"/>
      <path id="Shape-40" data-name="Shape" class="cls-7" d="M61.588,22.352a4.038,4.038,0,0,1,.551-.706c.009.171.006.343.021.514l-.038-.153C61.962,22.145,61.822,22.36,61.588,22.352Z" transform="translate(-58.554 -21.502)"/>
      <path id="Shape-41" data-name="Shape" class="cls-7" d="M69.306,57.7c.25,0,.494-.062.743-.076.215.027.433-.065.644.007.162.05.328.081.489.128-.273.067-.554.084-.832.124s-.557.19-.85.218c-.272.028-.546.054-.814.108a2.816,2.816,0,0,0-.807.224c-.254.138-.528.236-.772.392-.339.224-.742.317-1.085.535-.221.145-.457.265-.688.392-.384.242-.814.395-1.2.626-.236.177-.481.342-.7.535a3.908,3.908,0,0,0-.585.419c-.166.169-.414.21-.583.375-.151.151-.378.19-.512.359-.2.233-.485.375-.661.63-.293.441-.606.869-.884,1.321a.4.4,0,0,1-.371.162,3.486,3.486,0,0,0-.856.165,5.1,5.1,0,0,1,.662-.939c.195-.193.4-.378.587-.579A10.826,10.826,0,0,0,61.279,61.8a5.906,5.906,0,0,1,.707-.582c.074-.058.172-.024.257-.029.02-.075.039-.151.058-.227.411-.215.815-.447,1.23-.658.575-.345,1.168-.662,1.771-.957a14.008,14.008,0,0,1,1.273-.592c.085-.135.248-.169.374-.253a5.206,5.206,0,0,1,.745-.331c.253-.037.462-.2.71-.251a6.038,6.038,0,0,1,.9-.222Z" transform="translate(-56.378 -51.443)"/>
      <path id="Shape-42" data-name="Shape" class="cls-7" d="M139.7,58.9a2.361,2.361,0,0,1,.74.066c.229.112.474.187.7.3.3.165.577.359.873.527a6.741,6.741,0,0,0,.671.38,5.479,5.479,0,0,1,1.041.822,4.24,4.24,0,0,1,.333.283,3.209,3.209,0,0,1,.413.4,2.009,2.009,0,0,1-.6-.209,3.3,3.3,0,0,1-.317-.348,4.111,4.111,0,0,0-.571-.426,2.509,2.509,0,0,0-.433-.275c-.278-.137-.47-.4-.752-.536a4.166,4.166,0,0,0-.781-.421c-.227-.052-.441-.153-.67-.2-.134-.048-.238-.154-.366-.212A.9.9,0,0,1,139.7,58.9Z" transform="translate(-123.592 -52.514)"/>
      <path id="Shape-43" data-name="Shape" class="cls-7" d="M56.022,98.687c.056,0,.112.007.169.01-.084.146-.169.293-.256.438-.143.228-.223.49-.359.723a4.785,4.785,0,0,0-.2.586,1.136,1.136,0,0,0-.113.375,7.544,7.544,0,0,0,.1,1.246,4.1,4.1,0,0,1,.142.781c0,.3.172.574.146.878a3.069,3.069,0,0,1-.039.925l-.005.019c-.051.017-.1.036-.151.054a.78.78,0,0,0-.289.054c-.012-.382-.176-.738-.192-1.119-.048-.32-.22-.606-.251-.93a8.725,8.725,0,0,1-.146-1.451,12.165,12.165,0,0,1,.261-1.673A6.244,6.244,0,0,1,55.07,99c.051-.11.191-.112.29-.15C55.582,98.8,55.8,98.728,56.022,98.687Z" transform="translate(-52.705 -85.651)"/>
    </g>
    <g id="Group_464" data-name="Group 464" transform="translate(6.939 4.294)">
      <path id="Shape-44" data-name="Shape" class="cls-8" d="M41.5,25.407c.164-.044.35-.13.5-.005-.308.238-.7.313-1.015.548-.042-.075-.083-.151-.122-.228.226-.076.4-.256.635-.314Z" transform="translate(-40.861 -25.337)"/>
      <path id="Shape-45" data-name="Shape" class="cls-8" d="M52.393,34.846a2.489,2.489,0,0,0,.5.787,3.408,3.408,0,0,1-.245.281C52.58,35.554,52.458,35.207,52.393,34.846Z" transform="translate(-50.463 -33.255)"/>
      <path id="Shape-46" data-name="Shape" class="cls-8" d="M108.575,90.058a1.8,1.8,0,0,1,.95.04c.228.134.493.176.728.294.292.113.494.371.775.5a1.017,1.017,0,0,1,.3.251,5.826,5.826,0,0,0,.657.594,1.337,1.337,0,0,1,.259.327c.142.217.3.428.443.642a5.724,5.724,0,0,1,.475.688c.1.179.148.379.231.565A6.122,6.122,0,0,1,113.726,95a5.416,5.416,0,0,1,.258.935c.02.236.126.453.15.689a1.375,1.375,0,0,1-.333-.489,3.672,3.672,0,0,0-.359-.511l-.078-.045a3.3,3.3,0,0,0-.323-.424,3.233,3.233,0,0,0-.769-.732,3.681,3.681,0,0,0-.45-.339,5.642,5.642,0,0,0-2.333-1.1c-.182-.037-.354-.116-.539-.138a9.89,9.89,0,0,0-2.28.04,5.445,5.445,0,0,0-.892.32,9.655,9.655,0,0,1-.989.5c-.417.215-.813.473-1.235.681-.216.106-.408.256-.629.354a2.568,2.568,0,0,0-.334.177c-.3.2-.623.369-.93.56-.405.25-.84.449-1.227.73a4.563,4.563,0,0,0-.532.384c-.161.157-.346.287-.5.453-.17.185-.406.3-.53.53a4.214,4.214,0,0,1,.061-1.539,11.837,11.837,0,0,1,.306-1.459.241.241,0,0,1,.057-.1c.3-.354.7-.614.992-.975.06-.074.125-.145.192-.212a1.136,1.136,0,0,0,.465-.25,7.942,7.942,0,0,1,1.692-.889c.273-.137.556-.257.825-.4.451-.232.947-.359,1.39-.606a3.913,3.913,0,0,0,.54-.246,7.31,7.31,0,0,0,1.143-.441,4.286,4.286,0,0,1,1.094-.3C107.942,90.075,108.266,90.138,108.575,90.058Z" transform="translate(-89.13 -79.188)"/>
      <path id="Shape-47" data-name="Shape" class="cls-8" d="M125.91,94.464c.277-.063.513-.239.795-.286a1.827,1.827,0,0,1-.634.339c-.176.077-.356.142-.536.21a6.242,6.242,0,0,1-.883.378,2.216,2.216,0,0,1,.741-.43C125.568,94.612,125.729,94.513,125.91,94.464Z" transform="translate(-110.63 -82.658)"/>
      <path id="Shape-48" data-name="Shape" class="cls-8" d="M102.367,162.884a1.89,1.89,0,0,1,.2.383c.114.2.214.42.339.618.239.355.422.745.638,1.112a2.206,2.206,0,0,1,.147.481,1.67,1.67,0,0,1,.146.581c-.16.352-.58.383-.912.426a1.848,1.848,0,0,1-.718.015c.088-.427.074-.868.17-1.3a11.964,11.964,0,0,0,.053-1.4A4.086,4.086,0,0,0,102.367,162.884Z" transform="translate(-91.937 -139.865)"/>
    </g>
    <path id="Shape-49" data-name="Shape" class="cls-9" d="M.044.059c.072-.022.1.1.026.116S-.028.074.044.059Z" transform="translate(28.417 4.563)"/>
    <g id="Group_465" data-name="Group 465" transform="translate(8.05 10.138)">
      <path id="Shape-50" data-name="Shape" class="cls-10" d="M83.223,60.3a.186.186,0,0,1,.151-.039c.024.055.048.109.076.162a7.28,7.28,0,0,1-.944.54c-.067-.011-.094-.074-.119-.128A4.949,4.949,0,0,0,83.223,60.3Z" transform="translate(-76.548 -60.261)"/>
      <path id="Shape-51" data-name="Shape" class="cls-10" d="M81.973,62.6a2.235,2.235,0,0,0,.518-.3,4.567,4.567,0,0,1,.831.069,2.411,2.411,0,0,0,.554-.054l-.051.07c-.192.081-.384.163-.577.243a2.442,2.442,0,0,0-.311.1l-.018-.012-.1-.062a3.071,3.071,0,0,1-.428.114.571.571,0,0,1-.323-.1c-.246.161-.477.343-.723.506a8.346,8.346,0,0,0-.768.524,1.423,1.423,0,0,1-.745.4l.02-.113a.584.584,0,0,1,.277-.2c.255-.1.46-.292.706-.412a7.207,7.207,0,0,0,.652-.43c.154-.122.341-.2.483-.336Z" transform="translate(-74.424 -61.953)"/>
      <path id="Shape-52" data-name="Shape" class="cls-10" d="M177.117,79.874a1.978,1.978,0,0,1,.618-.024c.306.082.609.181.914.269a.789.789,0,0,1,.405.339c-.074,0-.149,0-.225,0-.094-.121-.25-.1-.385-.093a.314.314,0,0,0-.54-.04,3.844,3.844,0,0,0-.745,0,.543.543,0,0,1-.548-.232c.14-.04.286-.059.427-.092.028-.04.052-.081.077-.123Z" transform="translate(-155.006 -76.561)"/>
      <path id="Shape-53" data-name="Shape" class="cls-10" d="M49.346,135.967c.15-.043.3-.085.453-.115.031.049.094.09.082.156-.113.115-.24.215-.344.339a2.254,2.254,0,0,0-.447.308,1.074,1.074,0,0,0-.3.3,6.64,6.64,0,0,0-.48.6,1.745,1.745,0,0,0-.321.93l.223.067-.128-.016a2.057,2.057,0,0,0-.58.02c.127-.269.351-.48.452-.76a5.02,5.02,0,0,0,.383-.555,6.194,6.194,0,0,1,1-1.167Z" transform="translate(-47.5 -123.202)"/>
    </g>
    <g id="Group_466" data-name="Group 466" transform="translate(8.532 10.302)">
      <path id="Shape-54" data-name="Shape" class="cls-11" d="M83.863,61.238c.118.117.168.283.276.408a.788.788,0,0,0-.222.134,5.686,5.686,0,0,1-.715.494,1.181,1.181,0,0,0-.319-.479l.036-.018A7.28,7.28,0,0,0,83.863,61.238Z" transform="translate(-77.445 -61.238)"/>
      <path id="Shape-55" data-name="Shape" class="cls-11" d="M81.036,64.919c.245-.162.477-.345.723-.505a.573.573,0,0,0,.323.1,3.183,3.183,0,0,0,.428-.114l.1.062c-.245.128-.487.258-.72.405a1.367,1.367,0,0,1-.295.239c-.172.071-.325.18-.495.257-.221.1-.385.3-.618.37-.346.162-.683.343-1.02.52a1.362,1.362,0,0,1,.084-.521l-.021.113a1.422,1.422,0,0,0,.745-.4,8.535,8.535,0,0,1,.768-.525Z" transform="translate(-74.594 -63.872)"/>
      <path id="Shape-56" data-name="Shape" class="cls-11" d="M176.19,81.424c-.035-.05.032-.059.062-.081a.541.541,0,0,0,.548.232,3.843,3.843,0,0,1,.745,0,1.051,1.051,0,0,0,.032.854.936.936,0,0,0,.479.522.667.667,0,0,0,.547-.137.4.4,0,0,0,.208-.327c.015-.3-.206-.531-.341-.778.074,0,.15,0,.225,0,.249.121.393.369.588.552a7.963,7.963,0,0,1,.619.888,11.622,11.622,0,0,1,.515,1.1,4.61,4.61,0,0,1,.321,1.044,4.037,4.037,0,0,1,.166,1.536c-.1.03-.083.132-.071.214l.15.081c-.05.135-.1.272-.159.4a3.06,3.06,0,0,1-.511.357,1.678,1.678,0,0,1-1.124.361,2.033,2.033,0,0,0-.177-.894c-.127-.306-.157-.642-.288-.946a13.336,13.336,0,0,0-.46-1.337c-.123-.314-.208-.644-.348-.952a7.2,7.2,0,0,0-.366-.895,6.831,6.831,0,0,0-.4-.605c0-.062-.009-.125-.01-.187-.1-.133-.2-.269-.312-.4C176.619,81.827,176.382,81.648,176.19,81.424Zm2.589,2.227c-.031.073-.061.145-.1.216a1.4,1.4,0,0,0,.043.6,1.648,1.648,0,0,0,.383.74.635.635,0,0,0,.56.152,1.264,1.264,0,0,0,.408-.476,3.388,3.388,0,0,0-.358-.785.707.707,0,0,0-.439-.339.374.374,0,0,0-.5-.1Zm1.008,2.5a.529.529,0,0,0-.237.22,1.133,1.133,0,0,0-.1.961c.055.223.225.484.486.45a.811.811,0,0,0,.514-.219.661.661,0,0,0,.151-.6c-.043-.168.028-.38-.128-.5A1.052,1.052,0,0,0,179.788,86.147Z" transform="translate(-155.128 -77.979)"/>
      <path id="Shape-57" data-name="Shape" class="cls-11" d="M52.186,135.292c.179-.01.355-.056.533-.077.261-.023.523-.01.785-.009.334.012.664.085,1,.1a1.873,1.873,0,0,1,.8.314c.385.237.818.385,1.184.652a4.666,4.666,0,0,1,.866.718,6.7,6.7,0,0,1,.719.773,5.727,5.727,0,0,1,.469.836c.083.194.155.394.224.594a4.3,4.3,0,0,1,.208.977c.014.1-.063.178-.117.253-.169.208-.339.415-.5.634s-.331.4-.474.61l-.07-.022a.664.664,0,0,0-.5-.315,1.109,1.109,0,0,0-.743.264,1.628,1.628,0,0,0-.3.869l-.053.121c-.153.048-.312.067-.467.1a2.974,2.974,0,0,1-1.035.132l-.031.007c0-.232-.038-.463-.058-.693a3.932,3.932,0,0,1-.126-.58,3.381,3.381,0,0,0-.262-.723,8.084,8.084,0,0,0-.564-1.013c-.15-.194-.325-.365-.483-.551a3.6,3.6,0,0,0-1.036-.82,5.128,5.128,0,0,0-.75-.289,3.929,3.929,0,0,0-.8-.146c-.075-.022-.149-.046-.224-.067a1.741,1.741,0,0,1,.322-.929,6.685,6.685,0,0,1,.48-.6,1.077,1.077,0,0,1,.3-.3c-.069.151-.015.323-.078.477l.086.048-.005.1a1.376,1.376,0,0,0,.5.4,1.449,1.449,0,0,0,1.014.2c.113-.073.253-.125.316-.255a.929.929,0,0,0,.164-.435,1.076,1.076,0,0,0-.108-.5,1.281,1.281,0,0,0-.579-.348,1.812,1.812,0,0,0-.86,0c.1-.126.231-.226.344-.341.012-.066-.051-.107-.082-.156Zm2.453,2.44a.641.641,0,0,0-.24.6,1.242,1.242,0,0,0,.358.621.294.294,0,0,1,.078.125c.181.125.268.341.438.475a1.883,1.883,0,0,0,.6.291.533.533,0,0,0,.5-.112,1.229,1.229,0,0,0,.37-.612,1.208,1.208,0,0,0-.12-.725,2.242,2.242,0,0,0-.536-.59A1.334,1.334,0,0,0,54.639,137.732Z" transform="translate(-50.384 -122.824)"/>
    </g>
    <path id="Shape-58" data-name="Shape" class="cls-12" d="M.083-.052C.166-.037.078.083.032.018Z" transform="translate(17.42 10.548)"/>
    <path id="Shape-59" data-name="Shape" class="cls-13" d="M.089-.065c.053-.023.087-.005.1.053L.147,0C.089.009.07-.014.089-.065Z" transform="translate(32.282 13.911)"/>
    <g id="Group_467" data-name="Group 467" transform="translate(10.085 14.14)">
      <path id="Shape-60" data-name="Shape" class="cls-14" d="M185.624,84.173a2.927,2.927,0,0,1,.631.8c-.089.033-.2.1-.288.035A.8.8,0,0,1,185.624,84.173Z" transform="translate(-164.532 -84.173)"/>
      <path id="Shape-61" data-name="Shape" class="cls-14" d="M192.859,97.877a1.206,1.206,0,0,1-.269-.983,1.145,1.145,0,0,1,.289.106l-.128,0a2.006,2.006,0,0,1,.443,1.057.8.8,0,0,1-.336-.184Z" transform="translate(-170.321 -94.766)"/>
      <path id="Shape-62" data-name="Shape" class="cls-14" d="M196.982,113.329a.752.752,0,0,1-.066-1.024,1.014,1.014,0,0,1,.209.819C197.116,113.214,197.034,113.267,196.982,113.329Z" transform="translate(-173.804 -107.597)"/>
      <path id="Shape-63" data-name="Shape" class="cls-14" d="M59.663,142.152a1.393,1.393,0,0,1,.419-.427,1.922,1.922,0,0,1,.741.031.377.377,0,0,1,.059.437.4.4,0,0,1-.356.308,1.172,1.172,0,0,1-.566-.146A.768.768,0,0,1,59.663,142.152Z" transform="translate(-59.663 -132.072)"/>
      <path id="Shape-64" data-name="Shape" class="cls-14" d="M76.6,153.547a1.174,1.174,0,0,1,.609-.081,1.873,1.873,0,0,1,.98.66.648.648,0,0,1-.369.645,1.155,1.155,0,0,1-.843-.507.533.533,0,0,0-.289-.215l-.015-.1C76.58,153.856,76.416,153.636,76.6,153.547Z" transform="translate(-73.696 -141.867)"/>
      <path id="Shape-65" data-name="Shape" class="cls-14" d="M86.94,174.47a.773.773,0,0,1,.243-.386,2.113,2.113,0,0,1,.267,1.265,2.592,2.592,0,0,0-.233.231.417.417,0,0,1-.378-.576C86.9,174.831,86.884,174.643,86.94,174.47Z" transform="translate(-82.264 -159.038)"/>
    </g>
    <g id="Group_468" data-name="Group 468" transform="translate(31.434 14.145)">
      <path id="Shape-66" data-name="Shape" class="cls-15" d="M187.228,84.2c.092.02.2.022.264.107a2.111,2.111,0,0,1,.229.388C187.542,84.548,187.4,84.362,187.228,84.2Z" transform="translate(-187.228 -84.204)"/>
      <path id="Shape-67" data-name="Shape" class="cls-15" d="M192.731,96.345a.525.525,0,0,1,.067-.11,1.221,1.221,0,0,1,.525.51,3.275,3.275,0,0,1,.261.532c-.133-.142-.151-.352-.28-.5-.1-.108-.2-.214-.284-.328A1.145,1.145,0,0,0,192.731,96.345Z" transform="translate(-191.81 -94.222)"/>
      <path id="Shape-68" data-name="Shape" class="cls-15" d="M199.5,112.138c.308.128.331.525.234.8l-.063.031a2.873,2.873,0,0,0-.011-.41C199.623,112.415,199.548,112.282,199.5,112.138Z" transform="translate(-197.449 -107.463)"/>
    </g>
    <g id="Group_469" data-name="Group 469" transform="translate(12.486 19.679)">
      <path id="Shape-69" data-name="Shape" class="cls-16" d="M193.1,117.271a2.02,2.02,0,0,1,.177.895,1.692,1.692,0,0,0,1.125-.361,3.089,3.089,0,0,0,.51-.358c-.034.22-.223.359-.306.558a5.138,5.138,0,0,1-.859,1.182,3.649,3.649,0,0,0-.443.37,5.116,5.116,0,0,0-.023-.627c-.054-.305,0-.616-.034-.923A6.066,6.066,0,0,0,193.1,117.271Z" transform="translate(-173.172 -117.271)"/>
      <path id="Shape-70" data-name="Shape" class="cls-16" d="M78.431,159.051a2.861,2.861,0,0,1,.256,1.222,6.715,6.715,0,0,0-.035,1.051c.02.394-.1.776-.117,1.167a4.611,4.611,0,0,1-.092.647c-.082.081-.152.175-.235.254a.863.863,0,0,1-.384.092,2.066,2.066,0,0,1-.742.332,5.625,5.625,0,0,1-.6.144c-.367.052-.74.056-1.105.125-.46.022-.918.085-1.374.14a6.566,6.566,0,0,0,.285-1.052,2.558,2.558,0,0,1,.063-.488l.031-.007a3,3,0,0,0,1.035-.132c.155-.037.314-.056.467-.1l.053-.121a1.258,1.258,0,0,0-.055.531.627.627,0,0,0,.444.494.913.913,0,0,0,.645-.106,1.324,1.324,0,0,0,.508-1.738l.071.023c.142-.215.325-.4.474-.61s.327-.426.5-.634c.053-.076.13-.154.117-.253a4.38,4.38,0,0,0-.208-.979Z" transform="translate(-74.006 -152.058)"/>
    </g>
    <path id="Shape-71" data-name="Shape" class="cls-17" d="M.03.077l.127,0C.165.192.174.3.191.414A1.68,1.68,0,0,0,.03.077Z" transform="translate(31.787 21.687)"/>
    <path id="Path_2112" data-name="Path 2112" class="cls-18" d="M.1.491C.111.3.141.12.148-.067.143.238.2.54.189.846A.887.887,0,0,1,.1.491Z" transform="translate(16.248 22.266)"/>
    <path id="Path_2113" data-name="Path 2113" class="cls-19" d="M142.237,146.851l-1.819.9-.015-6.791L138.8,142.7l-.681,3.907-1.461.813.553-10.99,1.265-.75-.194,7.131a10.284,10.284,0,0,1,1.379-1.807c.131-.131.334-.331.616-.6a1.675,1.675,0,0,1,1.184-.488c.466,0,.742.107.829.325a4.943,4.943,0,0,1,.211,1.661q0,1.3-.131,3.126Zm4.268-.325a4.578,4.578,0,0,1-2.24-.554,2.051,2.051,0,0,1-1.233-1.824,1.993,1.993,0,0,1,.925-1.63,5.054,5.054,0,0,1,1.785-.813,5.139,5.139,0,0,1,1.282-.146,6.154,6.154,0,0,1,1.461.211,2.035,2.035,0,0,1,.8.309,2.9,2.9,0,0,0-1.2-1.2,7.52,7.52,0,0,0-2.125-.765c-.323-.077-.774-.164-1.346-.261l-.325-1.433a5.079,5.079,0,0,1,.795.164,9.211,9.211,0,0,1,3.733,1.742,4.681,4.681,0,0,1,1.606,3.225v2.98l-.778-.1-.017-1.008a3.771,3.771,0,0,1-.892.635A4.719,4.719,0,0,1,146.5,146.527Zm.519-2.672a2.223,2.223,0,0,0-.924.439,1.145,1.145,0,0,0-.438.9q0,.881,1.265.88a2.708,2.708,0,0,0,1.3-.342,1.186,1.186,0,0,0,.763-1.027.97.97,0,0,0-.032-.212q-.179-.7-1.331-.7h-.244A2.556,2.556,0,0,0,147.023,143.854Zm10.5,1.5a7.627,7.627,0,0,1-2.546.879q-.472.1-1.623.278l.291,4.12-1.135.1-.486-5.668-.568-.065-.358-5.048c.616-.238,1.124-.419,1.525-.537a11.44,11.44,0,0,1,3.213-.554q3.36,0,3.361,2.72A4.185,4.185,0,0,1,157.523,145.352Zm-1.752-2.506a.546.546,0,0,0-.178-.017,12.54,12.54,0,0,0-1.51.146c-.25.034-.59.087-1.022.164l.21,2.621c.217-.011.389-.021.519-.032a3.677,3.677,0,0,0,2.468-.847,1.415,1.415,0,0,0,.372-.961A.973.973,0,0,0,155.772,142.846Zm5.581-4.918a1.753,1.753,0,0,1-.973-.261.935.935,0,0,1-.5-.83q0-.406.568-.717a2.005,2.005,0,0,1,1.914-.032.844.844,0,0,1,.536.765.912.912,0,0,1-.52.83A2.069,2.069,0,0,1,161.353,137.928Zm-.795,8.679.081-4.657,2.5-.164.665,4.933Z" transform="translate(-113.683 -112.921)"/>
  </g>
</svg>
