<svg xmlns="http://www.w3.org/2000/svg" viewBox="-3160 -7893 50.365 50">
  <defs>
    <style>
      .cls-1 {
        fill: rgba(34,34,34,0);
      }

      .cls-2 {
        fill: #05a5cd;
      }

      .cls-3, .cls-4 {
        fill: none;
        stroke-miterlimit: 10;
        stroke-width: 2px;
      }

      .cls-3 {
        stroke: #05a5d1;
      }

      .cls-4 {
        stroke: #05a5cd;
      }
    </style>
  </defs>
  <g id="React_Native_logo" data-name="React Native logo" transform="translate(-3160 -7883)">
    <rect id="rect4486" class="cls-1" width="50" height="50" transform="translate(0 -10)"/>
    <circle id="circle4488" class="cls-2" cx="4.181" cy="4.181" r="4.181" transform="translate(22.776 10.788)"/>
    <path id="path4490" class="cls-3" d="M46.677,77.872a46.905,46.905,0,0,1,14.759,2.159c4.737,1.631,7.65,4.1,7.65,6.341,0,2.333-3.087,4.959-8.174,6.644a47.1,47.1,0,0,1-14.235,1.939A46.933,46.933,0,0,1,32.153,93c-4.921-1.682-7.884-4.342-7.884-6.63,0-2.22,2.781-4.673,7.451-6.3A47.318,47.318,0,0,1,46.677,77.872Z" transform="translate(-19.72 -71.403)"/>
    <path id="path4492" class="cls-4" d="M78.5,33.216a46.907,46.907,0,0,1,9.243-11.707c3.779-3.289,7.376-4.577,9.315-3.459,2.021,1.165,2.754,5.151,1.672,10.4a47.1,47.1,0,0,1-5.431,13.3,46.932,46.932,0,0,1-8.948,11.606c-3.915,3.422-7.7,4.661-9.682,3.518-1.923-1.109-2.659-4.743-1.736-9.6A47.315,47.315,0,0,1,78.5,33.216Z" transform="translate(-58.939 -22.472)"/>
    <path id="path4494" class="cls-3" d="M78.553,41.959A46.906,46.906,0,0,1,73.027,28.1c-.962-4.917-.282-8.676,1.655-9.8,2.019-1.169,5.838.187,9.845,3.745A47.1,47.1,0,0,1,93.338,33.4a46.933,46.933,0,0,1,5.586,13.548c1.01,5.1.192,9-1.788,10.145-1.921,1.112-5.437-.065-9.187-3.292a47.318,47.318,0,0,1-9.4-11.843Z" transform="translate(-58.988 -22.669)"/>
  </g>
</svg>
