<svg xmlns="http://www.w3.org/2000/svg" viewBox="4805 -7890 50 49.796">
  <defs>
    <style>
      .cls-1 {
        fill: #fff;
      }

      .cls-2 {
        fill: #f4bd19;
      }

      .cls-3 {
        fill: #3cbeb1;
      }

      .cls-4 {
        fill: #e9478c;
      }

      .cls-5 {
        fill: #2c458f;
      }

      .cls-6 {
        fill: #95c63d;
      }

      .cls-7 {
        fill: #176655;
      }
    </style>
  </defs>
  <g id="elasticsearch" transform="translate(4805 -7890.877)">
    <path id="Path_2229" data-name="Path 2229" class="cls-1" d="M50,26.958a9.839,9.839,0,0,0-6.49-9.265A14.7,14.7,0,0,0,43.755,15,14.1,14.1,0,0,0,18.2,6.754,7.366,7.366,0,0,0,13.633,5.2a7.516,7.516,0,0,0-7.51,7.51,7.985,7.985,0,0,0,.449,2.612A9.856,9.856,0,0,0,6.531,33.9a14.389,14.389,0,0,0-.245,2.694A14.071,14.071,0,0,0,31.8,44.8a7.5,7.5,0,0,0,12.122-5.918,7.985,7.985,0,0,0-.449-2.612A9.987,9.987,0,0,0,50,26.958Z"/>
    <path id="Path_2230" data-name="Path 2230" class="cls-2" d="M91.174,28.653l11.143,5.1,11.265-9.878a12.57,12.57,0,0,0-22.694-9.592L89.011,24l2.163,4.653Z" transform="translate(-71.623 -6.389)"/>
    <path id="Path_2231" data-name="Path 2231" class="cls-3" d="M39.945,129.894a12.988,12.988,0,0,0-.245,2.531,12.629,12.629,0,0,0,23.061,7.1l1.837-9.714-2.49-4.735-11.184-5.1Z" transform="translate(-31.945 -95.834)"/>
    <path id="Path_2232" data-name="Path 2232" class="cls-4" d="M39.022,38.46l7.633,1.8,1.714-8.694A5.941,5.941,0,0,0,44.7,30.338a6.047,6.047,0,0,0-5.674,8.122Z" transform="translate(-31.104 -23.706)"/>
    <path id="Path_2233" data-name="Path 2233" class="cls-5" d="M13.318,81.32A8.424,8.424,0,0,0,12.951,97.2l10.735-9.714-1.959-4.2L13.318,81.32Z" transform="translate(-6.053 -64.729)"/>
    <path id="Path_2234" data-name="Path 2234" class="cls-6" d="M167.784,184.209a5.951,5.951,0,0,0,3.633,1.265,6.053,6.053,0,0,0,6.041-6.041,5.883,5.883,0,0,0-.367-2.082l-7.633-1.8Z" transform="translate(-135.009 -140.557)"/>
    <path id="Path_2235" data-name="Path 2235" class="cls-7" d="M166.477,107.985l8.408,1.959a8.424,8.424,0,0,0,.367-15.877l-11.02,9.633,2.245,4.286Z" transform="translate(-132.15 -74.986)"/>
  </g>
</svg>
