<svg xmlns="http://www.w3.org/2000/svg" viewBox="-2898 4147 24 20">
  <defs>
    <style>
      .cls-1 {
        fill: #de4f4f;
      }
    </style>
  </defs>
  <g id="Heart_liked_" data-name="Heart (liked)" transform="translate(-2898 4109.574)">
    <path id="Path_498" data-name="Path 498" class="cls-1" d="M11.738,41.978s3.991-5.053,7.1-3.619,3.493,2.833,3.493,2.833,1.425,3.532-2.185,6.584-8.41,7.965-8.41,7.965L1.888,46.1s-2.9-4.339.7-6.65,5.2-.938,5.592-.658S11.738,41.978,11.738,41.978Z" transform="translate(0.261 0.225)"/>
    <path id="Path_499" data-name="Path 499" class="cls-1" d="M22.247,39.151a6.075,6.075,0,0,0-8.477,0L12,40.879l-1.77-1.728a6.075,6.075,0,0,0-8.477,0,5.758,5.758,0,0,0,0,8.274L12,57.426l10.247-10A5.758,5.758,0,0,0,22.247,39.151ZM20.78,45.993,12,54.563l-8.781-8.57a3.766,3.766,0,0,1,0-5.411,3.984,3.984,0,0,1,5.544,0L12,43.742l3.237-3.159a3.984,3.984,0,0,1,5.544,0A3.766,3.766,0,0,1,20.78,45.993Z"/>
  </g>
</svg>
