<svg xmlns="http://www.w3.org/2000/svg" viewBox="-3482 -18716 15 11.785">
  <defs>
    <style>
      .cls-1 {
        fill: #1e4ac1;
      }
    </style>
  </defs>
  <g id="Mail_icon" data-name="Mail icon" transform="translate(-3482 -18770.82)">
    <path id="Path_1" data-name="Path 1" class="cls-1" d="M1.44,58.453q.285.2,1.716,1.193t2.193,1.527l.356.255q.272.2.452.318t.435.272a2.525,2.525,0,0,0,.481.226,1.326,1.326,0,0,0,.419.075h.017a1.327,1.327,0,0,0,.419-.075,2.528,2.528,0,0,0,.481-.226q.255-.151.435-.272t.452-.318q.272-.2.356-.255l3.917-2.72a3.976,3.976,0,0,0,1.021-1.03A2.211,2.211,0,0,0,15,56.159a1.351,1.351,0,0,0-1.339-1.339H1.339a1.2,1.2,0,0,0-.992.435A1.69,1.69,0,0,0,0,56.343a1.955,1.955,0,0,0,.46,1.143A4.155,4.155,0,0,0,1.44,58.453Z"/>
    <path id="Path_2" data-name="Path 2" class="cls-1" d="M14.163,185.165q-2.745,1.858-4.168,2.888-.477.351-.774.548a4.779,4.779,0,0,1-.791.4,2.409,2.409,0,0,1-.921.205H7.492A2.409,2.409,0,0,1,6.571,189a4.781,4.781,0,0,1-.791-.4q-.3-.2-.774-.548-1.13-.829-4.16-2.888A4.434,4.434,0,0,1,0,184.437v6.646a1.289,1.289,0,0,0,.393.946,1.289,1.289,0,0,0,.946.394H13.661A1.343,1.343,0,0,0,15,191.083v-6.646A4.616,4.616,0,0,1,14.163,185.165Z" transform="translate(0 -125.817)"/>
  </g>
</svg>
