<svg xmlns="http://www.w3.org/2000/svg" viewBox="297 -7891 50 49.025">
  <defs>
    <style>
      .cls-1 {
        fill: #df4f4f;
      }
    </style>
  </defs>
  <g id="meteor-icon" transform="translate(296.561 -7891.438)">
    <path id="Path_2114" data-name="Path 2114" class="cls-1" d="M.439.438l42.82,45.357a2,2,0,0,0,2.574-.172,1.9,1.9,0,0,0,.257-2.4L.439.438ZM14,4.725,46.606,39.879a2,2,0,0,0,2.574-.171,1.9,1.9,0,0,0,.257-2.4ZM4.472,13.9,37.08,49.053a2,2,0,0,0,2.574-.172,1.9,1.9,0,0,0,.257-2.4ZM25.459,8.412,48.24,32.972a1.4,1.4,0,0,0,1.8-.12,1.328,1.328,0,0,0,.18-1.677L25.459,8.412ZM7.61,24.531l22.781,24.56a1.4,1.4,0,0,0,1.8-.12,1.327,1.327,0,0,0,.18-1.677Zm29.556-10.8L47.492,24.893a.72.72,0,0,0,.89-.056.6.6,0,0,0,.089-.786ZM13.311,35.849,23.636,47.014a.72.72,0,0,0,.89-.056.6.6,0,0,0,.089-.786Z" transform="translate(0 0)"/>
  </g>
</svg>
