<svg xmlns="http://www.w3.org/2000/svg" viewBox="-1345 -7889 50 48.831"><defs><style>.cls-1{fill:#9e61ad}.cls-2{fill:#8255a3}.cls-3{fill:#cd0f7e}.cls-4{fill:#a70d6f}.cls-5{fill:#88519f}.cls-6{fill:url(#linear-gradient)}.cls-7{fill:#714896}.cls-8{fill:#6f4795}.cls-9{fill:#76357e}.cls-10{fill:#9c60ad}</style><linearGradient id="linear-gradient" x1=".539" y1="1.003" x2=".53" y2=".005" gradientUnits="objectBoundingBox"><stop offset="0" stop-color="#704794"/><stop offset="1" stop-color="#e92888"/></linearGradient></defs><g id="Aurelia_logo" data-name="Aurelia logo" transform="translate(-2285.856 -8142.481)"><path id="Rectangle_115" data-name="Rectangle 115" class="cls-1" transform="rotate(54.97 219.559 1040.816)" d="M0 0h3.816v3.816H0z"/><path id="Rectangle_116" data-name="Rectangle 116" class="cls-2" transform="rotate(-125.03 559.576 -99.099)" d="M0 0h8.905v8.905H0z"/><path id="Rectangle_118" data-name="Rectangle 118" class="cls-3" transform="rotate(54.97 234.527 1045.912)" d="M0 0h16.538v12.721H0z"/><path id="Rectangle_119" data-name="Rectangle 119" class="cls-4" transform="rotate(54.97 223.856 1057.445)" d="M0 0h2.544v8.905H0z"/><path id="Rectangle_120" data-name="Rectangle 120" class="cls-1" transform="rotate(54.97 238.29 1058.47)" d="M0 0h8.905v6.361H0z"/><path id="Rectangle_121" data-name="Rectangle 121" class="cls-5" transform="rotate(54.97 232.662 1063.308)" d="M0 0h2.544v3.816H0z"/><path id="Rectangle_122" data-name="Rectangle 122" class="cls-6" transform="rotate(56 247.136 1053.086)" d="M0 0h13.993v49.613H0z"/><path id="Rectangle_123" data-name="Rectangle 123" class="cls-7" transform="rotate(-125.03 557.39 -102.662)" d="M0 0h2.544v5.089H0z"/><path id="Rectangle_124" data-name="Rectangle 124" class="cls-2" transform="rotate(-125.03 555.15 -98.49)" d="M0 0h2.544v2.544H0z"/><path id="Rectangle_125" data-name="Rectangle 125" class="cls-2" transform="rotate(-125.03 566.748 -111.72)" d="M0 0h8.905v8.905H0z"/><path id="Rectangle_126" data-name="Rectangle 126" class="cls-8" transform="rotate(-125.03 563.569 -113.377)" d="M0 0h2.544v2.544H0z"/><path id="Rectangle_127" data-name="Rectangle 127" class="cls-9" transform="rotate(-125.03 566.19 -102.609)" d="M0 0h16.538v11.449H0z"/><path id="Rectangle_128" data-name="Rectangle 128" class="cls-10" transform="rotate(-125.03 546.318 -105.94)" d="M0 0h8.905v8.905H0z"/><path id="Rectangle_129" data-name="Rectangle 129" class="cls-5" transform="rotate(-125.03 547.312 -107.848)" d="M0 0h3.816v5.089H0z"/></g></svg>