<svg xmlns="http://www.w3.org/2000/svg" viewBox="-2986 -7892 50 47.728">
  <defs>
    <style>
      .cls-1 {
        fill: #444;
      }
    </style>
  </defs>
  <path id="cordova" class="cls-1" d="M45.454,47.727h-8.1l.568-6.818H33.949l-.568,6.818H16.619l-.568-6.818H12.074l.568,6.818h-8.1L0,18.182,11.364,0H38.636L50,18.182ZM36.364,9.091H29.058l.487,3.409H20.454l.487-3.409H13.636L9.091,18.182l2.273,18.182H38.636l2.273-18.182L36.364,9.091ZM32.386,30.329c-.628,0-1.136-1.893-1.136-4.227s.509-4.227,1.136-4.227,1.136,1.893,1.136,4.227S33.014,30.329,32.386,30.329Zm-14.346.352c-.628,0-1.137-1.893-1.137-4.227s.509-4.227,1.137-4.227,1.136,1.893,1.136,4.227S18.667,30.682,18.04,30.682Z" transform="translate(-2986 -7892)"/>
</svg>
