<svg xmlns="http://www.w3.org/2000/svg" viewBox="4097 -7898.999 65 65.002">
  <defs>
    <style>
      .cls-1 {
        fill: #3f95de;
      }
    </style>
  </defs>
  <g id="Rest" transform="translate(4102.5 -7893)">
    <path id="Subtraction_15" data-name="Subtraction 15" class="cls-1" d="M-4242.039,11165a32.134,32.134,0,0,1-3.744-.219,1.807,1.807,0,0,1-1.6-1.9,7.216,7.216,0,0,0-4.4-7.058,6.757,6.757,0,0,0-2.619-.507,7.463,7.463,0,0,0-5.485,2.333,1.81,1.81,0,0,1-1.341.6,1.8,1.8,0,0,1-1.13-.4,32.246,32.246,0,0,1-5.142-5.2,1.813,1.813,0,0,1,.2-2.449,7.226,7.226,0,0,0,1.818-8.036,7.164,7.164,0,0,0-6.524-4.457l-.165,0a2.157,2.157,0,0,1-2.129-1.6,32.426,32.426,0,0,1,.014-7.392,1.752,1.752,0,0,1,1.8-1.595,7.573,7.573,0,0,0,7.143-4.4,7.194,7.194,0,0,0-1.816-8.106,1.809,1.809,0,0,1-.193-2.472,32.462,32.462,0,0,1,5.257-5.2,1.8,1.8,0,0,1,1.114-.382,1.812,1.812,0,0,1,1.338.592,7.48,7.48,0,0,0,5.48,2.316,6.769,6.769,0,0,0,2.567-.484,7.235,7.235,0,0,0,4.45-6.935,1.818,1.818,0,0,1,1.608-1.86,32.511,32.511,0,0,1,3.564-.2,32.729,32.729,0,0,1,3.749.216,1.805,1.805,0,0,1,1.594,1.9,7.216,7.216,0,0,0,4.391,7.056,6.8,6.8,0,0,0,2.625.507,7.444,7.444,0,0,0,5.479-2.328,1.815,1.815,0,0,1,1.343-.595,1.811,1.811,0,0,1,1.128.4,32.025,32.025,0,0,1,5.147,5.2,1.812,1.812,0,0,1-.2,2.451,7.239,7.239,0,0,0-1.819,8.037,7.222,7.222,0,0,0,6.731,4.455,2.132,2.132,0,0,1,2.09,1.6,32.619,32.619,0,0,1-.014,7.392,1.82,1.82,0,0,1-1.767,1.6c-.045,0-.09,0-.136-.006l-.4-.009a7.282,7.282,0,0,0-6.649,4.405,7.2,7.2,0,0,0,1.821,8.106,1.808,1.808,0,0,1,.2,2.472,32.428,32.428,0,0,1-5.259,5.2,1.807,1.807,0,0,1-1.116.383,1.822,1.822,0,0,1-1.336-.587,7.481,7.481,0,0,0-5.478-2.319,6.8,6.8,0,0,0-2.572.486,7.229,7.229,0,0,0-4.447,6.933,1.814,1.814,0,0,1-1.608,1.86A32.646,32.646,0,0,1-4242.039,11165Zm6.635-23.237.13.007.156.007a6.653,6.653,0,0,0,6.618-6.672,6.653,6.653,0,0,0-6.618-6.672c-.087,0-.174,0-.26.011l-.141.009a6.623,6.623,0,0,0-6.5-5.455,6.652,6.652,0,0,0-6.616,6.672c0,.073,0,.145.009.216a6.029,6.029,0,0,0-5.871,5.982,5.886,5.886,0,0,0,5.522,5.893l.132,0,.208.012.125-.007,13.109,0Z" transform="translate(4269 -11106.001)"/>
  </g>
</svg>
