<svg xmlns="http://www.w3.org/2000/svg" viewBox="-3401 6607 20 11.865">
  <defs>
    <style>
      .cls-1 {
        fill: #fff;
      }
    </style>
  </defs>
  <g id="Eye_icon" data-name="Eye icon" transform="translate(-3401 6607)">
    <path id="Path_7007" data-name="Path 7007" class="cls-1" d="M19.643,21.905C19.468,21.682,15.3,16.43,10,16.43S.532,21.682.357,21.905L0,22.363l.357.457C.532,23.043,4.7,28.3,10,28.3s9.468-5.252,9.643-5.476L20,22.363ZM10,26.81c-3.73,0-6.986-3.229-8.081-4.448,1.1-1.218,4.351-4.447,8.081-4.447s6.985,3.229,8.08,4.447C16.985,23.581,13.729,26.81,10,26.81Z" transform="translate(0 -16.43)"/>
    <path id="Path_7008" data-name="Path 7008" class="cls-1" d="M28.045,23.983a4.064,4.064,0,1,0,4.064,4.063A4.068,4.068,0,0,0,28.045,23.983Zm0,6.642a2.578,2.578,0,1,1,2.578-2.579A2.581,2.581,0,0,1,28.045,30.625Z" transform="translate(-18.045 -22.113)"/>
  </g>
</svg>
