<svg xmlns="http://www.w3.org/2000/svg" viewBox="2287 -7888 50 49.081">
  <defs>
    <style>
      .cls-1 {
        fill: #00546b;
      }
    </style>
  </defs>
  <g id="Mysql-dolphin-square" transform="translate(2650.946 -7888)">
    <path id="path16" class="cls-1" d="M-317.891,37.961a15.742,15.742,0,0,0-6.6.952c-.51.2-1.326.2-1.394.85.272.272.306.714.544,1.088a7.967,7.967,0,0,0,1.768,2.075c.714.544,1.428,1.088,2.176,1.564,1.326.816,2.823,1.292,4.115,2.108.748.476,1.5,1.088,2.244,1.6.374.272.612.714,1.088.884v-.1c-.238-.306-.306-.748-.544-1.088-.34-.34-.68-.646-1.02-.986a16.131,16.131,0,0,0-3.537-3.435c-1.088-.748-3.469-1.768-3.911-3.027l-.068-.068a13.815,13.815,0,0,0,2.347-.544c1.156-.306,2.21-.238,3.4-.544.544-.136,1.088-.306,1.632-.476v-.306c-.612-.612-1.054-1.428-1.7-2.006a45.328,45.328,0,0,0-5.611-4.183c-1.054-.68-2.415-1.122-3.537-1.7-.408-.2-1.088-.306-1.326-.646a13.731,13.731,0,0,1-1.394-2.619c-.986-1.871-1.938-3.945-2.789-5.917a36.2,36.2,0,0,0-1.734-3.877A34.274,34.274,0,0,0-346.9,4.839a16.344,16.344,0,0,0-4.353-1.394c-.85-.034-1.7-.1-2.551-.136a13.539,13.539,0,0,1-1.564-1.19c-1.938-1.224-6.937-3.877-8.366-.374-.918,2.21,1.36,4.387,2.142,5.509a16.03,16.03,0,0,1,1.734,2.55c.238.578.306,1.19.544,1.8a40.813,40.813,0,0,0,1.768,4.557,16.424,16.424,0,0,0,1.258,2.108c.272.374.748.544.85,1.156a9.735,9.735,0,0,0-.782,2.55c-1.224,3.843-.748,8.6.986,11.426.544.85,1.836,2.721,3.571,2.006,1.53-.612,1.19-2.55,1.632-4.251.1-.408.034-.68.238-.952,0,.034,0,.068,0,.068.476.952.952,1.87,1.394,2.822a19.418,19.418,0,0,0,4.421,4.557c.816.612,1.462,1.666,2.483,2.04v-.1h-.068a3.754,3.754,0,0,0-.782-.68,16.51,16.51,0,0,1-1.768-2.04,43.75,43.75,0,0,1-3.809-6.189c-.544-1.054-1.02-2.21-1.462-3.265-.2-.408-.2-1.02-.544-1.224a12.8,12.8,0,0,0-1.632,2.312,19.179,19.179,0,0,0-.952,5.135c-.136.034-.068,0-.136.068-1.088-.272-1.462-1.394-1.87-2.347a14.709,14.709,0,0,1-.306-9.08c.238-.714,1.258-2.959.85-3.639-.2-.646-.884-1.02-1.258-1.53a13.7,13.7,0,0,1-1.224-2.176c-.816-1.9-1.224-4.013-2.108-5.917a18.11,18.11,0,0,0-1.7-2.618,16.832,16.832,0,0,1-1.87-2.653c-.17-.374-.408-.986-.136-1.394a.542.542,0,0,1,.476-.442c.442-.374,1.7.1,2.142.306a17.34,17.34,0,0,1,3.367,1.7c.476.34.986.986,1.6,1.156h.714c1.088.238,2.312.068,3.333.374a21.733,21.733,0,0,1,4.9,2.347,30.17,30.17,0,0,1,10.61,11.63c.408.782.578,1.5.952,2.312.714,1.666,1.6,3.367,2.312,5a22.36,22.36,0,0,0,2.414,4.557c.51.714,2.551,1.088,3.469,1.462a24.124,24.124,0,0,1,2.347.952c1.156.714,2.312,1.53,3.4,2.312.544.408,2.244,1.258,2.346,1.938Z" transform="translate(0 0)"/>
    <path id="path18" class="cls-1" d="M-249.929,94.951a5.383,5.383,0,0,0-1.394.17v.068h.068a10.948,10.948,0,0,0,1.088,1.394c.272.544.51,1.088.782,1.632l.068-.068a1.918,1.918,0,0,0,.714-1.7,7.613,7.613,0,0,1-.408-.714c-.2-.34-.646-.51-.918-.782Z" transform="translate(-102.649 -86.542)"/>
  </g>
</svg>
