<svg xmlns="http://www.w3.org/2000/svg" viewBox="-3496.503 -17222.547 54.003 60.73">
  <defs>
    <style>
      .cls-1 {
        fill: none;
        stroke: #3755cd;
        stroke-width: 4px;
      }
    </style>
  </defs>
  <path id="Node_JS_logo" data-name="Node JS logo" class="cls-1" d="M547.644,612.313c1.62-1.024,22.346-12.545,22.346-12.545a3.387,3.387,0,0,1,2.937-.1l21.864,12.789s1.273-.055,1.273,2.246V642.78c0,.612-.413,1.023-1.294,1.516s-20.345,10.737-21.7,11.364a2.739,2.739,0,0,1-2.927.071c-4.386-2.187-21.6-10.778-22.781-11.458a2.941,2.941,0,0,1-1.3-2.508V614.9A3.182,3.182,0,0,1,547.644,612.313Z" transform="translate(-4040.563 -17819.876)"/>
</svg>
