<svg xmlns="http://www.w3.org/2000/svg" viewBox="-1695.076 -7889.509 54.038 48.765">
  <defs>
    <style>
      .cls-1 {
        fill: none;
        stroke: #764abc;
        stroke-width: 3px;
      }

      .cls-2 {
        fill: #764abc;
      }
    </style>
  </defs>
  <g id="Redux_icon" data-name="Redux icon" transform="translate(-2631.087 -8142.083)">
    <path id="Path_345" data-name="Path 345" class="cls-1" d="M971.639,266.495s-2.335-13.712-11.083-12.312c-4.024.644-5.828,1.794-7.554,3.762a17.759,17.759,0,0,0-2.547,4.174,24.718,24.718,0,0,0,1.959,19.677" transform="translate(2.212 0)"/>
    <path id="Path_346" data-name="Path 346" class="cls-1" d="M22.383,12.412S20.048-1.3,11.3.1C7.276.745,5.472,1.895,3.745,3.862A17.759,17.759,0,0,0,1.2,8.036,24.718,24.718,0,0,0,3.157,27.714" transform="translate(988.087 277.131) rotate(112)"/>
    <path id="Path_347" data-name="Path 347" class="cls-1" d="M21.757,10.936S20.048-1.289,11.3.112C7.276.756,5.472,1.906,3.745,3.874A17.759,17.759,0,0,0,1.2,8.048,24.718,24.718,0,0,0,3.157,27.725" transform="translate(949.936 299.255) rotate(-123)"/>
    <ellipse id="Ellipse_14" data-name="Ellipse 14" class="cls-2" cx="3.594" cy="3.594" rx="3.594" ry="3.594" transform="translate(957.152 265.964)"/>
    <ellipse id="Ellipse_15" data-name="Ellipse 15" class="cls-2" cx="3.594" cy="3.594" rx="3.594" ry="3.594" transform="translate(967.935 277.945)"/>
    <ellipse id="Ellipse_16" data-name="Ellipse 16" class="cls-2" cx="3.594" cy="3.594" rx="3.594" ry="3.594" transform="translate(951.162 279.143)"/>
  </g>
</svg>
