<svg xmlns="http://www.w3.org/2000/svg" viewBox="-3945 -18719 15 18">
  <defs>
    <style>
      .cls-1 {
        fill: #1e4ac1;
      }
    </style>
  </defs>
  <g id="Pin_icon" data-name="Pin icon" transform="translate(-3994.299 -18719)">
    <path id="Path_29" data-name="Path 29" class="cls-1" d="M56.532,0a7.394,7.394,0,0,0-7.2,6.477,6.921,6.921,0,0,0,.1,2.063h0s.012.078.05.225a6.989,6.989,0,0,0,.5,1.425,20.937,20.937,0,0,0,6.391,7.662.674.674,0,0,0,.833,0,20.916,20.916,0,0,0,6.4-7.665,6.693,6.693,0,0,0,.5-1.425c.035-.144.05-.225.05-.225h0A6.922,6.922,0,0,0,64.3,7.179,7.356,7.356,0,0,0,56.532,0ZM56.8,10.752a3.567,3.567,0,0,1-3.643-3.488,3.646,3.646,0,0,1,7.286,0A3.567,3.567,0,0,1,56.8,10.752Z" transform="translate(0 0)"/>
  </g>
</svg>
