<svg xmlns="http://www.w3.org/2000/svg" viewBox="4452 -7893 50 56.18">
  <defs>
    <style>
      .cls-1 {
        fill: #e10098;
      }
    </style>
  </defs>
  <g id="Graphql" transform="translate(4426.26 -7897.2)">
    <path id="Path_2236" data-name="Path 2236" class="cls-1" d="M45.154,57.965l-2.062-1.191L66.068,16.98l2.062,1.191Z" transform="translate(-14.863 -10.947)"/>
    <path id="Path_2237" data-name="Path 2237" class="cls-1" d="M39.8,272.2H85.751v2.382H39.8Z" transform="translate(-12.043 -229.552)"/>
    <path id="Path_2238" data-name="Path 2238" class="cls-1" d="M69.122,75.99,46.138,62.72l1.191-2.062,22.984,13.27ZM89.089,41.4,66.1,28.133,67.3,26.071,90.28,39.341Z" transform="translate(-17.472 -18.733)"/>
    <path id="Path_2239" data-name="Path 2239" class="cls-1" d="M47.373,41.341l-1.191-2.062,22.984-13.27,1.191,2.062Z" transform="translate(-17.509 -18.679)"/>
    <path id="Path_2240" data-name="Path 2240" class="cls-1" d="M94.114,57.968,71.139,18.174,73.2,16.983,96.177,56.777Zm-41.614-28h2.381V56.51H52.5Zm39.94,0h2.382V56.51H92.44Z" transform="translate(-22.921 -10.949)"/>
    <path id="Path_2241" data-name="Path 2241" class="cls-1" d="M197.312,287.335l-1.04-1.8,19.99-11.542,1.04,1.8Z" transform="translate(-146.067 -231.087)"/>
    <path id="Path_2242" data-name="Path 2242" class="cls-1" d="M75.057,46.335a5.01,5.01,0,1,1-1.836-6.843,5.015,5.015,0,0,1,1.836,6.843M35.088,23.252a5.01,5.01,0,1,1-1.836-6.843,5.015,5.015,0,0,1,1.836,6.843M26.423,46.335a5.01,5.01,0,1,1,6.843,1.836,5.018,5.018,0,0,1-6.843-1.836M66.392,23.252a5.01,5.01,0,1,1,6.843,1.836,5.018,5.018,0,0,1-6.843-1.836M50.74,60.38a5.007,5.007,0,1,1,5.007-5.007A5,5,0,0,1,50.74,60.38m0-46.167a5.007,5.007,0,1,1,5.007-5.007,5,5,0,0,1-5.007,5.007" transform="translate(0)"/>
  </g>
</svg>
