<svg xmlns="http://www.w3.org/2000/svg" viewBox="-3856 -7895 50 54.662">
  <defs>
    <style>
      .cls-1 {
        fill: #010101;
      }
    </style>
  </defs>
  <g id="PhoneGap" transform="translate(-4601 -8067)">
    <path id="PhoneGap-2" data-name="PhoneGap" class="cls-1" d="M69.35,90.258,67.4,90.4c0,.386.018.7.018.931.053,2.423,1.422,2.933,2.564,2.933a1.768,1.768,0,0,0,.263-.018h.035l3.249-.316a3.071,3.071,0,0,0,.14-.667s-.439-20.459-.544-23.041a2.768,2.768,0,0,0-.421-1.4c-1.194-.088-2.265-.176-3.073-.246l-.369-.018a2,2,0,0,0-2.3,2.178v.035c0,.035.018.58.035,1.458,1.581.088,2.74.158,2.74.158a2.458,2.458,0,0,1,1.9,2.248c.088,2.02.07,13.382.07,13.382S71.914,89.854,69.35,90.258Zm-6.234.439-3.266.246a2.4,2.4,0,0,1-2.757-2.582c-.035-2.178-.316-14.488-.316-14.488s-.193-2.283,2.582-2.09c.825.053,2.072.123,3.407.211-.035-2.037-.07-3.811-.088-5.181-1.739-.123-3.424-.263-4.566-.386-3.653-.4-3.424,2.669-3.424,2.669s.439,22.6.527,25.359c.105,3.3,3.653,2.757,3.653,2.757l4.39-.474C63.2,95.105,63.169,93.033,63.116,90.7Zm39.092-28.01a5.363,5.363,0,0,0-3.881-5.128S85.437,55.61,79.8,54.907c-5.655-.7-5.3,4.759-5.3,4.759s1.282,39.9,1.422,44.834c.158,5.883,5.637,4.952,5.637,4.952l19.423-3.354c3.53-.7,3.705-5.11,3.705-5.11S102.4,67.288,102.208,62.687ZM97.87,96.563,83.435,98.055s-4.2.632-4.3-4.461c-.07-3.758-.9-25.323-.9-25.323s-.281-3.951,4.039-3.635c4.408.334,15,1.124,15,1.124a4.062,4.062,0,0,1,2.95,3.9c.14,3.512,1.352,23.005,1.352,23.005s.316,3.214-3.705,3.9ZM83.347,97.3l5.567-.58c-.263-5.672-1.247-27.694-1.387-30.89v-.053c-2.037-.158-3.969-.3-5.321-.4a3.672,3.672,0,0,0-.439-.018,2.728,2.728,0,0,0-2.09.738,3.039,3.039,0,0,0-.685,2.09V68.2c0,.018,0,.14.018.334,2.265.193,3.969.351,3.969.351a3.39,3.39,0,0,1,2.546,3.2c.105,2.88.808,18.475.808,18.475s.281,2.634-3.2,3.2l-3.231.316c.228,2.652,1.774,3.231,3.073,3.231a2.471,2.471,0,0,0,.316-.018.136.136,0,0,0,.053.018Zm-8.5-2.722-4.5.421s-3.635.527-3.705-3.653c-.053-3.091-.421-20.564-.421-20.564s-.246-3.231,3.477-2.968c1.089.07,2.652.211,4.3.334-.105-3.319-.193-5.971-.228-7.358-2.178-.211-4.267-.421-5.778-.6-4.917-.562-4.619,3.793-4.619,3.793s.58,32.067.7,36c.14,4.689,4.917,3.934,4.917,3.934l6.111-.773C75.058,101.287,74.97,98.231,74.847,94.578Z" transform="translate(690.316 117.155)"/>
  </g>
</svg>
