<svg xmlns="http://www.w3.org/2000/svg" viewBox="2461.817 -7890.426 52.792 54.322">
  <defs>
    <style>
      .cls-1 {
        stroke: #000;
        stroke-width: 5px;
      }

      .cls-2 {
        fill: #336791;
      }

      .cls-3 {
        fill: none;
        stroke-linecap: round;
      }

      .cls-3, .cls-4 {
        stroke: #fff;
        stroke-width: 2px;
      }

      .cls-4 {
        fill: #fff;
      }
    </style>
  </defs>
  <g id="Postgresql_elephant" transform="translate(2462 -7906.076)">
    <path id="Path_2161" data-name="Path 2161" class="cls-1" d="M55.942,55.624c.342-2.852.24-3.271,2.364-2.809l.539.047a12.291,12.291,0,0,0,5.026-.846c2.7-1.254,4.305-3.348,1.64-2.8-6.079,1.254-6.5-.8-6.5-.8,6.419-9.524,9.1-21.614,6.786-24.574-6.317-8.072-17.253-4.255-17.436-4.156l-.058.011a21.669,21.669,0,0,0-4.055-.423A10.018,10.018,0,0,0,37.831,21.2S18.323,13.159,19.231,31.3c.193,3.86,5.533,29.207,11.9,21.551,2.328-2.8,4.577-5.167,4.577-5.167a5.9,5.9,0,0,0,3.857.985l.108-.092a4.228,4.228,0,0,0,.043,1.09c-1.64,1.833-1.158,2.155-4.438,2.83-3.318.684-1.369,1.9-.1,2.22a6.743,6.743,0,0,0,7.526-2.444l-.1.385c.644.515.6,3.7.691,5.977a21.511,21.511,0,0,0,.708,5.653c.464,1.252,1.011,4.478,5.322,3.554,3.6-.772,6.357-1.883,6.608-12.22" transform="translate(-16.879 -0.546)"/>
    <path id="Path_2162" data-name="Path 2162" class="cls-2" d="M65.509,49.218c-6.08,1.254-6.5-.8-6.5-.8,6.419-9.525,9.1-21.615,6.787-24.574-6.317-8.072-17.253-4.254-17.436-4.155l-.059.011a21.681,21.681,0,0,0-4.056-.423,10.018,10.018,0,0,0-6.421,1.922S18.318,13.157,19.226,31.3c.193,3.86,5.533,29.207,11.9,21.551,2.328-2.8,4.577-5.167,4.577-5.167a5.9,5.9,0,0,0,3.856.985l.109-.092a4.25,4.25,0,0,0,.044,1.09c-1.641,1.833-1.159,2.155-4.438,2.83-3.319.684-1.369,1.9-.1,2.22A6.742,6.742,0,0,0,42.7,52.274l-.1.385c.643.515,1.094,3.349,1.019,5.918s-.126,4.333.38,5.711,1.011,4.478,5.323,3.554c3.6-.772,5.47-2.773,5.729-6.11.184-2.373.6-2.022.628-4.143l.335-1c.386-3.216.061-4.254,2.281-3.771l.539.047a12.291,12.291,0,0,0,5.027-.846c2.7-1.254,4.3-3.348,1.64-2.8Z" transform="translate(-16.875 -0.545)"/>
    <path id="Path_2163" data-name="Path 2163" class="cls-3" d="M215.46,286.484c-.167,5.985.042,12.011.628,13.475s1.84,4.313,6.152,3.39c3.6-.772,4.913-2.267,5.482-5.566.419-2.427,1.227-9.168,1.33-10.549" transform="translate(-189.371 -235.968)"/>
    <path id="Path_2164" data-name="Path 2164" class="cls-3" d="M37.483,25.548S17.961,17.569,18.869,35.713c.193,3.86,5.533,29.208,11.9,21.551,2.327-2.8,4.432-5,4.432-5" transform="translate(-16.561 -5.033)"/>
    <path id="Path_2165" data-name="Path 2165" class="cls-3" d="M260.142,19.059c-.676.212,10.859-4.217,17.414,4.16,2.316,2.959-.368,15.049-6.787,24.575" transform="translate(-228.676 0)"/>
    <path id="Path_2166" data-name="Path 2166" class="cls-3" d="M158.071,51.961s.418,2.059,6.5.8c2.664-.55,1.061,1.544-1.641,2.8-2.217,1.029-7.188,1.293-7.269-.129-.209-3.669,2.616-2.554,2.412-3.473-.184-.828-1.448-1.64-2.284-3.667-.73-1.769-10.007-15.331,2.573-13.317.461-.1-3.281-11.965-15.054-12.158s-11.384,14.475-11.384,14.475" transform="translate(-115.977 -4.168)"/>
    <path id="Path_2167" data-name="Path 2167" class="cls-3" d="M142.972,269.437c-1.641,1.833-1.158,2.155-4.438,2.83-3.319.684-1.369,1.9-.1,2.22a6.741,6.741,0,0,0,7.526-2.445,2.252,2.252,0,0,0-1.013-3.088A1.49,1.49,0,0,0,142.972,269.437Z" transform="translate(-120.178 -220.389)"/>
    <path id="Path_2168" data-name="Path 2168" class="cls-3" d="M137.2,142.01a8.672,8.672,0,0,1,.911-3.861c.837-2.251,2.767-4.5,1.223-11.644-1.151-5.321-8.871-1.107-8.876-.386a36.22,36.22,0,0,1-.129,7.076c-.624,4.461,2.839,8.234,6.826,7.848" transform="translate(-114.517 -92.994)"/>
    <path id="Path_2169" data-name="Path 2169" class="cls-4" d="M172.5,139.416c-.035.246.451.9,1.085.992a1.168,1.168,0,0,0,1.208-.672c.034-.246-.451-.518-1.085-.606s-1.175.04-1.208.286Z" transform="translate(-151.654 -106.399)"/>
    <path id="Path_2170" data-name="Path 2170" class="cls-4" d="M315.242,135.26c.034.246-.451.9-1.085.992a1.17,1.17,0,0,1-1.209-.672c-.033-.246.452-.518,1.085-.606s1.175.04,1.209.286Z" transform="translate(-275.123 -102.744)"/>
    <path id="Path_2171" data-name="Path 2171" class="cls-3" d="M340.848,123.432c.1,1.933-.416,3.25-.482,5.307-.1,2.991,1.426,6.415-.869,9.842" transform="translate(-298.465 -92.622)"/>
    <path id="Path_2172" data-name="Path 2172" class="cls-3" d="M0,60.232" transform="translate(0 -37.061)"/>
  </g>
</svg>
