<svg xmlns="http://www.w3.org/2000/svg" viewBox="-3437.977 2638 20 16.667">
  <defs>
    <style>
      .cls-1 {
        fill: #566483;
      }
    </style>
  </defs>
  <g id="Heart" transform="translate(-3437.977 2638)">
    <path id="Path_443" data-name="Path 443" class="cls-1" d="M18.539,38.864a5.063,5.063,0,0,0-7.064,0L10,40.3l-1.475-1.44a5.063,5.063,0,0,0-7.064,0,4.8,4.8,0,0,0,0,6.895L10,54.093l8.539-8.335A4.8,4.8,0,0,0,18.539,38.864Zm-1.222,5.7L10,51.707,2.682,44.565a3.138,3.138,0,0,1,0-4.509,3.32,3.32,0,0,1,4.62,0L10,42.689l2.7-2.633a3.32,3.32,0,0,1,4.62,0A3.138,3.138,0,0,1,17.317,44.565Z" transform="translate(0.001 -37.426)"/>
  </g>
</svg>
