<svg xmlns="http://www.w3.org/2000/svg" viewBox="129 -17230 60 76.26">
  <defs>
    <style>
      .cls-1 {
        fill: #4b4b4b;
      }
    </style>
  </defs>
  <path id="Apple_logo" data-name="Apple logo" class="cls-1" d="M36.144-1105.758c-3.737-2.656-9.629-.388-10.509-.023-5.083,3.464-9.531,1.389-11.27-.274-6.446-4.781-11.894-17.543-12.123-18.085-7.814-24.265,7.2-33.258,8.614-34.042,7.236-4.8,16.329-.013,19.067,1.649,6.467-3.729,12.433-4.929,17.739-3.571a17.2,17.2,0,0,1,10.2,7.468l.791,1.362-1.419.686a13.477,13.477,0,0,0-7.711,12.2,13.523,13.523,0,0,0,9.438,12.869l.933.3.11,1.456-.11.3a45.336,45.336,0,0,1-11.777,17.357,7.594,7.594,0,0,1-5.635,2.369A11.888,11.888,0,0,1,36.144-1105.758Zm1.669-2.4c.18.122,5.036,3.337,8.237-.025l.113-.107a43.283,43.283,0,0,0,10.516-14.972A16.416,16.416,0,0,1,46.6-1138.392a16.328,16.328,0,0,1,7.857-14,14.376,14.376,0,0,0-7.519-4.881c-4.736-1.213-10.217.037-16.291,3.708l-.806.486-.778-.535c-.1-.066-9.851-6.659-16.636-2.1l-.162.1c-.6.3-14.6,7.736-7.291,30.467.007,0,5.366,12.555,11.2,16.806l.172.146c.319.309,3.338,3.016,7.745-.06l.238-.136a19.786,19.786,0,0,1,7.289-1.553A10.536,10.536,0,0,1,37.813-1108.155Zm-9.8-53.311c1.017-16.566,15.835-18.353,15.986-18.368l1.532-.167.081,1.541c.911,17.188-15.873,18.529-16.043,18.541l-1.658.113ZM31.1-1163.1c3.565-.75,11.333-3.526,11.612-13.51C39.5-1175.757,32.46-1172.8,31.1-1163.1Z" transform="translate(129 -16049.999)"/>
</svg>
