<svg xmlns="http://www.w3.org/2000/svg" xmlns:xlink="http://www.w3.org/1999/xlink" viewBox="2118 -17934 38.061 50">
  <defs>
    <style>
      .cls-1 {
        fill: url(#linear-gradient);
      }
    </style>
    <linearGradient id="linear-gradient" x2="1" y2="1" gradientUnits="objectBoundingBox">
      <stop offset="0" stop-color="#3f47cc"/>
      <stop offset="1" stop-color="#764bbc"/>
    </linearGradient>
  </defs>
  <path id="Path_2794" data-name="Path 2794" class="cls-1" d="M91.725,32.467a6.6,6.6,0,0,1-6.651-6,11.28,11.28,0,0,0,2.6-2.57,15.621,15.621,0,0,0,2.814-7.343,1.119,1.119,0,0,0,.283-.4,12.116,12.116,0,0,0,.94-4.716C91.71,5.132,86.952,0,81.1,0a9.847,9.847,0,0,0-4.415,1.048,7.758,7.758,0,0,0-1.561.28,8.771,8.771,0,0,0-5.5,5.015,12.455,12.455,0,0,0-.618,8.175,13.17,13.17,0,0,0,.571,1.732,1.119,1.119,0,0,0,.264.385,14.058,14.058,0,0,0,5.4,9.822,6.6,6.6,0,0,1-6.652,6.011,7.736,7.736,0,0,0-7.463,7.721v8.686A1.126,1.126,0,0,0,62.253,50h35.81a1.126,1.126,0,0,0,1.126-1.126V40.189A7.736,7.736,0,0,0,91.725,32.467ZM75.753,3.491a5.547,5.547,0,0,1,1.29-.209,1.125,1.125,0,0,0,.473-.128,7.65,7.65,0,0,1,3.589-.9c4.607,0,8.355,4.121,8.355,9.187,0,.152,0,.3-.011.454a4.908,4.908,0,0,0-3.506-1.471H78.269a2.1,2.1,0,0,1-1.947-1.315,1.38,1.38,0,0,0-2.616.172,10.442,10.442,0,0,1-2.548,4.559C70.027,9.18,72.069,4.555,75.753,3.491Zm-.979,19.472a13.24,13.24,0,0,1-2.728-6.852,12.757,12.757,0,0,0,3.275-4.589,4.39,4.39,0,0,0,.349.29,4.315,4.315,0,0,0,2.6.862h7.673a2.675,2.675,0,0,1,2.439,1.583c0,.008,0,.016,0,.024,0,6.355-3.687,11.526-8.22,11.526A7.041,7.041,0,0,1,74.773,22.963Zm2.587,4.6a8.192,8.192,0,0,0,5.6.006,8.815,8.815,0,0,0,3.274,5.308l-5.912,8.419a.195.195,0,0,1-.319,0l-5.913-8.421A8.817,8.817,0,0,0,77.36,27.562ZM96.936,47.748H63.379v-7.56a5.483,5.483,0,0,1,5.476-5.476,9.65,9.65,0,0,0,3.284-.695l6.018,8.571a2.448,2.448,0,0,0,2,1.041h0a2.449,2.449,0,0,0,2-1.041l6.017-8.57a9.268,9.268,0,0,0,3.281.693,5.483,5.483,0,0,1,5.476,5.476v7.56Z" transform="translate(2056.873 -17934)"/>
</svg>
