<svg xmlns="http://www.w3.org/2000/svg" viewBox="4277 -7894 50 58.994">
  <defs>
    <style>
      .cls-1 {
        fill: #253b80;
      }

      .cls-2 {
        fill: #179bd7;
      }

      .cls-3 {
        fill: #222d65;
      }
    </style>
  </defs>
  <g id="PayPal" transform="translate(4277 -7894)">
    <path id="Path_2253" data-name="Path 2253" class="cls-1" d="M13.191,56.016l1.022-6.494-2.277-.053H1.061L8.619,1.548a.633.633,0,0,1,.211-.375.617.617,0,0,1,.4-.149H27.57c6.088,0,10.289,1.267,12.482,3.767a8.589,8.589,0,0,1,2,3.748,13.53,13.53,0,0,1,.014,5.169l-.023.151V15.18l1.028.583a7.213,7.213,0,0,1,2.082,1.587,7.391,7.391,0,0,1,1.689,3.789,16.026,16.026,0,0,1-.24,5.5,19.358,19.358,0,0,1-2.252,6.223,12.8,12.8,0,0,1-3.568,3.91,14.474,14.474,0,0,1-4.805,2.168,23.963,23.963,0,0,1-6.006.694H28.543A4.292,4.292,0,0,0,24.3,43.252l-.108.585L22.385,55.283l-.082.42a.361.361,0,0,1-.113.244.3.3,0,0,1-.188.068Z" transform="translate(1.013 0.978)"/>
    <path id="Path_2254" data-name="Path 2254" class="cls-2" d="M39.148,7.667h0q-.082.525-.188,1.075c-2.418,12.416-10.692,16.7-21.258,16.7h-5.38A2.613,2.613,0,0,0,9.74,27.66h0L6.985,45.129l-.78,4.952a1.377,1.377,0,0,0,1.359,1.591h9.542a2.3,2.3,0,0,0,2.268-1.935l.094-.485,1.8-11.4.115-.626a2.3,2.3,0,0,1,2.268-1.939h1.427c9.245,0,16.482-3.753,18.6-14.615.884-4.537.426-8.326-1.912-10.991A9.124,9.124,0,0,0,39.148,7.667Z" transform="translate(5.909 7.321)"/>
    <path id="Path_2255" data-name="Path 2255" class="cls-3" d="M34.883,7.575q-.554-.161-1.142-.293t-1.21-.229a29.879,29.879,0,0,0-4.743-.346H13.416A2.292,2.292,0,0,0,11.15,8.646L8.093,28.012,8,28.577a2.613,2.613,0,0,1,2.582-2.213h5.38c10.566,0,18.84-4.291,21.258-16.7.072-.368.133-.725.188-1.075a12.89,12.89,0,0,0-1.988-.839C35.249,7.686,35.067,7.63,34.883,7.575Z" transform="translate(7.644 6.405)"/>
    <path id="Path_2256" data-name="Path 2256" class="cls-1" d="M18.795,15.051a2.292,2.292,0,0,1,2.266-1.937H35.433a29.88,29.88,0,0,1,4.743.346q.622.1,1.21.229t1.142.293c.184.055.366.111.543.168a13.085,13.085,0,0,1,1.988.839c.719-4.588-.006-7.712-2.487-10.541C39.838,1.333,34.9,0,28.585,0H10.248a2.621,2.621,0,0,0-2.59,2.215L.02,50.629a1.575,1.575,0,0,0,1.554,1.822H12.895l2.842-18.034Z" transform="translate(0)"/>
  </g>
</svg>
