<svg xmlns="http://www.w3.org/2000/svg" xmlns:xlink="http://www.w3.org/1999/xlink" viewBox="-3863 -17217 65 49.963">
  <defs>
    <style>
      .cls-1 {
        fill: url(#linear-gradient);
      }
    </style>
    <linearGradient id="linear-gradient" x2="1" y2="1" gradientUnits="objectBoundingBox">
      <stop offset="0" stop-color="#3f70cc"/>
      <stop offset="1" stop-color="#3143ce"/>
    </linearGradient>
  </defs>
  <path id="E-commerce_icon" data-name="E-commerce icon" class="cls-1" d="M27.467,1209.964a5.432,5.432,0,0,1-5.426-5.426V1195.2H15.427A5.433,5.433,0,0,1,10,1189.774v-24.348A5.433,5.433,0,0,1,15.427,1160H57.533a5.432,5.432,0,0,1,5.426,5.426v9.337h6.615A5.433,5.433,0,0,1,75,1180.189v24.349a5.432,5.432,0,0,1-5.426,5.426Zm-2.326-29.775v24.349a2.329,2.329,0,0,0,2.326,2.326H69.574a2.329,2.329,0,0,0,2.326-2.326h0v-24.349a2.328,2.328,0,0,0-2.326-2.326h-8a1.488,1.488,0,0,1-.169.01H27.277A2.328,2.328,0,0,0,25.142,1180.189ZM13.1,1189.774a2.329,2.329,0,0,0,2.326,2.326h6.614v-11.911a5.4,5.4,0,0,1,.52-2.316H13.1Zm0-15H27.156c.1-.006.207-.01.311-.01H59.858v-4.071H13.1Zm0-9.346v2.165H59.858v-2.165a2.328,2.328,0,0,0-2.326-2.326H15.427A2.329,2.329,0,0,0,13.1,1165.426ZM48.525,1198.2a7.475,7.475,0,1,1,0-11.667,7.474,7.474,0,1,1,0,11.667Zm-9.049-5.834a4.373,4.373,0,0,0,7.079,3.435,7.447,7.447,0,0,1,0-6.871,4.373,4.373,0,0,0-7.079,3.435Zm9.341,0a4.373,4.373,0,1,0,4.373-4.372A4.378,4.378,0,0,0,48.818,1192.363Z" transform="translate(-3873 -18377)"/>
</svg>
