<svg xmlns="http://www.w3.org/2000/svg" viewBox="297 -7891 50 49.025"><defs><style>.cls-1{fill:#df4f4f}</style></defs><g id="meteor-icon" transform="translate(296.561 -7891.438)"><path id="Path_2114" data-name="Path 2114" class="cls-1" d="M.439.438l42.82 45.357a2 2 0 0 0 2.574-.172 1.9 1.9 0 0 0 .257-2.4L.439.438zM14 4.725l32.606 35.154a2 2 0 0 0 2.574-.171 1.9 1.9 0 0 0 .257-2.4zM4.472 13.9L37.08 49.053a2 2 0 0 0 2.574-.172 1.9 1.9 0 0 0 .257-2.4zm20.987-5.488l22.781 24.56a1.4 1.4 0 0 0 1.8-.12 1.328 1.328 0 0 0 .18-1.677L25.459 8.412zM7.61 24.531l22.781 24.56a1.4 1.4 0 0 0 1.8-.12 1.327 1.327 0 0 0 .18-1.677zm29.556-10.8l10.326 11.162a.72.72 0 0 0 .89-.056.6.6 0 0 0 .089-.786zM13.311 35.849l10.325 11.165a.72.72 0 0 0 .89-.056.6.6 0 0 0 .089-.786z"/></g></svg>