<svg xmlns="http://www.w3.org/2000/svg" viewBox="-2986 -7892 50 47.728"><defs><style>.cls-1{fill:#444}</style></defs><path id="cordova" class="cls-1" d="M45.454 47.727h-8.1l.568-6.818h-3.973l-.568 6.818H16.619l-.568-6.818h-3.977l.568 6.818h-8.1L0 18.182 11.364 0h27.272L50 18.182zm-9.09-38.636h-7.306l.487 3.409h-9.091l.487-3.409h-7.305l-4.545 9.091 2.273 18.182h27.272l2.273-18.182-4.545-9.091zm-3.978 21.238c-.628 0-1.136-1.893-1.136-4.227s.509-4.227 1.136-4.227 1.136 1.893 1.136 4.227-.508 4.227-1.136 4.227zm-14.346.352c-.628 0-1.137-1.893-1.137-4.227s.509-4.227 1.137-4.227 1.136 1.893 1.136 4.227-.509 4.228-1.136 4.228z" transform="translate(-2986 -7892)"/></svg>