<svg xmlns="http://www.w3.org/2000/svg" xmlns:xlink="http://www.w3.org/1999/xlink" viewBox="2535 -17935 55 52.709">
  <defs>
    <style>
      .cls-1 {
        fill: url(#linear-gradient);
      }
    </style>
    <linearGradient id="linear-gradient" x2="1" y2="1" gradientUnits="objectBoundingBox">
      <stop offset="0" stop-color="#3f47cc"/>
      <stop offset="1" stop-color="#764bbc"/>
    </linearGradient>
  </defs>
  <path id="Path_2787" data-name="Path 2787" class="cls-1" d="M43.541,40.455a11.4,11.4,0,0,0-5.371,1.336l-2.513-3.768A14.9,14.9,0,1,0,19.309,38l-2.525,3.765A11.473,11.473,0,1,0,18.7,43.03l2.625-3.914a14.929,14.929,0,0,0,12.323.017l2.62,3.931a11.458,11.458,0,1,0,7.278-2.608ZM11.459,61.08a9.1,9.1,0,0,1-5.911-2.16,8.676,8.676,0,0,0,1.115-.456c.084-.04.164-.079.206-.094a6.548,6.548,0,0,0,2.8-1.707,3.379,3.379,0,0,0,1.788.668,3.381,3.381,0,0,0,1.788-.668,6.556,6.556,0,0,0,2.8,1.709c.039.013.119.052.2.092a8.7,8.7,0,0,0,1.115.456A9.1,9.1,0,0,1,11.459,61.08Zm-2.5-9.728c0-1.719,1-2.877,2.5-2.877s2.5,1.158,2.5,2.877a4.15,4.15,0,0,1-1.028,2.511,3.663,3.663,0,0,1-1.472,1.168,3.657,3.657,0,0,1-1.472-1.168A4.144,4.144,0,0,1,8.959,51.352Zm11.666.561a9.1,9.1,0,0,1-1.6,5.186,2.038,2.038,0,0,0-.447-.211l-.063-.017a9.882,9.882,0,0,1-1.645-.643c-1.456-.556-1.835-.955-1.932-1.143l-.009-.02v-.032a6.294,6.294,0,0,0,1.327-3.681,4.805,4.805,0,1,0-9.584,0,6.286,6.286,0,0,0,1.327,3.679v.033a.2.2,0,0,1-.01.02c-.1.188-.475.587-1.932,1.143a9.861,9.861,0,0,1-1.644.643l-.064.017A2.07,2.07,0,0,0,3.9,57.1,9.168,9.168,0,0,1,17.94,45.432,9.1,9.1,0,0,1,20.625,51.912ZM18.342,33.044l-.082.024a2.644,2.644,0,0,0-.644.314,12.6,12.6,0,1,1,19.767,0,2.608,2.608,0,0,0-.645-.314l-.081-.024a12.854,12.854,0,0,1-2.137-.833c-1.892-.721-2.382-1.24-2.509-1.485A.142.142,0,0,0,32,30.7l-.012-1.653a8.177,8.177,0,0,0,1.736-4.794c0-4.044-2.786-6.712-6.224-6.712s-6.224,2.668-6.224,6.712a8.177,8.177,0,0,0,1.735,4.794L23,30.7c0,.008-.008.018-.013.027-.126.245-.618.765-2.509,1.485A12.825,12.825,0,0,1,18.342,33.044Zm13.089-8.793a6.136,6.136,0,0,1-1.645,3.878,4.426,4.426,0,0,1-2.286,1.6,4.419,4.419,0,0,1-2.286-1.6,6.134,6.134,0,0,1-1.647-3.878,4.623,4.623,0,0,1,1.184-3.285,3.893,3.893,0,0,1,5.5,0A4.626,4.626,0,0,1,31.431,24.251ZM27.5,38.164a12.509,12.509,0,0,1-8.181-3.015,10.571,10.571,0,0,0,1.657-.651c.134-.065.238-.115.318-.145,2.094-.8,3.209-1.568,3.729-2.574.032-.061.055-.114.072-.153l.185-.409a4.284,4.284,0,0,0,2.221.8,4.271,4.271,0,0,0,2.216-.8l.191.416c.017.036.038.083.067.138.517,1.01,1.633,1.781,3.733,2.581.077.029.183.08.316.144a10.6,10.6,0,0,0,1.658.651A12.511,12.511,0,0,1,27.5,38.164ZM43.541,61.08a9.093,9.093,0,0,1-5.91-2.16,8.866,8.866,0,0,0,1.115-.456c.084-.04.164-.079.2-.094a6.558,6.558,0,0,0,2.8-1.707,3.376,3.376,0,0,0,1.788.668,3.377,3.377,0,0,0,1.788-.668,6.571,6.571,0,0,0,2.8,1.709c.039.013.119.052.2.092a8.8,8.8,0,0,0,1.116.456A9.1,9.1,0,0,1,43.541,61.08Zm-2.5-9.728c0-1.719,1-2.877,2.5-2.877s2.5,1.158,2.5,2.877a4.138,4.138,0,0,1-1.027,2.511,3.668,3.668,0,0,1-1.472,1.168,3.669,3.669,0,0,1-1.472-1.168A4.148,4.148,0,0,1,41.042,51.352ZM51.1,57.1a2.05,2.05,0,0,0-.446-.211l-.064-.017a9.88,9.88,0,0,1-1.645-.643c-1.457-.556-1.834-.955-1.932-1.143,0-.007-.005-.013-.008-.02v-.032a6.3,6.3,0,0,0,1.326-3.681,4.805,4.805,0,1,0-9.584,0,6.291,6.291,0,0,0,1.326,3.679v.033c0,.007-.005.014-.008.02-.1.188-.475.587-1.932,1.143a9.813,9.813,0,0,1-1.645.643l-.064.017a2.045,2.045,0,0,0-.446.211,9.166,9.166,0,1,1,15.123,0Z" transform="translate(2535 -17945.664)"/>
</svg>
