<svg xmlns="http://www.w3.org/2000/svg" viewBox="0 0 60 32.97"><title>Ресурс 1</title><g id="Шар_2" data-name="Шар 2"><g id="Layer_1" data-name="Layer 1"><path d="M0,14V12.12H1.46V3.18H0V1.33H5.84c2.68,0,4.32,1.24,4.32,3.4a2.78,2.78,0,0,1-1.87,2.7,3.14,3.14,0,0,1,2.57,2.94c0,2.31-1.79,3.6-4.71,3.6ZM3.47,3.18V6.63H5.65c1.64,0,2.49-.61,2.49-1.72S7.26,3.18,5.62,3.18Zm0,8.94H6c1.92,0,2.88-.63,2.88-1.85s-1-1.85-3-1.85H3.47Z"/><path d="M21.45,7.39A1.51,1.51,0,0,0,20,6.21,3.27,3.27,0,0,0,16.7,9.72v2.4h3.23V14H12.73V12.12h2V6.54H13.17V4.69h3.51V6.26a3.71,3.71,0,0,1,3.38-1.87,3.08,3.08,0,0,1,3.23,2.49Z"/><path d="M31.26,8.57V8c0-1.31-1-1.85-2.18-1.85A4,4,0,0,0,26.36,7.3L25.09,5.93a5.62,5.62,0,0,1,4-1.55c2.33,0,4.14,1.24,4.14,3.6v4.14h1.35V14H31.26V13a3.88,3.88,0,0,1-3.18,1.29c-1.92,0-3.58-1-3.58-2.92,0-2.29,2.25-3.16,4.29-3.16A9,9,0,0,1,31.26,8.57Zm0,1.66a7.63,7.63,0,0,0-2.38-.39c-1.22,0-2.4.39-2.4,1.5,0,.83.74,1.22,1.77,1.22,1.42,0,3-.76,3-2.07Z"/><path d="M46.22,12.12V14H36.85V12.12h3.88V6.54h-3V4.69h4.88v7.43ZM42.65,2.83H40.49V0h2.16Z"/><path d="M48.53,12.12h1.42V6.54H48.62V4.69h3.23v1.2A3.65,3.65,0,0,1,55,4.38,3.3,3.3,0,0,1,58.58,7.8v4.32H60V14H55.18V12.12h1.48V8.33c0-1.61-1-2.07-1.87-2.07A2.85,2.85,0,0,0,51.87,9v3.1h1.48V14H48.53Z"/><path d="M9.45,25.23H7V23.37H9.45V20h1.92v3.36h4.51v1.85H11.37v3.9a1.93,1.93,0,0,0,2.16,2,3.89,3.89,0,0,0,2.68-1.29L17.5,31.2a5.32,5.32,0,0,1-4,1.77c-2.33,0-4.08-1.29-4.08-3.77Z"/><path d="M28,26.08a1.51,1.51,0,0,0-1.48-1.18,3.27,3.27,0,0,0-3.27,3.51v2.4h3.23v1.85H19.24V30.81h2V25.23H19.68V23.37h3.51v1.57a3.71,3.71,0,0,1,3.38-1.87,3.08,3.08,0,0,1,3.23,2.49Z"/><path d="M40.87,31.24A6.43,6.43,0,0,1,36.31,33C33.19,33,31,30.87,31,28a4.84,4.84,0,0,1,5.06-4.95,5,5,0,0,1,5,5.3v.33H33a3.15,3.15,0,0,0,3.29,2.49,4.46,4.46,0,0,0,3.25-1.29Zm-7.74-4.19h5.71a2.82,2.82,0,0,0-2.77-2.22A2.93,2.93,0,0,0,33.13,27.06Z"/><path d="M52.79,31.24A6.43,6.43,0,0,1,48.24,33c-3.12,0-5.3-2.09-5.3-4.95A4.84,4.84,0,0,1,48,23.07a5,5,0,0,1,5,5.3v.33H45a3.15,3.15,0,0,0,3.29,2.49,4.46,4.46,0,0,0,3.25-1.29Zm-7.74-4.19h5.71A2.82,2.82,0,0,0,48,24.83,2.93,2.93,0,0,0,45.05,27.06Z"/></g></g></svg>