<svg xmlns="http://www.w3.org/2000/svg" xmlns:xlink="http://www.w3.org/1999/xlink" viewBox="2953 -17936 55 55">
  <defs>
    <style>
      .cls-1 {
        fill: url(#linear-gradient);
      }
    </style>
    <linearGradient id="linear-gradient" x2="1" y2="1" gradientUnits="objectBoundingBox">
      <stop offset="0" stop-color="#3f47cc"/>
      <stop offset="1" stop-color="#764bbc"/>
    </linearGradient>
  </defs>
  <path id="Path_2791" data-name="Path 2791" class="cls-1" d="M51.908,17.895A12.3,12.3,0,0,0,48.8,15.012c-.329-1.068-1.249-2.729-3.622-5.1-2.454-2.455-4.149-3.356-5.21-3.655A12.967,12.967,0,0,0,37.02,3.139,15.476,15.476,0,0,0,27.413,0,15.238,15.238,0,0,0,17.891,3.1a12.037,12.037,0,0,0-2.926,3.18c-1.066.318-2.74,1.232-5.144,3.636-2.428,2.428-3.336,4.111-3.645,5.176a13.109,13.109,0,0,0-3.041,2.9A15.478,15.478,0,0,0,0,27.59a15.237,15.237,0,0,0,3.092,9.523,12.413,12.413,0,0,0,3.046,2.845c.27,1.054,1.148,2.778,3.683,5.312,2.566,2.566,4.3,3.436,5.353,3.693a13.368,13.368,0,0,0,2.807,2.905A15.473,15.473,0,0,0,27.586,55a15.241,15.241,0,0,0,9.523-3.092,12.576,12.576,0,0,0,2.8-2.971c1.057-.28,2.771-1.168,5.272-3.671,2.595-2.593,3.454-4.339,3.7-5.386a13.194,13.194,0,0,0,2.986-2.86A15.474,15.474,0,0,0,55,27.418,15.242,15.242,0,0,0,51.908,17.895ZM39.676,8.577a12.933,12.933,0,0,1,3.882,2.954,12.938,12.938,0,0,1,2.956,3.887l-9.42,6.747L32.955,18.02Zm-9.4,28.842a10.287,10.287,0,0,1-5.6-.013l.352-.493-6.881-6.892-.48.342a10.3,10.3,0,0,1,.013-5.589l.493.35,6.892-6.88-.343-.48a10.313,10.313,0,0,1,5.59.012l-.351.493,6.88,6.892.483-.346a10.352,10.352,0,0,1-.012,5.6l-.5-.352L29.93,36.936Zm1.4,1.957,4.847,6.768q-.619.3-1.26.562a20.708,20.708,0,0,1-15.524,0q-.648-.264-1.272-.567l4.823-6.778a12.543,12.543,0,0,0,8.387.013Zm-8.35-23.568L18.477,9.039q.619-.3,1.261-.562a20.708,20.708,0,0,1,15.524,0q.647.262,1.269.566L31.71,15.82a12.522,12.522,0,0,0-8.384-.012ZM19.381,4.84a12.918,12.918,0,0,1,8.032-2.545,13.124,13.124,0,0,1,8.126,2.6,11.447,11.447,0,0,1,2.219,2.2,22.95,22.95,0,0,0-20.632.058l0,0A10.661,10.661,0,0,1,19.381,4.84ZM11.44,11.532a12.927,12.927,0,0,1,3.887-2.955L22.074,18l-4.145,4.138-9.441-6.72A12.959,12.959,0,0,1,11.44,11.532Zm-6.6,24.092A12.918,12.918,0,0,1,2.292,27.59a13.122,13.122,0,0,1,2.6-8.125A11.532,11.532,0,0,1,7.023,17.3a22.972,22.972,0,0,0-.077,20.435A10.843,10.843,0,0,1,4.837,35.623Zm2.039-8.032a20.557,20.557,0,0,1,1.51-7.762q.263-.647.567-1.271l6.777,4.823a12.552,12.552,0,0,0-.013,8.384L8.947,36.614q-.3-.619-.561-1.259A20.557,20.557,0,0,1,6.876,27.592ZM15.324,46.6A13,13,0,0,1,11.44,43.65a12.925,12.925,0,0,1-2.955-3.887l9.42-6.747,4.138,4.146Zm20.3,3.562a12.915,12.915,0,0,1-8.032,2.546,13.125,13.125,0,0,1-8.125-2.6A11.727,11.727,0,0,1,17.466,48.2a22.963,22.963,0,0,0,20.207-.069A10.91,10.91,0,0,1,35.619,50.166Zm7.939-6.516A12.918,12.918,0,0,1,39.672,46.6l-6.747-9.42,4.146-4.139,9.441,6.721A12.954,12.954,0,0,1,43.558,43.65Zm2.493-7.026L39.273,31.8a12.547,12.547,0,0,0,.012-8.386l6.769-4.847q.3.621.562,1.263a20.721,20.721,0,0,1,0,15.525C46.441,35.785,46.252,36.208,46.05,36.624Zm4.062-1.081A11.662,11.662,0,0,1,48.123,37.6a22.97,22.97,0,0,0-.185-20.381l.018-.013a10.811,10.811,0,0,1,2.205,2.181,12.918,12.918,0,0,1,2.545,8.033A13.124,13.124,0,0,1,50.112,35.543Z" transform="translate(2953 -17936.004)"/>
</svg>
