<svg width="512" height="474" viewBox="0 0 512 474" fill="none" xmlns="http://www.w3.org/2000/svg">
<path d="M396.8 217.588H303.625L280.952 149.535C279.177 144.21 274.023 140.012 268.528 140.788C262.905 140.916 258.032 144.662 256.505 150.064L219.155 280.761L178.903 99.6145C177.674 94.1365 173.032 90.0915 167.426 89.6395C161.854 89.2645 156.597 92.4125 154.524 97.6355L106.524 217.589H12.8C5.726 217.589 0 223.315 0 230.389C0 237.463 5.726 243.189 12.8 243.189H115.2C120.422 243.197 125.15 240.015 127.078 235.142L162.901 145.619L205.098 335.571C206.369 341.297 211.37 345.418 217.224 345.598C217.352 345.598 217.471 345.598 217.599 345.598C223.299 345.598 228.325 341.826 229.896 336.322L269.747 196.896L282.248 234.443C283.997 239.665 288.895 243.19 294.399 243.19H396.799C403.873 243.19 409.599 237.464 409.599 230.39C409.6 223.313 403.874 217.588 396.8 217.588Z" fill="#E04933"/>
<path d="M467.012 45.3737C437.018 15.3797 397.705 0.386719 358.4 0.386719C321.621 0.386719 285.141 14.0487 256 40.3057C226.85 14.0487 190.379 0.386719 153.6 0.386719C114.287 0.386719 74.9821 15.3797 44.9881 45.3747C5.2141 85.1567 -7.5949 141.187 5.3851 192.011H32.0091C18.3561 148.039 28.3311 98.2377 63.0871 63.4817C87.2621 39.3067 119.407 25.9947 153.6 25.9947C184.806 25.9947 213.999 37.5577 237.295 57.8837L256 75.3687L274.714 57.8757C298.01 37.5577 327.203 25.9867 358.4 25.9867C392.593 25.9867 424.73 39.2987 448.913 63.4737C498.824 113.377 498.816 194.589 448.913 244.492L256 437.404L87.4071 268.811H51.2001L256 473.611L467.012 262.599C526.993 202.61 526.993 105.364 467.012 45.3737Z" fill="#E04933"/>
</svg>
