<svg xmlns="http://www.w3.org/2000/svg" viewBox="2636 -7891 50 56.641">
  <defs>
    <style>
      .cls-1 {
        fill: #008cc1;
      }

      .cls-2 {
        fill: #fff;
      }

      .cls-3 {
        fill: #66b245;
      }
    </style>
  </defs>
  <g id="neo4j" transform="translate(2636 -7891.248)">
    <path id="Path_2146" data-name="Path 2146" class="cls-1" d="M47.64,33.7A23.82,23.82,0,1,1,23.82,9.882,23.819,23.819,0,0,1,47.64,33.7" transform="translate(0 -7.747)"/>
    <path id="Path_2147" data-name="Path 2147" class="cls-2" d="M38.286,83.806a1.9,1.9,0,1,1-1.9-1.9,1.906,1.906,0,0,1,1.9,1.9" transform="translate(-27.726 -65.665)"/>
    <path id="Path_2148" data-name="Path 2148" class="cls-2" d="M39.936,110.5a1.9,1.9,0,1,1-1.9-1.9,1.906,1.906,0,0,1,1.9,1.9" transform="translate(-29.053 -87.135)"/>
    <path id="Path_2149" data-name="Path 2149" class="cls-2" d="M45.889,138.793a1.9,1.9,0,1,1-1.9-1.9,1.906,1.906,0,0,1,1.9,1.9" transform="translate(-33.84 -109.884)"/>
    <path id="Path_2150" data-name="Path 2150" class="cls-2" d="M59.209,164.136a1.9,1.9,0,1,1-1.9-1.9,1.906,1.906,0,0,1,1.9,1.9" transform="translate(-44.552 -130.265)"/>
    <path id="Path_2151" data-name="Path 2151" class="cls-2" d="M163.349,199.557a1.9,1.9,0,1,1-1.9-1.9,1.906,1.906,0,0,1,1.9,1.9" transform="translate(-128.3 -158.749)"/>
    <path id="Path_2152" data-name="Path 2152" class="cls-2" d="M181.03,178.635a1.9,1.9,0,1,1-1.9-1.9,1.906,1.906,0,0,1,1.9,1.9" transform="translate(-142.518 -141.924)"/>
    <path id="Path_2153" data-name="Path 2153" class="cls-2" d="M129.756,30.705a1.9,1.9,0,1,1-1.9-1.9,1.906,1.906,0,0,1,1.9,1.9" transform="translate(-101.284 -22.962)"/>
    <path id="Path_2154" data-name="Path 2154" class="cls-2" d="M104.177,21.746a1.9,1.9,0,1,1-1.9-1.9,1.906,1.906,0,0,1,1.9,1.9" transform="translate(-80.715 -15.757)"/>
    <path id="Path_2155" data-name="Path 2155" class="cls-3" d="M136.638,37.7a12.695,12.695,0,1,1-12.695,12.695A12.695,12.695,0,0,1,136.638,37.7" transform="translate(-99.673 -30.118)"/>
    <path id="Path_2156" data-name="Path 2156" class="cls-2" d="M135.241,62.034A13.035,13.035,0,1,1,148.276,49a13.05,13.05,0,0,1-13.035,13.035Zm0-25.39A12.355,12.355,0,1,0,147.6,49a12.369,12.369,0,0,0-12.355-12.355Z" transform="translate(-98.276 -28.722)"/>
    <path id="Path_2157" data-name="Path 2157" class="cls-3" d="M57.3,181.682a10.387,10.387,0,1,1-10.387,10.387A10.387,10.387,0,0,1,57.3,181.682" transform="translate(-37.727 -145.906)"/>
    <path id="Path_2158" data-name="Path 2158" class="cls-2" d="M55.9,201.4a10.727,10.727,0,1,1,10.727-10.727A10.739,10.739,0,0,1,55.9,201.4Zm0-20.773A10.047,10.047,0,1,0,65.95,190.672,10.058,10.058,0,0,0,55.9,180.625Z" transform="translate(-36.331 -144.509)"/>
    <path id="Path_2159" data-name="Path 2159" class="cls-3" d="M27.847,1.984a6.924,6.924,0,1,1-6.924,6.924,6.925,6.925,0,0,1,6.924-6.924" transform="translate(-16.826 -1.396)"/>
    <path id="Path_2160" data-name="Path 2160" class="cls-2" d="M26.451,14.777a7.264,7.264,0,1,1,7.264-7.264,7.273,7.273,0,0,1-7.264,7.264Zm0-13.849a6.584,6.584,0,1,0,6.584,6.584A6.592,6.592,0,0,0,26.451.928Z" transform="translate(-15.429 0)"/>
  </g>
</svg>
