<svg xmlns="http://www.w3.org/2000/svg" viewBox="4979 -7875 50 20.441">
  <g id="stripe-logo" transform="translate(4979 -7888.877)">
    <g id="Layer_1_copy_6_" transform="translate(0 13.877)">
      <path id="Path_2226" data-name="Path 2226" d="M38.856,20.643a2.528,2.528,0,0,0-1.615-1.449,3.8,3.8,0,0,0-3.339.51c-.1.067-.192.131-.334.232-.292-.772-.916-.757-1.56-.706-.1.009-.192,0-.289,0H29.813V33.956c0,.12.009.244.016.362H33.8V30.384a17.068,17.068,0,0,0,1.71.156,3.48,3.48,0,0,0,3.641-2.734c.023-.08.048-.16.067-.244a13.148,13.148,0,0,0,.244-4.48A6.773,6.773,0,0,0,38.856,20.643Zm-3.484,6.182c-.181.877-.7,1.122-1.581.8v-.739c0-1.43.009-2.861-.006-4.289a.4.4,0,0,1,.306-.447c.125-.04.245-.094.373-.131.544-.158.9.021.969.578A12.506,12.506,0,0,1,35.372,26.825ZM23.209,19.547c-.016.985-.006,1.97-.006,2.977-.442-.055-.833-.114-1.227-.151a2.941,2.941,0,0,0-.611.022c-.823.108-.935.238-.935,1.049v6.87H16.481V19.258a2,2,0,0,1,.261-.028c.854,0,1.708.006,2.564-.007a.418.418,0,0,1,.446.268c.121.26.275.5.42.765a2.116,2.116,0,0,1,2.706-1.123C23.111,19.2,23.212,19.287,23.209,19.547Zm4.952-3.669a2,2,0,0,1-2,2h-.006a1.875,1.875,0,0,1-.482-.059,1.97,1.97,0,0,1-.905-.506A2,2,0,0,1,25.856,13.9a.459.459,0,0,1,.071-.022h.432a.244.244,0,0,1,.029.015A2,2,0,0,1,28.161,15.877Zm-3.989,3.369H28.1V30.322H24.172Zm25.563,3.378A3.95,3.95,0,0,0,45.2,19.036c-2.324.1-3.714,1.14-4.283,3.218a9.669,9.669,0,0,0-.011,5.1,3.847,3.847,0,0,0,3.15,3,9.986,9.986,0,0,0,4.465-.138c.851-.214.851-.212.851-1.087V27.1c-.369.066-.685.125-1,.179a8.831,8.831,0,0,1-2.826.2A1.077,1.077,0,0,1,44.6,26.1H50C49.916,24.895,49.886,23.752,49.735,22.624Zm-5.218,1.294c.056-.619.1-1.214.173-1.8a.954.954,0,0,1,.231-.477.635.635,0,0,1,1.131.231c.137.66.158,1.345.235,2.051ZM13.51,22.126q0,2.2,0,4.4a3.138,3.138,0,0,0,.013.361c.059.49.241.657.736.628.431-.026.86-.091,1.329-.144v2.818a9.7,9.7,0,0,1-4.125.2,2.616,2.616,0,0,1-1.924-2.833c-.018-1.795-.005-3.585-.006-5.38v-.414H8.1V19.243H9.526c.15-.741.3-1.455.434-2.173a.442.442,0,0,1,.383-.429c1.042-.234,2.077-.5,3.155-.754V19.22h2.109c-.179.866-.348,1.687-.523,2.535H13.53C13.523,21.9,13.51,22.012,13.51,22.126ZM7.623,27.28A3.284,3.284,0,0,1,4.289,30.5a10.429,10.429,0,0,1-3.813-.4c-.108-.028-.263-.163-.265-.25C.191,28.969.2,28.09.2,27.178c.636.131,1.236.284,1.844.377a3.86,3.86,0,0,0,1.145.022.829.829,0,0,0,.525-.4.527.527,0,0,0-.235-.69c-.324-.2-.677-.36-1.014-.543a11.511,11.511,0,0,1-1.16-.65A2.9,2.9,0,0,1,.066,23.219,1.84,1.84,0,0,0,0,22.978v-.65c.059-.29.1-.588.178-.872a3.15,3.15,0,0,1,2.667-2.283,7.978,7.978,0,0,1,4.092.272.353.353,0,0,1,.294.4c-.017.817-.006,1.634-.006,2.44-.685-.126-1.342-.258-2.006-.358a2.087,2.087,0,0,0-.821.011.7.7,0,0,0-.463.4.755.755,0,0,0,.253.606,6.851,6.851,0,0,0,.982.523,10.274,10.274,0,0,1,1.256.7A3.145,3.145,0,0,1,7.623,27.28Z" transform="translate(0 -13.877)"/>
    </g>
  </g>
</svg>
