<svg xmlns="http://www.w3.org/2000/svg" viewBox="-3683 -7895 50 54.212">
  <defs>
    <style>
      .cls-1 {
        fill: #47848f;
      }
    </style>
  </defs>
  <g id="electron" transform="translate(-3683.2 -7895)">
    <path id="Path_2080" data-name="Path 2080" class="cls-1" d="M20.883,31.358C13.8,30.051,8.211,31.43,5.959,35.279,4.289,38.148,4.761,42,7.121,46.064a.716.716,0,0,0,1.235-.726C6.25,41.67,5.851,38.366,7.194,36.006c1.852-3.2,6.863-4.43,13.4-3.232a.709.709,0,0,0,.835-.581A.685.685,0,0,0,20.883,31.358ZM10.825,51.038a44.647,44.647,0,0,0,10.821,8.533c10.276,5.919,21.206,7.516,26.616,3.849a.73.73,0,0,0-.835-1.2C42.6,65.526,32.212,64,22.372,58.337a43.554,43.554,0,0,1-10.494-8.279.719.719,0,0,0-1.053.98Z" transform="translate(-3.036 -19.666)"/>
    <path id="Path_2081" data-name="Path 2081" class="cls-1" d="M46.58,50.245c4.648-5.483,6.245-11,4.03-14.851-1.634-2.832-5.12-4.321-9.695-4.394a.726.726,0,0,0,0,1.452c4.139.036,7.117,1.344,8.46,3.667,1.852,3.2.4,8.134-3.885,13.181a.721.721,0,1,0,1.089.944ZM34.67,31.654a45.855,45.855,0,0,0-12.927,5.12C11.1,42.91,4.2,51.951,5.149,58.487A.734.734,0,1,0,6.6,58.269c-.871-5.81,5.7-14.343,15.868-20.225A44.6,44.6,0,0,1,35,33.07a.7.7,0,0,0,.545-.871A.771.771,0,0,0,34.67,31.654Z" transform="translate(-3.097 -19.744)"/>
    <path id="Path_2082" data-name="Path 2082" class="cls-1" d="M14.4,49.235c2.433,6.754,6.391,10.93,10.857,10.93,3.268,0,6.245-2.215,8.606-6.137a.716.716,0,1,0-1.235-.726c-2.106,3.522-4.684,5.41-7.371,5.41-3.7,0-7.226-3.7-9.477-9.985a.741.741,0,0,0-.944-.436A.725.725,0,0,0,14.4,49.235Zm22.15-1.307a45.054,45.054,0,0,0,1.924-13.471c0-12.019-4.212-22.4-10.2-25.054a.715.715,0,1,0-.581,1.307c5.338,2.36,9.332,12.2,9.332,23.747a44.683,44.683,0,0,1-1.852,13.036.734.734,0,0,0,.472.908.769.769,0,0,0,.908-.472ZM50.2,47.2a3.486,3.486,0,1,0-3.486,3.486A3.487,3.487,0,0,0,50.2,47.2Zm-1.452,0a2.033,2.033,0,1,1-2.033-2.033A2.03,2.03,0,0,1,48.748,47.2ZM3.686,50.688A3.486,3.486,0,1,0,.2,47.2a3.487,3.487,0,0,0,3.486,3.486Zm0-1.452A2.033,2.033,0,1,1,5.719,47.2,2.03,2.03,0,0,1,3.686,49.235Z" transform="translate(0 -5.953)"/>
    <path id="Path_2083" data-name="Path 2083" class="cls-1" d="M63.086,6.972A3.486,3.486,0,1,0,59.6,3.486,3.487,3.487,0,0,0,63.086,6.972Zm0-1.452a2.033,2.033,0,1,1,2.033-2.033A2.054,2.054,0,0,1,63.086,5.519Zm.508,25.454A2.507,2.507,0,1,1,65.519,28,2.492,2.492,0,0,1,63.594,30.973Z" transform="translate(-37.831)"/>
  </g>
</svg>
