<svg xmlns="http://www.w3.org/2000/svg" viewBox="-3863 -17217 65 49.963"><defs><style>.cls-1{fill:url(#linear-gradient)}</style><linearGradient id="linear-gradient" x2="1" y2="1" gradientUnits="objectBoundingBox"><stop offset="0" stop-color="#3f70cc"/><stop offset="1" stop-color="#3143ce"/></linearGradient></defs><path id="E-commerce_icon" data-name="E-commerce icon" class="cls-1" d="M27.467 1209.964a5.432 5.432 0 0 1-5.426-5.426v-9.338h-6.614a5.433 5.433 0 0 1-5.427-5.426v-24.348a5.433 5.433 0 0 1 5.427-5.426h42.106a5.432 5.432 0 0 1 5.426 5.426v9.337h6.615a5.433 5.433 0 0 1 5.426 5.426v24.349a5.432 5.432 0 0 1-5.426 5.426zm-2.326-29.775v24.349a2.329 2.329 0 0 0 2.326 2.326h42.107a2.329 2.329 0 0 0 2.326-2.326v-24.349a2.328 2.328 0 0 0-2.326-2.326h-8a1.488 1.488 0 0 1-.169.01H27.277a2.328 2.328 0 0 0-2.135 2.316zm-12.041 9.585a2.329 2.329 0 0 0 2.326 2.326h6.614v-11.911a5.4 5.4 0 0 1 .52-2.316H13.1zm0-15h14.056c.1-.006.207-.01.311-.01h32.391v-4.071H13.1zm0-9.346v2.165h46.758v-2.165a2.328 2.328 0 0 0-2.326-2.326H15.427a2.329 2.329 0 0 0-2.327 2.324zm35.425 32.772a7.475 7.475 0 1 1 0-11.667 7.474 7.474 0 1 1 0 11.667zm-9.049-5.834a4.373 4.373 0 0 0 7.079 3.435 7.447 7.447 0 0 1 0-6.871 4.373 4.373 0 0 0-7.079 3.435zm9.341 0a4.373 4.373 0 1 0 4.373-4.372 4.378 4.378 0 0 0-4.372 4.369z" transform="translate(-3873 -18377)"/></svg>