<svg width="15" height="16" viewBox="0 0 15 16" fill="none" xmlns="http://www.w3.org/2000/svg">
<path d="M1.85858 0.804688H12.6216C13.6437 0.804688 14.48 1.56144 14.48 2.66312V13.4264C14.48 14.5281 13.6437 15.2848 12.6216 15.2848H1.85858C0.836145 15.2848 0 14.5281 0 13.4264V2.66312C0 1.56144 0.836145 0.804688 1.85858 0.804688ZM10.5482 2.41349C10.1896 2.41349 9.89652 2.70668 9.89652 3.06543V4.62577C9.89652 4.98437 10.1896 5.27771 10.5482 5.27771H12.1848C12.5434 5.27771 12.8367 4.98437 12.8367 4.62577V3.06543C12.8367 2.70668 12.5434 2.41349 12.1848 2.41349H10.5482ZM12.8435 6.92829H11.5691C11.6897 7.32198 11.7549 7.73901 11.7549 8.17047C11.7549 10.579 9.73952 12.5314 7.25383 12.5314C4.76829 12.5314 2.75315 10.579 2.75315 8.17047C2.75315 7.73872 2.81827 7.32183 2.939 6.92829H1.6091V13.0449C1.6091 13.3614 1.86809 13.6206 2.18477 13.6206H12.2682C12.5848 13.6206 12.8438 13.3616 12.8438 13.0449V6.92829H12.8435ZM7.25368 5.19549C5.6477 5.19549 4.34561 6.45699 4.34561 8.01332C4.34561 9.56964 5.6477 10.8311 7.25368 10.8311C8.85981 10.8311 10.162 9.56964 10.162 8.01332C10.162 6.45699 8.85996 5.19549 7.25368 5.19549Z" fill="white"/>
</svg>
