<svg width="52" height="50" viewBox="0 0 52 50" fill="none" xmlns="http://www.w3.org/2000/svg">
<path d="M50.7785 23.978L26.3095 1.133C26.2935 1.118 26.2735 1.113 26.2565 1.101C26.2215 1.076 26.1885 1.05 26.1495 1.035C26.1295 1.027 26.1085 1.026 26.0885 1.021C26.0465 1.01 26.0055 1 25.9625 1C25.9415 1 25.9205 1.007 25.8995 1.01C25.8575 1.016 25.8175 1.022 25.7785 1.038C25.7545 1.048 25.7345 1.065 25.7125 1.079C25.6845 1.097 25.6535 1.108 25.6285 1.131L9.67853 16.023C9.67653 16.025 9.67353 16.027 9.67153 16.03L1.15853 23.978C0.956528 24.166 0.946528 24.482 1.13453 24.685C1.23253 24.79 1.36553 24.844 1.49953 24.844C1.62253 24.844 1.74453 24.8 1.84053 24.709L9.52653 17.533V48.755C9.52653 49.031 9.75053 49.255 10.0265 49.255H41.9085C42.1845 49.255 42.4085 49.031 42.4085 48.755V17.531L50.0965 24.708C50.1925 24.798 50.3155 24.843 50.4375 24.843C50.5715 24.843 50.7045 24.79 50.8025 24.684C50.9905 24.482 50.9805 24.166 50.7785 23.978ZM41.4085 48.254H33.7805V36.21L37.0685 34.064C37.4665 34.487 38.0295 34.755 38.6555 34.755C39.8615 34.755 40.8435 33.774 40.8435 32.567C40.8435 31.36 39.8625 30.379 38.6555 30.379C37.4485 30.379 36.4685 31.361 36.4685 32.567C36.4685 32.786 36.5105 32.994 36.5715 33.193L33.0085 35.519C32.9935 35.529 32.9865 35.543 32.9725 35.554C32.9465 35.575 32.9225 35.599 32.9015 35.625C32.8805 35.649 32.8635 35.675 32.8485 35.703C32.8325 35.73 32.8225 35.759 32.8125 35.789C32.8015 35.821 32.7955 35.854 32.7915 35.889C32.7895 35.906 32.7815 35.92 32.7815 35.938V48.253H30.2815V23.381L34.5035 20.376C34.8985 20.763 35.4375 21.003 36.0315 21.003C37.2375 21.003 38.2195 20.022 38.2195 18.815C38.2195 17.608 37.2385 16.627 36.0315 16.627C34.8245 16.627 33.8435 17.608 33.8435 18.815C33.8435 19.065 33.8945 19.301 33.9725 19.525L29.4915 22.715C29.4795 22.723 29.4745 22.736 29.4645 22.744C29.4385 22.766 29.4155 22.792 29.3935 22.82C29.3745 22.844 29.3575 22.868 29.3435 22.895C29.3285 22.923 29.3195 22.953 29.3105 22.984C29.3005 23.017 29.2925 23.048 29.2895 23.082C29.2885 23.096 29.2815 23.108 29.2815 23.123V48.254H24.3025V28.625C24.3025 28.607 24.2945 28.592 24.2925 28.575C24.2895 28.541 24.2835 28.509 24.2725 28.475C24.2625 28.444 24.2505 28.415 24.2355 28.388C24.2205 28.361 24.2045 28.336 24.1845 28.312C24.1625 28.285 24.1375 28.261 24.1095 28.239C24.0965 28.228 24.0885 28.215 24.0745 28.205L17.8375 24.186C18.0155 23.87 18.1255 23.51 18.1255 23.123C18.1255 21.917 17.1445 20.935 15.9375 20.935C14.7305 20.935 13.7495 21.916 13.7495 23.123C13.7495 24.33 14.7305 25.311 15.9375 25.311C16.3885 25.311 16.8085 25.173 17.1565 24.938L23.3025 28.897V48.253H19.5945V40.499C19.5945 40.49 19.5895 40.482 19.5895 40.473C19.5885 40.438 19.5785 40.406 19.5685 40.371C19.5605 40.342 19.5555 40.312 19.5425 40.285C19.5295 40.257 19.5095 40.234 19.4915 40.209C19.4705 40.181 19.4515 40.153 19.4265 40.13C19.4195 40.124 19.4165 40.115 19.4085 40.109L15.7515 37.16C15.8615 36.898 15.9225 36.612 15.9225 36.311C15.9225 35.105 14.9415 34.123 13.7345 34.123C12.5275 34.123 11.5465 35.104 11.5465 36.311C11.5465 37.518 12.5275 38.499 13.7345 38.499C14.2775 38.499 14.7695 38.293 15.1525 37.963L18.5935 40.738V48.253H10.5275V16.598L25.9675 2.181L41.4085 16.598V48.254ZM37.4685 32.567C37.4685 31.912 38.0005 31.379 38.6565 31.379C39.3125 31.379 39.8445 31.911 39.8445 32.567C39.8445 33.223 39.3125 33.755 38.6565 33.755C38.0005 33.755 37.4685 33.223 37.4685 32.567ZM34.8435 18.815C34.8435 18.16 35.3755 17.627 36.0315 17.627C36.6875 17.627 37.2195 18.16 37.2195 18.815C37.2195 19.47 36.6875 20.003 36.0315 20.003C35.3755 20.003 34.8435 19.47 34.8435 18.815ZM15.9365 24.311C15.2815 24.311 14.7485 23.778 14.7485 23.123C14.7485 22.468 15.2815 21.935 15.9365 21.935C16.5915 21.935 17.1245 22.468 17.1245 23.123C17.1245 23.778 16.5915 24.311 15.9365 24.311ZM13.7345 37.5C13.0795 37.5 12.5465 36.968 12.5465 36.312C12.5465 35.656 13.0795 35.124 13.7345 35.124C14.3895 35.124 14.9225 35.656 14.9225 36.312C14.9225 36.968 14.3885 37.5 13.7345 37.5Z" fill="url(#paint0_linear)" stroke="url(#paint1_linear)"/>
<defs>
<linearGradient id="paint0_linear" x1="1" y1="1" x2="49.2267" y2="50.9078" gradientUnits="userSpaceOnUse">
<stop stop-color="#DE3535"/>
<stop offset="1" stop-color="#E46D2E"/>
</linearGradient>
<linearGradient id="paint1_linear" x1="25.9685" y1="1" x2="25.9685" y2="49.255" gradientUnits="userSpaceOnUse">
<stop stop-color="#DE3535"/>
<stop offset="1" stop-color="#E46D2E"/>
</linearGradient>
</defs>
</svg>
