<svg xmlns="http://www.w3.org/2000/svg" xmlns:xlink="http://www.w3.org/1999/xlink" viewBox="-4071 -13557 40 42.854">
  <defs>
    <style>
      .cls-1 {
        fill: url(#linear-gradient);
      }
    </style>
    <linearGradient id="linear-gradient" x2="1" y2="1" gradientUnits="objectBoundingBox">
      <stop offset="0" stop-color="#de3535"/>
      <stop offset="1" stop-color="#e46d2e"/>
    </linearGradient>
  </defs>
  <path id="Lean_approach_icon" data-name="Lean approach icon" class="cls-1" d="M-293.662-2404.147a11.178,11.178,0,0,1-6.954-2.424l-.77-.573v1.723a.988.988,0,0,1-.986,1.058h-6.46A1.141,1.141,0,0,1-310-2405.42v-17.12a1.172,1.172,0,0,1,1.166-1.1h6.46a1.02,1.02,0,0,1,.986,1.1v1.86l4.614,1.437a14.694,14.694,0,0,0,4.3.668h7.082a3.251,3.251,0,0,1,3.274,3.315v.386l7.313-3.55a3.374,3.374,0,0,1,3.246.167,3.285,3.285,0,0,1,1.554,2.8,3.3,3.3,0,0,1-1.443,2.728l-9.781,6.672a10.967,10.967,0,0,1-6.215,1.909Zm-7.725-5.761,2.12,1.659a9.016,9.016,0,0,0,5.6,1.949h6.223a8.826,8.826,0,0,0,5-1.534l9.782-6.667a1.153,1.153,0,0,0,.5-.951,1.129,1.129,0,0,0-.542-.978,1.129,1.129,0,0,0-1.116-.058l-8.818,4.305s-.005,0-.008,0a1.236,1.236,0,0,1-.115.048h-.007a21.827,21.827,0,0,1-6.443,1,17.317,17.317,0,0,1-2.749-.211,1.084,1.084,0,0,1-.9-1.234,1.056,1.056,0,0,1,1.212-.892,18.6,18.6,0,0,0,7.375-.486v-1.3a1.1,1.1,0,0,0-1.12-1.161h-7.082a16.85,16.85,0,0,1-4.94-.764l-3.977-1.241Zm-6.46,3.392h4.307v-14.966h-4.307Zm17.7-14.144a21.836,21.836,0,0,1-2.115-1.755c-1.571-1.49-2.336-2.75-2.336-3.855a3.382,3.382,0,0,1,3.378-3.378,3.379,3.379,0,0,1,1.7.459,3.382,3.382,0,0,1,1.7-.459,3.381,3.381,0,0,1,3.378,3.378c0,1.105-.763,2.366-2.335,3.855a21.781,21.781,0,0,1-2.116,1.755,1.075,1.075,0,0,1-.625.2A1.077,1.077,0,0,1-290.147-2420.659Zm-2.3-5.611c0,.688,1.436,2.216,2.921,3.387,1.484-1.174,2.922-2.7,2.922-3.387a1.226,1.226,0,0,0-1.225-1.224,1.21,1.21,0,0,0-.9.4,1.077,1.077,0,0,1-.795.35,1.076,1.076,0,0,1-.794-.35,1.212,1.212,0,0,0-.9-.4A1.225,1.225,0,0,0-292.443-2426.27Zm14.907-1.242a1.107,1.107,0,0,1-1.13-1.057v-1.861l-4.542-1.4a14.2,14.2,0,0,0-4.232-.633h-7.082a3.433,3.433,0,0,1-3.417-3.385v-.386l-7.241,3.549a3.231,3.231,0,0,1-3.173-.167,3.287,3.287,0,0,1-1.555-2.8,3.308,3.308,0,0,1,1.443-2.733l9.781-6.681a10.985,10.985,0,0,1,6.215-1.928h6.224a11,11,0,0,1,6.882,2.443l.7.593v-1.725a1.142,1.142,0,0,1,1.131-1.1h6.46a1.049,1.049,0,0,1,1.022,1.1v17.121a1.015,1.015,0,0,1-1.022,1.057Zm1.022-2.153h4.307v-14.967h-4.307Zm-19.273-7.487v1.3a1.278,1.278,0,0,0,1.265,1.231h7.082a16.372,16.372,0,0,1,4.868.729l3.905,1.206v-8.519l-2.047-1.678a8.838,8.838,0,0,0-5.533-1.967h-6.223a8.847,8.847,0,0,0-5,1.552l-9.781,6.685a1.153,1.153,0,0,0-.5.952,1.13,1.13,0,0,0,.542.977,1.131,1.131,0,0,0,1.116.059l8.817-4.306c.021-.01.041-.017.062-.026a.46.46,0,0,1,.061-.025h0a21.142,21.142,0,0,1,9.18-.783,1.072,1.072,0,0,1,.886,1.234,1.091,1.091,0,0,1-1.248.892,14.981,14.981,0,0,0-2.377-.182A21.176,21.176,0,0,0-295.788-2437.151Z" transform="translate(-3761 -11110)"/>
</svg>
