<svg xmlns="http://www.w3.org/2000/svg" xmlns:xlink="http://www.w3.org/1999/xlink" viewBox="-4374.916 -19698.775 150.141 17.561">
  <defs>
    <style>
      .cls-1 {
        fill: #2e4371;
        stroke: rgba(0,0,0,0);
      }

      .cls-2 {
        clip-path: url(#clip-path);
      }

      .cls-3 {
        fill: #de4f4f;
      }
    </style>
    <clipPath id="clip-path">
      <path id="Path_7070" data-name="Path 7070" class="cls-1" d="M15.288,0,8.5-8.5l6.36-7.512h-4.2L4.992-8.88v-7.128H1.584V0H4.992V-4.92L6.24-6.432,11.088,0ZM28.176,0V-3h-7.92V-6.648h7.752v-3H20.256v-3.36h7.92v-3H16.848V0ZM42.168,0V-3h-7.92V-6.648H42v-3H34.248v-3.36h7.92v-3H30.84V0ZM59.16,0V-16.008H55.752V-5.952L48.336-16.008h-3.5V0H48.24V-10.44L55.872,0Zm5.424.33a2.459,2.459,0,0,0,2.43-2.43,2.459,2.459,0,0,0-2.43-2.43,2.459,2.459,0,0,0-2.43,2.43A2.459,2.459,0,0,0,64.584.33ZM81.366,0V-3h-7.92V-6.648H81.2v-3H73.446v-3.36h7.92v-3H70.038V0Zm9.792,0V-13.008h4.656v-3H83.046v3h4.68V0ZM112.4,0V-16.008h-3.432V-9.72h-7.56v-6.288H98V0h3.408V-6.744h7.56V0Zm6.552,0V-16.008h-3.408V0Zm10.944.288a7.333,7.333,0,0,0,6.672-3.936l-2.928-1.416a4.33,4.33,0,0,1-3.744,2.328,4.99,4.99,0,0,1-5.04-5.256,4.99,4.99,0,0,1,5.04-5.256,4.33,4.33,0,0,1,3.744,2.328l2.928-1.44a7.274,7.274,0,0,0-6.672-3.912c-4.824,0-8.544,3.336-8.544,8.28C121.35-3.072,125.07.288,129.894.288Zm14.424,0c4.3,0,6.408-2.208,6.408-5.136,0-5.976-9.192-4.272-9.192-6.792,0-.96.816-1.584,2.256-1.584a6.876,6.876,0,0,1,4.656,1.752l1.9-2.544a8.9,8.9,0,0,0-6.24-2.232c-3.768,0-6.072,2.208-6.072,4.872,0,6.024,9.216,4.08,9.216,6.864,0,.936-.888,1.776-2.784,1.776a7.033,7.033,0,0,1-5.088-2.184L137.5-2.256A9.244,9.244,0,0,0,144.318.288Z" transform="translate(50 50)"/>
    </clipPath>
  </defs>
  <g id="Group_2011" data-name="Group 2011" transform="translate(-4426 -19732)">
    <path id="Path_7074" data-name="Path 7074" class="cls-1" d="M4568.733,19748.559a9.252,9.252,0,0,1-6.815-2.543l1.874-2.662a7,7,0,0,0,5.085,2.182c2.056,0,2.786-.955,2.786-1.775,0-1.129-1.532-1.486-3.306-1.9-2.635-.617-5.909-1.383-5.909-4.969,0-2.869,2.5-4.873,6.072-4.873a8.867,8.867,0,0,1,6.241,2.236l-1.9,2.543a6.889,6.889,0,0,0-4.654-1.754c-1.412,0-2.255.592-2.255,1.586s1.389,1.318,3.147,1.734c2.693.639,6.042,1.43,6.042,5.055C4575.142,19746.59,4572.686,19748.559,4568.733,19748.559Zm-14.424,0c-4.949,0-8.541-3.482-8.541-8.279s3.592-8.281,8.541-8.281a7.279,7.279,0,0,1,6.671,3.916l-2.924,1.438a4.353,4.353,0,0,0-3.747-2.33,5.261,5.261,0,0,0,0,10.514,4.348,4.348,0,0,0,3.747-2.33l2.924,1.418A7.336,7.336,0,0,1,4554.309,19748.559Zm-28.486-.287h0l-3.409,0v-16h3.41v6.285h7.559v-6.285h3.43v16l-3.43,0v-6.74h-7.559v6.742Zm-53.165,0h0l-3.409,0v-16h3.5l7.415,10.057v-10.057h3.41v16l-3.291,0-7.628-10.437v10.439Zm-43.252,0h0l-3.4,0v-16h3.405v7.127l5.666-7.127h4.2l-6.359,7.51,6.794,8.492-4.2,0-4.848-6.428-1.249,1.512v4.918Zm113.958,0h-3.4v-16h3.405v16Zm-27.792,0h-3.429v-13.006h-4.679v-3h12.769v3h-4.66v13.006Zm-9.789,0h-11.33v-16h11.331v3h-7.921v3.361h7.752v3h-7.752v3.648h7.921v3Zm-39.2,0h-11.33v-16h11.331v3h-7.921v3.361h7.752v3h-7.752v3.648h7.921v3Zm-13.993,0h-11.33v-16h11.331v3h-7.921v3.361h7.752v3h-7.752v3.648h7.921v3Zm38.823-1.852h0v-.508a2.286,2.286,0,0,1,0,.508Z" transform="translate(-4374.416 -19698.271)"/>
    <g id="Mask_Group_15" data-name="Mask Group 15" class="cls-2">
      <rect id="Rectangle_2292" data-name="Rectangle 2292" class="cls-3" width="6" height="8" transform="translate(112 44)"/>
    </g>
  </g>
</svg>
