<svg xmlns="http://www.w3.org/2000/svg" viewBox="-4374.916 -19698.775 150.141 17.561"><defs><style>.cls-1{fill:#2e4371;stroke:rgba(0,0,0,0)}.cls-2{clip-path:url(#clip-path)}.cls-3{fill:#de4f4f}</style><clipPath id="clip-path"><path id="Path_7070" data-name="Path 7070" class="cls-1" d="M15.288 0L8.5-8.5l6.36-7.512h-4.2L4.992-8.88v-7.128H1.584V0h3.408v-4.92L6.24-6.432 11.088 0zm12.888 0v-3h-7.92v-3.648h7.752v-3h-7.752v-3.36h7.92v-3H16.848V0zm13.992 0v-3h-7.92v-3.648H42v-3h-7.752v-3.36h7.92v-3H30.84V0zM59.16 0v-16.008h-3.408v10.056l-7.416-10.056h-3.5V0h3.404v-10.44L55.872 0zm5.424.33a2.459 2.459 0 0 0 2.43-2.43 2.459 2.459 0 0 0-2.43-2.43 2.459 2.459 0 0 0-2.43 2.43 2.459 2.459 0 0 0 2.43 2.43zM81.366 0v-3h-7.92v-3.648H81.2v-3h-7.754v-3.36h7.92v-3H70.038V0zm9.792 0v-13.008h4.656v-3H83.046v3h4.68V0zM112.4 0v-16.008h-3.432v6.288h-7.56v-6.288H98V0h3.408v-6.744h7.56V0zm6.552 0v-16.008h-3.408V0zm10.944.288a7.333 7.333 0 0 0 6.672-3.936l-2.928-1.416a4.33 4.33 0 0 1-3.744 2.328 4.99 4.99 0 0 1-5.04-5.256 4.99 4.99 0 0 1 5.04-5.256 4.33 4.33 0 0 1 3.744 2.328l2.928-1.44a7.274 7.274 0 0 0-6.672-3.912c-4.824 0-8.544 3.336-8.544 8.28-.002 4.92 3.718 8.28 8.542 8.28zm14.424 0c4.3 0 6.408-2.208 6.408-5.136 0-5.976-9.192-4.272-9.192-6.792 0-.96.816-1.584 2.256-1.584a6.876 6.876 0 0 1 4.656 1.752l1.9-2.544a8.9 8.9 0 0 0-6.24-2.232c-3.768 0-6.072 2.208-6.072 4.872 0 6.024 9.216 4.08 9.216 6.864 0 .936-.888 1.776-2.784 1.776a7.033 7.033 0 0 1-5.088-2.184l-1.88 2.664a9.244 9.244 0 0 0 6.818 2.544z" transform="translate(50 50)"/></clipPath></defs><g id="Group_2011" data-name="Group 2011" transform="translate(-4426 -19732)"><path id="Path_7074" data-name="Path 7074" class="cls-1" d="M4568.733 19748.559a9.252 9.252 0 0 1-6.815-2.543l1.874-2.662a7 7 0 0 0 5.085 2.182c2.056 0 2.786-.955 2.786-1.775 0-1.129-1.532-1.486-3.306-1.9-2.635-.617-5.909-1.383-5.909-4.969 0-2.869 2.5-4.873 6.072-4.873a8.867 8.867 0 0 1 6.241 2.236l-1.9 2.543a6.889 6.889 0 0 0-4.654-1.754c-1.412 0-2.255.592-2.255 1.586s1.389 1.318 3.147 1.734c2.693.639 6.042 1.43 6.042 5.055.001 3.171-2.455 5.14-6.408 5.14zm-14.424 0c-4.949 0-8.541-3.482-8.541-8.279s3.592-8.281 8.541-8.281a7.279 7.279 0 0 1 6.671 3.916l-2.924 1.438a4.353 4.353 0 0 0-3.747-2.33 5.261 5.261 0 0 0 0 10.514 4.348 4.348 0 0 0 3.747-2.33l2.924 1.418a7.336 7.336 0 0 1-6.671 3.934zm-28.486-.287h-3.409v-16h3.41v6.285h7.559v-6.285h3.43v16h-3.43v-6.74h-7.559v6.742zm-53.165 0h-3.409v-16h3.5l7.415 10.057v-10.057h3.41v16h-3.291l-7.628-10.437v10.439zm-43.252 0h-3.4v-16h3.405v7.127l5.666-7.127h4.2l-6.359 7.51 6.794 8.492h-4.2l-4.848-6.428-1.249 1.512v4.918zm113.958 0h-3.4v-16h3.405v16zm-27.792 0h-3.429v-13.006h-4.679v-3h12.769v3h-4.66v13.006zm-9.789 0h-11.33v-16h11.331v3h-7.921v3.361h7.752v3h-7.752v3.648h7.921v3zm-39.2 0h-11.33v-16h11.331v3h-7.921v3.361h7.752v3h-7.752v3.648h7.921v3zm-13.993 0h-11.33v-16h11.331v3h-7.921v3.361h7.752v3h-7.752v3.648h7.921v3zm38.823-1.852v-.508a2.286 2.286 0 0 1 0 .508z" transform="translate(-4374.416 -19698.271)"/><g id="Mask_Group_15" data-name="Mask Group 15" class="cls-2"><path id="Rectangle_2292" data-name="Rectangle 2292" class="cls-3" transform="translate(112 44)" d="M0 0h6v8H0z"/></g></g></svg>