<?xml version="1.0" encoding="utf-8"?>
<!-- Generator: Adobe Illustrator 21.0.0, SVG Export Plug-In . SVG Version: 6.00 Build 0)  -->
<svg version="1.1" id="Слой_1" xmlns="http://www.w3.org/2000/svg" xmlns:xlink="http://www.w3.org/1999/xlink" x="0px" y="0px"
	 viewBox="0 0 186.9 186.9" style="enable-background:new 0 0 186.9 186.9;" xml:space="preserve">
<style type="text/css">
	.st0{opacity:0.3;fill:#3F47CC;enable-background:new    ;}
	.st1{fill:#4C5CA2;}
	.st2{fill:#FFFFFF;}
	.st3{fill:#7E92CB;}
	.st4{fill:#7383BF;}
	.st5{fill:#E7F3FC;}
	.st6{fill:#518EF8;}
	.st7{fill:#3A5BBC;}
	.st8{fill:#ACD1FC;}
</style>
<g id="Mail_icon" transform="translate(-3506.914 12505.999)">
	<g transform="translate(3506.91 -12506)">
		<path id="Shadow-2" class="st0" d="M155.9,146.9H30.3c0,0,0,0,0,0H30v-70l13.1-12.2v-25H70l19.4-18.1c2.3-2.1,5.9-2.1,8.1,0
			L117,39.7h26.8v25l13.1,12.2v70h-0.2c0,0,0,0,0,0H155.9z"/>
	</g>
	<path id="Path_4860" class="st1" d="M3650.7-12441.3v19.5l-50.3,27.7l-50.3-27.7v-19.5l-13.1,12.2v70h126.9v-70L3650.7-12441.3z"/>
	<g id="Group_1631" transform="translate(13.129 19.685)">
		<path id="Path_4864" class="st2" d="M3587.2-12413.8l50.3-27.7v-44.4h-100.7v44.4L3587.2-12413.8z"/>
	</g>
	<path id="Path_4861" class="st1" d="M3623.9-12466.3l-19.4-18.1c-2.3-2.1-5.9-2.1-8.1,0l-19.4,18.1H3623.9z"/>
	<path id="Path_4862" class="st3" d="M3537.1-12429l125.8,69.4l-0.1,0.5h-125.6c-0.2,0-0.3-0.1-0.3-0.3v-69.5
		C3536.9-12429,3537-12429,3537.1-12429C3537.1-12429,3537.1-12429,3537.1-12429z"/>
	<path id="Path_4863" class="st4" d="M3663.6-12429l-63.3,34.9l62.6,34.5l-0.1,0.5h0.7c0.2,0,0.3-0.1,0.3-0.3v-69.5
		C3663.8-12429,3663.8-12429,3663.6-12429C3663.7-12429,3663.6-12429,3663.6-12429z"/>
	<path id="Path_4865" class="st5" d="M3606.9-12448.8h-13.1c-1.2,0-2.2-1-2.2-2.2s1-2.2,2.2-2.2h13.1c1.2,0,2.2,1,2.2,2.2
		S3608.1-12448.8,3606.9-12448.8z"/>
	<path id="Path_4866" class="st5" d="M3626.6-12416h-15.3c-1.2,0-2.2-1-2.2-2.2c0-1.2,1-2.2,2.2-2.2h15.3c1.2,0,2.2,1,2.2,2.2
		C3628.8-12417,3627.8-12416,3626.6-12416z"/>
	<path id="Path_4867" class="st5" d="M3582.9-12433.5h-10.9c-1.2,0-2.2-1-2.2-2.2c0-1.2,1-2.2,2.2-2.2h10.9c1.2,0,2.2,1,2.2,2.2
		C3585-12434.5,3584.1-12433.5,3582.9-12433.5z"/>
	<path id="Path_4868" class="st5" d="M3617.9-12433.5h-17.5c-1.2,0-2.2-1-2.2-2.2c0-1.2,1-2.2,2.2-2.2h17.5c1.2,0,2.2,1,2.2,2.2
		C3620.1-12434.5,3619.1-12433.5,3617.9-12433.5L3617.9-12433.5z"/>
	<path id="Path_4869" class="st5" d="M3591.6-12433.5c-1.2,0-2.2-0.9-2.2-2.1c0,0,0,0,0,0c0-0.6,0.2-1.1,0.6-1.6
		c0.9-0.8,2.2-0.8,3.1,0c0.4,0.4,0.6,1,0.6,1.6C3593.8-12434.5,3592.9-12433.5,3591.6-12433.5
		C3591.6-12433.5,3591.6-12433.5,3591.6-12433.5L3591.6-12433.5z"/>
	<path id="Path_4870" class="st5" d="M3602.6-12416h-21.9c-1.2,0-2.2-1-2.2-2.2c0-1.2,1-2.2,2.2-2.2h21.9c1.2,0,2.2,1,2.2,2.2
		C3604.7-12417,3603.8-12416,3602.6-12416z"/>
	<path id="Path_4871" class="st5" d="M3571.9-12416c-0.6,0-1.1-0.2-1.6-0.6c-0.4-0.4-0.6-1-0.6-1.6c0-0.6,0.2-1.1,0.6-1.6
		c0.9-0.8,2.2-0.8,3.1,0c0.4,0.4,0.6,1,0.6,1.6C3574.1-12417,3573.2-12416,3571.9-12416C3571.9-12416,3571.9-12416,3571.9-12416
		L3571.9-12416z"/>
	<path id="Path_4872" class="st5" d="M3626.6-12433.5c-1.2,0-2.2-0.9-2.2-2.1c0,0,0,0,0,0c0-0.6,0.2-1.1,0.6-1.6
		c0.9-0.8,2.3-0.7,3.1,0.2c0.7,0.8,0.7,2.1,0,2.9C3627.8-12433.7,3627.2-12433.5,3626.6-12433.5z"/>
</g>
</svg>
