<svg version="1.1" id="Слой_1" xmlns="http://www.w3.org/2000/svg" x="0" y="0" viewBox="0 0 186.9 186.9" xml:space="preserve"><style>.st1{fill:#4c5ca2}.st5{fill:#e7f3fc}</style><g id="Mail_icon" transform="translate(-3506.914 12505.999)"><g transform="translate(3506.91 -12506)"><path id="Shadow-2" d="M155.9 146.9H30v-70l13.1-12.2v-25H70l19.4-18.1c2.3-2.1 5.9-2.1 8.1 0L117 39.7h26.8v25l13.1 12.2v70h-1z" opacity=".3" fill="#3f47cc"/></g><path id="Path_4860" class="st1" d="M3650.7-12441.3v19.5l-50.3 27.7-50.3-27.7v-19.5l-13.1 12.2v70h126.9v-70l-13.2-12.2z"/><g id="Group_1631" transform="translate(13.129 19.685)"><path id="Path_4864" d="M3587.2-12413.8l50.3-27.7v-44.4h-100.7v44.4l50.4 27.7z" fill="#fff"/></g><path id="Path_4861" class="st1" d="M3623.9-12466.3l-19.4-18.1c-2.3-2.1-5.9-2.1-8.1 0l-19.4 18.1h46.9z"/><path id="Path_4862" d="M3537.1-12429l125.8 69.4-.1.5h-125.6c-.2 0-.3-.1-.3-.3v-69.5c0-.1.1-.1.2-.1z" fill="#7e92cb"/><path id="Path_4863" d="M3663.6-12429l-63.3 34.9 62.6 34.5-.1.5h.7c.2 0 .3-.1.3-.3v-69.5c0-.1 0-.1-.2-.1.1 0 0 0 0 0z" fill="#7383bf"/><path id="Path_4865" class="st5" d="M3606.9-12448.8h-13.1c-1.2 0-2.2-1-2.2-2.2s1-2.2 2.2-2.2h13.1c1.2 0 2.2 1 2.2 2.2s-1 2.2-2.2 2.2z"/><path id="Path_4866" class="st5" d="M3626.6-12416h-15.3c-1.2 0-2.2-1-2.2-2.2 0-1.2 1-2.2 2.2-2.2h15.3c1.2 0 2.2 1 2.2 2.2 0 1.2-1 2.2-2.2 2.2z"/><path id="Path_4867" class="st5" d="M3582.9-12433.5H3572c-1.2 0-2.2-1-2.2-2.2 0-1.2 1-2.2 2.2-2.2h10.9c1.2 0 2.2 1 2.2 2.2-.1 1.2-1 2.2-2.2 2.2z"/><path id="Path_4868" class="st5" d="M3617.9-12433.5h-17.5c-1.2 0-2.2-1-2.2-2.2 0-1.2 1-2.2 2.2-2.2h17.5c1.2 0 2.2 1 2.2 2.2 0 1.2-1 2.2-2.2 2.2z"/><path id="Path_4869" class="st5" d="M3591.6-12433.5c-1.2 0-2.2-.9-2.2-2.1 0-.6.2-1.1.6-1.6.9-.8 2.2-.8 3.1 0 .4.4.6 1 .6 1.6.1 1.1-.8 2.1-2.1 2.1z"/><path id="Path_4870" class="st5" d="M3602.6-12416h-21.9c-1.2 0-2.2-1-2.2-2.2 0-1.2 1-2.2 2.2-2.2h21.9c1.2 0 2.2 1 2.2 2.2-.1 1.2-1 2.2-2.2 2.2z"/><path id="Path_4871" class="st5" d="M3571.9-12416c-.6 0-1.1-.2-1.6-.6-.4-.4-.6-1-.6-1.6 0-.6.2-1.1.6-1.6.9-.8 2.2-.8 3.1 0 .4.4.6 1 .6 1.6.1 1.2-.8 2.2-2.1 2.2z"/><path id="Path_4872" class="st5" d="M3626.6-12433.5c-1.2 0-2.2-.9-2.2-2.1 0-.6.2-1.1.6-1.6.9-.8 2.3-.7 3.1.2.7.8.7 2.1 0 2.9-.3.4-.9.6-1.5.6z"/></g></svg>