<svg xmlns="http://www.w3.org/2000/svg" xmlns:xlink="http://www.w3.org/1999/xlink" viewBox="-4071 -13199 40 44.738">
  <defs>
    <style>
      .cls-1 {
        fill: url(#linear-gradient);
      }
    </style>
    <linearGradient id="linear-gradient" x2="1" y2="1" gradientUnits="objectBoundingBox">
      <stop offset="0" stop-color="#de3535"/>
      <stop offset="1" stop-color="#e46d2e"/>
    </linearGradient>
  </defs>
  <path id="Minimun_VP_icon" data-name="Minimun VP icon" class="cls-1" d="M-293.662-2949.262a11.206,11.206,0,0,1-6.954-2.452l-.77-.6v1.724a1.035,1.035,0,0,1-.986,1.112h-6.46a1.187,1.187,0,0,1-1.166-1.112v-17.12a1.127,1.127,0,0,1,1.166-1.041h6.46a.973.973,0,0,1,.986,1.041v1.86l4.614,1.465a14.751,14.751,0,0,0,4.3.694h7.082a3.207,3.207,0,0,1,3.274,3.262v.385l7.313-3.549a3.371,3.371,0,0,1,3.246.167,3.3,3.3,0,0,1,1.554,2.808,3.311,3.311,0,0,1-1.443,2.735l-9.781,6.685a11,11,0,0,1-6.215,1.936Zm-7.725-5.816,2.12,1.687a9.043,9.043,0,0,0,5.6,1.975h6.223a8.847,8.847,0,0,0,5-1.562l9.781-6.693a1.152,1.152,0,0,0,.5-.952,1.13,1.13,0,0,0-.542-.977,1.131,1.131,0,0,0-1.116-.058l-8.818,4.306-.009,0a1.18,1.18,0,0,1-.117.049,21.868,21.868,0,0,1-6.448,1,17.4,17.4,0,0,1-2.749-.212,1.084,1.084,0,0,1-.9-1.234,1.055,1.055,0,0,1,1.212-.892,18.6,18.6,0,0,0,7.375-.486v-1.3a1.054,1.054,0,0,0-1.12-1.108h-7.082a16.891,16.891,0,0,1-4.94-.791l-3.977-1.267Zm-6.46,3.447h4.307V-2966.6h-4.307Zm17.12-19.7a5.12,5.12,0,0,1,5.115-5.115,5.12,5.12,0,0,1,5.114,5.115,5.12,5.12,0,0,1-5.114,5.114A5.12,5.12,0,0,1-290.727-2971.335Zm2.154,0a2.964,2.964,0,0,0,2.961,2.96,2.964,2.964,0,0,0,2.961-2.96,2.964,2.964,0,0,0-2.961-2.961A2.964,2.964,0,0,0-288.573-2971.335Zm-10.983-8.829a5.12,5.12,0,0,1,5.115-5.115,5.12,5.12,0,0,1,5.114,5.115,5.12,5.12,0,0,1-5.114,5.114A5.12,5.12,0,0,1-299.556-2980.164Zm2.154,0a2.964,2.964,0,0,0,2.961,2.961,2.964,2.964,0,0,0,2.961-2.961,2.965,2.965,0,0,0-2.961-2.962A2.965,2.965,0,0,0-297.4-2980.164Zm6.568-8.722A5.121,5.121,0,0,1-285.72-2994a5.121,5.121,0,0,1,5.115,5.115,5.121,5.121,0,0,1-5.115,5.115A5.12,5.12,0,0,1-290.834-2988.886Zm2.153,0a2.965,2.965,0,0,0,2.961,2.961,2.965,2.965,0,0,0,2.961-2.961,2.964,2.964,0,0,0-2.961-2.961A2.964,2.964,0,0,0-288.681-2988.886Z" transform="translate(-3761 -10205)"/>
</svg>
