<svg xmlns="http://www.w3.org/2000/svg" xmlns:xlink="http://www.w3.org/1999/xlink" viewBox="-4068 5999 34.798 45">
  <defs>
    <style>
      .cls-1 {
        fill: url(#linear-gradient);
      }
    </style>
    <linearGradient id="linear-gradient" x2="1" y2="1" gradientUnits="objectBoundingBox">
      <stop offset="0" stop-color="#de3535"/>
      <stop offset="1" stop-color="#e46d2e"/>
    </linearGradient>
  </defs>
  <path id="Open_Source_icon" data-name="Open Source icon" class="cls-1" d="M24.408,2.967a9.883,9.883,0,0,1,9.871,9.872,1.484,1.484,0,0,0,2.968,0,12.838,12.838,0,1,0-25.677,0v4.979h-.109A4.456,4.456,0,0,0,7.01,22.269V40.548A4.456,4.456,0,0,0,11.461,45H37.356a4.457,4.457,0,0,0,4.452-4.452V22.269a4.456,4.456,0,0,0-4.452-4.451H14.538V12.839a9.883,9.883,0,0,1,9.87-9.872Zm14.432,19.3V40.548a1.485,1.485,0,0,1-1.484,1.485H11.461a1.486,1.486,0,0,1-1.484-1.485V22.269a1.486,1.486,0,0,1,1.484-1.483H37.356A1.486,1.486,0,0,1,38.84,22.269Z" transform="translate(-4075.01 5999)"/>
</svg>
