<svg xmlns="http://www.w3.org/2000/svg" xmlns:xlink="http://www.w3.org/1999/xlink" viewBox="-4069 -17127 40 48">
  <defs>
    <style>
      .cls-1 {
        fill: url(#linear-gradient);
      }
    </style>
    <linearGradient id="linear-gradient" x2="1" y2="1" gradientUnits="objectBoundingBox">
      <stop offset="0" stop-color="#de3535"/>
      <stop offset="1" stop-color="#e46d2e"/>
    </linearGradient>
  </defs>
  <path id="Outstaffing" class="cls-1" d="M-311-2045a1,1,0,0,1-1-1v-2.516c0-.252.215-6.19,10.111-9.409a24.315,24.315,0,0,0,3.89-2.489v-2.173a12.335,12.335,0,0,1-5.728-8.487A4.213,4.213,0,0,1-307-2075c0-1.559,1.148-2.644,3-2.927v-1.556c-.016-.481-.139-6.389,3.579-10.266A11.172,11.172,0,0,1-292-2093a11.161,11.161,0,0,1,8.405,3.244c3.729,3.881,3.61,9.8,3.595,10.274v1.555c1.851.282,3,1.368,3,2.927a4.214,4.214,0,0,1-3.272,3.926,12.335,12.335,0,0,1-5.728,8.487v2.173a24.36,24.36,0,0,0,3.887,2.488c9.965,3.19,10.111,9.167,10.113,9.421V-2046a1,1,0,0,1-1,1Zm22.684-12.61,1.264,3.794a1,1,0,0,1,0,.633l-2.061,6.184H-274v-1.487a5.562,5.562,0,0,0-1.116-2.706c-1.012-1.425-3.167-3.423-7.686-4.854a31.2,31.2,0,0,1-4.164-2.571A9.38,9.38,0,0,1-288.316-2057.61Zm-6.63,4.11,2.167,6.5h1.558l2.167-6.5-1.093-3.275a6.474,6.474,0,0,1-1.853.275,6.414,6.414,0,0,1-1.854-.276Zm-6.247-2.548c-2.48.8-5.824,2.292-7.671,4.871a5.651,5.651,0,0,0-1.136,2.7v1.48h15.112l-2.061-6.184a1,1,0,0,1,0-.633l1.264-3.793a9.376,9.376,0,0,1-1.35-1.008A31.243,31.243,0,0,1-301.193-2056.048Zm5.193-4.343a7.193,7.193,0,0,0,1.967,1.407,4.52,4.52,0,0,0,4.062,0,7.206,7.206,0,0,0,1.972-1.409v-1.269a12.067,12.067,0,0,1-4,.661,12.062,12.062,0,0,1-4-.661Zm-1.562-18.751a42.945,42.945,0,0,1-4.438.578V-2074a15.185,15.185,0,0,0,.121,1.851,10.415,10.415,0,0,0,5.4,8.118A9.808,9.808,0,0,0-292-2063a9.8,9.8,0,0,0,4.478-1.032,10.413,10.413,0,0,0,5.4-8.117A15.185,15.185,0,0,0-282-2074v-4.526a23.033,23.033,0,0,1-10.027-3C-292.861-2080.475-294.693-2079.689-297.562-2079.142Zm17.546,5.823A2.217,2.217,0,0,0-279-2075c0-.526-.49-.776-1-.9C-280-2075.9-280.007-2073.55-280.017-2073.319ZM-305-2075a2.218,2.218,0,0,0,1.018,1.68c-.011-.23-.018-2.576-.018-2.576C-304.51-2075.775-305-2075.525-305-2075Zm13.078-8.816a21.2,21.2,0,0,0,9.9,3.285c-.112-1.735-.636-5.374-3.02-7.847A9.242,9.242,0,0,0-292-2091a9.25,9.25,0,0,0-6.978,2.636c-2.363,2.462-2.886,6.044-3,7.79a40.291,40.291,0,0,0,4.055-.536,14.349,14.349,0,0,0,3.355-.983c.786-.375,1.065-.723,1.065-.906a1,1,0,0,1,.541-.888,1,1,0,0,1,.459-.112A1,1,0,0,1-291.922-2083.816Zm6.422,34.316v-2h7v2Z" transform="translate(-3757 -15034)"/>
</svg>
