<svg xmlns="http://www.w3.org/2000/svg" xmlns:xlink="http://www.w3.org/1999/xlink" viewBox="-4069 -16919 40 45.762">
  <defs>
    <style>
      .cls-1 {
        fill: url(#linear-gradient);
      }
    </style>
    <linearGradient id="linear-gradient" x2="1" y2="1" gradientUnits="objectBoundingBox">
      <stop offset="0" stop-color="#de3535"/>
      <stop offset="1" stop-color="#e46d2e"/>
    </linearGradient>
  </defs>
  <path id="Proof_of_Concept_icon" data-name="Proof of Concept icon" class="cls-1" d="M-295.662-3218.239a11.2,11.2,0,0,1-6.954-2.452l-.77-.6v1.723a1.035,1.035,0,0,1-.987,1.112h-6.46a1.188,1.188,0,0,1-1.166-1.112v-17.12a1.127,1.127,0,0,1,1.166-1.04h6.46a.973.973,0,0,1,.987,1.04v1.86l4.614,1.465a14.727,14.727,0,0,0,4.3.694h7.082a3.207,3.207,0,0,1,3.274,3.261v.385l7.313-3.549a3.37,3.37,0,0,1,3.246.167A3.294,3.294,0,0,1-272-3229.6a3.311,3.311,0,0,1-1.443,2.735l-9.781,6.685a11,11,0,0,1-6.215,1.936Zm-7.725-5.816,2.12,1.687a9.042,9.042,0,0,0,5.6,1.976h6.223a8.848,8.848,0,0,0,5-1.562l9.781-6.693a1.152,1.152,0,0,0,.5-.952,1.133,1.133,0,0,0-.542-.978,1.132,1.132,0,0,0-1.117-.058l-8.818,4.306-.008,0a1.122,1.122,0,0,1-.117.048,21.854,21.854,0,0,1-6.449,1,17.418,17.418,0,0,1-2.748-.21,1.086,1.086,0,0,1-.9-1.234,1.055,1.055,0,0,1,1.212-.892,18.6,18.6,0,0,0,7.376-.486v-1.3a1.055,1.055,0,0,0-1.121-1.108h-7.082a16.878,16.878,0,0,1-4.94-.791l-3.977-1.267Zm-6.46,3.447h4.307v-14.967h-4.307Zm17.506-14.644a1.122,1.122,0,0,1-.771-.345l-1.991-2.021a1.088,1.088,0,0,1-.531-.918v-3.445c0-.013.016-.024.017-.036s.014-.022.015-.034a7.651,7.651,0,0,0-2.04-5.168c-.019-.02-.316-.307-.326-.318a9.747,9.747,0,0,1-2.636-6.679,9.8,9.8,0,0,1,9.795-9.785h.006a9.8,9.8,0,0,1,9.794,9.785,9.7,9.7,0,0,1-2.638,6.66l-.333.341a7.654,7.654,0,0,0-2.041,5.163c0,.012-.011.023-.01.034s-.02.023-.02.036v3.445a1.085,1.085,0,0,1-.383.855l-2.038,2.084a1.1,1.1,0,0,1-.763.345Zm-1.14-3.773,1.588,1.619h2.21l1.48-1.585v-1.86h-5.277Zm3.8-6.655a1.058,1.058,0,0,1,.078.465V-3243h1.5a9.7,9.7,0,0,1,2.558-5.65c.017-.019.319-.358.335-.374a7.642,7.642,0,0,0,2.055-5.225,7.683,7.683,0,0,0-7.645-7.67,7.687,7.687,0,0,0-7.645,7.676,7.663,7.663,0,0,0,2.058,5.237l.331.356A9.7,9.7,0,0,1-293.5-3243h1.746v-1.964l-4.253-8.916a1.088,1.088,0,0,1,.531-1.436,2.742,2.742,0,0,1,.706-.12,6.658,6.658,0,0,1,2.336.375,4.573,4.573,0,0,0,1.675.271,4.575,4.575,0,0,0,1.676-.271,6.655,6.655,0,0,1,2.336-.375,1.077,1.077,0,0,1,1.076,1.077,1.077,1.077,0,0,1-1.077,1.076,4.575,4.575,0,0,0-1.676.271,6.649,6.649,0,0,1-2.337.375,6.662,6.662,0,0,1-2.339-.375l-.1-.031Z" transform="translate(-3757 -13655)"/>
</svg>
