<svg xmlns="http://www.w3.org/2000/svg" viewBox="6251 -12936 37 35.288">
  <defs>
    <style>
      .cls-1 {
        fill: #fff;
      }
    </style>
  </defs>
  <path id="Cross_Reviews_icon" data-name="Cross Reviews icon" class="cls-1" d="M37,24.665q0-.823-1.245-1.023L24.593,22.019l-5-10.117q-.422-.912-1.09-.912t-1.089.912l-5,10.117L1.245,23.642Q0,23.842,0,24.665a1.694,1.694,0,0,0,.556,1.067L8.65,33.6,6.738,44.721a3.611,3.611,0,0,0-.044.445,1.311,1.311,0,0,0,.233.789.807.807,0,0,0,.7.323,1.886,1.886,0,0,0,.889-.267L18.5,40.763l9.984,5.248a1.8,1.8,0,0,0,.889.267q.913,0,.912-1.111a3.368,3.368,0,0,0-.022-.445L28.351,33.6l8.071-7.871A1.61,1.61,0,0,0,37,24.665ZM25.282,32.6l1.6,9.361L18.5,37.539l-8.405,4.425L11.718,32.6,4.914,26,14.3,24.62l4.2-8.494,4.2,8.494L32.086,26Z" transform="translate(6251 -12946.99)"/>
</svg>
