<svg xmlns="http://www.w3.org/2000/svg" viewBox="6251 -12936 37 35.288"><defs><style>.cls-1{fill:#fff}</style></defs><path id="Cross_Reviews_icon" data-name="Cross Reviews icon" class="cls-1" d="M37 24.665q0-.823-1.245-1.023l-11.162-1.623-5-10.117q-.422-.912-1.09-.912t-1.089.912l-5 10.117-11.169 1.623Q0 23.842 0 24.665a1.694 1.694 0 0 0 .556 1.067L8.65 33.6 6.738 44.721a3.611 3.611 0 0 0-.044.445 1.311 1.311 0 0 0 .233.789.807.807 0 0 0 .7.323 1.886 1.886 0 0 0 .889-.267l9.984-5.248 9.984 5.248a1.8 1.8 0 0 0 .889.267q.913 0 .912-1.111a3.368 3.368 0 0 0-.022-.445L28.351 33.6l8.071-7.871A1.61 1.61 0 0 0 37 24.665zM25.282 32.6l1.6 9.361-8.382-4.422-8.405 4.425 1.623-9.364L4.914 26l9.386-1.38 4.2-8.494 4.2 8.494L32.086 26z" transform="translate(6251 -12946.99)"/></svg>