<svg xmlns="http://www.w3.org/2000/svg" viewBox="6711 -12939 36.259 41.388"><defs><style>.cls-1{fill:#fff}</style></defs><path id="loupe" class="cls-1" d="M22.294 9.088a12.18 12.18 0 0 0 1.225 9.3 12.248 12.248 0 0 0 15.428 5.145l6.376 11.047 2.548-1.471-6.377-11.044a12.256 12.256 0 0 0 3.259-15.934 12.255 12.255 0 0 0-16.747-4.487 12.18 12.18 0 0 0-5.712 7.444zm11.832-6.146A9.353 9.353 0 0 1 42.205 7.6a9.32 9.32 0 0 1-8.059 13.98 9.353 9.353 0 0 1-8.079-4.66 9.32 9.32 0 0 1 8.059-13.978z" transform="rotate(-20 -33298.706 -25433.022)"/></svg>