<svg xmlns="http://www.w3.org/2000/svg" viewBox="6711 -12939 36.259 41.388">
  <defs>
    <style>
      .cls-1 {
        fill: #fff;
      }
    </style>
  </defs>
  <path id="loupe" class="cls-1" d="M22.294,9.088a12.18,12.18,0,0,0,1.225,9.3,12.248,12.248,0,0,0,15.428,5.145L45.323,34.58l2.548-1.471L41.494,22.065A12.256,12.256,0,0,0,44.753,6.131,12.255,12.255,0,0,0,28.006,1.644,12.18,12.18,0,0,0,22.294,9.088ZM34.126,2.942A9.353,9.353,0,0,1,42.205,7.6,9.32,9.32,0,0,1,34.146,21.58a9.353,9.353,0,0,1-8.079-4.66A9.32,9.32,0,0,1,34.126,2.942Z" transform="translate(6690.448 -12922.627) rotate(-20)"/>
</svg>
