<svg xmlns="http://www.w3.org/2000/svg" viewBox="281.999 5430.999 35.999 36">
  <defs>
    <style>
      .cls-1 {
        fill: #fff;
      }
    </style>
  </defs>
  <path id="Extra_Profit" data-name="Extra Profit" class="cls-1" d="M-3876.363-12612.177a1.635,1.635,0,0,1-1.638-1.635,1.638,1.638,0,0,1,1.638-1.639h32.727a1.635,1.635,0,0,1,1.635,1.639,1.633,1.633,0,0,1-1.635,1.635Zm-1.114-9.177a1.633,1.633,0,0,1-.086-2.312l13.637-14.713a1.641,1.641,0,0,1,1.168-.526,1.657,1.657,0,0,1,1.187.479l4.254,4.253,9.935-10.732h-2.8a1.637,1.637,0,0,1-1.638-1.635,1.638,1.638,0,0,1,1.638-1.638h6.545l.041,0a.726.726,0,0,1,.092,0l.073.009a.684.684,0,0,1,.083.014.491.491,0,0,1,.079.016l.076.019c.025.007.051.017.076.022l.076.028a.792.792,0,0,1,.073.032c.025.01.048.022.073.035l.07.038c.022.013.044.025.067.041a.545.545,0,0,1,.07.044c.022.017.041.032.06.048a.639.639,0,0,1,.07.058c.01.009.022.016.032.025s.013.016.022.021c.022.022.041.042.06.063s.035.038.051.058a.449.449,0,0,1,.051.063c.016.022.035.041.051.063s.025.044.038.063.032.048.044.073a.575.575,0,0,1,.035.066c.013.025.025.051.035.073a.775.775,0,0,1,.032.076.654.654,0,0,0,.025.072.644.644,0,0,1,.022.083c.006.022.013.044.019.069s.01.055.016.083.01.051.013.076a.618.618,0,0,0,.006.079c0,.028,0,.058,0,.086v6.577a1.633,1.633,0,0,1-1.635,1.635,1.635,1.635,0,0,1-1.638-1.635v-2.371l-10.8,11.665a1.647,1.647,0,0,1-1.168.524,1.638,1.638,0,0,1-1.187-.479l-4.253-4.254-12.481,13.466a1.632,1.632,0,0,1-1.2.523A1.634,1.634,0,0,1-3877.477-12621.354Z" transform="translate(4160 18079.176)"/>
</svg>
