<svg xmlns="http://www.w3.org/2000/svg" viewBox="734 5433 50 31.111">
  <defs>
    <style>
      .cls-1 {
        fill: #fff;
      }
    </style>
  </defs>
  <path id="Drive_JS_icon" data-name="Drive JS icon" class="cls-1" d="M45.449,70.111a7.172,7.172,0,0,0,1.217-4c0-3.889-2.778-6.944-6.389-6.944s-6.389,3.055-6.389,6.944a7.186,7.186,0,0,0,1.217,4,6.743,6.743,0,0,0-2.75,1.806,9.569,9.569,0,0,0,.144-1.639c0-4.722-3.333-8.333-7.5-8.333s-7.5,3.611-7.5,8.333a9.57,9.57,0,0,0,.144,1.639,6.81,6.81,0,0,0-2.75-1.806,7.172,7.172,0,0,0,1.217-4c0-3.889-2.778-6.944-6.389-6.944s-6.389,3.055-6.389,6.944a7.186,7.186,0,0,0,1.217,4A6.752,6.752,0,0,0,0,76.386v4.722A1.312,1.312,0,0,0,1.389,82.5a1.312,1.312,0,0,0,1.389-1.389V76.386A3.8,3.8,0,0,1,6.667,72.5h.556v-.039a5.554,5.554,0,0,0,5,0V72.5h.556a3.8,3.8,0,0,1,3.889,3.889c0,.056.022.1.025.147a8.033,8.033,0,0,0-3.358,6.519v5.833a1.312,1.312,0,0,0,1.389,1.389,1.312,1.312,0,0,0,1.389-1.389V83.053a5.464,5.464,0,0,1,5.278-5.278h.35a6.8,6.8,0,0,0,6.522,0h.35a5.464,5.464,0,0,1,5.278,5.278v5.833a1.389,1.389,0,1,0,2.778,0V83.053a8.037,8.037,0,0,0-3.358-6.519,1.355,1.355,0,0,0,.025-.147A3.8,3.8,0,0,1,37.222,72.5h.556v-.039a5.554,5.554,0,0,0,5,0V72.5h.556a3.8,3.8,0,0,1,3.889,3.889v4.722a1.389,1.389,0,1,0,2.778,0V76.386A6.755,6.755,0,0,0,45.449,70.111Zm-39.338-4c0-2.222,1.667-4.167,3.611-4.167s3.611,1.944,3.611,4.167-1.667,4.167-3.611,4.167S6.111,68.331,6.111,66.108Zm14.166,4.167c0-3.055,2.222-5.555,4.722-5.555s4.722,2.5,4.722,5.555S27.777,75.83,25,75.83,20.278,73.33,20.278,70.275Zm16.389-4.167c0-2.222,1.667-4.167,3.611-4.167s3.611,1.944,3.611,4.167-1.667,4.167-3.611,4.167S36.666,68.331,36.666,66.108Z" transform="translate(734 5373.836)"/>
</svg>
