<svg xmlns="http://www.w3.org/2000/svg" viewBox="1204 5431 30 35.64">
  <defs>
    <style>
      .cls-1 {
        fill: #fff;
      }
    </style>
  </defs>
  <path id="book-with-bookmark" class="cls-1" d="M47.505,0H23.689A5.056,5.056,0,0,0,18.64,5.05V30.59a5.056,5.056,0,0,0,5.05,5.05H47.505A1.135,1.135,0,0,0,48.64,34.5V1.135A1.135,1.135,0,0,0,47.505,0ZM29.458,2.269V8.031l-.364-.365a1.135,1.135,0,0,0-1.6,0l-.364.364V2.269Zm-5.768,0h1.166v8.5a1.135,1.135,0,0,0,1.938.8l1.5-1.5,1.5,1.5a1.134,1.134,0,0,0,.8.332h0a1.135,1.135,0,0,0,1.135-1.135v-8.5H46.371v23.27H23.689a5.021,5.021,0,0,0-2.78.838V5.05A2.785,2.785,0,0,1,23.69,2.269Zm0,31.1a2.781,2.781,0,0,1,0-5.562H46.371v1.647H23.69a1.135,1.135,0,1,0,0,2.269H46.371V33.37Z" transform="translate(1185.36 5431)"/>
</svg>
