<svg xmlns="http://www.w3.org/2000/svg" viewBox="1204 5431 30 35.64"><defs><style>.cls-1{fill:#fff}</style></defs><path id="book-with-bookmark" class="cls-1" d="M47.505 0H23.689a5.056 5.056 0 0 0-5.049 5.05v25.54a5.056 5.056 0 0 0 5.05 5.05h23.815a1.135 1.135 0 0 0 1.135-1.14V1.135A1.135 1.135 0 0 0 47.505 0zM29.458 2.269v5.762l-.364-.365a1.135 1.135 0 0 0-1.6 0l-.364.364V2.269zm-5.768 0h1.166v8.5a1.135 1.135 0 0 0 1.938.8l1.5-1.5 1.5 1.5a1.134 1.134 0 0 0 .8.332 1.135 1.135 0 0 0 1.135-1.135v-8.5h14.642v23.27H23.689a5.021 5.021 0 0 0-2.78.838V5.05a2.785 2.785 0 0 1 2.781-2.781zm0 31.1a2.781 2.781 0 0 1 0-5.562h22.681v1.647H23.69a1.135 1.135 0 1 0 0 2.269h22.681v1.647z" transform="translate(1185.36 5431)"/></svg>