<svg xmlns="http://www.w3.org/2000/svg" viewBox="-3305 9588 25.73 24.957">
  <defs>
    <style>
      .cls-1 {
        fill: #fff;
      }
    </style>
  </defs>
  <g id="Send_icon" data-name="Send icon" transform="translate(-3305 9587.613)">
    <path id="Path_4858" data-name="Path 4858" class="cls-1" d="M24.408.6.706,13.026c-.975.511-.935,1.26.088,1.665l3.026,1.2a3.88,3.88,0,0,0,3.437-.494L20.4,5.03c.864-.681.957-.58.206.224L10.215,16.377a1.258,1.258,0,0,0,.495,2.182l.354.139c1.024.4,2.7,1.062,3.717,1.478l3.356,1.366c1.02.415,1.854.759,1.854.765s.006.025.011.026.246-.864.534-1.926L25.654,1.6C25.942.537,25.383.087,24.408.6Z"/>
    <path id="Path_4859" data-name="Path 4859" class="cls-1" d="M10.324,19.82,8,18.87c-1.018-.417-1.506.072-1.084,1.089,0,0,2.156,5.194,2.1,5.377s2.068-3.082,2.068-3.082A1.6,1.6,0,0,0,10.324,19.82Z"/>
  </g>
</svg>
