<svg xmlns="http://www.w3.org/2000/svg" viewBox="-3633 4139 30 30">
  <defs>
    <style>
      .cls-1 {
        fill: #a0adc9;
      }
    </style>
  </defs>
  <g id="Twitter_icon" data-name="Twitter icon" transform="translate(-3633 4139)">
    <path id="Path_489" data-name="Path 489" class="cls-1" d="M15,0A15,15,0,1,0,30,15,15.017,15.017,0,0,0,15,0Zm6.692,11.567c.007.149.01.3.01.448A9.821,9.821,0,0,1,6.586,20.287a6.971,6.971,0,0,0,5.112-1.43,3.456,3.456,0,0,1-3.225-2.4,3.466,3.466,0,0,0,1.559-.058,3.453,3.453,0,0,1-2.769-3.385c0-.015,0-.03,0-.044a3.438,3.438,0,0,0,1.563.431A3.458,3.458,0,0,1,7.757,8.794,9.8,9.8,0,0,0,14.873,12.4a3.455,3.455,0,0,1,5.883-3.15,6.891,6.891,0,0,0,2.193-.838,3.468,3.468,0,0,1-1.52,1.91,6.864,6.864,0,0,0,1.983-.543A6.945,6.945,0,0,1,21.692,11.567Z"/>
  </g>
</svg>
