<svg xmlns="http://www.w3.org/2000/svg" viewBox="3806 752 40 40">
  <defs>
    <style>
      .cls-1 {
        fill: #fff;
        opacity: 0.35;
      }
    </style>
  </defs>
  <path id="Subtraction_1" data-name="Subtraction 1" class="cls-1" d="M20,40A20,20,0,1,1,40,20,20.022,20.022,0,0,1,20,40ZM16.691,22.771h0l6.665,3.2,6.16,2.961a.333.333,0,0,0,.146.034A.337.337,0,0,0,30,28.633V15.359a.426.426,0,0,0-.24-.382L26.583,13.45l-2.928-1.408A.419.419,0,0,0,23.472,12a.427.427,0,0,0-.363.2l-4.076,6.711-2.342-3.823L11,12.355l-.532-.256a.324.324,0,0,0-.141-.033.327.327,0,0,0-.327.327V25.74a.337.337,0,0,0,.191.3l6.017,2.893a.336.336,0,0,0,.483-.3V22.771Z" transform="translate(3806 752)"/>
</svg>
