<svg xmlns="http://www.w3.org/2000/svg" viewBox="3806 443 40 40">
  <defs>
    <style>
      .cls-1 {
        fill: #fff;
        opacity: 0.35;
      }
    </style>
  </defs>
  <path id="Path_74" data-name="Path 74" class="cls-1" d="M20.029,19.894H19.97c-2.482,0-4.669-.628-5.962.558a3.265,3.265,0,0,0-1.1,2.494c0,3.859,3.092,4.333,7.062,4.333h.059c3.97,0,7.062-.474,7.062-4.332a3.264,3.264,0,0,0-1.1-2.494C24.7,19.266,22.511,19.894,20.029,19.894Zm-3.376,5.273c-.755,0-1.368-.848-1.368-1.895s.613-1.894,1.368-1.894,1.369.848,1.369,1.894S17.409,25.167,16.653,25.167Zm6.693,0c-.756,0-1.369-.848-1.369-1.895s.613-1.894,1.369-1.894,1.368.848,1.368,1.894S24.1,25.167,23.346,25.167ZM20,0A20,20,0,1,0,40,20,20,20,0,0,0,20,0Zm1.824,28.209L20,28.21l-1.825,0c-1.585,0-7.86-.121-7.86-7.685a5.706,5.706,0,0,1,1.573-4.074,9.356,9.356,0,0,1,.668-4.66,11.85,11.85,0,0,1,4.792,2.189A11.389,11.389,0,0,1,20,13.728a11.376,11.376,0,0,1,2.652.25,11.848,11.848,0,0,1,4.791-2.189,9.359,9.359,0,0,1,.668,4.66,5.705,5.705,0,0,1,1.573,4.074C29.684,28.088,23.409,28.209,21.824,28.209Z" transform="translate(3806 443)"/>
</svg>
