<svg xmlns="http://www.w3.org/2000/svg" viewBox="3806 597 40 40"><defs><style>.cls-1{fill:#fff}</style></defs><path id="Path_70" data-name="Path 70" class="cls-1" d="M20 0a20 20 0 1 0 20 20A20.023 20.023 0 0 0 20 0zm8.922 15.423c.009.2.014.4.014.6A13.094 13.094 0 0 1 8.781 27.049a9.3 9.3 0 0 0 6.819-1.906 4.608 4.608 0 0 1-4.3-3.2 4.621 4.621 0 0 0 2.078-.077 4.6 4.6 0 0 1-3.692-4.514v-.058a4.584 4.584 0 0 0 2.084.575 4.61 4.61 0 0 1-1.424-6.146 13.071 13.071 0 0 0 9.488 4.811 4.606 4.606 0 0 1 7.844-4.2A9.188 9.188 0 0 0 30.6 11.22a4.624 4.624 0 0 1-2.027 2.547 9.152 9.152 0 0 0 2.644-.724 9.26 9.26 0 0 1-2.295 2.38z" transform="translate(3806 597)"/></svg>