<svg xmlns="http://www.w3.org/2000/svg" viewBox="3806 675 40 40">
  <defs>
    <style>
      .cls-1 {
        fill: #fff;
        opacity: 0.35;
      }
    </style>
  </defs>
  <path id="UpWork_icon" data-name="UpWork icon" class="cls-1" d="M20,40A20,20,0,1,1,40,20,20.022,20.022,0,0,1,20,40Zm-.862-21.279a21.9,21.9,0,0,0,1.882,3.115l-1.624,7.6h2.663l1.17-5.522a6.568,6.568,0,0,0,3.573,1.04A5.27,5.27,0,0,0,32,19.627a5.2,5.2,0,0,0-5.2-5.2c-2.446,0-4.341,1.579-5.068,4.223A22.967,22.967,0,0,1,19.136,13h-2.6v6.888a2.469,2.469,0,0,1-4.937,0V13H9v6.888a5.068,5.068,0,1,0,10.136,0V18.722Zm7.664,3.57a4.605,4.605,0,0,1-2.923-1.17l.259-1.04c.235-1.393.9-3.054,2.729-3.054a2.6,2.6,0,0,1,2.6,2.6A2.753,2.753,0,0,1,26.8,22.291Z" transform="translate(3806 675)"/>
</svg>
