<?xml version="1.0" encoding="utf-8"?><svg fill="#fff" version="1.1" id="Capa_1" xmlns="http://www.w3.org/2000/svg" xmlns:xlink="http://www.w3.org/1999/xlink" x="0px" y="0px" viewBox="0 0 70.9 70.9" style="enable-background:new 0 0 70.9 70.9;" xml:space="preserve"><g><g><g><path class="st0" d="M35.4,42.5c3.9,0,7.1-3.2,7.1-7.1c0-1.5-0.5-3-1.3-4.1c-1.3-1.8-3.4-3-5.8-3c-2.4,0-4.5,1.2-5.8,3c-0.8,1.2-1.3,2.6-1.3,4.1C28.3,39.3,31.5,42.5,35.4,42.5z"/><polygon class="st0" points="50.9,26.8 50.9,20.8 50.9,19.9 50,19.9 44.1,19.9 44.1,26.8"/><path class="st0" d="M35.4,0C15.9,0,0,15.9,0,35.4C0,55,15.9,70.9,35.4,70.9C55,70.9,70.9,55,70.9,35.4C70.9,15.9,55,0,35.4,0zM55.6,31.3v16.5c0,4.3-3.5,7.8-7.8,7.8H23.1c-4.3,0-7.8-3.5-7.8-7.8V31.3v-8.2c0-4.3,3.5-7.8,7.8-7.8h24.7c4.3,0,7.8,3.5,7.8,7.8V31.3z"/><path class="st0" d="M46.5,35.4c0,6.1-4.9,11-11,11s-11-4.9-11-11c0-1.5,0.3-2.9,0.8-4.1h-6v16.5c0,2.1,1.7,3.9,3.9,3.9h24.7c2.1,0,3.9-1.7,3.9-3.9V31.3h-6C46.2,32.6,46.5,34,46.5,35.4z"/></g></g></g></svg>
