<svg xmlns="http://www.w3.org/2000/svg" viewBox="3806 520 40 40">
  <defs>
    <style>
      .cls-1 {
        fill: #fff;
        opacity: 0.35;
      }
    </style>
  </defs>
  <path id="Union_2" data-name="Union 2" class="cls-1" d="M-1816,2591a20.023,20.023,0,0,1,20-20,20.022,20.022,0,0,1,20,20,20.024,20.024,0,0,1-20,20A20.023,20.023,0,0,1-1816,2591Zm9.065,4.594a3.553,3.553,0,0,0-.356,1.515,2.837,2.837,0,0,0,.371,1.4,5.3,5.3,0,0,0,3.454,2.233,11.17,11.17,0,0,0,2.73.326,8.788,8.788,0,0,0,2.432-.329c2.357-.685,3.88-2.418,3.881-4.425a4.6,4.6,0,0,0-2.275-4.244,3.946,3.946,0,0,1-1.369-1.469c0-.412.036-.611.963-1.333a4.431,4.431,0,0,0,1.858-3.473,4.633,4.633,0,0,0-.975-2.968h.475a.476.476,0,0,0,.276-.087l1.33-.962a.467.467,0,0,0,.169-.522.467.467,0,0,0-.445-.323h-5.946a6.025,6.025,0,0,0-1.96.337,5.11,5.11,0,0,0-3.683,4.489,4.775,4.775,0,0,0,4.862,4.784,2.516,2.516,0,0,0-.082.629,2.359,2.359,0,0,0,.319,1.185h-.076C-1803.634,2592.357-1806.027,2593.66-1806.935,2595.595Zm12.471-6.018v.961a.467.467,0,0,0,.468.467h3.377v3.381a.468.468,0,0,0,.469.467h.963a.468.468,0,0,0,.465-.467v-3.381h3.38a.468.468,0,0,0,.467-.467h0v-.963a.468.468,0,0,0-.467-.467h-3.379v-3.378a.467.467,0,0,0-.465-.467h-.963a.468.468,0,0,0-.469.467v3.378H-1794A.47.47,0,0,0-1794.464,2589.577Zm-9.747,6.893c0-1.4,1.775-2.625,3.8-2.625h.053a4.594,4.594,0,0,1,1.276.194c.139.094.272.188.4.275.937.64,1.557,1.061,1.73,1.736a2.168,2.168,0,0,1,.06.507c0,1.741-1.3,2.625-3.858,2.625C-1802.69,2599.183-1804.211,2597.992-1804.211,2596.47Zm4.1-7.464h-.019c-1.286-.041-2.572-1.561-2.8-3.32a3.082,3.082,0,0,1,.568-2.426,1.552,1.552,0,0,1,1.2-.553l.052,0c1.314.038,2.573,1.5,2.8,3.265a3.174,3.174,0,0,1-.586,2.479,1.548,1.548,0,0,1-1.209.553Z" transform="translate(5622 -2051)"/>
</svg>
