<svg xmlns="http://www.w3.org/2000/svg" viewBox="-3688 4139 30 30">
  <defs>
    <style>
      .cls-1 {
        fill: #a0adc9;
      }
    </style>
  </defs>
  <g id="Google_Plus_icon" data-name="Google Plus icon" transform="translate(-3688 4139)">
    <path id="Path_490" data-name="Path 490" class="cls-1" d="M18.782,28.71c-.1-.065-.2-.135-.3-.205a3.42,3.42,0,0,0-.957-.146h-.04c-1.519,0-2.851.919-2.851,1.968a2.342,2.342,0,0,0,2.6,2.034c1.921,0,2.894-.663,2.894-1.969a1.635,1.635,0,0,0-.045-.38C19.949,29.506,19.485,29.19,18.782,28.71Z" transform="translate(-5.792 -11.224)"/>
    <path id="Path_491" data-name="Path 491" class="cls-1" d="M18.315,19.257h0a1.163,1.163,0,0,0,.907-.415,2.382,2.382,0,0,0,.439-1.859,2.633,2.633,0,0,0-2.1-2.449h-.039a1.164,1.164,0,0,0-.9.414,2.309,2.309,0,0,0-.426,1.82c.173,1.32,1.137,2.46,2.1,2.49Z" transform="translate(-6.4 -5.752)"/>
    <path id="Path_492" data-name="Path 492" class="cls-1" d="M15,0A15,15,0,1,0,30,15,15.017,15.017,0,0,0,15,0ZM13.271,22.3a6.57,6.57,0,0,1-1.823.247A8.358,8.358,0,0,1,9.4,22.306a3.972,3.972,0,0,1-2.59-1.674,2.131,2.131,0,0,1-.279-1.05A2.665,2.665,0,0,1,6.8,18.446a4.87,4.87,0,0,1,4.464-2.428h.057a1.771,1.771,0,0,1-.239-.889,1.892,1.892,0,0,1,.062-.471A3.582,3.582,0,0,1,7.5,11.069,3.832,3.832,0,0,1,10.258,7.7a4.506,4.506,0,0,1,1.47-.254h4.46a.35.35,0,0,1,.206.634l-1,.722a.357.357,0,0,1-.206.065h-.357a3.471,3.471,0,0,1,.731,2.226,3.322,3.322,0,0,1-1.394,2.6c-.695.541-.722.691-.722,1a2.962,2.962,0,0,0,1.027,1.1,3.449,3.449,0,0,1,1.707,3.184A3.635,3.635,0,0,1,13.271,22.3Zm10.073-7.65a.351.351,0,0,1-.35.35H20.458V17.54a.351.351,0,0,1-.349.35h-.722a.351.351,0,0,1-.352-.35V15H16.5a.35.35,0,0,1-.35-.35v-.721a.352.352,0,0,1,.35-.352h2.533V11.048a.351.351,0,0,1,.352-.35h.722a.35.35,0,0,1,.349.35v2.533h2.534a.351.351,0,0,1,.35.35v.722Z"/>
  </g>
</svg>
