<svg xmlns="http://www.w3.org/2000/svg" viewBox="-4056 -19712 30 30">
  <defs>
    <style>
      .cls-1 {
        fill: #fff;
        opacity: 0.7;
      }
    </style>
  </defs>
  <path id="Social_Media_dropdown" data-name="Social Media dropdown" class="cls-1" d="M15,0A15,15,0,1,0,30,15,15,15,0,0,0,15,0ZM13.332,15a2.631,2.631,0,0,1-.157.89L17.362,17.9A2.687,2.687,0,1,1,16.7,19.27l-4.457-2.144a2.635,2.635,0,1,1,0-4.253l4.457-2.143a2.638,2.638,0,1,1,.657,1.367L13.175,14.11A2.627,2.627,0,0,1,13.332,15Z" transform="translate(-4056.001 -19712)"/>
</svg>
