<svg width="739" height="420" viewBox="0 0 739 420" fill="none" xmlns="http://www.w3.org/2000/svg">
<path d="M220.7 271.682V255.014C236.4 266.193 255.4 272.88 276 273.18C276.5 273.18 277 273.18 277.5 273.18C288.5 273.18 297.3 264.297 297.3 253.417C297.3 242.538 288.4 233.655 277.5 233.655C249.8 233.655 226.6 214.292 220.6 188.441C219.8 184.848 215.6 134.145 164.6 134.145H103.6C49.7 134.145 5.89999 177.761 5.59999 231.559C5.59999 231.758 5.59999 231.858 5.59999 232.058C5.59999 243.037 14.5 251.82 25.4 251.82C36.3 251.82 45.2 242.937 45.2 232.058V231.759C45.2 199.72 71.3 173.569 103.5 173.569V257.31C103.5 257.909 103.5 258.508 103.5 259.007C103.5 302.524 68.2 337.956 24.6 338.256C24.4 338.256 24.3 338.256 24.1 338.256C10.8 338.256 0 349.035 0 362.31C0 375.584 10.8 386.364 24.1 386.364C74.5 386.364 118.1 357.12 138.8 314.7C147.5 319.092 157.4 321.587 167.9 321.587H220.7C250.8 332.666 272.1 361.611 272.3 395.447C272.3 395.646 272.3 395.846 272.3 395.946C272.3 409.22 283.1 420 296.4 420C309.7 420 320.5 409.22 320.5 395.946C320.5 335.261 277.8 284.258 220.7 271.682ZM281.8 238.346C288.3 240.242 293.1 246.231 293.1 253.317C293.1 260.404 288.3 266.393 281.8 268.289V238.346ZM25.6 247.429C18.5 247.429 12.4 242.638 10.6 236.05H40.6C38.7 242.538 32.7 247.429 25.6 247.429ZM20.1 381.573C11.2 379.577 4.5 371.692 4.5 362.21C4.5 352.728 11.2 344.843 20.1 342.847V381.573ZM296.4 415.708C286.9 415.708 279 409.021 277 400.138H315.8C313.9 409.121 305.9 415.708 296.4 415.708Z" fill="black"/>
<path d="M40.7002 265.494C40.7002 275.375 32.6002 283.46 22.7002 283.46V294.739C38.9002 294.739 52.1002 281.564 52.1002 265.395H40.7002V265.494Z" fill="black"/>
<path d="M22.7002 311.806C48.3002 311.806 69.1002 291.045 69.1002 265.494H57.7002C57.7002 284.757 42.0002 300.428 22.7002 300.428V311.806Z" fill="black"/>
<path d="M192.7 364.206V375.485C202.6 375.485 210.7 383.569 210.7 393.45H222C222.1 377.281 208.9 364.206 192.7 364.206Z" fill="black"/>
<path d="M192.7 347.238V358.517C212 358.517 227.7 374.187 227.7 393.45H239C239.1 367.999 218.3 347.238 192.7 347.238Z" fill="black"/>
<path d="M121.9 106.896C132.4 116.877 146.6 122.966 162.2 122.966C194.5 122.966 220.7 96.8155 220.7 64.5769V64.2775H227.5C227.5 28.845 198.6 0 163.2 0C127.9 0 99.1002 28.5456 98.9002 63.7784C98.9002 77.3526 87.8002 88.3317 74.2002 88.3317V127.956C93.1002 127.956 110.1 119.872 121.9 106.896ZM163.2 43.9163C174.5 43.9163 183.6 53.0988 183.6 64.2775H216.3V68.5693C214.3 96.6159 190.8 118.774 162.2 118.774C149.6 118.774 137.5 114.482 127.8 106.497C136.5 95.6178 141.7 82.4429 142.6 68.5693L142.8 64.2775C142.8 52.999 151.9 43.9163 163.2 43.9163Z" fill="black"/>
<path d="M349.6 99.3164H368.8V186.796H349.6V99.3164Z" fill="black"/>
<path d="M438.706 161.476V163.516H398.746C398.746 167.276 399.866 170.276 402.106 172.516C403.866 174.276 406.506 175.156 410.026 175.156C412.426 175.156 414.506 174.676 416.266 173.716C417.786 172.836 418.906 171.636 419.626 170.116H437.986C436.786 174.436 434.626 178.116 431.506 181.156C426.386 186.116 419.106 188.596 409.666 188.596C400.306 188.596 392.906 185.876 387.466 180.436C382.186 175.156 379.546 168.396 379.546 160.156C379.546 151.516 382.226 144.596 387.586 139.396C392.946 134.196 400.266 131.596 409.546 131.596C418.106 131.596 424.986 134.036 430.186 138.916C435.866 144.356 438.706 151.876 438.706 161.476ZM399.346 152.476H421.066C420.506 150.156 419.466 148.236 417.946 146.716C416.026 144.796 413.386 143.836 410.026 143.836C406.746 143.836 404.146 144.796 402.226 146.716C400.626 148.476 399.666 150.396 399.346 152.476Z" fill="black"/>
<path d="M481.955 148.876H471.035V186.796H451.835V148.876H445.715V133.156H451.835V115.516H471.035V133.156H481.955V148.876Z" fill="black"/>
<path d="M517.178 99.3164H536.378V152.476L554.498 133.156H580.538L555.218 157.876L582.578 186.796H555.938L536.378 164.836V186.796H517.178V99.3164Z" fill="black"/>
<path d="M586.201 133.156H605.401V186.796H586.201V133.156ZM588.121 118.516C586.041 116.356 585.001 113.796 585.001 110.836C585.001 107.876 586.041 105.356 588.121 103.276C590.281 101.116 592.841 100.036 595.801 100.036C598.761 100.036 601.281 101.116 603.361 103.276C605.521 105.356 606.601 107.876 606.601 110.836C606.601 113.796 605.521 116.356 603.361 118.516C601.281 120.596 598.761 121.636 595.801 121.636C592.841 121.636 590.281 120.596 588.121 118.516Z" fill="black"/>
<path d="M679.148 99.3164V186.796H659.948V180.916C655.948 186.036 650.548 188.596 643.748 188.596C636.308 188.596 630.028 186.116 624.908 181.156C619.148 175.556 616.268 168.436 616.268 159.796C616.268 151.156 619.188 144.076 625.028 138.556C630.068 133.756 636.388 131.356 643.988 131.356C650.308 131.356 655.628 133.676 659.948 138.316V99.3164H679.148ZM648.188 172.276C651.228 172.276 653.988 171.196 656.468 169.036C659.188 166.556 660.548 163.516 660.548 159.916C660.548 156.716 659.348 153.836 656.948 151.276C654.708 148.876 651.788 147.676 648.188 147.676C644.828 147.676 641.988 148.836 639.668 151.156C637.188 153.636 635.948 156.676 635.948 160.276C635.948 163.396 637.188 166.196 639.668 168.676C642.068 171.076 644.908 172.276 648.188 172.276Z" fill="black"/>
<path d="M689.013 182.356L695.853 169.036C698.253 170.796 700.813 172.116 703.533 172.996C706.013 173.876 708.493 174.316 710.973 174.316C713.213 174.316 714.853 173.836 715.893 172.876C716.533 172.236 716.853 171.396 716.853 170.356C716.853 169.316 716.533 168.516 715.893 167.956C715.253 167.316 713.573 166.676 710.853 166.036L705.813 164.836C701.573 163.876 698.453 162.316 696.453 160.156C694.133 157.676 692.973 154.596 692.973 150.916C692.973 145.716 694.653 141.356 698.013 137.836C702.173 133.516 708.573 131.356 717.213 131.356C723.133 131.356 728.853 132.516 734.373 134.836L727.893 147.076C724.053 145.316 720.693 144.436 717.813 144.436C716.053 144.436 714.573 144.796 713.373 145.516C712.253 146.156 711.693 147.036 711.693 148.156C711.693 149.516 712.453 150.516 713.973 151.156C714.613 151.396 715.613 151.676 716.973 151.996C718.333 152.236 719.453 152.476 720.333 152.716L723.813 153.676C727.253 154.636 729.893 156.036 731.733 157.876C734.453 160.436 735.813 163.996 735.813 168.556C735.813 173.996 734.013 178.436 730.413 181.876C725.933 186.356 719.333 188.596 710.613 188.596C703.013 188.596 695.813 186.516 689.013 182.356Z" fill="black"/>
<path d="M438.6 276.634V222.994H457.8V229.474C461.88 224.514 467.24 222.034 473.88 222.034C477.8 222.034 481.24 222.834 484.2 224.434C487.4 226.114 489.88 228.674 491.64 232.114C493.48 228.834 495.92 226.354 498.96 224.674C502.08 222.914 505.8 222.034 510.12 222.034C516.68 222.034 521.64 223.674 525 226.954C528.36 230.234 530.04 235.154 530.04 241.714V276.634H510.84V250.114C510.84 244.194 509.92 240.354 508.08 238.594C506.72 237.394 505.04 236.794 503.04 236.794C500.8 236.794 498.92 237.514 497.4 238.954C495.08 241.194 493.92 244.594 493.92 249.154V276.634H474.72V250.114C474.72 244.194 473.88 240.354 472.2 238.594C470.84 237.154 468.92 236.434 466.44 236.434C464.2 236.434 462.44 237.074 461.16 238.354C458.92 240.514 457.8 244.434 457.8 250.114V276.634H438.6Z" fill="black"/>
<path d="M573.485 237.514C570.205 237.514 567.325 238.674 564.845 240.994C562.365 243.314 561.125 246.234 561.125 249.754C561.125 252.954 562.365 255.794 564.845 258.274C567.245 260.674 570.125 261.874 573.485 261.874C576.765 261.874 579.605 260.674 582.005 258.274C584.485 255.954 585.725 253.114 585.725 249.754C585.725 246.394 584.485 243.474 582.005 240.994C579.525 238.674 576.685 237.514 573.485 237.514ZM597.365 230.074C602.885 235.434 605.645 241.994 605.645 249.754C605.645 257.514 602.885 264.114 597.365 269.554C591.365 275.474 583.365 278.434 573.365 278.434C563.445 278.434 555.485 275.474 549.485 269.554C543.965 264.114 541.205 257.514 541.205 249.754C541.205 241.994 543.965 235.434 549.485 230.074C555.565 224.154 563.525 221.194 573.365 221.194C583.125 221.194 591.125 224.154 597.365 230.074Z" fill="black"/>
<path d="M608.953 222.994H630.433L643.273 250.474L656.353 222.994H677.713L649.753 276.634H636.673L608.953 222.994Z" fill="black"/>
<path d="M738.175 251.314V253.354H698.215C698.215 257.114 699.335 260.114 701.575 262.354C703.335 264.114 705.975 264.994 709.495 264.994C711.895 264.994 713.975 264.514 715.735 263.554C717.255 262.674 718.375 261.474 719.095 259.954H737.455C736.255 264.274 734.095 267.954 730.975 270.994C725.855 275.954 718.575 278.434 709.135 278.434C699.775 278.434 692.375 275.714 686.935 270.274C681.655 264.994 679.015 258.234 679.015 249.994C679.015 241.354 681.695 234.434 687.055 229.234C692.415 224.034 699.735 221.434 709.015 221.434C717.575 221.434 724.455 223.874 729.655 228.754C735.335 234.194 738.175 241.714 738.175 251.314ZM698.815 242.314H720.535C719.975 239.994 718.935 238.074 717.415 236.554C715.495 234.634 712.855 233.674 709.495 233.674C706.215 233.674 703.615 234.634 701.695 236.554C700.095 238.314 699.135 240.234 698.815 242.314Z" fill="black"/>
</svg>
