<svg xmlns="http://www.w3.org/2000/svg" viewBox="-3743 4139 30 30">
  <defs>
    <style>
      .cls-1 {
        fill: #a0adc9;
      }
    </style>
  </defs>
  <g id="GitHub_icon:hover" data-name="GitHub icon:hover" transform="translate(-3743 4139)">
    <path id="Path_2033" data-name="Path 2033" class="cls-1" d="M15.022,14.921h-.044c-1.862,0-3.5-.471-4.471.419a2.449,2.449,0,0,0-.826,1.87c0,2.894,2.319,3.249,5.3,3.249h.044c2.978,0,5.3-.356,5.3-3.249a2.448,2.448,0,0,0-.826-1.87C18.523,14.449,16.883,14.921,15.022,14.921ZM12.49,18.875c-.567,0-1.026-.636-1.026-1.421s.459-1.421,1.026-1.421,1.027.636,1.027,1.421S13.057,18.875,12.49,18.875Zm5.02,0c-.567,0-1.027-.636-1.027-1.421s.46-1.421,1.027-1.421,1.026.636,1.026,1.421S18.076,18.875,17.51,18.875ZM15,0A15,15,0,1,0,30,15,15,15,0,0,0,15,0Zm1.368,21.157H13.632c-1.188,0-5.895-.091-5.895-5.764a4.28,4.28,0,0,1,1.18-3.056,7.017,7.017,0,0,1,.5-3.495,8.888,8.888,0,0,1,3.594,1.642A8.542,8.542,0,0,1,15,10.3a8.532,8.532,0,0,1,1.989.188,8.886,8.886,0,0,1,3.593-1.642,7.019,7.019,0,0,1,.5,3.495,4.279,4.279,0,0,1,1.18,3.056C22.263,21.066,17.557,21.157,16.368,21.157Z"/>
  </g>
</svg>
