<svg width="172" height="110" viewBox="0 0 172 110" fill="none" xmlns="http://www.w3.org/2000/svg">
<path d="M22.3289 97.024C22.2009 96.8747 22.0302 96.7307 21.8169 96.592C21.6035 96.4533 21.3635 96.3307 21.0969 96.224C20.8302 96.1067 20.5369 96.016 20.2169 95.952C19.9075 95.8773 19.5822 95.84 19.2409 95.84C18.3555 95.84 17.7049 96.0053 17.2889 96.336C16.8835 96.6667 16.6809 97.12 16.6809 97.696C16.6809 98.0053 16.7395 98.2613 16.8569 98.464C16.9742 98.6667 17.1555 98.8427 17.4009 98.992C17.6569 99.1307 17.9715 99.2533 18.3449 99.36C18.7182 99.4667 19.1609 99.5787 19.6729 99.696C20.2595 99.824 20.7875 99.9733 21.2569 100.144C21.7369 100.304 22.1422 100.507 22.4729 100.752C22.8142 100.997 23.0702 101.296 23.2409 101.648C23.4222 102 23.5129 102.432 23.5129 102.944C23.5129 103.488 23.4062 103.963 23.1929 104.368C22.9795 104.763 22.6862 105.093 22.3129 105.36C21.9502 105.616 21.5182 105.808 21.0169 105.936C20.5155 106.053 19.9715 106.112 19.3849 106.112C18.5102 106.112 17.6782 105.979 16.8889 105.712C16.1102 105.435 15.4009 105.035 14.7609 104.512L15.4489 103.296C15.6195 103.477 15.8382 103.659 16.1049 103.84C16.3822 104.021 16.6915 104.187 17.0329 104.336C17.3849 104.475 17.7582 104.592 18.1529 104.688C18.5582 104.773 18.9795 104.816 19.4169 104.816C20.2275 104.816 20.8569 104.672 21.3049 104.384C21.7529 104.096 21.9769 103.664 21.9769 103.088C21.9769 102.768 21.9022 102.501 21.7529 102.288C21.6142 102.064 21.4062 101.872 21.1289 101.712C20.8515 101.552 20.5049 101.413 20.0889 101.296C19.6835 101.168 19.2195 101.04 18.6969 100.912C18.1209 100.773 17.6142 100.624 17.1769 100.464C16.7395 100.304 16.3715 100.112 16.0729 99.888C15.7849 99.664 15.5662 99.392 15.4169 99.072C15.2675 98.752 15.1929 98.368 15.1929 97.92C15.1929 97.376 15.2942 96.896 15.4969 96.48C15.6995 96.064 15.9822 95.712 16.3449 95.424C16.7075 95.136 17.1395 94.9227 17.6409 94.784C18.1422 94.6347 18.6862 94.56 19.2729 94.56C20.0409 94.56 20.7342 94.6773 21.3529 94.912C21.9715 95.1467 22.5209 95.4613 23.0009 95.856L22.3289 97.024ZM29.3466 105.584C29.2613 105.627 29.1493 105.68 29.0106 105.744C28.872 105.797 28.712 105.856 28.5306 105.92C28.36 105.973 28.168 106.016 27.9546 106.048C27.752 106.091 27.5386 106.112 27.3146 106.112C26.8026 106.112 26.36 105.973 25.9866 105.696C25.6133 105.408 25.4266 104.965 25.4266 104.368V98.752H24.2906V97.648H25.4266V94.864H26.8346V97.648H28.7066V98.752H26.8346V103.936C26.856 104.245 26.9573 104.469 27.1386 104.608C27.32 104.747 27.5333 104.816 27.7786 104.816C28.056 104.816 28.3066 104.773 28.5306 104.688C28.7653 104.592 28.9253 104.517 29.0106 104.464L29.3466 105.584ZM32.7956 106.16C32.401 106.16 32.033 106.096 31.6916 105.968C31.3503 105.829 31.0516 105.643 30.7956 105.408C30.5503 105.173 30.353 104.901 30.2036 104.592C30.065 104.272 29.9956 103.925 29.9956 103.552C29.9956 103.168 30.081 102.821 30.2516 102.512C30.4223 102.192 30.6623 101.92 30.9716 101.696C31.2916 101.472 31.665 101.296 32.0916 101.168C32.529 101.04 33.0036 100.976 33.5156 100.976C33.921 100.976 34.3316 101.013 34.7476 101.088C35.1636 101.163 35.5316 101.264 35.8516 101.392V100.72C35.8516 100.037 35.6596 99.504 35.2756 99.12C34.8916 98.7253 34.3476 98.528 33.6436 98.528C32.801 98.528 31.9156 98.8533 30.9876 99.504L30.5236 98.592C31.601 97.8667 32.6836 97.504 33.7716 97.504C34.8703 97.504 35.7236 97.7973 36.3316 98.384C36.9503 98.9707 37.2596 99.7973 37.2596 100.864V104.272C37.2596 104.603 37.409 104.773 37.7076 104.784V106C37.5583 106.021 37.4356 106.037 37.3396 106.048C37.2436 106.059 37.1423 106.064 37.0356 106.064C36.7583 106.064 36.5343 105.984 36.3636 105.824C36.2036 105.653 36.1076 105.451 36.0756 105.216L36.0436 104.624C35.6703 105.125 35.1956 105.509 34.6196 105.776C34.0543 106.032 33.4463 106.16 32.7956 106.16ZM33.1636 105.104C33.665 105.104 34.129 105.013 34.5556 104.832C34.993 104.64 35.3236 104.389 35.5476 104.08C35.7503 103.877 35.8516 103.669 35.8516 103.456V102.224C35.169 101.957 34.4596 101.824 33.7236 101.824C33.0196 101.824 32.4436 101.973 31.9956 102.272C31.5583 102.571 31.3396 102.96 31.3396 103.44C31.3396 103.675 31.3823 103.893 31.4676 104.096C31.5636 104.299 31.6916 104.475 31.8516 104.624C32.0223 104.773 32.2196 104.891 32.4436 104.976C32.6676 105.061 32.9076 105.104 33.1636 105.104ZM46.8085 95.376C46.5098 95.376 46.2538 95.44 46.0405 95.568C45.8378 95.6853 45.6672 95.84 45.5285 96.032C45.4005 96.224 45.3045 96.4427 45.2405 96.688C45.1765 96.9333 45.1445 97.1787 45.1445 97.424V97.648H47.6565V98.752H45.1445V106H43.7365V98.752H41.3045V106H39.8965V98.752H38.7605V97.648H39.8965V97.584C39.9072 97.2213 39.9658 96.8693 40.0725 96.528C40.1898 96.1867 40.3552 95.888 40.5685 95.632C40.7925 95.3653 41.0645 95.1573 41.3845 95.008C41.7152 94.848 42.0938 94.768 42.5205 94.768C42.9045 94.768 43.2512 94.8107 43.5605 94.896C43.8805 94.9813 44.1632 95.0827 44.4085 95.2C44.6432 94.8907 44.9312 94.64 45.2725 94.448C45.6245 94.256 46.0512 94.16 46.5525 94.16C47.0218 94.16 47.3898 94.2293 47.6565 94.368C47.9338 94.496 48.1578 94.5973 48.3285 94.672L47.9765 95.712C47.8485 95.6267 47.6992 95.552 47.5285 95.488C47.3578 95.4133 47.1178 95.376 46.8085 95.376ZM43.7365 97.648C43.7365 97.4453 43.7578 97.2107 43.8005 96.944C43.8432 96.6667 43.9072 96.4427 43.9925 96.272C43.8218 96.1547 43.6192 96.08 43.3845 96.048C43.1605 96.0053 42.9578 95.984 42.7765 95.984C42.2432 95.984 41.8645 96.144 41.6405 96.464C41.4272 96.7733 41.3152 97.1413 41.3045 97.568V97.648H43.7365ZM55.9254 94.64H57.1414L61.7814 106H60.2454L58.9014 102.672H54.1334L52.8054 106H51.2694L55.9254 94.64ZM58.5814 101.552L56.5334 96.304L54.4214 101.552H58.5814ZM65.4776 106.16C64.603 106.16 63.9416 105.867 63.4936 105.28C63.0456 104.693 62.8216 103.819 62.8216 102.656V97.648H64.2296V102.384C64.2296 104.091 64.8216 104.944 66.0056 104.944C66.5816 104.944 67.1203 104.763 67.6216 104.4C68.1336 104.027 68.5123 103.52 68.7576 102.88V97.648H70.1656V104.272C70.1656 104.603 70.315 104.773 70.6136 104.784V106C70.4536 106.021 70.3256 106.032 70.2296 106.032C70.1443 106.043 70.059 106.048 69.9736 106.048C69.6963 106.048 69.4616 105.968 69.2696 105.808C69.0883 105.637 68.9923 105.429 68.9816 105.184L68.9496 104.208C68.5763 104.837 68.0856 105.323 67.4776 105.664C66.8696 105.995 66.203 106.16 65.4776 106.16ZM75.839 106.096C75.2737 106.096 74.751 105.979 74.271 105.744C73.8017 105.509 73.3963 105.195 73.055 104.8C72.7137 104.405 72.447 103.952 72.255 103.44C72.0737 102.928 71.983 102.395 71.983 101.84C71.983 101.253 72.0737 100.699 72.255 100.176C72.447 99.6427 72.7137 99.1787 73.055 98.784C73.3963 98.3893 73.8017 98.08 74.271 97.856C74.751 97.6213 75.279 97.504 75.855 97.504C76.559 97.504 77.167 97.6747 77.679 98.016C78.191 98.3573 78.623 98.7893 78.975 99.312V97.648H80.223V105.904C80.223 106.501 80.111 107.024 79.887 107.472C79.663 107.931 79.359 108.315 78.975 108.624C78.591 108.933 78.1377 109.168 77.615 109.328C77.103 109.488 76.5537 109.568 75.967 109.568C75.0177 109.568 74.2443 109.403 73.647 109.072C73.0603 108.752 72.5697 108.304 72.175 107.728L72.991 107.008C73.3217 107.499 73.7483 107.867 74.271 108.112C74.7937 108.357 75.359 108.48 75.967 108.48C76.351 108.48 76.7137 108.427 77.055 108.32C77.407 108.213 77.711 108.053 77.967 107.84C78.223 107.627 78.4257 107.36 78.575 107.04C78.735 106.72 78.815 106.341 78.815 105.904V104.432C78.655 104.688 78.463 104.923 78.239 105.136C78.0257 105.339 77.791 105.515 77.535 105.664C77.279 105.803 77.007 105.909 76.719 105.984C76.431 106.059 76.1377 106.096 75.839 106.096ZM76.271 104.944C76.5697 104.944 76.8577 104.891 77.135 104.784C77.4123 104.677 77.6683 104.539 77.903 104.368C78.1377 104.187 78.335 103.984 78.495 103.76C78.655 103.536 78.7617 103.307 78.815 103.072V100.672C78.6977 100.384 78.543 100.123 78.351 99.888C78.1697 99.6533 77.9617 99.4507 77.727 99.28C77.4923 99.0987 77.2363 98.96 76.959 98.864C76.6923 98.768 76.4203 98.72 76.143 98.72C75.7163 98.72 75.3323 98.8107 74.991 98.992C74.6603 99.1733 74.3777 99.4133 74.143 99.712C73.9083 100.011 73.727 100.352 73.599 100.736C73.471 101.109 73.407 101.488 73.407 101.872C73.407 102.288 73.4817 102.683 73.631 103.056C73.7803 103.429 73.983 103.755 74.239 104.032C74.495 104.309 74.7937 104.533 75.135 104.704C75.487 104.864 75.8657 104.944 76.271 104.944ZM95.0874 106H93.6794V101.328C93.6794 100.453 93.5354 99.808 93.2474 99.392C92.97 98.976 92.554 98.768 91.9994 98.768C91.4234 98.768 90.906 98.976 90.4474 99.392C89.9994 99.7973 89.6794 100.325 89.4874 100.976V106H88.0794V101.328C88.0794 100.432 87.9407 99.7813 87.6634 99.376C87.386 98.9707 86.97 98.768 86.4154 98.768C85.85 98.768 85.338 98.9707 84.8794 99.376C84.4207 99.7707 84.0954 100.299 83.9034 100.96V106H82.4954V97.648H83.7754V99.44C84.1167 98.8213 84.5594 98.3467 85.1034 98.016C85.6474 97.6747 86.2607 97.504 86.9434 97.504C87.6474 97.504 88.202 97.696 88.6074 98.08C89.0234 98.4533 89.2794 98.9387 89.3754 99.536C90.122 98.1813 91.1834 97.504 92.5594 97.504C93.0394 97.504 93.4394 97.5947 93.7594 97.776C94.09 97.9467 94.3514 98.192 94.5434 98.512C94.7354 98.8213 94.874 99.1893 94.9594 99.616C95.0447 100.043 95.0874 100.507 95.0874 101.008V106ZM100.973 106.16C100.343 106.16 99.7673 106.048 99.2446 105.824C98.722 105.589 98.274 105.275 97.9006 104.88C97.5273 104.485 97.234 104.027 97.0206 103.504C96.818 102.971 96.7166 102.411 96.7166 101.824C96.7166 101.237 96.818 100.683 97.0206 100.16C97.234 99.6373 97.5273 99.1787 97.9006 98.784C98.2846 98.3893 98.738 98.08 99.2606 97.856C99.7833 97.6213 100.359 97.504 100.989 97.504C101.618 97.504 102.189 97.6213 102.701 97.856C103.223 98.0907 103.666 98.4053 104.029 98.8C104.391 99.184 104.669 99.6373 104.861 100.16C105.063 100.672 105.165 101.205 105.165 101.76C105.165 101.877 105.159 101.984 105.149 102.08C105.149 102.176 105.143 102.251 105.133 102.304H98.2046C98.2366 102.72 98.3326 103.099 98.4926 103.44C98.6526 103.781 98.8606 104.075 99.1166 104.32C99.3726 104.565 99.6606 104.757 99.9806 104.896C100.311 105.035 100.658 105.104 101.021 105.104C101.277 105.104 101.527 105.072 101.773 105.008C102.018 104.933 102.247 104.837 102.461 104.72C102.674 104.603 102.861 104.459 103.021 104.288C103.191 104.117 103.319 103.925 103.405 103.712L104.621 104.048C104.482 104.357 104.29 104.64 104.045 104.896C103.81 105.152 103.533 105.376 103.213 105.568C102.903 105.749 102.557 105.893 102.173 106C101.789 106.107 101.389 106.16 100.973 106.16ZM103.837 101.264C103.805 100.869 103.703 100.507 103.533 100.176C103.373 99.8347 103.165 99.5467 102.909 99.312C102.663 99.0773 102.375 98.896 102.045 98.768C101.714 98.6293 101.362 98.56 100.989 98.56C100.615 98.56 100.263 98.6293 99.9326 98.768C99.602 98.896 99.3086 99.0827 99.0526 99.328C98.8073 99.5627 98.6046 99.8453 98.4446 100.176C98.2953 100.507 98.2046 100.869 98.1726 101.264H103.837ZM113.978 106H112.57V101.328C112.57 100.432 112.431 99.7813 112.154 99.376C111.887 98.9707 111.476 98.768 110.922 98.768C110.634 98.768 110.346 98.8267 110.058 98.944C109.77 99.0507 109.498 99.2 109.242 99.392C108.986 99.584 108.762 99.8133 108.57 100.08C108.378 100.347 108.234 100.64 108.138 100.96V106H106.73V97.648H108.01V99.44C108.34 98.8533 108.815 98.384 109.434 98.032C110.063 97.68 110.746 97.504 111.482 97.504C111.962 97.504 112.362 97.5947 112.682 97.776C113.002 97.9467 113.258 98.192 113.45 98.512C113.642 98.8213 113.775 99.1893 113.85 99.616C113.935 100.043 113.978 100.507 113.978 101.008V106ZM120.409 105.584C120.324 105.627 120.212 105.68 120.073 105.744C119.934 105.797 119.774 105.856 119.593 105.92C119.422 105.973 119.23 106.016 119.017 106.048C118.814 106.091 118.601 106.112 118.377 106.112C117.865 106.112 117.422 105.973 117.049 105.696C116.676 105.408 116.489 104.965 116.489 104.368V98.752H115.353V97.648H116.489V94.864H117.897V97.648H119.769V98.752H117.897V103.936C117.918 104.245 118.02 104.469 118.201 104.608C118.382 104.747 118.596 104.816 118.841 104.816C119.118 104.816 119.369 104.773 119.593 104.688C119.828 104.592 119.988 104.517 120.073 104.464L120.409 105.584ZM123.858 106.16C123.463 106.16 123.095 106.096 122.754 105.968C122.413 105.829 122.114 105.643 121.858 105.408C121.613 105.173 121.415 104.901 121.266 104.592C121.127 104.272 121.058 103.925 121.058 103.552C121.058 103.168 121.143 102.821 121.314 102.512C121.485 102.192 121.725 101.92 122.034 101.696C122.354 101.472 122.727 101.296 123.154 101.168C123.591 101.04 124.066 100.976 124.578 100.976C124.983 100.976 125.394 101.013 125.81 101.088C126.226 101.163 126.594 101.264 126.914 101.392V100.72C126.914 100.037 126.722 99.504 126.338 99.12C125.954 98.7253 125.41 98.528 124.706 98.528C123.863 98.528 122.978 98.8533 122.05 99.504L121.586 98.592C122.663 97.8667 123.746 97.504 124.834 97.504C125.933 97.504 126.786 97.7973 127.394 98.384C128.013 98.9707 128.322 99.7973 128.322 100.864V104.272C128.322 104.603 128.471 104.773 128.77 104.784V106C128.621 106.021 128.498 106.037 128.402 106.048C128.306 106.059 128.205 106.064 128.098 106.064C127.821 106.064 127.597 105.984 127.426 105.824C127.266 105.653 127.17 105.451 127.138 105.216L127.106 104.624C126.733 105.125 126.258 105.509 125.682 105.776C125.117 106.032 124.509 106.16 123.858 106.16ZM124.226 105.104C124.727 105.104 125.191 105.013 125.618 104.832C126.055 104.64 126.386 104.389 126.61 104.08C126.813 103.877 126.914 103.669 126.914 103.456V102.224C126.231 101.957 125.522 101.824 124.786 101.824C124.082 101.824 123.506 101.973 123.058 102.272C122.621 102.571 122.402 102.96 122.402 103.44C122.402 103.675 122.445 103.893 122.53 104.096C122.626 104.299 122.754 104.475 122.914 104.624C123.085 104.773 123.282 104.891 123.506 104.976C123.73 105.061 123.97 105.104 124.226 105.104ZM134.831 105.584C134.746 105.627 134.634 105.68 134.495 105.744C134.356 105.797 134.196 105.856 134.015 105.92C133.844 105.973 133.652 106.016 133.439 106.048C133.236 106.091 133.023 106.112 132.799 106.112C132.287 106.112 131.844 105.973 131.471 105.696C131.098 105.408 130.911 104.965 130.911 104.368V98.752H129.775V97.648H130.911V94.864H132.319V97.648H134.191V98.752H132.319V103.936C132.34 104.245 132.442 104.469 132.623 104.608C132.804 104.747 133.018 104.816 133.263 104.816C133.54 104.816 133.791 104.773 134.015 104.688C134.25 104.592 134.41 104.517 134.495 104.464L134.831 105.584ZM136.136 106V97.648H137.544V106H136.136ZM136.136 96.08V94.32H137.544V96.08H136.136ZM143.472 106.16C142.842 106.16 142.266 106.043 141.744 105.808C141.232 105.573 140.789 105.259 140.416 104.864C140.053 104.469 139.77 104.011 139.568 103.488C139.365 102.965 139.264 102.416 139.264 101.84C139.264 101.253 139.365 100.699 139.568 100.176C139.781 99.6533 140.069 99.1947 140.432 98.8C140.805 98.4053 141.248 98.0907 141.76 97.856C142.282 97.6213 142.853 97.504 143.472 97.504C144.09 97.504 144.661 97.6213 145.184 97.856C145.706 98.0907 146.149 98.4053 146.512 98.8C146.885 99.1947 147.173 99.6533 147.376 100.176C147.589 100.699 147.696 101.253 147.696 101.84C147.696 102.416 147.594 102.965 147.392 103.488C147.189 104.011 146.901 104.469 146.528 104.864C146.154 105.259 145.706 105.573 145.184 105.808C144.672 106.043 144.101 106.16 143.472 106.16ZM140.704 101.856C140.704 102.293 140.773 102.699 140.912 103.072C141.061 103.445 141.258 103.771 141.504 104.048C141.76 104.325 142.053 104.544 142.384 104.704C142.725 104.864 143.088 104.944 143.472 104.944C143.856 104.944 144.213 104.864 144.544 104.704C144.885 104.544 145.184 104.325 145.44 104.048C145.696 103.76 145.893 103.429 146.032 103.056C146.181 102.672 146.256 102.261 146.256 101.824C146.256 101.397 146.181 100.997 146.032 100.624C145.893 100.24 145.696 99.9093 145.44 99.632C145.184 99.344 144.885 99.12 144.544 98.96C144.213 98.8 143.856 98.72 143.472 98.72C143.088 98.72 142.725 98.8053 142.384 98.976C142.053 99.136 141.76 99.36 141.504 99.648C141.258 99.9253 141.061 100.256 140.912 100.64C140.773 101.013 140.704 101.419 140.704 101.856ZM156.65 106H155.242V101.328C155.242 100.432 155.103 99.7813 154.826 99.376C154.559 98.9707 154.148 98.768 153.594 98.768C153.306 98.768 153.018 98.8267 152.73 98.944C152.442 99.0507 152.17 99.2 151.914 99.392C151.658 99.584 151.434 99.8133 151.242 100.08C151.05 100.347 150.906 100.64 150.81 100.96V106H149.402V97.648H150.682V99.44C151.012 98.8533 151.487 98.384 152.106 98.032C152.735 97.68 153.418 97.504 154.154 97.504C154.634 97.504 155.034 97.5947 155.354 97.776C155.674 97.9467 155.93 98.192 156.122 98.512C156.314 98.8213 156.447 99.1893 156.522 99.616C156.607 100.043 156.65 100.507 156.65 101.008V106Z" fill="#12233D"/>
<path d="M105.542 11.7302C106.776 10.9788 107.609 9.63282 107.609 8.08521C107.609 5.72528 105.688 3.80481 103.328 3.80481C100.969 3.80481 99.048 5.72528 99.048 8.08521C99.048 9.63282 99.8813 10.9788 101.115 11.7302C97.9922 12.6224 95.6323 15.341 95.2879 18.6569C93.591 17.1663 91.5307 16.0858 89.2535 15.5693C92.2051 14.3641 94.292 11.4658 94.292 8.08521C94.292 3.62693 90.6651 0 86.2068 0C81.7486 0 78.1216 3.62693 78.1216 8.08521C78.1216 11.4658 80.2086 14.3641 83.1601 15.5702C80.883 16.0858 78.8236 17.1663 77.1257 18.6578C76.7814 15.3419 74.4224 12.6224 71.2996 11.7312C72.5324 10.9788 73.3656 9.63186 73.3656 8.08521C73.3656 5.72528 71.4451 3.80481 69.0852 3.80481C66.7253 3.80481 64.8048 5.72528 64.8048 8.08521C64.8048 9.63186 65.6381 10.9788 66.8708 11.7302C63.4874 12.6966 61 15.8099 61 19.4996C61 19.7622 61.2131 19.9752 61.4756 19.9752C61.7381 19.9752 61.9512 19.7622 61.9512 19.4996C61.9512 15.5655 65.151 12.3656 69.0852 12.3656C73.0194 12.3656 76.2192 15.5655 76.2192 19.4996C76.2192 19.5082 76.223 19.5148 76.224 19.5215C73.8698 21.9975 72.4144 25.3352 72.4144 29.0116C72.4144 29.2742 72.6275 29.4872 72.89 29.4872C73.1525 29.4872 73.3656 29.2742 73.3656 29.0116C73.3656 21.9309 79.1261 16.1704 86.2068 16.1704C93.2876 16.1704 99.048 21.9309 99.048 29.0116C99.048 29.2742 99.2611 29.4872 99.5236 29.4872C99.7862 29.4872 99.9992 29.2742 99.9992 29.0116C99.9992 25.3352 98.5439 21.9975 96.1897 19.5215C96.1906 19.5148 96.1944 19.5082 96.1944 19.4996C96.1944 15.5655 99.3943 12.3656 103.328 12.3656C107.263 12.3656 110.462 15.5655 110.462 19.4996C110.462 19.7622 110.676 19.9752 110.938 19.9752C111.201 19.9752 111.414 19.7622 111.414 19.4996C111.414 15.8099 108.926 12.6966 105.542 11.7302ZM65.756 8.08521C65.756 6.24939 67.2494 4.75601 69.0852 4.75601C70.921 4.75601 72.4144 6.24939 72.4144 8.08521C72.4144 9.92103 70.921 11.4144 69.0852 11.4144C67.2494 11.4144 65.756 9.92103 65.756 8.08521ZM79.0728 8.08521C79.0728 4.15104 82.2727 0.951201 86.2068 0.951201C90.141 0.951201 93.3408 4.15104 93.3408 8.08521C93.3408 12.0194 90.141 15.2192 86.2068 15.2192C82.2727 15.2192 79.0728 12.0194 79.0728 8.08521ZM99.9992 8.08521C99.9992 6.24939 101.493 4.75601 103.328 4.75601C105.164 4.75601 106.658 6.24939 106.658 8.08521C106.658 9.92103 105.164 11.4144 103.328 11.4144C101.493 11.4144 99.9992 9.92103 99.9992 8.08521Z" fill="#12233D"/>
<path d="M84.3325 49.9996V43.5381" stroke="#12233D"/>
<path d="M88.9476 49.9996V43.5381" stroke="#12233D"/>
<path d="M77.5135 43.7306L86.64 27.9229L95.7666 43.7306H77.5135Z" stroke="#D62C2C"/>
</svg>
