<svg xmlns="http://www.w3.org/2000/svg" viewBox="-3470.278 -19460.277 15.556 15.557">
  <defs>
    <style>
      .cls-1 {
        fill: #fff;
        opacity: 0.5;
      }
    </style>
  </defs>
  <path id="Star" class="cls-1" d="M4,9.5V9.025A2.454,2.454,0,0,0,1.5,7q-.062,0-.122-.005c-.071,0-.112,0-.112,0l.029-.009A1.5,1.5,0,0,1,1.5,4h.24A2.257,2.257,0,0,0,4,1.781V1.5a1.506,1.506,0,0,1,.031-.3c0-.027,0-.041,0-.041l0,.028A1.5,1.5,0,0,1,7,1.5v.432C7.267,4.055,9.6,4,9.6,4L9.589,4A1.5,1.5,0,0,1,9.5,7H8.523A2.436,2.436,0,0,0,7,9.115V9.5a1.5,1.5,0,0,1-3,0Z" transform="translate(-3462.5 -19460.278) rotate(45)"/>
</svg>
