<svg xmlns="http://www.w3.org/2000/svg" xmlns:xlink="http://www.w3.org/1999/xlink" viewBox="-4076 5186.999 50.001 43.157">
  <defs>
    <style>
      .cls-1 {
        fill: url(#linear-gradient);
      }
    </style>
    <linearGradient id="linear-gradient" x2="1" y2="1" gradientUnits="objectBoundingBox">
      <stop offset="0" stop-color="#de3535"/>
      <stop offset="1" stop-color="#e46d2e"/>
    </linearGradient>
  </defs>
  <path id="Team_icon" data-name="Team icon" class="cls-1" d="M21.07-12874.844a2.7,2.7,0,0,1-2.7-2.693v-10.066a3.424,3.424,0,0,1-2.308-3.232v-7.185a8.949,8.949,0,0,1,5-8.023,6.61,6.61,0,0,1-2.694-5.327A6.636,6.636,0,0,1,25-12918a6.636,6.636,0,0,1,6.627,6.63,6.61,6.61,0,0,1-2.694,5.327,8.947,8.947,0,0,1,5.006,8.023v7.185a3.422,3.422,0,0,1-2.312,3.232v10.066a2.7,2.7,0,0,1-2.694,2.693Zm4-13.233a1.128,1.128,0,0,1,1.031,1.142v9.347a.536.536,0,0,0,.538.534h2.289a.484.484,0,0,0,.483-.482v-10.971a1.11,1.11,0,0,1,1.093-1.125,1.2,1.2,0,0,0,1.219-1.2v-7.185a6.732,6.732,0,0,0-6.831-6.724,6.79,6.79,0,0,0-6.62,6.827v7.081a1.2,1.2,0,0,0,1.216,1.2,1.108,1.108,0,0,1,1.093,1.125v10.971a.485.485,0,0,0,.486.482h2.289a.535.535,0,0,0,.535-.534v-9.386a1.1,1.1,0,0,1,1.105-1.1C25.024-12888.079,25.049-12888.079,25.074-12888.077Zm-4.49-23.294a4.419,4.419,0,0,0,4.416,4.413,4.419,4.419,0,0,0,4.416-4.413A4.422,4.422,0,0,0,25-12915.79,4.422,4.422,0,0,0,20.583-12911.371Zm20.1,30.342a2.218,2.218,0,0,1-2.214-2.217v-6.8a2.721,2.721,0,0,1-1.611-2.483v-5.009a6.575,6.575,0,0,1,3.229-5.657,4.937,4.937,0,0,1-1.618-3.66,4.963,4.963,0,0,1,4.957-4.957,4.963,4.963,0,0,1,4.957,4.957,4.937,4.937,0,0,1-1.618,3.66,6.578,6.578,0,0,1,3.232,5.657v5.009a2.724,2.724,0,0,1-1.615,2.483v6.8a2.218,2.218,0,0,1-2.214,2.217Zm3.848-8.8v6.588h1.637l0-7.667a1.1,1.1,0,0,1,1.106-1.105.51.51,0,0,0,.506-.51v-5.012a4.363,4.363,0,0,0-4.357-4.357,4.363,4.363,0,0,0-4.357,4.357v5.012a.51.51,0,0,0,.506.51,1.1,1.1,0,0,1,1.106,1.105v7.664l1.64,0v-6.588a1.107,1.107,0,0,1,1.106-1.105A1.107,1.107,0,0,1,44.535-12889.831Zm-3.851-17.021a2.75,2.75,0,0,0,2.746,2.746,2.75,2.75,0,0,0,2.746-2.746,2.75,2.75,0,0,0-2.746-2.746A2.75,2.75,0,0,0,40.684-12906.852Zm-36.855,25.822a2.22,2.22,0,0,1-2.218-2.217v-6.8A2.726,2.726,0,0,1,0-12892.525v-5.009a6.578,6.578,0,0,1,3.232-5.657,4.939,4.939,0,0,1-1.621-3.66,4.964,4.964,0,0,1,4.96-4.957,4.963,4.963,0,0,1,4.957,4.957,4.939,4.939,0,0,1-1.621,3.66,6.578,6.578,0,0,1,3.232,5.657v5.013a2.719,2.719,0,0,1-1.611,2.479v6.8a2.22,2.22,0,0,1-2.214,2.217Zm3.848-8.8v6.588H9.314l0-7.667a1.1,1.1,0,0,1,1.106-1.105.51.51,0,0,0,.506-.51v-5.012a4.363,4.363,0,0,0-4.357-4.357,4.363,4.363,0,0,0-4.36,4.357v5.012a.51.51,0,0,0,.506.51,1.1,1.1,0,0,1,1.106,1.105v7.664l1.64,0v-6.588a1.108,1.108,0,0,1,1.109-1.105A1.107,1.107,0,0,1,7.677-12889.831Zm-3.855-17.021a2.75,2.75,0,0,0,2.749,2.746,2.75,2.75,0,0,0,2.746-2.746,2.75,2.75,0,0,0-2.746-2.746A2.75,2.75,0,0,0,3.822-12906.852Z" transform="translate(-4076 18105.001)"/>
</svg>
