<svg width="17" height="17" viewBox="0 0 17 17" fill="none" xmlns="http://www.w3.org/2000/svg">
<path d="M8.44667 0C3.78056 0 0 3.78056 0 8.44667C0 13.1128 3.78056 16.8933 8.44667 16.8933C13.1128 16.8933 16.8933 13.1128 16.8933 8.44667C16.8933 3.78056 13.1128 0 8.44667 0ZM11.8185 11.0352C11.1373 11.0352 10.5583 10.8308 10.0474 10.5243L9.46844 13.249H8.14013L8.95755 9.5025C8.61696 9.02567 8.27637 8.48073 8.03796 7.96984V8.54884C8.03796 9.94527 6.91401 11.0692 5.55164 11.0692C4.18927 11.0692 3.06532 9.94527 3.06532 8.54884V5.14293H4.35957V8.54884C4.35957 9.23003 4.90452 9.77497 5.5857 9.77497C6.26688 9.77497 6.81183 9.23003 6.81183 8.54884V5.14293H8.10608C8.37855 5.99441 8.82132 7.01618 9.40032 7.93578C9.74092 6.64153 10.6946 5.85817 11.8866 5.85817C13.2831 5.85817 14.4411 7.01618 14.4411 8.41261C14.373 9.87715 13.2149 11.0352 11.8185 11.0352Z" fill="white"/>
</svg>
