<svg xmlns="http://www.w3.org/2000/svg" xmlns:xlink="http://www.w3.org/1999/xlink" viewBox="-4071 -17780 40 40">
  <defs>
    <style>
      .cls-1 {
        fill: url(#linear-gradient);
      }
    </style>
    <linearGradient id="linear-gradient" x2="1" y2="1" gradientUnits="objectBoundingBox">
      <stop offset="0" stop-color="#de3535"/>
      <stop offset="1" stop-color="#e46d2e"/>
    </linearGradient>
  </defs>
  <path id="Web_icon" data-name="Web icon" class="cls-1" d="M20,0A20,20,0,1,0,40,20,20.023,20.023,0,0,0,20,0ZM15.177,2.69a11.822,11.822,0,0,0-2.3,3.433,28.351,28.351,0,0,0-1.325,3.621h-6.3A18.015,18.015,0,0,1,15.177,2.69ZM4.018,11.795h7.029a39.606,39.606,0,0,0-.813,7.179H2.079A18.227,18.227,0,0,1,4.018,11.795ZM2.084,21.026h8.152a37.5,37.5,0,0,0,.828,7.179h-7A17.339,17.339,0,0,1,2.084,21.026Zm3.223,9.231h6.271a22.681,22.681,0,0,0,1.3,3.57,12.352,12.352,0,0,0,2.261,3.423A17.816,17.816,0,0,1,5.307,30.256Zm13.667,7.525c-1.949-.674-3.985-3.32-5.271-7.525h5.271Zm0-9.576H13.152a35.439,35.439,0,0,1-.864-7.179h6.687v7.179Zm0-9.231H12.286a37.527,37.527,0,0,1,.859-7.179h5.829v7.179Zm0-9.231H13.692a26.638,26.638,0,0,1,1.034-2.751c1.2-2.6,2.71-4.265,4.248-4.776Zm18.947,9.231H29.766a39.6,39.6,0,0,0-.813-7.179h7.029A18.226,18.226,0,0,1,37.921,18.974ZM34.749,9.744h-6.3a28.213,28.213,0,0,0-1.325-3.61A12.538,12.538,0,0,0,24.892,2.7,18.454,18.454,0,0,1,34.749,9.744ZM21.026,2.238c1.538.537,3.033,2.191,4.215,4.754a26.78,26.78,0,0,1,1.068,2.751H21.026V2.238Zm0,9.556h5.829a37.527,37.527,0,0,1,.859,7.179H21.026Zm0,9.231h6.687a35.439,35.439,0,0,1-.864,7.179H21.026Zm0,16.733v-7.5H26.3C25.025,34.359,23.077,37.049,21.026,37.759Zm3.942-.531a13.566,13.566,0,0,0,2.152-3.412,22.549,22.549,0,0,0,1.3-3.56h6.271A17.683,17.683,0,0,1,24.968,37.229Zm10.971-9.023h-7a37.506,37.506,0,0,0,.828-7.179h8.152A17.341,17.341,0,0,1,35.939,28.205Z" transform="translate(-4071 -17780)"/>
</svg>
