<svg xmlns="http://www.w3.org/2000/svg" viewBox="0 0 294.812 294.812" width="512" height="512"><path d="M251.654 43.164c-57.48-57.48-151.006-57.48-208.485 0C23.002 63.33 9.207 88.667 3.274 116.434-2.502 143.47-.6 171.483 8.745 197.44c1.124 3.117 4.563 4.733 7.68 3.6a6 6 0 0 0 3.61-7.679c-8.595-23.85-10.333-49.586-5.025-74.43 5.447-25.496 18.12-48.766 36.645-67.292 52.8-52.8 138.714-52.8 191.515 0 25.145 25.146 39.22 58.57 39.634 94.12.413 35.484-12.81 69.176-37.234 94.868l-.86.916-1.54 1.61c-52.8 52.8-138.714 52.8-191.515 0a44.08 44.08 0 0 1-.826-.853l-.026-1.638c0-1.208.023-2.41.067-3.6.015-.4.045-.798.065-1.198l.134-2.387c.035-.473.086-.94.128-1.412l.2-2.14c.055-.502.127-1 .2-1.5l.266-2.024.25-1.528.332-1.96.308-1.537.398-1.914.366-1.54.46-1.87.423-1.535.524-1.833.48-1.522.587-1.8.532-1.503.65-1.772.585-1.482.712-1.738.638-1.462.773-1.705.688-1.436.835-1.676.735-1.404.898-1.65.78-1.373.958-1.615.83-1.344 1.017-1.58.873-1.3 1.078-1.547.916-1.274 1.137-1.51.957-1.237 1.198-1.477.994-1.195 1.26-1.443 1.03-1.153 1.32-1.404 1.066-1.112 1.384-1.368 1.095-1.064 1.454-1.335 1.116-1c.503-.443 1.02-.873 1.532-1.306l1.13-.95c.53-.434 1.075-.855 1.617-1.28l1.132-.887c.57-.433 1.154-.85 1.736-1.27l1.1-.8c.642-.45 1.3-.886 1.954-1.323l.964-.65a96.73 96.73 0 0 1 2.598-1.622l.405-.252a98.84 98.84 0 0 1 3.076-1.766c.355-.195.72-.378 1.08-.57l2.077-1.09c.45-.226.91-.438 1.362-.657l1.72-.824c10.875 10.388 25.382 16.27 40.44 16.27s29.566-5.882 40.44-16.27c21.23 9.825 38.604 27.454 48.037 48.892a6 6 0 1 0 10.983-4.832c-10.318-23.45-28.28-42.19-51.018-53.5 6.597-9.677 10.166-21.104 10.166-32.896 0-32.317-26.292-58.61-58.61-58.61-3.313 0-6 2.687-6 6s2.687 6 6 6c25.7 0 46.61 20.91 46.61 46.61 0 11.492-4.27 22.558-12.025 31.157-8.857 9.82-21.46 15.452-34.585 15.452s-25.73-5.63-34.582-15.45c-7.758-8.606-12.028-19.67-12.028-31.16 0-12.544 4.91-24.312 13.83-33.134a6 6 0 1 0-8.44-8.531c-11.213 11.1-17.39 25.887-17.39 41.66 0 11.78 3.56 23.2 10.146 32.87-.06.03-.116.06-.174.09-.468.234-.925.482-1.39.72l-2.125 1.117-1.472.83-1.957 1.123-1.5.91-1.85 1.156-1.482.98-1.77 1.198-1.46 1.04-1.7 1.245-1.43 1.095-1.636 1.294-1.394 1.146-1.58 1.347-1.35 1.2-1.528 1.403-1.3 1.23-1.48 1.462-1.246 1.262-1.436 1.527-1.187 1.29-1.4 1.604-1.115 1.297c-.47.563-.927 1.137-1.386 1.71l-1.024 1.277c-.482.62-.948 1.252-1.416 1.882l-.884 1.185a106.27 106.27 0 0 0-1.733 2.488l-.455.655c-.707 1.056-1.394 2.124-2.063 3.204-.23.373-.448.754-.674 1.13l-1.285 2.166-.76 1.377-1.082 1.986-.76 1.495-.966 1.938-.727 1.563-.877 1.934-.683 1.614-.798 1.946-.633 1.65-.723 1.968-.58 1.684-.65 1.99-.522 1.706-.58 2.026-.462 1.72-.51 2.063-.4 1.73-.437 2.106-.338 1.73-.366 2.163-.272 1.71-.295 2.246-.206 1.67c-.086.786-.152 1.577-.22 2.368l-.14 1.582c-.064.883-.106 1.77-.15 2.658l-.07 1.32c-.048 1.332-.075 2.67-.075 4.01 0 1.45.05 2.82.108 4.332a6.13 6.13 0 0 0 .133 1.022c.006.026.01.052.015.078.074.327.178.64.303.945.012.03.023.06.036.1.13.3.283.586.457.858l.065.1c.18.267.378.518.595.752.016.017.027.038.043.055l.792.843 1.82 1.9c28.74 28.74 66.49 43.1 104.243 43.1s75.503-14.37 104.243-43.1c.624-.623 1.222-1.262 1.82-1.9l.792-.843c26.59-27.97 40.985-64.647 40.536-103.275-.447-38.705-15.77-75.095-43.145-102.47z" fill="#d62c2c"/></svg>