<?xml version="1.0"?>
<svg xmlns="http://www.w3.org/2000/svg" height="512px" viewBox="-66 0 457 457.17553" width="512px"><g><path d="m324.378906 155.742188c-3.09375-79.699219-75.722656-152.414063-155.425781-155.609376-44.566406-1.761718-86.910156 14.257813-119.054687 45.140626-32.117188 30.871093-49.8125005 72.375-49.8125005 116.863281 0 50.546875 22.8906245 97.269531 62.7890625 128.183593 31.613281 24.535157 45.101562 49.664063 45.101562 84.019532v44.617187c0 5.050781 4.09375 9.144531 9.140626 9.144531 10.992187 0 19.933593 8.941407 19.933593 19.929688 0 5.050781 4.09375 9.144531 9.144531 9.144531h32.179688c5.046875 0 9.140625-4.09375 9.140625-9.144531 0-10.988281 8.941406-19.929688 19.933594-19.929688 5.050781 0 9.144531-4.09375 9.144531-9.144531v-44.617187c0-33.894532 13.804688-59.285156 46.175781-84.894532 40.609375-32.070312 63.640625-82.050781 61.609375-133.703124zm-154.042968 283.148437h-16.105469c-3.382813-13.746094-14.222657-24.585937-27.96875-27.96875v-27.429687h72.042969v27.429687c-13.742188 3.382813-24.582032 14.222656-27.96875 27.96875zm81.09375-163.789063c-.003907 0-.003907.003907-.007813.003907-33.824219 26.765625-50.214844 54.933593-52.625 90.101562h-73.011719c-2.34375-35.59375-18.4375-63.515625-51.707031-89.339843-35.402344-27.421876-55.703125-68.878907-55.703125-113.730469 0-39.464844 15.695312-76.285157 44.199219-103.679688 28.519531-27.40625 66.054687-41.511719 105.652343-40.058593 70.703126 2.839843 135.132813 67.347656 137.882813 138.058593 1.828125 46.519531-18.101563 89.757813-54.679687 118.644531zm0 0" data-original="#000000" class="active-path" data-old_color="#d62c2c" fill="#d62c2c"/><path d="m162.511719 103.40625c13.722656 0 24.886719 11.121094 24.886719 24.789062 0 5.046876 4.09375 9.140626 9.144531 9.140626s9.144531-4.09375 9.144531-9.140626c0-20.632812-14.628906-37.882812-34.242188-42.070312v-8.675781c0-5.050781-4.09375-9.144531-9.144531-9.144531-5.046875 0-9.140625 4.09375-9.140625 9.144531v8.734375c-19.304687 4.289062-33.824218 21.507812-33.824218 42.011718 0 23.542969 19.136718 42.910157 42.914062 43.171876 13.582031.078124 24.632812 11.203124 24.632812 24.789062 0 13.648438-11.050781 24.8125-24.785156 24.890625-13.730468 0-24.894531-11.164063-24.894531-24.890625 0-5.046875-4.09375-9.140625-9.140625-9.140625-5.050781 0-9.144531 4.09375-9.144531 9.140625 0 20.679688 14.632812 37.972656 34.242187 42.167969v8.683593c0 5.046876 4.09375 9.140626 9.140625 9.140626 5.050781 0 9.144531-4.09375 9.144531-9.140626v-8.746093c19.246094-4.308594 33.722657-21.5625 33.722657-42.105469 0-23.613281-19.207031-42.941406-42.96875-43.074219-13.554688-.152343-24.574219-11.316406-24.574219-24.886719 0-13.59375 11.09375-24.710937 24.886719-24.789062zm0 0" data-original="#000000" class="active-path" data-old_color="#d62c2c" fill="#d62c2c"/></g> </svg>
