<svg xmlns="http://www.w3.org/2000/svg" height="512" viewBox="-66 0 457 457.176" width="512" fill="#d62c2c"><path d="M324.38 155.742C321.285 76.043 248.656 3.328 168.953.133c-44.566-1.762-86.9 14.258-119.055 45.14C17.78 76.145.086 117.648.086 162.137c0 50.547 22.9 97.27 62.8 128.184 31.613 24.535 45.102 49.664 45.102 84.02v44.617c0 5.05 4.094 9.145 9.14 9.145 10.992 0 19.934 8.94 19.934 19.93a9.15 9.15 0 0 0 9.145 9.145h32.18c5.047 0 9.14-4.094 9.14-9.145 0-10.988 8.94-19.93 19.934-19.93a9.15 9.15 0 0 0 9.145-9.145V374.34c0-33.895 13.805-59.285 46.176-84.895 40.6-32.07 63.64-82.05 61.6-133.703zM170.336 438.9H154.23a38.34 38.34 0 0 0-27.97-27.97V383.5h72.043v27.43c-13.742 3.383-24.582 14.223-27.97 27.97zm81.094-163.8c-33.832 26.77-50.223 54.938-52.633 90.105h-73.012c-2.344-35.594-18.437-63.516-51.707-89.34-35.402-27.422-55.703-68.88-55.703-113.73 0-39.465 15.695-76.285 44.2-103.68 28.52-27.406 66.055-41.512 105.652-40.06 70.703 2.84 135.133 67.348 137.883 138.06 1.828 46.52-18.102 89.758-54.68 118.645zm-88.918-171.694c13.723 0 24.887 11.12 24.887 24.8 0 5.047 4.094 9.14 9.145 9.14s9.145-4.094 9.145-9.14c0-20.633-14.63-37.883-34.242-42.07V77.45a9.15 9.15 0 0 0-9.145-9.145c-5.05 0-9.14 4.094-9.14 9.145v8.734c-19.305 4.3-33.824 21.508-33.824 42.012 0 23.543 19.137 42.9 42.914 43.172 13.582.078 24.633 11.203 24.633 24.8 0 13.648-11.05 24.813-24.785 24.9-13.73 0-24.895-11.164-24.895-24.9 0-5.047-4.094-9.14-9.14-9.14a9.15 9.15 0 0 0-9.145 9.14c0 20.68 14.633 37.973 34.242 42.168V247c0 5.047 4.094 9.14 9.14 9.14a9.15 9.15 0 0 0 9.145-9.14v-8.746c19.246-4.3 33.723-21.562 33.723-42.105 0-23.613-19.207-42.94-42.97-43.074-13.555-.152-24.574-11.316-24.574-24.887 0-13.594 11.094-24.7 24.887-24.8zm0 0"/></svg>