<svg xmlns="http://www.w3.org/2000/svg" viewBox="0 0 470 470" width="512" height="512" fill="#d62c2c"><path d="M202.5 405.883V285.675a7.5 7.5 0 0 0-7.5-7.5h-50a7.5 7.5 0 1 0 0 15h42.5v112.708c-14.315 3.396-25 16.278-25 31.617 0 17.92 14.58 32.5 32.5 32.5s32.5-14.58 32.5-32.5c0-15.34-10.685-28.22-25-31.617zM195 455c-9.65 0-17.5-7.85-17.5-17.5S185.35 420 195 420s17.5 7.85 17.5 17.5S204.65 455 195 455zm87.5-49.117V285.675a7.5 7.5 0 0 0-7.5-7.5h-50a7.5 7.5 0 1 0 0 15h42.5v112.708c-14.315 3.396-25 16.278-25 31.617 0 17.92 14.58 32.5 32.5 32.5s32.5-14.58 32.5-32.5c0-15.34-10.685-28.22-25-31.617zM275 455c-9.65 0-17.5-7.85-17.5-17.5S265.35 420 275 420s17.5 7.85 17.5 17.5S284.65 455 275 455zm135-100c-15.34 0-28.22 10.685-31.617 25H362.5v-94.325a7.5 7.5 0 0 0-7.5-7.5h-50a7.5 7.5 0 1 0 0 15h42.5V387.5a7.5 7.5 0 0 0 7.5 7.5h23.383c3.396 14.315 16.278 25 31.617 25 17.92 0 32.5-14.58 32.5-32.5S427.92 355 410 355zm0 50c-9.65 0-17.5-7.85-17.5-17.5S400.35 370 410 370s17.5 7.85 17.5 17.5S419.65 405 410 405zm42.14-243.443c-10.108-12.55-23.837-21.848-39.113-26.592-1.72-35.503-16.45-68.628-41.84-93.806C344.422 14.617 308.922 0 271.226 0c-49.5 0-95.306 25.812-121.066 67.787a64.41 64.41 0 0 0-19.434-2.972c-30.637 0-56.983 21.626-63.336 51.105C28.044 126.127 0 161.988 0 203.1c0 49.667 40.406 90.074 90.073 90.074H107.5V380H91.617C88.22 365.685 75.34 355 60 355c-17.92 0-32.5 14.58-32.5 32.5S42.08 420 60 420c15.34 0 28.22-10.685 31.617-25H115a7.5 7.5 0 0 0 7.5-7.5V285.675a7.5 7.5 0 0 0-7.5-7.5H90.073C48.678 278.175 15 244.497 15 203.1c0-35.723 25.395-66.688 60.383-73.627a7.5 7.5 0 0 0 5.978-6.383c3.23-24.67 24.45-43.275 49.365-43.275a49.45 49.45 0 0 1 19.756 4.08 7.5 7.5 0 0 0 9.543-3.254C182.4 40.152 225.02 15 271.226 15c69.384 0 126.34 56.438 126.966 125.812a7.5 7.5 0 0 0 5.809 7.239c30.028 6.95 51 33.35 51 64.203 0 36.35-29.57 65.92-65.92 65.92H385a7.5 7.5 0 1 0 0 15h4.08c44.62 0 80.92-36.3 80.92-80.92 0-18.395-6.343-36.4-17.86-50.697zM60 405c-9.65 0-17.5-7.85-17.5-17.5S50.35 370 60 370s17.5 7.85 17.5 17.5S69.65 405 60 405zm305.692-256.395h.07c4.142-.038 7.47-3.426 7.432-7.568a100.92 100.92 0 0 0-6.931-35.931c-1.508-3.858-5.856-5.765-9.715-4.258a7.5 7.5 0 0 0-4.258 9.715 85.94 85.94 0 0 1 5.903 30.6c.04 4.12 3.4 7.432 7.5 7.432zm-27.414-61.85a7.48 7.48 0 0 0 5.786 2.724c1.683 0 3.375-.563 4.772-1.718 3.193-2.638 3.644-7.365 1.006-10.56C330.312 53.56 301.657 40 271.227 40a7.5 7.5 0 1 0 0 15c25.94 0 50.38 11.574 67.05 31.756z"/></svg>