<svg xmlns="http://www.w3.org/2000/svg" height="512" viewBox="-21 -86 682.667 682" width="512" fill="#d62c2c"><path d="M627.5 199.402c-6.906 0-12.5 5.602-12.5 12.5v44.547c0 25.563-20.8 46.363-46.363 46.363h-71.25a12.51 12.51 0 0 0-8.84 3.656l-86.38 86.383v-77.54a12.5 12.5 0 0 0-12.5-12.5H210.7c-25.562 0-46.363-20.797-46.363-46.363V67.36c0-25.562 20.8-46.36 46.363-46.36h357.938C594.2 21 615 41.797 615 67.36v44.543a12.5 12.5 0 0 0 12.5 12.5c6.898 0 12.5-5.594 12.5-12.5V67.36C640 28.012 607.988-4 568.637-4H210.7c-39.352 0-71.363 32.012-71.363 71.36v160.6h-90.98C21.695 227.95 0 249.637 0 276.305v115.188c0 26.668 21.695 48.355 48.355 48.355h38.23l61.953 61.957a12.5 12.5 0 0 0 8.844 3.664c1.6 0 3.238-.312 4.78-.953 4.672-1.934 7.72-6.488 7.72-11.547v-53.12h96.523c26.664 0 48.355-21.687 48.355-48.355v-63.68h62.406v95.215c0 5.06 3.047 9.613 7.72 11.547a12.46 12.46 0 0 0 4.781.953 12.48 12.48 0 0 0 8.84-3.664l104.055-104.05h66.074c39.352 0 71.363-32.012 71.363-71.363v-44.547a12.51 12.51 0 0 0-12.5-12.5zm-337.734 192.1c0 12.883-10.477 23.355-23.36 23.355H157.383c-6.906 0-12.5 5.602-12.5 12.5v35.445l-44.28-44.28c-2.344-2.344-5.523-3.664-8.84-3.664H48.355c-12.88 0-23.355-10.473-23.355-23.355V276.305c0-12.88 10.477-23.355 23.355-23.355h90.98v3.5c0 39.352 32.012 71.363 71.363 71.363h79.066zM511.543 77.914h-243.75c-6.902 0-12.5 5.598-12.5 12.5a12.5 12.5 0 0 0 12.5 12.5h243.75a12.5 12.5 0 0 0 12.5-12.5c0-6.902-5.598-12.5-12.5-12.5zm0 0"/><path d="M524.043 157.918c0-6.902-5.598-12.5-12.5-12.5h-243.75c-6.902 0-12.5 5.598-12.5 12.5a12.5 12.5 0 0 0 12.5 12.5h243.75a12.5 12.5 0 0 0 12.5-12.5zm-256.25 55c-6.902 0-12.5 5.598-12.5 12.5a12.5 12.5 0 0 0 12.5 12.5h140.625a12.5 12.5 0 0 0 12.5-12.5c0-6.902-5.598-12.5-12.5-12.5zM627.5 149.402a12.53 12.53 0 0 0-12.5 12.5c0 6.887 5.617 12.5 12.5 12.5s12.5-5.613 12.5-12.5a12.53 12.53 0 0 0-12.5-12.5zm0 0"/></svg>