<svg xmlns="http://www.w3.org/2000/svg" height="512" viewBox="-59 1 511 511.999" width="512" fill="#d62c2c"><path d="M385.98 133.152a7.5 7.5 0 0 0 7.5-7.5v-31.27c0-1.074-.16-2.027-.684-3.18-.387-.836-.934-1.625-1.648-2.305l-91.324-86.83c-2.16-2.05-4.758-2.07-4.656-2.047-.488-.035 11.887-.01-265.336-.02C13.746 0 .5 13.07.5 29.336v453.332C.5 498.754 13.574 512 29.832 512h334.313c16.176 0 29.332-13.16 29.332-29.332V153.652a7.5 7.5 0 0 0-7.5-7.5c-4.14 0-7.5 3.36-7.5 7.5v205.05H91.523a7.5 7.5 0 1 0 0 15H378.48v108.965c0 7.902-6.43 14.332-14.336 14.332H29.832c-7.902 0-14.332-6.43-14.332-14.332V373.703h48.023a7.5 7.5 0 0 0 7.5-7.5c0-4.14-3.36-7.5-7.5-7.5H15.5V64.5h271.656v8c0 16.176 13.16 29.336 29.332 29.336h61.992v23.816a7.5 7.5 0 0 0 7.5 7.5zM15.5 49.504V29.336c0-7.902 6.43-14.332 14.332-14.332h257.324v34.5zm300.988 37.332c-7.902 0-14.332-6.43-14.332-14.336V24.98l65.05 61.855zM163.47 469.56c14.03 0 25.4-11.156 25.4-24.922v-36.55c0-3.293-2.672-5.965-5.96-5.965a5.97 5.97 0 0 0-5.965 5.965v36.55c0 15.38-21.97 18.875-26.383 3.64-.72-2.477-3-4.3-5.707-4.3-3.977 0-6.82 3.875-5.687 7.672 3.137 10.516 12.863 17.898 24.293 17.898zm65.1-11.435c-6.53 0-12.94-2.422-18.62-5.305-3.832-1.953-8.375.852-8.375 5.145 0 2.168 1.195 4.06 2.965 5.047 22.266 12.355 50.516 6.527 50.516-13.4 0-14.758-14.465-17.8-26.88-20.035-8.223-1.488-13.777-2.25-13.805-7.664-.02-4.555 3.938-9.344 13.902-9.344 6.664 0 12.504 2.14 17.652 4.922 3.77 2.05 8.465-.668 8.465-5.047a5.73 5.73 0 0 0-3.035-5.062c-26.437-14.098-48.88-2.4-48.9 15.027-.043 26.223 40.62 14.918 40.73 27.586.06 6.848-9.918 8.12-14.605 8.12zm0 0"/></svg>