<svg xmlns="http://www.w3.org/2000/svg" viewBox="0 0 64 64" width="512" height="512" fill="#d62c2c"><path d="M61.23 38.32a42.037 42.037 0 0 0-9.33-.827c1.8-4.555 2.17-10.047 1.086-16.37a1 1 0 0 0-1.225-.8 35.321 35.321 0 0 0-9.549 4.3 31.238 31.238 0 0 0-9.52-13.4 1 1 0 0 0-1.324.09c-4.435 4.5-7.4 9.146-8.852 13.8a35.436 35.436 0 0 0-10.275-4.792 1 1 0 0 0-1.225.8c-1.085 6.324-.7 11.815 1.086 16.37a42.037 42.037 0 0 0-9.33.827.994.994 0 0 0-.658.512 1 1 0 0 0-.042.832c4.346 10.882 12.817 13.4 19.7 13.4A32.955 32.955 0 0 0 32 51.354a32.948 32.948 0 0 0 10.23 1.7c6.882 0 15.354-2.508 19.7-13.4a1 1 0 0 0-.042-.832.994.994 0 0 0-.659-.514zm-11.547-.72a26.337 26.337 0 0 0-10.494 2.9.982.982 0 0 0-.462.26 17.242 17.242 0 0 0-5.189 4.609 23.872 23.872 0 0 0-.509-5.5c1.2-5.077 4.285-9.4 9.2-12.858a34.769 34.769 0 0 1 8.967-4.437c.854 5.882.338 10.926-1.513 15.026zM32.15 13.368c1.76 1.56 6.44 6.167 8.345 12.447A24.185 24.185 0 0 0 32 36.5a23.833 23.833 0 0 0-7.774-10.14c1.2-4.34 3.86-8.703 7.923-12.992zm-19.34 9.2a34.439 34.439 0 0 1 9.672 4.95 21.426 21.426 0 0 1 8.492 12.345 23.822 23.822 0 0 0-.51 5.5c-4.05-5.44-10.5-7.314-16.146-7.768-1.85-4.095-2.366-9.14-1.508-15.024zm7.585 28.488c-7.487-.406-12.86-4.112-16-11.016 4.533-.772 20.88-2.608 26.272 9.648a30.251 30.251 0 0 1-10.283 1.371zm23.212 0a30.31 30.31 0 0 1-10.283-1.371C38.713 37.433 55.06 39.27 59.6 40.04c-3.134 6.904-8.507 10.6-15.994 11.02zM31 18.292h2v2h-2zm0 4h2v2h-2zm0 4h2v2h-2zm-17 0a15.238 15.238 0 0 0 2.168 7.555l1.664-1.1A13.4 13.4 0 0 1 16 26.291zm36 0h-2a13.31 13.31 0 0 1-1.832 6.445l1.664 1.1A15.238 15.238 0 0 0 50 26.292z"/></svg>