<?xml version="1.0"?>
<svg xmlns="http://www.w3.org/2000/svg" xmlns:xlink="http://www.w3.org/1999/xlink" version="1.1" id="Capa_1" x="0px" y="0px" viewBox="0 0 480.007 480.007" style="enable-background:new 0 0 480.007 480.007;" xml:space="preserve" width="512px" height="512px" class=""><g><g>
	<g>
		<path d="M355.496,107.2c-32.029-27.855-73.046-43.196-115.493-43.197c-15.771-0.003-31.472,2.112-46.68,6.288    c-4.096,1.128-8.136,2.456-12.136,3.872c-25.57,9.033-48.702,23.863-67.584,43.328c-2.208,2.272-4.341,4.611-6.4,7.016    c-63.799,73.334-56.07,184.503,17.264,248.302c44.489,38.704,105.404,52.557,162.256,36.898c4.096-1.128,8.136-2.456,12.136-3.872    c25.555-9.036,48.673-23.863,67.544-43.32c2.208-2.272,4.341-4.611,6.4-7.016C436.59,282.154,428.841,170.987,355.496,107.2z     M126.659,127.099v0.008c3.552-3.56,7.2-6.976,11.064-10.168c3.848-3.2,7.864-6.176,12-8.992c0.352-0.232,0.68-0.48,1.024-0.72    c3.936-2.64,8-5.08,12.144-7.36c0.568-0.312,1.12-0.632,1.688-0.936c4.064-2.168,8.224-4.144,12.456-5.96    c0.688-0.288,1.368-0.584,2.056-0.864c4.072-1.68,8.224-3.2,12.424-4.504c-13.948,15.52-24.608,33.704-31.336,53.456    c-11.773-3.354-23.203-7.814-34.136-13.32C126.227,127.523,126.451,127.315,126.659,127.099z M115.275,140.003    c12.704,6.792,26.087,12.23,39.928,16.224c-6.887,24.685-10.578,50.151-10.984,75.776H80.363    C82.009,198.423,94.229,166.222,115.275,140.003z M115.275,340.003c-21.048-26.218-33.268-58.419-34.912-92h63.856    c0.406,25.624,4.098,51.091,10.984,75.776C141.362,327.773,127.979,333.211,115.275,340.003z M179.075,387.923l-2.08-0.888    c-4.224-1.808-8.371-3.792-12.44-5.952c-0.568-0.304-1.136-0.632-1.704-0.944c-4.136-2.28-8.2-4.712-12.128-7.352l-1.048-0.736    c-4.096-2.808-8.096-5.776-11.936-8.968c-3.84-3.2-7.512-6.608-11.056-10.168l-0.656-0.632    c10.935-5.506,22.364-9.968,34.136-13.328c6.726,19.755,17.386,37.943,31.336,53.464    C187.299,391.083,183.147,389.595,179.075,387.923z M232.003,399.203c-22.552-4.72-42.6-29.2-55.8-64.256    c18.339-4.036,37.027-6.281,55.8-6.704V399.203z M232.003,312.243c-20.502,0.424-40.909,2.911-60.912,7.424    c-6.702-23.319-10.359-47.407-10.88-71.664h71.792V312.243z M232.003,232.003h-71.792c0.52-24.257,4.177-48.345,10.88-71.664    c20.003,4.513,40.41,7,60.912,7.424V232.003z M232.003,151.763c-18.772-0.41-37.46-2.642-55.8-6.664    c13.2-35.056,33.248-59.536,55.8-64.256V151.763z M364.731,140.003c21.048,26.218,33.268,58.419,34.912,92h-63.856    c-0.406-25.624-4.098-51.091-10.984-75.776C338.644,152.233,352.027,146.796,364.731,140.003z M300.931,92.091l2.08,0.888    c4.224,1.808,8.371,3.792,12.44,5.952c0.568,0.304,1.136,0.632,1.704,0.944c4.136,2.28,8.2,4.712,12.128,7.352l1.048,0.736    c4.096,2.808,8.096,5.776,11.936,8.968c3.84,3.2,7.512,6.608,11.056,10.168l0.656,0.632c-10.934,5.506-22.364,9.968-34.136,13.328    c-6.726-19.755-17.386-37.943-31.336-53.464C292.707,88.931,296.859,90.419,300.931,92.091z M248.003,80.843    c22.552,4.72,42.6,29.2,55.8,64.256c-18.34,4.022-37.028,6.254-55.8,6.664V80.843z M248.003,167.763    c20.502-0.424,40.909-2.911,60.912-7.424c6.702,23.319,10.359,47.407,10.88,71.664h-71.792V167.763z M248.003,248.003h71.792    c-0.52,24.257-4.177,48.345-10.88,71.664c-20.003-4.513-40.41-7-60.912-7.424V248.003z M248.003,399.203v-70.96    c18.772,0.41,37.46,2.642,55.8,6.664C290.603,369.963,270.555,394.443,248.003,399.203z M353.347,352.907v-0.008    c-3.552,3.56-7.2,6.976-11.064,10.168c-3.848,3.2-7.864,6.176-12,8.992c-0.352,0.232-0.68,0.48-1.024,0.72    c-3.936,2.64-8,5.08-12.144,7.36c-0.568,0.312-1.12,0.632-1.688,0.936c-4.064,2.168-8.224,4.144-12.456,5.96    c-0.688,0.288-1.368,0.584-2.056,0.864c-4.072,1.68-8.224,3.2-12.424,4.504c13.948-15.52,24.608-33.704,31.336-53.456    c11.773,3.354,23.203,7.814,34.136,13.32C353.779,352.483,353.555,352.691,353.347,352.907z M364.731,340.003    c-12.704-6.792-26.087-12.23-39.928-16.224c6.887-24.685,10.578-50.152,10.984-75.776h63.856    C397.998,281.584,385.778,313.785,364.731,340.003z" data-original="#000000" class="active-path" data-old_color="#d62c2c" fill="#d62c2c"/>
	</g>
</g><g>
	<g>
		<path d="M428.387,91.283c-2.783-3.432-7.821-3.957-11.253-1.174c-3.37,2.734-3.947,7.656-1.299,11.094    c31.365,39.447,48.354,88.403,48.168,138.8c0.005,123.712-100.279,224.004-223.991,224.009    c-50.274,0.002-99.087-16.908-138.585-48.009h26.576c4.418,0,8-3.582,8-8s-3.582-8-8-8h-48h-0.096    c-0.693,0.047-1.376,0.187-2.032,0.416c-0.346,0.049-0.689,0.124-1.024,0.224c-0.2,0.08-0.352,0.264-0.544,0.36    c-0.744,0.367-1.427,0.847-2.024,1.424l-0.072,0.048c-0.182,0.256-0.348,0.523-0.496,0.8c-0.452,0.536-0.829,1.13-1.12,1.768    c-0.184,0.583-0.305,1.183-0.36,1.792c-0.107,0.383-0.184,0.773-0.232,1.168v48c0,4.418,3.582,8,8,8s8-3.582,8-8v-30.344    c102.502,83.983,253.677,68.97,337.66-33.532c35.152-42.903,54.354-96.66,54.34-152.124    C480.203,186.004,461.997,133.548,428.387,91.283z" data-original="#000000" class="active-path" data-old_color="#d62c2c" fill="#d62c2c"/>
	</g>
</g><g>
	<g>
		<path d="M400.003,16.003c-4.418,0-8,3.582-8,8v30.344c-102.502-83.983-253.677-68.97-337.66,33.532    c-35.152,42.903-54.354,96.66-54.34,152.124c-0.205,54.208,18.145,106.855,52,149.192c2.73,3.474,7.759,4.077,11.233,1.347    c3.474-2.73,4.077-7.759,1.347-11.233c-0.017-0.022-0.035-0.044-0.052-0.065c-31.596-39.513-48.721-88.648-48.528-139.24    C15.998,116.291,116.282,15.999,239.994,15.994c50.274-0.002,99.087,16.908,138.585,48.009h-26.576c-4.418,0-8,3.582-8,8    s3.582,8,8,8h48h0.08c0.821-0.035,1.631-0.2,2.4-0.488c0.224-0.036,0.445-0.084,0.664-0.144c0.262-0.158,0.516-0.329,0.76-0.512    c0.664-0.337,1.275-0.768,1.816-1.28l0.072-0.048c0.185-0.256,0.353-0.523,0.504-0.8c0.91-0.967,1.433-2.233,1.472-3.56    c0.106-0.383,0.184-0.773,0.232-1.168v-48C408.003,19.585,404.422,16.003,400.003,16.003z" data-original="#000000" class="active-path" data-old_color="#d62c2c" fill="#d62c2c"/>
	</g>
</g></g> </svg>
