<svg xmlns="http://www.w3.org/2000/svg" viewBox="0 0 480.007 480.007" width="512" height="512" fill="#d62c2c"><path d="M355.496 107.2a176 176 0 0 0-115.493-43.197c-15.77-.003-31.472 2.112-46.68 6.288-4.096 1.128-8.136 2.456-12.136 3.872a175.69 175.69 0 0 0-67.584 43.328 150.56 150.56 0 0 0-6.4 7.016C43.404 197.84 51.133 309 124.467 372.8c44.5 38.704 105.404 52.557 162.256 36.898 4.096-1.128 8.136-2.456 12.136-3.872a175.68 175.68 0 0 0 67.544-43.32 150.56 150.56 0 0 0 6.4-7.016c63.787-73.345 56.038-184.512-17.307-248.3zM126.66 127.1v.008c3.552-3.56 7.2-6.976 11.064-10.168 3.848-3.2 7.864-6.176 12-8.992.352-.232.68-.48 1.024-.72 3.936-2.64 8-5.08 12.144-7.36l1.688-.936c4.064-2.168 8.224-4.144 12.456-5.96l2.056-.864c4.072-1.68 8.224-3.2 12.424-4.504-13.948 15.52-24.608 33.704-31.336 53.456a194.17 194.17 0 0 1-34.136-13.32c.184-.216.408-.424.616-.64zm-11.384 12.904a205.57 205.57 0 0 0 39.928 16.224 299.63 299.63 0 0 0-10.984 75.776H80.363a159.44 159.44 0 0 1 34.912-92zm0 200a159.41 159.41 0 0 1-34.912-92h63.856c.406 25.624 4.098 51.1 10.984 75.776a205.57 205.57 0 0 0-39.928 16.224zm63.8 47.92l-2.08-.888a165.16 165.16 0 0 1-12.44-5.952l-1.704-.944c-4.136-2.28-8.2-4.712-12.128-7.352l-1.048-.736c-4.096-2.808-8.096-5.776-11.936-8.968-3.84-3.2-7.512-6.608-11.056-10.168l-.656-.632c10.935-5.506 22.364-9.968 34.136-13.328A154.45 154.45 0 0 0 191.5 392.42c-4.2-1.336-8.352-2.824-12.424-4.496zm52.928 11.28c-22.552-4.72-42.6-29.2-55.8-64.256a290.01 290.01 0 0 1 55.8-6.704v70.96zm0-86.96c-20.502.424-40.9 2.9-60.912 7.424a281.31 281.31 0 0 1-10.88-71.664h71.792v64.24zm0-80.24H160.2c.52-24.257 4.177-48.345 10.88-71.664 20.003 4.513 40.4 7 60.912 7.424v64.24zm0-80.24a290.06 290.06 0 0 1-55.8-6.664c13.2-35.056 33.248-59.536 55.8-64.256v70.92zm132.728-11.76a159.41 159.41 0 0 1 34.912 92h-63.856c-.406-25.624-4.098-51.1-10.984-75.776a205.51 205.51 0 0 0 39.928-16.224zm-63.8-47.912l2.08.888a165.16 165.16 0 0 1 12.44 5.952c.568.304 1.136.632 1.704.944 4.136 2.28 8.2 4.712 12.128 7.352l1.048.736c4.096 2.808 8.096 5.776 11.936 8.968 3.84 3.2 7.512 6.608 11.056 10.168l.656.632c-10.934 5.506-22.364 9.968-34.136 13.328a154.45 154.45 0 0 0-31.336-53.464c4.2 1.336 8.352 2.824 12.424 4.496zm-52.928-11.248c22.552 4.72 42.6 29.2 55.8 64.256a290.06 290.06 0 0 1-55.8 6.664v-70.92zm0 86.92c20.502-.424 40.9-2.9 60.912-7.424a281.31 281.31 0 0 1 10.88 71.664h-71.792v-64.24zm0 80.24h71.792c-.52 24.257-4.177 48.345-10.88 71.664-20.003-4.513-40.4-7-60.912-7.424v-64.24zm0 151.2v-70.96a290.06 290.06 0 0 1 55.8 6.664c-13.2 35.056-33.248 59.536-55.8 64.296zm105.344-46.296v-.008c-3.552 3.56-7.2 6.976-11.064 10.168-3.848 3.2-7.864 6.176-12 8.992-.352.232-.68.48-1.024.72-3.936 2.64-8 5.08-12.144 7.36l-1.688.936c-4.064 2.168-8.224 4.144-12.456 5.96l-2.056.864c-4.072 1.68-8.224 3.2-12.424 4.504 13.948-15.52 24.608-33.704 31.336-53.456a194.17 194.17 0 0 1 34.136 13.32c-.184.216-.408.424-.616.64zm11.384-12.904a205.57 205.57 0 0 0-39.928-16.224 299.64 299.64 0 0 0 10.984-75.776h63.856c-1.645 33.58-13.865 65.782-34.912 92zm63.655-248.72a8 8 0 0 0-12.552 9.92c31.365 39.447 48.354 88.403 48.168 138.8.005 123.712-100.28 224.004-224 224a224 224 0 0 1-138.585-48.009h26.576a8 8 0 1 0 0-16H79.907c-.693.047-1.376.187-2.032.416a7.03 7.03 0 0 0-1.024.224c-.2.08-.352.264-.544.36a8.01 8.01 0 0 0-2.024 1.424l-.072.048a7.4 7.4 0 0 0-.496.8c-.452.536-.83 1.13-1.12 1.768-.184.583-.305 1.183-.36 1.792a7.86 7.86 0 0 0-.232 1.168v48a8 8 0 1 0 16 0V425.66c102.502 83.983 253.677 68.97 337.66-33.532 35.152-42.903 54.354-96.66 54.34-152.124a237.53 237.53 0 0 0-51.616-148.72zm-28.384-75.28a8 8 0 0 0-8 8v30.344C289.5-29.636 138.326-14.623 54.343 87.88 19.2 130.782-.01 184.54.003 240.003a237.45 237.45 0 0 0 52 149.192 8 8 0 0 0 12.58-9.886c-.017-.022-.035-.044-.052-.065a221.6 221.6 0 0 1-48.528-139.24c-.005-123.713 100.28-224.005 224-224a224 224 0 0 1 138.585 48.009h-26.576a8 8 0 1 0 0 16h48.08a7.79 7.79 0 0 0 2.4-.488 6.28 6.28 0 0 0 .664-.144 9.35 9.35 0 0 0 .76-.512c.664-.337 1.275-.768 1.816-1.28l.072-.048c.185-.256.353-.523.504-.8.9-.967 1.433-2.233 1.472-3.56a7.99 7.99 0 0 0 .232-1.168v-48a8 8 0 0 0-8-8z"/></svg>