<svg xmlns="http://www.w3.org/2000/svg" viewBox="0 0 60 60" width="512" height="512" fill="#d62c2c"><path d="M50.975 20.694c-.527-9-7.946-16.194-16.9-16.194-5.43 0-10.688 2.663-13.946 7.008-.074-.04-.153-.065-.228-.102a8.62 8.62 0 0 0-.605-.269c-.115-.045-.23-.086-.346-.127-.202-.07-.406-.133-.615-.2l-.35-.1a8.94 8.94 0 0 0-.683-.124c-.102-.015-.202-.035-.305-.047A9.28 9.28 0 0 0 16 10.5c-4.962 0-9 4.037-9 9a5.24 5.24 0 0 0 .016.38C2.857 22.148 0 26.9 0 31.654 0 38.737 5.762 44.5 12.845 44.5H18a1 1 0 1 0 0-2h-5.155A10.86 10.86 0 0 1 2 31.654C2 27.5 4.705 23.188 8.432 21.4L9 21.13v-.63c0-.123.008-.25.015-.375l.01-.175-.012-.188C9.007 19.675 9 19.588 9 19.5a7.01 7.01 0 0 1 7-7c.3 0 .614.027.917.067.078.01.155.023.232.036.268.044.532.102.792.177.034.01.07.016.102.026a6.86 6.86 0 0 1 .838.322 5.51 5.51 0 0 1 .205.099 6.84 6.84 0 0 1 .707.399C21.72 14.875 23 17.04 23 19.5a1 1 0 1 0 2 0c0-2.754-1.246-5.22-3.2-6.87 2.866-3.75 7.588-6.13 12.284-6.13 7.744 0 14.178 6.135 14.848 13.887-1.022-.072-2.553-.1-4.083.125a1 1 0 0 0 .149 1.989c.05 0 .1-.004.152-.012 2.224-.336 4.543-.02 4.684-.002C54.5 23.372 58 27.66 58 32.472 58 38 53.5 42.5 47.972 42.5H44a1 1 0 1 0 0 2h3.972C54.604 44.5 60 39.104 60 32.472c0-5.5-3.827-10.412-9.025-11.778zm-19.267 10.1a.99.99 0 0 0-.326-.217 1 1 0 0 0-1.09.217l-8 8a1 1 0 0 0 0 1.414c.195.195.45.293.707.293s.512-.098.707-.293L30 33.914V54.5a1 1 0 1 0 2 0V33.914l6.293 6.293c.195.195.45.293.707.293s.512-.098.707-.293a1 1 0 0 0 0-1.414l-8-8z"/></svg>