<?xml version="1.0"?>
<svg xmlns="http://www.w3.org/2000/svg" xmlns:xlink="http://www.w3.org/1999/xlink" version="1.1" id="Capa_1" x="0px" y="0px" viewBox="0 0 54 54" style="enable-background:new 0 0 54 54;" xml:space="preserve" width="512px" height="512px" class=""><g><g>
	<path d="M27,0C12.112,0,0,12.112,0,27s12.112,27,27,27s27-12.112,27-27S41.888,0,27,0z M27,52C13.215,52,2,40.785,2,27   S13.215,2,27,2s25,11.215,25,25S40.785,52,27,52z" data-original="#000000" class="active-path" data-old_color="#d62c2c" fill="#d62c2c"/>
	<path d="M27.707,14.293c-0.391-0.391-1.023-0.391-1.414,0s-0.391,1.023,0,1.414L37.586,27L26.293,38.293   c-0.391,0.391-0.391,1.023,0,1.414C26.488,39.902,26.744,40,27,40s0.512-0.098,0.707-0.293l11.498-11.498   c0.667-0.667,0.667-1.751,0-2.418L27.707,14.293z" data-original="#000000" class="active-path" data-old_color="#d62c2c" fill="#d62c2c"/>
	<path d="M29.205,25.791L17.707,14.293c-0.391-0.391-1.023-0.391-1.414,0s-0.391,1.023,0,1.414L27.586,27L16.293,38.293   c-0.391,0.391-0.391,1.023,0,1.414C16.488,39.902,16.744,40,17,40s0.512-0.098,0.707-0.293l11.498-11.498   C29.872,27.542,29.872,26.458,29.205,25.791z" data-original="#000000" class="active-path" data-old_color="#d62c2c" fill="#d62c2c"/>
</g></g> </svg>
