<svg xmlns="http://www.w3.org/2000/svg" viewBox="0 0 192 192" width="500" height="500"><path d="M26.04 7.68c-.045.015-.075.105-.12.12-.105.015-.255-.03-.36 0-.8.1-1.56.42-2.16.96-2.58 1.4-4.2 4.305-4.2 7.44v160.44c0 2.385 1.05 4.9 3 6.36.9 1.005 2.265 1.455 3.6 1.2 1.755.1 3.6-.3 5.16-1.2l104.4-60.36a1.79 1.79 0 0 0 .24-.12l.96-.48.12-.12 33.36-19.2c2.7-1.56 4.845-4.095 4.8-7.2s-2.235-5.52-4.68-6.84c-1.35-.72-10.1-5.73-18.24-10.44L136.08 69l-35.4-20.4L32.52 9.24c-1.335-.765-2.85-1.38-4.32-1.56-.735-.1-1.44-.12-2.16 0zM26.88 18l78.24 77.64-78.24 77.64zm18.24 7.32l82.68 47.76-17.28 17.16zm89.52 51.72l13.44 7.8 18.48 10.56c.195.105.135.165.24.24-.15.105-.195.135-.6.36l-31.44 18.24-18.84-18.6zm-24.12 23.88l17.4 17.28-31.08 17.88-51.6 29.76z" fill="#d62c2c"/></svg>