<?xml version="1.0"?>
<svg xmlns="http://www.w3.org/2000/svg" xmlns:xlink="http://www.w3.org/1999/xlink" version="1.1" viewBox="0 0 192 192" width="500px" height="500px"><g fill="none" fill-rule="nonzero" stroke="none" stroke-width="1" stroke-linecap="butt" stroke-linejoin="miter" stroke-miterlimit="10" stroke-dasharray="" stroke-dashoffset="0" font-family="none" font-weight="none" font-size="none" text-anchor="none" style="mix-blend-mode: normal"><path d="M0,192v-192h192v192z" fill="none"/><g fill="#d62c2c"><g id="surface1"><path d="M26.04,7.68c-0.045,0.015 -0.075,0.105 -0.12,0.12c-0.105,0.015 -0.255,-0.03 -0.36,0c-0.81,0.09 -1.56,0.42 -2.16,0.96c-2.58,1.41 -4.2,4.305 -4.2,7.44v160.44c0,2.385 1.05,4.89 3,6.36c0.9,1.005 2.265,1.455 3.6,1.2c1.755,0.09 3.6,-0.3 5.16,-1.2c3.255,-1.89 69.72,-40.32 69.72,-40.32l34.68,-20.04c0.075,-0.03 0.165,-0.075 0.24,-0.12l0.48,-0.24c0,0 0.465,-0.24 0.48,-0.24c0.045,-0.045 0.075,-0.075 0.12,-0.12c1.035,-0.6 29.445,-16.95 33.36,-19.2c2.7,-1.56 4.845,-4.095 4.8,-7.2c-0.045,-3.105 -2.235,-5.52 -4.68,-6.84c-1.35,-0.72 -10.11,-5.73 -18.24,-10.44c-8.13,-4.71 -15.84,-9.24 -15.84,-9.24l-35.4,-20.4c0,0 -64.365,-37.17 -68.16,-39.36c-1.335,-0.765 -2.85,-1.38 -4.32,-1.56c-0.735,-0.09 -1.44,-0.12 -2.16,0zM26.88,18l78.24,77.64l-78.24,77.64zM45.12,25.32c19.53,11.28 51.72,29.88 51.72,29.88l30.96,17.88l-17.28,17.16zM134.64,77.04c1.845,1.08 6.54,3.81 13.44,7.8c8.13,4.71 16.47,9.48 18.48,10.56c0.195,0.105 0.135,0.165 0.24,0.24c-0.15,0.105 -0.195,0.135 -0.6,0.36c-3.69,2.13 -27.615,16.02 -31.44,18.24l-18.84,-18.6zM110.52,100.92l17.4,17.28l-31.08,17.88c0,0 -31.35,18.09 -51.6,29.76z"/></g></g></g></svg>
