<svg xmlns="http://www.w3.org/2000/svg" height="512" viewBox="0 -2 480.003 480" width="512" fill="#d62d2c"><path d="M423.88 392.387L323.84 354.27 263.7 133.766c-.945-3.484-4.1-5.898-7.72-5.898h-32a8 8 0 0 0-7.719 5.898L156.14 354.27l-100 38.152c-3.1 1.176-5.164 4.156-5.164 7.477a8 8 0 0 0 5.164 7.48l181.04 69.035c1.836.703 3.863.703 5.695 0L423.92 407.38a8 8 0 0 0 0-14.957zm-235.805 12l-26.402-9.598 16.066-58.922h124.51l16.078 58.992-26.398 9.602a151.5 151.5 0 0 1-103.855-.039zm7.117-132.52h89.602l13.086 48H182.105zm17.457-64h54.688l13.1 48h-80.863zm17.457-64h19.773l13.098 48h-45.97zm9.887 316.48L81.4 399.867l69.52-26.512-6.656 24.4c-1.082 4.012 1.094 8.184 5 9.598l33.336 12.074a167.57 167.57 0 0 0 100.72 4.43 164.76 164.76 0 0 0 14.023-4.43l33.36-12.082c3.9-1.414 6.082-5.586 5-9.598l-6.652-24.4 69.52 26.52zm142.83-332.253a113.36 113.36 0 0 0 1.168-16.227c-.062-53.273-37.645-99.13-89.867-109.656S189.492 19.395 168.793 68.484c-25.562-17.48-59.434-16.676-84.14 1.996a72.07 72.07 0 0 0-24.875 80.402C17.266 168.223-7.03 213.22 1.8 258.273s48.293 77.566 94.203 77.594h40a8 8 0 1 0 0-16h-40c-39.633-.016-73.3-29.04-79.13-68.242s17.887-76.777 55.793-88.348c2.234-.687 4.06-2.316 4.988-4.457s.883-4.586-.14-6.687a55.18 55.18 0 0 1-5.512-24.266c.02-22.473 13.46-42.758 34.148-51.54a56.05 56.05 0 0 1 60.797 11.234 7.99 7.99 0 0 0 7.574 1.961c2.695-.707 4.824-2.77 5.625-5.437 15.082-49.598 66.82-78.262 116.867-64.754s80.332 64.316 68.406 114.77a7.99 7.99 0 0 0 1.71 7.055 7.89 7.89 0 0 0 6.719 2.762c.738-.05 1.402-.05 2.152-.05 48.602 0 88 39.398 88 88s-39.398 88-88 88h-32a8 8 0 1 0 0 16h32c56.113.008 102.1-44.5 103.953-100.582s-41.13-103.512-97.12-107.2zm0 0"/></svg>