<?xml version="1.0"?>
<svg xmlns="http://www.w3.org/2000/svg" height="512px" viewBox="0 -2 480.0026 480" width="512px" class=""><g><path d="m423.878906 392.386719-100.039062-38.117188-60.128906-220.503906c-.945313-3.484375-4.109376-5.898437-7.71875-5.898437h-32c-3.609376 0-6.769532 2.414062-7.71875 5.898437l-60.128907 220.503906-100 38.152344c-3.109375 1.175781-5.164062 4.15625-5.164062 7.476563 0 3.324218 2.054687 6.304687 5.164062 7.480468l181.039063 69.035156c1.835937.703126 3.863281.703126 5.695312 0l181.042969-69.035156c3.105469-1.175781 5.160156-4.15625 5.160156-7.480468 0-3.320313-2.054687-6.300782-5.160156-7.476563zm-235.804687 12-26.402344-9.597657 16.066406-58.921874h124.511719l16.078125 58.992187-26.398437 9.601563c-33.542969 12.222656-70.324219 12.210937-103.855469-.039063zm7.117187-132.519531h89.601563l13.085937 48h-115.773437zm17.457032-64h54.6875l13.089843 48h-80.863281zm17.457031-64h19.773437l13.097656 48h-45.96875zm9.886719 316.480468-158.582032-60.480468 69.519532-26.511719-6.65625 24.410156c-1.082032 4.011719 1.09375 8.183594 5 9.597656l33.335937 12.074219c32.320313 11.78125 67.488281 13.328125 100.71875 4.429688 4.71875-1.261719 9.410156-2.742188 14.023437-4.429688l33.359376-12.082031c3.910156-1.414063 6.082031-5.585938 5-9.597657l-6.652344-24.410156 69.519531 26.519532zm0 0" data-original="#000000" class="active-path" data-old_color="#d62d2c" fill="#d62d2c"/><path d="m382.824219 128.09375c.777343-5.375 1.167969-10.796875 1.167969-16.226562-.0625-53.273438-37.644532-99.128907-89.867188-109.65625-52.222656-10.527344-104.632812 17.183593-125.332031 66.273437-25.5625-17.480469-59.433594-16.675781-84.140625 1.996094-24.703125 18.675781-34.71875 51.042969-24.875 80.402343-42.511719 17.339844-66.808594 62.335938-57.988282 107.390626 8.820313 45.054687 48.292969 77.566406 94.203126 77.59375h40c4.417968 0 8-3.582032 8-8 0-4.417969-3.582032-8-8-8h-40c-39.632813-.015626-73.289063-29.039063-79.128907-68.242188-5.84375-39.203125 17.886719-76.777344 55.792969-88.347656 2.234375-.6875 4.058594-2.316406 4.988281-4.457032.933594-2.144531.882813-4.585937-.140625-6.6875-3.660156-7.5625-5.546875-15.863281-5.511718-24.265624.019531-22.472657 13.460937-42.757813 34.148437-51.539063 20.683594-8.78125 44.617187-4.359375 60.796875 11.234375 2.011719 1.929688 4.878906 2.671875 7.574219 1.960938 2.695312-.707032 4.824219-2.769532 5.625-5.4375 15.082031-49.597657 66.820312-78.261719 116.867187-64.753907 50.046875 13.511719 80.332032 64.316407 68.40625 114.769531-.59375 2.488282.042969 5.113282 1.710938 7.054688 1.65625 1.957031 4.164062 2.988281 6.71875 2.761719.738281-.050781 1.402344-.050781 2.152344-.050781 48.601562 0 88 39.398437 88 88 0 48.601562-39.398438 88-88 88h-32c-4.417969 0-8 3.582031-8 8 0 4.417968 3.582031 8 8 8h32c56.113281.007812 102.109374-44.5 103.953124-100.582032 1.84375-56.078125-41.128906-103.511718-97.121093-107.191406zm0 0" data-original="#000000" class="active-path" data-old_color="#d62d2c" fill="#d62d2c"/></g> </svg>
