<?xml version="1.0"?>
<svg xmlns="http://www.w3.org/2000/svg" xmlns:xlink="http://www.w3.org/1999/xlink" version="1.1" viewBox="0 0 192 192" width="500px" height="500px"><g fill="none" fill-rule="nonzero" stroke="none" stroke-width="1" stroke-linecap="butt" stroke-linejoin="miter" stroke-miterlimit="10" stroke-dasharray="" stroke-dashoffset="0" font-family="none" font-weight="none" font-size="none" text-anchor="none" style="mix-blend-mode: normal"><path d="M0,192v-192h192v192z" fill="none"/><g fill="#d62c2c"><g id="surface1"><path d="M96,23.04c-8.445,0 -15.36,6.915 -15.36,15.36c0,4.545 2.1,8.58 5.28,11.4l-26.4,45.72l-26.04,-13.08c0.69,-1.74 1.08,-3.66 1.08,-5.64c0,-8.445 -6.915,-15.36 -15.36,-15.36c-8.445,0 -15.36,6.915 -15.36,15.36c0,8.355 6.795,15.225 15.12,15.36l11.76,50.28v22.68c0,2.115 1.725,3.84 3.84,3.84h122.88c2.115,0 3.84,-1.725 3.84,-3.84v-22.68l11.76,-50.28c8.325,-0.135 15.12,-7.005 15.12,-15.36c0,-8.445 -6.915,-15.36 -15.36,-15.36c-8.445,0 -15.36,6.915 -15.36,15.36c0,1.8 0.375,3.555 0.96,5.16l-26.28,13.2l-26.16,-45.24c3.255,-2.82 5.4,-6.915 5.4,-11.52c0,-8.445 -6.915,-15.36 -15.36,-15.36zM96,30.72c4.29,0 7.68,3.39 7.68,7.68c0,2.55 -1.245,4.725 -3.12,6.12c-0.165,-0.015 -0.315,-0.015 -0.48,0c-0.99,0.135 -1.905,0.645 -2.52,1.44c-0.51,0.105 -1.02,0.12 -1.56,0.12c-0.885,0 -1.74,-0.09 -2.52,-0.36c-0.075,-0.045 -0.165,-0.09 -0.24,-0.12c-0.045,-0.015 -0.075,-0.105 -0.12,-0.12c-0.045,0 -0.075,0 -0.12,0c-0.045,-0.015 -0.075,-0.105 -0.12,-0.12c-0.225,-0.15 -0.465,-0.27 -0.72,-0.36c-2.295,-1.32 -3.84,-3.735 -3.84,-6.6c0,-4.29 3.39,-7.68 7.68,-7.68zM92.76,53.4c1.035,0.225 2.145,0.36 3.24,0.36c1.05,0 2.13,-0.15 3.12,-0.36l28.08,48.72c1.005,1.77 3.21,2.46 5.04,1.56l30.6,-15.36c0.855,0.735 1.755,1.38 2.76,1.92l-11.16,48h-116.88l-11.16,-48c0.825,-0.45 1.56,-0.975 2.28,-1.56l30.6,15.36c1.86,0.975 4.155,0.285 5.16,-1.56zM19.2,69.12c4.29,0 7.68,3.39 7.68,7.68c0,1.455 -0.39,2.805 -1.08,3.96c-0.015,0.015 -0.105,-0.015 -0.12,0c-0.51,0.375 -0.93,0.87 -1.2,1.44c0,0.045 0,0.075 0,0.12c-0.75,0.72 -1.635,1.32 -2.64,1.68c-0.03,0.015 -0.09,-0.015 -0.12,0c-0.495,0.03 -0.99,0.15 -1.44,0.36c-0.045,0 -0.075,0 -0.12,0c-0.075,0.015 -0.15,0.105 -0.24,0.12c-0.24,0.015 -0.48,0 -0.72,0c-4.29,0 -7.68,-3.39 -7.68,-7.68c0,-4.29 3.39,-7.68 7.68,-7.68zM172.8,69.12c4.29,0 7.68,3.39 7.68,7.68c0,4.29 -3.39,7.68 -7.68,7.68c-0.42,0 -0.81,-0.06 -1.2,-0.12c-0.345,-0.135 -0.705,-0.21 -1.08,-0.24c-1.32,-0.405 -2.46,-1.17 -3.36,-2.16c-0.225,-0.51 -0.555,-0.96 -0.96,-1.32c-0.645,-1.125 -1.08,-2.43 -1.08,-3.84c0,-4.29 3.39,-7.68 7.68,-7.68zM38.4,145.92h115.2v15.36h-115.2z"/></g></g></g></svg>
