<svg xmlns="http://www.w3.org/2000/svg" width="512" height="512" viewBox="0 0 792 792" fill="#d62c2c"><path d="M324.082 693.8c-6.832 0-12.4-5.543-12.4-12.375s5.543-12.375 12.4-12.375h143.86a12.38 12.38 0 0 1 12.375 12.375 12.38 12.38 0 0 1-12.375 12.375h-143.86zm15.984 49.112a12.38 12.38 0 0 1-12.375-12.375 12.4 12.4 0 0 1 12.375-12.375h111.9a12.38 12.38 0 0 1 12.375 12.375 12.38 12.38 0 0 1-12.375 12.375h-111.9zm44.292-171.084c0 6.807-5.517 12.323-12.323 12.323s-12.323-5.518-12.323-12.323c-.052-52.104-1.547-91.033-8.74-127.076-7.115-35.63-19.852-68.655-42.46-109.4-3.3-5.955-1.16-13.458 4.77-16.758 5.956-3.3 13.458-1.16 16.784 4.77 24.002 43.26 37.6 78.48 45.168 116.558 7.5 37.6 9.074 77.962 9.125 131.896zm47.954 0c0 6.807-5.518 12.323-12.323 12.323s-12.323-5.518-12.323-12.323c.053-53.936 1.624-94.282 9.126-131.896 7.58-38.08 21.167-73.295 45.17-116.558 3.3-5.955 10.828-8.095 16.76-4.77 5.956 3.3 8.068 10.828 4.77 16.758-22.6 40.734-35.346 73.787-42.462 109.4-7.17 36.043-8.7 74.973-8.716 127.076z"/><path d="M315.523 341.112c-6.497-2.063-10.055-9.023-7.992-15.52 2.088-6.497 9.023-10.055 15.52-7.992 8.6 2.785 16.062 6.523 22.945 9.978l.67.36c10.75 5.414 19.697 9.642 26.348 4.228l15.2-12.4c5.285-4.28 13.073-3.48 17.35 1.805s3.48 13.07-1.805 17.35l-15.2 12.4c-18.95 15.417-34.444 7.915-53.1-1.444l-.567-.258c-6.033-3.043-12.582-6.317-19.362-8.508zm92.865-280.784a12.38 12.38 0 0 1-12.376 12.375 12.38 12.38 0 0 1-12.375-12.375V12.375A12.38 12.38 0 0 1 396.012 0a12.38 12.38 0 0 1 12.376 12.375v47.953z"/><path d="M468.974 317.6a12.345 12.345 0 1 1 7.529 23.513c-6.78 2.2-13.328 5.5-19.388 8.534l-.566.258c-18.64 9.358-34.16 16.887-53.1 1.443l-15.2-12.4c-5.285-4.28-6.084-12.066-1.805-17.35s12.066-6.084 17.352-1.805l15.2 12.4c6.652 5.414 15.572 1.16 26.35-4.228l.672-.36c6.904-3.48 14.354-7.22 22.966-10.004zm82.732-125.246c39.832 39.832 64.505 94.9 64.505 155.693 0 23.77-3.815 46.74-10.828 68.27-7.244 22.25-17.995 43.003-31.53 61.515-22.713 31.066-41.146 51.46-55.455 67.313-25.756 28.488-37.048 40.968-37.048 82.63a12.38 12.38 0 0 1-12.375 12.375H324.1c-6.832 0-12.4-5.543-12.4-12.375 0-41.25-11.524-53.857-37.1-81.882l-.026-.025-.026.025c-14.463-15.83-33.077-36.223-56.358-68.062-13.535-18.512-24.286-39.3-31.53-61.54-7.013-21.502-10.828-44.5-10.828-68.243 0-29.75 5.956-58.214 16.732-84.202l.232-.5c11.2-26.813 27.483-50.944 47.566-71a220.45 220.45 0 0 1 71.492-47.747v-.026c25.987-10.776 54.45-16.732 84.202-16.732a219.45 219.45 0 0 1 84.151 16.732c26.966 11.2 51.277 27.56 71.5 47.772zm39.73 155.693c0-53.96-21.9-102.815-57.234-138.188-18.07-18.073-39.6-32.613-63.422-42.462-22.945-9.513-48.2-14.772-74.767-14.772-26.53 0-51.794 5.26-74.714 14.772v-.025l-.052.025c-23.822 9.85-45.323 24.4-63.396 42.462-17.892 17.892-32.355 39.24-42.23 62.803l-.258.67c-9.487 22.92-14.772 48.185-14.772 74.714 0 21.192 3.377 41.6 9.565 60.6a196.18 196.18 0 0 0 27.947 54.58c22.353 30.576 40.554 50.506 54.708 66.025l-.026.025c27.534 30.087 41.224 45.143 43.364 86.135h120.708c2.114-41.275 15.546-56.177 43.2-86.754 13.82-15.288 31.582-34.96 53.832-65.38 11.962-16.37 21.476-34.78 27.92-54.553 6.24-19.075 9.617-39.468 9.617-60.686zM356.05 792a12.38 12.38 0 0 1-12.375-12.375 12.38 12.38 0 0 1 12.375-12.375h79.923a12.38 12.38 0 0 1 12.375 12.375A12.38 12.38 0 0 1 435.974 792H356.05zm191.8-687.715c-3.38 5.878-10.933 7.915-16.837 4.538-5.878-3.377-7.913-10.93-4.536-16.835l23.977-41.533c3.377-5.878 10.932-7.915 16.835-4.538s7.915 10.93 4.538 16.835l-23.977 41.533zM265.533 92.013c3.377 5.878 1.367 13.432-4.538 16.8-5.878 3.377-13.432 1.34-16.8-4.538L220.2 62.75a12.34 12.34 0 0 1 4.538-16.809c5.904-3.377 13.458-1.34 16.835 4.537l23.95 41.534zM157.7 190.78c5.878 3.377 7.915 10.93 4.538 16.835-3.377 5.878-10.932 7.915-16.8 4.538l-41.534-23.977c-5.904-3.377-7.94-10.93-4.563-16.8 3.377-5.904 10.93-7.915 16.835-4.538l41.534 23.95zm488.906 21.374c-5.904 3.377-13.458 1.34-16.835-4.538-3.378-5.904-1.34-13.458 4.537-16.835l41.534-23.977c5.902-3.377 13.456-1.34 16.835 4.538s1.34 13.458-4.538 16.835l-41.533 23.977zm-379.166 184.8c2.63 6.265-.3 13.5-6.574 16.14s-13.5-.3-16.14-6.574c-4.203-9.95-7.477-20.443-9.643-31.27-2.14-10.7-3.3-21.63-3.3-32.613a12.4 12.4 0 0 1 12.375-12.375 12.4 12.4 0 0 1 12.375 12.375c0 9.668.954 18.975 2.733 27.792 1.83 9.176 4.615 18.096 8.173 26.527zm0-108.668c-2.63 6.265-9.874 9.204-16.14 6.574s-9.204-9.875-6.574-16.14c4.15-9.823 9.23-19.13 15.03-27.767l.026-.026-.026-.025a165.85 165.85 0 0 1 20.109-24.415c7.322-7.322 15.52-14.077 24.44-20.083v-.026c8.56-5.775 17.918-10.854 27.818-15.03 9.926-4.203 20.393-7.477 31.247-9.643 10.7-2.166 21.682-3.3 32.64-3.3a12.38 12.38 0 0 1 12.376 12.375 12.38 12.38 0 0 1-12.376 12.375c-9.694 0-19.026.954-27.818 2.707-9.204 1.83-18.1 4.64-26.503 8.198-8.172 3.455-16.062 7.76-23.564 12.813h-.026c-7.296 4.898-14.257 10.673-20.702 17.12-6.368 6.368-12.143 13.355-17.12 20.754l-.026-.026c-5.026 7.452-9.332 15.34-12.812 23.565z"/></svg>