<svg xmlns="http://www.w3.org/2000/svg" height="512" viewBox="-41 0 374 374.106" width="512" fill="#d62c2c"><path d="M287.664 75.746L147.06.824c-2.086-1.113-4.586-1.098-6.656.04L3.688 75.785a7 7 0 0 0-3.633 6.141v97.867c.082 80.45 47.746 153.23 121.457 185.46l18.977 8.27c1.773.773 3.793.777 5.57.008l21.383-9.234c75.078-31.53 123.922-105.016 123.93-186.445V81.926c0-2.586-1.426-4.965-3.707-6.18zM277.37 177.852c-.016 75.816-45.504 144.227-115.4 173.566l-.047.023-18.62 8.04-16.18-7.06C58.5 322.422 14.13 254.68 14.05 179.793V86.07l129.762-71.117L277.37 86.12zm-185.202-2.598a7 7 0 0 0-9.871-.777c-2.94 2.508-3.3 6.93-.777 9.867l36.977 43.3a7 7 0 0 0 9.738.887l86.117-70.062a7 7 0 0 0 1.012-9.848c-2.437-2.996-6.848-3.453-9.848-1.012l-80.812 65.742zm0 0"/></svg>