<svg xmlns="http://www.w3.org/2000/svg" height="512" width="512" fill="#d62c2c"><path d="M502 0H90a10 10 0 0 0-10 10v266H10a10 10 0 0 0-10 10v216a10 10 0 0 0 10 10h248a10 10 0 0 0 10-10V380h73a10 10 0 1 0 0-20h-73v-74a10 10 0 0 0-10-10H100V20h392v340h-70.996a10 10 0 1 0 0 20H502a10 10 0 0 0 10-10V10a10 10 0 0 0-10-10zM248 492H20V296h60v74a10 10 0 0 0 10 10h158zm0-196v64H100v-64zm169.805-80.676L457.66 66.6c.926-3.453-.062-7.137-2.6-9.66s-6.203-3.516-9.656-2.6L296.676 94.195c-3.453.926-6.148 3.62-7.074 7.07a9.98 9.98 0 0 0 2.6 9.66l28.7 28.7-71.945 71.94c-3.906 3.906-3.906 10.238 0 14.145l37.34 37.34c1.875 1.875 4.418 2.926 7.07 2.926a9.99 9.99 0 0 0 7.07-2.926l71.945-71.945 28.7 28.7a10.01 10.01 0 0 0 9.66 2.59 9.99 9.99 0 0 0 7.07-7.074zm-14.836-21.902l-23.516-23.52c-3.906-3.902-10.234-3.902-14.14 0l-71.945 71.945-23.195-23.195 71.94-71.945a10 10 0 0 0 0-14.141l-23.535-23.535 115.28-30.887zM381 360a10.06 10.06 0 0 0-7.07 2.93A10.08 10.08 0 0 0 371 370a10.08 10.08 0 0 0 10 10 10.08 10.08 0 0 0 10-10 10.08 10.08 0 0 0-10-10zm0 0"/></svg>