<?xml version="1.0"?>
<svg xmlns="http://www.w3.org/2000/svg" height="512px" viewBox="0 0 512 512" width="512px" class=""><g><path d="m502 0h-412c-5.523438 0-10 4.476562-10 10v266h-70c-5.523438 0-10 4.476562-10 10v216c0 5.523438 4.476562 10 10 10h248c5.523438 0 10-4.476562 10-10v-122h73c5.523438 0 10-4.476562 10-10s-4.476562-10-10-10h-73v-74c0-5.523438-4.476562-10-10-10h-158v-256h392v340h-70.996094c-5.523437 0-10 4.476562-10 10s4.476563 10 10 10h80.996094c5.523438 0 10-4.476562 10-10v-360c0-5.523438-4.476562-10-10-10zm-254 492h-228v-196h60v74c0 5.523438 4.476562 10 10 10h158zm0-196v64h-148v-64zm0 0" data-original="#000000" class="active-path" data-old_color="#d62c2c" fill="#d62c2c"/><path d="m417.804688 215.324219 39.855468-148.734375c.925782-3.453125-.0625-7.136719-2.589844-9.660156-2.523437-2.527344-6.203124-3.515626-9.65625-2.589844l-148.738281 39.855468c-3.453125.925782-6.148437 3.621094-7.074219 7.070313-.921874 3.453125.0625 7.132813 2.589844 9.660156l28.710938 28.710938-71.945313 71.941406c-3.90625 3.90625-3.90625 10.238281 0 14.144531l37.339844 37.339844c1.875 1.875 4.417969 2.925781 7.070313 2.925781 2.652343 0 5.195312-1.050781 7.070312-2.925781l71.945312-71.945312 28.691407 28.691406c2.527343 2.527344 6.210937 3.511718 9.660156 2.589844 3.453125-.925782 6.148437-3.621094 7.070313-7.074219zm-14.835938-21.902344-23.515625-23.519531c-3.90625-3.902344-10.234375-3.902344-14.140625 0l-71.945312 71.945312-23.195313-23.195312 71.941406-71.945313c1.875-1.875 2.929688-4.417969 2.929688-7.070312 0-2.652344-1.054688-5.195313-2.929688-7.070313l-23.535156-23.535156 115.28125-30.886719zm0 0" data-original="#000000" class="active-path" data-old_color="#d62c2c" fill="#d62c2c"/><path d="m381 360c-2.640625 0-5.210938 1.070312-7.070312 2.929688-1.859376 1.859374-2.929688 4.441406-2.929688 7.070312s1.070312 5.210938 2.929688 7.070312c1.859374 1.859376 4.441406 2.929688 7.070312 2.929688s5.210938-1.070312 7.070312-2.929688c1.859376-1.859374 2.929688-4.441406 2.929688-7.070312s-1.070312-5.210938-2.929688-7.070312c-1.859374-1.859376-4.441406-2.929688-7.070312-2.929688zm0 0" data-original="#000000" class="active-path" data-old_color="#d62c2c" fill="#d62c2c"/></g> </svg>
