<svg xmlns="http://www.w3.org/2000/svg" width="512" height="512" fill="#d62c2c"><path d="M488.4 492h-21.933V173.536c0-14.823-12.06-26.882-26.882-26.882H390.56c-14.823 0-26.882 12.06-26.882 26.882V492h-55.692V317.825c0-14.823-12.06-26.882-26.882-26.882H232.08c-14.823 0-26.882 12.06-26.882 26.882V492h-55.692v-90.204c0-14.823-12.06-26.882-26.882-26.882H73.6c-14.823 0-26.882 12.06-26.882 26.882V492H23.6a10 10 0 1 0 0 20h464.8a10 10 0 1 0 0-20zm-358.895 0h-62.79v-90.204a6.89 6.89 0 0 1 6.882-6.882h49.024a6.89 6.89 0 0 1 6.882 6.882V492zm158.48 0h-62.788V317.825a6.89 6.89 0 0 1 6.882-6.882h49.024c3.794 0 6.882 3.087 6.882 6.882V492zm158.48 0h-62.788V173.536a6.89 6.89 0 0 1 6.882-6.882h49.024a6.89 6.89 0 0 1 6.882 6.882V492zm19.977-481.484c.14-2.73-.82-5.504-2.904-7.588A9.96 9.96 0 0 0 455.95.024L455.466 0h-60.5a10 10 0 1 0 0 20h37.357l-98.857 98.858-37.28-37.28a10 10 0 0 0-14.142 0l-179.77 179.77c-3.905 3.905-3.905 10.237 0 14.143 1.953 1.95 4.512 2.927 7.07 2.927a9.96 9.96 0 0 0 7.07-2.93l172.698-172.7 37.28 37.28c3.905 3.905 10.237 3.905 14.143 0l105.93-105.925v33.8a10 10 0 1 0 20 0V11c0-.163-.017-.322-.024-.484z"/><circle cx="75.64" cy="303.31" r="10"/></svg>