<?xml version="1.0"?>
<svg xmlns="http://www.w3.org/2000/svg" xmlns:xlink="http://www.w3.org/1999/xlink" version="1.1" viewBox="0 0 210 210" width="500px" height="500px"><g fill="none" fill-rule="nonzero" stroke="none" stroke-width="1" stroke-linecap="butt" stroke-linejoin="miter" stroke-miterlimit="10" stroke-dasharray="" stroke-dashoffset="0" font-family="none" font-weight="none" font-size="none" text-anchor="none" style="mix-blend-mode: normal"><path d="M0,210v-210h210v210z" fill="none"/><g fill="#d62c2c"><g id="surface1"><path d="M105,8.4c-53.30391,0 -96.6,43.29609 -96.6,96.6c0,53.30391 43.29609,96.6 96.6,96.6c53.30391,0 96.6,-43.29609 96.6,-96.6c0,-53.30391 -43.29609,-96.6 -96.6,-96.6zM105,16.8c48.75938,0 88.2,39.44062 88.2,88.2c0,48.75938 -39.44063,88.2 -88.2,88.2c-48.75937,0 -88.2,-39.44063 -88.2,-88.2c0,-48.75937 39.44062,-88.2 88.2,-88.2zM104.7375,45.28125c-0.60703,0.08203 -1.26328,0.32813 -1.8375,0.65625l-3.80625,2.23125c-2.26406,1.3125 -3.01875,4.29844 -1.70625,6.5625l32.94375,56.7l12.075,-7.0875l-32.94375,-56.7c-0.98437,-1.68984 -2.8875,-2.59219 -4.725,-2.3625zM94.63125,64.18125c-1.8375,-0.24609 -3.74063,0.525 -4.725,2.23125l-4.2,7.21875l12.46875,7.21875l4.2,-7.0875c1.32891,-2.26406 0.55781,-5.23359 -1.70625,-6.5625l-4.2,-2.49375c-0.57422,-0.32812 -1.23047,-0.44297 -1.8375,-0.525zM84.65625,75.3375l-29.00625,49.875l12.3375,7.21875l29.1375,-49.74375zM43.3125,97.9125v13.9125h17.71875l8.1375,-13.9125zM90.0375,97.9125l-7.74375,13.9125h45.15l-7.74375,-13.9125zM141.61875,97.9125l7.48125,13.9125h17.325v-13.9125zM143.71875,106.70625l-12.075,6.95625l6.95625,12.075l12.075,-7.0875zM150.15,121.93125c-0.41016,0.06562 -0.90234,0.29531 -1.3125,0.525c-1.96875,1.11562 -4.83984,2.77266 -6.5625,3.80625c-3.23203,1.93594 -0.73828,7.56328 0,8.79375c4.18359,7.00547 8.43281,6.07031 11.68125,11.025c1.78828,2.70703 1.27969,3.82266 1.8375,4.725c0.21328,0.32813 1.03359,0.77109 1.3125,0.39375c5.02031,-6.93984 3.49453,-18.96563 -0.13125,-24.28125c-1.47656,-2.16562 -3.98672,-5.44687 -6.825,-4.9875zM54.075,127.8375l-6.0375,22.70625c-0.11484,0.41016 0.03281,0.83672 0.39375,1.05c0.36094,0.21328 0.88594,0.16406 1.18125,-0.13125l16.8,-16.275z"/></g></g></g></svg>
