<?xml version="1.0"?>
<svg xmlns="http://www.w3.org/2000/svg" xmlns:xlink="http://www.w3.org/1999/xlink" version="1.1" id="Capa_1" x="0px" y="0px" viewBox="0 0 56.968 56.968" style="enable-background:new 0 0 56.968 56.968;" xml:space="preserve" width="512px" height="512px" class=""><g><g>
	<path d="M55.506,48.055L44.313,36.863l-1.427,1.426l-4.849-4.683C40.52,30.157,42,25.941,42,21.377c0-11.579-9.421-21-21-21   s-21,9.421-21,21s9.421,21,21,21c4.854,0,9.317-1.671,12.878-4.448l4.767,4.603l-1.401,1.401l11.192,11.192   c0.944,0.944,2.199,1.464,3.535,1.464s2.591-0.52,3.535-1.464C57.455,53.177,57.455,50.004,55.506,48.055z M2,21.377   c0-10.477,8.523-19,19-19s19,8.523,19,19c0,4.461-1.556,8.56-4.139,11.805c-0.305,0.384-0.63,0.748-0.961,1.106   c-0.1,0.108-0.194,0.221-0.297,0.326c-0.315,0.325-0.647,0.627-0.981,0.925c-0.172,0.154-0.334,0.318-0.512,0.465l-0.049,0.041   c-3.283,2.704-7.486,4.331-12.061,4.331C10.523,40.377,2,31.854,2,21.377z M54.092,53.712c-1.133,1.133-3.109,1.133-4.242,0   l-9.778-9.778l1.427-1.427l-6.084-5.875c0.061-0.058,0.115-0.125,0.176-0.183c0.293-0.284,0.57-0.582,0.846-0.882   c0.118-0.129,0.247-0.246,0.362-0.378l6.114,5.904l1.401-1.402l9.778,9.778C55.262,50.639,55.262,52.542,54.092,53.712z" data-original="#000000" class="active-path" data-old_color="#d62c2c" fill="#d62c2c"/>
	<path d="M38,21.377c0-9.374-7.626-17-17-17s-17,7.626-17,17s7.626,17,17,17S38,30.751,38,21.377z M21,36.377   c-8.271,0-15-6.729-15-15s6.729-15,15-15s15,6.729,15,15S29.271,36.377,21,36.377z" data-original="#000000" class="active-path" data-old_color="#d62c2c" fill="#d62c2c"/>
</g></g> </svg>
