<svg xmlns="http://www.w3.org/2000/svg" viewBox="0 0 56.968 56.968" width="512" height="512" fill="#d62c2c"><path d="M55.506 48.055L44.313 36.863l-1.427 1.426-4.85-4.683C40.52 30.157 42 25.94 42 21.377c0-11.58-9.42-21-21-21s-21 9.42-21 21 9.42 21 21 21c4.854 0 9.317-1.67 12.878-4.448l4.767 4.603-1.4 1.4 11.192 11.192c.944.944 2.2 1.464 3.535 1.464a4.97 4.97 0 0 0 3.535-1.464c1.95-1.948 1.95-5.12 0-7.07zM2 21.377c0-10.477 8.523-19 19-19s19 8.523 19 19c0 4.46-1.556 8.56-4.14 11.805a19.91 19.91 0 0 1-.96 1.106c-.1.108-.194.22-.297.326a18.55 18.55 0 0 1-.981.925c-.172.154-.334.318-.512.465l-.05.04A18.91 18.91 0 0 1 21 40.374c-10.477.001-19-8.522-19-19zm52.092 32.335c-1.133 1.133-3.1 1.133-4.242 0l-9.778-9.778 1.427-1.427-6.084-5.875c.06-.058.115-.125.176-.183.293-.284.57-.582.846-.882.118-.13.247-.246.362-.378l6.114 5.904 1.4-1.402 9.778 9.778c1.17 1.17 1.17 3.073 0 4.243zM38 21.377c0-9.374-7.626-17-17-17s-17 7.626-17 17 7.626 17 17 17 17-7.626 17-17zm-17 15a15.02 15.02 0 0 1-15-15 15.02 15.02 0 0 1 15-15 15.02 15.02 0 0 1 15 15 15.02 15.02 0 0 1-15 15z"/></svg>