<?xml version="1.0"?>
<svg xmlns="http://www.w3.org/2000/svg" xmlns:xlink="http://www.w3.org/1999/xlink" version="1.1" id="Capa_1" x="0px" y="0px" viewBox="0 0 511 511" style="enable-background:new 0 0 511 511;" xml:space="preserve" width="512px" height="512px" class=""><g><g>
	<g>
		<path d="M436.166,74.834C387.908,26.577,323.747,0,255.5,0C187.253,0,123.092,26.577,74.834,74.834    C26.577,123.092,0,187.253,0,255.5s26.577,132.408,74.834,180.666C123.092,484.423,187.253,511,255.5,511    c68.247,0,132.408-26.577,180.666-74.834C484.424,387.908,511,323.747,511,255.5S484.424,123.092,436.166,74.834z M255.5,496    C122.888,496,15,388.112,15,255.5S122.888,15,255.5,15S496,122.888,496,255.5S388.112,496,255.5,496z" data-original="#000000" class="active-path" data-old_color="#d62c2c" fill="#d62c2c"/>
		<path d="M415.5,312H391v-85.029c0-4.142-3.357-7.5-7.5-7.5s-7.5,3.358-7.5,7.5V319.5c0,4.142,3.357,7.5,7.5,7.5h15.046    L335.5,396.351L272.454,327H287.5c4.143,0,7.5-3.358,7.5-7.5V111h81v81.029c0,4.142,3.357,7.5,7.5,7.5s7.5-3.358,7.5-7.5V103.5    c0-4.142-3.357-7.5-7.5-7.5h-96c-4.143,0-7.5,3.358-7.5,7.5V312h-24.5c-6.369,0-9.845,7.82-5.549,12.545l80,88    c2.933,3.225,8.167,3.225,11.1,0l80-88C425.345,319.821,421.87,312,415.5,312z" data-original="#000000" class="active-path" data-old_color="#d62c2c" fill="#d62c2c"/>
		<path d="M262.358,194.534c1.201-2.715,0.688-5.883-1.309-8.079l-80-88c-2.932-3.225-8.167-3.225-11.099,0l-80,88    C85.655,191.179,89.13,199,95.5,199H120v208.5c0,4.142,3.358,7.5,7.5,7.5h96c4.142,0,7.5-3.358,7.5-7.5V199h24.5    C258.469,199,261.158,197.249,262.358,194.534z M223.5,184c-4.142,0-7.5,3.358-7.5,7.5V400h-81V191.5c0-4.142-3.358-7.5-7.5-7.5    h-15.046l63.046-69.351L238.546,184H223.5z" data-original="#000000" class="active-path" data-old_color="#d62c2c" fill="#d62c2c"/>
	</g>
</g></g> </svg>
