<?xml version="1.0"?>
<svg xmlns="http://www.w3.org/2000/svg" height="512px" version="1.1" viewBox="0 0 512 512" width="512px"><g><g id="surface1">
<path d="M 255.753906 386.078125 C 221.027344 386.078125 188.382812 372.554688 163.828125 348 C 113.140625 297.3125 113.140625 214.839844 163.828125 164.152344 C 181.296875 146.683594 203.21875 134.609375 227.21875 129.230469 C 250.566406 124.003906 274.867188 125.28125 297.492188 132.933594 C 302.722656 134.703125 305.53125 140.378906 303.761719 145.609375 C 301.992188 150.839844 296.316406 153.648438 291.085938 151.878906 C 251.121094 138.363281 207.777344 148.488281 177.96875 178.296875 C 135.082031 221.1875 135.082031 290.972656 177.96875 333.859375 C 198.746094 354.636719 226.371094 366.078125 255.753906 366.078125 C 285.132812 366.078125 312.757812 354.636719 333.535156 333.859375 C 363.660156 303.734375 373.699219 258.394531 359.109375 218.34375 C 357.21875 213.15625 359.894531 207.414062 365.082031 205.527344 C 370.273438 203.636719 376.011719 206.308594 377.902344 211.5 C 395.140625 258.820312 383.277344 312.402344 347.675781 348 C 323.121094 372.554688 290.476562 386.078125 255.753906 386.078125 Z M 255.753906 386.078125 " data-original="#000000" class="active-path" data-old_color="#d62c2c" fill="#d62c2c"/>
<path d="M 300 512 L 212 512 C 206.476562 512 202 507.523438 202 502 L 202 459.269531 C 183.921875 454.492188 166.640625 447.335938 150.445312 437.921875 L 120.234375 468.132812 C 118.359375 470.007812 115.816406 471.0625 113.164062 471.0625 C 110.511719 471.0625 107.96875 470.007812 106.09375 468.132812 L 43.867188 405.90625 C 41.992188 404.03125 40.9375 401.488281 40.9375 398.835938 C 40.9375 396.183594 41.992188 393.640625 43.867188 391.765625 L 74.078125 361.554688 C 64.664062 345.359375 57.507812 328.078125 52.730469 310 L 10 310 C 4.476562 310 0 305.523438 0 300 L 0 212 C 0 206.476562 4.476562 202 10 202 L 52.796875 202 C 57.589844 183.953125 64.757812 166.703125 74.171875 150.539062 L 43.867188 120.234375 C 41.992188 118.359375 40.9375 115.816406 40.9375 113.164062 C 40.9375 110.511719 41.992188 107.96875 43.867188 106.09375 L 106.09375 43.867188 C 107.96875 41.992188 110.511719 40.9375 113.164062 40.9375 C 115.816406 40.9375 118.359375 41.992188 120.234375 43.867188 L 150.609375 74.242188 C 166.757812 64.871094 183.984375 57.746094 202 52.984375 L 202 10 C 202 4.476562 206.476562 0 212 0 L 300 0 C 305.523438 0 310 4.476562 310 10 L 310 53.050781 C 327.980469 57.828125 345.179688 64.964844 361.296875 74.335938 L 391.761719 43.867188 C 393.636719 41.992188 396.183594 40.9375 398.835938 40.9375 C 401.484375 40.9375 404.03125 41.992188 405.90625 43.867188 L 468.132812 106.09375 C 470.007812 107.96875 471.058594 110.511719 471.058594 113.164062 C 471.058594 115.816406 470.007812 118.359375 468.132812 120.234375 L 437.664062 150.699219 C 447.035156 166.820312 454.171875 184.015625 458.949219 202 L 502 202 C 507.523438 202 512 206.476562 512 212 L 512 300 C 512 305.523438 507.523438 310 502 310 L 459.015625 310 C 454.253906 328.015625 447.128906 345.242188 437.757812 361.390625 L 468.132812 391.765625 C 470.007812 393.640625 471.0625 396.183594 471.0625 398.835938 C 471.0625 401.488281 470.007812 404.03125 468.132812 405.90625 L 405.90625 468.132812 C 402.003906 472.035156 395.671875 472.035156 391.765625 468.132812 L 361.460938 437.828125 C 345.296875 447.242188 328.042969 454.410156 310 459.203125 L 310 502 C 310 507.523438 305.523438 512 300 512 Z M 222 492 L 290 492 L 290 451.363281 C 290 446.683594 293.242188 442.632812 297.804688 441.605469 C 319.054688 436.824219 339.179688 428.464844 357.617188 416.761719 C 361.570312 414.25 366.738281 414.820312 370.050781 418.132812 L 398.835938 446.917969 L 446.921875 398.835938 L 418.074219 369.988281 C 414.765625 366.683594 414.191406 361.527344 416.691406 357.574219 C 428.34375 339.144531 436.65625 319.039062 441.40625 297.816406 C 442.425781 293.25 446.480469 290 451.164062 290 L 492 290 L 492 222 L 451.109375 222 C 446.429688 222 442.378906 218.757812 441.351562 214.195312 C 436.582031 193.007812 428.253906 172.933594 416.597656 154.53125 C 414.09375 150.578125 414.664062 145.417969 417.972656 142.109375 L 446.917969 113.164062 L 398.835938 65.082031 L 369.890625 94.027344 C 366.582031 97.335938 361.421875 97.90625 357.46875 95.402344 C 339.070312 83.746094 318.996094 75.417969 297.804688 70.648438 C 293.242188 69.621094 290 65.570312 290 60.894531 L 290 20 L 222 20 L 222 60.835938 C 222 65.519531 218.753906 69.574219 214.183594 70.59375 C 192.960938 75.34375 172.855469 83.65625 154.425781 95.308594 C 150.472656 97.808594 145.316406 97.234375 142.011719 93.925781 L 113.164062 65.078125 L 65.082031 113.164062 L 93.871094 141.949219 C 97.183594 145.261719 97.75 150.429688 95.242188 154.382812 C 83.535156 172.820312 75.179688 192.945312 70.394531 214.195312 C 69.367188 218.757812 65.316406 222 60.640625 222 L 20 222 L 20 290 L 60.582031 290 C 65.265625 290 69.320312 293.246094 70.34375 297.816406 C 75.101562 319.101562 83.449219 339.253906 95.148438 357.722656 C 97.652344 361.675781 97.082031 366.835938 93.773438 370.144531 L 65.082031 398.835938 L 113.164062 446.917969 L 141.855469 418.230469 C 145.164062 414.917969 150.324219 414.347656 154.277344 416.851562 C 172.746094 428.550781 192.902344 436.898438 214.183594 441.660156 C 218.753906 442.679688 222.003906 446.734375 222.003906 451.417969 L 222.003906 492 Z M 222 492 " data-original="#000000" class="active-path" data-old_color="#d62c2c" fill="#d62c2c"/>
<path d="M 255.871094 326.128906 C 217.273438 326.128906 185.871094 294.726562 185.871094 256.128906 C 185.871094 217.527344 217.273438 186.128906 255.871094 186.128906 C 294.472656 186.128906 325.871094 217.527344 325.871094 256.128906 C 325.871094 294.726562 294.472656 326.128906 255.871094 326.128906 Z M 255.871094 206.128906 C 228.304688 206.128906 205.871094 228.558594 205.871094 256.128906 C 205.871094 283.695312 228.304688 306.128906 255.871094 306.128906 C 283.441406 306.128906 305.871094 283.695312 305.871094 256.128906 C 305.871094 228.558594 283.441406 206.128906 255.871094 206.128906 Z M 255.871094 206.128906 " data-original="#000000" class="active-path" data-old_color="#d62c2c" fill="#d62c2c"/>
<path d="M 340.363281 181.464844 C 337.808594 181.464844 335.25 180.488281 333.296875 178.539062 C 329.390625 174.636719 329.386719 168.304688 333.289062 164.398438 L 333.773438 163.914062 C 337.675781 160.007812 344.007812 160.003906 347.914062 163.910156 C 351.820312 167.8125 351.824219 174.144531 347.921875 178.050781 L 347.441406 178.53125 C 345.488281 180.488281 342.925781 181.464844 340.363281 181.464844 Z M 340.363281 181.464844 " data-original="#000000" class="active-path" data-old_color="#d62c2c" fill="#d62c2c"/>
</g></g> </svg>
