<svg xmlns="http://www.w3.org/2000/svg" height="512" width="512" fill="#d62c2c"><path d="M255.754 386.078c-34.727 0-67.37-13.523-91.926-38.078-50.687-50.687-50.687-133.16 0-183.848 17.47-17.47 39.4-29.543 63.4-34.922 23.348-5.227 47.648-3.95 70.273 3.703 5.23 1.77 8.04 7.445 6.27 12.676s-7.445 8.04-12.676 6.27c-39.965-13.516-83.3-3.4-113.117 26.418-42.887 42.9-42.887 112.676 0 155.563 20.777 20.777 48.402 32.22 77.785 32.22s57.004-11.44 77.78-32.22c30.125-30.125 40.164-75.465 25.574-115.516A10 10 0 1 1 377.9 211.5c17.238 47.32 5.375 100.902-30.227 136.5-24.555 24.555-57.2 38.078-91.922 38.078zM300 512h-88a10 10 0 0 1-10-10v-42.73c-18.078-4.777-35.36-11.934-51.555-21.348l-30.2 30.2a10 10 0 0 1-14.141 0l-62.227-62.227a10 10 0 0 1 0-14.141l30.2-30.2C64.664 345.36 57.508 328.078 52.73 310H10a10 10 0 0 1-10-10v-88a10 10 0 0 1 10-10h42.797c4.793-18.047 11.96-35.297 21.375-51.46l-30.305-30.305a10 10 0 0 1 0-14.141l62.227-62.227a10 10 0 0 1 14.141 0L150.6 74.242A208.24 208.24 0 0 1 202 52.984V10a10 10 0 0 1 10-10h88a10 10 0 0 1 10 10v43.05c17.98 4.777 35.18 11.914 51.297 21.285l30.465-30.47a10.01 10.01 0 0 1 7.074-2.93c2.648 0 5.195 1.055 7.07 2.93l62.227 62.227c1.875 1.875 2.926 4.418 2.926 7.07a9.99 9.99 0 0 1-2.926 7.07l-30.47 30.465c9.37 16.12 16.508 33.316 21.285 51.3H502a10 10 0 0 1 10 10v88a10 10 0 0 1-10 10h-42.984a208.24 208.24 0 0 1-21.258 51.391l30.375 30.375a10 10 0 0 1 0 14.141l-62.227 62.227c-3.902 3.902-10.234 3.902-14.14 0l-30.305-30.305a208.44 208.44 0 0 1-51.46 21.375V502a10 10 0 0 1-10 10zm-78-20h68v-40.637a10 10 0 0 1 7.805-9.758 188.55 188.55 0 0 0 59.813-24.844 10 10 0 0 1 12.434 1.371l28.785 28.785 48.086-48.082-28.848-28.848c-3.3-3.305-3.883-8.46-1.383-12.414 11.652-18.43 19.965-38.535 24.715-59.758a10 10 0 0 1 9.758-7.816H492v-68h-40.9a10 10 0 0 1-9.758-7.805c-4.77-21.187-13.098-41.262-24.754-59.664a10 10 0 0 1 1.375-12.422l28.945-28.945-48.082-48.082-28.945 28.945a10 10 0 0 1-12.422 1.375 188.57 188.57 0 0 0-59.664-24.754A10 10 0 0 1 290 60.895V20h-68v40.836c0 4.684-3.246 8.738-7.816 9.758-21.223 4.75-41.328 13.063-59.758 24.715-3.953 2.5-9.1 1.926-12.414-1.383l-28.848-28.848-48.082 48.086 28.8 28.785c3.313 3.313 3.88 8.48 1.37 12.434a188.56 188.56 0 0 0-24.848 59.813A10 10 0 0 1 60.641 222H20v68h40.582a10 10 0 0 1 9.762 7.816c4.758 21.285 13.105 41.438 24.805 59.906a10 10 0 0 1-1.375 12.422l-28.7 28.7 48.082 48.082 28.7-28.687a10 10 0 0 1 12.422-1.38 188.64 188.64 0 0 0 59.906 24.81 10 10 0 0 1 7.82 9.758V492zm33.87-165.87c-38.598 0-70-31.402-70-70s31.402-70 70-70 70 31.398 70 70-31.398 70-70 70zm0-120c-27.566 0-50 22.43-50 50s22.434 50 50 50 50-22.434 50-50-22.43-50-50-50zm84.493-24.665c-2.555 0-5.113-.977-7.066-2.926-3.906-3.902-3.9-10.234-.008-14.14l.484-.484a10 10 0 0 1 14.141-.004c3.906 3.902 3.9 10.234.008 14.14l-.48.48c-1.953 1.957-4.516 2.934-7.078 2.934zm0 0"/></svg>