<svg xmlns="http://www.w3.org/2000/svg" height="512" viewBox="0 0 480 480" width="512"><path d="M240 0C107.453 0 0 107.453 0 240s107.453 240 240 240 240-107.453 240-240C479.852 107.516 372.484.148 240 0zm207.566 324.078l-68.254 11.777A358.15 358.15 0 0 0 391.871 248h71.93c-.902 26.117-6.398 51.87-16.234 76.078zM16.2 248h71.93a358.15 358.15 0 0 0 12.559 87.855l-68.254-11.777C22.598 299.87 17.102 274.117 16.2 248zm16.234-92.078l68.254-11.777A358.15 358.15 0 0 0 88.129 232H16.2c.902-26.117 6.398-51.87 16.234-76.078zM248 128.45a550.35 550.35 0 0 1 85.762 7.832l28.238 4.87c8.676 29.523 13.344 60.078 13.88 90.848H248zm88.488-7.937c-29.238-4.996-58.828-7.695-88.488-8.062v-96c45.863 4.406 85.703 46.398 108.28 107.512zM232 112.45c-29.66.367-59.242 3.066-88.48 8.063l-19.8 3.426C146.297 62.81 186.137 20.8 232 16.414zm-85.754 23.832c28.336-4.848 57.008-7.465 85.754-7.832V232H104.12c.535-30.77 5.203-61.324 13.88-90.848zM104.12 248H232v103.55a550.35 550.35 0 0 1-85.762-7.832L118 338.848c-8.676-29.523-13.344-60.078-13.88-90.848zm39.39 111.488A568.97 568.97 0 0 0 232 367.594v96c-45.863-4.4-85.703-46.402-108.28-107.516zM248 367.594c29.66-.39 59.242-3.102 88.48-8.105l19.8-3.426C333.703 417.19 293.863 459.2 248 463.586zm85.754-23.875c-28.336 4.848-57.008 7.465-85.754 7.832V248h127.88c-.535 30.77-5.203 61.324-13.88 90.848zM391.87 232a358.15 358.15 0 0 0-12.559-87.855l68.254 11.777c9.836 24.207 15.332 49.96 16.234 76.078zm47.602-93.71L374.047 127c-11.762-38.37-33.766-72.81-63.648-99.602 55.88 18.648 102.22 58.457 129.074 110.89zm-269.87-110.89C139.72 54.19 117.715 88.63 105.953 127l-65.426 11.29c26.855-52.434 73.195-92.242 129.074-110.89zM40.527 341.71L105.953 353c11.762 38.37 33.766 72.81 63.648 99.602-55.88-18.648-102.22-58.457-129.074-110.89zm269.87 110.89c29.883-26.793 51.887-61.23 63.648-99.602l65.426-11.29c-26.855 52.434-73.195 92.242-129.074 110.89zm0 0" fill="#d62c2c"/></svg>