<svg xmlns="http://www.w3.org/2000/svg" viewBox="0 0 433 883.9"><defs><style>.cls-1{fill:#232323;}.cls-2{fill:#fff;}</style></defs><title>iphone7</title><g id="Layer_2" data-name="Layer 2"><g id="Layer_1-2" data-name="Layer 1"><path id="Rectangle_2_copy_2" data-name="Rectangle 2 copy 2" class="cls-1" d="M433,254.3h-4.2V823.7c0,33.2-26.7,60.2-59.6,60.2H63.2c-32.9,0-59.6-27-59.6-60.2V334.5H0V268.9H3.6V254.4H0V188.7H3.6V148.2H0V112.7H3.6V60.2C3.6,27,30.3,0,63.2,0h306c33,0,59.7,27,59.7,60.2V188.6H433v65.7Z"/><path d="M216.5,793.1a30.2,30.2,0,1,0,29.9,30.5A30.32,30.32,0,0,0,216.5,793.1Z"/><path d="M368.7,12H64.3A48.48,48.48,0,0,0,15.8,60.5V824a48.48,48.48,0,0,0,48.5,48.5H368.8A48.48,48.48,0,0,0,417.3,824V60.5A48.57,48.57,0,0,0,368.7,12ZM217,24.5a5,5,0,1,1-5,5A5,5,0,0,1,217,24.5Zm-33,34a3,3,0,0,1,3-3h60.1a3.08,3.08,0,0,1,3,3V59a3,3,0,0,1-3,3H187a3,3,0,0,1-3-3Zm-34.4-7.7a7.25,7.25,0,1,1-7.2,7.3A7.26,7.26,0,0,1,149.6,50.8ZM216.5,857a33.8,33.8,0,1,1,34-33.8A33.87,33.87,0,0,1,216.5,857Zm188.8-78.8H27.3v-670h378Z"/><rect class="cls-2" x="29" y="109.7" width="375" height="667"/></g></g></svg>