<svg width="120" height="28" viewBox="0 0 120 28" fill="none" xmlns="http://www.w3.org/2000/svg">
<path fill-rule="evenodd" clip-rule="evenodd" d="M0 0H50.9094V28H0V0ZM7.43789 19.8333V15.8138L8.87138 14.2905L13.1884 19.8333H15.119L9.89884 13.2936L14.6799 8.32503H12.8072L7.57047 13.9157H7.43789V8.32503H5.94641V19.8333H7.43789ZM24.3497 18.5413H18.4335V14.5856H24.0431V13.3096H18.4335V9.61702H24.3497V8.32503H16.942V19.8333H24.3497V18.5413ZM34.2763 18.5413H28.3601V14.5856H33.9698V13.3096H28.3601V9.61702H34.2763V8.32503H26.8686V19.8333H34.2763V18.5413ZM38.2702 19.8333V10.909H38.4028L44.8907 19.8333H46.3408V8.32503H44.8659V17.2812H44.7333L38.2453 8.32503H36.7953V19.8333H38.2702Z" fill="#12233D"/>
<path d="M52.1196 2.33333V25.6667H117.574V2.33333H52.1196ZM49.6953 0H119.999V28H49.6953V0Z" fill="#12233D"/>
<path fill-rule="evenodd" clip-rule="evenodd" d="M63.8374 18.5412H57.9212V14.5855H63.5308V13.3094H57.9212V9.61686H63.8374V8.32487H56.4297V19.8332H63.8374V18.5412ZM70.9551 19.8332V9.61686H74.8081V8.32487H65.6106V9.61686H69.4636V19.8332H70.9551ZM86.4748 19.8332V8.32487H84.9834V13.3014H78.4208V8.32487H76.9293V19.8332H78.4208V14.5934H84.9834V19.8332H86.4748ZM90.8333 19.8332V8.32487H89.3418V19.8332H90.8333ZM98.5144 20.1043C99.785 20.1043 100.858 19.7893 101.734 19.1593C102.609 18.5292 103.146 17.6852 103.345 16.6271H101.829C101.641 17.2917 101.25 17.8168 100.656 18.2022C100.063 18.5877 99.3486 18.7804 98.5144 18.7804C97.3654 18.7804 96.454 18.3578 95.7801 17.5124C95.1061 16.667 94.7692 15.5239 94.7692 14.083C94.7692 12.6368 95.1047 11.4911 95.7759 10.6457C96.4471 9.80029 97.3572 9.3776 98.5062 9.3776C99.3292 9.3776 100.039 9.59426 100.636 10.0276C101.232 10.4609 101.63 11.0497 101.829 11.7941H103.345C103.168 10.6829 102.633 9.78169 101.738 9.0905C100.843 8.3993 99.7656 8.05371 98.5062 8.05371C96.8821 8.05371 95.5978 8.59337 94.6532 9.67269C93.7085 10.752 93.2362 12.2221 93.2362 14.083C93.2362 15.9386 93.7099 17.406 94.6573 18.4854C95.6047 19.5647 96.8904 20.1043 98.5144 20.1043ZM105.094 16.8265C105.171 17.8208 105.614 18.6156 106.423 19.2111C107.233 19.8066 108.27 20.1043 109.535 20.1043C110.905 20.1043 111.992 19.792 112.795 19.1672C113.599 18.5425 114.001 17.7011 114.001 16.6431C114.001 15.7977 113.732 15.1251 113.193 14.6253C112.655 14.1255 111.767 13.7268 110.529 13.429L109.278 13.11C108.455 12.908 107.865 12.6661 107.509 12.3843C107.153 12.1025 106.974 11.7356 106.974 11.2837C106.974 10.6988 107.216 10.231 107.7 9.88005C108.183 9.52913 108.822 9.35368 109.618 9.35368C110.363 9.35368 110.975 9.51983 111.453 9.85213C111.931 10.1844 112.222 10.6457 112.327 11.2358H113.827C113.766 10.3054 113.346 9.54243 112.568 8.94694C111.789 8.35145 110.822 8.05371 109.667 8.05371C108.402 8.05371 107.382 8.35544 106.606 8.9589C105.83 9.56237 105.442 10.3532 105.442 11.3315C105.442 12.1503 105.687 12.8056 106.179 13.2974C106.671 13.7893 107.458 14.1681 108.541 14.4339L110.073 14.8167C110.897 15.0135 111.501 15.274 111.888 15.5983C112.275 15.9226 112.468 16.3294 112.468 16.8185C112.468 17.3874 112.204 17.8593 111.677 18.2341C111.149 18.609 110.482 18.7964 109.676 18.7964C108.825 18.7964 108.123 18.6183 107.571 18.262C107.019 17.9058 106.696 17.4273 106.602 16.8265H105.094Z" fill="black"/>
<path d="M52.1196 20.9987C53.4585 20.9987 54.5438 19.954 54.5438 18.6654C54.5438 17.3767 53.4585 16.332 52.1196 16.332C50.7807 16.332 49.6953 17.3767 49.6953 18.6654C49.6953 19.954 50.7807 20.9987 52.1196 20.9987Z" fill="#D62C2C"/>
</svg>
