<svg width="767" height="428" viewBox="0 0 767 428" fill="none" xmlns="http://www.w3.org/2000/svg">
<path opacity="0.07" d="M379.448 404.42C380.552 404.42 381.512 404.648 382.328 405.104C383.144 405.56 383.828 406.184 384.38 406.976C384.908 407.768 385.316 408.692 385.604 409.748C385.868 410.804 386 411.92 386 413.096L386 425.552L360.44 425.552L360.44 411.332C360.44 410.444 360.632 409.64 361.016 408.92C361.4 408.2 361.904 407.588 362.528 407.084C363.128 406.58 363.824 406.196 364.616 405.932C365.384 405.644 366.176 405.5 366.992 405.5C368.216 405.5 369.368 405.812 370.448 406.436C371.528 407.036 372.344 407.948 372.896 409.172C373.328 407.708 374.096 406.556 375.2 405.716C376.304 404.852 377.72 404.42 379.448 404.42ZM378.26 410.432C377.468 410.432 376.796 410.66 376.244 411.116C375.692 411.572 375.416 412.148 375.416 412.844L375.416 419.648L380.996 419.648L380.996 413.096C380.996 412.328 380.744 411.692 380.24 411.188C379.736 410.684 379.076 410.432 378.26 410.432ZM365.48 419.648L370.772 419.648L370.772 413.852C370.772 413.204 370.556 412.628 370.124 412.124C369.692 411.62 369.02 411.368 368.108 411.368C367.268 411.368 366.62 411.596 366.164 412.052C365.708 412.484 365.48 413.012 365.48 413.636L365.48 419.648ZM386.36 395.687C386.36 397.631 385.76 399.107 384.56 400.115C383.336 401.099 381.548 401.591 379.196 401.591L367.1 401.591L367.1 395.831L377.936 395.831C379.088 395.831 379.976 395.603 380.6 395.147C381.2 394.691 381.5 394.043 381.5 393.203C381.5 392.435 381.296 391.691 380.888 390.971C380.48 390.251 379.772 389.615 378.764 389.063L367.1 389.063L367.1 383.303L379.52 383.303C380.096 383.303 380.504 383.219 380.744 383.051C380.96 382.859 381.092 382.535 381.14 382.079L386 382.079C386.12 382.631 386.192 383.099 386.216 383.483C386.264 383.867 386.288 384.215 386.288 384.527C386.288 386.591 385.484 387.767 383.876 388.055L382.724 388.163C383.972 389.027 384.896 390.107 385.496 391.403C386.072 392.675 386.36 394.103 386.36 395.687ZM386.36 371.388C386.36 372.996 386.108 374.58 385.604 376.14C385.076 377.7 384.32 379.02 383.336 380.1L379.808 378.048C380.6 376.896 381.212 375.78 381.644 374.7C382.076 373.596 382.292 372.54 382.292 371.532C382.292 370.788 382.16 370.212 381.896 369.804C381.632 369.396 381.248 369.192 380.744 369.192C380.24 369.192 379.844 369.456 379.556 369.984C379.244 370.488 378.92 371.388 378.584 372.684C378.224 373.956 377.876 375.036 377.54 375.924C377.204 376.788 376.832 377.496 376.424 378.048C376.016 378.6 375.548 378.996 375.02 379.236C374.492 379.476 373.868 379.596 373.148 379.596C372.188 379.596 371.312 379.404 370.52 379.02C369.728 378.636 369.056 378.108 368.504 377.436C367.952 376.764 367.52 375.972 367.208 375.06C366.896 374.124 366.74 373.116 366.74 372.036C366.74 370.62 366.932 369.3 367.316 368.076C367.7 366.828 368.396 365.628 369.404 364.476L372.86 366.708C372.116 367.788 371.576 368.748 371.24 369.588C370.904 370.428 370.736 371.244 370.736 372.036C370.736 372.66 370.868 373.188 371.132 373.62C371.372 374.052 371.768 374.268 372.32 374.268C372.848 374.268 373.244 374.04 373.508 373.584C373.772 373.104 374.06 372.228 374.372 370.956C374.732 369.612 375.092 368.484 375.452 367.572C375.812 366.636 376.22 365.88 376.676 365.304C377.108 364.728 377.612 364.308 378.188 364.044C378.764 363.78 379.448 363.648 380.24 363.648C382.112 363.648 383.6 364.344 384.704 365.736C385.808 367.128 386.36 369.012 386.36 371.388ZM386 360.875L367.1 360.875L367.1 355.115L386 355.115L386 360.875ZM364.94 360.875L359.72 360.875L359.72 355.115L364.94 355.115L364.94 360.875ZM386 332.956L386 338.716L375.38 338.716C374.132 338.716 373.232 338.956 372.68 339.436C372.104 339.892 371.816 340.504 371.816 341.272C371.816 341.68 371.9 342.088 372.068 342.496C372.236 342.904 372.476 343.3 372.788 343.684C373.076 344.068 373.424 344.416 373.832 344.728C374.24 345.016 374.684 345.244 375.164 345.412L386 345.412L386 351.172L367.1 351.172L367.1 345.988L370.268 345.988C369.14 345.292 368.276 344.308 367.676 343.036C367.052 341.764 366.74 340.3 366.74 338.644C366.74 337.42 366.968 336.436 367.424 335.692C367.856 334.948 368.432 334.372 369.152 333.964C369.848 333.556 370.616 333.292 371.456 333.172C372.296 333.028 373.112 332.956 373.904 332.956L386 332.956ZM386.36 320.093C386.36 321.677 386.108 323.105 385.604 324.377C385.076 325.625 384.368 326.693 383.48 327.581C382.592 328.445 381.572 329.105 380.42 329.561C379.244 330.017 378.02 330.245 376.748 330.245C375.38 330.245 374.096 330.017 372.896 329.561C371.672 329.105 370.604 328.445 369.692 327.581C368.78 326.717 368.06 325.661 367.532 324.413C367.004 323.141 366.74 321.701 366.74 320.093C366.74 318.485 367.004 317.057 367.532 315.809C368.06 314.561 368.78 313.505 369.692 312.641C370.58 311.777 371.612 311.129 372.788 310.697C373.964 310.241 375.2 310.013 376.496 310.013C376.832 310.013 377.168 310.025 377.504 310.049C377.816 310.073 378.092 310.109 378.332 310.157L378.332 324.125C379.604 324.029 380.576 323.573 381.248 322.757C381.896 321.917 382.22 320.969 382.22 319.913C382.22 319.073 382.016 318.269 381.608 317.501C381.2 316.709 380.648 316.181 379.952 315.917L381.32 311.021C382.808 311.765 384.02 312.917 384.956 314.477C385.892 316.037 386.36 317.909 386.36 320.093ZM374.768 316.097C373.568 316.217 372.62 316.649 371.924 317.393C371.228 318.137 370.88 319.061 370.88 320.165C370.88 321.293 371.24 322.229 371.96 322.973C372.656 323.693 373.592 324.113 374.768 324.233L374.768 316.097ZM386.36 299.951C386.36 301.559 386.108 303.143 385.604 304.703C385.076 306.263 384.32 307.583 383.336 308.663L379.808 306.611C380.6 305.459 381.212 304.343 381.644 303.263C382.076 302.159 382.292 301.103 382.292 300.095C382.292 299.351 382.16 298.775 381.896 298.367C381.632 297.959 381.248 297.755 380.744 297.755C380.24 297.755 379.844 298.019 379.556 298.547C379.244 299.051 378.92 299.951 378.584 301.247C378.224 302.519 377.876 303.599 377.54 304.487C377.204 305.351 376.832 306.059 376.424 306.611C376.016 307.163 375.548 307.559 375.02 307.799C374.492 308.039 373.868 308.159 373.148 308.159C372.188 308.159 371.312 307.967 370.52 307.583C369.728 307.199 369.056 306.671 368.504 305.999C367.952 305.327 367.52 304.535 367.208 303.623C366.896 302.687 366.74 301.679 366.74 300.599C366.74 299.183 366.932 297.863 367.316 296.639C367.7 295.391 368.396 294.191 369.404 293.039L372.86 295.271C372.116 296.351 371.576 297.311 371.24 298.151C370.904 298.991 370.736 299.807 370.736 300.599C370.736 301.223 370.868 301.751 371.132 302.183C371.372 302.615 371.768 302.831 372.32 302.831C372.848 302.831 373.244 302.603 373.508 302.147C373.772 301.667 374.06 300.791 374.372 299.519C374.732 298.175 375.092 297.047 375.452 296.135C375.812 295.199 376.22 294.443 376.676 293.867C377.108 293.291 377.612 292.871 378.188 292.607C378.764 292.343 379.448 292.211 380.24 292.211C382.112 292.211 383.6 292.907 384.704 294.299C385.808 295.691 386.36 297.575 386.36 299.951ZM386.36 281.986C386.36 283.594 386.108 285.178 385.604 286.738C385.076 288.298 384.32 289.618 383.336 290.698L379.808 288.646C380.6 287.494 381.212 286.378 381.644 285.298C382.076 284.194 382.292 283.138 382.292 282.13C382.292 281.386 382.16 280.81 381.896 280.402C381.632 279.994 381.248 279.79 380.744 279.79C380.24 279.79 379.844 280.054 379.556 280.582C379.244 281.086 378.92 281.986 378.584 283.282C378.224 284.554 377.876 285.634 377.54 286.522C377.204 287.386 376.832 288.094 376.424 288.646C376.016 289.198 375.548 289.594 375.02 289.834C374.492 290.074 373.868 290.194 373.148 290.194C372.188 290.194 371.312 290.002 370.52 289.618C369.728 289.234 369.056 288.706 368.504 288.034C367.952 287.362 367.52 286.57 367.208 285.658C366.896 284.722 366.74 283.714 366.74 282.634C366.74 281.218 366.932 279.898 367.316 278.674C367.7 277.426 368.396 276.226 369.404 275.074L372.86 277.306C372.116 278.386 371.576 279.346 371.24 280.186C370.904 281.026 370.736 281.842 370.736 282.634C370.736 283.258 370.868 283.786 371.132 284.218C371.372 284.65 371.768 284.866 372.32 284.866C372.848 284.866 373.244 284.638 373.508 284.182C373.772 283.702 374.06 282.826 374.372 281.554C374.732 280.21 375.092 279.082 375.452 278.17C375.812 277.234 376.22 276.478 376.676 275.902C377.108 275.326 377.612 274.906 378.188 274.642C378.764 274.378 379.448 274.246 380.24 274.246C382.112 274.246 383.6 274.942 384.704 276.334C385.808 277.726 386.36 279.61 386.36 281.986Z" fill="white"/>
<path opacity="0.07" d="M740.44 402.556L766 402.556L766 408.46L755.524 408.46L755.524 418.648L766 418.648L766 424.552L740.44 424.552L740.44 418.648L750.34 418.648L750.34 408.46L740.44 408.46L740.44 402.556ZM766.36 389.336C766.36 390.92 766.108 392.348 765.604 393.62C765.076 394.868 764.368 395.936 763.48 396.824C762.592 397.688 761.572 398.348 760.42 398.804C759.244 399.26 758.02 399.488 756.748 399.488C755.38 399.488 754.096 399.26 752.896 398.804C751.672 398.348 750.604 397.688 749.692 396.824C748.78 395.96 748.06 394.904 747.532 393.656C747.004 392.384 746.74 390.944 746.74 389.336C746.74 387.728 747.004 386.3 747.532 385.052C748.06 383.804 748.78 382.748 749.692 381.884C750.58 381.02 751.612 380.372 752.788 379.94C753.964 379.484 755.2 379.256 756.496 379.256C756.832 379.256 757.168 379.268 757.504 379.292C757.816 379.316 758.092 379.352 758.332 379.4L758.332 393.368C759.604 393.272 760.576 392.816 761.248 392C761.896 391.16 762.22 390.212 762.22 389.156C762.22 388.316 762.016 387.512 761.608 386.744C761.2 385.952 760.648 385.424 759.952 385.16L761.32 380.264C762.808 381.008 764.02 382.16 764.956 383.72C765.892 385.28 766.36 387.152 766.36 389.336ZM754.768 385.34C753.568 385.46 752.62 385.892 751.924 386.636C751.228 387.38 750.88 388.304 750.88 389.408C750.88 390.536 751.24 391.472 751.96 392.216C752.656 392.936 753.592 393.356 754.768 393.476L754.768 385.34ZM766.36 371.281C766.36 372.217 766.216 373.093 765.928 373.909C765.616 374.701 765.196 375.385 764.668 375.961C764.116 376.537 763.48 376.993 762.76 377.329C762.016 377.665 761.212 377.833 760.348 377.833C759.412 377.833 758.56 377.641 757.792 377.257C757.024 376.849 756.364 376.285 755.812 375.565C755.26 374.845 754.828 373.993 754.516 373.009C754.204 372.025 754.048 370.933 754.048 369.733C754.048 368.941 754.12 368.173 754.264 367.429C754.384 366.685 754.576 366.037 754.84 365.485L753.976 365.485C751.792 365.485 750.7 366.745 750.7 369.265C750.7 370.297 750.88 371.281 751.24 372.217C751.576 373.153 752.092 374.137 752.788 375.169L749.188 376.861C748.372 375.613 747.76 374.317 747.352 372.973C746.944 371.629 746.74 370.201 746.74 368.689C746.74 365.833 747.412 363.625 748.756 362.065C750.1 360.505 752.068 359.725 754.66 359.725L759.52 359.725C760.096 359.725 760.504 359.641 760.744 359.473C760.96 359.281 761.092 358.957 761.14 358.501L766 358.501C766.12 359.005 766.192 359.461 766.216 359.869C766.264 360.277 766.288 360.649 766.288 360.985C766.288 362.065 766.084 362.881 765.676 363.433C765.244 363.985 764.644 364.333 763.876 364.477L763.012 364.585C764.092 365.425 764.92 366.433 765.496 367.609C766.072 368.761 766.36 369.985 766.36 371.281ZM762.22 369.589C762.22 368.965 762.112 368.365 761.896 367.789C761.68 367.189 761.392 366.697 761.032 366.313C760.6 365.761 760.144 365.485 759.664 365.485L757.864 365.485C757.672 365.989 757.528 366.541 757.432 367.141C757.312 367.717 757.252 368.257 757.252 368.761C757.252 369.817 757.492 370.693 757.972 371.389C758.452 372.061 759.076 372.397 759.844 372.397C760.54 372.397 761.116 372.133 761.572 371.605C762.004 371.077 762.22 370.405 762.22 369.589ZM739.72 355.623L739.72 349.863L759.268 349.863C760.708 349.863 761.428 349.251 761.428 348.027C761.428 347.739 761.392 347.427 761.32 347.091C761.224 346.731 761.092 346.407 760.924 346.119L765.244 345.363C765.58 346.083 765.844 346.911 766.036 347.847C766.228 348.783 766.324 349.659 766.324 350.475C766.324 352.131 765.892 353.403 765.028 354.291C764.164 355.179 762.916 355.623 761.284 355.623L739.72 355.623ZM764.992 331.253C765.328 332.045 765.64 332.957 765.928 333.989C766.216 334.997 766.36 336.017 766.36 337.049C766.36 337.769 766.264 338.453 766.072 339.101C765.904 339.725 765.628 340.277 765.244 340.757C764.836 341.237 764.308 341.621 763.66 341.909C763.012 342.173 762.232 342.305 761.32 342.305L751.456 342.305L751.456 344.717L747.1 344.717L747.1 342.305L741.088 342.305L741.088 336.545L747.1 336.545L747.1 332.693L751.456 332.693L751.456 336.545L759.34 336.545C759.964 336.545 760.42 336.389 760.708 336.077C760.972 335.765 761.104 335.369 761.104 334.889C761.104 334.457 761.032 334.013 760.888 333.557C760.744 333.101 760.588 332.705 760.42 332.369L764.992 331.253ZM766 310.792L766 316.552L755.38 316.552C754.156 316.552 753.256 316.792 752.68 317.272C752.104 317.752 751.816 318.412 751.816 319.252C751.816 319.588 751.9 319.96 752.068 320.368C752.212 320.752 752.44 321.136 752.752 321.52C753.04 321.88 753.388 322.216 753.796 322.528C754.204 322.84 754.66 323.08 755.164 323.248L766 323.248L766 329.008L739.72 329.008L739.72 323.248L750.268 323.248C749.14 322.552 748.276 321.64 747.676 320.512C747.052 319.36 746.74 318.1 746.74 316.732C746.74 315.46 746.968 314.44 747.424 313.672C747.856 312.88 748.42 312.28 749.116 311.872C749.788 311.44 750.556 311.152 751.42 311.008C752.26 310.864 753.088 310.792 753.904 310.792L766 310.792ZM756.532 308.081C755.236 308.081 754 307.853 752.824 307.397C751.624 306.941 750.58 306.281 749.692 305.417C748.78 304.553 748.06 303.497 747.532 302.249C747.004 300.977 746.74 299.537 746.74 297.929C746.74 295.745 747.208 293.909 748.144 292.421C749.056 290.933 750.256 289.817 751.744 289.073L753.436 294.689C752.236 295.433 751.636 296.525 751.636 297.965C751.636 299.165 752.08 300.173 752.968 300.989C753.856 301.781 755.044 302.177 756.532 302.177C757.276 302.177 757.96 302.069 758.584 301.853C759.184 301.637 759.7 301.337 760.132 300.953C760.564 300.569 760.9 300.125 761.14 299.621C761.38 299.093 761.5 298.541 761.5 297.965C761.5 297.245 761.332 296.585 760.996 295.985C760.636 295.385 760.18 294.941 759.628 294.653L761.356 289.037C762.82 289.733 764.02 290.849 764.956 292.385C765.892 293.897 766.36 295.745 766.36 297.929C766.36 299.513 766.096 300.941 765.568 302.213C765.016 303.461 764.296 304.529 763.408 305.417C762.496 306.281 761.452 306.941 760.276 307.397C759.076 307.853 757.828 308.081 756.532 308.081ZM766.36 281.07C766.36 282.006 766.216 282.882 765.928 283.698C765.616 284.49 765.196 285.174 764.668 285.75C764.116 286.326 763.48 286.782 762.76 287.118C762.016 287.454 761.212 287.622 760.348 287.622C759.412 287.622 758.56 287.43 757.792 287.046C757.024 286.638 756.364 286.074 755.812 285.354C755.26 284.634 754.828 283.782 754.516 282.798C754.204 281.814 754.048 280.722 754.048 279.522C754.048 278.73 754.12 277.962 754.264 277.218C754.384 276.474 754.576 275.826 754.84 275.274L753.976 275.274C751.792 275.274 750.7 276.534 750.7 279.054C750.7 280.086 750.88 281.07 751.24 282.006C751.576 282.942 752.092 283.926 752.788 284.958L749.188 286.65C748.372 285.402 747.76 284.106 747.352 282.762C746.944 281.418 746.74 279.99 746.74 278.478C746.74 275.622 747.412 273.414 748.756 271.854C750.1 270.294 752.068 269.514 754.66 269.514L759.52 269.514C760.096 269.514 760.504 269.43 760.744 269.262C760.96 269.07 761.092 268.746 761.14 268.29L766 268.29C766.12 268.794 766.192 269.25 766.216 269.658C766.264 270.066 766.288 270.438 766.288 270.774C766.288 271.854 766.084 272.67 765.676 273.222C765.244 273.774 764.644 274.122 763.876 274.266L763.012 274.374C764.092 275.214 764.92 276.222 765.496 277.398C766.072 278.55 766.36 279.774 766.36 281.07ZM762.22 279.378C762.22 278.754 762.112 278.154 761.896 277.578C761.68 276.978 761.392 276.486 761.032 276.102C760.6 275.55 760.144 275.274 759.664 275.274L757.864 275.274C757.672 275.778 757.528 276.33 757.432 276.93C757.312 277.506 757.252 278.046 757.252 278.55C757.252 279.606 757.492 280.482 757.972 281.178C758.452 281.85 759.076 282.186 759.844 282.186C760.54 282.186 761.116 281.922 761.572 281.394C762.004 280.866 762.22 280.194 762.22 279.378ZM752.032 253.352C752.056 254.744 752.284 256.004 752.716 257.132C753.148 258.26 753.796 259.076 754.66 259.58L766 259.58L766 265.34L747.1 265.34L747.1 260.048L750.916 260.048C749.644 259.4 748.648 258.572 747.928 257.564C747.208 256.532 746.836 255.44 746.812 254.288C746.812 254.024 746.812 253.832 746.812 253.712C746.812 253.592 746.824 253.472 746.848 253.352L752.032 253.352ZM766.36 242.839C766.36 244.423 766.108 245.851 765.604 247.123C765.076 248.371 764.368 249.439 763.48 250.327C762.592 251.191 761.572 251.851 760.42 252.307C759.244 252.763 758.02 252.991 756.748 252.991C755.38 252.991 754.096 252.763 752.896 252.307C751.672 251.851 750.604 251.191 749.692 250.327C748.78 249.463 748.06 248.407 747.532 247.159C747.004 245.887 746.74 244.447 746.74 242.839C746.74 241.231 747.004 239.803 747.532 238.555C748.06 237.307 748.78 236.251 749.692 235.387C750.58 234.523 751.612 233.875 752.788 233.443C753.964 232.987 755.2 232.759 756.496 232.759C756.832 232.759 757.168 232.771 757.504 232.795C757.816 232.819 758.092 232.855 758.332 232.903L758.332 246.871C759.604 246.775 760.576 246.319 761.248 245.503C761.896 244.663 762.22 243.715 762.22 242.659C762.22 241.819 762.016 241.015 761.608 240.247C761.2 239.455 760.648 238.927 759.952 238.663L761.32 233.767C762.808 234.511 764.02 235.663 764.956 237.223C765.892 238.783 766.36 240.655 766.36 242.839ZM754.768 238.843C753.568 238.963 752.62 239.395 751.924 240.139C751.228 240.883 750.88 241.807 750.88 242.911C750.88 244.039 751.24 244.975 751.96 245.719C752.656 246.439 753.592 246.859 754.768 246.979L754.768 238.843Z" fill="white"/>
<path opacity="0.07" d="M21.816 406.588L27 406.588L27 424.552L1.44 424.552L1.44 406.912L6.624 406.912L6.624 418.648L11.592 418.648L11.592 408.568L16.38 408.568L16.38 418.648L21.816 418.648L21.816 406.588ZM27.36 396.5C27.36 397.796 27.12 398.996 26.64 400.1C26.136 401.18 25.44 402.116 24.552 402.908C23.664 403.7 22.632 404.324 21.456 404.78C20.256 405.212 18.948 405.428 17.532 405.428C16.164 405.428 14.88 405.224 13.68 404.816C12.48 404.408 11.448 403.832 10.584 403.088C9.696 402.344 9 401.468 8.496 400.46C7.992 399.428 7.74 398.3 7.74 397.076C7.74 395.756 8.052 394.568 8.676 393.512C9.3 392.432 10.14 391.604 11.196 391.028L0.719998 391.028L0.719997 385.268L20.52 385.268C21.096 385.268 21.504 385.184 21.744 385.016C21.96 384.824 22.092 384.5 22.14 384.044L27 384.044C27.12 384.572 27.192 385.028 27.216 385.412C27.264 385.796 27.288 386.156 27.288 386.492C27.288 387.5 27.084 388.316 26.676 388.94C26.244 389.564 25.632 389.924 24.84 390.02L23.868 390.128C25.044 390.8 25.92 391.712 26.496 392.864C27.072 393.992 27.36 395.204 27.36 396.5ZM22.5 394.952C22.5 394.16 22.272 393.404 21.816 392.684C21.336 391.94 20.688 391.376 19.872 390.992L15.912 390.992C14.952 391.352 14.172 391.94 13.572 392.756C12.948 393.548 12.636 394.376 12.636 395.24C12.636 395.864 12.78 396.44 13.068 396.968C13.332 397.472 13.692 397.916 14.148 398.3C14.604 398.684 15.132 398.984 15.732 399.2C16.332 399.392 16.968 399.488 17.64 399.488C18.336 399.488 18.984 399.38 19.584 399.164C20.184 398.924 20.7 398.612 21.132 398.228C21.564 397.82 21.9 397.34 22.14 396.788C22.38 396.212 22.5 395.6 22.5 394.952ZM27.36 375.069C27.36 377.013 26.76 378.489 25.56 379.497C24.336 380.481 22.548 380.973 20.196 380.973L8.1 380.973L8.1 375.213L18.936 375.213C20.088 375.213 20.976 374.985 21.6 374.529C22.2 374.073 22.5 373.425 22.5 372.585C22.5 371.817 22.296 371.073 21.888 370.353C21.48 369.633 20.772 368.997 19.764 368.445L8.1 368.445L8.1 362.685L20.52 362.685C21.096 362.685 21.504 362.601 21.744 362.433C21.96 362.241 22.092 361.917 22.14 361.461L27 361.461C27.12 362.013 27.192 362.481 27.216 362.865C27.264 363.249 27.288 363.597 27.288 363.909C27.288 365.973 26.484 367.149 24.876 367.437L23.724 367.545C24.972 368.409 25.896 369.489 26.496 370.785C27.072 372.057 27.36 373.485 27.36 375.069ZM17.532 359.339C16.236 359.339 15 359.111 13.824 358.655C12.624 358.199 11.58 357.539 10.692 356.675C9.78 355.811 9.06 354.755 8.532 353.507C8.004 352.235 7.74 350.795 7.74 349.187C7.74 347.003 8.208 345.167 9.144 343.679C10.056 342.191 11.256 341.075 12.744 340.331L14.436 345.947C13.236 346.691 12.636 347.783 12.636 349.223C12.636 350.423 13.08 351.431 13.968 352.247C14.856 353.039 16.044 353.435 17.532 353.435C18.276 353.435 18.96 353.327 19.584 353.111C20.184 352.895 20.7 352.595 21.132 352.211C21.564 351.827 21.9 351.383 22.14 350.879C22.38 350.351 22.5 349.799 22.5 349.223C22.5 348.503 22.332 347.843 21.996 347.243C21.636 346.643 21.18 346.199 20.628 345.911L22.356 340.295C23.82 340.991 25.02 342.107 25.956 343.643C26.892 345.155 27.36 347.003 27.36 349.187C27.36 350.771 27.096 352.199 26.568 353.471C26.016 354.719 25.296 355.787 24.408 356.675C23.496 357.539 22.452 358.199 21.276 358.655C20.076 359.111 18.828 359.339 17.532 359.339ZM27.36 332.328C27.36 333.264 27.216 334.14 26.928 334.956C26.616 335.748 26.196 336.432 25.668 337.008C25.116 337.584 24.48 338.04 23.76 338.376C23.016 338.712 22.212 338.88 21.348 338.88C20.412 338.88 19.56 338.688 18.792 338.304C18.024 337.896 17.364 337.332 16.812 336.612C16.26 335.892 15.828 335.04 15.516 334.056C15.204 333.072 15.048 331.98 15.048 330.78C15.048 329.988 15.12 329.22 15.264 328.476C15.384 327.732 15.576 327.084 15.84 326.532L14.976 326.532C12.792 326.532 11.7 327.792 11.7 330.312C11.7 331.344 11.88 332.328 12.24 333.264C12.576 334.2 13.092 335.184 13.788 336.216L10.188 337.908C9.37199 336.66 8.75999 335.364 8.352 334.02C7.944 332.676 7.73999 331.248 7.73999 329.736C7.73999 326.88 8.41199 324.672 9.75599 323.112C11.1 321.552 13.068 320.772 15.66 320.772L20.52 320.772C21.096 320.772 21.504 320.688 21.744 320.52C21.96 320.328 22.092 320.004 22.14 319.548L27 319.548C27.12 320.052 27.192 320.508 27.216 320.916C27.264 321.324 27.288 321.696 27.288 322.032C27.288 323.112 27.084 323.928 26.676 324.48C26.244 325.032 25.644 325.38 24.876 325.524L24.012 325.632C25.092 326.472 25.92 327.48 26.496 328.656C27.072 329.808 27.36 331.032 27.36 332.328ZM23.22 330.636C23.22 330.012 23.112 329.412 22.896 328.836C22.68 328.236 22.392 327.744 22.032 327.36C21.6 326.808 21.144 326.532 20.664 326.532L18.864 326.532C18.672 327.036 18.528 327.588 18.432 328.188C18.312 328.764 18.252 329.304 18.252 329.808C18.252 330.864 18.492 331.74 18.972 332.436C19.452 333.108 20.076 333.444 20.844 333.444C21.54 333.444 22.116 333.18 22.572 332.652C23.004 332.124 23.22 331.452 23.22 330.636ZM25.992 304.499C26.328 305.291 26.64 306.203 26.928 307.235C27.216 308.243 27.36 309.263 27.36 310.295C27.36 311.015 27.264 311.699 27.072 312.347C26.904 312.971 26.628 313.523 26.244 314.003C25.836 314.483 25.308 314.867 24.66 315.155C24.012 315.419 23.232 315.551 22.32 315.551L12.456 315.551L12.456 317.963L8.09999 317.963L8.09999 315.551L2.08799 315.551L2.08799 309.791L8.09999 309.791L8.09999 305.939L12.456 305.939L12.456 309.791L20.34 309.791C20.964 309.791 21.42 309.635 21.708 309.323C21.972 309.011 22.104 308.615 22.104 308.135C22.104 307.703 22.032 307.259 21.888 306.803C21.744 306.347 21.588 305.951 21.42 305.615L25.992 304.499ZM27 302.254L8.09999 302.254L8.09999 296.494L27 296.494L27 302.254ZM5.93999 302.254L0.719994 302.254L0.719994 296.494L5.93999 296.494L5.93999 302.254ZM27.36 283.551C27.36 285.159 27.096 286.599 26.568 287.871C26.04 289.119 25.332 290.175 24.444 291.039C23.532 291.903 22.488 292.563 21.312 293.019C20.112 293.451 18.864 293.667 17.568 293.667C16.272 293.667 15.036 293.451 13.86 293.019C12.66 292.563 11.616 291.903 10.728 291.039C9.81599 290.175 9.09599 289.119 8.56799 287.871C8.01599 286.599 7.73999 285.159 7.73999 283.551C7.73999 281.943 8.01599 280.515 8.56799 279.267C9.09599 278.019 9.81599 276.963 10.728 276.099C11.616 275.235 12.66 274.575 13.86 274.119C15.036 273.663 16.272 273.435 17.568 273.435C18.864 273.435 20.112 273.663 21.312 274.119C22.488 274.551 23.532 275.199 24.444 276.063C25.332 276.927 26.04 277.995 26.568 279.267C27.096 280.515 27.36 281.943 27.36 283.551ZM17.568 287.763C19.056 287.763 20.256 287.367 21.168 286.575C22.056 285.783 22.5 284.775 22.5 283.551C22.5 282.951 22.38 282.399 22.14 281.895C21.9 281.391 21.564 280.959 21.132 280.599C20.7 280.215 20.184 279.915 19.584 279.699C18.96 279.483 18.288 279.375 17.568 279.375C16.08 279.375 14.892 279.771 14.004 280.563C13.092 281.355 12.636 282.351 12.636 283.551C12.636 284.151 12.756 284.715 12.996 285.243C13.236 285.747 13.572 286.191 14.004 286.575C14.436 286.935 14.964 287.223 15.588 287.439C16.188 287.655 16.848 287.763 17.568 287.763ZM27 252.363L27 258.123L16.38 258.123C15.132 258.123 14.232 258.363 13.68 258.843C13.104 259.299 12.816 259.911 12.816 260.679C12.816 261.087 12.9 261.495 13.068 261.903C13.236 262.311 13.476 262.707 13.788 263.091C14.076 263.475 14.424 263.823 14.832 264.135C15.24 264.423 15.684 264.651 16.164 264.819L27 264.819L27 270.579L8.09999 270.579L8.09999 265.395L11.268 265.395C10.14 264.699 9.27599 263.715 8.67599 262.443C8.05199 261.171 7.73999 259.707 7.73999 258.051C7.73999 256.827 7.96799 255.843 8.42399 255.099C8.85599 254.355 9.43199 253.779 10.152 253.371C10.848 252.963 11.616 252.699 12.456 252.579C13.296 252.435 14.112 252.363 14.904 252.363L27 252.363Z" fill="white"/>
<line opacity="0.2" x1="27.5" y1="-2.18557e-08" x2="27.5" y2="424.645" stroke="#B6B5B5"/>
<line opacity="0.2" x1="386.5" y1="1.35503" x2="386.5" y2="426" stroke="#B6B5B5"/>
<line opacity="0.2" x1="766.5" y1="-2.18557e-08" x2="766.5" y2="424.645" stroke="#B6B5B5"/>
</svg>
