<svg width="33" height="28" viewBox="0 0 33 28" fill="none" xmlns="http://www.w3.org/2000/svg">
<path d="M31.9142 6.28497L17.1452 0.132726C16.715 -0.044242 16.2541 -0.044242 15.8239 0.132726L1.05493 6.28497C0.419923 6.56604 0 7.18022 0 7.90891C0 8.13793 0.0102419 8.36695 0.112662 8.57515V18.1106H1.54655V9.77228L4.31189 10.9902V24.1379C4.31189 24.3982 4.46552 24.648 4.69085 24.7729L4.95714 24.9291C8.47016 26.9278 12.4645 28 16.4999 28C20.5353 28 24.5297 26.9278 28.0427 24.9291L28.309 24.7729C28.5343 24.648 28.6777 24.3982 28.6777 24.1275V10.9902L31.9551 9.55368C32.6106 9.2622 33.0101 8.63761 32.9998 7.90891C32.9896 7.18022 32.5799 6.56604 31.9142 6.28497ZM27.254 23.7111C23.9766 25.5537 20.2485 26.5322 16.4999 26.5322C12.7513 26.5322 9.02322 25.5537 5.74578 23.7111V11.6252L15.8034 16.039C16.0185 16.1327 16.2643 16.1848 16.4999 16.1848C16.7355 16.1848 16.9813 16.1327 17.1964 16.039L27.254 11.6252V23.7111ZM31.3918 8.2108L16.6228 14.6962C16.5409 14.7274 16.4589 14.7274 16.377 14.6962L1.608 8.2108C1.44413 8.13793 1.42364 8.0026 1.42364 7.91932C1.43388 7.84645 1.45437 7.70072 1.61824 7.63826L16.3872 1.48601C16.4282 1.46519 16.4692 1.46519 16.4999 1.46519C16.5409 1.46519 16.5818 1.4756 16.6126 1.48601L31.3816 7.63826C31.5454 7.71112 31.5762 7.84645 31.5762 7.91932C31.5762 7.99219 31.5557 8.13793 31.3918 8.2108Z" fill="white"/>
</svg>
