<?xml version="1.0" encoding="UTF-8"?>
<svg width="160px" height="160px" viewBox="0 0 160 160" version="1.1" xmlns="http://www.w3.org/2000/svg" xmlns:xlink="http://www.w3.org/1999/xlink">
    <!-- Generator: Sketch 52.3 (67297) - http://www.bohemiancoding.com/sketch -->
    <title>Android</title>
    <desc>Created with Sketch.</desc>
    <defs>
        <linearGradient x1="0.000362504997%" y1="49.9992035%" x2="100%" y2="49.9992035%" id="linearGradient-1">
            <stop stop-color="#68E1FD" offset="0%"></stop>
            <stop stop-color="#69B9EB" offset="100%"></stop>
        </linearGradient>
        <linearGradient x1="50.7834101%" y1="36.3640356%" x2="63.9938556%" y2="135.69356%" id="linearGradient-2">
            <stop stop-color="#3C3A52" stop-opacity="0" offset="1%"></stop>
            <stop stop-color="#000000" offset="86%"></stop>
        </linearGradient>
        <linearGradient x1="48.5934653%" y1="-0.631760945%" x2="53.4804035%" y2="97.4524851%" id="linearGradient-3">
            <stop stop-color="#FFFFFF" stop-opacity="0" offset="1%"></stop>
            <stop stop-color="#FFFFFF" offset="99%"></stop>
        </linearGradient>
        <linearGradient x1="1%" y1="50.0027046%" x2="83.6968931%" y2="50.0027046%" id="linearGradient-4">
            <stop stop-color="#3C3A52" stop-opacity="0" offset="0%"></stop>
            <stop stop-color="#FFFFFF" offset="100%"></stop>
        </linearGradient>
    </defs>
    <g id="Android" stroke="none" stroke-width="1" fill="none" fill-rule="evenodd">
        <g id="android" transform="translate(4.000000, 16.000000)">
            <g id="mobile_testing" transform="translate(0.000000, 7.000000)">
                <path d="M4.90584922,53.0197171 C9.51946026,48.0651736 16.3862882,45.7522107 20.9625117,40.7622776 C27.1713206,33.9927534 27.9639345,23.7525208 32.8990775,15.9895601 C36.3885727,10.5142839 41.7997826,6.5127317 47.6795819,3.88884591 C57.9675866,-0.652020966 69.5342062,-1.23702229 80.2166313,2.24322967 C85.1467894,3.87367894 89.8601003,6.36611766 95.0046131,7.00818605 C103.935228,8.12043052 113.897737,3.68914747 121.532254,8.52488305 C126.766496,11.8363381 128.735568,18.4137474 130.724581,24.338977 C133.384074,32.2586631 137.414441,36.2526319 141.330153,47.8477804 C143.147183,53.2320547 149.206442,56.9302676 148.99458,62.6153534 C148.937253,64.182607 148.453708,65.8054728 147.314637,66.862105 C146.399891,67.7114553 145.173583,68.1057966 143.989647,68.4723317 C103.023184,81.0994045 60.3232098,86.9730108 17.5203741,85.8688462 C9.07081089,85.6489251 3.991103,84.2383969 1.58833636,75.9976766 C-0.739655383,68.0173226 -1.16836478,59.5389864 4.90584922,53.0197171 Z" id="Path" fill="#D62C2C" opacity="0.18"></path>
                <path d="M145,82.8881365 L60.2648253,114.000799 C56.680925,115.317195 52.7693855,115.333327 49.1754093,114.046533 L6.88720355,98.8932354 C6.56931449,98.7799955 6.27268564,98.6111068 6.01031449,98.3939693 C5.45961065,97.9340192 5.10512067,97.2698952 5.02266049,96.5436358 C5.00781481,96.4203665 5.00041617,96.2962628 5.00050751,96.1720447 C4.97506935,94.7966053 5.90851842,93.6002081 7.21580619,93.3327069 L11.1904212,92.4694721 L54.0306056,83.1530143 L100.706949,73 L120.201577,76.3443206 L134.431179,78.7911056 L145,82.8881365 Z" id="Path" fill="url(#linearGradient-1)"></path>
                <path d="M149,77.0212522 C148.9999,79.7691732 147.302301,82.2197726 144.760625,83.1410779 L59.5647721,114.008669 C55.9613873,115.314697 52.028582,115.330701 48.4150666,114.054043 L5.89324117,99.0144348 C5.57362384,98.9020868 5.27538232,98.7345284 5.01158474,98.5191013 L4.02227343,96.6833427 L4,96.6417498 L4,88.3950153 L53.3040835,83.3963069 L119.827381,76.6431351 L145.749936,74.0152211 C146.930512,73.8939989 148.067561,74.5047345 148.636201,75.5655013" id="Path" fill="#D62C2C"></path>
                <path d="M149,77.0212522 C148.9999,79.7691732 147.302301,82.2197726 144.760625,83.1410779 L59.5647721,114.008669 C55.9613873,115.314697 52.028582,115.330701 48.4150666,114.054043 L5.89324117,99.0144348 C5.57362384,98.9020868 5.27538232,98.7345284 5.01158474,98.5191013 L4.02227343,96.6833427 L4,96.6417498 L4,88.3950153 L53.3040835,83.3963069 L119.827381,76.6431351 L145.749936,74.0152211 C146.930512,73.8939989 148.067561,74.5047345 148.636201,75.5655013" id="Path" fill="url(#linearGradient-2)"></path>
                <path d="M148.996278,75.5547097 C148.35676,77.3842693 146.928542,78.8249299 145.110854,79.473984 L59.698519,110.020004 C56.0857662,111.31174 52.142968,111.326917 48.520482,110.063032 L5.8980519,95.1866262 C5.57772035,95.0760946 5.2787177,94.9109229 5.01415518,94.6983538 L4.02233002,92.8799602 L4,92.8388032 L4,88.2441789 L53.4293653,83.2978489 L120.117977,76.6154393 L146.106401,74.0150616 C147.289977,73.8951096 148.429915,74.4994457 149,75.5490974" id="Path" fill="url(#linearGradient-3)"></path>
                <path d="M146.966227,73.1163896 L58.874172,105.007854 C55.2508548,106.315614 51.296051,106.33097 47.6629649,105.051386 L4.90285726,90.0008856 C2.19290674,89.0545513 2.43926588,85.0799474 5.24813332,84.4780788 L95.6003472,64.2075987 C96.7318495,63.9529486 97.9023759,63.9323495 99.0419097,64.1470334 L144.653811,72.3252541 C145.004686,72.3877122 147.304038,72.9933661 146.966227,73.1163896" id="Path" fill="#D62C2C"></path>
                <polygon id="Path" fill="url(#linearGradient-4)" points="10 84.9329799 91.2457664 68 137 76.9057175 64.1872077 103"></polygon>
            </g>
            <text id="Android" font-family="Raleway-Bold, Raleway" font-size="21" font-weight="bold" fill="#D62C2C">
                <tspan x="64.933" y="136"> Android </tspan>
            </text>
            <g transform="translate(40.000000, 0.000000)" stroke="#D62C2C" stroke-width="1.764">
                <path d="M55.1116393,27.3723404 L13.888164,27.3723404 C12.9711645,27.3723404 12.2278481,28.1319538 12.2278481,29.0690582 L12.2278481,64.396206 C12.2278481,65.3333104 12.9711645,66.0929238 13.888164,66.0929238 L21.2373388,66.0929238 L21.2373388,77.9982906 C21.2373388,80.7605576 23.4285389,83 26.1317402,83 C28.8347447,83 31.0261415,80.7607587 31.0261415,77.9982906 L31.0261415,66.0929238 L37.871773,66.0929238 L37.871773,77.9982906 C37.871773,80.7605576 40.062973,83 42.7661743,83 C45.4691789,83 47.6605756,80.7607587 47.6605756,77.9982906 L47.6605756,66.0929238 L55.111836,66.0929238 C56.0288355,66.0929238 56.7721519,65.3333104 56.7721519,64.396206 L56.7721519,29.0690582 C56.7719552,28.1319538 56.0286388,27.3723404 55.1116393,27.3723404 Z" id="Path"></path>
                <path d="M5.24050633,27.3723404 C2.34636021,27.3723404 0,29.5896367 0,32.325032 L0,52.4409254 C0,55.1761217 2.3461496,57.393617 5.24050633,57.393617 C8.13465245,57.393617 10.4810127,55.1763207 10.4810127,52.4409254 L10.4810127,32.325032 C10.4808021,29.5898358 8.13465245,27.3723404 5.24050633,27.3723404 Z" id="Path"></path>
                <path d="M63.7594937,27.3723404 C60.8653475,27.3723404 58.5189873,29.5896367 58.5189873,32.325032 L58.5189873,52.4409254 C58.5189873,55.1761217 60.8651369,57.393617 63.7594937,57.393617 C66.6536398,57.393617 69,55.1763207 69,52.4409254 L69,32.325032 C69,29.5898358 66.6538504,27.3723404 63.7594937,27.3723404 Z" id="Path"></path>
                <path d="M14.7590509,24.7234043 L55.1144256,24.7234043 C56.1671984,24.7234043 56.9523637,23.7384078 56.7361587,22.6918366 C55.4012601,16.2298771 51.350655,10.7841996 45.8543021,7.63830859 L49.3041636,1.31603806 C49.5376335,0.888003988 49.3853876,0.348577433 48.9639645,0.111444962 C48.5415605,-0.126285323 48.0112503,0.0289467741 47.7777804,0.456980849 L44.3018252,6.82687714 C41.4548654,5.48498633 38.2820288,4.73552816 34.9367383,4.73552816 C31.5912516,4.73552816 28.4184149,5.48498633 25.5714552,6.82687714 L22.0955,0.456781578 C21.8618339,0.0285482321 21.3307388,-0.125886781 20.909512,0.111245691 C20.488089,0.348378162 20.3358431,0.887804717 20.569313,1.31583879 L24.0191745,7.63810932 C18.5228216,10.7841996 14.4722165,16.2296778 13.1373178,22.6918366 C12.9209167,23.7384078 13.7060819,24.7234043 14.7590509,24.7234043 Z M46.978293,15.3012743 C46.978293,16.3538236 46.1381937,17.2073013 45.1017049,17.2073013 C44.0654124,17.2073013 43.2251168,16.3540229 43.2251168,15.3012743 C43.2251168,14.248725 44.0652162,13.3952473 45.1017049,13.3952473 C46.1381937,13.3952473 46.978293,14.248725 46.978293,15.3012743 Z M24.7713793,13.3952473 C25.8076718,13.3952473 26.6479673,14.2485257 26.6479673,15.3012743 C26.6479673,16.3538236 25.807868,17.2073013 24.7713793,17.2073013 C23.7350867,17.2073013 22.8947912,16.3540229 22.8947912,15.3012743 C22.8947912,14.248725 23.7348905,13.3952473 24.7713793,13.3952473 Z" id="Shape" fill-rule="nonzero"></path>
            </g>
            <g opacity="0.740745908" transform="translate(39.000000, 1.000000)" fill="#D62C2C">
                <path d="M53.5142004,26.3829787 L13.4856086,26.3829787 C12.5951887,26.3829787 11.8734177,27.1151362 11.8734177,28.0183694 L11.8734177,62.0686323 C11.8734177,62.9718655 12.5951887,63.704023 13.4856086,63.704023 L20.6217638,63.704023 L20.6217638,75.1790753 C20.6217638,77.8415013 22.7494508,80 25.3742984,80 C27.998955,80 30.126833,77.8416951 30.126833,75.1790753 L30.126833,63.704023 L36.7740404,63.704023 L36.7740404,75.1790753 C36.7740404,77.8415013 38.9017274,80 41.5265751,80 C44.1512317,80 46.2791097,77.8416951 46.2791097,75.1790753 L46.2791097,63.704023 L53.5143914,63.704023 C54.4048113,63.704023 55.1265823,62.9718655 55.1265823,62.0686323 L55.1265823,28.0183694 C55.1263913,27.1151362 54.4046203,26.3829787 53.5142004,26.3829787 Z" id="Path"></path>
                <path d="M4.18320219,26.3829787 C1.87296771,26.3829787 1.77635684e-14,28.5201318 1.77635684e-14,31.1566574 L1.77635684e-14,50.5454703 C1.77635684e-14,53.181804 1.8727996,55.3191489 4.18320219,55.3191489 C6.49343667,55.3191489 8.36640438,53.1819959 8.36640438,50.5454703 L8.36640438,31.1566574 C8.36623626,28.5203236 6.49343667,26.3829787 4.18320219,26.3829787 Z" id="Path"></path>
                <path d="M61.9113924,26.3829787 C59.1011346,26.3829787 56.8227848,28.5201318 56.8227848,31.1566574 L56.8227848,50.5454703 C56.8227848,53.181804 59.1009301,55.3191489 61.9113924,55.3191489 C64.7216502,55.3191489 67,53.1819959 67,50.5454703 L67,31.1566574 C67,28.5203236 64.7218547,26.3829787 61.9113924,26.3829787 Z" id="Path"></path>
                <path d="M14.3312524,23.8297872 L53.516906,23.8297872 C54.5391637,23.8297872 55.3015705,22.880393 55.0916324,21.8716497 C53.7954265,15.643255 49.8622302,10.3944093 44.5251919,7.36222514 L47.8750574,1.26847042 C48.1017601,0.855907459 47.9539271,0.335978249 47.5447192,0.107416831 C47.1345588,-0.121720793 46.6196198,0.0279005052 46.3929172,0.440463469 L43.0177143,6.58012254 C40.2532751,5.28673381 37.1724048,4.56436449 33.9240792,4.56436449 C30.6755631,4.56436449 27.5946927,5.28673381 24.8302536,6.58012254 L21.4550507,0.4402714 C21.2281575,0.0275163683 20.7124566,-0.121336656 20.3034392,0.107224762 C19.8942313,0.33578618 19.7463983,0.85571539 19.973101,1.26827835 L23.3229665,7.36203308 C17.9859282,10.3944093 14.0527319,15.643063 12.756526,21.8716497 C12.5463974,22.880393 13.3088042,23.8297872 14.3312524,23.8297872 Z M48.2613402,13.8690953 C48.2613402,14.8836007 47.4455916,15.7062297 46.439146,15.7062297 C45.4328909,15.7062297 44.6169517,14.8837928 44.6169517,13.8690953 C44.6169517,12.8545899 45.4327004,12.0319609 46.439146,12.0319609 C47.4455916,12.0319609 48.2613402,12.8545899 48.2613402,13.8690953 Z M26.6981051,12.0319609 C27.7043602,12.0319609 28.5202993,12.8543979 28.5202993,13.8690953 C28.5202993,14.8836007 27.7045507,15.7062297 26.6981051,15.7062297 C25.69185,15.7062297 24.8759109,14.8837928 24.8759109,13.8690953 C24.8759109,12.8545899 25.6916595,12.0319609 26.6981051,12.0319609 Z" id="Shape" fill-rule="nonzero"></path>
            </g>
        </g>
    </g>
</svg>