<?xml version="1.0" encoding="UTF-8"?>
<svg width="160px" height="160px" viewBox="0 0 160 160" version="1.1" xmlns="http://www.w3.org/2000/svg" xmlns:xlink="http://www.w3.org/1999/xlink">
    <!-- Generator: Sketch 52.3 (67297) - http://www.bohemiancoding.com/sketch -->
    <title>Cross-platform</title>
    <desc>Created with Sketch.</desc>
    <defs>
        <linearGradient x1="128.818722%" y1="46.7031557%" x2="-137.816664%" y2="60.3004066%" id="linearGradient-1">
            <stop stop-color="#000000" stop-opacity="0" offset="0%"></stop>
            <stop stop-color="#000000" offset="99%"></stop>
        </linearGradient>
        <linearGradient x1="0%" y1="50.0028767%" x2="99.9885439%" y2="50.0028767%" id="linearGradient-2">
            <stop stop-color="#000000" stop-opacity="0" offset="0%"></stop>
            <stop stop-color="#000000" offset="99%"></stop>
        </linearGradient>
        <linearGradient x1="49.9618612%" y1="-298.681319%" x2="49.9618612%" y2="768.351648%" id="linearGradient-3">
            <stop stop-color="#000000" stop-opacity="0" offset="0%"></stop>
            <stop stop-color="#000000" offset="99%"></stop>
        </linearGradient>
    </defs>
    <g id="Cross-platform" stroke="none" stroke-width="1" fill="none" fill-rule="evenodd">
        <g id="Group-5" transform="translate(6.000000, 13.000000)">
            <text id="Cross-platform" font-family="Raleway-Bold, Raleway" font-size="19" font-weight="bold" letter-spacing="-0.300000012" fill="#D62C2C">
                <tspan x="10.1890001" y="137">Cross-platfor</tspan>
                <tspan x="126.122" y="137">m</tspan>
            </text>
            <g id="authentication" transform="translate(6.000000, 0.000000)">
                <path d="M122.043413,104.014735 C118.827768,113.55568 112.208328,122.553525 102.373243,127.801045 C96.4337069,130.971574 89.5790801,132.681605 82.677416,133.672395 C81.9675794,133.775144 81.2620189,133.859545 80.539354,133.936606 C72.919989,134.824243 65.1852811,134.676878 57.6193293,133.499924 C46.4714741,131.73485 35.8538582,127.595547 27.9815139,120.582953 C16.8635915,110.642022 15.7689038,94.7636878 21.1097826,81.7806635 C23.2478446,76.5881877 26.2411314,71.6635922 27.951581,66.3683678 C31.9241002,53.8110164 28.0841409,40.2371873 31.4580027,27.5477305 C32.364541,24.1019816 33.848356,20.6929285 36.3584408,17.885689 C38.5606447,15.3610081 41.5154464,13.4308016 44.5685989,11.6914139 C53.6938475,6.55398201 64.4739561,3.009154 75.3823484,3.68435933 C86.2907407,4.35956467 97.1478196,9.85661681 101.21869,18.5572247 C104.015275,24.5349937 103.472207,31.3310822 106.016501,37.3785734 C108.971302,44.4131856 115.761787,49.7487756 119.610299,56.4604634 C122.783183,62.0052202 123.835109,68.2582088 124.433767,74.441475 C125.395895,84.3493794 125.271887,94.4664507 122.043413,104.014735 Z" id="Path" fill="#D62C2C" opacity="0.250069754" transform="translate(71.482330, 69.054955) rotate(97.000000) translate(-71.482330, -69.054955) "></path>
                <g id="Group-3" transform="translate(70.000000, 41.000000)" fill="#D62C2C">
                    <polygon id="Path" points="42.643744 2.01520668 2.06519039 27.6967353 0.963943508 25.9231048 41.5424971 0.245588846"></polygon>
                </g>
                <g id="Group-2" transform="translate(44.000000, 0.000000)">
                    <path d="M95.9015385,7.17226891 L95.9015385,61.6120448 C95.9015385,65.1682481 93.0062476,68.0511204 89.4347253,68.0511204 L6.69538462,68.0511204 C4.98027912,68.0511204 3.33541988,67.3727198 2.12265716,66.1651589 C0.909894433,64.9575979 0.228571429,63.3197939 0.228571429,61.6120448 L0.228571429,7.17226891 C0.229566471,6.92417057 0.244829552,6.67633255 0.274285714,6.42997199 C0.649625112,3.18215621 3.41205445,0.731337608 6.69538462,0.733193277 L89.4347253,0.733193277 C92.7180554,0.731337608 95.4804848,3.18215621 95.8558242,6.42997199 C95.8852803,6.67633255 95.9005434,6.92417057 95.9015385,7.17226891 Z" id="Path" stroke="#D62C2C" stroke-width="0.5" fill="#FFFFFF"></path>
                    <rect id="Rectangle" fill="#D62C2C" opacity="0.18" x="5.52087912" y="18.9194678" width="51.4742857" height="4.84593838" rx="2.422"></rect>
                    <rect id="Rectangle" fill="#D62C2C" opacity="0.18" x="5.52087912" y="25.7191877" width="51.4742857" height="33.2352941" rx="2.422"></rect>
                    <ellipse id="Oval" fill="#D62C2C" opacity="0.18" cx="73.9832967" cy="35.4740896" rx="10.0043956" ry="9.96148459"></ellipse>
                    <path d="M95.8558242,6.42997199 L0.274285714,6.42997199 C0.649625112,3.18215621 3.41205445,0.731337608 6.69538462,0.733193277 L89.4347253,0.733193277 C92.7180554,0.731337608 95.4804848,3.18215621 95.8558242,6.42997199 Z" id="Path" fill="#D62C2C"></path>
                    <rect id="Rectangle" fill="#D62C2C" opacity="0.18" x="5.52087912" y="10.7612045" width="51.4742857" height="4.84593838" rx="2.422"></rect>
                </g>
                <path d="M84.824508,40.3020283 C85.9322003,41.5738781 85.4085058,58.1569727 85.4504421,60.2755139 C85.6332992,69.5131025 85.6332992,69.1368131 85.4504421,71.7250522 C81.9656069,71.8141312 83.4319805,70.9699397 79.9893432,70.591354 C79.3563761,70.5220704 78.6847278,70.430517 78.2311014,70.1187406 C77.8453495,69.8089184 77.5811202,69.4336506 77.464508,69.0299976 L73.3185739,59.0086129 C71.6447278,54.9629428 69.9743981,50.6228172 71.7818706,46.6043657 C72.6926399,44.5778191 74.4332992,42.7937652 76.1493432,41.0443531 C77.1093432,40.0545867 75.5550575,38.2334165 77.3414311,38.0230912 C79.2122003,37.8003937 83.8926399,39.235555 84.824508,40.3020283 Z" id="Path" fill="url(#linearGradient-1)"></path>
                <g id="Group" transform="translate(44.000000, 25.000000)">
                    <rect id="Rectangle" fill="#D62C2C" x="0" y="0" width="48" height="94" rx="7.10094"></rect>
                    <rect id="Rectangle" fill="url(#linearGradient-2)" x="0" y="0" width="48" height="94" rx="7.10094"></rect>
                    <rect id="Rectangle" fill="#D62C2C" x="0" y="0" width="48" height="91.3521127" rx="7.02702"></rect>
                    <rect id="Rectangle" fill="#FFFFFF" x="2.59459459" y="1.32394366" width="42.8108108" height="83.4084507" rx="6.31554"></rect>
                    <rect id="Rectangle" fill="url(#linearGradient-3)" x="15.5675676" y="87.3802817" width="14.2702703" height="2.64788732" rx="1.05336"></rect>
                    <g id="Group-4" transform="translate(10.378378, 27.802817)" fill="#D62C2C">
                        <path d="M5.2856673,13.2389557 C4.91490788,13.2425847 4.55856682,13.0846447 4.29780391,12.801108 C3.75658789,12.2142071 3.75658789,11.2676453 4.29780391,10.6807444 C4.38012586,10.5971106 12.4431034,2.05662086 22.7607877,9.99691491 C23.3922482,10.4791896 23.5406992,11.4207996 23.0923622,12.1000597 C22.6440252,12.7793198 21.7686764,12.9390081 21.1372159,12.4567334 C12.7861115,6.03660716 6.54336374,12.5354476 6.28267757,12.8158669 C6.01741137,13.0964698 5.65758446,13.249165 5.2856673,13.2389557 Z" id="Path"></path>
                        <path d="M27.114665,7.94366197 C26.8128519,7.94274798 26.5187827,7.83973037 26.2732564,7.64890176 C13.577336,-2.42884829 2.77458478,7.16610486 2.32115905,7.58283481 C1.7150458,8.10728677 0.835068023,8.0118692 0.336169663,7.36759885 C-0.162728696,6.72332849 -0.0992283156,5.7643586 0.479409169,5.20442482 C0.605620455,5.08753715 13.4137287,-6.4030291 27.9607481,5.13835787 C28.4564227,5.53702024 28.6613507,6.23613352 28.4692432,6.87309233 C28.2771356,7.51005115 27.7312287,7.94150015 27.114665,7.94366197 Z" id="Path"></path>
                    </g>
                    <ellipse id="Oval" fill="#D62C2C" fill-rule="nonzero" cx="24" cy="44.3521127" rx="3.24324324" ry="3.30985915"></ellipse>
                </g>
            </g>
            <path d="M40.4690694,20.8412092 C41.9573972,21.8730764 43.4717707,22.8712958 44.6735954,24.2059935 C46.7128239,26.5875337 47.7024679,29.69887 47.4158393,32.8273186 C47.1065583,35.9392022 45.839805,38.8768892 43.7917612,41.231802 C42.5899365,42.6562274 41.1611418,43.886243 40.0709418,45.38918 C39.3267779,46.4060926 38.727726,47.5351646 37.9723996,48.5520772 C35.861154,51.3010079 32.7325816,53.0744043 29.2991696,53.4684009 C25.8746505,53.8376432 22.4310668,52.9709655 19.5841101,51.0233243 C15.3535385,48.159519 12.8271021,43.4413437 9.63091824,39.4335118 C8.55188061,38.0838594 7.36493922,36.7790708 6.69519173,35.1864063 C5.7128954,32.8460119 5.95102785,30.1878323 6.32310979,27.6791986 C6.62077534,25.8023967 7.02262383,23.8096967 8.28770243,22.3740554 C9.84300494,20.6168903 12.3322331,20.097218 14.3228715,18.8597251 C18.3339148,16.3810007 21.3105703,10.3505595 26.7652916,11.0571642 C29.1912658,11.3712108 31.1707418,13.2218421 32.9344102,14.7659043 C35.3372706,16.9234649 37.8523582,18.9514165 40.4690694,20.8412092 Z" id="Path" fill="#D62C2C" opacity="0.3"></path>
            <path d="M108.695805,66.733582 C105.888433,69.1203458 103.148239,71.8737913 102.289056,75.3439327 C101.295515,79.3440956 102.996203,83.5042651 105.361608,86.9377383 C107.727014,90.3712115 110.781887,93.3646668 112.977578,96.9014775 C113.667045,98.0048558 114.303477,99.1982377 115.399555,99.9549352 C116.65474,100.821637 118.29532,100.954976 119.847507,101.081648 C126.05979,101.541667 133.018113,101.781676 137.706495,97.9115187 C141.595802,94.6980544 142.805023,89.5111765 145.725538,85.4876792 C146.768579,84.0542875 148.062658,82.707566 148.518767,81.0208306 C149.261271,78.2707186 147.567655,75.4872719 145.753824,73.2205129 C141.800874,68.2636443 135.280982,61.113353 128.718662,59.4099503 C121.495159,57.5365406 113.730689,62.4500741 108.695805,66.733582 Z" id="Path" fill="#D62C2C" opacity="0.3"></path>
            <g id="windows" transform="translate(114.000000, 69.000000)" fill="#D62C2C">
                <polygon id="Path" points="11.0769231 1.86689144 24 0 24 11.0769231 11.0769231 11.0769231"></polygon>
                <polygon id="Path" points="0 3.27275785 9.23076923 1.84615385 9.23076923 11.0769231 0 11.0769231"></polygon>
                <polygon id="Path" points="11.0769231 22.0828439 24 24 24 12.9230769 11.0769231 12.9230769"></polygon>
                <polygon id="Path" points="0 20.6593122 9.23076923 22.1538462 9.23076923 12.9230769 0 12.9230769"></polygon>
            </g>
            <g id="apple" transform="translate(16.000000, 19.000000)" fill="#D62C2C" fill-rule="nonzero">
                <path d="M18.3744522,14.5365266 C18.340363,11.1478347 21.1649182,9.52265697 21.2910908,9.44191286 C19.7040396,7.14188155 17.2317754,6.8267966 16.3507839,6.79037029 C14.2468,6.57939037 12.2454005,8.01715818 11.177604,8.01715818 C10.1124988,8.01715818 8.4647624,6.82157044 6.71982407,6.85297964 C4.42655495,6.88674061 2.31201708,8.17357703 1.1311877,10.2076493 C-1.25147343,14.3023426 0.521010727,20.368342 2.84330323,23.6891984 C3.97806458,25.314742 5.33118729,27.1404474 7.10778749,27.0752249 C8.81863654,27.0075985 9.46559405,25.9788296 11.5340111,25.9788296 C13.6023754,25.9788296 14.1838457,27.0752249 15.9943241,27.0415685 C17.8353562,27.007703 19.0017266,25.3849293 20.128678,23.7544208 C21.431775,21.8686146 21.9683381,20.042857 22,19.949152 C21.9591034,19.9306514 18.4100191,18.5841323 18.3744522,14.5365266 Z M14.7471029,4.09732015 C15.6213305,3.01091216 16.211406,1.503652 16.0504452,0 C14.7911837,0.0525188233 13.2647958,0.859193918 12.3613115,1.94314635 C11.5506366,2.9047219 10.8409902,4.4394442 11.0311588,5.91302817 C12.4369484,6.02538237 13.8719458,5.18127258 14.7471029,4.09732015 Z" id="Shape"></path>
            </g>
            <path d="M18.3910715,74.2659621 C14.1656351,75.1728411 10.9815952,78.5716309 8.08483712,81.7938602 L3.62797927,86.7696564 C2.43097178,88.0858347 1.2339643,89.4862806 0.83496181,91.2197838 C0.104787246,94.6466628 2.90578475,97.716408 5.46738076,100.091949 L15.5980541,109.461695 C16.7950616,110.573223 18.0279793,111.704816 19.5441887,112.306726 C21.1401987,112.936726 22.9077798,112.920675 24.6234905,112.892586 C28.3142636,112.828382 32.2883284,112.66386 35.2170067,110.408701 C37.4514207,108.687236 38.7401987,105.994688 40.8349618,104.096663 C47.0873309,98.4467264 50.2554107,93.4348156 42.1277299,87.8571086 C35.0813458,83.0297838 28.1347124,72.1672997 18.3910715,74.2659621 Z" id="Path" fill="#D62C2C" opacity="0.24"></path>
            <g id="android" transform="translate(13.717167, 81.000000)" fill="#D62C2C">
                <path d="M15.9743882,7.91489362 L4.02555479,7.91489362 C3.75975783,7.91489362 3.5443038,8.13454086 3.5443038,8.40551081 L3.5443038,18.6205897 C3.5443038,18.8915596 3.75975783,19.1112069 4.02555479,19.1112069 L6.15575039,19.1112069 L6.15575039,22.5537226 C6.15575039,23.3524504 6.79088084,24 7.57441744,24 C8.35789702,24 8.99308449,23.3525085 8.99308449,22.5537226 L8.99308449,19.1112069 L10.9773255,19.1112069 L10.9773255,22.5537226 C10.9773255,23.3524504 11.612456,24 12.3959926,24 C13.1794721,24 13.8146596,23.3525085 13.8146596,22.5537226 L13.8146596,19.1112069 L15.9744452,19.1112069 C16.2402422,19.1112069 16.4556962,18.8915596 16.4556962,18.6205897 L16.4556962,8.40551081 C16.4556392,8.13454086 16.2401852,7.91489362 15.9743882,7.91489362 Z" id="Path"></path>
                <path d="M1.24871707,7.91489362 C0.55909484,7.91489362 1.77635684e-14,8.55603954 1.77635684e-14,9.34699721 L1.77635684e-14,15.1636411 C1.77635684e-14,15.9545412 0.559044656,16.5957447 1.24871707,16.5957447 C1.9383393,16.5957447 2.49743414,15.9545988 2.49743414,15.1636411 L2.49743414,9.34699721 C2.49738396,8.55609709 1.9383393,7.91489362 1.24871707,7.91489362 Z" id="Path"></path>
                <path d="M18.4810127,7.91489362 C17.6421297,7.91489362 16.9620253,8.55603954 16.9620253,9.34699721 L16.9620253,15.1636411 C16.9620253,15.9545412 17.6420687,16.5957447 18.4810127,16.5957447 C19.3198956,16.5957447 20,15.9545988 20,15.1636411 L20,9.34699721 C20,8.55609709 19.3199566,7.91489362 18.4810127,7.91489362 Z" id="Path"></path>
                <path d="M4.27798578,7.14893617 L15.9751958,7.14893617 C16.2803474,7.14893617 16.5079315,6.86411791 16.4452634,6.56149491 C16.0583363,4.69297651 14.8842478,3.11832278 13.2911021,2.20866754 L14.2910619,0.380541127 C14.3587343,0.256772238 14.3146051,0.100793475 14.1924535,0.0322250492 C14.0700175,-0.0365162379 13.9163044,0.00837015155 13.848632,0.132139041 L12.8411087,1.97403676 C12.015903,1.58602014 11.0962402,1.36930935 10.1265908,1.36930935 C9.15688452,1.36930935 8.23722171,1.58602014 7.41201599,1.97403676 L6.40449275,0.13208142 C6.33676344,0.0082549105 6.18282285,-0.0364009969 6.06072812,0.0321674286 C5.93857652,0.100735854 5.89444726,0.256714617 5.9621197,0.380483506 L6.96207956,2.20860992 C5.36893379,3.11832278 4.19484535,4.69291889 3.80791821,6.56149491 C3.74519325,6.86411791 3.97277738,7.14893617 4.27798578,7.14893617 Z M14.4063702,4.16072859 C14.4063702,4.46508021 14.1628632,4.71186892 13.8624316,4.71186892 C13.562057,4.71186892 13.3184931,4.46513783 13.3184931,4.16072859 C13.3184931,3.85637698 13.5620001,3.60958827 13.8624316,3.60958827 C14.1628632,3.60958827 14.4063702,3.85637698 14.4063702,4.16072859 Z M7.96958361,3.60958827 C8.26995827,3.60958827 8.51352219,3.85631936 8.51352219,4.16072859 C8.51352219,4.46508021 8.27001513,4.71186892 7.96958361,4.71186892 C7.66920896,4.71186892 7.42564503,4.46513783 7.42564503,4.16072859 C7.42564503,3.85637698 7.66915209,3.60958827 7.96958361,3.60958827 Z" id="Shape" fill-rule="nonzero"></path>
            </g>
        </g>
    </g>
</svg>