<?xml version="1.0" encoding="UTF-8"?>
<svg width="160px" height="160px" viewBox="0 0 160 160" version="1.1" xmlns="http://www.w3.org/2000/svg" xmlns:xlink="http://www.w3.org/1999/xlink">
    <!-- Generator: Sketch 52.3 (67297) - http://www.bohemiancoding.com/sketch -->
    <title>IOS icon</title>
    <desc>Created with Sketch.</desc>
    <defs>
        <linearGradient x1="-71.4243902%" y1="116.361257%" x2="137.673171%" y2="5.52356021%" id="linearGradient-1">
            <stop stop-color="#000000" stop-opacity="0" offset="0%"></stop>
            <stop stop-color="#000000" stop-opacity="0.51" offset="85%"></stop>
            <stop stop-color="#000000" offset="99%"></stop>
        </linearGradient>
        <linearGradient x1="50.4187593%" y1="-127.267479%" x2="49.4807384%" y2="265.266354%" id="linearGradient-2">
            <stop stop-color="#000000" stop-opacity="0" offset="0%"></stop>
            <stop stop-color="#000000" stop-opacity="0.51" offset="85%"></stop>
            <stop stop-color="#000000" offset="99%"></stop>
        </linearGradient>
    </defs>
    <g id="IOS-icon" stroke="none" stroke-width="1" fill="none" fill-rule="evenodd">
        <g id="ios" transform="translate(5.000000, 5.000000)">
            <g id="arranging_files-(1)">
                <path d="M66.3249865,0.580467659 C58.0138609,2.30800927 50.6989318,7.2357509 44.3801994,12.8715014 C38.0614669,18.5072519 32.4258406,24.9076519 25.9647944,30.4018007 C15.974366,38.9262273 3.1661245,46.5727229 0.632938956,59.4301638 C-1.38791693,69.7387727 4.07693278,80.0473816 4.33309761,90.5542331 C4.47541141,98.5122526 1.65759828,106.215389 1.05988034,114.145088 C0.462162402,121.961506 2.25531621,130.231049 7.40707557,136.150003 C14.7504674,144.589469 27.3310068,146.571894 38.4599455,144.985954 C49.5888843,143.400014 60.0631795,138.868757 71.0213417,136.461527 C84.2280618,133.572851 97.9755744,133.799414 111.438459,135.243752 C119.664197,136.121683 128.288413,137.396099 136.030283,134.450782 C142.918271,131.84531 148.354658,126.011317 150.973231,119.157791 C153.591805,112.304265 153.506417,104.572808 151.257859,97.6060013 C148.155418,87.9487605 141.295893,79.9624206 136.912629,70.8149462 C133.184007,63.0268487 131.333928,54.5307425 129.284609,46.1479176 C127.918397,40.5971282 126.381408,34.8480963 122.595861,30.5434024 C118.297984,25.5873404 111.780012,23.2933918 106.002072,20.1498324 C92.0268578,12.5599775 84.5696149,-3.21445981 66.3249865,0.580467659 Z" id="Path" fill="#D62C2C" opacity="0.18"></path>
                <g id="logo" transform="translate(54.000000, 9.000000)" fill-rule="nonzero">
                    <g id="apple" transform="translate(8.000000, 4.000000)" fill="#D62C2C" fill-opacity="0.5">
                        <path d="M60.134571,46.7578612 C60.023006,35.6133251 69.2670051,30.2685334 69.6799334,30.0029867 C64.4859479,22.4387753 56.3949013,21.4025419 53.5116565,21.2827451 C46.6258909,20.5888864 40.0758563,25.317335 36.5812496,25.317335 C33.0954506,25.317335 27.7028588,21.3853544 21.9921515,21.4886512 C14.4869071,21.5996823 7.56660134,25.8317564 3.70206883,32.5212968 C-4.09573122,45.9876901 1.70512602,65.9372021 9.30535601,76.8586447 C13.0191205,82.2046396 17.4475221,88.2089151 23.26185,87.9944153 C28.8609923,87.7720092 30.9783078,84.3886531 37.7476728,84.3886531 C44.5168651,84.3886531 46.4198585,87.9944153 52.3450606,87.8837279 C58.3702565,87.772353 62.1874689,82.4354675 65.8756736,77.0731445 C70.1403546,70.871213 71.8963793,64.8667657 72,64.5585941 C71.8661566,64.4977504 60.2509715,60.0693953 60.134571,46.7578612 Z M49.0008765,14.0526583 C52.0868724,10.3265838 54.1698204,5.15710441 53.6016338,0 C49.1564802,0.180124827 43.7683785,2.94679404 40.5791073,6.66444671 C37.7174501,9.96238103 35.2124207,15.2260478 35.8837098,20.2800273 C40.8461032,20.6653707 45.9115992,17.770311 49.0008765,14.0526583 Z" id="Shape"></path>
                    </g>
                    <g id="apple" stroke="#D62C2C" stroke-width="3">
                        <path d="M64.3105828,49.9458972 C64.1912703,38.0415063 74.0772138,32.332297 74.5188177,32.0486449 C68.9641387,23.9686918 60.3112139,22.8618061 57.2277437,22.7338414 C49.8638,21.9926741 42.8589019,27.0435169 39.1216141,27.0435169 C35.3937458,27.0435169 29.6266684,22.8434468 23.5193842,22.9537865 C15.4929423,23.0723879 8.09205976,27.5930125 3.95915695,34.738658 C-4.380157,49.1232144 1.82353755,70.4329205 9.95156129,82.0990069 C13.923226,87.8095014 18.6591555,94.2231593 24.8772562,93.9940345 C30.8652279,93.7564644 33.1295792,90.1424249 40.369039,90.1424249 C47.6083141,90.1424249 49.6434598,93.9940345 55.9801342,93.8758002 C62.4237466,93.7568316 66.5060432,88.0560676 70.4503732,82.3281317 C75.0112125,75.7033412 76.8891835,69.2894997 77,68.9603164 C76.856862,68.8953243 64.4350667,64.1650359 64.3105828,49.9458972 Z M52.4037151,15.0107941 C55.7040163,11.0306691 57.9316135,5.50872516 57.3239694,0 C52.5701246,0.192406065 46.8078493,3.14771181 43.3971009,7.1188408 C40.3367175,10.6416343 37.6577277,16.2641875 38.3756341,21.6627565 C43.6826382,22.0743733 49.0999047,18.9819231 52.4037151,15.0107941 Z" id="Shape"></path>
                    </g>
                </g>
                <g id="Phone" transform="translate(18.000000, 35.000000)">
                    <path d="M6.42936803,0.793680297 L38.6598513,0.793680297 L38.6598513,100.198885 L6.42936803,100.198885 C3.18546504,100.198885 0.555762082,97.5691818 0.555762082,94.3252788 L0.555762082,6.66728625 C0.555762082,3.42338325 3.18546504,0.793680297 6.42936803,0.793680297 Z" id="Path" fill="#D62C2C"></path>
                    <path d="M6.42936803,0.793680297 L38.6598513,0.793680297 L38.6598513,100.198885 L6.42936803,100.198885 C3.18546504,100.198885 0.555762082,97.5691818 0.555762082,94.3252788 L0.555762082,6.66728625 C0.555762082,3.42338325 3.18546504,0.793680297 6.42936803,0.793680297 Z" id="Path" fill="url(#linearGradient-1)"></path>
                    <path d="M9.99814126,0.793680297 L52.4702602,0.793680297 C56.2992976,0.793680297 59.4033457,3.89772841 59.4033457,7.7267658 L59.4033457,93.2657993 C59.4033457,97.0948366 56.2992976,100.198885 52.4702602,100.198885 L9.99814126,100.198885 C6.16910387,100.198885 3.06505576,97.0948366 3.06505576,93.2657993 L3.06505576,7.7267658 C3.06505576,3.89772841 6.16910387,0.793680297 9.99814126,0.793680297 Z" id="Path" fill="#D62C2C"></path>
                    <path d="M56.9312268,6.76022305 L56.9312268,89.436803 C56.9210641,91.3727603 55.3541729,92.9396514 53.4182156,92.9498141 L9.05018587,92.9498141 C7.11556097,92.9436638 5.55164916,91.3714333 5.55576208,89.436803 L5.55576208,6.76022305 C5.55164916,4.82559274 7.11556097,3.25336225 9.05018587,3.2472119 L17.8234201,3.2472119 L17.8234201,4.34386617 C17.8234201,6.29431417 19.4045706,7.87546468 21.3550186,7.87546468 L41.0390335,7.87546468 C42.9894815,7.87546468 44.570632,6.29431417 44.570632,4.34386617 L44.570632,3.2472119 L53.4182156,3.2472119 C54.3502266,3.24622407 55.2443488,3.6160266 55.9033804,4.27505825 C56.5624121,4.93408989 56.9322146,5.82821208 56.9312268,6.76022305 Z" id="Path" fill="#FFFFFF"></path>
                    <path d="M26.1505576,3.54460967 L36.3178439,3.54460967 C36.4413897,3.54360924 36.5601661,3.59224556 36.647529,3.67960853 C36.734892,3.76697149 36.7835283,3.88574784 36.7825279,4.00929368 L36.7825279,4.10223048 C36.7835283,4.22577632 36.734892,4.34455267 36.647529,4.43191564 C36.5601661,4.5192786 36.4413897,4.56791492 36.3178439,4.5669145 L26.1505576,4.5669145 C26.0270118,4.56791492 25.9082354,4.5192786 25.8208725,4.43191564 C25.7335095,4.34455267 25.6848732,4.22577632 25.6858736,4.10223048 L25.6858736,4.00929368 C25.6898582,3.75432451 25.8955884,3.54859428 26.1505576,3.54460967 Z" id="Path" fill="url(#linearGradient-2)"></path>
                    <path d="M53.0836431,3.2472119 L53.0836431,77.9869888 C53.0795461,81.4858313 50.2441956,84.3211818 46.7453532,84.3252788 L5.55575399,84.3252788 L5.55576208,6.76022305 C5.55164916,4.82559274 7.11556097,3.25336225 9.05018587,3.2472119 L17.8234201,3.2472119 L17.8234201,4.34386617 C17.8234201,6.29431417 19.4045706,7.87546468 21.3550186,7.87546468 L41.0390335,7.87546468 C42.9894815,7.87546468 44.570632,6.29431417 44.570632,4.34386617 L44.570632,3.2472119 L53.0836431,3.2472119 Z" id="Path" fill="#EBEBF0"></path>
                    <rect id="Rectangle" fill="#FFFFFF" x="10.7973978" y="13.1171004" width="8.81040892" height="8.81040892"></rect>
                    <rect id="Rectangle" fill="#FFFFFF" x="10.7973978" y="24.0464684" width="8.81040892" height="8.81040892"></rect>
                    <rect id="Rectangle" fill="#FFFFFF" x="10.7973978" y="58.8048327" width="8.81040892" height="8.81040892"></rect>
                    <rect id="Rectangle" fill="#FFFFFF" x="10.7973978" y="69.7342007" width="8.81040892" height="8.81040892"></rect>
                    <path d="M22.8977695,15.4219331 L54.4219331,15.4219331 C54.7093675,15.4219331 54.9423792,15.6549447 54.9423792,15.9423792 C54.9423792,16.2298136 54.7093675,16.4628253 54.4219331,16.4628253 L22.8977695,16.4628253 C22.7597386,16.4628253 22.6273611,16.4079927 22.5297586,16.3103901 C22.432156,16.2127876 22.3773234,16.0804101 22.3773234,15.9423792 C22.3773234,15.8043483 22.432156,15.6719708 22.5297586,15.5743682 C22.6273611,15.4767656 22.7597386,15.4219331 22.8977695,15.4219331 Z" id="Path" fill="#FFFFFF"></path>
                    <path d="M54.4219331,19.9944238 L22.8977695,19.9944238 C22.7597386,19.9944238 22.6273611,19.9395912 22.5297586,19.8419887 C22.432156,19.7443861 22.3773234,19.6120086 22.3773234,19.4739777 C22.3773234,19.1865433 22.6103351,18.9535316 22.8977695,18.9535316 L54.4219331,18.9535316 C54.7093675,18.9535316 54.9423792,19.1865433 54.9423792,19.4739777 C54.9364614,19.7589249 54.7068803,19.988506 54.4219331,19.9944238 Z" id="Path" fill="#FFFFFF"></path>
                    <path d="M54.4219331,27.0947955 L22.8977695,27.0947955 C22.7597386,27.0947955 22.6273611,27.039963 22.5297586,26.9423604 C22.432156,26.8447578 22.3773234,26.7123803 22.3773234,26.5743494 C22.3773234,26.286915 22.6103351,26.0539033 22.8977695,26.0539033 L54.4219331,26.0539033 C54.7093675,26.0539033 54.9423792,26.286915 54.9423792,26.5743494 C54.9364614,26.8592967 54.7068803,27.0888778 54.4219331,27.0947955 Z" id="Path" fill="#FFFFFF"></path>
                    <path d="M54.4219331,30.0873606 L22.8977695,30.0873606 C22.7597386,30.0873606 22.6273611,30.032528 22.5297586,29.9349255 C22.432156,29.8373229 22.3773234,29.7049454 22.3773234,29.5669145 C22.3773234,29.2794801 22.6103351,29.0464684 22.8977695,29.0464684 L54.4219331,29.0464684 C54.7093675,29.0464684 54.9423792,29.2794801 54.9423792,29.5669145 C54.9364614,29.8518617 54.7068803,30.0814428 54.4219331,30.0873606 Z" id="Path" fill="#FFFFFF"></path>
                    <path d="M54.4219331,62.2434944 L22.8977695,62.2434944 C22.7597386,62.2434944 22.6273611,62.1886619 22.5297586,62.0910593 C22.432156,61.9934567 22.3773234,61.8610792 22.3773234,61.7230483 C22.3773234,61.4356139 22.6103351,61.2026022 22.8977695,61.2026022 L54.4219331,61.2026022 C54.7093675,61.2026022 54.9423792,61.4356139 54.9423792,61.7230483 C54.9364614,62.0079956 54.7068803,62.2375767 54.4219331,62.2434944 Z" id="Path" fill="#FFFFFF"></path>
                    <path d="M54.4219331,65.2360595 L22.8977695,65.2360595 C22.7597386,65.2360595 22.6273611,65.1812269 22.5297586,65.0836243 C22.432156,64.9860218 22.3773234,64.8536443 22.3773234,64.7156134 C22.3773234,64.4281789 22.6103351,64.1951673 22.8977695,64.1951673 L54.4219331,64.1951673 C54.7093675,64.1951673 54.9423792,64.4281789 54.9423792,64.7156134 C54.9364614,65.0005606 54.7068803,65.2301417 54.4219331,65.2360595 Z" id="Path" fill="#FFFFFF"></path>
                    <path d="M54.4219331,73.1728625 L22.8977695,73.1728625 C22.7597386,73.1728625 22.6273611,73.1180299 22.5297586,73.0204273 C22.432156,72.9228247 22.3773234,72.7904472 22.3773234,72.6524164 C22.3773234,72.5143855 22.432156,72.382008 22.5297586,72.2844054 C22.6273611,72.1868028 22.7597386,72.1319703 22.8977695,72.1319703 L54.4219331,72.1319703 C54.7093675,72.1319703 54.9423792,72.3649819 54.9423792,72.6524164 C54.9364614,72.9373636 54.7068803,73.1669447 54.4219331,73.1728625 Z" id="Path" fill="#FFFFFF"></path>
                    <path d="M54.4219331,76.1654275 L22.8977695,76.1654275 C22.7597386,76.1654275 22.6273611,76.110595 22.5297586,76.0129924 C22.432156,75.9153898 22.3773234,75.7830123 22.3773234,75.6449814 C22.3773234,75.357547 22.6103351,75.1245353 22.8977695,75.1245353 L54.4219331,75.1245353 C54.7093675,75.1245353 54.9423792,75.357547 54.9423792,75.6449814 C54.9364614,75.9299286 54.7068803,76.1595097 54.4219331,76.1654275 Z" id="Path" fill="#FFFFFF"></path>
                </g>
            </g>
            <text id="iOS" font-family="Raleway-Bold, Raleway" font-size="24" font-weight="bold" letter-spacing="0.631578922" fill="#D62C2C">
                <tspan x="85.0646316" y="129">iOS</tspan>
            </text>
        </g>
    </g>
</svg>