<?xml version="1.0" encoding="UTF-8"?>
<svg width="160px" height="160px" viewBox="0 0 160 160" version="1.1" xmlns="http://www.w3.org/2000/svg" xmlns:xlink="http://www.w3.org/1999/xlink">
    <!-- Generator: Sketch 52.3 (67297) - http://www.bohemiancoding.com/sketch -->
    <title>ioT</title>
    <desc>Created with Sketch.</desc>
    <defs>
        <linearGradient x1="74.6713968%" y1="41.5223195%" x2="-33.3012123%" y2="126.938539%" id="linearGradient-1">
            <stop stop-color="#000000" stop-opacity="0" offset="0%"></stop>
            <stop stop-color="#000000" offset="99%"></stop>
        </linearGradient>
        <linearGradient x1="56.746799%" y1="120.552802%" x2="31.5259994%" y2="-5.82992144%" id="linearGradient-2">
            <stop stop-color="#000000" stop-opacity="0" offset="0%"></stop>
            <stop stop-color="#000000" offset="99%"></stop>
        </linearGradient>
        <linearGradient x1="146.415519%" y1="44.7004608%" x2="-15.1672758%" y2="53.5609552%" id="linearGradient-3">
            <stop stop-color="#000000" stop-opacity="0" offset="0%"></stop>
            <stop stop-color="#000000" offset="99%"></stop>
        </linearGradient>
        <linearGradient x1="44.6021929%" y1="-17.071638%" x2="60.7393871%" y2="183.535819%" id="linearGradient-4">
            <stop stop-color="#FFFFFF" stop-opacity="0" offset="2%"></stop>
            <stop stop-color="#FFFFFF" stop-opacity="0.39" offset="32%"></stop>
            <stop stop-color="#FFFFFF" stop-opacity="0.68" offset="68%"></stop>
            <stop stop-color="#FFFFFF" offset="100%"></stop>
        </linearGradient>
        <linearGradient x1="45.8094556%" y1="33.5849057%" x2="147.77937%" y2="435.471698%" id="linearGradient-5">
            <stop stop-color="#000000" stop-opacity="0" offset="0%"></stop>
            <stop stop-color="#000000" offset="99%"></stop>
        </linearGradient>
        <linearGradient x1="-33.5243553%" y1="90.052231%" x2="266.762178%" y2="-58.3501701%" id="linearGradient-6">
            <stop stop-color="#000000" stop-opacity="0" offset="0%"></stop>
            <stop stop-color="#000000" offset="99%"></stop>
        </linearGradient>
        <linearGradient x1="49.7693009%" y1="-83.8791971%" x2="50.7634266%" y2="329.937997%" id="linearGradient-7">
            <stop stop-color="#000000" stop-opacity="0" offset="0%"></stop>
            <stop stop-color="#000000" offset="99%"></stop>
        </linearGradient>
        <linearGradient x1="49.5407032%" y1="-412.955466%" x2="50.7760532%" y2="899.595142%" id="linearGradient-8">
            <stop stop-color="#000000" stop-opacity="0" offset="0%"></stop>
            <stop stop-color="#000000" offset="99%"></stop>
        </linearGradient>
        <linearGradient x1="50.5126821%" y1="78.3062331%" x2="51.3491635%" y2="124.823848%" id="linearGradient-9">
            <stop stop-color="#000000" stop-opacity="0" offset="0%"></stop>
            <stop stop-color="#000000" offset="99%"></stop>
        </linearGradient>
        <linearGradient x1="48.2332628%" y1="-256.553957%" x2="56.1079287%" y2="1161.18499%" id="linearGradient-10">
            <stop stop-color="#010101" stop-opacity="0" offset="0%"></stop>
            <stop stop-color="#010101" offset="95%"></stop>
        </linearGradient>
        <linearGradient x1="46.7736421%" y1="-156.595564%" x2="52.4389903%" y2="227.312478%" id="linearGradient-11">
            <stop stop-color="#010101" stop-opacity="0" offset="0%"></stop>
            <stop stop-color="#010101" offset="95%"></stop>
        </linearGradient>
        <linearGradient x1="65.4633009%" y1="-269.704938%" x2="2.53382717%" y2="1058.61225%" id="linearGradient-12">
            <stop stop-color="#010101" stop-opacity="0" offset="0%"></stop>
            <stop stop-color="#010101" offset="95%"></stop>
        </linearGradient>
        <linearGradient x1="56.4556962%" y1="-377.116513%" x2="25.9873418%" y2="1672.59011%" id="linearGradient-13">
            <stop stop-color="#010101" stop-opacity="0" offset="0%"></stop>
            <stop stop-color="#010101" offset="95%"></stop>
        </linearGradient>
        <linearGradient x1="50.0402947%" y1="105.134082%" x2="49.8301865%" y2="-105.040601%" id="linearGradient-14">
            <stop stop-color="#FFFFFF" stop-opacity="0" offset="0%"></stop>
            <stop stop-color="#FFFFFF" offset="95%"></stop>
        </linearGradient>
        <linearGradient x1="-0.0232396003%" y1="49.9913999%" x2="94.998838%" y2="49.9913999%" id="linearGradient-15">
            <stop stop-color="#010101" stop-opacity="0" offset="0%"></stop>
            <stop stop-color="#FFFFFF" offset="100%"></stop>
        </linearGradient>
        <linearGradient x1="-0.00921176113%" y1="50.0116696%" x2="93.8040904%" y2="50.0116696%" id="linearGradient-16">
            <stop stop-color="#010101" stop-opacity="0" offset="0%"></stop>
            <stop stop-color="#FFFFFF" offset="100%"></stop>
        </linearGradient>
        <linearGradient x1="0%" y1="50.0028007%" x2="100%" y2="50.0028007%" id="linearGradient-17">
            <stop stop-color="#FFFFFF" stop-opacity="0" offset="0%"></stop>
            <stop stop-color="#FFFFFF" offset="95%"></stop>
        </linearGradient>
        <linearGradient x1="-3.34233626%" y1="101.603646%" x2="77.3691762%" y2="23.5381499%" id="linearGradient-18">
            <stop stop-color="#010101" stop-opacity="0" offset="0%"></stop>
            <stop stop-color="#FFFFFF" offset="100%"></stop>
        </linearGradient>
        <linearGradient x1="0%" y1="50%" x2="92.3766031%" y2="50%" id="linearGradient-19">
            <stop stop-color="#010101" stop-opacity="0" offset="0%"></stop>
            <stop stop-color="#FFFFFF" offset="100%"></stop>
        </linearGradient>
        <linearGradient x1="36.5417376%" y1="-290.914253%" x2="59.7387848%" y2="297.047132%" id="linearGradient-20">
            <stop stop-color="#010101" stop-opacity="0" offset="0%"></stop>
            <stop stop-color="#010101" offset="95%"></stop>
        </linearGradient>
        <linearGradient x1="35.6919224%" y1="-313.055729%" x2="60.3318723%" y2="311.271133%" id="linearGradient-21">
            <stop stop-color="#010101" stop-opacity="0" offset="0%"></stop>
            <stop stop-color="#010101" offset="95%"></stop>
        </linearGradient>
    </defs>
    <g id="ioT" stroke="none" stroke-width="1" fill="none" fill-rule="evenodd">
        <g transform="translate(0.000000, 8.000000)">
            <g id="network_2">
                <path d="M44.555136,22.5488693 C37.2339363,29.1875387 29.1279275,32.7612161 21.5967085,38.6465156 C14.0654895,44.5318151 6.78850433,53.5786922 3.67137551,66.978373 C2.80919094,70.6550754 2.29335402,74.7052432 2.57706433,78.6781423 C3.22186048,87.6928242 7.69490349,94.2735419 12.204792,98.7486876 C22.0499081,108.529617 33.4314813,112.676371 43.475563,121.826273 C47.8049086,125.773416 65.7007652,118.523036 70.1996001,121.826273 C81.1721883,129.881535 81.9761933,140.733323 97,136 C109.696203,132 101.300882,153 133.813346,148 C150.414079,145.44702 171.548998,110.68602 146.665054,97 C121.781111,83.3139801 158.227171,84.4217824 156.06434,71.9171308 C154.715795,64.1001138 150.813857,58.395108 146.665054,54.6282588 C142.516252,50.8614096 137.969518,48.594861 133.813346,44.860207 C121.849614,34.0941012 113.879934,11.9823744 101.300882,3.65023266 C91.2015318,-3.08502253 80.111038,0.475776817 70.1996001,6.50273557 C66.0065828,9.07835897 61.8688338,8.61474676 57.672132,10.9456859 C53.0001233,13.5341874 48.8771125,18.5888484 44.555136,22.5488693 Z" id="Path" fill="#D62C2C" opacity="0.24"></path>
                <path d="M77.585,86.65 C49.155,86.65 26.89,80.075 26.89,71.68 C26.89,63.285 49.155,56.715 77.585,56.715 C106.015,56.715 128.275,63.29 128.275,71.68 C128.275,80.07 106.01,86.65 77.585,86.65 Z M77.585,58.07 C50.84,58.07 28.245,64.305 28.245,71.68 C28.245,79.055 50.84,85.295 77.585,85.295 C104.33,85.295 126.92,79.06 126.92,71.68 C126.92,64.3 104.32,58.07 77.585,58.07 Z" id="Shape" fill="#D62C2C" fill-rule="nonzero"></path>
                <path d="M75.9859731,101 C57.3863682,101 39.888873,98.2020349 26.7196634,93.1207304 C13.3500701,87.959484 6,80.9945494 6,73.5 C6,66.0054506 13.3620931,59.040516 26.7316864,53.8792696 C39.900896,48.8029615 57.3983912,46 75.9979962,46 C94.5976011,46 112.099104,48.8029615 125.264306,53.8792696 C138.637907,59.040516 146,66.0104469 146,73.5 C146,80.9895531 138.637907,87.959484 125.264306,93.1207304 C112.087081,98.2020349 94.5895858,101 75.9859731,101 Z M75.5,47 C57.1084376,47 39.8249927,49.768288 26.8345068,54.7920337 C14.2306663,59.6614324 7,66.2983531 7,73 C7,79.7016469 14.2306663,86.3385676 26.8345068,91.2129452 C39.8249927,96.2366909 57.1283678,99 75.5,99 C93.8716322,99 111.178993,96.2366909 124.169479,91.2129452 C136.77332,86.3385676 144,79.7016469 144,73 C144,66.2983531 136.77332,59.6614324 124.169479,54.7920337 C111.178993,49.7832248 93.8955484,47 75.5,47 Z" id="Shape" fill="#D62C2C" fill-rule="nonzero"></path>
                <g id="TWXE3W" transform="translate(59.500000, 46.000000)">
                    <path d="M17.2441026,0.366153846 C11.1985118,0.292201663 5.58242042,3.48257219 2.55032187,8.71334791 C-0.481776688,13.9441236 -0.4590782,20.4031043 2.60970954,25.61244 C5.67849728,30.8217757 11.3168732,33.9725951 17.3617949,33.8561538 C26.5064954,33.6800026 33.818478,26.1995676 33.7863355,17.0532271 C33.7541929,7.90688657 26.3898153,0.478028012 17.2441026,0.366153846 Z M19.7287179,8.07717949 C19.7235045,8.03052568 19.7326274,7.98339066 19.7548718,7.94205128 C19.8028205,7.87230769 19.8551282,7.78076923 19.9248718,7.76333333 C19.9946154,7.74589744 20.0687179,7.82 20.1646154,7.86794872 C19.9858974,8.04666667 20.064359,8.14692308 20.2169231,8.22538462 C20.2538427,8.2429754 20.2854312,8.27005125 20.3084615,8.30384615 C20.3485535,8.42668344 20.4042205,8.54387709 20.4741026,8.6525641 C20.5779716,8.73660091 20.694106,8.80422343 20.8184615,8.85307692 C20.7175711,8.94548407 20.6097327,9.03000612 20.4958974,9.10589744 C20.3858149,9.17281251 20.2669932,9.2241552 20.1428205,9.25846154 C20.0414023,9.26934575 19.9391105,9.26934575 19.8376923,9.25846154 C19.8394757,9.23961474 19.8394757,9.22064167 19.8376923,9.20179487 L20.0469231,9.07102564 C19.9728205,8.97948718 19.8638462,8.90102564 19.8551282,8.81384615 C19.8464103,8.72666667 19.9466667,8.63948718 20.0076923,8.53923077 C19.9117949,8.38230769 19.7723077,8.3125641 19.6720513,8.37794872 C19.375641,8.57846154 19.3538462,8.63076923 19.4889744,8.84435897 C19.2971795,8.91846154 19.1097436,8.9925641 18.9135897,9.06230769 C18.87,8.8574359 19.1053846,8.67871795 18.9135897,8.49564103 C18.9944139,8.35916364 19.1429931,8.27736159 19.3015385,8.28205128 L19.5282051,8.28205128 C19.6502564,8.29076923 19.7461538,8.23410256 19.7287179,8.07717949 Z M14.9338462,3.80974359 C15.3261538,3.86641026 15.7184615,3.8925641 16.1107692,3.92307692 C16.2558699,3.95088533 16.4051802,3.90330293 16.5074359,3.79666667 C16.5510256,3.74 16.655641,3.73128205 16.7341026,3.71820513 C17.0392308,3.67025641 17.3487179,3.61358974 17.6538462,3.58307692 C17.8158549,3.56133385 17.9800425,3.56133385 18.1420513,3.58307692 C18.5169231,3.63974359 18.8917949,3.71384615 19.2623077,3.78358974 C19.3235434,3.79169015 19.3810976,3.81743812 19.4279487,3.85769231 C19.2753846,3.85769231 19.1141026,3.85769231 18.9615385,3.8925641 C18.862443,3.89973583 18.7652248,3.92330389 18.6738462,3.96230769 C18.534359,4.03205128 18.4035897,4.10615385 18.3948718,4.31538462 C18.3991156,4.52581879 18.252387,4.70922945 18.0461538,4.75128205 C17.8409604,4.82544232 17.6413828,4.91430533 17.4489744,5.01717949 C17.3487179,5.06512821 17.3487179,5.12179487 17.4489744,5.17846154 C17.5492308,5.23512821 17.7323077,5.33102564 17.8848718,5.4225641 C17.6451282,5.51410256 17.6451282,5.51410256 17.1482051,5.28307692 C17.2179487,5.40512821 17.2876923,5.51846154 17.3617949,5.63615385 C17.0435897,5.71897436 16.7123077,5.81487179 16.3810256,5.88897436 C16.072981,5.94156233 15.7851227,6.07720237 15.5484615,6.28128205 C15.3075133,6.45056066 15.0231597,6.54736186 14.7289744,6.56025641 C14.5764103,6.59076923 14.45,6.61692308 14.45,6.82179487 C14.45,6.89589744 14.3802564,6.98307692 14.3192308,7.04410256 C14.2373791,7.12013917 14.1466353,7.1860016 14.0489744,7.24025641 C13.8880149,7.35592298 13.6755052,7.37067641 13.5001067,7.2783614 C13.3247082,7.18604639 13.2165547,7.0025229 13.2207692,6.80435897 C13.2078161,6.69868606 13.2078161,6.59182676 13.2207692,6.48615385 C13.2550243,6.35989247 13.304806,6.23836671 13.3689744,6.12435897 C13.4034878,6.0780646 13.4429523,6.03567671 13.4866667,5.99794872 C13.6922016,5.82923424 13.7908599,5.56284633 13.7448028,5.30095333 C13.6987458,5.03906033 13.5151227,4.822315 13.264359,4.73384615 C13.0273953,4.59220603 12.7628159,4.50302196 12.4884615,4.47230769 C12.3950547,4.44450122 12.306742,4.40181675 12.2269231,4.34589744 C12.5974359,4.28487179 12.9548718,4.23692308 13.3035897,4.17153846 C13.4524019,4.12779645 13.5980421,4.07390957 13.7394872,4.01025641 C14.1119305,3.84095068 14.5221283,3.77183312 14.9294872,3.80974359 L14.9338462,3.80974359 Z M18.5997436,6.34666667 C18.5994293,6.43355902 18.559261,6.51550236 18.4907692,6.56897436 C18.3518657,6.65376729 18.2060482,6.72667602 18.0548718,6.78692308 C17.9141535,6.85972854 17.7414841,6.82115346 17.6451282,6.69538462 C17.5971795,6.63871795 17.4969231,6.62128205 17.4228205,6.58641026 C17.4213948,6.56609336 17.4213948,6.54570152 17.4228205,6.52538462 C17.4938666,6.49118636 17.5666107,6.46063385 17.6407692,6.43384615 C17.8805128,6.36846154 18.1115385,6.3074359 18.3469231,6.25076923 C18.4210256,6.22461538 18.5561538,6.22461538 18.5866667,6.34666667 L18.5997436,6.34666667 Z M10.2610256,4.33282051 C10.37,4.29794872 10.4833333,4.27615385 10.6010256,4.24564103 C10.7187179,4.21512821 10.8669231,4.18897436 10.9192308,4.01897436 C10.952591,3.94882221 11.0145245,3.89641693 11.0892308,3.87512821 L11.2548718,3.84461538 C11.4292308,3.80974359 11.6079487,3.77923077 11.7866667,3.75307692 C11.9336115,3.74703484 12.0796095,3.72659511 12.2225641,3.69205128 C12.4807571,3.59299775 12.7574214,3.55134935 13.0333333,3.57 C13.1190056,3.57431095 13.2048405,3.57431095 13.2905128,3.57 L13.5389744,3.57 C13.5366323,3.59027447 13.5366323,3.61075117 13.5389744,3.63102564 C13.2422577,3.86186158 12.8908777,4.012024 12.5189744,4.06692308 C12.0048332,4.15204914 11.5145732,4.34518188 11.0805128,4.63358974 C10.9410256,4.72076923 10.8015385,4.79051282 10.6969231,4.58128205 C10.6969231,4.54205128 10.6010256,4.52025641 10.54,4.51153846 C10.4047017,4.49885024 10.2706123,4.47553033 10.1389744,4.44179487 C10.1730476,4.40026875 10.2126461,4.36360345 10.2566667,4.33282051 L10.2610256,4.33282051 Z M9.38923077,4.81230769 C9.38923077,4.81230769 9.36307692,4.81230769 9.34128205,4.78615385 C9.47205128,4.56820513 9.61153846,4.50282051 9.83384615,4.6074359 C10.0473949,4.71552641 10.2951402,4.73434251 10.5225641,4.65974359 C10.5352604,4.67024321 10.5469363,4.68191904 10.5574359,4.69461538 C10.5225641,4.7425641 10.5007692,4.81230769 10.4571795,4.82974359 C10.4135897,4.84717949 10.2348718,4.88205128 10.1215385,4.92128205 C10.0703316,4.94220811 10.0317013,4.98566723 10.0169231,5.03897436 C10.0169231,5.06512821 10.0692308,5.13051282 10.1084615,5.14358974 L10.2566667,5.18282051 L11.4248718,5.51410256 C11.4626133,5.53761444 11.4893167,5.57531338 11.4989744,5.61871795 C11.4963555,5.67759014 11.4875899,5.73602732 11.4728205,5.79307692 C11.4030769,6.1025641 11.4728205,6.22897436 11.8084615,6.22897436 C11.8146024,6.34118773 11.7360321,6.44033591 11.6253846,6.46 C11.4161538,6.51230769 11.1894872,6.58205128 11.0064103,6.6474359 C10.9061538,6.67794872 10.8058974,6.70846154 10.8364103,6.84794872 C10.8336579,6.88154002 10.8180421,6.91277152 10.7928205,6.93512821 C10.6136513,7.06596663 10.3704512,7.06596663 10.1912821,6.93512821 C10.1165115,6.85264275 10.0926007,6.73598135 10.1288934,6.63073247 C10.1651861,6.52548359 10.255921,6.44835519 10.365641,6.42948718 C10.4876923,6.39897436 10.6184615,6.39025641 10.7448718,6.35538462 C10.8021943,6.34306379 10.8523285,6.30859652 10.884359,6.25948718 C10.884359,6.22897436 10.8451282,6.15487179 10.8058974,6.11564103 C10.5642226,5.88815173 10.2610989,5.73658985 9.93410256,5.67974359 C9.83820513,5.67974359 9.73358974,5.65358974 9.63333333,5.64487179 C9.39794872,5.64487179 9.15820513,5.60564103 8.91846154,5.57948718 C8.81820513,5.57948718 8.69179487,5.57948718 8.68307692,5.42692308 C8.67088757,5.3623042 8.68914283,5.29567261 8.73256553,5.24628994 C8.77598823,5.19690726 8.83973738,5.17027893 8.90538462,5.17410256 C9.06468035,5.1691476 9.22343902,5.15312609 9.38051282,5.12615385 C9.45025641,5.12615385 9.55051282,5.06512821 9.55923077,5.01717949 C9.56358974,4.88641026 9.49384615,4.80358974 9.37179487,4.80358974 L9.38923077,4.81230769 Z M11.4597436,9.44153846 C11.5207692,9.51128205 11.6297436,9.62025641 11.6123077,9.67692308 C11.582057,9.80150293 11.4591513,9.88023938 11.3333333,9.85564103 C11.1207745,9.82801731 10.9068669,9.81201062 10.6925641,9.80769231 C10.8760916,9.54017161 11.138023,9.33610878 11.4423077,9.22358974 L11.2897436,9.35871795 C11.3449233,9.37748178 11.3965125,9.40548738 11.4423077,9.44153846 L11.4597436,9.44153846 Z M12.0482051,24.3623077 C11.8762814,24.4739474 11.7182481,24.6056418 11.5774359,24.7546154 C11.4962286,24.8878266 11.4428475,25.0361075 11.4205128,25.1905128 C11.3588374,25.4691989 11.2817097,25.744239 11.1894872,26.014359 C11.1241026,26.1669231 10.9366667,26.2671795 10.8189744,26.4066667 C10.6347778,26.6529897 10.2944339,26.7206825 10.03,26.5635897 C9.96461538,26.7510256 10.0910256,26.8730769 10.1694872,26.9994872 C10.2828205,27.204359 10.2828205,27.204359 10.0866667,27.3394872 C9.91370525,27.4762227 9.74784774,27.6217118 9.58974359,27.7753846 C9.46932156,27.8855583 9.42053859,28.0537755 9.46333333,28.2112821 C9.46290864,28.3583899 9.44386848,28.5048527 9.40666667,28.6471795 C9.38612883,28.7194861 9.37585739,28.7943209 9.37615385,28.8694872 C9.37615385,29.0133333 9.43717949,29.1528205 9.45461538,29.3053846 C9.48512821,29.5451282 9.5025641,29.7935897 9.52435897,30.0376923 C9.52435897,30.1292308 9.55923077,30.1858974 9.66820513,30.1946154 C9.72303242,30.2078239 9.76926776,30.2444933 9.79461538,30.2948718 C9.86,30.434359 9.91666667,30.5738462 9.97333333,30.7307692 C9.89782489,30.7906921 9.80109923,30.8171368 9.70560689,30.8039654 C9.61011455,30.7907941 9.52415948,30.739152 9.46769231,30.6610256 C9.3787873,30.4942982 9.23358492,30.3645429 9.05794872,30.2948718 C8.77123991,30.171008 8.54007962,29.9460534 8.40846154,29.6628205 C8.21561969,29.3843495 8.11778087,29.051086 8.12948718,28.7125641 C8.18676536,28.4724546 8.05580339,28.2273687 7.82435897,28.1415385 C7.77641026,28.1415385 7.74589744,28.0369231 7.73717949,27.9758974 C7.71102564,27.7405128 7.69794872,27.4964103 7.67615385,27.2610256 C7.62820513,26.7510256 7.56717949,26.2453846 7.53666667,25.7397436 C7.53666667,25.3605128 7.53666667,24.9769231 7.53666667,24.5976923 C7.53666667,24.4233333 7.53666667,24.2533333 7.53666667,24.0876923 C7.50046619,23.6353108 7.19083104,23.251294 6.75641026,23.12 C6.51932809,23.0765108 6.35138183,22.8637789 6.36410256,22.6230769 C6.37176955,22.4112146 6.2538787,22.2147298 6.06333333,22.1217949 C5.80981287,21.9818685 5.61836406,21.7515073 5.52717949,21.4766667 C5.49272316,21.3938178 5.4406662,21.3194507 5.37461538,21.2587179 C5.23699824,21.1277525 5.17896069,20.9337413 5.22205128,20.7487179 C5.22838055,20.6231642 5.21959966,20.4973047 5.19589744,20.3738462 C5.1780461,20.290822 5.17072351,20.20588 5.17410256,20.1210256 C5.20867321,19.8761316 5.29807417,19.6421991 5.43564103,19.4366667 C5.58554533,19.2161068 5.70985013,18.9791965 5.80615385,18.7305128 C5.91830286,18.4541434 5.8263816,18.1369249 5.58384615,17.9633333 C5.50308353,17.9289313 5.41178826,17.9289313 5.33102564,17.9633333 C5.16932732,18.0707838 4.95605695,18.058343 4.80794872,17.9328205 C4.49496157,17.735522 4.23821463,17.4607577 4.0625641,17.1351282 C4.03204574,17.0892228 3.98780314,17.0541338 3.93615385,17.0348718 C3.85958571,17.0046125 3.77862391,16.9869481 3.69641026,16.9825641 C3.47627121,16.9666808 3.27119084,16.8649233 3.12538462,16.6992308 C2.94904622,16.5130384 2.69606071,16.4195788 2.44102564,16.4464103 C2.40671644,16.4552689 2.37071946,16.4552689 2.33641026,16.4464103 C1.82778677,16.3150061 1.36493544,16.0466428 0.998205128,15.6705128 C0.888451372,15.5232285 0.847181291,15.3359259 0.884871795,15.1561538 C1.01597564,14.1364065 1.24664961,13.1319528 1.57358974,12.1571795 C2.06661573,10.6563985 2.77745343,9.23619181 3.68333333,7.94205128 C4.01897436,7.45820513 4.40692308,7.00051282 4.77307692,6.53410256 C4.82538462,6.46435897 4.88205128,6.42948718 4.96051282,6.48615385 C5.07031636,6.55281377 5.20259049,6.57171008 5.32666667,6.53846154 C5.6274359,6.50358974 5.9325641,6.51666667 6.22461538,6.45564103 C6.5768741,6.38060255 6.92129618,6.27260579 7.25333333,6.13307692 C7.50292944,5.99157968 7.6721958,5.74171029 7.71102564,5.4574359 C7.73136752,5.37897436 7.75752137,5.30051282 7.78948718,5.22205128 C7.87666667,4.93435897 7.87666667,4.93435897 8.16871795,4.99974359 C8.37794872,5.05205128 8.60461538,5.1 8.77897436,5.13923077 C8.60897436,5.20025641 8.43025641,5.25692308 8.26025641,5.32666667 C8.09025641,5.39641026 8.1425641,5.43564103 8.21666667,5.51846154 C8.29076923,5.60128205 8.44769231,5.81051282 8.56974359,5.95435897 C8.60897436,5.98923077 8.69615385,6.01974359 8.72666667,6.00230769 C8.97282672,5.90441195 9.23926689,5.86848743 9.5025641,5.89769231 C9.43478868,6.0137253 9.35438515,6.12190459 9.26282051,6.22025641 C9.16858091,6.29286833 9.05770945,6.34081275 8.94025641,6.35974359 C8.63948718,6.42076923 8.33,6.46 8.02487179,6.50794872 C7.98841883,6.71939203 7.80351425,6.87286284 7.58897436,6.86974359 C7.19400886,6.93536897 6.82378171,7.10543266 6.51666667,7.36230769 C6.28969149,7.48550728 6.19346203,7.76098768 6.29435897,7.99871795 C6.32487179,8.09461538 6.35538462,8.22102564 6.51230769,8.13820513 C6.53410256,8.13820513 6.58641026,8.13820513 6.62128205,8.16871795 C6.76948718,8.24717949 6.90897436,8.33 7.05717949,8.40410256 C7.20538462,8.47820513 7.30128205,8.55666667 7.4625641,8.5 C7.4974359,8.5 7.54538462,8.5 7.54538462,8.5 C7.50615385,8.74410256 7.46692308,8.96205128 7.42333333,9.20615385 C7.59691134,9.21550974 7.76256868,9.13268106 7.85923077,8.98820513 C8.1425641,8.55230769 8.44333333,8.1774359 8.73102564,7.77641026 C8.77747274,7.72000646 8.8197227,7.66027375 8.8574359,7.59769231 C9.02201096,7.28048283 9.38195997,7.11670603 9.72923077,7.20102564 C9.92974359,7.23153846 10.0648718,7.27512821 10.0474359,7.51487179 C10.0474359,7.54974359 10.1433333,7.61076923 10.195641,7.61948718 C10.4622039,7.63927605 10.7284291,7.57690329 10.9584615,7.44076923 C10.9726835,7.47733817 10.9829137,7.51533634 10.9889744,7.55410256 C10.9954929,7.60620717 10.9954929,7.65892103 10.9889744,7.71102564 C10.8805965,8.11896487 11.0912812,8.54406312 11.4815385,8.70487179 L11.56,8.74410256 C11.2702983,9.0202298 10.891657,9.1840501 10.4920513,9.20615385 C10.2151544,9.20466354 9.94284742,9.27687755 9.70307692,9.41538462 C9.50274832,9.50878822 9.2958749,9.58745839 9.08410256,9.65076923 C9.0093587,9.69564644 8.94176913,9.7514813 8.88358974,9.81641026 L8.90974359,9.86871795 L9.69871795,9.79897436 C9.66820513,9.99076923 9.69871795,10.1041026 9.90358974,10.1215385 C9.97769231,10.1215385 10.0430769,10.2348718 10.1389744,10.3133333 C9.80333333,10.3787179 9.62897436,10.7492308 9.1974359,10.6620513 L9.5374359,10.3482051 C9.38051282,10.1694872 9.33692308,10.1520513 9.12769231,10.2871795 C8.91846154,10.4223077 8.73102564,10.5792308 8.53051282,10.7230769 C8.47820513,10.7623077 8.43025641,10.8233333 8.37358974,10.8320513 C8.02487179,10.8974359 7.85487179,11.1851282 7.62820513,11.4117949 L7.58025641,11.4597436 C7.49090852,11.5791505 7.35413346,11.6538996 7.20538462,11.6646154 C7.1365055,11.6643071 7.06987281,11.6891006 7.01794872,11.734359 C6.95650901,11.7884199 6.91633088,11.8625949 6.90461538,11.9435897 C6.93159046,12.2442561 6.76794114,12.5297719 6.49487179,12.6584615 C6.25301889,12.7833845 6.02256652,12.9292404 5.80615385,13.094359 C5.61819099,13.2874302 5.56487643,13.5746409 5.67102564,13.8223077 C5.75384758,13.9929606 5.75384758,14.1921676 5.67102564,14.3628205 C5.67102564,14.4064103 5.55333333,14.4412821 5.48794872,14.4412821 C5.4225641,14.4412821 5.37897436,14.3802564 5.36589744,14.3323077 C5.31358974,14.114359 5.27435897,13.8964103 5.22205128,13.6697436 C5.19205588,13.5960572 5.15404976,13.525892 5.10871795,13.4605128 L5.06512821,13.4605128 C5.06512821,13.5433333 5.06512821,13.6261538 5.06512821,13.7089744 C5.05387241,13.7241857 5.03884961,13.736204 5.02153846,13.7438462 C4.96051282,13.6784615 4.90820513,13.6130769 4.84717949,13.5564103 C4.76421671,13.478556 4.67198449,13.4112119 4.5725641,13.3558974 C4.46650215,13.3049714 4.33916573,13.3474169 4.28487179,13.4517949 C4.17589744,13.5912821 4.05384615,13.7220513 3.94487179,13.8484615 C3.85530346,13.7382159 3.75923523,13.6334142 3.65717949,13.5346154 C3.61379817,13.4978871 3.55581796,13.483392 3.50025641,13.4953846 C3.28812317,13.5284712 3.09565904,13.6386724 2.95974359,13.8048718 C2.8184549,13.976687 2.66078953,14.1343523 2.48897436,14.275641 C2.33070514,14.3886128 2.28200587,14.6021404 2.37564103,14.7725641 C2.39562918,14.8467977 2.39562918,14.9249972 2.37564103,14.9992308 C2.29444313,15.422253 2.55282175,15.8364187 2.96846154,15.9494872 C3.18754455,16.0244228 3.42874136,15.9305218 3.53948718,15.7271795 C3.58307692,15.6312821 3.61358974,15.5310256 3.65717949,15.4351282 C3.67441211,15.3770042 3.7160084,15.3292122 3.7711992,15.3041254 C3.82639,15.2790387 3.88974866,15.2791239 3.94487179,15.304359 C4.01402225,15.3744153 4.04629812,15.4728567 4.03205128,15.5702564 C3.99443227,15.7349148 3.94490018,15.8966225 3.88384615,16.0541026 C3.82717949,16.2371795 3.88384615,16.315641 4.05384615,16.3592308 C4.22384615,16.4028205 4.33282051,16.4028205 4.48974359,16.4202564 C4.5671129,16.4153322 4.64222116,16.4474528 4.69210534,16.5067977 C4.74198953,16.5661427 4.76071772,16.6456552 4.7425641,16.7210256 C4.72290909,16.9268823 4.72290909,17.1341433 4.7425641,17.34 C4.77563142,17.4595893 4.84039135,17.5680246 4.93,17.6538462 C4.99662289,17.6956952 5.08132583,17.6956952 5.14794872,17.6538462 C5.27744804,17.5684204 5.44117478,17.553685 5.58384615,17.6146154 C5.63615385,17.6364103 5.69717949,17.6494872 5.74948718,17.6669231 C6.00230769,17.7279487 6.06769231,17.6669231 6.24205128,17.4969231 C6.35309236,17.3893277 6.48125,17.3009431 6.62128205,17.2353846 C6.66528493,17.2221928 6.71294164,17.235809 6.74333333,17.2702564 C6.76529974,17.3064123 6.76529974,17.3517929 6.74333333,17.3879487 C6.60384615,17.51 6.67794872,17.5710256 6.8,17.6233333 L7.09641026,17.7497436 C6.90461538,17.4402564 7.1574359,17.335641 7.27076923,17.1482051 C7.31435897,17.1830769 7.36230769,17.2048718 7.40153846,17.2397436 C7.56447116,17.4217242 7.80322299,17.5169023 8.04666667,17.4969231 L8.08153846,17.4969231 C8.40707125,17.5006034 8.71891111,17.6284578 8.95333333,17.854359 C9.28178417,18.1383417 9.67576965,18.3360834 10.0997436,18.4297436 C10.2843983,18.4616076 10.4446782,18.5754064 10.535641,18.7392308 C10.6141026,18.87 10.714359,18.9876923 10.7928205,19.1141026 C10.9192308,19.3146154 10.88,19.4541026 10.6707692,19.55 L10.4702564,19.6502564 C10.5225641,19.7505128 10.5879487,19.7810256 10.6838462,19.724359 C10.7549694,19.6838495 10.8312045,19.6530622 10.9105128,19.6328205 C10.9671795,19.6328205 11.0282051,19.6807692 11.0761538,19.72 C11.1241026,19.7592308 11.05,19.7897436 11.0369231,19.8289744 C11.0238462,19.8682051 11.0107692,19.9248718 11.0369231,19.9292308 C11.0731532,19.9525264 11.1160439,19.9632491 11.1589744,19.9597436 C11.194373,19.9556506 11.2269924,19.9385643 11.2505128,19.9117949 C11.3208205,19.8327827 11.4215433,19.7875834 11.5273077,19.7875834 C11.633072,19.7875834 11.7337949,19.8327827 11.8041026,19.9117949 C11.8258974,19.9335897 11.8694872,19.9466667 11.8694872,19.9641026 C11.895641,20.2561538 12.0917949,20.1384615 12.2182051,20.0905128 C12.3418948,20.0430778 12.479995,20.0510145 12.5974359,20.1123077 C12.8982051,20.2430769 13.2164103,20.3476923 13.5346154,20.4610256 C13.6302046,20.4861885 13.6976984,20.5714439 13.7002564,20.6702564 C13.7680591,21.1688214 13.6079897,21.6714392 13.264359,22.0389744 C13.2397115,22.0719214 13.2065607,22.0975379 13.1684615,22.1130769 C13.0289744,22.1741026 13.0202564,22.2874359 13.0158974,22.4138462 C13.0174302,22.7384903 13.0014239,23.0629802 12.9679487,23.3858974 C12.9266126,23.5848594 12.8576542,23.7770629 12.7630769,23.9569231 C12.6933333,24.1051282 12.6235897,24.2576923 12.3882051,24.2184615 C12.3140325,24.2181186 12.2418905,24.2426776 12.1833333,24.2882051 C12.1266667,24.3012821 12.0830769,24.3361538 12.0482051,24.3623077 Z M29.5974359,23.0546154 C29.4666667,23.3771795 29.3882051,23.7258974 29.2792308,24.0571795 C29.243579,24.1560138 29.1952247,24.2497917 29.1353846,24.3361538 C28.9741026,24.645641 28.9741026,24.645641 28.6384615,24.5846154 C28.3706555,24.4936299 28.2265581,24.2034879 28.3158974,23.9351282 C28.404447,23.8264369 28.4777713,23.7061852 28.5338462,23.5776923 C28.5662483,23.4341996 28.5662483,23.2852876 28.5338462,23.1417949 C28.5222137,22.9377355 28.6412144,22.7487344 28.8302564,22.6710256 C28.8792441,22.6651688 28.9250703,22.6437832 28.9610256,22.61 C29.1266667,22.444359 29.2966667,22.27 29.4535897,22.095641 C29.4902258,22.0409477 29.5209128,21.9824962 29.5451282,21.9212821 C29.6952209,22.2815817 29.7106928,22.6838516 29.5887179,23.0546154 L29.5974359,23.0546154 Z M32.7751282,14.4325641 C32.6774095,14.3081223 32.5228103,14.2423354 32.3653846,14.2582051 C31.8262281,14.2899326 31.2865612,14.2051915 30.7830769,14.0097436 C30.4213805,13.9175695 30.0759261,13.7705676 29.7587179,13.5738462 C29.4994304,13.4369632 29.2197762,13.3427639 28.9305128,13.2948718 C28.9468572,13.3397992 28.9571191,13.3867108 28.9610256,13.434359 C28.895641,13.8353846 29.1964103,14.0228205 29.4274359,14.2538462 C29.5276923,14.3497436 29.6235897,14.45 29.7325641,14.5676923 L30.425641,14.3802564 C30.5928684,14.3264149 30.7749178,14.3974141 30.8615385,14.5502564 C30.9817072,14.6938513 31.1113105,14.8292795 31.2494872,14.955641 C31.3715385,15.0907692 31.3410256,15.125641 31.2015385,15.2302564 C30.8218256,15.442689 30.4788722,15.714991 30.1858974,16.0366667 C30.1526016,16.0844335 30.1095076,16.1245555 30.0594872,16.154359 C29.8371795,16.2982051 29.6235897,16.4333333 29.3925641,16.5902564 C29.2376784,16.6782133 29.0520951,16.6941113 28.8845061,16.6337793 C28.7169172,16.5734473 28.5840515,16.4429076 28.5207692,16.2764103 C28.422972,15.9548574 28.2580583,15.6577156 28.0369231,15.4046154 C27.9280037,15.2442109 27.8414793,15.0696955 27.7797436,14.8858974 C27.6889131,14.6947817 27.5349619,14.5408304 27.3438462,14.45 C27.1657128,14.3844814 27.0285743,14.2392759 26.9733333,14.0576923 C26.8861538,13.8092308 26.7597436,13.5651282 26.6551282,13.3166667 C26.4066667,13.4212821 26.4066667,13.4212821 26.4764103,13.6653846 C26.5983369,14.086758 26.7819497,14.4877684 27.0212821,14.8553846 C27.4393568,15.423306 27.7904031,16.0376371 28.0674359,16.6861538 C28.1284615,16.8605128 28.1720513,17.0479487 28.2417949,17.2179487 C28.3464103,17.4751282 28.4641026,17.505641 28.7038462,17.3661538 C28.7284592,17.3484138 28.7567771,17.3364904 28.7866667,17.3312821 L29.7282051,17.3312821 C29.6920879,17.5839706 29.6411453,17.834317 29.575641,18.0810256 C29.5204696,18.2897087 29.4191783,18.4833537 29.2792308,18.6476923 C29.0617986,18.8328181 28.8300487,19.000436 28.5861538,19.1489744 C28.5243778,19.1880302 28.4734136,19.2419922 28.4379487,19.3058974 C28.1676923,19.8028205 27.9105128,20.2997436 27.6446154,20.7923077 C27.5748718,20.9187179 27.5530769,21.0189744 27.6446154,21.1235897 C28.0151282,21.5202564 27.9061538,21.9953846 27.9105128,22.4792308 C27.9105128,22.5315385 27.8276923,22.5969231 27.7666667,22.6317949 C27.4656147,22.7650663 27.1965919,22.9612598 26.9776923,23.2071795 C26.8915976,23.3138276 26.8318618,23.4392728 26.8033333,23.5733333 C26.7519806,23.9735875 26.6231729,24.3600106 26.4241026,24.7110256 C26.1233333,25.2210256 25.8574359,25.7571795 25.5828205,26.2802564 C25.5378936,26.3979135 25.4293765,26.4793014 25.3038462,26.4894872 L24.4974359,26.5374359 C24.3797436,26.5374359 24.2664103,26.5723077 24.1487179,26.5810256 C24.0949252,26.585168 24.0412757,26.5713725 23.9961538,26.5417949 C23.9002564,26.4676923 23.8174359,26.3761538 23.7433333,26.3107692 C23.7478609,26.041524 23.6785115,25.776187 23.5428205,25.5435897 C23.4911366,25.4591872 23.4328338,25.3790208 23.3684615,25.3038462 C23.1902318,25.0480175 23.0944167,24.7438426 23.0938462,24.4320513 C23.0791174,24.2601544 23.0270513,24.0935429 22.9412821,23.9438462 C22.7407287,23.6389694 22.6152515,23.2909193 22.5751282,22.9282051 C22.5762551,22.7243046 22.6131387,22.5221822 22.6841026,22.3310256 C22.709951,22.2488567 22.7450477,22.1698892 22.7887179,22.095641 C22.8706267,21.9320023 22.8862409,21.7430705 22.8323077,21.5682051 C22.7033471,20.964925 22.4478011,20.3958896 22.0825641,19.8987179 C22.0046985,19.7638508 22.0046985,19.5976876 22.0825641,19.4628205 C22.1390866,19.3477165 22.2016524,19.2356799 22.27,19.1271795 C22.3353846,19.0312821 22.3310256,18.9528205 22.2133333,18.9092308 C22.0971635,18.8754684 22.0096519,18.7795422 21.9866667,18.6607692 C21.9866667,18.6258974 21.8864103,18.5735897 21.8384615,18.5779487 C21.6019798,18.6037745 21.3668964,18.518436 21.2020513,18.3469231 C21.1192308,18.2641026 20.9361538,18.2641026 20.7923077,18.2553846 C20.6881952,18.2609656 20.5854299,18.2815187 20.4871795,18.3164103 L19.0530769,18.6607692 C18.8181249,18.7140543 18.5727651,18.6356059 18.4123077,18.4558974 C18.3701724,18.409186 18.323441,18.3668357 18.2728205,18.3294872 C18.0629139,18.204455 17.9313997,17.9808809 17.9241026,17.7366667 C17.9064114,17.6303655 17.8381212,17.5393119 17.7410256,17.4925641 C17.3051282,17.3530769 17.2441026,16.9607692 17.1264103,16.6207692 C17.1112544,16.5133747 17.141235,16.4044977 17.2092308,16.32 C17.3219506,16.2190414 17.3555547,16.0563269 17.2920513,15.9189744 C17.1306611,15.5571551 17.1651816,15.1379777 17.3835897,14.8074359 C17.4931163,14.5665807 17.6627351,14.3579345 17.8761538,14.2015385 C17.9589744,14.1448718 17.9807692,14.0010256 18.0592308,13.935641 C18.2992509,13.7130902 18.4689504,13.4252071 18.5474359,13.1074359 C18.614943,12.977843 18.7101959,12.8647302 18.8264103,12.7761538 C19.0007692,12.6105128 19.1882051,12.4579487 19.3625641,12.2923077 C19.4584615,12.2051282 19.5238462,12.1964103 19.5935897,12.3184615 C19.626491,12.3664613 19.6794057,12.3969273 19.7374359,12.4012821 L20.5307692,12.2966667 C20.6078267,12.2744327 20.6865393,12.2583987 20.7661538,12.2487179 C21.1489549,12.2572243 21.5283407,12.1750738 21.8733333,12.0089744 C21.9534184,11.9788714 22.0417098,11.9788714 22.1217949,12.0089744 C22.1479487,12.0089744 22.1479487,12.1266667 22.1435897,12.1920513 C22.1473349,12.3749621 22.2359391,12.5457266 22.3833333,12.6541026 L22.7712821,13.0289744 C22.7974359,13.0507692 22.8279487,13.085641 22.8584615,13.09 C23.12,13.1335897 23.3858974,13.1815385 23.6561538,13.2033333 C23.7869231,13.2033333 23.8741026,13.1553846 23.9176923,12.9941026 C23.9612821,12.8328205 24.0964103,12.7805128 24.1879487,12.6758974 C24.1861654,12.6947442 24.1861654,12.7137173 24.1879487,12.7325641 C24.2426917,12.7905167 24.3041514,12.8417332 24.3710256,12.8851282 C24.5089765,12.9634733 24.6551629,13.0263335 24.8069231,13.0725641 C24.9210547,13.0899022 25.0371504,13.0899022 25.1512821,13.0725641 C25.2165038,13.0660384 25.2822141,13.0660384 25.3474359,13.0725641 C25.6264103,13.1117949 25.9010256,13.1466667 26.18,13.2033333 C26.270921,13.2241732 26.3659985,13.1941487 26.4284615,13.1248718 C26.6790402,12.9957682 26.8004424,12.7051386 26.7161538,12.4361538 C26.6892089,12.3184261 26.6702766,12.199007 26.6594872,12.0787179 C26.4832836,12.012052 26.286454,12.0280544 26.1233333,12.1223077 C25.9251211,12.2527549 25.6631292,12.229266 25.4912821,12.065641 C25.2143709,11.8953853 25.0107974,11.6280979 24.9202564,11.3158974 C25.1905128,11.4510256 25.2994872,11.2853846 25.4258974,11.045641 C25.0902564,11.1241026 24.7894872,11.1851282 24.4930769,11.2679487 C24.4328273,11.2817764 24.3832697,11.3244211 24.3606126,11.3819352 C24.3379555,11.4394493 24.3451128,11.5044363 24.3797436,11.555641 C24.4017851,11.5891781 24.4124806,11.6289042 24.4102564,11.6689744 C24.39855,11.7367391 24.3780343,11.8026826 24.3492308,11.8651282 C24.2664103,11.8302564 24.144359,11.8171795 24.1094872,11.7474359 C24.0746154,11.6776923 24.0266667,11.5251282 23.8871795,11.4815385 C23.8662333,11.4716922 23.8515362,11.4520961 23.8479487,11.4292308 C23.8741026,11.1458974 23.625641,10.9933333 23.5079487,10.8015385 C23.4563627,10.7486758 23.3856567,10.7188221 23.3117949,10.7187179 C23.1262965,10.7206315 22.9517903,10.630932 22.8453846,10.4789744 C22.8035587,10.4146982 22.7503847,10.3585701 22.6884615,10.3133333 C22.5969231,10.2435897 22.4835897,10.195641 22.3964103,10.3133333 C22.3479894,10.354741 22.3201114,10.4152627 22.3201114,10.4789744 C22.3201114,10.542686 22.3479894,10.6032077 22.3964103,10.6446154 C22.5576791,10.8356532 22.7624868,10.9851478 22.9935897,11.0805128 C23.1386239,11.1449266 23.2506147,11.2663815 23.3030769,11.4161538 C23.1866208,11.5099479 23.0328047,11.5434469 22.8878915,11.5065755 C22.7429783,11.4697041 22.6238773,11.3667646 22.5664103,11.2287179 C22.5099254,11.1458197 22.4457063,11.0684648 22.3746154,10.9976923 C22.2644962,10.8522043 22.1435545,10.7152342 22.0128205,10.5879487 C21.8341026,10.4266667 21.4853846,10.4135897 21.4461538,10.7230769 C21.4404242,10.7557836 21.4316687,10.7878874 21.42,10.8189744 L21.3023077,10.7841026 C21.0939022,10.7040139 20.8586744,10.7943414 20.7574359,10.9933333 C20.7138462,11.0587179 20.6484615,11.1153846 20.6005128,11.1764103 C20.5509168,11.2234737 20.5109443,11.2797312 20.4828205,11.3420513 C20.4223393,11.5992302 20.218371,11.7980993 19.9597436,11.8520513 C19.6285402,11.9082885 19.2931215,11.935997 18.9571795,11.9348718 C18.886338,11.9155825 18.8303693,11.8612599 18.8089744,11.7910256 C18.780734,11.5594046 18.780734,11.3252107 18.8089744,11.0935897 C18.8605816,10.8527813 19.0821152,10.6870965 19.3276923,10.705641 L20.0338462,10.705641 C20.1210256,10.705641 20.1776923,10.6794872 20.1689744,10.5705128 C20.164614,10.5299459 20.164614,10.4890285 20.1689744,10.4484615 C20.2169231,10.1694872 20.2038462,10.1389744 19.9510256,9.99076923 C19.8769231,9.94717949 19.7941026,9.91666667 19.72,9.87307692 C19.6458974,9.82948718 19.6371795,9.80769231 19.6415385,9.77717949 C19.6507807,9.73308016 19.6820747,9.69684502 19.724359,9.68128205 C19.8121692,9.65440918 19.90292,9.63830823 19.9946154,9.63333333 C20.3691354,9.64192054 20.71246,9.42562602 20.8664103,9.08410256 C20.9395011,8.88719117 21.1192655,8.749824 21.3284615,8.73102564 C21.6641026,8.67871795 21.7251282,8.59153846 21.764359,8.24717949 C21.7858159,8.15849422 21.8164958,8.07229819 21.8558974,7.99 L21.925641,7.99 C21.9836656,8.10634437 22.0317845,8.22737072 22.0694872,8.35179487 C22.088663,8.48348016 22.1909694,8.5875505 22.3223077,8.60897436 C22.4499368,8.61991861 22.5782684,8.61991861 22.7058974,8.60897436 C22.9282051,8.57846154 23.1417949,8.53487179 23.3641026,8.50435897 C23.4425641,8.50435897 23.4905128,8.50435897 23.5166667,8.38666667 C23.5428205,8.26897436 23.6474359,8.22974359 23.7215385,8.15564103 C23.795641,8.08153846 23.8958974,8.04666667 23.9002564,7.90717949 C23.947254,7.75031072 24.0896349,7.64132779 24.2533333,7.63692308 C24.3242263,7.65273653 24.3865138,7.6947806 24.4276923,7.75461538 C24.4703986,7.83642526 24.5040178,7.92266577 24.5279487,8.01179487 C24.761082,7.80140351 24.8584298,7.47914881 24.7807692,7.17487179 C24.692408,7.20121056 24.6020118,7.22016461 24.5105128,7.23153846 C24.3832483,7.24903793 24.2541876,7.24903793 24.1269231,7.23153846 C23.7607692,7.15307692 23.6910256,6.98307692 23.9002564,6.67794872 C23.97,6.56897436 24.0484615,6.35102564 24.0135897,6.32923077 C23.8741026,6.22461538 23.7476923,6.35538462 23.6517949,6.4425641 C23.4140703,6.63458548 23.2406898,6.89465627 23.1548718,7.18794872 C23.0876918,7.44644978 22.981885,7.69333225 22.8410256,7.92025641 C22.784359,8.01615385 22.6012821,8.05538462 22.4705128,8.07282051 C22.4225641,8.07282051 22.3441026,7.96820513 22.2917949,7.89846154 C22.2416418,7.82304645 22.1965017,7.74441531 22.1566667,7.66307692 C22.154773,7.68191835 22.154773,7.70090216 22.1566667,7.71974359 L21.3807692,7.75897436 C21.3676814,7.72353018 21.3574773,7.68708694 21.3502564,7.65 C21.2369231,7.09205128 21.1846154,7.16615385 21.7251282,6.9525641 C21.8900889,6.86146402 22.0376562,6.74193448 22.1610256,6.59948718 L22.5271795,6.28564103 C22.5521257,6.26724341 22.5741665,6.24520259 22.5925641,6.22025641 C22.9587179,5.73205128 23.5035897,5.65358974 24.0528205,5.56641026 C24.5451942,5.54810806 25.0357526,5.63581396 25.4912821,5.82358974 L26.2758974,6.05461538 C25.9184615,6.34230769 25.5958974,6.05461538 25.2907692,6.10692308 C25.2907692,6.10692308 25.2689744,6.14179487 25.2907692,6.14615385 C25.4647877,6.33691944 25.6511734,6.51602451 25.8487179,6.68230769 C25.9230495,6.71909795 26.0101579,6.71972064 26.0850078,6.68399682 C26.1598577,6.64827299 26.2141599,6.58015889 26.2323077,6.49923077 C26.2628205,6.39025641 26.3107692,6.33794872 26.4284615,6.33794872 C26.5787357,6.33474569 26.712567,6.24209326 26.7684615,6.1025641 C26.8294872,5.98487179 26.9079487,5.9325641 27.034359,5.98051282 C27.034359,6.11564103 27.0779487,6.17666667 27.2130769,6.13307692 C27.2641705,6.11696893 27.3126324,6.09347223 27.3569231,6.06333333 C27.5134093,5.96718935 27.6974145,5.92578818 27.88,5.94564103 C28.1364875,5.93212514 28.3893647,5.87919735 28.6297436,5.78871795 C28.8607692,5.72769231 28.9828205,5.74948718 29.1005128,5.88025641 C30.1824534,7.00125262 31.1010547,8.26909849 31.8292308,9.64641026 C32.7021096,11.2788268 33.2916737,13.047519 33.5728205,14.8771795 C33.5750204,14.8960043 33.5750204,14.9150213 33.5728205,14.9338462 C33.1674359,14.96 32.9712821,14.6592308 32.7664103,14.4325641 L32.7751282,14.4325641 Z" id="Shape" fill="#D62C2C" fill-rule="nonzero"></path>
                    <path d="M33.5771795,14.8728205 C33.1630769,14.96 32.98,14.6592308 32.7620513,14.4369231 C32.6676994,14.3081616 32.5105117,14.2412732 32.3523077,14.2625641 C31.4338073,14.2639109 30.5313642,14.0217553 29.7369231,13.5607692 C29.4798585,13.4196119 29.199193,13.3265492 28.9087179,13.2861538 C28.9252025,13.3280252 28.9354819,13.3720801 28.9392308,13.4169231 C28.8738462,13.8223077 29.1702564,14.0097436 29.405641,14.2407692 C29.5058974,14.3366667 29.5974359,14.4369231 29.7107692,14.5546154 L30.4038462,14.3671795 C30.5700289,14.3125741 30.7517622,14.3816328 30.8397436,14.5328205 C30.9584001,14.6777385 31.086545,14.8146206 31.2233333,14.9425641 C31.3497436,15.0776923 31.3192308,15.1169231 31.1753846,15.2171795 C30.7977637,15.430808 30.4564268,15.7029947 30.1641026,16.0235897 C30.1298012,16.0692876 30.0868499,16.1077956 30.0376923,16.1369231 C29.8153846,16.2851282 29.6017949,16.4246154 29.3707692,16.5728205 C29.2167594,16.6625323 29.0310619,16.6798836 28.8630981,16.6202564 C28.6951343,16.5606293 28.561944,16.4300728 28.4989744,16.2633333 C28.4011771,15.9417805 28.2362634,15.6446387 28.0151282,15.3915385 C27.9062794,15.2326554 27.8197459,15.0595884 27.7579487,14.8771795 C27.6750164,14.6754612 27.5194866,14.512155 27.3220513,14.4194872 C27.1460138,14.353189 27.0096772,14.2104366 26.9515385,14.0315385 C26.864359,13.774359 26.7423077,13.5346154 26.6333333,13.2861538 C26.3848718,13.3907692 26.3848718,13.3907692 26.4502564,13.6348718 C26.5765738,14.0553503 26.7614656,14.4559491 26.9994872,14.8248718 C27.4175619,15.3927931 27.7686083,16.0071242 28.045641,16.655641 C28.1066667,16.83 28.1502564,17.0174359 28.22,17.1874359 C28.3289744,17.4446154 28.4423077,17.4751282 28.6820513,17.335641 C28.7044546,17.3169488 28.7316257,17.3048728 28.7605128,17.3007692 L29.7064103,17.3007692 C29.6541026,17.5579487 29.6279487,17.8151282 29.5538462,18.0548718 C29.4987697,18.2622848 29.3974312,18.4545298 29.2574359,18.6171795 C29.0389143,18.8009137 28.8072732,18.9684528 28.564359,19.1184615 C28.5030077,19.1594258 28.4510151,19.212904 28.4117949,19.2753846 C28.1458974,19.7679487 27.8930769,20.2692308 27.6228205,20.7617949 C27.5530769,20.8882051 27.5312821,20.9884615 27.6228205,21.0930769 C27.9889744,21.4897436 27.884359,21.9648718 27.8887179,22.4487179 C27.8887179,22.4966667 27.8058974,22.5664103 27.7448718,22.6012821 C27.4451287,22.736811 27.1765466,22.9326831 26.9558974,23.1766667 C26.8698027,23.2833147 26.8100669,23.40876 26.7815385,23.5428205 C26.7333525,23.9444129 26.6027629,24.3317299 26.3979487,24.6805128 C26.1015385,25.1948718 25.835641,25.7266667 25.5653846,26.2497436 C25.5180597,26.3674195 25.4084426,26.4483675 25.2820513,26.4589744 C25.0117949,26.4589744 24.7458974,26.4851282 24.475641,26.5069231 C24.3579487,26.5069231 24.2446154,26.5417949 24.1269231,26.5505128 C24.0744005,26.5558159 24.0217384,26.5418759 23.9787179,26.5112821 C23.8784615,26.4371795 23.795641,26.345641 23.7215385,26.2802564 C23.7228117,26.0119664 23.6552769,25.7478303 23.5253846,25.5130769 C23.4687179,25.4302564 23.4120513,25.3474359 23.3466667,25.2689744 C23.1719884,25.0212154 23.0762653,24.7264492 23.0720513,24.4233333 C23.0586662,24.2498032 23.006532,24.0814844 22.9194872,23.9307692 C22.7187121,23.6256265 22.5918495,23.2778739 22.5489744,22.9151282 C22.5526681,22.7120979 22.5925222,22.5113514 22.6666667,22.3223077 C22.6888676,22.236075 22.7241486,22.1537525 22.7712821,22.0782051 C22.848299,21.9144425 22.8607508,21.7276651 22.8061538,21.5551282 C22.6785067,20.9521966 22.4244576,20.3831861 22.0607692,19.885641 C21.9829037,19.7507739 21.9829037,19.5846107 22.0607692,19.4497436 C22.1178395,19.3340797 22.1818893,19.2219925 22.2525641,19.1141026 C22.3179487,19.0138462 22.3135897,18.9397436 22.1915385,18.8961538 C22.075172,18.8652807 21.9890391,18.7670892 21.9735897,18.6476923 C21.9388539,18.5973339 21.8821785,18.5665672 21.8210256,18.5648718 C21.5860065,18.589306 21.3528392,18.5040793 21.1889744,18.3338462 C21.0646338,18.26301 20.9218954,18.2311217 20.7792308,18.2423077 C20.6736471,18.24747 20.5693838,18.2680289 20.4697436,18.3033333 L19.035641,18.6476923 C18.8016463,18.6983126 18.558272,18.6221547 18.3948718,18.4471795 C18.3527064,18.3991892 18.3059926,18.3553951 18.2553846,18.3164103 C18.0453904,18.1893722 17.9141066,17.9645486 17.9066667,17.7192308 C17.8870125,17.6148502 17.8191117,17.5259324 17.7235897,17.4794872 C17.2876923,17.34 17.2310256,16.9476923 17.1133333,16.6076923 C17.0942566,16.5021431 17.1229965,16.3935702 17.1917949,16.3112821 C17.3043202,16.2099865 17.3363085,16.046491 17.2702564,15.9102564 C17.1150121,15.5469107 17.1509718,15.1301054 17.3661538,14.7987179 C17.4758474,14.5579662 17.6454346,14.3493589 17.8587179,14.1928205 C17.9415385,14.1361538 17.9633333,13.9923077 18.0417949,13.9269231 C18.281815,13.7043723 18.4515145,13.4164892 18.53,13.0987179 C18.5975071,12.969125 18.69276,12.8560122 18.8089744,12.7674359 C18.9833333,12.6017949 19.1707692,12.4492308 19.3451282,12.2835897 C19.4410256,12.1964103 19.5064103,12.1833333 19.5805128,12.3097436 C19.6099888,12.3591849 19.6624814,12.3903524 19.72,12.3925641 C19.9815385,12.3620513 20.2474359,12.3228205 20.5133333,12.2835897 C20.5919699,12.262745 20.6721357,12.2481694 20.7530769,12.24 C21.1342226,12.2458937 21.511598,12.1638555 21.8558974,12.0002564 C21.9344598,11.9700406 22.0214376,11.9700406 22.1,12.0002564 C22.1305128,12.0002564 22.1305128,12.1223077 22.1261538,12.1833333 C22.1278475,12.3667609 22.2168996,12.5383885 22.3658974,12.6453846 C22.4923077,12.7717949 22.6274359,12.8938462 22.7582051,13.0158974 C22.78,13.0420513 22.8061538,13.0769231 22.8366667,13.0812821 C23.1025641,13.1248718 23.3684615,13.1728205 23.634359,13.1946154 C23.7694872,13.1946154 23.8566667,13.1466667 23.9046154,12.9853846 C23.9525641,12.8241026 24.0746154,12.7717949 24.1661538,12.6671795 L24.1923077,12.7238462 C24.2485749,12.7818888 24.3114876,12.8330968 24.3797436,12.8764103 C24.5177885,12.9545661 24.6639536,13.0174171 24.815641,13.0638462 C24.9299255,13.0790258 25.0457155,13.0790258 25.16,13.0638462 C25.2252218,13.0573204 25.2909321,13.0573204 25.3561538,13.0638462 C25.6307692,13.1030769 25.9141026,13.1379487 26.1887179,13.1946154 C26.2795987,13.2145141 26.3742088,13.1846372 26.4371795,13.1161538 C26.6877581,12.9870503 26.8091603,12.6964207 26.7248718,12.4274359 C26.7001004,12.3109477 26.6826305,12.1930257 26.6725641,12.074359 C26.495549,12.0062376 26.2973744,12.0206212 26.1320513,12.1135897 C25.9334309,12.2424021 25.6725396,12.2190118 25.5,12.0569231 C25.2230889,11.8866674 25.0195153,11.61938 24.9289744,11.3071795 C25.1948718,11.4423077 25.3082051,11.2766667 25.4346154,11.0369231 C25.0989744,11.1153846 24.7982051,11.1764103 24.5017949,11.2635897 C24.4417076,11.2760847 24.3918784,11.3178561 24.3690852,11.3748392 C24.346292,11.4318223 24.3535673,11.4964355 24.3884615,11.5469231 C24.4091607,11.5826431 24.4197112,11.6233379 24.4189744,11.6646154 C24.4041151,11.7296692 24.385189,11.7937266 24.3623077,11.8564103 C24.2751282,11.8215385 24.1530769,11.8041026 24.1182051,11.7430769 C24.0833333,11.6820513 24.0310256,11.5164103 23.9002564,11.4728205 C23.8781019,11.4634875 23.8618517,11.4439871 23.8566667,11.4205128 C23.8828205,11.1371795 23.634359,10.9846154 23.5166667,10.7928205 C23.4905128,10.7405128 23.3902564,10.714359 23.3205128,10.71 C23.1357184,10.7089886 22.9624771,10.6199393 22.8541026,10.4702564 C22.8110599,10.4069495 22.758069,10.3510148 22.6971795,10.3046154 C22.605641,10.2305128 22.4923077,10.1825641 22.4007692,10.3046154 C22.3525168,10.3451985 22.32466,10.405027 22.32466,10.4680769 C22.32466,10.5311268 22.3525168,10.5909554 22.4007692,10.6315385 C22.5619208,10.8227021 22.7667616,10.9722209 22.9979487,11.0674359 C23.1420763,11.1331081 23.2536461,11.2541063 23.3074359,11.4030769 C23.1909798,11.496871 23.0371637,11.53037 22.8922505,11.4934986 C22.7473372,11.4566272 22.6282363,11.3536877 22.5707692,11.215641 C22.5144664,11.1338208 22.4517932,11.0565724 22.3833333,10.9846154 C22.2693467,10.839655 22.1470923,10.7013911 22.0171795,10.5705128 C21.8384615,10.4135897 21.4897436,10.4005128 21.4505128,10.71 C21.4468722,10.7431385 21.4380466,10.775499 21.424359,10.8058974 L21.3066667,10.7710256 C21.0993738,10.6902677 20.8645276,10.7785699 20.7617949,10.9758974 C20.7182051,11.045641 20.6528205,11.0979487 20.6048718,11.1633333 C20.5538298,11.2117946 20.5124177,11.2694757 20.4828205,11.3333333 C20.4246595,11.586923 20.2234646,11.7830028 19.9684615,11.8346154 C19.6347325,11.8944615 19.296227,11.923643 18.9571795,11.9217949 C18.8869453,11.9004 18.8326226,11.8444312 18.8133333,11.7735897 C18.7870103,11.5433139 18.7870103,11.3107886 18.8133333,11.0805128 C18.8592839,10.8399111 19.0791957,10.6726278 19.3233333,10.6925641 C19.5587179,10.6925641 19.7941026,10.6925641 20.0294872,10.6925641 C20.1210256,10.6925641 20.1776923,10.6620513 20.1689744,10.5574359 C20.164614,10.516869 20.164614,10.4759515 20.1689744,10.4353846 C20.2169231,10.1607692 20.2038462,10.1258974 19.9510256,9.97769231 C19.8769231,9.93410256 19.7941026,9.90358974 19.72,9.86 C19.6458974,9.81641026 19.6371795,9.79461538 19.6415385,9.76410256 C19.6507807,9.72000324 19.6820747,9.6837681 19.724359,9.66820513 C19.8141412,9.6434224 19.9061062,9.62736501 19.9989744,9.62025641 C20.3741443,9.63120982 20.7186727,9.41415693 20.8707692,9.07102564 C20.94386,8.87411425 21.1236245,8.73674708 21.3328205,8.71794872 C21.6684615,8.66564103 21.7251282,8.57846154 21.7687179,8.23410256 C21.7907217,8.14558119 21.8213822,8.05943969 21.8602564,7.97692308 L21.934359,7.97692308 C21.9898473,8.09385898 22.0364741,8.21479745 22.0738462,8.33871795 C22.1087179,8.4825641 22.1828205,8.57846154 22.3266667,8.59153846 C22.4540746,8.60679796 22.5828484,8.60679796 22.7102564,8.59153846 C22.9325641,8.56538462 23.1461538,8.52179487 23.3684615,8.49564103 C23.4512821,8.49564103 23.4992308,8.49564103 23.5253846,8.37358974 C23.5515385,8.25153846 23.6517949,8.21666667 23.7258974,8.1425641 C23.8,8.06846154 23.9002564,8.03358974 23.9046154,7.88974359 C23.9089744,7.74589744 24.135641,7.60641026 24.2620513,7.62384615 C24.3318493,7.64213309 24.3924071,7.68561052 24.4320513,7.74589744 C24.4754974,7.82584101 24.5091585,7.91072557 24.5323077,7.99871795 C24.7604843,7.78521555 24.8569387,7.46591837 24.7851282,7.16179487 C24.6955052,7.18900232 24.6035852,7.20796994 24.5105128,7.21846154 C24.3848636,7.23807839 24.2569313,7.23807839 24.1312821,7.21846154 C23.7651282,7.14 23.6953846,6.97435897 23.9046154,6.66487179 C23.974359,6.56025641 24.0484615,6.33794872 24.0179487,6.31179487 C23.8784615,6.21153846 23.7520513,6.34230769 23.6561538,6.42948718 C23.4192507,6.62225678 23.2460554,6.88204983 23.1592308,7.17487179 C23.0926281,7.43356995 22.9867849,7.68053743 22.8453846,7.90717949 C22.784359,8.00307692 22.605641,8.04230769 22.4748718,8.05974359 C22.4225641,8.05974359 22.3484615,7.95512821 22.2961538,7.88538462 C22.2469218,7.80940357 22.2018138,7.73082844 22.1610256,7.65 L22.1610256,7.70666667 L21.3851282,7.74589744 C21.3851282,7.70230769 21.3589744,7.67179487 21.3502564,7.63692308 C21.2412821,7.07461538 21.1889744,7.15307692 21.7251282,6.93948718 C21.887796,6.84679741 22.034889,6.72912299 22.1610256,6.59076923 L22.5271795,6.26820513 C22.5509335,6.25170288 22.5728532,6.23270581 22.5925641,6.21153846 C22.9587179,5.71897436 23.5035897,5.64051282 24.0528205,5.55333333 C24.547039,5.53481228 25.0393688,5.62405635 25.495641,5.81487179 C25.7397436,5.88025641 25.9838462,5.95871795 26.2758974,6.04153846 C25.9228205,6.32487179 25.5958974,6.04153846 25.2864103,6.09384615 L25.2864103,6.13307692 C25.4619104,6.32255146 25.6497567,6.50020456 25.8487179,6.66487179 C25.9838462,6.76512821 26.1887179,6.66487179 26.2366667,6.48615385 C26.2846154,6.3074359 26.3107692,6.32487179 26.4241026,6.32487179 C26.5764886,6.32172547 26.7129131,6.22963894 26.7728205,6.08948718 C26.8294872,5.97179487 26.9079487,5.91948718 27.034359,5.9674359 C27.034359,6.10692308 27.0779487,6.16358974 27.2130769,6.12 C27.2627965,6.10385286 27.3098147,6.08034378 27.3525641,6.05025641 C27.5127104,5.95523733 27.6990738,5.91399296 27.884359,5.9325641 C28.1388809,5.91794531 28.389946,5.8665577 28.6297436,5.78 C28.7893151,5.70160298 28.9812365,5.73505715 29.1048718,5.86282051 C30.1845086,6.98735946 31.1028425,8.25630324 31.8335897,9.63333333 C32.6971189,11.267892 33.279191,13.0362126 33.5553846,14.8641026 L33.5771795,14.8728205 Z" id="Path" fill="#FFFFFF"></path>
                    <path d="M7.53666667,8.45641026 L7.41461538,9.15820513 C7.58963631,9.1693964 7.75680368,9.08414104 7.85051282,8.93589744 C8.13384615,8.53051282 8.43461538,8.13384615 8.72230769,7.73282051 C8.76980457,7.67316064 8.81348146,7.6105571 8.85307692,7.54538462 C9.01765199,7.22817514 9.377601,7.06439834 9.72487179,7.14871795 C9.92538462,7.17923077 10.0648718,7.22282051 10.0474359,7.4625641 C10.0474359,7.4974359 10.1346154,7.55846154 10.1912821,7.56717949 C10.4563897,7.58606715 10.7209591,7.52372608 10.9497436,7.38846154 C10.9653294,7.42490471 10.9770183,7.46289365 10.9846154,7.50179487 C10.991134,7.55389948 10.991134,7.60661334 10.9846154,7.65871795 C10.8766756,8.06547676 11.0875673,8.48912639 11.4771795,8.64820513 L11.555641,8.6874359 C11.2661525,8.96451203 10.887688,9.1298006 10.4876923,9.15384615 C10.2121097,9.15186084 9.94107914,9.22413564 9.70307692,9.36307692 C9.50095481,9.4557686 9.29268334,9.53441657 9.07974359,9.59846154 C9.00605507,9.64481459 8.93866025,9.70048857 8.87923077,9.76410256 L8.90538462,9.81641026 L9.69435897,9.74666667 C9.66384615,9.93846154 9.69435897,10.0517949 9.89923077,10.0735897 C9.97333333,10.0735897 10.0430769,10.1782051 10.1389744,10.2566667 C9.79461538,10.3264103 9.62461538,10.6925641 9.1974359,10.6097436 L9.53307692,10.2958974 C9.37179487,10.1215385 9.3325641,10.1041026 9.12333333,10.2348718 C8.91410256,10.365641 8.72666667,10.5269231 8.52615385,10.6707692 C8.47384615,10.71 8.42589744,10.7710256 8.36923077,10.7841026 C8.02051282,10.8451282 7.85051282,11.1328205 7.62820513,11.3594872 C7.52423457,11.5005419 7.36637112,11.5921027 7.19230769,11.6123077 C7.12342857,11.6119994 7.05679588,11.6367929 7.00487179,11.6820513 C6.94280965,11.7356138 6.90249645,11.8100381 6.89153846,11.8912821 C6.92059367,12.1912956 6.75601745,12.4766777 6.48179487,12.6017949 C6.24179116,12.7299184 6.01159079,12.8756148 5.79307692,13.0376923 C5.60514473,13.2292082 5.55329653,13.5161017 5.66230769,13.7612821 C5.74277033,13.9339944 5.74277033,14.1334415 5.66230769,14.3061538 C5.66230769,14.3497436 5.54461538,14.3846154 5.47923077,14.3889744 C5.41384615,14.3933333 5.37461538,14.3235897 5.36153846,14.275641 C5.30487179,14.0576923 5.27,13.8397436 5.21333333,13.6130769 C5.182443,13.5384339 5.14449285,13.4669125 5.1,13.3994872 L5.05641026,13.4212821 L5.05641026,13.6741026 L5.01282051,13.7046154 C4.95806674,13.6404704 4.89986092,13.5793543 4.83846154,13.5215385 C4.75589533,13.44198 4.66362956,13.3731468 4.56384615,13.3166667 C4.45891975,13.2650673 4.33197069,13.3054602 4.27615385,13.4082051 C4.16953811,13.5460404 4.05606161,13.6784297 3.93615385,13.8048718 C3.84552389,13.6969353 3.74950433,13.5936415 3.64846154,13.4953846 C3.60315518,13.4590852 3.54409672,13.4447196 3.48717949,13.4561538 C3.27881698,13.4901189 3.08985769,13.5985382 2.95538462,13.7612821 C2.81409593,13.9330972 2.65643056,14.0907626 2.48461538,14.2320513 C2.32177299,14.3456481 2.27098195,14.5638614 2.36692308,14.7376923 C2.38659909,14.8090096 2.38659909,14.8843237 2.36692308,14.955641 C2.28542066,15.3797388 2.54347259,15.7952783 2.95974359,15.9102564 C3.1788266,15.985192 3.42002341,15.891291 3.53076923,15.6879487 C3.57435897,15.5920513 3.60923077,15.4917949 3.64846154,15.3958974 C3.66569416,15.3377734 3.70729045,15.2899814 3.76248125,15.2648947 C3.81767206,15.2398079 3.88103072,15.2398931 3.93615385,15.2651282 C3.99717949,15.295641 4.03641026,15.4438462 4.02333333,15.5310256 C3.98508605,15.6974357 3.93408056,15.8606533 3.87076923,16.0192308 C3.81410256,16.1979487 3.87076923,16.2764103 4.04512821,16.32 C4.21948718,16.3635897 4.32410256,16.3635897 4.48102564,16.3810256 C4.55878094,16.3775911 4.63365281,16.4107906 4.68331046,16.4707223 C4.7329681,16.5306539 4.75167293,16.6103918 4.73384615,16.6861538 C4.71207774,16.8889903 4.71207774,17.0935738 4.73384615,17.2964103 C4.766673,17.4186265 4.83135425,17.5299384 4.92128205,17.6189744 C4.98973276,17.6539055 5.07078006,17.6539055 5.13923077,17.6189744 C5.26695957,17.5286158 5.43331813,17.5136435 5.57512821,17.5797436 L5.74512821,17.6233333 C5.99358974,17.684359 6.06333333,17.6233333 6.22897436,17.4576923 C6.34239465,17.3510155 6.47182712,17.2627661 6.6125641,17.1961538 C6.65578898,17.1848008 6.7018184,17.1963082 6.73461538,17.2266667 C6.7583927,17.2638763 6.7583927,17.3115083 6.73461538,17.3487179 C6.59948718,17.4707692 6.67358974,17.5317949 6.79564103,17.5841026 L7.09205128,17.7061538 C6.90461538,17.4010256 7.15307692,17.2964103 7.26641026,17.1133333 C7.31219988,17.1367037 7.35470384,17.1660167 7.39282051,17.2005128 C7.56000414,17.3816708 7.80086543,17.4764096 8.04666667,17.4576923 C8.38151178,17.4531959 8.70445915,17.5817477 8.94461538,17.8151282 C9.27315262,18.1014849 9.6691769,18.2994971 10.0953846,18.3905128 C10.279307,18.4241255 10.4389098,18.5374435 10.5312821,18.7 C10.6097436,18.8307692 10.71,18.9484615 10.7928205,19.0748718 C10.8528967,19.1441425 10.8737522,19.2391494 10.8482135,19.327214 C10.8226748,19.4152785 10.7542258,19.4843871 10.6664103,19.5107692 L10.4658974,19.6023077 C10.5225641,19.7069231 10.5792308,19.7374359 10.6794872,19.6807692 C10.7489813,19.6379017 10.8258449,19.6083387 10.9061538,19.5935897 C10.9681035,19.6021509 11.0259265,19.6295407 11.0717949,19.6720513 C11.0717949,19.6720513 11.045641,19.7461538 11.0325641,19.7853846 C11.0194872,19.8246154 11.0020513,19.8812821 11.0325641,19.89 C11.0694612,19.9117107 11.1118423,19.922306 11.1546154,19.9205128 C11.1896939,19.9126785 11.2215951,19.8944492 11.2461538,19.8682051 C11.3157028,19.7878911 11.4167066,19.7417453 11.5229487,19.7417453 C11.6291908,19.7417453 11.7301947,19.7878911 11.7997436,19.8682051 C11.8215385,19.8682051 11.8651282,19.8987179 11.8651282,19.9205128 C11.8912821,20.2082051 12.0874359,20.0905128 12.2138462,20.0425641 C12.335688,19.9928755 12.4734553,20.0008852 12.5887179,20.064359 C12.8982051,20.1951282 13.2120513,20.3041026 13.5302564,20.4087179 C13.6274253,20.4352431 13.6962099,20.5216647 13.7002564,20.6223077 C13.7660715,21.1193758 13.6061807,21.619834 13.264359,21.9866667 C13.241048,22.0219027 13.2076159,22.0492563 13.1684615,22.0651282 C13.0289744,22.1261538 13.0158974,22.2394872 13.0158974,22.3702564 C13.0158974,22.6928205 13.0158974,23.0197436 12.9679487,23.3379487 C12.9252028,23.5365107 12.8563116,23.7285266 12.7630769,23.9089744 C12.6933333,24.0571795 12.6235897,24.2097436 12.3882051,24.1705128 C12.2835897,24.1705128 12.1484615,24.2576923 12.0438462,24.3317949 C11.8700966,24.4392204 11.7117286,24.5697274 11.5730769,24.7197436 C11.4919785,24.8530069 11.4386056,25.0012649 11.4161538,25.155641 C11.3576627,25.4351156 11.2804807,25.7103494 11.1851282,25.9794872 C11.1197436,26.1364103 10.9323077,26.2366667 10.8146154,26.3717949 C10.634093,26.6233385 10.2903973,26.6935967 10.025641,26.5330769 C9.96025641,26.7248718 10.0866667,26.8425641 10.1607692,26.9689744 C10.2784615,27.1738462 10.2784615,27.1694872 10.0823077,27.3089744 C9.90934627,27.4457099 9.74348876,27.591199 9.58538462,27.7448718 C9.46905641,27.8576033 9.41955139,28.0226201 9.45461538,28.1807692 C9.45638754,28.3280142 9.43730943,28.4747689 9.39794872,28.6166667 C9.37925346,28.6878658 9.36901193,28.7610196 9.3674359,28.8346154 C9.3674359,28.9784615 9.43282051,29.1223077 9.45025641,29.2705128 C9.48076923,29.5146154 9.49820513,29.7587179 9.52,29.9984615 C9.52,30.09 9.55487179,30.1510256 9.66820513,30.1597436 C9.71179487,30.1597436 9.76846154,30.2164103 9.79025641,30.26 C9.85564103,30.3951282 9.90794872,30.5389744 9.96897436,30.6958974 C9.89230791,30.7548538 9.79522819,30.7806604 9.69940603,30.7675565 C9.60358387,30.7544527 9.51699715,30.7035293 9.45897436,30.6261538 C9.3697687,30.4596627 9.2246658,30.3299963 9.04923077,30.26 C8.76414713,30.136814 8.53554101,29.9113182 8.40846154,29.6279487 C8.21177726,29.3513277 8.11354817,29.0167348 8.12948718,28.6776923 C8.18220329,28.4369396 8.05049283,28.1939245 7.82,28.1066667 C7.77641026,28.1066667 7.74153846,28.0020513 7.73282051,27.9453846 C7.70666667,27.705641 7.69358974,27.4658974 7.67179487,27.2261538 C7.62384615,26.7161538 7.56282051,26.2105128 7.53230769,25.7048718 C7.53230769,25.325641 7.53230769,24.9420513 7.53230769,24.5628205 C7.53230769,24.3884615 7.53230769,24.2184615 7.53230769,24.0484615 C7.49557947,23.5972466 7.18579658,23.2147772 6.75205128,23.0851282 C6.51496912,23.041639 6.34702286,22.8289071 6.35974359,22.5882051 C6.36519652,22.3769192 6.24796916,22.1815403 6.05897436,22.0869231 C5.80655058,21.9456742 5.61550592,21.7157993 5.52282051,21.4417949 C5.48780888,21.361621 5.43746321,21.289064 5.37461538,21.2282051 C5.23467682,21.0967851 5.17494593,20.9010005 5.21769231,20.7138462 C5.22402158,20.5882924 5.21524068,20.4624329 5.19153846,20.3389744 C5.17345938,20.2545097 5.16613631,20.1680974 5.16974359,20.0817949 C5.20593754,19.8386745 5.29523197,19.606509 5.43128205,19.4017949 C5.58118636,19.181235 5.70549116,18.9443247 5.80179487,18.695641 C5.91065256,18.4191098 5.81932769,18.1039495 5.57948718,17.9284615 C5.500796,17.8914754 5.40971682,17.8914754 5.33102564,17.9284615 C5.16584595,18.0284438 4.95613788,18.0163119 4.80358974,17.8979487 C4.49092605,17.6983823 4.23436842,17.4223202 4.05820513,17.0958974 C4.02675226,17.0498251 3.98293648,17.0135638 3.93179487,16.9912821 C3.85391289,16.9655707 3.77356498,16.9480403 3.69205128,16.9389744 C3.47180467,16.9270707 3.26578372,16.8264192 3.12102564,16.66 C2.94468725,16.4738077 2.69170173,16.3803481 2.43666667,16.4071795 C2.40209718,16.4136732 2.36662077,16.4136732 2.33205128,16.4071795 C1.82434011,16.2742281 1.36292604,16.0043159 0.998205128,15.6269231 C0.884762969,15.4813478 0.841663192,15.2929858 0.880512821,15.1125641 C1.0143291,14.0951265 1.24345592,13.0925142 1.56487179,12.1179487 C2.05921177,10.6155431 2.7715123,9.19387935 3.67897436,7.89846154 C4.01461538,7.41025641 4.4025641,6.96128205 4.76435897,6.49051282 C4.82102564,6.42076923 4.87769231,6.39025641 4.95615385,6.44692308 C5.06792913,6.5128295 5.20179645,6.5301535 5.32666667,6.49487179 C5.62307692,6.46 5.92820513,6.47307692 6.19846154,6.41205128 C6.552323,6.33773565 6.8982593,6.22972179 7.23153846,6.08948718 C7.48187495,5.94797918 7.65251321,5.69846096 7.69358974,5.41384615 C7.71538462,5.33538462 7.74153846,5.25692308 7.76333333,5.17846154 C7.85051282,4.89076923 7.85051282,4.89076923 8.15128205,4.96051282 L8.75717949,5.09564103 C8.58717949,5.15666667 8.40846154,5.21333333 8.23846154,5.28307692 C8.13820513,5.32230769 8.12076923,5.38769231 8.19487179,5.47487179 C8.26897436,5.56205128 8.42589744,5.77128205 8.55230769,5.91076923 C8.59112864,5.95275412 8.64845635,5.97240933 8.70487179,5.96307692 C8.94898179,5.86320467 9.21451935,5.82719957 9.47641026,5.85846154 C9.4115004,5.97524606 9.33244278,6.08358428 9.24102564,6.18102564 C9.14678604,6.25363756 9.03591458,6.30158198 8.91846154,6.32051282 C8.61769231,6.38153846 8.30820513,6.42076923 8.00307692,6.46871795 C7.96854148,6.68189699 7.78311993,6.83765108 7.56717949,6.83487179 C7.17323628,6.89683935 6.80384564,7.06570364 6.49923077,7.32307692 C6.26891854,7.44333543 6.17012588,7.72071481 6.2725641,7.95948718 C6.30307692,8.05538462 6.33358974,8.1774359 6.49051282,8.10333333 C6.51666667,8.10333333 6.56461538,8.10333333 6.59948718,8.13384615 C6.74333333,8.20794872 6.88717949,8.29076923 7.03538462,8.36487179 C7.18358974,8.43897436 7.27948718,8.5174359 7.44076923,8.46512821 C7.46984993,8.4481118 7.50499417,8.44491687 7.53666667,8.45641026 Z" id="Path" fill="#FFFFFF"></path>
                    <path d="M12.1964103,4.36769231 C12.5712821,4.30666667 12.9287179,4.25871795 13.2774359,4.18897436 C13.4267634,4.14861618 13.5725467,4.09613417 13.7133333,4.03205128 C14.0884526,3.85034127 14.5052882,3.77209056 14.9207692,3.80538462 C15.3087179,3.86205128 15.7010256,3.88820513 16.0933333,3.91871795 C16.2406034,3.94701359 16.392078,3.89761967 16.494359,3.78794872 C16.5335897,3.73564103 16.6425641,3.72692308 16.7210256,3.71384615 C17.0261538,3.66589744 17.3312821,3.60923077 17.6407692,3.57871795 C17.802778,3.55697488 17.9669656,3.55697488 18.1289744,3.57871795 C18.5038462,3.63974359 18.8787179,3.70948718 19.2535897,3.77923077 C19.3138168,3.78631603 19.3702648,3.81225158 19.4148718,3.85333333 C19.2579487,3.85333333 19.1010256,3.85333333 18.9484615,3.88820513 C18.8494513,3.8959173 18.7523196,3.91946439 18.6607692,3.95794872 C18.5212821,4.02769231 18.3905128,4.10615385 18.3861538,4.31102564 C18.3817255,4.51987317 18.2364524,4.69922271 18.0330769,4.74692308 C17.8293903,4.82477616 17.6300421,4.91353704 17.4358974,5.01282051 C17.3312821,5.06076923 17.3312821,5.1174359 17.4358974,5.17410256 L17.8717949,5.41384615 C17.6320513,5.50974359 17.6320513,5.50974359 17.1351282,5.28307692 L17.3487179,5.63179487 C17.0261538,5.71461538 16.6992308,5.81051282 16.3679487,5.88461538 C16.0613679,5.94179633 15.7746558,6.07689626 15.5353846,6.27692308 C15.2942153,6.44576642 15.0099924,6.54252317 14.7158974,6.55589744 C14.5633333,6.58205128 14.4369231,6.6125641 14.4412821,6.82179487 C14.4216129,6.90740195 14.3740854,6.98405922 14.3061538,7.03974359 C14.2250407,7.11475128 14.1358638,7.18053752 14.0402564,7.23589744 C13.8792535,7.35417496 13.6649401,7.37041593 13.4879518,7.27775187 C13.3109634,7.1850878 13.202213,6.99970349 13.2076923,6.8 C13.1925488,6.69593264 13.1925488,6.59022121 13.2076923,6.48615385 C13.2369349,6.35893328 13.2854433,6.2369273 13.3515385,6.12435897 C13.3822033,6.07376088 13.4221312,6.02939658 13.4692308,5.99358974 C13.6747657,5.82487526 13.773424,5.55848736 13.727367,5.29659435 C13.6813099,5.03470135 13.4976868,4.81795603 13.2469231,4.72948718 C13.0118486,4.58718301 12.7485364,4.49792464 12.4753846,4.46794872 C12.3767319,4.45309416 12.281951,4.41903229 12.1964103,4.36769231 Z" id="Path" fill="#FFFFFF"></path>
                    <path d="M9.32820513,4.80358974 C9.45461538,4.58564103 9.59410256,4.52025641 9.81205128,4.62051282 C10.0258373,4.73327049 10.2768402,4.75221411 10.5051282,4.67282051 L10.54,4.71205128 C10.5094872,4.76 10.4833333,4.82974359 10.4397436,4.85153846 C10.3961538,4.87333333 10.2130769,4.89948718 10.1084615,4.93871795 C10.0572821,4.95869859 10.0174462,5.00012797 9.99948718,5.05205128 C9.99948718,5.0825641 10.0517949,5.14794872 10.0910256,5.16102564 L11.3987179,5.53153846 C11.4407716,5.55325145 11.469926,5.59374369 11.4771795,5.64051282 C11.4751195,5.6983395 11.4648457,5.75557931 11.4466667,5.81051282 C11.3769231,6.12435897 11.4466667,6.24641026 11.7866667,6.24641026 C11.790883,6.35800303 11.7131933,6.45604006 11.6035897,6.4774359 C11.394359,6.53410256 11.1676923,6.59512821 10.9802564,6.66487179 C10.8887179,6.69538462 10.7884615,6.72589744 10.8146154,6.86538462 C10.8146154,6.89153846 10.7928205,6.93076923 10.7710256,6.9525641 C10.5909829,7.08069704 10.3495299,7.08069704 10.1694872,6.9525641 C10.0947166,6.87007865 10.0708058,6.75341725 10.1070985,6.64816837 C10.1433912,6.54291949 10.2341261,6.46579109 10.3438462,6.44692308 C10.4658974,6.41641026 10.5966667,6.40769231 10.7230769,6.37282051 C10.7803995,6.36049969 10.8305337,6.32603241 10.8625641,6.27692308 C10.8625641,6.24641026 10.8233333,6.17230769 10.7841026,6.1374359 C10.4640871,5.84553842 10.048953,5.6797946 9.61589744,5.67102564 C9.37615385,5.67102564 9.13641026,5.63179487 8.89666667,5.60564103 C8.79641026,5.60564103 8.66564103,5.60564103 8.65692308,5.45307692 C8.64605502,5.38716541 8.66601378,5.31991009 8.71107615,5.27059656 C8.75613853,5.22128302 8.82132702,5.19535832 8.88794872,5.20025641 C9.04563195,5.19291324 9.2027922,5.17690617 9.35871795,5.15230769 C9.42410256,5.15230769 9.52871795,5.09128205 9.5374359,5.04333333 C9.55923077,4.93 9.48948718,4.85589744 9.36307692,4.85589744 C9.35871795,4.80358974 9.35,4.80358974 9.32820513,4.80358974 Z" id="Path" fill="#FFFFFF"></path>
                    <path d="M29.5364103,21.934359 C29.6861545,22.2897565 29.704694,22.6868107 29.5887179,23.0546154 C29.4579487,23.3771795 29.3794872,23.7258974 29.2705128,24.0571795 C29.2328632,24.1557273 29.1861681,24.2505768 29.1310256,24.3405128 C28.9653846,24.645641 28.9653846,24.645641 28.6297436,24.5846154 C28.5003896,24.5418955 28.3935026,24.4492008 28.3329084,24.3271935 C28.2723141,24.2051862 28.2630495,24.0640079 28.3071795,23.9351282 C28.3926826,23.8243123 28.4657694,23.7044499 28.5251282,23.5776923 C28.5575303,23.4341996 28.5575303,23.2852876 28.5251282,23.1417949 C28.5112757,22.9382262 28.6313515,22.7492834 28.8215385,22.6753846 C28.8700314,22.6652143 28.9150757,22.6426921 28.9523077,22.61 C29.1223077,22.44 29.2879487,22.27 29.4448718,22.095641 C29.4814853,22.0455794 29.5122012,21.9914609 29.5364103,21.934359 Z" id="Path" fill="#FFFFFF"></path>
                    <path d="M13.5258974,3.60487179 C13.2283855,3.83435489 12.8773727,3.98436034 12.5058974,4.04076923 C11.9917563,4.1258953 11.5014963,4.31902803 11.0674359,4.6074359 C10.9235897,4.69461538 10.7841026,4.76871795 10.6794872,4.55076923 C10.6576923,4.51153846 10.5792308,4.48974359 10.5269231,4.48102564 C10.3900561,4.46702577 10.2545073,4.44224802 10.1215385,4.40692308 C10.1601339,4.37099161 10.2042958,4.34155037 10.2523077,4.31974359 C10.365641,4.28487179 10.4833333,4.26307692 10.5966667,4.2325641 C10.71,4.20205128 10.8669231,4.17589744 10.9148718,4.00589744 C10.9467648,3.93462884 11.0093074,3.88170815 11.0848718,3.86205128 C11.3115385,3.80974359 11.5469231,3.77923077 11.7823077,3.74 C11.9294516,3.73626236 12.075692,3.71578871 12.2182051,3.67897436 C12.4765045,3.58032491 12.7530797,3.53868993 13.0289744,3.55692308 C13.1146419,3.56141805 13.2004863,3.56141805 13.2861538,3.55692308 L13.5346154,3.55692308 L13.5258974,3.60487179 Z" id="Path" fill="#FFFFFF"></path>
                    <path d="M20.0033333,8.53923077 C19.9030769,8.38666667 19.7592308,8.31692308 19.6589744,8.38230769 C19.3669231,8.58282051 19.3451282,8.63512821 19.4802564,8.84871795 L18.9048718,9.06666667 C18.8612821,8.86615385 19.0966667,8.68307692 18.9048718,8.5 C18.9856959,8.36352262 19.1342752,8.28172057 19.2928205,8.28641026 L19.5194872,8.28641026 C19.6415385,8.28641026 19.7374359,8.23846154 19.72,8.08589744 C19.7150602,8.03925496 19.7241676,7.99220022 19.7461538,7.95076923 C19.7941026,7.88102564 19.8464103,7.78512821 19.9161538,7.77205128 C19.9858974,7.75897436 20.06,7.82871795 20.1558974,7.87666667 C19.9815385,8.05538462 20.055641,8.15564103 20.2082051,8.23410256 C20.2451247,8.25169335 20.2767132,8.27876919 20.2997436,8.3125641 C20.3398356,8.43540139 20.3955026,8.55259504 20.4653846,8.66128205 C20.5705869,8.74570467 20.6882175,8.81334231 20.8141026,8.86179487 C20.7109671,8.95335994 20.6017423,9.03782713 20.4871795,9.11461538 C20.377476,9.18226103 20.2585475,9.23364988 20.1341026,9.26717949 C20.0328209,9.28037063 19.9302561,9.28037063 19.8289744,9.26717949 L19.8289744,9.21051282 L20.0425641,9.07538462 C19.9684615,8.98384615 19.8551282,8.90538462 19.8464103,8.81820513 C19.8376923,8.73102564 19.9423077,8.64384615 20.0033333,8.53923077 Z" id="Path" fill="#FFFFFF"></path>
                    <path d="M17.3835897,6.54717949 C17.4557731,6.51219931 17.530012,6.48163035 17.6058974,6.45564103 C17.8369231,6.39025641 18.0723077,6.32923077 18.3076923,6.2725641 C18.4253846,6.24641026 18.5517949,6.24641026 18.5910256,6.36846154 C18.6302564,6.49051282 18.5430769,6.54717949 18.4820513,6.58641026 C18.3451996,6.67602478 18.1990491,6.75056154 18.0461538,6.80871795 C17.9054356,6.88152341 17.7327662,6.84294833 17.6364103,6.71717949 C17.5884615,6.65615385 17.4882051,6.64307692 17.4097436,6.60384615 L17.3835897,6.54717949 Z" id="Path" fill="#FFFFFF"></path>
                    <path d="M10.6751282,9.80333333 C10.8601435,9.53821618 11.1217305,9.33594251 11.4248718,9.22358974 L11.2723077,9.35871795 C11.3420513,9.38923077 11.4074359,9.40230769 11.4379487,9.44153846 C11.4684615,9.48076923 11.6123077,9.62025641 11.5948718,9.67692308 C11.5646211,9.80150293 11.4417154,9.88023938 11.3158974,9.85564103 C11.1110256,9.82076923 10.9017949,9.82076923 10.6751282,9.80333333 Z" id="Path" fill="#FFFFFF"></path>
                    <path d="M25.8923077,31.2712821 L25.8661538,31.4630769 C20.0886743,34.9356071 12.7923967,34.6058463 7.35171918,30.6263031 C1.91104167,26.6467599 -0.613447023,19.793194 0.945784034,13.2352573 C2.50501509,6.67732049 7.84401424,1.69339667 14.4935897,0.588461538 C13.3089428,1.56546533 12.2227415,2.65604643 11.2505128,3.84461538 C11.0630769,4.07564103 10.8669231,4.31974359 10.6838462,4.56820513 C10.5007692,4.81666667 10.3830769,4.96923077 10.2479487,5.18282051 C10.1128205,5.39641026 10.03,5.50102564 9.92538462,5.66230769 C9.53074078,6.26727342 9.17407059,6.89617759 8.8574359,7.54538462 C8.25626132,8.76523751 7.83067725,10.0640027 7.59333333,11.4030769 C7.24255252,13.4466596 7.41347691,15.5457311 8.09025641,17.505641 C8.42724341,18.4996157 8.86544056,19.4563462 9.39794872,20.3607692 C10.2069071,21.7493303 11.1391246,23.0623127 12.1833333,24.2838462 C18.5125641,31.6417949 25.8923077,31.2712821 25.8923077,31.2712821 Z" id="Path" fill="url(#linearGradient-1)"></path>
                </g>
                <g id="Group" transform="translate(99.000000, 72.000000)">
                    <path d="M30.3040541,30.9101351 C29.7454054,33.0604054 27.2156757,32.6862162 27.2156757,32.6862162 C27.2156757,32.6862162 12.4589189,32.9602703 12.1690541,32.6862162 C11.8791892,32.4121622 12.09,31.59 12.1427027,31.2790541 L12.1690541,31.1683784 L16.3852703,31.1683784 C16.3852703,31.1683784 18.3774324,30.1143243 15.1151351,25.4395946 C12.3693243,21.4921622 22.7201351,21.312973 26.1036486,21.3604054 C26.7466216,21.3604054 27.1577027,21.3604054 27.1577027,21.3604054 C27.1577027,21.3604054 30.8574324,28.7598649 30.3040541,30.9101351 Z" id="Path" fill="#D62C2C"></path>
                    <path d="M28.5490541,29.4028378 C28.022027,31.5478378 25.4448649,31.1472973 25.4448649,31.1472973 C25.4448649,31.1472973 16.0901351,31.3317568 12.1268919,31.257973 L12.1532432,31.1472973 L16.3694595,31.1472973 C16.3694595,31.1472973 18.3616216,30.0932432 15.0993243,25.4185135 C12.3535135,21.4710811 22.7043243,21.2918919 26.0878378,21.3393243 C27.1418919,23.6108108 28.9548649,27.8586486 28.5490541,29.4028378 Z" id="Path" fill="#D62C2C"></path>
                    <path d="M29.1551351,29.7190541 C28.6017568,31.8640541 25.4659459,31.1472973 25.4659459,31.1472973 C25.4659459,31.1472973 16.1112162,31.3317568 12.147973,31.257973 L12.1743243,31.1472973 L16.3905405,31.1472973 C16.3905405,31.1472973 18.3827027,30.0932432 15.1204054,25.4185135 C12.3745946,21.4710811 22.7254054,21.2918919 26.1089189,21.3393243 C27.1418919,23.6108108 29.5556757,28.1748649 29.1551351,29.7190541 Z" id="Path" fill="url(#linearGradient-2)"></path>
                    <rect id="Rectangle" fill="#D62C2C" x="0.953918919" y="0.105405405" width="37.4927027" height="25.1602703" rx="2.815"></rect>
                    <rect id="Rectangle" fill="url(#linearGradient-3)" x="0.953918919" y="0.105405405" width="37.4927027" height="25.1602703" rx="2.815"></rect>
                    <rect id="Rectangle" fill="#D62C2C" x="0.158108108" y="0.105405405" width="37.4927027" height="25.1602703" rx="2.815"></rect>
                    <rect id="Rectangle" fill="url(#linearGradient-4)" x="0.158108108" y="0.105405405" width="37.4927027" height="25.1602703" rx="2.815"></rect>
                    <path d="M37.6244595,19.7951351 L37.6508108,22.2932432 C37.6508121,23.0810976 37.3374779,23.8366067 36.7798866,24.3932093 C36.2222954,24.9498118 35.4662315,25.2618048 34.6783784,25.2604054 L3.12527027,25.2604054 C1.48655186,25.2604054 0.158108108,23.9319617 0.158108108,22.2932432 L0.158108108,19.7951351 L37.6244595,19.7951351 Z" id="Path" fill="#D62C2C"></path>
                </g>
                <rect id="Rectangle" fill="url(#linearGradient-5)" x="150.53" y="77.665" width="13.96" height="1.325"></rect>
                <path d="M1.035,61.51 L0.935,63.31 C1.44806363,63.6517195 2.07906869,63.7674339 2.68,63.63 L2.68,62.63 C2.68,62.63 1.175,63.01 1.035,61.51 Z" id="Path" fill="url(#linearGradient-6)"></path>
                <path d="M113.005,50.95 L99.17,48.885 C98.7093326,48.8166038 98.3568648,48.4392559 98.32,47.975 L97.32,36.73 C97.2899887,36.4221969 97.4040818,36.1178267 97.6290283,35.9055945 C97.8539749,35.6933624 98.1644613,35.597151 98.47,35.645 L112.32,37.715 C112.7863,37.7795593 113.144434,38.1605972 113.18,38.63 L114.155,49.86 C114.186683,50.1686279 114.073323,50.4744811 113.848148,50.6879082 C113.622972,50.9013352 113.311489,50.9981595 113.005,50.95 Z" id="Path" fill="#D62C2C"></path>
                <path d="M112.345,49.67 L99.845,47.805 C99.4353672,47.7482 99.1163468,47.4209468 99.07,47.01 L98.13,37.25 C98.1105464,36.9782668 98.2173267,36.7127166 98.4194811,36.530094 C98.6216355,36.3474715 98.8966334,36.2681302 99.165,36.315 L111.665,38.18 C112.075484,38.2351109 112.395364,38.5632451 112.44,38.975 L113.38,48.74 C113.399851,49.0114612 113.292968,49.2768304 113.090508,49.4587511 C112.888048,49.6406718 112.6128,49.7186667 112.345,49.67 Z" id="Path" fill="url(#linearGradient-7)"></path>
                <path d="M99.2330344,49.8333234 L117.483034,49.8333234 C117.822689,49.8333234 118.098034,50.1086683 118.098034,50.4483234 C118.098034,50.6114315 118.03324,50.7678592 117.917905,50.883194 C117.80257,50.9985289 117.646143,51.0633234 117.483034,51.0633234 L99.2330344,51.0633234 C98.8961407,51.0633234 98.6230344,50.7902171 98.6230344,50.4533234 C98.6203536,50.2898157 98.6834358,50.1320784 98.7981248,50.0155092 C98.9128139,49.89894 99.0695047,49.8333014 99.2330344,49.8333234 Z" id="Path" fill="#D62C2C" transform="translate(108.360493, 50.448323) rotate(8.500000) translate(-108.360493, -50.448323) "></path>
                <rect id="Rectangle" fill="#D62C2C" transform="translate(114.492586, 51.361823) rotate(8.500000) translate(-114.492586, -51.361823) " x="106.600086" y="50.7443232" width="15.785" height="1.235" rx="0.555"></rect>
                <rect id="Rectangle" fill="url(#linearGradient-8)" transform="translate(114.492586, 51.361823) rotate(8.500000) translate(-114.492586, -51.361823) " x="106.600086" y="50.7443232" width="15.785" height="1.235" rx="0.555"></rect>
                <g id="Group-3" transform="translate(20.000000, 76.000000)">
                    <path d="M9.71261791,1.44894563 L30.9222323,1.46879476 C34.1177714,1.47178533 36.7075298,4.06151959 36.7105501,7.25705858 L36.7609846,60.6165051 C36.7640089,63.8162993 34.172515,66.4126967 30.9727208,66.4157211 C30.969088,66.4157245 30.9654553,66.4157246 30.9618225,66.4157212 L9.75220813,66.395872 C6.5566691,66.3928815 3.96691069,63.8031472 3.96389032,60.6076082 L3.9134559,7.24816173 C3.91043151,4.04836753 6.50192547,1.45197007 9.70171967,1.44894568 C9.70535242,1.44894224 9.70898517,1.44894223 9.71261791,1.44894563 Z" id="Rectangle" fill="#D62C2C" transform="translate(20.337220, 33.932333) rotate(-5.370000) translate(-20.337220, -33.932333) "></path>
                    <path d="M9.71261791,1.44894563 L30.9222323,1.46879476 C34.1177714,1.47178533 36.7075298,4.06151959 36.7105501,7.25705858 L36.7609846,60.6165051 C36.7640089,63.8162993 34.172515,66.4126967 30.9727208,66.4157211 C30.969088,66.4157245 30.9654553,66.4157246 30.9618225,66.4157212 L9.75220813,66.395872 C6.5566691,66.3928815 3.96691069,63.8031472 3.96389032,60.6076082 L3.9134559,7.24816173 C3.91043151,4.04836753 6.50192547,1.45197007 9.70171967,1.44894568 C9.70535242,1.44894224 9.70898517,1.44894223 9.71261791,1.44894563 Z" id="Rectangle" fill="url(#linearGradient-9)" transform="translate(20.337220, 33.932333) rotate(-5.370000) translate(-20.337220, -33.932333) "></path>
                    <path d="M10.9537485,1.45191646 L32.2875781,1.47188184 C35.4488617,1.47484035 38.0108585,4.03681329 38.0138465,7.1980969 L38.0631195,59.3286971 C38.0661114,62.4941903 35.5023976,65.0627551 32.3369045,65.065747 C32.3333107,65.0657504 32.3297168,65.0657504 32.326123,65.0657471 L10.9922935,65.0457817 C7.83100983,65.0428232 5.26901299,62.4808502 5.266025,59.3195666 L5.21675206,7.18896639 C5.21376009,4.0234732 7.77747387,1.45490848 10.9429671,1.45191651 C10.9465609,1.45191311 10.9501547,1.4519131 10.9537485,1.45191646 Z" id="Rectangle" fill="#D62C2C" transform="translate(21.639936, 33.258832) rotate(-5.370000) translate(-21.639936, -33.258832) "></path>
                    <path d="M11.4230474,1.34117389 L31.1949556,1.35967754 C34.0332598,1.36233379 36.3335046,3.66255717 36.3361873,6.50086133 L36.3801728,53.0373262 C36.3828591,55.8794098 34.0810727,58.1855515 31.238989,58.1882378 C31.2357624,58.1882409 31.2325358,58.1882409 31.2293091,58.1882379 L11.4574009,58.1697342 C8.61909672,58.167078 6.31885188,55.8668546 6.31616916,53.0285504 L6.2721837,6.49208559 C6.26949741,3.65000193 8.57128378,1.34386023 11.4133674,1.34117394 C11.4165941,1.34117089 11.4198207,1.34117087 11.4230474,1.34117389 Z" id="Rectangle" fill="#FFFFFF" transform="translate(21.326178, 29.764706) rotate(-5.370000) translate(-21.326178, -29.764706) "></path>
                </g>
                <g id="Group-2" transform="translate(47.000000, 88.000000)">
                    <path d="M3.62054686,2.08190583 L18.1523197,1.50748526 C20.3485021,1.42067326 22.2962125,2.09897214 22.5026527,3.02250821 L25.9821999,18.5886971 C26.1886402,19.5122332 24.5756355,20.3312822 22.3794531,20.4180942 L7.84768026,20.9925147 C5.65149793,21.0793267 3.70378752,20.4010279 3.49734731,19.4774918 L0.0178000598,3.91130286 C-0.188640157,2.98776678 1.42436453,2.16871784 3.62054686,2.08190583 Z" id="Rectangle" fill="#D62C2C"></path>
                    <path d="M3.62054686,2.08190583 L18.1523197,1.50748526 C20.3485021,1.42067326 22.2962125,2.09897214 22.5026527,3.02250821 L25.9821999,18.5886971 C26.1886402,19.5122332 24.5756355,20.3312822 22.3794531,20.4180942 L7.84768026,20.9925147 C5.65149793,21.0793267 3.70378752,20.4010279 3.49734731,19.4774918 L0.0178000598,3.91130286 C-0.188640157,2.98776678 1.42436453,2.16871784 3.62054686,2.08190583 Z" id="Rectangle" fill="url(#linearGradient-9)"></path>
                    <path d="M3.59285024,0.59716217 L18.2552374,0.00755644453 C20.4346193,-0.080081129 22.36743,0.604668282 22.572291,1.53698706 L25.9823361,17.0560435 C26.1871971,17.9883623 24.5865316,18.8152003 22.4071498,18.9028378 L7.74476261,19.4924436 C5.56538074,19.5800811 3.63257001,18.8953317 3.42770903,17.9630129 L0.0176638921,2.44395651 C-0.187197089,1.51163773 1.41346836,0.684799743 3.59285024,0.59716217 Z" id="Rectangle" fill="#D62C2C"></path>
                    <path d="M4.47811526,0.570828908 L17.8664868,0.00700019999 C19.7942952,-0.0741862017 21.5039949,0.560157476 21.6852081,1.42384646 L24.6843751,15.7183229 C24.8655883,16.5820118 23.4496931,17.3479847 21.5218847,17.4291711 L8.13351322,17.9929998 C6.20570484,18.0741862 4.49600506,17.4398425 4.31479188,16.5761535 L1.31562489,2.28167714 C1.13441171,1.41798815 2.55030688,0.652015309 4.47811526,0.570828908 Z" id="Rectangle" fill="#E16767"></path>
                </g>
                <circle id="Oval" fill="#FFFFFF" fill-rule="nonzero" cx="52.5" cy="92.5" r="1.5"></circle>
                <path d="M66.9139998,40.9348368 C65.7552864,40.9542688 64.7096756,40.3074024 64.307169,39.3221226 C63.9046623,38.3368428 64.2332523,37.2285428 65.1263824,36.5590002 C69.3094072,33.4067771 79.7133405,29.1930084 89.1966509,35.74866 C90.0216504,36.2698033 90.464716,37.1593285 90.3504158,38.0650277 C90.2361156,38.9707269 89.5828835,39.746532 88.649367,40.0852627 C87.7158505,40.4239934 86.6526041,40.2710202 85.8806206,39.686913 C77.5145711,33.8929812 68.9786979,40.1001865 68.6122364,40.3675987 C68.1332033,40.7253553 67.5345456,40.9253165 66.9139998,40.9348368 Z" id="Path" fill="#D62C2C"></path>
                <path d="M60.4338867,32.9529866 C59.7092945,32.9589641 59.0128808,32.6988126 58.5032599,32.2317839 C57.4455365,31.2650676 57.4455365,29.7059342 58.5032599,28.739218 C58.6641454,28.6014602 74.421993,14.5339556 94.5863174,27.6128452 C95.8204097,28.407226 96.1105342,29.958203 95.2343287,31.0770492 C94.3581232,32.1958955 92.6473888,32.4589266 91.4132965,31.6645458 C75.0923495,21.0896072 62.8918606,31.7942002 62.3823897,32.2560941 C61.8639678,32.7182904 61.1607415,32.969803 60.4338867,32.9529866 Z" id="Path" fill="#D62C2C"></path>
                <path d="M101.245192,23.6664888 C100.668096,23.6650314 100.105807,23.5007691 99.6363366,23.1964915 C75.3604921,7.12744689 54.7045729,22.4266684 53.8375784,23.0911473 C52.6786305,23.9273897 50.9960267,23.7752457 50.0420841,22.747952 C49.0881416,21.7206583 49.2095605,20.191574 50.3159721,19.2987555 C50.5573005,19.1123773 75.0476591,0.790587123 102.862986,19.1934113 C103.810765,19.8290813 104.202607,20.9438225 103.835279,21.9594578 C103.46795,22.9750932 102.424122,23.6630418 101.245192,23.6664888 Z" id="Path" fill="#D62C2C"></path>
            </g>
            <text id="IoT" font-family="Raleway-Bold, Raleway" font-size="24" font-weight="bold" fill="#D62C2C">
                <tspan x="109.368" y="135">IoT</tspan>
            </text>
            <g id="on_the_road_1" transform="translate(9.000000, 55.000000)">
                <path d="M34.1407333,15.54487 C37.0728201,15.5209781 40.0368252,15.6586409 42.9061758,15.0385894 C42.9667107,14.1944093 42.4285011,13.3980129 41.7340015,12.9508932 C41.039502,12.5037735 40.2096246,12.3444942 39.3984579,12.2364118 C36.8262782,11.8950991 34.2254821,11.9622239 31.6279878,12.0373127 C25.629537,12.2087276 19.6314531,12.3983458 13.6337361,12.6061673 C10.6348776,12.7093196 7.63601913,12.817402 4.63716063,12.9304144 C2.76608424,12.9998147 1.67315551,13.4264556 0.454754592,14.3172819 C0.179918539,14.5138426 0.0408284898,14.857726 0.0985308576,15.1980023 C0.156233225,15.5382786 0.400182256,15.8127584 0.723309084,15.900973 C5.698171,17.2434698 11.4841996,16.8953308 16.4623634,16.6211429 C22.3551534,16.2991712 28.2314338,15.5915161 34.1407333,15.54487 Z" id="Path" fill="url(#linearGradient-10)"></path>
                <path d="M14.7916022,14.2365045 C15.3188055,14.3286589 15.827298,14.5095547 16.3523001,14.6096731 C17.01268,14.7359588 17.6950725,14.7302703 18.36866,14.723444 C23.3106836,14.6451677 28.2455102,14.3034007 33.1534654,13.6995058 C33.4831773,13.6787742 33.8068549,13.5986904 34.1099156,13.4628623 C34.4048853,13.3104093 34.6382195,13.0578378 34.9034721,12.8553256 C35.7234438,12.2295856 36.8086681,12.1044376 37.8256532,12.1863526 C38.8426382,12.2682677 39.8387112,12.5333539 40.8556963,12.6004788 C40.9989632,12.6232514 41.1455433,12.6006427 41.2761381,12.5356293 C41.510573,12.3888649 41.5182774,12.0464144 41.4962648,11.7654003 C41.4060128,10.6914028 41.2244084,9.52525097 40.4517639,8.8073565 C39.6306915,8.03940283 38.4100894,8.0109601 37.303953,8.02688803 C36.3970313,8.03940283 35.4824051,8.05305534 34.5974961,8.25442986 C33.658656,8.47287001 32.7792501,8.90292407 31.8558189,9.18166281 C30.0023526,9.73914028 28.0333199,9.66974003 26.1039099,9.59578893 L15.41346,9.18507593 C13.9353096,9.12932819 12.4285428,9.07130502 11.0043235,9.48543115 C9.58010418,9.89955727 7.37993848,11.2784607 7.51201446,13.0965199 C7.62207778,14.6585946 7.8818272,15.2661313 8.91201985,15.1819408 C10.1623391,15.0738584 13.5412829,14.0157889 14.7916022,14.2365045 Z" id="Path" fill="#D62C2C"></path>
                <path d="M14.7916022,14.2365045 C15.3188055,14.3286589 15.827298,14.5095547 16.3523001,14.6096731 C17.01268,14.7359588 17.6950725,14.7302703 18.36866,14.723444 C23.3106836,14.6451677 28.2455102,14.3034007 33.1534654,13.6995058 C33.4831773,13.6787742 33.8068549,13.5986904 34.1099156,13.4628623 C34.4048853,13.3104093 34.6382195,13.0578378 34.9034721,12.8553256 C35.7234438,12.2295856 36.8086681,12.1044376 37.8256532,12.1863526 C38.8426382,12.2682677 39.8387112,12.5333539 40.8556963,12.6004788 C40.9989632,12.6232514 41.1455433,12.6006427 41.2761381,12.5356293 C41.510573,12.3888649 41.5182774,12.0464144 41.4962648,11.7654003 C41.4060128,10.6914028 41.2244084,9.52525097 40.4517639,8.8073565 C39.6306915,8.03940283 38.4100894,8.0109601 37.303953,8.02688803 C36.3970313,8.03940283 35.4824051,8.05305534 34.5974961,8.25442986 C33.658656,8.47287001 32.7792501,8.90292407 31.8558189,9.18166281 C30.0023526,9.73914028 28.0333199,9.66974003 26.1039099,9.59578893 L15.41346,9.18507593 C13.9353096,9.12932819 12.4285428,9.07130502 11.0043235,9.48543115 C9.58010418,9.89955727 7.37993848,11.2784607 7.51201446,13.0965199 C7.62207778,14.6585946 7.8818272,15.2661313 8.91201985,15.1819408 C10.1623391,15.0738584 13.5412829,14.0157889 14.7916022,14.2365045 Z" id="Path" fill="url(#linearGradient-11)"></path>
                <path d="M8.90981858,15.1762523 L8.70510081,15.1899048 C5.93810903,15.3969678 1.88117518,14.5664402 1.32315416,14.2740489 C0.765133145,13.9816577 0.321577978,12.7176628 0.552710943,11.0338533 C0.681485024,11.8165972 0.980857245,12.3558713 1.32315416,12.5322162 C1.88337644,12.8246075 5.93810903,13.6551351 8.70510081,13.4480721 L8.72161031,13.4480721 C8.70950335,13.5754955 8.70510081,13.7040566 8.70510081,13.8371686 C8.70491816,14.2918704 8.7740035,14.743766 8.90981858,15.1762523 Z" id="Path" fill="#D62C2C"></path>
                <path d="M34.3322435,13.8144144 L29.5797095,14.3138687 C29.5797095,14.3138687 22.8317275,14.5618893 16.9422394,14.8008082 C17.0136913,14.4833216 17.0506081,14.1585776 17.0523028,13.8326178 C17.0533805,13.5730819 17.0305309,13.3140304 16.9840635,13.0589755 C22.8647465,12.8200566 29.5830114,12.572036 29.5830114,12.572036 L34.1935637,12.0862342 C34.1714994,12.2620493 34.1601039,12.4391197 34.1594441,12.6164067 C34.1569251,13.022565 34.2152144,13.4266809 34.3322435,13.8144144 Z" id="Path" fill="#D62C2C"></path>
                <path d="M8.90981858,15.1762523 L8.70510081,15.1899048 C5.93810903,15.3969678 1.88117518,14.5664402 1.32315416,14.2740489 C0.765133145,13.9816577 0.321577978,12.7176628 0.552710943,11.0338533 C0.681485024,11.8165972 0.980857245,12.3558713 1.32315416,12.5322162 C1.88337644,12.8246075 5.93810903,13.6551351 8.70510081,13.4480721 L8.72161031,13.4480721 C8.70950335,13.5754955 8.70510081,13.7040566 8.70510081,13.8371686 C8.70491816,14.2918704 8.7740035,14.743766 8.90981858,15.1762523 Z" id="Path" fill="url(#linearGradient-12)"></path>
                <path d="M34.3322435,13.8144144 L29.5797095,14.3138687 C29.5797095,14.3138687 22.8317275,14.5618893 16.9422394,14.8008082 C17.0136913,14.4833216 17.0506081,14.1585776 17.0523028,13.8326178 C17.0533805,13.5730819 17.0305309,13.3140304 16.9840635,13.0589755 C22.8647465,12.8200566 29.5830114,12.572036 29.5830114,12.572036 L34.1935637,12.0862342 C34.1714994,12.2620493 34.1601039,12.4391197 34.1594441,12.6164067 C34.1569251,13.022565 34.2152144,13.4266809 34.3322435,13.8144144 Z" id="Path" fill="url(#linearGradient-13)"></path>
                <path d="M41.3795976,12.6869447 L41.3795976,12.6209575 C41.3795976,10.49913 39.7638682,8.7698121 37.7706215,8.7698121 C36.055835,8.7698121 34.6184081,10.0474595 34.2485954,11.7540232 C34.2214773,11.8663614 34.2012586,11.9803597 34.1880605,12.0953359 L29.5775082,12.5811377 C29.5775082,12.5811377 22.8636459,12.8291583 16.9785603,13.0680772 C16.9785603,13.0316705 16.9653527,13.0009524 16.9609502,12.9702342 C16.5592264,10.9678278 14.8526667,9.53207353 12.8742993,9.53207353 C10.8959318,9.53207353 9.18937207,10.9678278 8.7876483,12.9702342 C8.75620457,13.1280562 8.73342176,13.2875903 8.71940904,13.4480721 L8.70289955,13.4480721 C5.93590776,13.6551351 1.87897391,12.8246075 1.32095289,12.5322162 C0.978655979,12.3558713 0.679283758,11.8165972 0.550509677,11.0338533 C0.550509677,11.0202008 0.550509677,11.0110991 0.550509677,10.9985843 C0.79485024,9.29202059 1.71387893,8.50927671 3.00161974,7.47168597 C4.14737887,6.54786615 7.95446899,5.45111454 9.41280794,5.05291634 L9.82334411,4.93914543 C10.4044784,4.77986615 13.6337361,3.16659459 15.938462,1.99475418 C17.5296163,1.18582808 19.2652426,0.725297802 21.0365948,0.642018018 C21.807038,0.606749035 22.6963496,0.566929215 23.6241834,0.528247104 C25.3312654,0.457709138 27.1825304,0.391722008 28.7311213,0.368967825 C32.8540931,0.307531532 36.6776928,1.49188674 36.8868131,1.55446075 C37.0959334,1.61703475 38.3627621,3.66718662 38.9053743,4.35208752 C39.4479864,5.03698842 41.2233077,6.65594852 41.2233077,6.65594852 C41.2233077,6.65594852 41.7736243,6.71738481 42.1390345,8.99849163 C42.1390345,9.03831145 42.1522421,9.07358044 42.155544,9.11226255 C42.3420402,10.3623283 42.0648989,11.6390817 41.3795976,12.6869447 Z" id="Path" fill="#D62C2C"></path>
                <path d="M0.897209125,10.213565 C1.88777898,10.6458945 2.98841214,10.7664916 4.06152948,10.7699048 C4.58342046,10.7875451 5.10519197,10.7312753 5.61232161,10.6026615 C6.10129595,10.4417351 6.57184396,10.2261936 7.0156289,9.95985586 C8.27695451,9.26585328 9.54158202,8.5790562 10.8095114,7.89946461 C11.359828,7.60366023 11.9200503,7.30671815 12.5231973,7.15881596 C13.099929,7.01774003 13.6975729,7.01546461 14.2897135,7.0143269 L19.0565558,7.00636293 C23.5691517,6.99839897 28.0916534,5.50231145 32.5943437,5.25997941 C34.7742864,5.14278761 36.9589204,5.1541832 39.1376079,5.29411068 C38.3229451,4.9214955 37.5659819,4.42656228 36.8912156,3.82532819 C36.7008061,3.65580952 36.5070946,3.45898584 36.4586668,3.204139 C36.4157421,2.97659717 36.4993902,2.73767825 36.4916858,2.50331017 C36.4773775,2.07098069 36.1460869,1.70691377 35.761966,1.53056885 C35.377845,1.35422394 34.9474974,1.3371583 34.5292568,1.32123037 C30.9089074,1.17939597 27.2885581,1.0421124 23.6682087,0.909379665 C22.2252786,0.858182754 20.7757448,0.809261261 19.3427204,0.993570142 C14.5802807,1.60793308 10.4969316,4.70250193 5.97773182,6.37379665 C4.91672145,6.76744402 3.82159145,7.08486486 2.8244178,7.62527671 C1.82724415,8.16568855 1.30884593,9.12932819 0.897209125,10.213565 Z" id="Path" fill="url(#linearGradient-14)"></path>
                <path d="M23.6307872,0.53393565 C23.571353,0.631778636 23.3699371,0.714831403 22.9847155,0.781956242 C20.4873789,1.21542342 16.0606323,4.5125045 14.2897135,5.19854311 C12.5187947,5.88458172 9.47334276,5.25997941 9.47334276,5.25997941 C9.45272853,5.19160795 9.43582582,5.12209938 9.42271364,5.05177864 L9.83324981,4.93800772 C10.4143841,4.77872844 13.6436418,3.16545689 15.9483677,1.99361647 C17.539522,1.18469037 19.2751483,0.724160092 21.0465005,0.640880309 C21.8180444,0.609024453 22.7029534,0.569204633 23.6307872,0.53393565 Z" id="Path" fill="url(#linearGradient-15)"></path>
                <path d="M16.1508842,5.73554183 C16.0424532,5.82593406 16.0029766,5.97840668 16.0532345,6.11269962 C16.1034923,6.24699256 16.231959,6.33230828 16.3710108,6.32373745 C19.715835,6.09619562 30.3303413,5.35668468 31.3396219,5.1473462 C32.5437146,4.8981879 35.191838,4.65016731 35.6320912,3.78209524 C36.0723445,2.91402317 35.8026894,1.93559331 35.8026894,1.93559331 C35.8026894,1.93559331 27.8275015,0.477050193 23.8289012,1.40314543 C20.6898954,2.12672844 17.6279339,4.50567825 16.1508842,5.73554183 Z" id="Path" fill="url(#linearGradient-16)"></path>
                <path d="M3.93055413,9.08950837 C3.93055413,9.08950837 6.86043962,6.72421107 7.50210876,6.55810553 C8.1437779,6.392 12.0785415,6.51714801 12.0785415,6.51714801 C12.0785415,6.51714801 10.9140716,7.42731532 10.231679,7.67874903 C9.54928645,7.93018275 4.85288473,9.2556139 3.93055413,9.08950837 Z" id="Path" fill="url(#linearGradient-17)"></path>
                <ellipse id="Oval" fill="#606161" cx="12.8489847" cy="13.6039382" rx="3.26007544" ry="3.36989447"></ellipse>
                <ellipse id="Oval" fill="url(#linearGradient-18)" cx="12.8489847" cy="13.6039382" rx="3.26007544" ry="3.36989447"></ellipse>
                <ellipse id="Oval" fill="#D62C2C" cx="12.8875068" cy="13.6471712" rx="2.33444295" ry="2.41308108"></ellipse>
                <ellipse id="Oval" fill="#606161" cx="37.7882316" cy="12.6380232" rx="3.07076654" ry="3.17420849"></ellipse>
                <ellipse id="Oval" fill="url(#linearGradient-19)" cx="37.7882316" cy="12.6380232" rx="3.07076654" ry="3.17420849"></ellipse>
                <ellipse id="Oval" fill="#D62C2C" cx="37.8234519" cy="12.6789807" rx="2.19906507" ry="2.27314286"></ellipse>
                <ellipse id="Oval" fill="url(#linearGradient-20)" cx="12.8963119" cy="13.7006435" rx="1.93821501" ry="2.00350579"></ellipse>
                <ellipse id="Oval" fill="url(#linearGradient-21)" cx="37.8333576" cy="12.6676036" rx="1.75771117" ry="1.81692149"></ellipse>
            </g>
        </g>
    </g>
</svg>