<?xml version="1.0"?>
<svg xmlns="http://www.w3.org/2000/svg" xmlns:xlink="http://www.w3.org/1999/xlink" version="1.1" id="Capa_1" x="0px" y="0px" viewBox="0 0 512.001 512.001" style="enable-background:new 0 0 512.001 512.001;" xml:space="preserve" width="512px" height="512px" class=""><g><g>
	<path style="fill:#2D4352" d="M439.793,129.812c-3.984,0-8.101-1.582-10.913-4.395l-42.29-42.29   c-2.813-2.813-4.395-6.621-4.395-10.605s1.582-8.101,4.395-10.913l42.29-42.305c5.625-5.625,15.586-5.625,21.211,0l42.612,42.612   c2.813,2.813,4.395,6.621,4.395,10.605s-1.582,7.793-4.395,10.605l-42.305,42.29C447.586,128.23,443.777,129.812,439.793,129.812z" data-original="#C5C9F7" class="" data-old_color="#C5C9F7"/>
	
		<rect x="211.001" y="131.386" transform="matrix(-0.7071 -0.7071 0.7071 -0.7071 256.0041 618.0307)" style="fill:#2D4352" width="89.999" height="249.218" data-original="#C5C9F7" class="" data-old_color="#C5C9F7"/>
	<path style="fill:#2D4352" d="M72.584,497.021c-3.838,0-7.676-1.465-10.605-4.395l-42.612-42.598   c-2.813-2.813-4.395-6.621-4.395-10.605s1.582-7.793,4.395-10.605l42.305-42.29c5.859-5.859,15.352-5.859,21.211,0l42.598,42.598   c5.859,5.859,5.859,15.352,0,21.211l-42.29,42.29C80.26,495.556,76.422,497.021,72.584,497.021z" data-original="#C5C9F7" class="" data-old_color="#C5C9F7"/>
</g><g>
	<path style="fill:#12233D" d="M61.979,492.626c2.93,2.93,6.768,4.395,10.605,4.395s7.676-1.465,10.605-4.395l42.29-42.29   c5.859-5.859,5.859-15.352,0-21.211l-21.299-21.299l-63.505,63.505L61.979,492.626z" data-original="#A8AFF1" class="" data-old_color="#A8AFF1"/>
	<path style="fill:#12233D" d="M428.88,125.417c2.813,2.813,6.929,4.395,10.913,4.395s7.793-1.582,10.605-4.395l42.305-42.29   c2.813-2.813,4.395-6.621,4.395-10.605s-1.582-7.793-4.395-10.605L471.397,40.61l-63.662,63.662L428.88,125.417z" data-original="#A8AFF1" class="" data-old_color="#A8AFF1"/>
	
		<rect x="147.309" y="249.415" transform="matrix(0.7071 -0.7071 0.7071 0.7071 -112.6282 271.9159)" style="fill:#12233D" width="249.218" height="44.994" data-original="#A8AFF1" class="" data-old_color="#A8AFF1"/>
</g><path style="fill:#1B2F5A" d="M471.393,231.525L280.475,40.607l31.82-31.82c11.716-11.716,30.711-11.716,42.426,0l148.492,148.492  c11.716,11.716,11.716,30.711,0,42.426L471.393,231.525z" data-original="#1689FC" class="" data-old_color="#1689FC"/><path style="fill:#1B2F5A" d="M428.967,295.165L216.835,83.033c-5.858-5.858-5.858-15.355,0-21.213l21.213-21.213  c11.716-11.716,30.711-11.716,42.426,0l190.919,190.919c11.716,11.716,11.716,30.711,0,42.426l-21.213,21.213  C444.322,301.023,434.825,301.023,428.967,295.165z" data-original="#17ACE8" class="" data-old_color="#17ACE8"/><path style="fill:#1B2F5A" d="M40.607,280.475l190.919,190.919l-31.82,31.82c-11.716,11.716-30.711,11.716-42.426,0L8.787,354.721  c-11.716-11.716-11.716-30.711,0-42.426L40.607,280.475z" data-original="#1689FC" class="" data-old_color="#1689FC"/><path style="fill:#1B2F5A" d="M83.033,216.835l212.132,212.132c5.858,5.858,5.858,15.355,0,21.213l-21.213,21.213  c-11.716,11.716-30.711,11.716-42.426,0L40.607,280.475c-11.716-11.716-11.716-30.711,0-42.426l21.213-21.213  C67.678,210.977,77.175,210.977,83.033,216.835z" data-original="#17ACE8" class="" data-old_color="#17ACE8"/><g>
	<path style="fill:#1B2F5A" d="M157.28,503.214c11.715,11.715,30.71,11.715,42.426,0l31.82-31.82l-95.455-95.457L83.038,428.97   L157.28,503.214z" data-original="#136EF1" class="active-path" data-old_color="#136EF1"/>
	<path style="fill:#1B2F5A" d="M375.939,136.069l95.455,95.457l31.82-31.82c11.715-11.715,11.715-30.71,0-42.426l-74.242-74.244   L375.939,136.069z" data-original="#136EF1" class="active-path" data-old_color="#136EF1"/>
</g><g>
	<path style="fill:#1B2F5A" d="M231.525,471.393c11.715,11.715,30.71,11.715,42.427,0l21.213-21.215   c5.858-5.858,5.858-15.355,0-21.213L189.103,322.904l-53.033,53.033L231.525,471.393z" data-original="#1689FC" class="" data-old_color="#1689FC"/>
	<path style="fill:#1B2F5A" d="M428.968,295.165c5.858,5.858,15.355,5.858,21.213,0l21.213-21.215   c11.715-11.715,11.715-30.71,0-42.426l-95.455-95.457L322.906,189.1L428.968,295.165z" data-original="#1689FC" class="" data-old_color="#1689FC"/>
</g></g> </svg>
