<svg width="70" height="47" viewBox="0 0 70 47" fill="none" xmlns="http://www.w3.org/2000/svg">
<path fill-rule="evenodd" clip-rule="evenodd" d="M15.4778 15.6667C6.92222 15.6667 0 22.7167 0 31.3333C0 39.95 7 47 15.5556 47C24.1111 47 31.1111 39.95 31.1111 31.3333C31.1111 14.0217 17.1889 0 0 0C0 0 10.1889 3.83833 15.4778 15.6667ZM38.8889 31.3333C38.8889 39.95 45.8889 47 54.4444 47C63 47 70 39.95 70 31.3333C70 14.0217 56.0778 0 38.8889 0C38.8889 0 49.0778 3.83833 54.3667 15.6667C45.8111 15.6667 38.8889 22.7167 38.8889 31.3333Z" fill="black" fill-opacity="0.05"/>
</svg>
