<svg width="70" height="47" viewBox="0 0 70 47" fill="none" xmlns="http://www.w3.org/2000/svg">
<path fill-rule="evenodd" clip-rule="evenodd" d="M54.5222 31.3333C63.0778 31.3333 70 24.2833 70 15.6667C70 7.05 63 -6.11959e-07 54.4444 -1.35991e-06C45.8889 -2.10786e-06 38.8889 7.05 38.8889 15.6667C38.8889 32.9783 52.8111 47 70 47C70 47 59.8111 43.1617 54.5222 31.3333ZM31.1111 15.6667C31.1111 7.05 24.1111 -4.01173e-06 15.5556 -4.75968e-06C7 -5.50763e-06 3.49254e-06 7.04999 2.73925e-06 15.6667C1.22581e-06 32.9783 13.9222 47 31.1111 47C31.1111 47 20.9222 43.1617 15.6333 31.3333C24.1889 31.3333 31.1111 24.2833 31.1111 15.6667Z" fill="black" fill-opacity="0.05"/>
</svg>
