<svg xmlns="http://www.w3.org/2000/svg" width="160" height="160" fill="none" fill-rule="evenodd"><path fill="#fff" d="M0 0h160v160H0z"/><g fill-rule="nonzero"><rect fill="#d62c2c" x="11" y="72" width="66" height="37" rx="2"/><path d="M130.814 121.206l-15.132-2.747v-3.57l.88-.5c4.757-2.756 8.13-7.423 9.183-12.8l.225-1.154 1.15-.238c3.026-.625 5.24-3.303 5.24-6.42V73.2c0-5.008-3.282-9.395-8.08-10.825l-.427-.127-1.358-1.355a23.76 23.76 0 0 0-16.906-6.986c-13.18 0-23.906 10.7-23.906 23.85V93.76c0 3.116 2.213 5.794 5.24 6.42l1.15.238.226 1.153c1.055 5.4 4.428 10.06 9.182 12.8l.88.5v3.57l-15.132 2.745a12.76 12.76 0 0 0-9.994 8.914L69.067 144h75.913l-4.172-13.88c-1.395-4.636-5.22-8.047-9.993-8.913zm-4.708-34.103l2.655 1.545c1.815 1.056 2.963 2.98 2.963 5.1s-1.148 4.053-2.963 5.1l-2.655 1.545v-13.3zm-40.82 11.763c-1.815-1.056-2.963-2.98-2.963-5.1s1.148-4.053 2.963-5.1L87.94 87.1v13.308l-2.655-1.545zm2.655-11.77l-1.32.344a6.46 6.46 0 0 0-1.64.678l-2.656 1.547v-11.9c0-12.806 10.437-23.22 23.27-23.22a23.18 23.18 0 0 1 16.454 6.8l1.5 1.488.1.022a10.66 10.66 0 0 1 8.101 10.354v16.456l-2.656-1.547c-.52-.303-1.067-.53-1.637-.677l-1.325-.342v-1.98h-4.845c-6.206 0-12.13-2.953-15.85-7.906l-.437-.582-2.704 2.7a19.73 19.73 0 0 1-14.01 5.79h-.32v1.974zm.637 10.822V85.8l1.604-.148a20.32 20.32 0 0 0 12.543-5.889l2.122-2.117 1.245 1.37a20.59 20.59 0 0 0 15.172 6.723h4.208v12.168c0 10.153-8.275 18.4-18.446 18.4s-18.446-8.256-18.446-18.4zm31.588 21.994l10.534 1.9a12.14 12.14 0 0 1 9.497 8.473l3.93 13.076H69.92l3.933-13.074a12.13 12.13 0 0 1 9.497-8.473l10.534-1.9 4.662 13.957 8.477-8.462 8.48 8.46 4.662-13.958zm-50.53-71.35v-10.5l-5.215-1.4-.323-.843-.504-1.207-.377-.828 2.712-4.684-7.415-7.415-4.686 2.713-.83-.38-1.202-.504-.84-.323L49.562 18H39.074l-1.393 5.217-.842.322-1.2.503-.83.38-4.686-2.714-7.414 7.414 2.714 4.688-.382.83-.503 1.2-.323.843-5.215 1.4v10.5l5.215 1.4.323.843.503 1.2.382.83-2.714 4.688 7.415 7.415 4.686-2.713.83.38 1.202.504.84.323 1.393 5.213H49.56l1.393-5.217.842-.322 1.2-.503.83-.38 4.686 2.713 7.415-7.415-2.712-4.684.377-.828.502-1.2.32-.85 5.22-1.4zm-4.5 8.845l-6.728 6.73-4.58-2.654-.154.08c-1.013.52-2.046.953-3.074 1.285l-.164.053-1.36 5.1H39.56l-1.36-5.1-.17-.055a20.96 20.96 0 0 1-3.067-1.282l-.155-.08-4.58 2.654-6.728-6.73 2.652-4.578-.078-.153c-.522-1.015-.954-2.05-1.284-3.076l-.053-.165-5.103-1.36V38.56l5.103-1.36.053-.166a20.57 20.57 0 0 1 1.282-3.072l.08-.155L23.5 29.23l6.728-6.73 4.58 2.654.154-.08c1.013-.52 2.046-.953 3.074-1.285l.164-.053 1.36-5.1h9.515l1.36 5.1.17.055a20.96 20.96 0 0 1 3.067 1.282l.155.08 4.58-2.654 6.728 6.73-2.652 4.578.078.153c.522 1.015.954 2.05 1.284 3.076l.053.165L69 38.56v9.515l-5.103 1.36-.053.166a20.57 20.57 0 0 1-1.282 3.072l-.08.155 2.652 4.578z" fill="#1d1e1f"/><path d="M51.342 48.533c1.13-1.516 1.724-3.314 1.724-5.215 0-4.822-3.926-8.748-8.748-8.748s-8.748 3.926-8.748 8.748 3.926 8.748 8.748 8.748c1.954 0 3.8-.623 5.33-1.808l.96-.738.735-.986zm5.93-5.215c0-7.14-5.813-12.953-12.953-12.953s-12.953 5.813-12.953 12.953S37.177 56.27 44.318 56.27c2.292 0 4.48-.582 6.423-1.698l-.415-.54c-1.824 1.027-3.874 1.564-6.008 1.564-6.773 0-12.28-5.507-12.28-12.28s5.507-12.28 12.28-12.28 12.28 5.507 12.28 12.28c0 2.063-.505 4.053-1.47 5.834l.546.407c1.05-1.9 1.597-4.025 1.597-6.24z" fill="#d62c2c"/><path d="M138.2 49.006v-11.8C138.2 26.6 129.668 18 119.193 18h-10.697v.66h10.697c10.142 0 18.385 8.318 18.385 18.537v11.8l-4.452-4.493-.45.455 5.214 5.26 5.214-5.26-.45-.455-4.452 4.493zM25.87 124.804v-11.798l4.462 4.486.457-.46-5.238-5.266-5.238 5.266.457.46 4.462-4.486v11.798c0 9.986 7.623 18.215 17.318 19.115v-.663c-9.35-.896-16.68-8.83-16.68-18.452zM19 80.4v1.223h50.636V80.4zm0 17.076v1.223h50.636v-1.223zm0-8.243v1.223h21.785v-1.223zm28.85 0v1.223h21.785v-1.223zM100.252 18v1.223h1.223V18zM92 18v1.223h1.223V18zM50.206 143.4v1.223h1.223V143.4zm8.244 0v1.223h1.223V143.4z" fill="#1d1e1f"/><g fill="#d62c2c"><rect x="48" y="141" width="7" height="7" rx="2"/><rect x="57" y="141" width="7" height="7" rx="2"/><rect x="88" y="16" width="7" height="7" rx="2"/><rect x="98" y="16" width="7" height="7" rx="2"/><path d="M93.5 135.67c11.5 8 27.5 5 33-12.5 7.667-1.333 13.167 5.167 16.5 19.5H72c6.667-10 13.833-12.333 21.5-7z"/></g></g></svg>