<svg xmlns="http://www.w3.org/2000/svg" width="160" height="160" fill="none" fill-rule="evenodd"><path fill="#fff" d="M0 0h160v160H0z"/><path d="M21.6 61v44.112c0 3.47 1.708 6.605 4.32 8.605-3.282-1.503-5.41-4.344-5.41-8.605v-62.68c0-6.7 5.258-11.932 11.998-11.932h99.8c6.74 0 11.998 5.232 11.998 11.932v1.5h.205v61.18c0 6.626-5.388 11.932-11.998 11.932H94.447l3.714 17.246h14.913c.4 0 .545.144.545.535v8.14c0 .39-.145.535-.545.535H51.72c-.4 0-.545-.144-.545-.535l8.824.954c0-.39 12.1-.507 12.5-.507v-.98h40.03v-7.07H72.5v-1.07h24.435l-3.714-17.246H71.574l-.317 1.47L70 116l-.987-.026h63.285c5.94 0 10.907-4.944 10.907-10.86v-8.42H61.5l-1.197-1.07h82.902v-53.19c0-5.918-4.968-10.86-10.907-10.86h-99.8c-5.94 0-10.907 4.944-10.907 10.86V61z" fill="#1d1e1f" fill-rule="nonzero"/><path d="M45.054 105.882H29.488C16.537 105.882 6 116.36 6 129.237v18.933l.05.295 1.313.41c12.358 3.838 23.098 5.12 31.936 5.12 17.264 0 27.27-4.896 27.886-5.206l1.228-.62h.13v-18.933c0-12.878-10.537-23.355-23.5-23.355z" fill="#d62c2c"/><path d="M15.354 84.488c0-3.967 2.14-7.44 5.344-9.36v-2.073C20.698 61.446 30.276 52 42.05 52S63.4 61.446 63.4 73.055v2.832c2.58 2.003 4.244 5.1 4.244 8.6 0 5.124-3.577 9.413-8.4 10.604a6.67 6.67 0 0 1-1.327 2.079c-1.5 1.597-3.758 2.578-6.74 2.946-.195.6-.74 1.024-1.403 1.024h-2.836c-.827 0-1.497-.66-1.497-1.474s.67-1.474 1.497-1.474h2.836c.53 0 .973.287 1.24.698 2.68-.327 4.688-1.182 5.978-2.56.294-.317.516-.638.7-.957a11.11 11.11 0 0 1-1.158.06v-21.9a11.23 11.23 0 0 1 3.404.527v-1.016c0-9.732-8.03-17.65-17.898-17.65s-17.9 7.917-17.9 17.65v.727a11.33 11.33 0 0 1 2.3-.236v21.888c-6.128 0-11.096-4.9-11.096-10.944zm31.514 12.63h2.837c.63 0 1.234.223 1.716.617a11.02 11.02 0 0 0 2.311-.635c.313-.273.63-.544.92-.837V70.78h.086a18.54 18.54 0 0 0-13.24-5.525 18.54 18.54 0 0 0-13.24 5.526h.084v25.484a18.55 18.55 0 0 0 13.157 5.432 18.65 18.65 0 0 0 3.132-.282 2.68 2.68 0 0 1-.52-1.58c0-1.498 1.24-2.716 2.758-2.716zm2.472 5.82H33.66c-13.045 0-23.66 10.466-23.66 23.33v18.912l.05.295 1.323.408C23.82 149.718 34.638 151 43.54 151c17.4 0 27.47-4.9 28.1-5.2l1.237-.618H73V126.27c0-12.864-10.614-23.33-23.66-23.33zM83 109a3 3 0 1 1 0-6 3 3 0 1 1 0 6z" stroke="#1d1e1f"/><path d="M94.5 82.5v2h37v-2zm6-7v2h31v-2zm5-8v2h25v-2z" fill="#1d1e1f" fill-rule="nonzero"/><g fill="#d62c2c"><path d="M142 15h5v5h-5zm0 8h5v5h-5zm-8-8h5v5h-5zM17 15h5v5h-5zm8 0h5v5h-5zm-8 8h5v5h-5zm125 117h5v5h-5zm-8 0h5v5h-5zm8-8h5v5h-5z"/><path d="M18.5 79c1.518-2.63 3.684-3.63 6.5-3v18c-3.624-.158-6.124-1.825-7.5-5-1.186-2.737-1.276-6.054 1-10zm45.826 11.296c-1.518 2.63-3.684 3.63-6.5 3v-18c3.624.158 6.124 1.825 7.5 5 1.186 2.737 1.276 6.054-1 10z" fill-rule="nonzero"/></g></svg>