<svg xmlns="http://www.w3.org/2000/svg" width="160" height="160" fill="none" fill-rule="evenodd"><path fill="#fff" d="M0 0h160v160H0z"/><g fill-rule="nonzero"><path d="M127.945 44.35v42.45c0 3.34-1.653 6.356-4.18 8.28 3.176-1.447 5.234-4.18 5.234-8.28V26.482C129 20.035 123.912 15 117.39 15h-96.58c-6.523 0-11.61 5.035-11.61 11.482v1.443H9v58.873c0 6.376 5.214 11.482 11.61 11.482h36.828l-3.594 16.595H39.412c-.387 0-.528.14-.528.515v7.833c0 .376.14.515.528.515l59.104.236c.387 0 0 .14 0-.236l-7.742.24c0-.376-27.193-.326-27.58-.326l.042-.944H39.94v-6.804H63.54l.046-1.03H55.03l3.594-16.595H77.56l3.536-1.004.955-.025H20.808c-5.748 0-10.556-4.757-10.556-10.452v-8.102h79.07l1.158-1.03H10.253V26.482c0-5.695 4.808-10.452 10.556-10.452h96.58c5.748 0 10.556 4.757 10.556 10.452V44.35z" fill="#1d1e1f"/><path d="M19 52.57v3.857c0 1.42 1.023 2.57 2.286 2.57h3.43C25.977 59 27 57.85 27 56.43v-3.86c0-1.42-1.023-2.57-2.286-2.57h-3.43C20.023 50 19 51.15 19 52.57zm0 13v3.857c0 1.42 1.023 2.57 2.286 2.57h3.43C25.977 72 27 70.85 27 69.43v-3.86c0-1.42-1.023-2.57-2.286-2.57h-3.43C20.023 63 19 64.15 19 65.57z" fill="#d62c2c"/><path fill="#fff" d="M102 120H64v8h38z"/><g fill="#d62c2c"><rect x="18" y="18" width="106" height="19" rx="9.5"/><path d="M40.5 87.073L86 69l53.08 22L96 109.698z"/></g><path d="M148.915 135.474l2.463-1.172c2.8-1.333 4.622-4.144 4.622-7.267 0-3.426-2.193-6.456-5.405-7.59l-2.055-.725V93.065l2.448-.973L95.422 70 40 92.092l24.934 9.94v19.743c0 4.124 3.083 8.067 9.093 11.056 5.69 2.83 13.31 4.416 21.395 4.416s15.705-1.586 21.395-4.416c6-2.99 9.093-6.932 9.093-11.056v-19.71l21.33-8.48v25.14l-2.055.725c-3.21 1.133-5.404 4.163-5.404 7.59 0 3.124 1.82 5.935 4.62 7.267l2.464 1.172-6.072 18.12 1.23.407 5.867-17.508L153.758 154l1.23-.407-6.072-18.12zm-53.492.51c-15.59 0-29.19-6.205-29.19-14.21v-19.225l29.2 11.636 29.19-11.606v22.275h-.7c-2.95 6.462-14.976 11.13-28.5 11.13zm-52-43.89l52-20.728 52.135 20.728-52.135 20.728-52-20.728zm104.468 41.732c-3.755 0-6.81-3.04-6.81-6.79s3.056-6.79 6.81-6.79 6.81 3.04 6.81 6.79-3.056 6.79-6.81 6.79z" fill="#1d1e1f"/></g></svg>