<svg xmlns="http://www.w3.org/2000/svg" width="160" height="160" fill-rule="evenodd"><path fill="#fff" d="M0 0h160v160H0z"/><g fill-rule="nonzero"><path d="M12 25h52a2 2 0 0 1 2 2v8c-5 .486-11 4.153-18 11S37.5 58.514 37.5 63H12a2 2 0 0 1-2-2V27a2 2 0 0 1 2-2z" fill="#d62c2c"/><path d="M16.837 34.156V35.4h43.275v-1.245zM17 52v1h25v-1zm-.163-9.705v1.245h18.618v-1.245zM41 42v1h10v-1z" fill="#1d1e1f"/><path d="M140.142 140.7l-9.38 5.827-4.495-4.177-.195.05c-1.283.322-2.567.54-3.818.648l-.2.017-2.874 5.387-10.776-2.472-.206-6.094-.178-.106a24.36 24.36 0 0 1-3.138-2.24l-.155-.13-5.883 1.797-5.86-9.322 4.2-4.464-.05-.192a23.42 23.42 0 0 1-.65-3.796l-.017-.2-5.424-2.856 2.488-10.708 6.135-.204.104-.173a23.76 23.76 0 0 1 2.256-3.124l.13-.154-1.806-5.84 9.38-5.827 4.495 4.177.195-.05c1.283-.322 2.567-.54 3.818-.648l.2-.017 2.874-5.387 10.776 2.472.206 6.094.178.106a24.36 24.36 0 0 1 3.138 2.24l.155.13 5.883-1.797 5.86 9.322-4.2 4.464.05.192a23.42 23.42 0 0 1 .65 3.796l.017.2 5.424 2.856-2.488 10.708-6.135.204-.104.173a23.76 23.76 0 0 1-2.256 3.124l-.13.154 1.806 5.84z" fill="#d62c2c"/><path d="M94.864 76.95h-15.8V55.823c0-.185-.15-.334-.336-.334s-.336.15-.336.334v21.382c0 .254.14.412.252.412h16.2c.186 0 .336-.15.336-.334s-.15-.334-.336-.334zm45.724 36.084l-.053-.972c-.117-2.146-.524-4.27-1.2-6.312l-.3-.917 5.024-3.945a.32.32 0 0 0 .074-.437l-5-7.33c-.105-.154-.327-.2-.504-.118l-5.68 2.928-.72-.616a24.82 24.82 0 0 0-5.51-3.57l-.894-.424.7-6.216c.02-.168-.103-.33-.294-.367l-2.566-.508.227-1.323a42.61 42.61 0 0 0 .613-7.184c.01-8.418-2.518-16.656-7.27-23.7l-.642-.952 6.07-5.895c.497-.483.775-1.134.775-1.812a2.52 2.52 0 0 0-.776-1.812l-3.5-3.4a2.73 2.73 0 0 0-3.806.004l-5.598 5.4-.97-.816c-6.493-5.454-14.5-8.945-23.006-10.04l-1.22-.157v-8.658h4.526c.693.006 1.358-.258 1.843-.732a2.42 2.42 0 0 0 .733-1.78v-4.83c.01-.663-.252-1.304-.735-1.78S89.756 14 89.057 14H70.38c-.696.001-1.362.274-1.845.754a2.44 2.44 0 0 0-.723 1.804v4.835c-.014.653.246 1.284.722 1.752s1.142.737 1.844.732h4.537v8.652l-1.213.16C51.677 35.622 35 53.997 35 75.724c0 23.735 19.714 43.123 44.148 43.434l.242.003.227.083.164.027a46.28 46.28 0 0 0 9.733-1.1l1.352-.3.318 1.332a22.6 22.6 0 0 0 .593 2.046l.312.92-5.03 3.934a.31.31 0 0 0-.072.428l5 7.326c.105.154.327.2.505.117l5.68-2.93.72.616a24.99 24.99 0 0 0 5.5 3.57l.894.424-.692 6.215c-.02.168.103.33.294.367l8.845 1.753c.198.04.388-.07.44-.24l1.872-5.98.976-.05c2.217-.113 4.4-.5 6.52-1.18l.904-.287 4.004 4.794a.4.4 0 0 0 .516.073l7.55-4.845c.153-.098.2-.28.12-.43l-3.035-5.552.658-.724a23.96 23.96 0 0 0 3.673-5.344l.433-.862 6.37.668c.197.02.37-.102.408-.274l1.85-8.522c.036-.165-.068-.335-.253-.4l-6.152-1.816zm-24.7-74.415v-.002a1.95 1.95 0 0 1 2.704.002l3.503 3.4a1.87 1.87 0 0 1-.001 2.693l-5.938 5.765-.966-1.218a44.23 44.23 0 0 0-3.85-4.252l-1.017-.986 5.564-5.402zM91.2 21.302c-.001 1.05-.868 1.893-1.925 1.893H70.488c-1.058 0-1.925-.84-1.925-1.893v-4.728c.001-1.05.868-1.892 1.925-1.892h18.778c1.058 0 1.925.84 1.925 1.893v4.727zM79.285 32.288c-.795.008-1.595.035-2.115.072l-1.502.1-.004-8.592h8.128v8.573l-1.483-.087a44.6 44.6 0 0 0-2.63-.079h-.056c-.026 0-.026 0-.172-.005l-.03-.002-.136.012zm.524 78.386c0-.183-.163-.34-.376-.34s-.376.158-.376.34v7.826l-1.466-.068c-22.53-1.047-40.745-18.75-41.838-40.522l-.073-1.45h7.756c.213 0 .376-.158.376-.34s-.163-.34-.376-.34H35.68l.05-1.43c.784-22.3 18.97-40.27 41.862-41.33l1.466-.068v7.842c0 .183.163.34.376.34s.376-.158.376-.34V32.95l1.448.05c23 .774 41.66 18.864 42.448 41.352l.05 1.43h-8.338c-.213 0-.376.158-.376.34s.163.34.376.34h8.345l-.08 1.46c-.1 1.6-.266 3.213-.528 4.804l-.235 1.424-5.56-1.136c-.194-.04-.382.068-.433.23l-1.872 5.973-.976.05a25.95 25.95 0 0 0-6.518 1.176l-.905.286-4.048-4.86a.4.4 0 0 0-.516-.073l-7.55 4.844c-.153.098-.2.28-.12.43l3.035 5.552-.658.724a23.96 23.96 0 0 0-3.673 5.344l-.433.86-6.37-.668c-.2-.02-.374.103-.4.275l-1.805 8.587c-.035.165.07.334.253.388l6.15 1.815.056.97a24.69 24.69 0 0 0 .085 1.017l.12 1.217-1.208.266a46.01 46.01 0 0 1-8.304 1.046l-1.45.05v-7.832zm63.41 12.526l-5.078-.532c-.172-.018-.33.073-.394.22-1.16 2.646-2.816 5.06-4.885 7.116-.105.105-.128.256-.06.38l3.018 5.515-7 4.486-3.973-4.757c-.103-.123-.284-.17-.452-.106a25.15 25.15 0 0 1-8.644 1.569c-.17.002-.312.106-.357.248l-1.856 5.928-8.173-1.62.688-6.18c.016-.143-.07-.283-.224-.347a23.88 23.88 0 0 1-7.32-4.738c-.118-.112-.306-.138-.456-.06l-5.637 2.905-4.63-6.803 4.996-3.924a.32.32 0 0 0 .104-.382 23.26 23.26 0 0 1-1.62-8.414c-.002-.143-.103-.275-.26-.32l-6.108-1.803 1.678-7.98 6.328.664c.173.018.332-.073.396-.22 1.16-2.646 2.816-5.06 4.885-7.116.105-.105.128-.256.06-.38l-3.016-5.517 7-4.485 4.017 4.822a.4.4 0 0 0 .45.107 25.15 25.15 0 0 1 8.644-1.569c.17-.002.312-.106.357-.248l1.856-5.928 8.172 1.62-.688 6.178c-.016.143.07.284.225.347a23.88 23.88 0 0 1 7.32 4.738c.118.112.306.138.456.06l5.637-2.905 4.632 6.803-4.996 3.924c-.12.094-.16.243-.105.382a23.25 23.25 0 0 1 1.62 8.416c.002.143.103.275.26.32l6.106 1.802-1.72 7.915-1.253-.13zm-25.616-20.478c-4.912-1-9.844 1.583-11.783 6.145s-.348 9.842 3.803 12.612a10.6 10.6 0 0 0 13.264-1.225 10.28 10.28 0 0 0 1.37-13.093c-1.528-2.298-3.924-3.897-6.653-4.44zm3.283 18.2a9.87 9.87 0 0 1-10.853-.053c-3.273-2.184-4.893-6.1-4.103-9.924s3.834-6.8 7.712-7.542 7.827.897 10.006 4.153c2.967 4.446 1.73 10.424-2.762 13.366z" fill="#1d1e1f"/><ellipse fill="#fff" cx="117.5" cy="115" rx="7.5" ry="8"/><path d="M20.123 114.217V99.46l5.72 5.612.586-.575-6.715-6.588L13 104.496l.586.575 5.72-5.612v14.758c0 12.492 9.772 22.786 22.2 23.91v-.83c-11.984-1.12-21.383-11.046-21.383-23.082z" fill="#1d1e1f"/><g fill="#d62c2c"><rect x="48.49" y="134.477" width="8.973" height="8.756" rx="2"/><rect x="60.027" y="134.477" width="8.973" height="8.756" rx="2"/></g></g></svg>