<svg xmlns="http://www.w3.org/2000/svg" width="160" height="160" fill="none" fill-rule="evenodd"><path fill="#fff" d="M0 0h160v160H0z"/><path d="M152.994 67.943a11.79 11.79 0 0 0-11.391-11.395c-2.42-.005-4.782.74-6.76 2.137H130.4V37.4a5.78 5.78 0 0 0-5.768-5.767h-21.288V27.18c1.4-1.982 2.147-4.352 2.138-6.78a11.79 11.79 0 0 0-23.565 0 11.66 11.66 0 0 0 2.138 6.779v4.44H62.768A5.78 5.78 0 0 0 57 37.387v61.846A5.78 5.78 0 0 0 62.768 105h22.59c.7 0 1.265-.566 1.265-1.265v-8.018c.005-.288-.09-.57-.266-.797-1.22-1.59-1.878-3.537-1.872-5.54a9.16 9.16 0 0 1 8.811-9.491 9.16 9.16 0 0 1 9.492 8.81 9.04 9.04 0 0 1 0 .68c.006 2.003-.653 3.95-1.872 5.54-.177.228-.27.51-.266.797v7.993c0 .698.566 1.265 1.265 1.265h22.705a5.78 5.78 0 0 0 5.768-5.767V77.972h4.44c1.98 1.398 4.344 2.145 6.767 2.137a11.79 11.79 0 0 0 11.397-12.167z" fill="#d62c2c" fill-rule="nonzero"/><g fill="#000"><path d="M143.99 63z"/><path d="M122.37 59.997c2.91-.095 5.245-2.43 5.34-5.34.003-1.134-.348-2.242-1.002-3.168v-2.087h9.978a2.71 2.71 0 0 0 2.703-2.704v-9.98h2.087a5.47 5.47 0 0 0 3.178 1.002c3.05-.1 5.44-2.654 5.34-5.704-.095-2.9-2.432-5.247-5.34-5.342-1.138-.005-2.25.345-3.178 1.002h-2.08v-9.973A2.71 2.71 0 0 0 136.694 15h-29A2.71 2.71 0 0 0 105 17.704v10.6c0 .327.265.593.593.593h3.76c.135.002.267-.042.373-.125.745-.572 1.658-.88 2.597-.878 2.37-.088 4.36 1.76 4.45 4.13s-1.76 4.36-4.13 4.45h-.32c-.94.003-1.852-.306-2.597-.878-.107-.083-.238-.127-.373-.125h-3.747c-.327 0-.593.265-.593.593v10.643a2.71 2.71 0 0 0 2.703 2.704h9.954v2.08a5.47 5.47 0 0 0-1.002 3.172c.1 3.05 2.653 5.442 5.703 5.342zm-.317-1.236c-2.245-.083-4.046-1.885-4.13-4.13l-.024.03c-.003-.94.306-1.852.877-2.597.083-.107.127-.24.124-.374v-2.905c0-.327-.265-.593-.593-.593h-10.612c-.815-.01-1.468-.68-1.458-1.494v-9.98h2.91c.928.655 2.036 1.006 3.172 1.002 3.05.1 5.603-2.292 5.703-5.342s-2.292-5.604-5.34-5.704c-.12-.004-.24-.004-.362 0a5.47 5.47 0 0 0-3.172 1.002h-2.91v-9.973c.01-.8.657-1.45 1.458-1.46h29c.81.003 1.467.66 1.47 1.47v10.578c0 .327.265.593.593.593h2.93c.135.002.267-.042.373-.125a4.25 4.25 0 0 1 2.597-.878c2.37-.002 4.294 1.918 4.296 4.29s-1.918 4.294-4.29 4.296a4.29 4.29 0 0 1-2.604-.878c-.107-.083-.238-.127-.373-.125h-2.9c-.327 0-.593.265-.593.593v10.637c-.003.81-.66 1.467-1.47 1.47h-10.624c-.327 0-.593.265-.593.593v2.9c-.002.135.042.267.124.374.572.745.88 1.658.877 2.597-.088 2.37-2.08 4.218-4.45 4.13z" fill-rule="nonzero"/><path d="M128 54.996z"/></g><g fill-rule="nonzero"><path d="M8.8 114.376l.1.063a9.53 9.53 0 0 0 1.397.803l.696.366.698.422c.587.4.937.75 1.057 1.36.14.753.048 1.53-.27 2.257l-.698 1.322c-.713 1.26-.806 1.755-.32 2.155.23.213.61.515 1.3 1.038l.866.665-.542.948c-.247.432-.36.928-.328 1.354.033.243.165.462.362.603.234.165.462.303.926.567 1.282.73 1.708 1.094 1.93 1.98l.025.13c.105.76.045 1.535-.177 2.27l-.2 1.004a7.73 7.73 0 0 0 .448 3.52 4.3 4.3 0 0 0 4.041 3.132c.323-.001.645-.035.932-.095 4.19-.993 8.32-2.23 12.37-3.7l.553-.2.507.297c3.09 1.813 5.535 6.67 6.585 10.94.026.104.12.177.224.177l37.238-.104c.074 0 .144-.036.188-.096s.057-.137.052-.154c-.327-.895-.777-1.74-1.356-2.534-.388-.56-.737-1.144-1.053-1.764a29.3 29.3 0 0 1-1.753-4.419c-.857-2.906-1.454-5.882-1.788-8.918-.008-.085-.06-.16-.14-.193s-.17-.023-.236.03-.1.137-.08.276a51.61 51.61 0 0 0 1.803 8.967c.47 1.53 1.06 3.02 1.762 4.446.313.62.668 1.22 1.072 1.805l1.4 2.088-36.93.106-.256-.916a22.38 22.38 0 0 0-4.946-8.971l-1.262-1.396 3.112-1.09 2.163-.743c5.887-1.862 8.645-4.373 8.574-7.415 0-.053-.02-.104-.06-.14s-.09-.056-.17-.053c-.13.003-.23.1-.228.24.064 2.74-2.514 5.108-8.25 6.922-.33.106-.826.277-2.174.748l-4.193 1.45a116.68 116.68 0 0 1-12.802 3.855c-2.014.388-3.977-.86-4.486-2.837a7.18 7.18 0 0 1-.392-3.167 8.19 8.19 0 0 1 .128-.728l.053-.24c.01-.038.01-.038.04-.16.238-.807.278-1.66.117-2.486a3.68 3.68 0 0 0-2.03-2.203l-.126-.063-1.33-.76.523-1.055c.196-.396.43-.772.7-1.136.04-.05.056-.113.048-.175s-.042-.12-.09-.154c-.545-.4-1.326-.993-1.856-1.42l-.816-.66.657-1.19.08-.144c.308-.54.5-.915.704-1.326.364-.806.47-1.704.31-2.564-.19-.962-.9-1.554-2.663-2.455-.49-.23-.957-.503-1.382-.8a7.55 7.55 0 0 1-1.067-.867l-.376-.368v-.526c0-.703.485-1.513 1.634-2.912a58.86 58.86 0 0 0 6.692-10.88 3.13 3.13 0 0 0 .406-1.348 3.94 3.94 0 0 0-1.635-2.726l-.123-.1c-1.163-1.065-1.512-1.467-1.626-2.302l-.01-.204c.015-.515.13-1.02.312-1.428.214-.563.41-1.016.845-1.985a20.37 20.37 0 0 0 1.359-3.652l.142-.606c.325-1.533.744-3.045 1.26-4.545 1.227-3.386 3.127-6.488 5.6-9.126 3.04-3.215 7.738-5.447 13.94-6.68 4.644-1.02 9.356-1.698 14.12-2.033 2.427-.13 4.862.007 7.236.408.126.02.243-.066.265-.19s-.06-.244-.152-.263a33.18 33.18 0 0 0-7.349-.421 97.9 97.9 0 0 0-14.192 2.038c-6.46 1.29-11.088 3.524-14.2 6.814-2.503 2.677-4.438 5.833-5.682 9.26a39.16 39.16 0 0 0-1.28 4.617l-.16.666a20.39 20.39 0 0 1-1.33 3.553l-.195.442a31.47 31.47 0 0 0-.676 1.61c-.245.56-.35 1.172-.3 1.78.245 1.004.835 1.89 1.668 2.505l.103.085c1.24 1.138 1.6 1.568 1.612 2.445l.002.156-.036.152c-.08.34-.2.668-.34.892a58.52 58.52 0 0 1-6.661 10.813c-1.266 1.543-1.788 2.515-1.696 3.306a3.28 3.28 0 0 0 1.541 1.945z" stroke="#1d1e1f" stroke-width=".5" fill="#1d1e1f"/><circle fill="#fff" cx="62" cy="95" r="28"/><path d="M20.84 85.916a35.08 35.08 0 0 1 1.032-3.85 21.11 21.11 0 0 1 4.371-7.232c2.07-1.98 4.606-3.392 7.335-4.093a.24.24 0 0 0 .164-.179c.022-.093-.007-.2-.073-.25-.06-.056-.14-.074-.3-.027-2.837.748-5.437 2.225-7.5 4.24a21.52 21.52 0 0 0-4.412 7.322 35.47 35.47 0 0 0-1.063 3.944l-.148.65c-.032.14.05.275.175.304a.22.22 0 0 0 .044.005c.1 0 .194-.075.22-.188l.143-.646zM19.5 90.75a.25.25 0 1 0 0-.5.25.25 0 1 0 0 .5zm26.754-.93v.02a18.97 18.97 0 0 0 4.837 13.03 25.08 25.08 0 0 0 3.4 2.88c3.53 2.662 4.836 3.988 5.408 6.268l.27 1.072-1.03.398c-1.28.494-2.114 1.7-2.116 3v2.995c.006 1.365.895 2.586 2.234 3.048l.843.3V124c0 2.616 2.188 4.75 4.903 4.75s4.903-2.134 4.903-4.75v-1.167l.843-.3c1.338-.46 2.228-1.683 2.234-3.042v-2.997c-.003-1.325-.84-2.52-2.12-3.012l-1.033-.397.27-1.074c.57-2.275 1.886-3.612 5.44-6.3a24.37 24.37 0 0 0 3.328-2.813c3.24-3.617 4.98-8.28 4.885-13.096-.04-10.118-8.366-18.368-18.722-18.57-10.404.202-18.73 8.452-18.77 18.57zM59.136 91c0-.13-.122-.25-.288-.25s-.288.12-.288.25.122.25.288.25h.288V91zm-.288 2.75c-1.533 0-2.788-1.224-2.788-2.75s1.255-2.75 2.788-2.75 2.788 1.224 2.788 2.75v2.75h-2.788zm6.44 3h-.576v14h.576v-14zm-3.076 16.5v-19h5.576v19h-5.576zM65 125.75a1.86 1.86 0 0 0 1.278-.5h-2.556a1.86 1.86 0 0 0 1.278.5zm0 2.5c-2.382 0-4.326-1.896-4.326-4.25v-1.25h8.653V124c0 2.354-1.944 4.25-4.326 4.25zm7.403-8.75c0 1.526-1.255 2.75-2.788 2.75h-9.23c-1.533 0-2.788-1.224-2.788-2.75v-3c0-1.526 1.255-2.75 2.788-2.75h9.23c1.533 0 2.788 1.224 2.788 2.75v3zm5.997-16.876a25.3 25.3 0 0 1-3.315 2.786c-1.708 1.16-3.222 2.57-4.5 4.178l-2.232 2.834V94.25h2.788c1.865 0 3.364-1.462 3.364-3.25s-1.5-3.25-3.364-3.25-3.364 1.462-3.364 3.25v2.75H62.21V91c0-1.788-1.5-3.25-3.364-3.25s-3.364 1.462-3.364 3.25 1.5 3.25 3.364 3.25h2.788v18.175l-2.232-2.838c-1.264-1.608-2.776-3.016-4.498-4.188-1.18-.83-2.283-1.76-3.348-2.827-3.143-3.523-4.83-8.064-4.727-12.732.165-9.822 8.46-18.1 18.17-18.1S83 80 83.17 89.828c.102 4.67-1.582 9.2-4.77 12.786zM71.153 91.25c.166 0 .288-.12.288-.25s-.122-.25-.288-.25-.288.12-.288.25v.25h.288zM68.365 91c0-1.526 1.255-2.75 2.788-2.75S73.94 89.474 73.94 91s-1.255 2.75-2.788 2.75h-2.788V91zM89.4 88.75h4.2c.063 0 .15-.093.15-.25s-.087-.25-.15-.25h-4.2c-.063 0-.15.093-.15.25s.087.25.15.25zm-7.95-15c.055 0 .106-.02.144-.06l3.093-3.095c.052-.05.073-.125.055-.196a.2.2 0 0 0-.144-.144c-.07-.02-.145.003-.2.07l-3.08 3.08c-.058.058-.075.144-.044.22a.2.2 0 0 0 .186.124zm-14.95-8c.157 0 .25-.087.25-.15v-4.2c0-.063-.093-.15-.25-.15s-.25.087-.25.15v4.2c0 .063.093.15.25.15zM48.7 73.7c.04-.04.06-.1.06-.143s-.02-.105-.06-.143L45.605 70.3c-.05-.052-.125-.073-.196-.055a.2.2 0 0 0-.144.144c-.02.07.003.145.07.2l3.078 3.08c.038.038.1.06.142.06s.105-.02.142-.06zM36.4 88.25c-.063 0-.15.093-.15.25s.087.25.15.25h4.2c.063 0 .15-.093.15-.25s-.087-.25-.15-.25h-4.2z" stroke="#1d1e1f" stroke-width=".5" fill="#1d1e1f"/><rect fill="#d62c2c" x="58" y="114" width="13" height="7" rx="3.5"/></g></svg>