<svg xmlns="http://www.w3.org/2000/svg" xmlns:xlink="http://www.w3.org/1999/xlink" width="74" height="51" viewBox="0 0 74 51"><defs><path id="p4dya" d="M708.265 585.818c8.69 0 15.735 6.98 15.735 15.591 0 8.61-7.045 15.591-15.735 15.591s-15.734-6.98-15.734-15.59l-.07-2.228C692.46 581.96 706.55 568 723.93 568v8.91c-6.004 0-11.65 2.316-15.895 6.523a22.641 22.641 0 0 0-2.236 2.576 15.996 15.996 0 0 1 2.466-.19zm-40.46 0c8.69 0 15.735 6.98 15.735 15.591 0 8.61-7.045 15.591-15.735 15.591s-15.735-6.98-15.735-15.59l-.07-2.228C652 581.96 666.09 568 683.47 568v8.91c-6.005 0-11.65 2.316-15.895 6.523a22.654 22.654 0 0 0-2.236 2.576 15.996 15.996 0 0 1 2.466-.19z"/></defs><g><g opacity=".52" transform="translate(-651 -567)"><use fill="#fff" fill-opacity="0" stroke="#d5d5d5" stroke-miterlimit="50" stroke-width="2" xlink:href="#p4dya"/></g></g></svg>