<?xml version="1.0"?>
<svg xmlns="http://www.w3.org/2000/svg" height="512px" viewBox="1 -9 511.99999 511" width="512px" class=""><g><path d="m459.585938 448.195312h-447.210938c-6.835938 0-12.37109375-5.542968-12.37109375-12.375v-367.730468c0-21.679688 17.57031275-39.25 39.24999975-39.25h393.453125c21.675781 0 39.25 17.570312 39.25 39.25v367.730468c0 6.835938-5.539062 12.375-12.371093 12.375zm0 0" fill="#d0f4ef" data-original="#D0F4EF" class="" data-old_color="#d0f4ef" style="fill:#E7E5E5"/><path d="m471.953125 68.09375v367.722656c0 6.835938-5.53125 12.378906-12.367187 12.378906h-37.527344c6.832031 0 12.375-5.542968 12.375-12.378906v-367.722656c0-21.6875-17.574219-39.25-39.25-39.25h37.53125c21.671875 0 39.238281 17.5625 39.238281 39.25zm0 0" fill="#abe0da" data-original="#ABE0DA" class="" data-old_color="#abe0da" style="fill:#E7E5E5"/><path d="m471.953125 68.09375v60.027344h-471.953125v-60.027344c0-21.6875 17.578125-39.25 39.261719-39.25h393.453125c21.671875 0 39.238281 17.5625 39.238281 39.25zm0 0" fill="#f72b2b" data-original="#F72B2B" class="" data-old_color="#f72b2b" style="fill:#D62C2C"/><path d="m471.953125 68.09375v60.027344h-37.519531v-60.027344c0-21.6875-17.574219-39.25-39.25-39.25h37.53125c21.671875 0 39.238281 17.5625 39.238281 39.25zm0 0" fill="#d61b1f" data-original="#D61B1F" class="" data-old_color="#d61b1f" style="fill:#D62C2C"/><g fill="#628fb1"><path d="m79.488281 173.839844h-26.851562c-4.269531 0-7.726563-3.460938-7.726563-7.726563s3.457032-7.726562 7.726563-7.726562h26.851562c4.269531 0 7.726563 3.460937 7.726563 7.726562s-3.457032 7.726563-7.726563 7.726563zm0 0" data-original="#000000" class="" data-old_color="#000000" style="fill:#000000"/><path d="m162.023438 173.839844h-26.855469c-4.265625 0-7.726563-3.460938-7.726563-7.726563s3.460938-7.726562 7.726563-7.726562h26.855469c4.265624 0 7.726562 3.460937 7.726562 7.726562s-3.460938 7.726563-7.726562 7.726563zm0 0" data-original="#000000" class="" data-old_color="#000000" style="fill:#000000"/><path d="m244.554688 173.839844h-26.855469c-4.265625 0-7.722657-3.460938-7.722657-7.726563s3.457032-7.726562 7.722657-7.726562h26.855469c4.269531 0 7.726562 3.460937 7.726562 7.726562s-3.457031 7.726563-7.726562 7.726563zm0 0" data-original="#000000" class="" data-old_color="#000000" style="fill:#000000"/><path d="m327.089844 173.839844h-26.855469c-4.265625 0-7.726563-3.460938-7.726563-7.726563s3.460938-7.726562 7.726563-7.726562h26.855469c4.265625 0 7.726562 3.460937 7.726562 7.726562s-3.460937 7.726563-7.726562 7.726563zm0 0" data-original="#000000" class="" data-old_color="#000000" style="fill:#000000"/><path d="m409.621094 173.839844h-26.851563c-4.269531 0-7.726562-3.460938-7.726562-7.726563s3.457031-7.726562 7.726562-7.726562h26.851563c4.269531 0 7.726562 3.460937 7.726562 7.726562s-3.457031 7.726563-7.726562 7.726563zm0 0" data-original="#000000" class="" data-old_color="#000000" style="fill:#000000"/><path d="m79.488281 212.691406h-26.851562c-4.269531 0-7.726563-3.460937-7.726563-7.726562s3.457032-7.726563 7.726563-7.726563h26.851562c4.269531 0 7.726563 3.460938 7.726563 7.726563s-3.457032 7.726562-7.726563 7.726562zm0 0" data-original="#000000" class="" data-old_color="#000000" style="fill:#000000"/><path d="m162.023438 212.691406h-26.855469c-4.265625 0-7.726563-3.460937-7.726563-7.726562s3.460938-7.726563 7.726563-7.726563h26.855469c4.265624 0 7.726562 3.460938 7.726562 7.726563s-3.460938 7.726562-7.726562 7.726562zm0 0" data-original="#000000" class="" data-old_color="#000000" style="fill:#000000"/><path d="m244.554688 212.691406h-26.855469c-4.265625 0-7.722657-3.460937-7.722657-7.726562s3.457032-7.726563 7.722657-7.726563h26.855469c4.269531 0 7.726562 3.460938 7.726562 7.726563s-3.457031 7.726562-7.726562 7.726562zm0 0" data-original="#000000" class="" data-old_color="#000000" style="fill:#000000"/><path d="m327.089844 212.691406h-26.855469c-4.265625 0-7.726563-3.460937-7.726563-7.726562s3.460938-7.726563 7.726563-7.726563h26.855469c4.265625 0 7.726562 3.460938 7.726562 7.726563s-3.460937 7.726562-7.726562 7.726562zm0 0" data-original="#000000" class="" data-old_color="#000000" style="fill:#000000"/><path d="m409.621094 212.691406h-26.851563c-4.269531 0-7.726562-3.460937-7.726562-7.726562s3.457031-7.726563 7.726562-7.726563h26.851563c4.269531 0 7.726562 3.460938 7.726562 7.726563s-3.457031 7.726562-7.726562 7.726562zm0 0" data-original="#000000" class="" data-old_color="#000000" style="fill:#000000"/></g><path d="m196.597656 405.28125c-5.808594 0-11.621094-2.214844-16.050781-6.648438l-39.726563-39.726562c-8.867187-8.863281-8.867187-23.234375 0-32.101562 8.863282-8.863282 23.238282-8.863282 32.101563 0l23.675781 23.675781 92.738282-92.742188c8.867187-8.859375 23.238281-8.863281 32.101562 0 8.867188 8.867188 8.867188 23.238281 0 32.105469l-108.789062 108.789062c-4.433594 4.433594-10.242188 6.648438-16.050782 6.648438zm0 0" fill="#f72b2b" data-original="#F72B2B" class="" data-old_color="#f72b2b" style="fill:#D62C2C"/><path d="m84.285156 60.121094h-14.351562c-6.097656 0-11.042969-4.941406-11.042969-11.042969v-37.539063c0-6.097656 4.945313-11.039062 11.042969-11.039062h14.351562c6.097656 0 11.042969 4.941406 11.042969 11.039062v37.539063c0 6.101563-4.945313 11.042969-11.042969 11.042969zm0 0" fill="#ffbd47" data-original="#FFBD47" class="" data-old_color="#ffbd47" style="fill:#E3611E"/><path d="m187.417969 60.121094h-14.355469c-6.097656 0-11.039062-4.941406-11.039062-11.042969v-37.539063c0-6.097656 4.941406-11.039062 11.039062-11.039062h14.355469c6.097656 0 11.039062 4.941406 11.039062 11.039062v37.539063c0 6.101563-4.941406 11.042969-11.039062 11.042969zm0 0" fill="#ffbd47" data-original="#FFBD47" class="" data-old_color="#ffbd47" style="fill:#E3611E"/><path d="m290.550781 60.121094h-14.355469c-6.097656 0-11.039062-4.941406-11.039062-11.042969v-37.539063c0-6.097656 4.941406-11.039062 11.039062-11.039062h14.355469c6.097657 0 11.039063 4.941406 11.039063 11.039062v37.539063c0 6.101563-4.945313 11.042969-11.039063 11.042969zm0 0" fill="#ffbd47" data-original="#FFBD47" class="" data-old_color="#ffbd47" style="fill:#E3611E"/><path d="m393.679688 60.121094h-14.351563c-6.097656 0-11.042969-4.941406-11.042969-11.042969v-37.539063c0-6.097656 4.945313-11.039062 11.042969-11.039062h14.351563c6.097656 0 11.042968 4.941406 11.042968 11.039062v37.539063c0 6.101563-4.945312 11.042969-11.042968 11.042969zm0 0" fill="#ffbd47" data-original="#FFBD47" class="" data-old_color="#ffbd47" style="fill:#E3611E"/><path d="m512 398.863281c0 52.347657-42.433594 94.78125-94.78125 94.78125s-94.78125-42.433593-94.78125-94.78125c0-52.34375 42.433594-94.777343 94.78125-94.777343s94.78125 42.433593 94.78125 94.777343zm0 0" fill="#38aaff" data-original="#38AAFF" class="" data-old_color="#38aaff" style="fill:#1B2F5A"/><path d="m485.382812 398.863281c0 37.648438-30.519531 68.164063-68.164062 68.164063s-68.164062-30.515625-68.164062-68.164063c0-37.644531 30.519531-68.160156 68.164062-68.160156s68.164062 30.515625 68.164062 68.160156zm0 0" fill="#d0f4ef" data-original="#D0F4EF" class="" data-old_color="#d0f4ef" style="fill:#E7E5E5"/><path d="m417.21875 359.398438c-4.265625 0-7.726562-3.457032-7.726562-7.726563v-9.410156c0-4.265625 3.460937-7.726563 7.726562-7.726563s7.726562 3.460938 7.726562 7.726563v9.410156c0 4.269531-3.460937 7.726563-7.726562 7.726563zm0 0" fill="#628fb1" data-original="#628FB1" class="active-path" data-old_color="#628fb1" style="fill:#1B2F5A"/><path d="m417.21875 463.195312c-4.265625 0-7.726562-3.460937-7.726562-7.726562v-9.410156c0-4.269532 3.460937-7.726563 7.726562-7.726563s7.726562 3.457031 7.726562 7.726563v9.410156c0 4.265625-3.460937 7.726562-7.726562 7.726562zm0 0" fill="#628fb1" data-original="#628FB1" class="active-path" data-old_color="#628fb1" style="fill:#1B2F5A"/><path d="m473.820312 406.589844h-9.410156c-4.265625 0-7.726562-3.457032-7.726562-7.726563 0-4.265625 3.460937-7.722656 7.726562-7.722656h9.410156c4.269532 0 7.726563 3.457031 7.726563 7.722656 0 4.269531-3.457031 7.726563-7.726563 7.726563zm0 0" fill="#628fb1" data-original="#628FB1" class="active-path" data-old_color="#628fb1" style="fill:#1B2F5A"/><path d="m434.25 406.589844h-17.03125c-4.265625 0-7.726562-3.457032-7.726562-7.726563v-15.648437c0-4.269532 3.460937-7.726563 7.726562-7.726563s7.726562 3.460938 7.726562 7.726563v7.925781h9.300782c4.269531 0 7.726562 3.457031 7.726562 7.722656 0 4.269531-3.457031 7.726563-7.722656 7.726563zm0 0" fill="#ffbd47" data-original="#FFBD47" class="" data-old_color="#ffbd47" style="fill:#E3611E"/><path d="m370.027344 406.589844h-9.410156c-4.269532 0-7.726563-3.457032-7.726563-7.726563 0-4.265625 3.457031-7.722656 7.726563-7.722656h9.410156c4.265625 0 7.726562 3.457031 7.726562 7.722656 0 4.269531-3.460937 7.726563-7.726562 7.726563zm0 0" fill="#628fb1" data-original="#628FB1" class="active-path" data-old_color="#628fb1" style="fill:#1B2F5A"/></g> </svg>
