<svg xmlns="http://www.w3.org/2000/svg" width="160" height="160" fill="none" fill-rule="evenodd"><path fill="#fff" d="M0 0h160v160H0z"/><g fill-rule="nonzero"><path d="M138.636 49.562v-10.49l-5.215-1.39-.323-.843-.504-1.207-.377-.828 2.712-4.684-7.415-7.415-4.686 2.713-.83-.38-1.202-.504-.84-.323L118.562 19h-10.488l-1.393 5.217-.842.322-1.2.503-.83.38-4.686-2.714-7.414 7.414 2.714 4.688-.382.83-.503 1.2-.323.843L88 39.073v10.5l5.215 1.39.323.843.503 1.2.382.83-2.714 4.688 7.415 7.415 4.686-2.713.83.38 1.202.504.84.323 1.393 5.213h10.487l1.393-5.217.842-.322 1.2-.503.83-.38 4.686 2.713 7.415-7.415-2.712-4.684.377-.828.502-1.2.32-.85 5.22-1.39zm-4.5 8.845l-6.728 6.73-4.58-2.654-.154.08c-1.013.52-2.046.953-3.074 1.285l-.164.053-1.36 5.1h-9.515l-1.36-5.1-.17-.055a20.96 20.96 0 0 1-3.067-1.282l-.155-.08-4.58 2.654-6.728-6.73 2.652-4.578-.078-.153c-.522-1.015-.954-2.05-1.284-3.076l-.053-.165-5.103-1.36V39.56l5.103-1.36.053-.166a20.57 20.57 0 0 1 1.282-3.072l.08-.155-2.652-4.578 6.728-6.73 4.58 2.654.154-.08c1.013-.52 2.046-.953 3.074-1.285l.164-.053 1.36-5.1h9.515l1.36 5.1.17.055a20.96 20.96 0 0 1 3.067 1.282l.155.08 4.58-2.654 6.728 6.73-2.652 4.578.078.153c.522 1.015.954 2.05 1.284 3.076l.053.165L138 39.56v9.515l-5.103 1.36-.053.166a20.57 20.57 0 0 1-1.282 3.072l-.08.155 2.652 4.578z" fill="#1d1e1f"/><g fill="#d62c2c"><rect x="63" y="49" width="64" height="44" rx="7"/><path d="M83 44H65a7 7 0 0 0-7 7v8H35a7 7 0 0 1-7-7V28a7 7 0 0 1 7-7h41a7 7 0 0 1 7 7v16z"/></g><g fill="#1d1e1f"><path d="M28.378 139.964l-.96 4.832-.477 2.024c-.01.04-.002.084.022.115.033.043.083.067.17.065h17.902c.078.002.147-.052.164-.123l1.7-6.958c.247-.93 1.084-1.558 2.013-1.515l5.97-.01a4.49 4.49 0 0 0 3.281-1.326c.88-.872 1.377-2.075 1.382-3.33v-6.25h5.378a1.08 1.08 0 0 0 .882-.492 1.15 1.15 0 0 0 .12-1.022l-3.67-9.94v-.218l-.03-3.88c-.544-10.72-9.186-19.08-19.577-18.934l-.5.01c-6.1.22-11.64 3.673-14.682 9.14a19.15 19.15 0 0 0-.439 18.002l.046.104c1.056 2.705 2.083 5.857 2.216 7.337.295 3.273-.083 7.544-.92 12.367zM42.174 93.42l.5-.012h.2c10.097-.024 18.44 8.14 18.966 18.56.013.255.024 1.997.03 4.095 0 .04.007.082.015.104l4.018 10.915H59.26c-.027-.001-.053.01-.072.03s-.03.05-.03.118v6.523c-.012 1.143-.473 2.23-1.253 3a4.06 4.06 0 0 1-2.98 1.245 230.86 230.86 0 0 0-3.127.004l-.602.002-2.333.004c-1.1-.025-2.07.736-2.344 1.833l-1.668 6.76H27.4l.35-1.473c1.417-5.984 2.374-12.888 1.95-17.594-.082-.913-.5-2.448-1.112-4.312-.232-.695-.48-1.397-.734-2.08l-.402-1.063c-.007-.017-.01-.023-.025-.05-2.83-5.564-2.677-12.245.4-17.666 2.972-5.34 8.4-8.72 14.357-8.936zm83.732 30.483c-.94-2.943-3.73-4.94-6.882-4.927h-6.93V115c0-.812-.733-1.478-1.66-1.478h-7.845v-3.885c0-.1-.1-.2-.203-.2s-.203.1-.203.2v3.885h-7.54a1.48 1.48 0 0 0-1.068.417c-.284.275-.44.652-.433 1.06v3.975h-7.07a7.09 7.09 0 0 0-5.009 2.009A6.81 6.81 0 0 0 79 125.896v15.075c-.014 1.854.725 3.637 2.054 4.955A7.19 7.19 0 0 0 86.079 148h32.942c3.15-.008 5.927-2.026 6.85-4.98l.23-.74.784-.08c4.595-.46 8.095-4.246 8.114-8.757a8.98 8.98 0 0 0-3.862-7.27l-.497-.348v-7.737l.904-.218c2.043-.493 3.473-2.298 3.455-4.37.001-2.347-1.84-4.302-4.227-4.488s-4.52 1.456-4.898 3.775 1.125 4.53 3.453 5.084l.908.216v7.33l-1.498-.396c-.588-.156-1.2-.26-1.798-.3l-.796-.066-.24-.747zm4.466-8.62c1 0 1.813-.796 1.813-1.778s-.812-1.778-1.814-1.778-1.813.795-1.813 1.777.813 1.777 1.814 1.778zm-4.2-1.776v-.001c0-2.268 1.876-4.106 4.2-4.106s4.2 1.838 4.2 4.106-1.876 4.106-4.2 4.106-4.186-1.84-4.2-4.105zm-30.258 3.14h13.388v-.398H95.924v.398zm15.765-2.726v5.055H93.54v-5.055h18.14zm14.142 27.065c0 3.654-3.023 6.617-6.752 6.617H86.15c-3.73 0-6.752-2.963-6.752-6.617V126c0-3.655 3.023-6.617 6.752-6.617h32.92c3.73 0 6.752 2.962 6.752 6.617v14.995zm8.786-7.556c0 3.984-3.052 7.5-6.958 8.26l-1.422.28v-17.08l1.422.28c3.907.77 6.958 4.275 6.958 8.26z" stroke="#1d1e1f" stroke-width=".5"/><path d="M90 131.218v2.452c.006.18.143.325.277.33h5.6c.05 0 .13-.098.13-.283v-2.498c-.002-1.776-1.344-3.216-3-3.22-1.656.003-2.998 1.442-3 3.218zm.408 2.345v-2.345c0-1.535 1.16-2.78 2.592-2.78s2.592 1.245 2.592 2.78v2.345H90.4zM113 131.217v2.487c.001.16.12.3.23.295h5.545c.128-.005.228-.12.225-.284v-2.497c-.002-1.776-1.344-3.216-3-3.22-1.656.003-2.998 1.442-3 3.217zm.408 2.345v-2.345c0-1.535 1.16-2.78 2.592-2.78s2.592 1.245 2.592 2.78v2.345h-5.184zM109.795 139H98.202c-.054 0-.105.02-.142.056a.19.19 0 0 0-.06.137c0 3.207 2.684 5.807 5.998 5.807s6-2.598 6.002-5.802c0-.053-.022-.104-.06-.14s-.1-.058-.145-.057zM104 144.602c-2.365-.001-4.472-1.443-5.26-3.598l-.583-1.595h11.684l-.583 1.595c-.788 2.155-2.895 3.597-5.258 3.598z"/></g></g><g fill="#d62c2c"><path d="M86.858 140.526v-15.053c0-3.024 2.552-5.474 5.7-5.474H86.7c-3.147 0-5.7 2.45-5.7 5.474v15.053c0 3.023 2.552 5.474 5.7 5.474H93c-3.147 0-6.142-2.45-6.142-5.474z"/><path d="M132.468 137.374c-1.277 2.17-3.1 2.995-5.468 2.475V125c3.05.13 5.152 1.505 6.31 4.125.998 2.258 1.074 4.995-.84 8.25z" fill-rule="nonzero"/></g><g fill="#1d1e1f" fill-rule="nonzero"><path d="M36.26 32.82h13.48c.144 0 .26-.183.26-.4s-.116-.4-.26-.4H36.26c-.144 0-.26.183-.26.4s.117.4.26.4zm21 0h17.46c.15 0 .27-.183.27-.4s-.12-.4-.27-.4H57.27c-.15 0-.27.183-.27.4s.12.4.27.4zM63.735 40h-27.47c-.147 0-.265.183-.265.4s.12.4.265.4h27.47c.146 0 .265-.184.265-.4s-.12-.4-.265-.4zm10.997 0h-3.464c-.148 0-.268.183-.268.4s.12.4.268.4h3.464c.148 0 .268-.183.268-.4s-.12-.4-.268-.4zm-24.006 7H35.274c-.15 0-.274.183-.274.4s.123.4.274.4h15.452c.15 0 .274-.184.274-.4s-.122-.4-.274-.4zM70.26 60.82h13.48c.144 0 .26-.184.26-.4s-.116-.4-.26-.4H70.26c-.144 0-.26.183-.26.4s.117.4.26.4zm21 0h17.46c.15 0 .27-.183.27-.4s-.12-.4-.27-.4H91.27c-.15 0-.27.183-.27.4s.12.4.27.4zM98 67.4c0-.227-.12-.4-.265-.4h-27.47c-.147 0-.265.183-.265.4s.12.4.265.4h27.468c.147 0 .267-.184.267-.4zm10.732-.4h-3.464c-.148 0-.268.183-.268.4s.12.4.268.4h3.464c.148 0 .268-.183.268-.4s-.12-.4-.268-.4zm-38.458 8.417c-.15 0-.274.13-.274.292s.123.292.274.292h15.452c.15 0 .274-.13.274-.292s-.122-.292-.274-.292H70.274zM85.726 72l.001 3.417L85.726 72zM109 75.4c0-.228-.122-.4-.274-.4h-16.45c-.152 0-.274.182-.274.4s.123.4.274.4h16.45c.152 0 .274-.183.274-.4z"/><path d="M99.032 104h.023c.082 0 .16-.038.21-.104s.07-.148.048-.23c-1.168-4.718-1.175-10.533 1.227-13.61 1.26-1.617 3.115-2.388 5.507-2.388h5.403c3.62-.017 6.546-2.96 6.548-6.587v-27.99a6.59 6.59 0 0 0-6.541-6.595H83.548V25.456c.01-1.718-.67-3.366-1.882-4.58s-2.86-1.89-4.584-1.877H32.527c-1.723-.014-3.38.66-4.605 1.874s-1.917 2.868-1.922 4.6V56.27c0 3.636 2.96 6.65 6.54 6.65h2.844c2.732 0 4.75.803 6.04 2.567 2.275 3.115 1.942 8.8.493 13.375-.025.077-.01.16.038.228s.125.103.208.103c.035 0 .07-.007.086-.014 2.253-.97 4.346-2.28 6.198-3.878 3.63-3.172 5.337-6.9 5-10.676l-.152-1.705h7.158v18.172c-.012 1.733.663 3.4 1.877 4.632a6.5 6.5 0 0 0 4.587 1.943h21.887l-.01 1.575c-.03 5.272 1.82 9.007 4.905 11.734a14.6 14.6 0 0 0 5.282 3.019c.018.003.035.004.05.004zm-38.58-50.92v.012 9.294H58.9h-4.464c-.72-.01-1.37.44-1.628 1.15-.012.03-.015.067-.01.105.928 5.35-2.064 9.682-7.097 13.038l-2.93 1.954.52-3.488c.613-4.117.253-7.656-1.424-9.958-1.358-1.864-3.472-2.798-6.474-2.798H32.51c-3.323-.066-5.982-2.788-5.975-6.116v-30.81c.006-1.6.648-3.112 1.78-4.225s2.664-1.724 4.225-1.698h44.52c1.582-.023 3.106.596 4.228 1.716s1.743 2.644 1.726 4.213v21.034h-1.563-14.524c-3.602.024-6.502 2.972-6.475 6.582zM88.99 87.51c-.235-.244-.56-.38-.914-.376H66.9c-1.588-.016-3.105-.666-4.218-1.806s-1.72-2.676-1.698-4.245V53.114c-.023-1.593.588-3.13 1.697-4.27s2.627-1.793 4.233-1.81h44.556c3.32.03 5.994 2.733 5.994 6.06v27.99a6.05 6.05 0 0 1-6.007 6.052h-5.41c-2.636 0-4.58.865-5.928 2.592-1.864 2.4-2.37 6.27-1.886 10.72l.354 3.255-2.75-1.768c-4.157-2.67-6.76-7.1-6.5-13.475a1.3 1.3 0 0 0-.358-.951z" stroke="#1d1e1f" stroke-width=".5"/></g></svg>