<svg xmlns="http://www.w3.org/2000/svg" width="160" height="160" fill="none" fill-rule="evenodd"><path fill="#fff" d="M0 0h160v160H0z"/><rect fill="#d62c2c" fill-rule="nonzero" x="79" y="70" width="66" height="78" rx="2"/><rect stroke="#1d1e1f" x="76.5" y="66.5" width="71" height="84" rx="2"/><g fill-rule="nonzero"><path d="M134.663 48.872v-13.1c0-11.745-9.465-21.297-21.086-21.297H101.71v.732h11.868c11.252 0 20.396 9.228 20.396 20.565v13.1l-4.94-4.985-.5.504 5.784 5.837 5.784-5.837-.5-.504-4.94 4.985zM22.87 124.804v-11.798l4.462 4.486.457-.46-5.238-5.266-5.238 5.266.457.46 4.462-4.486v11.798c0 9.986 7.623 18.215 17.318 19.115v-.663c-9.35-.896-16.68-8.83-16.68-18.452z" fill="#1d1e1f"/><path d="M87 119v1.223h50.636V119zm0-27v1.223h50.636V92zm0 18v1.223h50.636V110zm0-27v1.223h50.636V83zm0 54v1.223h50.636V137zm0-9v1.223h21.785V128zm0-27v1.223h21.785V101zm29 27v1.223h21.785V128zm0-27v1.223h21.785V101z" fill="#fff"/><path d="M47.206 143.4v1.223h1.223V143.4zm8.244 0v1.223h1.223V143.4z" fill="#1d1e1f"/><g fill="#d62c2c"><rect x="45" y="141" width="7" height="7" rx="2"/><rect x="54" y="141" width="7" height="7" rx="2"/><rect x="79" y="12" width="8" height="8" rx="2"/><rect x="90" y="12" width="8" height="8" rx="2"/></g><path d="M24.005 57.46v.025c-.12 5.8 1.983 11.44 5.85 15.76 1.25 1.267 2.614 2.423 4.113 3.483 4.27 3.22 5.85 4.824 6.54 7.58l.325 1.297-1.247.48c-1.547.597-2.557 2.042-2.56 3.64v3.622c.007 1.65 1.083 3.128 2.702 3.686l1.02.35v1.412c0 3.164 2.646 5.745 5.93 5.745s5.93-2.58 5.93-5.745v-1.412l1.02-.35c1.62-.558 2.695-2.035 2.702-3.68V89.73c-.004-1.602-1.015-3.048-2.565-3.643l-1.25-.48.326-1.3c.7-2.752 2.28-4.37 6.578-7.608a30.34 30.34 0 0 0 4.025-3.403c3.92-4.375 6.024-10.013 5.908-15.84C69.3 45.222 59.23 35.244 46.706 35c-12.583.244-22.653 10.222-22.7 22.46zm15.58 1.427c0-.158-.148-.302-.348-.302s-.348.144-.348.302.148.302.348.302h.348v-.302zm-.348 3.326c-1.854 0-3.372-1.48-3.372-3.326s1.518-3.326 3.372-3.326 3.372 1.48 3.372 3.326v3.326h-3.372zm7.8 3.628h-.697v16.932h.697V65.84zm-3.72 19.956v-22.98h6.744v22.98h-6.744zm3.372 15.118a2.24 2.24 0 0 0 1.546-.605h-3.1c.397.373.94.605 1.546.605zm0 3.024c-2.88 0-5.232-2.293-5.232-5.14v-1.512H51.9V98.8c0 2.847-2.35 5.14-5.232 5.14zm8.953-10.583c0 1.845-1.518 3.326-3.372 3.326H41.096c-1.854 0-3.372-1.48-3.372-3.326v-3.628c0-1.845 1.518-3.326 3.372-3.326h11.162c1.854 0 3.372 1.48 3.372 3.326v3.628zm7.253-20.4a30.45 30.45 0 0 1-4.009 3.369 24.32 24.32 0 0 0-5.43 5.053l-2.7 3.427V62.817h3.372c2.256 0 4.07-1.768 4.07-3.93s-1.813-3.93-4.07-3.93-4.07 1.768-4.07 3.93v3.326h-6.744v-3.326c0-2.162-1.813-3.93-4.07-3.93s-4.07 1.768-4.07 3.93 1.813 3.93 4.07 3.93h3.372V84.8l-2.7-3.433c-1.53-1.944-3.357-3.648-5.44-5.065a30.46 30.46 0 0 1-4.049-3.419c-3.8-4.26-5.84-9.753-5.717-15.398.2-11.88 10.232-21.88 21.975-21.88S68.46 45.607 68.652 57.48c.123 5.65-1.913 11.14-5.77 15.464zM54.118 59.2c.2 0 .348-.144.348-.302s-.148-.302-.348-.302-.348.144-.348.302v.302h.348zm-3.372-.302c0-1.845 1.518-3.326 3.372-3.326s3.372 1.48 3.372 3.326-1.518 3.326-3.372 3.326h-3.372v-3.326zm25.434-3.283h5.08c.076 0 .18-.113.18-.302S81.337 55 81.26 55h-5.08c-.076 0-.18.113-.18.302s.105.302.18.302zm-9.937-18.372c.067 0 .13-.026.174-.07l3.74-3.743a.24.24 0 0 0 .066-.237c-.024-.085-.1-.152-.174-.174s-.175.003-.255.085l-3.725 3.724c-.07.07-.1.175-.053.266s.126.15.225.15zm-17.94-8.79c.2 0 .302-.105.302-.18v-5.08c0-.076-.113-.18-.302-.18s-.302.105-.302.18v5.08c0 .076.113.18.302.18zm-22.142 8.72c.047-.047.073-.1.073-.173s-.026-.126-.072-.172l-3.743-3.742a.24.24 0 0 0-.237-.066c-.085.024-.15.1-.174.174s.003.176.085.255l3.723 3.725c.046.046.108.07.172.07a.25.25 0 0 0 .172-.07zM13.18 55c-.076 0-.18.113-.18.302s.105.302.18.302h5.08c.076 0 .18-.113.18-.302S18.337 55 18.26 55h-5.08z" stroke="#1d1e1f" stroke-width=".5" fill="#1d1e1f"/><rect fill="#d62c2c" x="37" y="87" width="16" height="8" rx="4"/></g></svg>