<svg xmlns="http://www.w3.org/2000/svg" viewBox="-3066 9158 212 61.023"><defs><style>.cls-1,.cls-2,.cls-3,.cls-4{fill:none;stroke-miterlimit:10;stroke-width:2px}.cls-1,.cls-4{stroke:#737ad6}.cls-2,.cls-3{stroke:#4a5acc}.cls-2,.cls-4{stroke-linecap:round}</style></defs><g id="Capt-lieutenant" transform="translate(-3066 9158)"><path id="Path_3945" data-name="Path 3945" class="cls-1" d="M115.58 50.88h27.51a1 1 0 0 1 1 1v1.82h-29.51v-1.82a1 1 0 0 1 1-1z" transform="rotate(180 129.335 52.29)"/><path id="Path_3946" data-name="Path 3946" class="cls-1" d="M84.644 39.074a5.7 5.7 0 0 0 0-11.383z"/><rect id="Rectangle_1593" data-name="Rectangle 1593" class="cls-2" width="38.17" height="26.31" rx="2" transform="rotate(180 61.41 23.255)"/><path id="Line_299" data-name="Line 299" class="cls-2" transform="translate(84.64 41.96)" d="M37.67 0H0"/><path id="Line_308" data-name="Line 308" class="cls-1" transform="translate(12.81 21.43)" d="M0 0h41.14"/><path id="Line_301" data-name="Line 301" class="cls-2" transform="translate(84.64 25.01)" d="M37.67 0H0"/><path id="Path_3947" data-name="Path 3947" class="cls-3" d="M12.76 5.13h44.5a.88.88 0 0 1 .88.88v5.2c7-2.74 14.09-2.31 21.2 0L108.54 1h38.61a.88.88 0 0 1 .88.88v7.39h35.25a.88.88 0 0 1 .88.88v4.91h15.28A11.61 11.61 0 0 1 211 26.66v23.88a.88.88 0 0 1-.88.88H148v4.91a.88.88 0 0 1-.88.88h-36.9a.88.88 0 0 1-.88-.88v-4.91H79.28c-9.14-2.29-14.39-2.29-21.39.34l-23.78 7.92a6.26 6.26 0 0 1-4.82-.36L2.32 45.6A2.72 2.72 0 0 1 1 43.27V13.5a3 3 0 0 1 1.53-2.61z"/><path id="Path_3948" data-name="Path 3948" class="cls-3" d="M205.35 46.07V29a9.22 9.22 0 0 0-9.22-9.22h-48.54a.88.88 0 0 0-.88.88v25.41a.88.88 0 0 0 .88.88h56.89a.88.88 0 0 0 .87-.88z"/><path id="Path_3949" data-name="Path 3949" class="cls-1" d="M149.55 11.94h30.3a1 1 0 0 1 1 1v2.5h-32.3v-2.5a1 1 0 0 1 1-1z"/><path id="Path_3950" data-name="Path 3950" class="cls-3" d="M109.44 4.06H144a.88.88 0 0 1 .88.88v4.37H94.8a.06.06 0 0 1 0-.11l13.95-5.07a3.71 3.71 0 0 1 .69-.07z"/><path id="Line_302" data-name="Line 302" class="cls-2" transform="translate(133.67 33.38)" d="M71.68 0H0"/><path id="Line_303" data-name="Line 303" class="cls-4" transform="translate(90.22 33.38)" d="M0 0h38.28"/><path id="Path_3951" data-name="Path 3951" class="cls-2" d="M12.81 11.06v31.51a.88.88 0 0 0 .88.88h2.67v-.88a16.63 16.63 0 0 1 33.26 0v.88h3.54a.88.88 0 0 0 .88-.88V11.06a.88.88 0 0 0-.88-.88H13.69a.88.88 0 0 0-.88.88z"/><path id="Line_304" data-name="Line 304" class="cls-3" transform="translate(57.45 5.81)" d="M0 0v45.95"/><path id="Line_305" data-name="Line 305" class="cls-3" transform="translate(79.33 11.94)" d="M0 39.38V0"/><rect id="Rectangle_1594" data-name="Rectangle 1594" class="cls-3" width="6.68" height="5.01" rx=".51" transform="translate(136.25 33.38)"/><path id="Line_306" data-name="Line 306" class="cls-2" transform="translate(146.72 41.7)" d="M0 0h58.63"/><ellipse id="Ellipse_251" data-name="Ellipse 251" class="cls-3" cx="13.7" cy="13.36" rx="13.7" ry="13.36" transform="translate(19.36 28.82)"/><ellipse id="Ellipse_252" data-name="Ellipse 252" class="cls-1" cx="2.16" cy="2.08" rx="2.16" ry="2.08" transform="translate(30.9 40.1)"/><ellipse id="Ellipse_254" data-name="Ellipse 254" class="cls-1" cx="10.26" cy="10" rx="10.26" ry="10" transform="translate(22.8 32.18)"/><ellipse id="Ellipse_256" data-name="Ellipse 256" class="cls-3" cx="6.39" cy="6.23" rx="6.39" ry="6.23" transform="translate(26.67 35.95)"/><path id="Line_307" data-name="Line 307" class="cls-3" transform="translate(12.81 15.51)" d="M41.14 0H0"/><path id="Line_310" data-name="Line 310" class="cls-3" transform="translate(146.59 24.87)" d="M0 0h56.83"/><path id="Path_3959" data-name="Path 3959" class="cls-4" d="M159.66 34.967l3.4-3.477 3.573 3.51-3.385 3.385-1.638-1.656 1.546-1.546" transform="translate(-5 -1)"/><path id="Path_3960" data-name="Path 3960" class="cls-4" d="M159.66 34.967l3.4-3.477 3.573 3.51-3.385 3.385-1.638-1.656 1.546-1.546" transform="translate(2 -1)"/><path id="Path_3961" data-name="Path 3961" class="cls-4" d="M159.66 34.967l3.4-3.477 3.573 3.51-3.385 3.385-1.638-1.656 1.546-1.546" transform="translate(9 -1)"/><path id="Path_3962" data-name="Path 3962" class="cls-4" d="M159.66 34.967l3.4-3.477 3.573 3.51-3.385 3.385-1.638-1.656 1.546-1.546" transform="translate(16 -1)"/><path id="Path_3963" data-name="Path 3963" class="cls-4" d="M159.66 34.967l3.4-3.477 3.573 3.51-3.385 3.385-1.638-1.656 1.546-1.546" transform="translate(23 -1)"/><path id="Path_3964" data-name="Path 3964" class="cls-4" d="M159.66 34.967l3.4-3.477 3.573 3.51-3.385 3.385-1.638-1.656 1.546-1.546" transform="translate(30 -1)"/></g></svg>