<svg width="60" height="60" viewBox="0 0 60 60" fill="none" xmlns="http://www.w3.org/2000/svg">
<rect width="60" height="60" fill="white"/>
<path d="M35.759 5.25003L35.7585 5.25003C32.8933 5.24915 30.0796 6.01044 27.6067 7.45559C25.1338 8.90074 23.0909 10.9776 21.6882 13.4725L21.6006 13.6282L21.425 13.5959C20.7796 13.477 20.1246 13.4182 19.4684 13.42L19.468 13.42C16.5958 13.4236 13.8375 14.5413 11.7749 16.5374C9.71239 18.5334 8.50701 21.2516 8.41306 24.1182L8.40695 24.3049L8.22623 24.3519C6.02916 24.9244 4.11651 26.2773 2.84649 28.1569C1.57648 30.0365 1.03619 32.314 1.32677 34.5628C1.61735 36.8117 2.71889 38.8776 4.42513 40.3737C6.13139 41.8698 8.32531 42.6933 10.596 42.69H10.5963H12.5989C12.7982 42.69 12.9894 42.6109 13.1302 42.4702C13.2711 42.3296 13.3502 42.1388 13.3502 41.94C13.3502 41.7412 13.2711 41.5505 13.1302 41.4098C12.9894 41.2691 12.7982 41.19 12.5989 41.19H10.5963H10.5898L10.5898 41.1899C8.66066 41.14 6.81784 40.3803 5.41511 39.0564C4.01236 37.7326 3.14854 35.9379 2.98953 34.0168C2.83051 32.0958 3.38753 30.1838 4.55359 28.6478C5.71964 27.1119 7.41255 26.0602 9.30736 25.6946L9.31229 25.6936L9.3123 25.6937C9.48878 25.6633 9.64853 25.571 9.76281 25.4334C9.87709 25.2959 9.93842 25.1222 9.93582 24.9437L9.93576 24.94L9.93579 24.7176C9.93057 24.6292 9.93057 24.5406 9.9358 24.4522C9.94049 21.9291 10.9447 19.5103 12.7292 17.7243C14.5155 15.9364 16.9381 14.9282 19.4669 14.92L19.4684 14.92C20.2493 14.9223 21.0268 15.0224 21.7827 15.2179C21.9485 15.2599 22.1237 15.2441 22.2793 15.1732C22.4351 15.1022 22.5619 14.9803 22.6387 14.8276C24.1228 11.8721 26.563 9.50405 29.5635 8.10733C32.564 6.71058 35.949 6.36713 39.1695 7.13265C42.3901 7.89818 45.2573 9.7278 47.3061 12.3249C49.355 14.922 50.4654 18.1342 50.4571 21.4407L50.4571 21.4422C50.4468 22.6368 50.2969 23.8261 50.0103 24.9859C49.9707 25.1754 50.0061 25.3729 50.1092 25.5371C50.213 25.7023 50.3771 25.8207 50.5669 25.8672L50.576 25.8694L50.5759 25.8696C52.3936 26.387 53.9626 27.5438 54.9932 29.1263C56.0238 30.7089 56.4464 32.6105 56.183 34.4799C55.9195 36.3494 54.9878 38.0605 53.5599 39.2975C52.1321 40.5344 50.3044 41.2137 48.4143 41.21M35.759 5.25003L48.4148 40.96M35.759 5.25003C37.8893 5.24614 39.9994 5.66134 41.9689 6.47191C43.9385 7.28247 45.7289 8.47253 47.2379 9.97411C48.7469 11.4757 49.945 13.2594 50.7637 15.2234C51.5824 17.1872 52.0058 19.2928 52.0097 21.42M35.759 5.25003L52.0097 21.42M48.4143 41.21L48.4148 40.96M48.4143 41.21H48.4148V40.96M48.4143 41.21H45.411C45.2116 41.21 45.0205 41.2891 44.8796 41.4298C44.7387 41.5705 44.6597 41.7612 44.6597 41.96C44.6597 42.1588 44.7387 42.3496 44.8796 42.4902C45.0205 42.6309 45.2116 42.71 45.411 42.71H48.4146M48.4148 40.96H45.411C45.1454 40.96 44.8907 41.0654 44.7029 41.2529C44.5152 41.4405 44.4097 41.6948 44.4097 41.96C44.4097 42.2252 44.5152 42.4796 44.7029 42.6671C44.8907 42.8547 45.1454 42.96 45.411 42.96H48.4148M48.4146 42.71L48.4148 42.96M48.4146 42.71C50.1555 42.7087 51.8614 42.2217 53.3399 41.3038C54.8184 40.386 56.0106 39.0738 56.7822 37.5154C57.5538 35.957 57.874 34.2143 57.7068 32.4839C57.5396 30.7536 56.8917 29.1044 55.8362 27.7222C54.8021 26.3849 53.4279 25.349 51.8567 24.7222L51.663 24.6449L51.7043 24.4405C51.9053 23.4461 52.0077 22.4344 52.0097 21.42M48.4146 42.71H48.4148V42.96M48.4148 42.96L52.0097 21.42M12.5989 40.94H10.5963L52.2597 21.42C52.2558 19.2598 51.8259 17.1215 50.9945 15.1272C50.1631 13.1329 48.9465 11.3216 47.4142 9.7969C45.882 8.27216 44.064 7.06377 42.0641 6.24072C40.0642 5.41767 37.9216 4.99608 35.7586 5.00003C32.849 4.99913 29.9918 5.7722 27.4805 7.23974C24.9693 8.70728 22.8948 10.8163 21.4703 13.35C20.8097 13.2284 20.1393 13.1681 19.4677 13.17C16.5308 13.1736 13.7102 14.3166 11.6011 16.3577C9.49194 18.3989 8.25927 21.1785 8.1632 24.11C5.90734 24.6978 3.94343 26.0869 2.63934 28.0169C1.33525 29.947 0.780443 32.2856 1.07883 34.5949C1.37722 36.9041 2.50834 39.0255 4.26031 40.5617C6.01229 42.0979 8.26494 42.9434 10.5963 42.94H12.5989C12.8644 42.94 13.1191 42.8347 13.3069 42.6471C13.4947 42.4596 13.6002 42.2052 13.6002 41.94C13.6002 41.6748 13.4947 41.4205 13.3069 41.2329C13.1191 41.0454 12.8644 40.94 12.5989 40.94Z" fill="#12233D" stroke="white" stroke-width="0.5"/>
<path fill-rule="evenodd" clip-rule="evenodd" d="M26.1977 32.9376C25.656 33.1072 25.1308 33.3246 24.6281 33.5877L21.9498 32.2424C20.8758 33.1389 20.1629 33.8509 19.2652 34.9235L20.6123 37.5984C20.3488 38.1002 20.1312 38.6247 19.9617 39.1659L17.1154 40.1052C16.9882 41.5334 16.9882 42.4694 17.1154 43.8973L19.9614 44.8368C20.1312 45.3775 20.3488 45.902 20.6123 46.4041L19.2652 49.0789C20.1629 50.1516 20.8758 50.8639 21.9498 51.7604L24.6281 50.4147C25.1305 50.6779 25.6557 50.8953 26.1977 51.0645L27.1381 53.9071C28.5313 54.0309 29.5419 54.0309 30.9351 53.9071L31.8758 51.0648C32.4172 50.8956 32.9424 50.6779 33.4451 50.4147L36.1234 51.7604C37.1974 50.8639 37.9106 50.1516 38.8083 49.0789L37.4609 46.4041C37.7244 45.9023 37.9421 45.3778 38.1115 44.8368L40.9578 43.8973C41.0818 42.5059 41.0818 41.4966 40.9578 40.1052L38.1118 39.1659C37.9424 38.625 37.7244 38.1005 37.4609 37.5984L38.8083 34.9235C37.9106 33.8509 37.1974 33.1389 36.1234 32.2424L33.4451 33.5877C32.9427 33.3246 32.4175 33.1072 31.8758 32.9379L30.9351 30.0953C29.5053 29.9682 28.5682 29.9682 27.1381 30.0953L26.1977 32.9376ZM28.069 31.2684L27.1759 33.9678C26.2737 34.1756 25.4285 34.5315 24.6661 35.0073L22.1217 33.7289C21.6258 34.1428 21.168 34.6 20.7536 35.0952L22.0337 37.6364C21.557 38.3977 21.2013 39.2419 20.9929 40.1429L18.29 41.0349C18.2322 41.6805 18.2322 42.3219 18.29 42.9676L20.9929 43.8599C21.201 44.7609 21.5573 45.6048 22.0337 46.3661L20.7536 48.9073C21.168 49.4028 21.6258 49.8597 22.1217 50.2739L24.6661 48.9952C25.4285 49.4716 26.2737 49.8268 27.1759 50.0347L28.069 52.734C28.7155 52.7917 29.3577 52.7917 30.0042 52.734L30.8976 50.0347C31.7998 49.8268 32.6448 49.4713 33.4071 48.9952L35.9515 50.2739C36.4477 49.8597 36.9052 49.4028 37.3199 48.9073L36.0396 46.3661C36.5165 45.6048 36.8722 44.7609 37.0803 43.8599L39.7832 42.9676C39.841 42.3219 39.841 41.6805 39.7832 41.0349L37.0803 40.1429C36.8722 39.2419 36.5162 38.3977 36.0396 37.6364L37.3199 35.0952C36.9052 34.6 36.4477 34.1428 35.9515 33.7289L33.4071 35.0073C32.6448 34.5312 31.7998 34.1759 30.8976 33.9678L30.0042 31.2684C29.3577 31.2107 28.7155 31.2107 28.069 31.2684ZM29.0368 38.0532C26.8537 38.0532 25.0835 39.8211 25.0835 42.0014C25.0835 44.1816 26.8537 45.9492 29.0368 45.9492C31.2198 45.9492 32.9897 44.1816 32.9897 42.0014C32.9897 39.8211 31.2198 38.0532 29.0368 38.0532ZM29.0368 39.3038C30.5282 39.3038 31.7375 40.5116 31.7375 42.0014C31.7375 43.4909 30.5282 44.6987 29.0368 44.6987C27.5451 44.6987 26.3357 43.4909 26.3357 42.0014C26.3357 40.5116 27.5451 39.3038 29.0368 39.3038Z" fill="#D62C2C"/>
</svg>
