<svg width="60" height="60" viewBox="0 0 60 60" fill="none" xmlns="http://www.w3.org/2000/svg">
<rect width="60" height="60" fill="white"/>
<path d="M4.2945 38V20.96H11.3025C12.0225 20.96 12.6865 21.112 13.2945 21.416C13.9025 21.72 14.4225 22.128 14.8545 22.64C15.3025 23.136 15.6465 23.704 15.8865 24.344C16.1425 24.968 16.2705 25.6 16.2705 26.24C16.2705 26.928 16.1505 27.592 15.9105 28.232C15.6865 28.872 15.3585 29.44 14.9265 29.936C14.5105 30.432 14.0065 30.832 13.4145 31.136C12.8225 31.424 12.1665 31.568 11.4465 31.568H5.5185V38H4.2945ZM5.5185 30.44H11.3985C11.9585 30.44 12.4625 30.328 12.9105 30.104C13.3585 29.864 13.7345 29.552 14.0385 29.168C14.3585 28.768 14.5985 28.32 14.7585 27.824C14.9345 27.312 15.0225 26.784 15.0225 26.24C15.0225 25.68 14.9185 25.152 14.7105 24.656C14.5185 24.144 14.2465 23.696 13.8945 23.312C13.5585 22.928 13.1585 22.624 12.6945 22.4C12.2465 22.176 11.7665 22.064 11.2545 22.064H5.5185V30.44ZM25.4709 21.08H26.6709L29.2149 27.272L31.7589 21.08H32.9589L29.9589 28.256L33.5349 36.56L40.0629 20.96H41.4069L34.1109 38H32.9829L29.2389 29.24L25.4709 38H24.3429L17.0709 20.96H18.3909L24.9429 36.56L28.4709 28.256L25.4709 21.08Z" fill="#12233D"/>
<path d="M49.3262 20.96H50.3822L57.5822 38H56.2862L53.9102 32.384H45.7742L43.3982 38H42.0782L49.3262 20.96ZM53.5742 31.376L49.8542 22.448L46.0622 31.376H53.5742Z" fill="#D62C2C"/>
</svg>
