<svg xmlns="http://www.w3.org/2000/svg" xmlns:xlink="http://www.w3.org/1999/xlink" viewBox="0 0 4213 1127"><defs><style>.cls-1{fill:url(#linear-gradient);}.cls-2{fill:#575756;}.cls-3{fill:#9d9d9c;}.cls-4{fill:url(#linear-gradient-2);}.cls-5{fill:url(#linear-gradient-3);}.cls-6{fill:url(#linear-gradient-4);}.cls-7{fill:#fff;}</style><linearGradient id="linear-gradient" x1="64.07" y1="570.2" x2="991.77" y2="570.2" gradientUnits="userSpaceOnUse"><stop offset="0.07" stop-color="#593082"/><stop offset="0.5" stop-color="#4b6ac9"/><stop offset="0.84" stop-color="#00d9c6"/></linearGradient><linearGradient id="linear-gradient-2" x1="504.02" y1="546.46" x2="623.37" y2="1009.03" gradientTransform="translate(-21.74 46.55) rotate(-0.53)" gradientUnits="userSpaceOnUse"><stop offset="0.12" stop-color="#593082"/><stop offset="0.6" stop-color="#4b6ac9"/><stop offset="1" stop-color="#00d9c6"/></linearGradient><linearGradient id="linear-gradient-3" x1="6997.73" y1="-2252.51" x2="6351.77" y2="-1978.41" gradientTransform="translate(2611.81 7240.78) rotate(-87.91)" gradientUnits="userSpaceOnUse"><stop offset="0.04" stop-color="#593082"/><stop offset="0.49" stop-color="#4b6ac9"/><stop offset="0.96" stop-color="#00d9c6"/></linearGradient><linearGradient id="linear-gradient-4" x1="412.02" y1="530.79" x2="431.19" y2="-83.24" gradientTransform="translate(-67.16 159.65) rotate(-1.79)" gradientUnits="userSpaceOnUse"><stop offset="0.04" stop-color="#593082"/><stop offset="0.41" stop-color="#4b6ac9"/><stop offset="0.9" stop-color="#00d9c6"/></linearGradient></defs><title>logo</title><g id="Layer_1" data-name="Layer 1"><path class="cls-1" d="M991.77,435.57V704.24a218.58,218.58,0,0,1-18.59,88.22,206.69,206.69,0,0,1-10.84,21.42h0a224.12,224.12,0,0,1-83.95,83.17l-237,134.31a230.38,230.38,0,0,1-226.8,0L177.44,897.05A225.74,225.74,0,0,1,127.83,859,220.24,220.24,0,0,1,64.07,704.24V435.57a220,220,0,0,1,51.67-141.46q3.29-3.93,6.76-7.71h0c.83-.9,1.66-1.79,2.5-2.67,1.13-1.19,2.28-2.38,3.45-3.55l.76-.76c.3-.31.61-.61.92-.91l.67-.66,1.19-1.16,1.35-1.29,1.06-1c1.61-1.51,3.26-3,4.92-4.47s3.36-2.91,5.07-4.33c.72-.61,1.46-1.21,2.2-1.81L148.8,262l.68-.53,2.21-1.7c.85-.66,1.72-1.31,2.59-1.95l2.63-1.92,1.91-1.35,1.14-.79,1.54-1.06,1.55-1,1.58-1.05.84-.55c.76-.5,1.52-1,2.28-1.47,1.06-.66,2.13-1.33,3.2-2l1.46-.89.27-.16,1.5-.89c1.07-.64,2.16-1.27,3.26-1.89L414.52,108.44l1.35-.76,2.75-1.5c.89-.48,1.78-1,2.68-1.42l1.36-.71,2.74-1.39c.92-.46,1.84-.91,2.77-1.35q2.06-1,4.16-1.94l1.34-.61q3.51-1.58,7.07-3l1.77-.71,1.77-.7,1.77-.68,1.79-.67,1.43-.53,2.86-1,1.61-.56L457,89.8l1.63-.52,1.62-.5,1.31-.4,2-.58,1.63-.47,1.65-.45c.54-.16,1.09-.3,1.64-.45,1.09-.29,2.19-.58,3.29-.85l1.74-.43,3.16-.74,1.71-.38h0l2.21-.48c1.48-.3,3-.6,4.43-.88l2.22-.41h0l3-.51h0l3-.47q3.08-.47,6.15-.86l2.63-.31,1.66-.18,1.5-.15c.5-.06,1-.11,1.5-.15.85-.08,1.71-.16,2.56-.22L512,79.2h.08l33.87.17h0c.27,0,.53,0,.79.06l1,.08q.84.06,1.68.15c6.64.61,13.28,1.54,19.88,2.76h0a228.43,228.43,0,0,1,72.05,26l237,134.36C948.52,282.56,991.77,356,991.77,435.57Z"/><path class="cls-2" d="M1956.36,555.5q0,44.38-13.22,78T1907,689.88A148.3,148.3,0,0,1,1852.4,724q-31.68,11.47-68.07,11.48A193.17,193.17,0,0,1,1717.52,724a153.46,153.46,0,0,1-54.85-34.15q-23.45-22.7-36.9-56.35t-13.46-78q0-44.37,14-78t37.65-56.6a154.87,154.87,0,0,1,54.84-34.4A188.48,188.48,0,0,1,1784.33,375a193.46,193.46,0,0,1,66.82,11.47,152.22,152.22,0,0,1,54.85,34.4q23.43,22.94,36.89,56.6T1956.36,555.5Zm-263.77,0q0,25.43,6.23,45.87t18,35.16a79.21,79.21,0,0,0,28.67,22.68q16.95,8,38.89,8,21.43,0,38.65-8a78.89,78.89,0,0,0,28.92-22.68q11.7-14.71,17.94-35.16t6.24-45.87q0-25.43-6.24-46.12T1851.9,474A79.12,79.12,0,0,0,1823,451.29q-17.2-8-38.65-8-21.94,0-38.89,8.23a82,82,0,0,0-28.67,22.93q-11.71,14.73-18,35.4T1692.59,555.5Z"/><path class="cls-2" d="M2122.39,379q77.79,0,119.17,27.68t41.39,86q0,36.41-16.7,59.09t-48.12,35.65q10.47,13,21.94,29.67t22.68,34.9q11.22,18.21,21.7,37.9t19.44,38.64h-86.95q-9.51-16.95-19.28-34.4t-20-33.91q-10.26-16.46-20.28-31.16t-20-26.68H2099V728.52h-77.79V388a446.24,446.24,0,0,1,52.61-7Q2100.94,379,2122.39,379Zm4.49,66.32c-5.66,0-10.72.17-15.21.49s-8.72.67-12.71,1v93.74h21.94q43.86,0,62.82-11t19-37.39q0-25.44-19.19-36.15T2126.88,445.31Z"/><path class="cls-2" d="M2584.61,661.7v66.82H2353.75V383h77.78V661.7Z"/><path class="cls-2" d="M2937.12,555.5q0,44.88-13.95,78.28t-39.64,55.35q-25.7,21.95-62.59,32.91t-82.76,11q-21,0-48.86-1.75a398.21,398.21,0,0,1-54.86-7.23V387.46a460.75,460.75,0,0,1,56.11-6.72q29.16-1.75,50.11-1.75,44.37,0,80.52,10t62.07,31.42q25.93,21.44,39.9,54.84T2937.12,555.5ZM2712.25,665.2c3.65.33,7.9.58,12.72.74s10.55.25,17.2.25q58.34,0,86.5-29.42t28.18-81.27q0-54.35-26.93-82.27t-85.26-27.92q-8,0-16.45.24c-5.66.18-11,.59-16,1.25Z"/><path class="cls-3" d="M3203.38,699.1v29.42H3006.93V383h33.91V699.1Z"/><path class="cls-3" d="M3504,728.52q-9.89-25.46-18.2-49T3470,633.78h-168.8q-8.65,22.4-16.94,45.91t-17.52,48.83h-35.4q19.68-54,37.19-100.56t34.34-88.17q16.82-41.6,33.43-79.93T3371.15,383h29.9q18.28,38.37,34.69,76.78t33.3,80q16.89,41.57,34.23,88.22t38.18,100.56ZM3385.13,421.87q-18.77,43-36.53,87.38t-36.81,95.61h147.5q-19.15-51.35-37.27-95.75T3385.13,421.87Z"/><path class="cls-3" d="M3673.58,731.51c-5.66,0-12.21-.25-19.69-.74s-15.14-1.18-22.94-2-15.21-1.82-22.19-3-13-2.41-18-3.74V389.46a182.74,182.74,0,0,1,20-4.24q10.95-1.74,22.68-3t22.94-1.74c7.47-.33,14.38-.51,20.69-.51a303.78,303.78,0,0,1,53.11,4.48q25.16,4.49,44.12,14.94A83.49,83.49,0,0,1,3804.46,427q11.22,17.19,11.23,42.57,0,27.9-14.22,47.55t-38.14,27.13a117.12,117.12,0,0,1,27.42,10A80.23,80.23,0,0,1,3812.7,571a71.6,71.6,0,0,1,14.7,25q5.25,14.73,5.24,35.2,0,48.93-38.9,74.64T3673.58,731.51Zm-48.86-198h65.81a212.29,212.29,0,0,0,34.91-2.73,82.51,82.51,0,0,0,28.66-9.93,52.46,52.46,0,0,0,19.2-19.37q7-12.16,7-31,0-16.87-7.47-28.55t-21.19-19.12q-13.74-7.44-32.67-10.67a250.35,250.35,0,0,0-41.88-3.24q-18.45,0-31.16,1t-21.19,2.49Zm0,28.92V699.1q7.47,1,22.43,2.24t30.42,1.25a324,324,0,0,0,44.63-3q21.69-3,38.14-11a68.61,68.61,0,0,0,26.43-22q10-14,10-36,0-20-7-33.27a52.75,52.75,0,0,0-19.94-21q-13-7.77-31.67-10.76a264,264,0,0,0-41.63-3Z"/><path class="cls-3" d="M3979.23,706.58q40.38,0,62.83-14.74t22.43-47.73q0-19-7.23-31.73a67.82,67.82,0,0,0-19.2-21.49A125.44,125.44,0,0,0,4010.64,576q-15.46-6.19-32.41-13.13a384.57,384.57,0,0,1-38.39-17.35,130.89,130.89,0,0,1-28.92-20.14,76.22,76.22,0,0,1-18.2-25.68q-6.24-14.44-6.24-33.9,0-44.38,29.42-67.32t81.78-22.93a186.81,186.81,0,0,1,27.42,2,209.87,209.87,0,0,1,25.18,5.23,189.78,189.78,0,0,1,21.44,7.23,86,86,0,0,1,16.21,8.47l-12,28.43q-14.48-10-35.15-16a160.08,160.08,0,0,0-44.63-6,131.35,131.35,0,0,0-30.17,3.24,65.87,65.87,0,0,0-23.68,10.47,51.83,51.83,0,0,0-15.71,18.2q-5.73,11-5.73,26.43,0,16,6,26.92a58.26,58.26,0,0,0,16.7,18.95,133.31,133.31,0,0,0,25.19,14.46q14.46,6.48,31.41,13.46,20.45,8.49,38.65,17a139.22,139.22,0,0,1,31.65,20,84.66,84.66,0,0,1,21.44,27.92q8,16.46,8,40.39,0,46.88-32.67,70.31T3978.73,736a244.22,244.22,0,0,1-36.4-2.5,230.7,230.7,0,0,1-29.42-6.23,170.31,170.31,0,0,1-21.94-7.73,133.64,133.64,0,0,1-14-7l11-29.43q5,3,13.46,7a173.76,173.76,0,0,0,19.95,7.73,185.48,185.48,0,0,0,25.93,6.23A187.47,187.47,0,0,0,3979.23,706.58Z"/><path class="cls-2" d="M1340.64,571.47c-3.28-11.44-19.52-11.42-22.71,0q-8,28.89-16.64,57.56-13.57,45.24-28.53,91a11.85,11.85,0,0,1-11.25,8.16h-59.8a11.78,11.78,0,0,1-10.89-7.23q-10.58-25.23-22.63-58.46-13.85-38.1-28.66-83.1t-30.31-95.26q-13.2-42.86-25.68-86.42a11.83,11.83,0,0,1,11.37-15.07h78a11.8,11.8,0,0,1,11.53,9.22q4.42,19.79,9.49,42.35,6.29,27.93,13.23,57.48t14.54,59.45q2.14,8.49,4.33,16.78c3.07,11.67,19.58,11.8,22.82.18q2.58-9.24,5.13-18.61,8.21-30.2,15.77-59.44t14.45-56.5q5.58-22,10.08-41.74a11.79,11.79,0,0,1,11.51-9.17h52a11.8,11.8,0,0,1,11.52,9.19q4.44,19.68,9.76,41.72,6.55,27.27,13.8,56.5T1408,549.58q2.45,9.34,4.93,18.55c3.16,11.64,19.67,11.63,22.82,0q2.26-8.34,4.53-16.89,7.92-29.88,14.88-59.45t13.21-57.48q5.07-22.57,9.5-42.35a11.79,11.79,0,0,1,11.53-9.22h76.69a11.82,11.82,0,0,1,11.37,15.07q-12.48,43.56-25.68,86.42-15.49,50.26-30.3,95.26t-29,83.1q-12.36,33.24-23,58.47a11.78,11.78,0,0,1-10.89,7.22h-59.82a11.85,11.85,0,0,1-11.24-8.14q-15-45.79-29.5-91Q1348.94,600.39,1340.64,571.47Z"/></g><g id="Layer_2" data-name="Layer 2"><path class="cls-4" d="M901.63,729.09,666.2,602.61a221.17,221.17,0,0,0-162-18.8c-2.55.63-5.11,1.37-7.66,2.2a219.33,219.33,0,0,0-51.68,23.39l-109.5,67.77L217.63,750.05A221.27,221.27,0,0,0,127.84,858a225.63,225.63,0,0,0,49.6,38.78l237.08,136.84a226.63,226.63,0,0,0,226.8,0l237-136.84A226.18,226.18,0,0,0,962.3,812h0a212.82,212.82,0,0,0,10.83-21.82A220.63,220.63,0,0,0,901.63,729.09Z"/></g><g id="Layer_3" data-name="Layer 3"><path class="cls-5" d="M878.35,230.21l-237-136.89A225.66,225.66,0,0,0,569.27,66.8h0c-6.6-1.24-62.6-1.07-63.45-1h0a212.4,212.4,0,0,0-30.88,92.27L448.52,424.83a222.11,222.11,0,0,0,48,161.17c1,1.22,2,2.44,3,3.61h0a220.34,220.34,0,0,0,40.54,37.56L757.92,783.41A222,222,0,0,0,962.3,812h0a213.05,213.05,0,0,0,10.84-21.83,226.27,226.27,0,0,0,18.59-89.87V426.6A226.75,226.75,0,0,0,878.35,230.21Z"/></g><g id="Layer_4" data-name="Layer 4"><path class="cls-6" d="M645.79,260.74,569.27,66.8h0a192,192,0,0,0-21.56-3l-1-.08-.79-.06h0a239.26,239.26,0,0,0-33.87-.17H512l-2.88.21-2.57.23-1.49.15-1.5.16-1.66.18-2.63.32q-3.07.39-6.15.87c-1,.15-2,.31-3,.48h0l-3,.52h0c-.74.13-1.48.28-2.22.42-1.47.28-3,.58-4.43.9l-2.21.48h0l-1.71.39c-1.06.24-2.11.5-3.16.75l-1.74.44c-1.1.28-2.2.57-3.29.87l-1.64.45-1.65.47-1.63.47-2,.59-1.31.41-1.62.51-1.63.53c-1.08.35-2.16.72-3.24,1.09l-1.61.57-2.86,1-1.43.54-1.79.68-1.77.69-1.77.71-1.77.73q-3.56,1.48-7.07,3.09l-1.34.61q-2.1,1-4.16,2l-2.77,1.37-2.74,1.42-1.36.72c-.9.47-1.79,1-2.68,1.45s-1.84,1-2.75,1.53l-1.35.77L177.44,230.21c-1.09.64-2.18,1.28-3.26,1.93l-1.5.9-.27.16c-.49.3-1,.6-1.46.91-1.07.66-2.14,1.34-3.2,2l-2.28,1.5-.84.56-1.58,1.07c-.52.35-1,.7-1.55,1.06L160,241.4l-1.14.81-1.91,1.37-2.63,2c-.87.66-1.74,1.32-2.59,2l-2.21,1.73-.68.54c-.74.6-1.48,1.2-2.21,1.81s-1.48,1.21-2.2,1.84q-2.58,2.16-5.07,4.41c-1.66,1.49-3.31,3-4.92,4.55l-1.06,1L132,264.74l-1.19,1.17-.67.68c-.31.3-.62.61-.92.93s-.51.51-.76.77q-1.75,1.8-3.45,3.62c-.84.9-1.67,1.8-2.5,2.71h0q-3.48,3.86-6.76,7.85A226.66,226.66,0,0,0,64.07,426.59v207.1h0a179,179,0,0,0,37.16,9.65l215.14,32a182.22,182.22,0,0,0,19,1.8A180.2,180.2,0,0,0,484,609.24l15.58-19.62h0l4.63-5.8L619.26,439A180.13,180.13,0,0,0,645.79,260.74Z"/></g><g id="Layer_5" data-name="Layer 5"><path class="cls-7" d="M779,392.23l-26.27-19A26.85,26.85,0,0,0,726,370.44l-29.61,13.24a26.85,26.85,0,0,0-15.76,21.77l-1.77,17.07c-.12.86-.29,1.7-.37,2.57l-.86,9.35-.34,3.27c0,.22,0,.43,0,.65l-17,184L529.39,530.41l0-.06,0,0,0,0,0,.06L398.46,622.32l-17-184c0-.22,0-.43,0-.65l-.34-3.28-.87-9.34c-.08-.87-.24-1.71-.36-2.56l-1.77-17.08a26.89,26.89,0,0,0-15.76-21.77l-29.61-13.24A26.85,26.85,0,0,0,306,373.21l-26.28,19a26.9,26.9,0,0,0-11,24.53l1.64,15.76c0,.91,0,1.8.11,2.71L296,710.85a56.28,56.28,0,0,0,1,6.41L298.08,728a26.89,26.89,0,0,0,15.76,21.76L343.45,763a26.87,26.87,0,0,0,26.74-2.77l26.27-19a26.61,26.61,0,0,0,2.76-2.29l130.11-91.42,130.11,91.41a27.92,27.92,0,0,0,2.77,2.3l26.27,19A26.85,26.85,0,0,0,715.21,763l29.61-13.24A26.87,26.87,0,0,0,760.58,728l1.11-10.75a54.16,54.16,0,0,0,1-6.41l25.48-275.62c.08-.91.07-1.8.11-2.71l1.63-15.76A26.86,26.86,0,0,0,779,392.23Z"/></g></svg>