<svg width="64" height="64" viewBox="0 0 64 64" fill="none" xmlns="http://www.w3.org/2000/svg">
<g clip-path="url(#clip0)">
<path d="M20.6002 8.49301C21.2002 8.49301 21.7002 7.99205 21.6002 7.39089C21.5002 7.09031 21.6002 6.78973 21.7002 6.68953C21.9002 6.48915 22.9002 6.38896 25.2002 7.29069C28.0002 8.39282 30.7002 6.28876 30.3002 4.2849C34.4002 4.78587 36.0002 2.68181 36.5002 1.3793C36.7002 0.878334 36.5002 0.277175 36.0002 0.0767889C35.5002 -0.123598 34.9002 0.0767889 34.7002 0.577754C34.1002 1.98046 32.7002 2.58162 30.5002 2.28104C29.9002 2.18084 29.3002 2.38123 28.9002 2.8822C28.5002 3.28297 28.3002 3.88413 28.3002 4.48529C28.4002 5.08644 27.2002 5.98818 25.8002 5.48722C23.2002 4.48529 21.4002 4.38509 20.3002 5.28683C19.8002 5.6876 19.3002 6.38896 19.5002 7.79166C19.7002 8.09224 20.1002 8.49301 20.6002 8.49301Z" fill="#DE4F4F"/>
<path d="M40.5001 8.49301C41.1001 8.49301 41.6001 7.99205 41.5001 7.39089C41.4001 7.09031 41.5001 6.78973 41.6001 6.68953C41.8001 6.48915 42.8001 6.38896 45.1001 7.29069C48.0001 8.39282 50.6001 6.18857 50.2001 4.2849C54.3001 4.78587 55.9001 2.68181 56.4001 1.3793C56.6001 0.878334 56.4001 0.277175 55.9001 0.0767889C55.4001 -0.123598 54.8001 0.0767889 54.6001 0.577754C54.0001 1.98046 52.6001 2.58162 50.4001 2.28104C49.8001 2.18084 49.2001 2.38123 48.8001 2.8822C48.4001 3.28297 48.2001 3.88413 48.2001 4.48529C48.3001 5.08644 47.1001 5.98818 45.7001 5.48722C43.1001 4.48529 41.3001 4.38509 40.2001 5.28683C39.7001 5.6876 39.2001 6.38896 39.4001 7.79166C39.5001 8.09224 40.0001 8.49301 40.5001 8.49301Z" fill="#DE4F4F"/>
<path d="M20.2002 39.7534H14.2002C13.6002 39.7534 13.2002 40.1542 13.2002 40.7553V46.7669C13.2002 47.3681 13.6002 47.7689 14.2002 47.7689H20.2002C20.8002 47.7689 21.2002 47.3681 21.2002 46.7669V40.7553C21.2002 40.1542 20.7002 39.7534 20.2002 39.7534ZM19.2002 45.765H15.2002V41.7573H19.2002V45.765Z" fill="#DE4F4F"/>
<path d="M35 39.7534H29C28.4 39.7534 28 40.1542 28 40.7553V46.7669C28 47.3681 28.4 47.7689 29 47.7689H35C35.6 47.7689 36 47.3681 36 46.7669V40.7553C36 40.1542 35.6 39.7534 35 39.7534ZM34 45.765H30V41.7573H34V45.765Z" fill="#DE4F4F"/>
<path d="M49.7998 39.7534H43.7998C43.1998 39.7534 42.7998 40.1542 42.7998 40.7553V46.7669C42.7998 47.3681 43.1998 47.7689 43.7998 47.7689H49.7998C50.3998 47.7689 50.7998 47.3681 50.7998 46.7669V40.7553C50.7998 40.1542 50.3998 39.7534 49.7998 39.7534ZM48.7998 45.765H44.7998V41.7573H48.7998V45.765Z" fill="#DE4F4F"/>
<path d="M20.2002 50.7747H14.2002C13.6002 50.7747 13.2002 51.1754 13.2002 51.7766V57.7882C13.2002 58.3893 13.6002 58.7901 14.2002 58.7901H20.2002C20.8002 58.7901 21.2002 58.3893 21.2002 57.7882V51.7766C21.2002 51.1754 20.7002 50.7747 20.2002 50.7747ZM19.2002 56.7862H15.2002V52.7785H19.2002V56.7862Z" fill="#DE4F4F"/>
<path d="M35 50.7747H29C28.4 50.7747 28 51.1754 28 51.7766V57.7882C28 58.3893 28.4 58.7901 29 58.7901H35C35.6 58.7901 36 58.3893 36 57.7882V51.7766C36 51.1754 35.6 50.7747 35 50.7747ZM34 56.7862H30V52.7785H34V56.7862Z" fill="#DE4F4F"/>
<path d="M49.7998 50.7747H43.7998C43.1998 50.7747 42.7998 51.1754 42.7998 51.7766V57.7882C42.7998 58.3893 43.1998 58.7901 43.7998 58.7901H49.7998C50.3998 58.7901 50.7998 58.3893 50.7998 57.7882V51.7766C50.7998 51.1754 50.3998 50.7747 49.7998 50.7747ZM48.7998 56.7862H44.7998V52.7785H48.7998V56.7862Z" fill="#DE4F4F"/>
<path d="M63 61.9962H60.5V35.445C60.5 34.8438 60.1 34.4431 59.5 34.4431H52.2L50.3 18.6125V12.7011C50.3 12.1 49.9 11.6992 49.3 11.6992H36.3C35.7 11.6992 35.3 12.1 35.3 12.7011V18.6125L33.4 34.4431H28.5L26.6 21.6183V15.7069C26.6 15.1058 26.2 14.705 25.6 14.705H14.6C14 14.705 13.6 15.1058 13.6 15.7069V21.6183L11.7 34.4431H4.5C3.9 34.4431 3.5 34.8438 3.5 35.445V61.9962H1C0.4 61.9962 0 62.3969 0 62.9981C0 63.5993 0.4 64 1 64C26.2 64 36.5 64 63 64C63.6 64 64 63.5993 64 62.9981C64 62.3969 63.6 61.9962 63 61.9962ZM48.3 13.7031V17.6106H37.3V13.7031H48.3ZM37.2 19.7147H48.4L50.2 34.4431H35.5L37.2 19.7147ZM24.7 16.7089V20.6164H15.7V16.7089H24.7ZM15.5 22.7205H24.8L26.5 34.4431H13.8L15.5 22.7205ZM5.5 61.9962V36.4469H12.7H27.7H34.4H51.4H58.6V61.9962H5.5Z" fill="#DE4F4F"/>
</g>
<defs>
<clipPath id="clip0">
<rect width="64" height="64" fill="white"/>
</clipPath>
</defs>
</svg>
