<svg width="63" height="64" viewBox="0 0 63 59" fill="none" xmlns="http://www.w3.org/2000/svg">
<path d="M47.2499 33.075H53.5499C53.9848 33.075 54.3374 32.7223 54.3374 32.2875V25.9875C54.3374 25.5526 53.9848 25.2 53.5499 25.2H47.2499C46.815 25.2 46.4624 25.5526 46.4624 25.9875V32.2875C46.4624 32.7223 46.815 33.075 47.2499 33.075ZM48.0374 26.775H52.7624V31.5H48.0374V26.775Z" fill="#DE4F4F"/>
<path d="M47.2499 43.3125H53.5499C53.9848 43.3125 54.3374 42.9599 54.3374 42.525V36.225C54.3374 35.7901 53.9848 35.4375 53.5499 35.4375H47.2499C46.815 35.4375 46.4624 35.7901 46.4624 36.225V42.525C46.4624 42.9599 46.815 43.3125 47.2499 43.3125ZM48.0374 37.0125H52.7624V41.7375H48.0374V37.0125Z" fill="#DE4F4F"/>
<path d="M62.2125 50.4H59.0625V21.2625C59.0625 20.8276 58.7099 20.475 58.275 20.475H55.125V12.6C55.125 12.1651 54.7724 11.8125 54.3375 11.8125H34.65C34.2151 11.8125 33.8625 12.1651 33.8625 12.6V20.475H31.5V9.45C31.5 9.01511 31.1474 8.6625 30.7125 8.6625H28.35V0.7875C28.35 0.352606 27.9974 0 27.5625 0H7.875C7.44011 0 7.0875 0.352606 7.0875 0.7875V8.6625H4.725C4.29011 8.6625 3.9375 9.01511 3.9375 9.45V50.4H0.7875C0.352606 50.4 0 50.7526 0 51.1875V57.4875C0 57.9224 0.352606 58.275 0.7875 58.275H62.2125C62.6474 58.275 63 57.9224 63 57.4875V51.1875C63 50.7526 62.6474 50.4 62.2125 50.4ZM35.4375 13.3875H53.55V20.475H35.4375V13.3875ZM31.5 22.05H34.65H54.3375H57.4875V50.4H54.3375V46.4625C54.3375 46.0276 53.9849 45.675 53.55 45.675H47.25C46.8151 45.675 46.4625 46.0276 46.4625 46.4625V50.4H42.525V46.4625C42.525 46.0276 42.1724 45.675 41.7375 45.675H35.4375C35.0026 45.675 34.65 46.0276 34.65 46.4625V50.4H31.5V22.05ZM52.7625 47.25V50.4H48.0375V47.25H52.7625ZM40.95 47.25V50.4H36.225V47.25H40.95ZM8.6625 1.575H26.775V8.6625H8.6625V1.575ZM5.5125 10.2375H7.875H27.5625H29.925V21.2625V50.4H26.775V46.4625C26.775 46.0276 26.4224 45.675 25.9875 45.675H10.2375C9.80261 45.675 9.45 46.0276 9.45 46.4625V50.4H5.5125V10.2375ZM25.2 47.25V50.4H11.025V47.25H25.2ZM61.425 56.7H1.575V51.975H4.725H10.2375H25.9875H30.7125H35.4375H41.7375H47.25H53.55H58.275H61.425V56.7Z" fill="#DE4F4F"/>
<path d="M35.4374 33.075H41.7374C42.1723 33.075 42.5249 32.7223 42.5249 32.2875V25.9875C42.5249 25.5526 42.1723 25.2 41.7374 25.2H35.4374C35.0025 25.2 34.6499 25.5526 34.6499 25.9875V32.2875C34.6499 32.7223 35.0025 33.075 35.4374 33.075ZM36.2249 26.775H40.9499V31.5H36.2249V26.775Z" fill="#DE4F4F"/>
<path d="M35.4374 43.3125H41.7374C42.1723 43.3125 42.5249 42.9599 42.5249 42.525V36.225C42.5249 35.7901 42.1723 35.4375 41.7374 35.4375H35.4374C35.0025 35.4375 34.6499 35.7901 34.6499 36.225V42.525C34.6499 42.9599 35.0025 43.3125 35.4374 43.3125ZM36.2249 37.0125H40.9499V41.7375H36.2249V37.0125Z" fill="#DE4F4F"/>
<path d="M8.6625 23.625H14.9625C15.3974 23.625 15.75 23.2724 15.75 22.8375V16.5375C15.75 16.1026 15.3974 15.75 14.9625 15.75H8.6625C8.22761 15.75 7.875 16.1026 7.875 16.5375V22.8375C7.875 23.2724 8.22761 23.625 8.6625 23.625ZM9.45 17.325H14.175V22.05H9.45V17.325Z" fill="#DE4F4F"/>
<path d="M20.475 23.625H26.775C27.2099 23.625 27.5625 23.2724 27.5625 22.8375V16.5375C27.5625 16.1026 27.2099 15.75 26.775 15.75H20.475C20.0401 15.75 19.6875 16.1026 19.6875 16.5375V22.8375C19.6875 23.2724 20.0401 23.625 20.475 23.625ZM21.2625 17.325H25.9875V22.05H21.2625V17.325Z" fill="#DE4F4F"/>
<path d="M8.6625 33.075H14.9625C15.3974 33.075 15.75 32.7223 15.75 32.2875V25.9875C15.75 25.5526 15.3974 25.2 14.9625 25.2H8.6625C8.22761 25.2 7.875 25.5526 7.875 25.9875V32.2875C7.875 32.7223 8.22761 33.075 8.6625 33.075ZM9.45 26.775H14.175V31.5H9.45V26.775Z" fill="#DE4F4F"/>
<path d="M20.475 33.075H26.775C27.2099 33.075 27.5625 32.7223 27.5625 32.2875V25.9875C27.5625 25.5526 27.2099 25.2 26.775 25.2H20.475C20.0401 25.2 19.6875 25.5526 19.6875 25.9875V32.2875C19.6875 32.7223 20.0401 33.075 20.475 33.075ZM21.2625 26.775H25.9875V31.5H21.2625V26.775Z" fill="#DE4F4F"/>
<path d="M15.75 42.525V36.225C15.75 35.7901 15.3974 35.4375 14.9625 35.4375H8.6625C8.22761 35.4375 7.875 35.7901 7.875 36.225V42.525C7.875 42.9599 8.22761 43.3125 8.6625 43.3125H14.9625C15.3974 43.3125 15.75 42.9599 15.75 42.525ZM14.175 41.7375H9.45V37.0125H14.175V41.7375Z" fill="#DE4F4F"/>
<path d="M20.475 43.3125H26.775C27.2099 43.3125 27.5625 42.9599 27.5625 42.525V36.225C27.5625 35.7901 27.2099 35.4375 26.775 35.4375H20.475C20.0401 35.4375 19.6875 35.7901 19.6875 36.225V42.525C19.6875 42.9599 20.0401 43.3125 20.475 43.3125ZM21.2625 37.0125H25.9875V41.7375H21.2625V37.0125Z" fill="#DE4F4F"/>
</svg>
