<svg width="80" height="64" viewBox="0 0 80 51" fill="none" xmlns="http://www.w3.org/2000/svg">
<path d="M17.5352 9.491H15.5352V0H63.8212V9.265H61.8212V2H17.5352V9.491Z" fill="#DE4F4F"/>
<path d="M79.356 50.6859H0V8.26489H79.355V50.6859H79.356ZM2 48.6859H77.355V10.2649H2V48.6859Z" fill="#DE4F4F"/>
<path d="M75.7186 45.1881H51.4336V18.8411H75.7186V45.1881ZM53.4336 43.1881H73.7186V20.8411H53.4336V43.1881Z" fill="#DE4F4F"/>
<path d="M53.434 45.1881H29.147V18.8411H53.434V45.1881ZM31.147 43.1881H51.434V20.8411H31.147V43.1881Z" fill="#DE4F4F"/>
<path d="M27.7758 50.6861H3.48877V18.8411H27.7758V50.6861ZM5.48877 48.6861H25.7758V20.8411H5.48877V48.6861Z" fill="#DE4F4F"/>
<path d="M16.6309 19.8411H14.6309V49.6861H16.6309V19.8411Z" fill="#DE4F4F"/>
<path d="M19.25 31H17.25V38.338H19.25V31Z" fill="#DE4F4F"/>
<path d="M14 31H12V38.338H14V31Z" fill="#DE4F4F"/>
</svg>
