<svg width="64" height="64" viewBox="0 0 64 64" fill="none" xmlns="http://www.w3.org/2000/svg">
<path d="M61.6765 62.1119V18.741H51.5348V7.19461H41.2966V0H22.6195V7.19461H12.5654V18.741H2.42371V62.1119H0V64H64V62.1119H61.6765ZM24.2311 33.094V38.1625H8.01642L13.8281 31.8101H50.1095L55.8774 38.1625H40.9061V33.094H24.2311ZM45.0602 17.0855V29.9219H19.4483V17.0855H45.0602ZM49.679 9.08276V29.9219H46.916V15.1973H41.2966V9.08276H49.679ZM39.4408 1.88815V15.1973H24.4754V1.88815H39.4408ZM22.6195 9.08276V15.1973H17.5932V29.9219H14.422V9.08276H22.6195ZM4.27953 20.6292H12.5654V30.4181L4.51782 39.2169V45.9312C4.51782 47.2325 5.60162 48.2913 6.93336 48.2913C8.26585 48.2913 9.35039 47.2325 9.35039 45.9312V42.3059H7.49457V45.9304C7.49457 46.191 7.24292 46.4024 6.93336 46.4024C6.62456 46.4024 6.37365 46.191 6.37365 45.9304V40.0507H26.087V34.9821H39.0503V40.0507H57.5054V45.9304C57.5054 46.191 57.2537 46.4024 56.9449 46.4024C56.6361 46.4024 56.3844 46.191 56.3844 45.9304V42.3059H54.5286V45.9304C54.5286 47.2317 55.6124 48.2906 56.9449 48.2906C58.2774 48.2906 59.3612 47.2317 59.3612 45.9304V39.2176L51.5348 30.5979V20.6292H59.8207V62.1119H51.3841V49.7596H49.5283V62.1119H14.3515V49.3661H12.4956V62.1119H4.27953V20.6292Z" fill="#DE4F4F"/>
<path d="M40.3686 24.978H23.5474V26.8662H40.3686V24.978Z" fill="#DE4F4F"/>
<path d="M14.3514 45.9304V42.3059H12.4956V45.9304C12.4956 46.191 12.2439 46.4024 11.9344 46.4024C11.6255 46.4024 11.3739 46.191 11.3739 45.9304V42.3059H9.51807V45.9304C9.51807 47.2317 10.6019 48.2906 11.9344 48.2906C13.2676 48.2906 14.3514 47.2317 14.3514 45.9304Z" fill="#DE4F4F"/>
<path d="M16.9363 48.2906C18.2688 48.2906 19.3533 47.2317 19.3533 45.9304V42.3059H17.4975V45.9304C17.4975 46.191 17.2459 46.4024 16.9363 46.4024C16.6275 46.4024 16.3758 46.191 16.3758 45.9304V42.3059H14.52V45.9304C14.52 47.2317 15.6038 48.2906 16.9363 48.2906Z" fill="#DE4F4F"/>
<path d="M21.9363 48.2906C23.2688 48.2906 24.3526 47.2317 24.3526 45.9304V42.3059H22.4968V45.9304C22.4968 46.191 22.2451 46.4024 21.9363 46.4024C21.6275 46.4024 21.3758 46.191 21.3758 45.9304V42.3059H19.52V45.9304C19.5208 47.2317 20.6046 48.2906 21.9363 48.2906Z" fill="#DE4F4F"/>
<path d="M26.9378 48.2906C28.2703 48.2906 29.3548 47.2317 29.3548 45.9304V42.3059H27.499V45.9304C27.499 46.191 27.2473 46.4024 26.9378 46.4024C26.629 46.4024 26.3773 46.191 26.3773 45.9304V42.3059H24.5215V45.9304C24.5215 47.2317 25.6053 48.2906 26.9378 48.2906Z" fill="#DE4F4F"/>
<path d="M31.9397 48.2906C33.2722 48.2906 34.3568 47.2317 34.3568 45.9304V42.3059H32.5009V45.9304C32.5009 46.191 32.2493 46.4024 31.9397 46.4024C31.6309 46.4024 31.3793 46.191 31.3793 45.9304V42.3059H29.5234V45.9304C29.5234 47.2317 30.6072 48.2906 31.9397 48.2906Z" fill="#DE4F4F"/>
<path d="M36.9395 48.2906C38.272 48.2906 39.3565 47.2317 39.3565 45.9304V42.3059H37.5007V45.9304C37.5007 46.191 37.249 46.4024 36.9395 46.4024C36.6307 46.4024 36.3798 46.191 36.3798 45.9304V42.3059H34.5239V45.9304C34.5239 47.2317 35.6077 48.2906 36.9395 48.2906Z" fill="#DE4F4F"/>
<path d="M41.9409 48.2906C43.2734 48.2906 44.358 47.2317 44.358 45.9304V42.3059H42.5021V45.9304C42.5021 46.191 42.2505 46.4024 41.9409 46.4024C41.6321 46.4024 41.3812 46.191 41.3812 45.9304V42.3059H39.5254V45.9304C39.5254 47.2317 40.6092 48.2906 41.9409 48.2906Z" fill="#DE4F4F"/>
<path d="M46.9419 48.2906C48.2744 48.2906 49.3589 47.2317 49.3589 45.9304V42.3059H47.5031V45.9304C47.5031 46.191 47.2515 46.4024 46.9419 46.4024C46.6331 46.4024 46.3822 46.191 46.3822 45.9304V42.3059H44.5264V45.9304C44.5271 47.2317 45.6109 48.2906 46.9419 48.2906Z" fill="#DE4F4F"/>
<path d="M51.9439 48.2906C53.2763 48.2906 54.3609 47.2317 54.3609 45.9304V42.3059H52.5051V45.9304C52.5051 46.191 52.2534 46.4024 51.9439 46.4024C51.6351 46.4024 51.3841 46.191 51.3841 45.9304V42.3059H49.5283V45.9304C49.5283 47.2317 50.6121 48.2906 51.9439 48.2906Z" fill="#DE4F4F"/>
</svg>
