<svg width="64" height="64" viewBox="0 0 64 64" fill="none" xmlns="http://www.w3.org/2000/svg">
<g clip-path="url(#clip0)">
<path d="M46.9333 11.7333V21.3333H37.3333V23.4667H43.7333V25.6H37.3333V27.7333H43.7333V29.8667H37.3333V32H58.6667V29.8667H52.2667V27.7333H58.6667V25.6H52.2667V23.4667H58.6667V21.3333H49.0667V11.7333H59.7333C59.8734 11.7334 60.0122 11.7059 60.1416 11.6523C60.2711 11.5987 60.3887 11.5202 60.4878 11.4211C60.5868 11.322 60.6654 11.2044 60.719 11.075C60.7725 10.9455 60.8001 10.8068 60.8 10.6667V5.33333C60.8001 5.19323 60.7725 5.05449 60.719 4.92504C60.6654 4.79559 60.5868 4.67797 60.4878 4.57891C60.3887 4.47984 60.2711 4.40128 60.1416 4.3477C60.0122 4.29412 59.8734 4.26659 59.7333 4.26667H16V1.06667C16.0001 0.926568 15.9725 0.787827 15.919 0.658377C15.8654 0.528927 15.7868 0.411306 15.6878 0.312241C15.5887 0.213176 15.4711 0.134609 15.3416 0.0810325C15.2122 0.0274558 15.0734 -7.97514e-05 14.9333 1.73494e-07H5.33333C5.19323 -7.97514e-05 5.05449 0.0274558 4.92504 0.0810325C4.79559 0.134609 4.67797 0.213176 4.57891 0.312241C4.47984 0.411306 4.40128 0.528927 4.3477 0.658377C4.29412 0.787827 4.26659 0.926568 4.26667 1.06667V4.26667H1.06667C0.926568 4.26659 0.787827 4.29412 0.658377 4.3477C0.528927 4.40128 0.411306 4.47984 0.312241 4.57891C0.213176 4.67797 0.134609 4.79559 0.0810325 4.92504C0.0274558 5.05449 -7.97514e-05 5.19323 1.73494e-07 5.33333V10.6667C-7.97514e-05 10.8068 0.0274558 10.9455 0.0810325 11.075C0.134609 11.2044 0.213176 11.322 0.312241 11.4211C0.411306 11.5202 0.528927 11.5987 0.658377 11.6523C0.787827 11.7059 0.926568 11.7334 1.06667 11.7333H4.26667V64H6.4V62.3083L13.8667 54.8417V64H16V11.7333H46.9333ZM50.1333 29.8667H45.8667V23.4667H50.1333V29.8667ZM6.84166 23.4667L13.8667 16.4417V30.4917L6.84166 23.4667ZM13.425 33.0667L6.4 40.0917V26.0417L13.425 33.0667ZM13.8667 13.425L6.4 20.8917V11.7333H13.8667V13.425ZM13.8667 6.4V9.6H6.4V6.4H13.8667ZM16 6.4H18.7583L16 9.15834V6.4ZM48 9.15834L45.2417 6.4H50.7583L48 9.15834ZM53.3333 6.84166L56.0917 9.6H50.575L53.3333 6.84166ZM45.425 9.6H39.9083L42.6667 6.84166L45.425 9.6ZM37.3333 9.15834L34.575 6.4H40.0917L37.3333 9.15834ZM21.3333 6.84166L24.0917 9.6H18.575L21.3333 6.84166ZM23.9083 6.4H29.425L26.6667 9.15834L23.9083 6.4ZM32 6.84166L34.7583 9.6H29.2417L32 6.84166ZM58.6667 9.15834L55.9083 6.4H58.6667V9.15834ZM6.4 2.13333H13.8667V4.26667H6.4V2.13333ZM2.13333 6.4H4.26667V9.6H2.13333V6.4ZM6.4 59.2917V45.2417L13.425 52.2667L6.4 59.2917ZM6.84166 42.6667L13.8667 35.6417V49.6917L6.84166 42.6667Z" fill="#DE4F4F"/>
<path d="M61.8667 34.1333V40.5333H59.7334V34.1333H57.6001V40.5333H49.0667V34.1333H46.9334V40.5333H44.8001V34.1333H42.6667V40.5333H34.1334V34.1333H32.0001V40.5333H29.8667V34.1333H27.7334V64H29.8667V61.8666H32.0001V64H34.1334V61.8666H42.6667V64H44.8001V61.8666H46.9334V64H49.0667V61.8666H57.6001V64H59.7334V61.8666H61.8667V64H64.0001V34.1333H61.8667ZM49.0667 55.4666V46.9333H57.6001V55.4666H49.0667ZM34.1334 55.4666V46.9333H42.6667V55.4666H34.1334ZM29.8667 46.9333H32.0001V55.4666H29.8667V46.9333ZM44.8001 46.9333H46.9334V55.4666H44.8001V46.9333ZM59.7334 46.9333H61.8667V55.4666H59.7334V46.9333ZM61.8667 44.8H29.8667V42.6666H61.8667V44.8ZM29.8667 59.7333V57.6H61.8667V59.7333H29.8667Z" fill="#DE4F4F"/>
</g>
<defs>
<clipPath id="clip0">
<rect width="64" height="64" fill="white"/>
</clipPath>
</defs>
</svg>
