<svg width="55" height="64" viewBox="0 0 55 64" fill="none" xmlns="http://www.w3.org/2000/svg">
<path d="M6.95437 17H10.0453C10.478 17 10.818 16.66 10.818 16.2273C10.818 15.7946 10.478 15.4546 10.0453 15.4546H6.95437C6.52164 15.4546 6.18164 15.7946 6.18164 16.2273C6.18164 16.66 6.52164 17 6.95437 17Z" fill="#DE4F4F"/>
<path d="M6.95437 23.1819H10.0453C10.478 23.1819 10.818 22.8419 10.818 22.4092C10.818 21.9765 10.478 21.6365 10.0453 21.6365H6.95437C6.52164 21.6365 6.18164 21.9765 6.18164 22.4092C6.18164 22.8419 6.52164 23.1819 6.95437 23.1819Z" fill="#DE4F4F"/>
<path d="M6.95437 29.3636H10.0453C10.478 29.3636 10.818 29.0236 10.818 28.5908C10.818 28.1581 10.478 27.8181 10.0453 27.8181H6.95437C6.52164 27.8181 6.18164 28.1581 6.18164 28.5908C6.18164 29.0236 6.52164 29.3636 6.95437 29.3636Z" fill="#DE4F4F"/>
<path d="M6.95437 35.5455H10.0453C10.478 35.5455 10.818 35.2055 10.818 34.7727C10.818 34.34 10.478 34 10.0453 34H6.95437C6.52164 34 6.18164 34.34 6.18164 34.7727C6.18164 35.2055 6.52164 35.5455 6.95437 35.5455Z" fill="#DE4F4F"/>
<path d="M6.95437 41.7273H10.0453C10.478 41.7273 10.818 41.3873 10.818 40.9546C10.818 40.5219 10.478 40.1819 10.0453 40.1819H6.95437C6.52164 40.1819 6.18164 40.5219 6.18164 40.9546C6.18164 41.3873 6.52164 41.7273 6.95437 41.7273Z" fill="#DE4F4F"/>
<path d="M53.3182 12.3636H43.2727V0.772727C43.2727 0.34 42.9327 0 42.5 0H11.5909C11.1582 0 10.8182 0.34 10.8182 0.772727V12.3636H0.772727C0.34 12.3636 0 12.7036 0 13.1364V50.2273C0 50.66 0.34 51 0.772727 51H11.5909H16.2273H23.9545H30.1364H37.8636H42.5H53.3182C53.7509 51 54.0909 50.66 54.0909 50.2273V13.1364C54.0909 12.7036 53.7509 12.3636 53.3182 12.3636ZM15.4545 49.4545H11.5909H1.54545V13.9091H15.4545V49.4545ZM29.3636 49.4545H24.7273V41.7273H29.3636V49.4545ZM37.0909 13.1364V49.4545H30.9091V40.9545C30.9091 40.5218 30.5691 40.1818 30.1364 40.1818H23.9545C23.5218 40.1818 23.1818 40.5218 23.1818 40.9545V49.4545H17V13.1364C17 12.7036 16.66 12.3636 16.2273 12.3636H12.3636V1.54545H41.7273V12.3636H37.8636C37.4309 12.3636 37.0909 12.7036 37.0909 13.1364ZM52.5455 49.4545H42.5H38.6364V13.9091H52.5455V49.4545Z" fill="#DE4F4F"/>
<path d="M44.0457 17H47.1366C47.5693 17 47.9093 16.66 47.9093 16.2273C47.9093 15.7946 47.5693 15.4546 47.1366 15.4546H44.0457C43.6129 15.4546 43.2729 15.7946 43.2729 16.2273C43.2729 16.66 43.6129 17 44.0457 17Z" fill="#DE4F4F"/>
<path d="M44.0457 23.1819H47.1366C47.5693 23.1819 47.9093 22.8419 47.9093 22.4092C47.9093 21.9765 47.5693 21.6365 47.1366 21.6365H44.0457C43.6129 21.6365 43.2729 21.9765 43.2729 22.4092C43.2729 22.8419 43.6129 23.1819 44.0457 23.1819Z" fill="#DE4F4F"/>
<path d="M44.0457 29.3636H47.1366C47.5693 29.3636 47.9093 29.0236 47.9093 28.5908C47.9093 28.1581 47.5693 27.8181 47.1366 27.8181H44.0457C43.6129 27.8181 43.2729 28.1581 43.2729 28.5908C43.2729 29.0236 43.6129 29.3636 44.0457 29.3636Z" fill="#DE4F4F"/>
<path d="M44.0457 35.5455H47.1366C47.5693 35.5455 47.9093 35.2055 47.9093 34.7727C47.9093 34.34 47.5693 34 47.1366 34H44.0457C43.6129 34 43.2729 34.34 43.2729 34.7727C43.2729 35.2055 43.6129 35.5455 44.0457 35.5455Z" fill="#DE4F4F"/>
<path d="M44.0457 41.7273H47.1366C47.5693 41.7273 47.9093 41.3873 47.9093 40.9546C47.9093 40.5219 47.5693 40.1819 47.1366 40.1819H44.0457C43.6129 40.1819 43.2729 40.5219 43.2729 40.9546C43.2729 41.3873 43.6129 41.7273 44.0457 41.7273Z" fill="#DE4F4F"/>
<path d="M30.1362 6.18188H23.9544C23.5216 6.18188 23.1816 6.52188 23.1816 6.95461C23.1816 7.38734 23.5216 7.72734 23.9544 7.72734H30.1362C30.5689 7.72734 30.9089 7.38734 30.9089 6.95461C30.9089 6.52188 30.5689 6.18188 30.1362 6.18188Z" fill="#DE4F4F"/>
<path d="M30.1362 12.3635H23.9544C23.5216 12.3635 23.1816 12.7035 23.1816 13.1363C23.1816 13.569 23.5216 13.909 23.9544 13.909H30.1362C30.5689 13.909 30.9089 13.569 30.9089 13.1363C30.9089 12.7035 30.5689 12.3635 30.1362 12.3635Z" fill="#DE4F4F"/>
<path d="M30.1362 18.5454H23.9544C23.5216 18.5454 23.1816 18.8854 23.1816 19.3181C23.1816 19.7509 23.5216 20.0909 23.9544 20.0909H30.1362C30.5689 20.0909 30.9089 19.7509 30.9089 19.3181C30.9089 18.8854 30.5689 18.5454 30.1362 18.5454Z" fill="#DE4F4F"/>
<path d="M30.1362 24.7273H23.9544C23.5216 24.7273 23.1816 25.0673 23.1816 25.5C23.1816 25.9327 23.5216 26.2727 23.9544 26.2727H30.1362C30.5689 26.2727 30.9089 25.9327 30.9089 25.5C30.9089 25.0673 30.5689 24.7273 30.1362 24.7273Z" fill="#DE4F4F"/>
<path d="M30.1362 30.9092H23.9544C23.5216 30.9092 23.1816 31.2492 23.1816 31.6819C23.1816 32.1146 23.5216 32.4546 23.9544 32.4546H30.1362C30.5689 32.4546 30.9089 32.1146 30.9089 31.6819C30.9089 31.2492 30.5689 30.9092 30.1362 30.9092Z" fill="#DE4F4F"/>
</svg>
