<svg xmlns="http://www.w3.org/2000/svg" viewBox="-3760 9164 233.953 50">
  <defs>
    <style>
      .cls-1, .cls-2, .cls-3, .cls-4 {
        fill: none;
        stroke-miterlimit: 10;
      }

      .cls-1, .cls-3, .cls-5 {
        stroke: #4a5acc;
      }

      .cls-1, .cls-2, .cls-3, .cls-4, .cls-5 {
        stroke-width: 2px;
      }

      .cls-2, .cls-4 {
        stroke: #737ad6;
      }

      .cls-2, .cls-3 {
        stroke-linecap: round;
      }

      .cls-5 {
        fill: rgba(0,0,0,0);
      }
    </style>
  </defs>
  <g id="Corvette_Captain" data-name="Corvette Captain" transform="translate(-3759.997 9164)">
    <path id="Path_3915" data-name="Path 3915" class="cls-1" d="M25.8,4H63.2a1,1,0,0,1,1,1V6.57H24.8V5A1,1,0,0,1,25.8,4Z"/>
    <path id="Path_3916" data-name="Path 3916" class="cls-1" d="M143.918,44.26h20.2a.926.926,0,0,1,.918.933v1.465H143V45.193A.926.926,0,0,1,143.918,44.26Z" transform="translate(309.6 90.865) rotate(180)"/>
    <rect id="Rectangle_1591" data-name="Rectangle 1591" class="cls-1" width="9.57" height="4.86" rx="0.51" transform="translate(101.9 29.42) rotate(180)"/>
    <line id="Line_292" data-name="Line 292" class="cls-2" x1="42.883" y2="0.23" transform="translate(175.497 26.27)"/>
    <rect id="Rectangle_1592" data-name="Rectangle 1592" class="cls-3" width="33.37" height="20.92" rx="2" transform="translate(185.01 15.2)"/>
    <path id="Path_3919" data-name="Path 3919" class="cls-1" d="M147.51,4.43h46.67a2.9,2.9,0,0,1,1.88.68l7.52,4.68a.12.12,0,0,1-.08.21H139.91a.12.12,0,0,1-.08-.21l5.81-4.68a2.9,2.9,0,0,1,1.87-.68Z"/>
    <path id="Path_3920" data-name="Path 3920" class="cls-4" d="M105.6,46.3H79.158a.776.776,0,0,1-.828-.711V44.02a.208.208,0,0,1,.221-.19H109.1a.172.172,0,0,1,.166.106.139.139,0,0,1-.07.167l-2.165,1.886A3.265,3.265,0,0,1,105.6,46.3Z" transform="translate(1.209)"/>
    <path id="Path_3921" data-name="Path 3921" class="cls-1" d="M83.91,10.42H15.13a1.64,1.64,0,0,0-1.06.39L7.51,16.39a1.65,1.65,0,0,0,.06,2.56l23.21,18a6.43,6.43,0,0,0,3.94,1.35H83.91a.86.86,0,0,0,.86-.86V11.28A.86.86,0,0,0,83.91,10.42Z"/>
    <line id="Line_293" data-name="Line 293" class="cls-3" x2="90.39" transform="translate(14.93 24.55)"/>
    <path id="Path_3922" data-name="Path 3922" class="cls-1" d="M234.8,13.79a10.367,10.367,0,0,0-10,10.146c.114,5.5,3.753,10.187,9.25,10.381a14.531,14.531,0,0,0,.491-2.413C234.642,30.785,234.8,13.79,234.8,13.79Z" transform="translate(-1.858)"/>
    <path id="Path_3923" data-name="Path 3923" class="cls-4" d="M232.541,18.982a2.7,2.7,0,0,0-2.721,2.8,2.649,2.649,0,0,0,2.62,2.834Z" transform="translate(0.27 3)"/>
    <path id="Path_3924" data-name="Path 3924" class="cls-1" d="M233.584,15.862a6.569,6.569,0,0,0-6.244,6.76c.057,3.642,2.437,6.485,6.077,6.616Z" transform="translate(-0.718 2)"/>
    <path id="Path_3925" data-name="Path 3925" class="cls-1" d="M232.78,12.55a3.12,3.12,0,0,0-3.12-3.12H210.45a2.26,2.26,0,0,1-1.25-.38l-9.81-6.51a3.43,3.43,0,0,0-2.19-.79H146.3a5.69,5.69,0,0,0-3.63,1.31l-9.42,7.81a.63.63,0,0,1-.4.14c-7.4-1.45-10.82-1.45-17.57,0a.32.32,0,0,1-.32-.32V9.84a3.12,3.12,0,0,0-3.12-3.12H70.08a2.26,2.26,0,0,1-2.26-2.26V4.12A3.12,3.12,0,0,0,64.7,1H24.41a3.12,3.12,0,0,0-3.12,3.12v.75A2.26,2.26,0,0,1,19,7.14H14a5.69,5.69,0,0,0-3.66,1.33L1.93,15.52a2.61,2.61,0,0,0,0,4L29.38,42.27A5.69,5.69,0,0,0,33,43.58H74a2.24,2.24,0,0,1,2.26,2.22A3.12,3.12,0,0,0,79.4,49h27.91a5.69,5.69,0,0,0,3.63-1.31l3.74-3.1a2.77,2.77,0,0,1,.7-.4c5.86-2.05,10.14-2,17.17.08a2.22,2.22,0,0,0,.63.09h7.68v3.78a.86.86,0,0,0,.86.86h27.41a.86.86,0,0,0,.86-.86V44.33h49.08a13.69,13.69,0,0,0,13.69-13.67Z"/>
    <line id="Line_294" data-name="Line 294" class="cls-1" x2="76.113" y2="0.12" transform="translate(8.497 15.5)"/>
    <line id="Line_297" data-name="Line 297" class="cls-1" x1="58.363" y2="0.19" transform="translate(26.497 33.31)"/>
    <ellipse id="Ellipse_245" data-name="Ellipse 245" class="cls-1" cx="13.7" cy="13.36" rx="13.7" ry="13.36" transform="translate(143 14.02)"/>
    <ellipse id="Ellipse_246" data-name="Ellipse 246" class="cls-4" cx="2.16" cy="2.08" rx="2.16" ry="2.08" transform="translate(154.54 25.3)"/>
    <ellipse id="Ellipse_247" data-name="Ellipse 247" class="cls-4" cx="9.9" cy="9.6" rx="9.9" ry="9.6" transform="translate(146.8 17.78)"/>
    <ellipse id="Ellipse_250" data-name="Ellipse 250" class="cls-1" cx="6.39" cy="6.23" rx="6.39" ry="6.23" transform="translate(150.31 21.15)"/>
    <path id="Path_3926" data-name="Path 3926" class="cls-1" d="M185,18.55a.32.32,0,0,0,.56,0l.8-1.5a.32.32,0,0,1,.56,0l.8,1.5a.32.32,0,0,0,.56,0l.84-1.5a.32.32,0,0,1,.56,0l.85,1.5a.32.32,0,0,0,.56,0l.81-1.5a.32.32,0,0,1,.56,0l.8,1.5a.32.32,0,0,0,.56,0l.84-1.5a.32.32,0,0,1,.56,0l.84,1.5a.32.32,0,0,0,.56,0l.81-1.5a.32.32,0,0,1,.56,0l.79,1.5a.32.32,0,0,0,.56,0l.91-1.57" transform="translate(0 3)"/>
    <path id="Path_3927" data-name="Path 3927" class="cls-1" d="M200.22,17a.32.32,0,0,1,.56,0l.8,1.5a.32.32,0,0,0,.56,0L203,17a.32.32,0,0,1,.56,0l.84,1.5a.32.32,0,0,0,.56,0l.8-1.5a.32.32,0,0,1,.56,0l.8,1.5a.32.32,0,0,0,.56,0l.84-1.5a.32.32,0,0,1,.56,0l.85,1.5a.32.32,0,0,0,.56,0l.81-1.5a.32.32,0,0,1,.56,0l.8,1.5a.32.32,0,0,0,.56,0L214,17a.32.32,0,0,1,.56,0l.84,1.5a.32.32,0,0,0,.56,0l.81-1.5a.32.32,0,0,1,.56,0l.79,1.5" transform="translate(0 3)"/>
    <path id="Path_3928" data-name="Path 3928" class="cls-1" d="M185.44,34.37a.32.32,0,0,0,.56,0l.83-1.5a.32.32,0,0,1,.56,0l.84,1.5a.32.32,0,0,0,.56,0l.8-1.5a.32.32,0,0,1,.56,0l.8,1.5a.32.32,0,0,0,.56,0l.84-1.5a.32.32,0,0,1,.56,0l.85,1.5a.32.32,0,0,0,.56,0l.81-1.5a.32.32,0,0,1,.56,0l.8,1.5a.32.32,0,0,0,.56,0l.84-1.5a.32.32,0,0,1,.56,0l.84,1.5a.32.32,0,0,0,.56,0l.81-1.5a.32.32,0,0,1,.56,0l.79,1.5a.32.32,0,0,0,.56,0l.91-1.57" transform="translate(0 -2)"/>
    <path id="Path_3929" data-name="Path 3929" class="cls-1" d="M203.46,32.84a.32.32,0,0,1,.56,0l.8,1.5a.32.32,0,0,0,.56,0l.83-1.5a.32.32,0,0,1,.56,0l.84,1.5a.32.32,0,0,0,.56,0l.8-1.5a.32.32,0,0,1,.56,0l.8,1.5a.32.32,0,0,0,.56,0l.84-1.5a.32.32,0,0,1,.56,0l.85,1.5a.32.32,0,0,0,.56,0l.81-1.5a.32.32,0,0,1,.56,0l.8,1.5a.32.32,0,0,0,.56,0l.84-1.5a.32.32,0,0,1,.56,0l.47.75" transform="translate(0 -2)"/>
    <path id="Path_3937" data-name="Path 3937" class="cls-2" d="M32.14,25.927l3.477-3.537,3.642,3.567L35.812,29.42l-1.679-1.679,1.574-1.574" transform="translate(-2.37 -1)"/>
    <path id="Path_3938" data-name="Path 3938" class="cls-2" d="M32.14,25.927l3.477-3.537,3.642,3.567L35.812,29.42l-1.679-1.679,1.574-1.574" transform="translate(4.63 -1)"/>
    <path id="Path_3939" data-name="Path 3939" class="cls-2" d="M32.14,25.927l3.477-3.537,3.642,3.567L35.812,29.42l-1.679-1.679,1.574-1.574" transform="translate(11.63 -1)"/>
    <path id="Path_3940" data-name="Path 3940" class="cls-2" d="M32.14,25.927l3.477-3.537,3.642,3.567L35.812,29.42l-1.679-1.679,1.574-1.574" transform="translate(18.63 -1)"/>
    <path id="Path_3941" data-name="Path 3941" class="cls-2" d="M32.14,25.927l3.477-3.537,3.642,3.567L35.812,29.42l-1.679-1.679,1.574-1.574" transform="translate(25.63 -1)"/>
    <path id="Path_3942" data-name="Path 3942" class="cls-2" d="M32.14,25.927l3.477-3.537,3.642,3.567L35.812,29.42l-1.679-1.679,1.574-1.574" transform="translate(32.63 -1)"/>
    <path id="Path_3943" data-name="Path 3943" class="cls-5" d="M.458.32V33.707" transform="translate(114.497 10.5)"/>
    <path id="Path_3944" data-name="Path 3944" class="cls-5" d="M.458.32V33.707" transform="translate(132.497 10.5)"/>
  </g>
</svg>
