<svg width="142" height="34" viewBox="0 0 142 34" fill="none" xmlns="http://www.w3.org/2000/svg">
<path d="M141.668 18.5426C141.668 18.7962 141.654 18.9915 141.629 19.1251C141.604 19.2588 141.518 19.3685 141.369 19.4473C141.255 19.6529 140.775 20.0813 139.936 20.7324C138.948 21.5103 137.917 22.1786 136.847 22.7337C135.479 23.4466 134.334 23.8064 133.413 23.8064C133.118 23.8064 132.819 23.7653 132.524 23.6864C131.735 23.4328 131.184 23.1347 130.711 22.7235C130.1 22.1889 129.471 21.1676 129.471 20.0573C129.471 19.8996 129.471 19.7214 129.471 19.5638C129.471 19.4062 129.474 19.0772 129.574 18.5357C129.748 17.5933 130.224 16.8599 130.779 16.01C131.501 14.9031 131.97 14.2623 133.961 12.9395C134.661 12.5145 135.162 12.2506 136.044 11.9491C136.925 11.6475 137.971 11.5413 138.646 11.5413C139.435 11.5413 140.043 11.8154 140.256 12.2095C140.47 12.607 140.576 13.0183 140.576 13.4467C140.576 14.1937 140.303 14.9682 139.762 15.7701C139.218 16.5721 138.561 17.2574 137.786 17.8297C137.011 18.4021 136.165 18.7653 135.24 18.9264C134.633 19.036 133.683 19.0943 132.4 19.0943H131.536L131.461 20.143C131.461 20.938 131.675 21.5412 132.105 21.9524C132.532 22.3671 133.061 22.5727 133.687 22.5727C134.739 22.5727 136.172 22.0244 137.985 20.9312C139.617 19.9476 140.743 19.0669 141.369 18.289C141.568 18.2033 141.668 18.289 141.668 18.5426ZM139.147 13.0663C139.016 12.8264 138.735 12.7099 138.308 12.7099C137.832 12.7099 137.267 12.8572 136.616 13.1519C135.966 13.4467 135.425 13.7756 134.999 14.1389C134.142 14.8997 133.523 15.496 133.147 15.9244C132.372 16.7982 131.746 17.7509 131.746 18.3232H133.392C133.95 18.3232 134.828 18.1622 135.521 17.9223C136.328 17.6378 137.025 17.1958 137.53 16.644C138.113 16.01 138.404 15.6365 138.678 15.1841C139.08 14.5227 139.297 14.1218 139.297 13.6591C139.297 13.4569 139.247 13.2582 139.147 13.0663Z" fill="#ED5243"/>
<path d="M106.067 18.4844C106.067 18.738 105.857 19.1424 106.032 19.115C106.167 19.0944 106.014 19.2452 105.797 19.4131C104.862 20.1122 103.916 20.8011 102.964 21.4865C102.011 22.1718 101.019 22.7956 99.9846 23.3679C99.6575 23.5598 99.3376 23.6523 99.0248 23.6523C98.4346 23.6523 97.6383 23.5324 97.6454 22.8847C97.6526 22.4597 97.7734 22.2335 97.8552 21.9628C98.1005 21.2945 98.456 20.4138 99.1847 18.8717C99.9135 17.333 100.529 15.9176 100.987 14.7113C101.101 14.3926 101.264 13.9917 101.264 13.7518C101.264 13.4022 101.133 13.2583 100.873 13.1281C100.728 13.0561 100.635 13.015 100.191 13.015C99.6789 13.015 99.2167 13.1075 99.0994 13.1795C98.9857 13.2514 99.0461 13.1932 98.8506 13.5564C98.3067 14.588 97.5921 15.6675 96.7034 16.7949C95.8146 17.9224 94.9899 18.7963 94.2327 19.4131C94.0194 19.4611 93.927 19.3514 93.9625 19.0807C93.9625 18.81 93.9981 18.6215 94.0727 18.5084C94.1474 18.3987 94.2007 18.3096 94.2327 18.248C94.9899 17.4529 95.6653 16.651 96.259 15.8422C96.6856 15.2562 97.1975 14.4783 97.7912 13.5085C97.873 13.3645 97.9298 13.2617 97.9654 13.2C98.0791 13.0081 98.1396 12.8505 98.1396 12.7237C98.1396 12.5969 98.0969 12.4701 98.0152 12.3433C97.8161 11.9629 97.7201 11.5962 97.7201 11.2467C97.7201 10.9622 97.777 10.7086 97.8943 10.4859C98.0081 10.2631 98.1894 10.0986 98.4382 9.98554C98.5377 9.93756 98.6266 9.91357 98.7084 9.91357C98.9537 9.91357 99.1776 10.0335 99.3767 10.27C99.5758 10.5064 99.6718 10.7943 99.6718 11.1267C99.6718 11.4283 99.7002 11.6339 99.7571 11.747C99.814 11.8567 99.9028 11.9149 100.017 11.9149C100.066 11.9149 100.194 11.8944 100.401 11.8567C100.607 11.8155 100.728 11.7984 100.76 11.7984C100.873 11.7847 101.023 11.7744 101.204 11.7744C101.762 11.7744 102.206 11.8772 102.537 12.0828C102.949 12.3536 103.156 12.758 103.156 13.296C103.156 13.5976 103.099 13.9231 102.981 14.2727C102.736 15.0814 102.306 16.1232 101.698 17.3912C100.809 19.2658 100.265 20.4481 100.066 20.9381C99.9348 21.2397 99.8673 21.4933 99.8673 21.6989C99.8673 21.9354 100.052 22.2198 100.255 22.2815C100.504 22.3569 100.731 22.1924 100.905 22.1204C101.08 22.0485 102.423 21.1609 102.555 21.0478L105.776 18.7894C105.907 18.7723 106 18.2274 106.017 18.2445C106.053 18.2788 106.067 18.3576 106.067 18.4844Z" fill="#ED5243"/>
<path d="M25.2211 2.21338C24.99 2.76855 24.7447 3.38883 24.4817 4.07079C23.9698 5.37304 23.5361 6.55877 23.1735 7.62114C23.1237 7.79591 22.9815 8.0872 22.9815 8.17973C22.9815 8.40248 23.0028 8.43333 23.3832 8.43333C23.5467 8.43333 23.6711 8.43333 23.7529 8.43333C24.3466 8.43333 24.6843 8.45046 24.7661 8.4813C24.8656 8.52928 24.8976 8.67321 24.8656 8.90968C24.8158 9.14614 24.7305 9.3072 24.6061 9.38602C24.4817 9.46484 24.279 9.50597 24.0018 9.50597C23.8524 9.50597 23.6036 9.50597 23.2481 9.50597C22.8926 9.50597 23.0277 9.50939 22.9282 9.50597C22.8642 9.50254 22.6011 9.45456 22.4767 9.6122C22.3523 9.76984 22.2421 10.1228 22.1425 10.3901C21.4493 12.3195 20.7596 14.1358 20.0664 15.8356C19.3732 17.5354 18.6907 19.2249 18.0152 20.9006C17.9015 21.1851 17.841 21.4558 17.841 21.706C17.841 22.0555 17.9299 22.2063 18.257 22.1309C18.4489 22.0864 18.3814 22.1035 18.808 21.8636C19.6825 21.3393 20.6103 20.7122 21.5986 19.9822C22.3736 19.4099 23.145 18.8308 23.92 18.2447C24.0835 18.1968 24.1653 18.2996 24.1653 18.5532C24.1831 18.632 24.1902 18.7348 24.1902 18.8616C24.1902 19.1323 24.1013 19.314 23.92 19.4099C22.7824 20.4586 21.4493 21.4455 19.9171 22.3742C18.3849 23.3029 17.2509 23.7656 16.5079 23.7656C16.2448 23.7656 16.0564 23.7108 15.9391 23.5977C15.7756 23.44 15.6938 23.2001 15.6938 22.8849C15.6938 22.3605 15.9071 21.5997 16.3373 20.5991C16.4368 20.3763 16.707 19.804 17.1514 18.8856C17.3149 18.5532 17.3967 18.2653 17.3967 18.0288C17.3967 17.7752 17.2971 17.6484 17.1016 17.6484C16.8883 17.6484 16.6252 17.8232 16.3124 18.1728C16.0671 18.4435 15.6192 18.8547 14.9793 19.4099C14.8797 19.4579 14.798 19.4579 14.734 19.4099C14.67 19.3619 14.5918 19.2865 14.5918 19.1289C14.5918 18.9713 14.5918 18.9507 14.6913 18.8102C14.7838 18.6731 14.894 18.5634 14.9935 18.4504C15.7009 17.7821 16.4617 17.1413 16.9061 16.6992C17.3504 16.2537 17.6277 16.0275 18.3352 15.0782C18.6124 14.6875 18.8364 14.2455 19.0248 13.9199C19.2132 13.5943 19.3839 13.2345 19.5296 12.837C19.8425 12.0282 20.1624 11.2092 20.493 10.3833C20.5748 10.1777 20.6174 10.0269 20.6174 9.93091C20.6174 9.77327 20.5143 9.66018 20.3082 9.5985C20.102 9.53338 19.718 9.50254 19.1599 9.50254C18.8471 9.50254 18.6089 9.50254 18.4418 9.50254C17.9974 9.50254 17.7735 9.38602 17.7735 9.15299C17.7735 9.10501 17.8019 9.00906 17.8588 8.8617C17.9157 8.71434 17.9868 8.61838 18.0685 8.57041C18.1503 8.52243 18.3494 8.50187 18.6622 8.50187H19.551C19.7643 8.50187 19.9669 8.50187 20.1553 8.50187C20.3437 8.50187 20.5215 8.50187 20.685 8.50187C20.8983 8.50187 21.0511 8.4676 21.1436 8.39563C21.2325 8.32366 21.3284 8.15232 21.428 7.88501C21.8403 6.76097 22.2598 5.65063 22.6864 4.56085C23.1166 3.46765 23.5254 2.55607 23.9235 1.82956C24.0053 1.68562 24.0977 1.53826 24.1937 1.3772C24.343 1.21956 24.5137 1.16473 24.7127 1.20928C24.8941 1.25725 25.3775 1.24697 25.3775 1.61366C25.3775 1.8227 25.2567 2.11742 25.2211 2.21338Z" fill="#ED5243"/>
<path d="M36.3735 18.5803C36.3735 18.9298 36.2917 19.2074 36.1282 19.413C35.4705 20.0333 34.9231 20.448 34.4858 20.6639C34.0485 20.8763 33.5509 21.0237 32.9892 21.1059C32.8399 21.1231 32.623 21.0854 32.3351 20.9997C32.0471 20.914 31.8623 20.8695 31.7805 20.8695C31.617 20.8695 31.4925 20.9346 31.4108 21.0614C31.0659 21.5549 30.4794 22.0929 29.6582 22.6823C28.5561 23.4603 27.5572 23.8509 26.6685 23.8509C26.2739 23.8509 25.9113 23.7721 25.5806 23.6111C24.9372 23.3095 24.4537 22.7475 24.1231 21.9216C23.86 21.2533 23.7285 20.5234 23.7285 19.7317C23.7285 19.3685 23.7534 19.0635 23.8032 18.827C23.8032 18.3198 24.084 17.5008 24.6421 16.3733C25.1185 15.4206 25.6944 14.5981 26.3698 13.9093C27.0453 13.2205 27.8558 12.6036 28.8014 12.0656C29.7471 11.5276 30.5114 11.2568 31.0873 11.2568C31.3823 11.2568 31.5885 11.3357 31.7058 11.4933C31.7734 11.5721 31.8054 11.6852 31.8054 11.8257C31.8054 12.1753 31.6738 12.374 31.4072 12.422C30.4652 12.6619 29.5977 13.0149 28.805 13.4809C28.0122 13.9504 27.383 14.5878 26.7467 15.2561C26.0392 15.9963 25.6873 16.5961 25.5309 17.4699C25.3531 18.4603 25.3922 18.9778 25.474 19.7523C25.6233 21.1128 25.9788 21.5549 26.2596 21.8256C26.4303 21.9935 26.9173 22.2574 27.159 22.2951C27.3475 22.3225 27.6958 22.487 28.5419 22.1854C29.2707 21.925 29.7364 21.3664 30.1488 20.9243C30.3621 20.7187 30.4687 20.5028 30.4687 20.28C30.3443 19.8654 30.2305 19.4679 30.1274 19.0772C30.0243 18.6899 29.9746 18.265 29.9746 17.8023C29.9746 17.6584 29.9746 17.5248 29.9746 17.398C29.9746 17.2712 29.9923 17.1032 30.0243 16.8976C30.1381 16.0237 30.4509 15.2081 30.9628 14.4439C31.5707 13.5392 32.264 13.0868 33.0389 13.0868C33.1207 13.0868 33.2736 13.1108 33.4975 13.1588C33.7215 13.2068 33.885 13.3541 33.9917 13.6009C34.0983 13.8476 34.1516 14.1698 34.1516 14.5639C34.1516 14.9305 34.1339 15.2218 34.1019 15.4446C34.0699 15.6673 34.0059 16.01 33.917 16.4693C33.8281 16.9285 33.6042 17.4905 33.2487 18.1485C32.8932 18.8064 32.719 19.2862 32.719 19.5878C32.719 19.7317 32.7403 19.8585 32.7794 19.9682C32.8185 20.0779 32.9323 20.1361 33.1136 20.1361C33.4584 20.1361 33.9775 19.9065 34.6707 19.4439C35.2466 19.0635 35.7336 18.6659 36.1282 18.2547C36.242 18.2376 36.3166 18.2547 36.3522 18.3027C36.3628 18.3232 36.3735 18.4192 36.3735 18.5803ZM32.815 16.6029C32.9287 16.3185 33.0176 16.0443 33.0745 15.7804C33.1314 15.52 33.1598 15.2527 33.1598 14.982C33.1598 14.5364 33.0212 14.3137 32.7403 14.3137C32.4275 14.3137 32.1395 14.5262 31.8765 14.958C31.6774 15.2767 31.5032 15.6776 31.3468 16.1608C31.1904 16.644 31.1122 17.1649 31.1122 17.7201C31.1122 18.1005 31.1406 18.4021 31.1975 18.6248C31.2544 18.8476 31.3503 18.9812 31.4819 19.0292C31.7449 19.1423 32.0329 18.7756 32.3457 17.9326C32.495 17.4905 32.6515 17.045 32.815 16.6029Z" fill="#ED5243"/>
<path d="M63.1911 18.0247C62.8356 18.3982 62.5655 18.7512 62.1495 19.1659C61.7052 19.6285 61.1897 20.2111 60.0841 21.246C58.8363 22.4112 57.8872 23.1274 57.3895 23.5558C56.0208 24.745 55.2316 25.4372 55.0183 25.6257C54.7375 25.8793 54.478 26.2117 54.2398 26.6264C54.0016 27.0376 53.8416 27.3152 53.7599 27.4591C53.6283 27.699 53.3084 28.4118 52.7965 29.601C52.5832 30.0773 52.3201 30.6085 52.0073 31.1945C51.6447 31.8765 51.3389 32.37 51.0936 32.6715C50.7986 33.0519 50.5177 33.2439 50.2547 33.2439C50.1409 33.2439 50.0485 33.2267 49.9845 33.1959C49.7392 33.0691 49.6148 32.7846 49.6148 32.3391C49.6148 31.9587 49.7036 31.4858 49.885 30.9238C50.0663 30.3618 50.2902 29.834 50.5533 29.3405C50.8981 28.7065 51.6233 27.6339 52.7254 26.126C53.2195 25.4441 53.5252 24.9849 53.639 24.745C53.8025 24.5222 54.4708 23.1103 55.6404 20.5092C55.7044 20.3516 56.1417 19.392 56.9486 17.6272C57.0482 17.3907 57.2295 17.3427 56.9486 17.6272C55.7791 18.9465 55.0681 19.8376 53.8025 20.8999C52.6507 21.8697 52.0037 22.4112 51.0154 22.9835C49.7463 23.6963 49.1135 23.686 48.8576 23.6518C48.4168 23.5969 48.0328 23.3982 47.9404 23.2782C47.8515 23.1583 47.7769 23.0589 47.8089 22.7128C47.8302 22.4935 47.9582 22.2673 48.0399 22.0445C48.1217 21.8218 48.3705 21.2529 48.6158 20.7457C49.2095 19.4914 49.2024 19.4503 49.2735 19.0014C49.2806 18.8849 49.2948 18.6827 49.2948 18.5559C49.2948 18.3982 49.2273 18.3194 49.0958 18.3194C48.982 18.3194 48.8398 18.3982 48.6763 18.5559C48.5127 18.7135 48.3492 18.8609 48.1963 18.9979C48.0399 19.1316 47.8622 19.2721 47.6667 19.416C47.5529 19.4332 47.4782 19.3989 47.4463 19.3201C47.4143 19.2413 46.8099 19.3783 46.9592 19.2755C47.3894 18.974 48.4274 18.1309 48.6087 17.9561C49.1349 17.5278 49.3126 17.305 49.6254 17.0034C50.052 16.5579 50.3862 16.1741 50.5995 15.852C50.9479 15.3277 51.2643 14.865 51.4562 14.512C51.7549 13.9637 51.8971 13.6142 52.0784 13.1995C52.2597 12.706 52.2881 12.6683 52.5192 12.1783C52.6543 11.8904 52.8498 11.8287 53.3119 11.8527C53.5217 11.863 53.703 11.9281 53.703 12.1029C53.703 12.1509 53.6745 12.24 53.6177 12.3668C53.5608 12.4936 53.5146 12.5895 53.4826 12.6512C53.4008 12.826 52.5689 14.5566 50.987 17.8431C50.3791 19.0973 49.9596 20.05 49.7285 20.7011C49.6148 21.0199 49.5543 21.2563 49.5543 21.414C49.5543 21.5887 49.7605 21.7464 49.885 21.7875C50.1942 21.8903 50.4964 21.7601 50.7381 21.6504C50.923 21.5682 51.4598 21.2118 51.5913 21.1158C52.9244 20.1014 54.1367 19.0596 56.0635 16.8904C57.8196 14.9164 58.3777 13.6964 59.0709 12.3291C59.2345 12.1063 59.2771 11.8253 60.1872 11.8322C60.3045 11.8322 60.4432 11.8322 60.5072 11.8322C60.8698 11.8322 60.8911 11.9418 60.8911 12.0995C60.8911 12.1954 60.8413 12.3393 60.7418 12.5278C60.2156 13.5285 59.4158 15.1872 58.3457 17.5038C57.2757 19.8204 56.5327 21.4894 56.1239 22.5037C56.0244 22.7745 55.9746 22.9629 55.9746 23.076C55.9746 23.2337 56.0315 23.3125 56.1488 23.3125C56.2803 23.3125 56.4438 23.2165 56.6429 23.0281C57.2864 22.4078 58.0507 21.7361 58.9394 21.0027C60.0415 20.0809 61.6661 18.5456 62.7859 17.6272C63.1165 17.3393 63.3511 17.5415 63.3831 17.6237C63.3867 17.6409 63.408 17.7951 63.1911 18.0247Z" fill="#ED5243"/>
<path d="M83.0056 18.5086C83.0056 18.7622 82.9914 18.9576 82.9665 19.0912C82.9417 19.2249 82.8563 19.3345 82.707 19.4133C82.5933 19.619 82.1134 20.0473 81.2744 20.6985C80.2861 21.4764 79.2552 22.1446 78.1851 22.6998C76.8165 23.4126 75.6718 23.7724 74.751 23.7724C74.456 23.7724 74.1574 23.7313 73.8623 23.6525C73.0731 23.3989 72.5221 23.1008 72.0493 22.6895C71.4378 22.1549 70.8086 21.1337 70.8086 20.0233C70.8086 19.8657 70.8086 19.6875 70.8086 19.5299C70.8086 19.3722 70.8122 19.0432 70.9117 18.5018C71.0859 17.5594 71.5622 16.826 72.1168 15.9761C72.8385 14.8692 73.3077 14.2283 75.2985 12.9055C75.9988 12.4806 76.5001 12.2167 77.3817 11.9151C78.2633 11.6136 79.3085 11.5073 79.9839 11.5073C80.7731 11.5073 81.381 11.7815 81.5943 12.1756C81.8076 12.5731 81.9143 12.9843 81.9143 13.4127C81.9143 14.1598 81.6405 14.9343 81.1002 15.7362C80.5563 16.5381 79.8986 17.2235 79.1236 17.7958C78.3487 18.3681 77.5026 18.7314 76.5783 18.8924C75.9704 19.0021 75.0212 19.0604 73.7379 19.0604H72.874L72.7994 20.109C72.7994 20.9041 73.0127 21.5072 73.4428 21.9185C73.8694 22.3331 74.3991 22.5387 75.0248 22.5387C76.077 22.5387 77.5097 21.9904 79.3227 20.8972C80.9544 19.9137 82.0814 19.033 82.707 18.255C82.9061 18.1659 83.0056 18.255 83.0056 18.5086ZM80.4852 13.0289C80.3537 12.789 80.0728 12.6725 79.6462 12.6725C79.1698 12.6725 78.6046 12.8199 77.9541 13.1146C77.3035 13.4093 76.7631 13.7383 76.3366 14.1015C75.4798 14.8623 74.8612 15.4586 74.4844 15.887C73.7094 16.7609 73.0838 17.7136 73.0838 18.2859H74.7297C75.2878 18.2859 76.1659 18.1248 76.8591 17.8849C77.6661 17.6005 78.3629 17.1584 78.8677 16.6067C79.4507 15.9727 79.7422 15.5991 80.0159 15.1468C80.4176 14.4854 80.6345 14.0844 80.6345 13.6218C80.6309 13.4196 80.5847 13.2208 80.4852 13.0289Z" fill="#ED5243"/>
<path d="M94.5183 18.4844C94.5183 18.738 94.3086 19.1424 94.4828 19.115C94.6178 19.0944 94.465 19.2452 94.2481 19.4131C93.3132 20.1122 92.3676 20.8011 91.4148 21.4865C90.4621 22.1718 89.4703 22.7956 88.4358 23.3679C88.1087 23.5598 87.7888 23.6523 87.4759 23.6523C86.8858 23.6523 86.0895 23.5324 86.0966 22.8847C86.1037 22.4597 86.2246 22.2335 86.3063 21.9628C86.5516 21.2945 86.9071 20.4138 87.6359 18.8717C88.3647 17.333 88.9797 15.9176 89.4383 14.7113C89.552 14.3926 89.7156 13.9917 89.7156 13.7518C89.7156 13.4022 89.584 13.2583 89.3245 13.1281C89.1788 13.0561 89.0863 13.015 88.642 13.015C88.13 13.015 87.6679 13.1075 87.5506 13.1795C87.4368 13.2514 87.4973 13.1932 87.3017 13.5564C86.7578 14.588 86.0433 15.6675 85.1545 16.7949C84.2658 17.9224 83.4411 18.7963 82.6839 19.4131C82.4706 19.4611 82.3781 19.3514 82.4137 19.0807C82.4137 18.81 82.4492 18.6215 82.5239 18.5084C82.5985 18.3987 82.6519 18.3096 82.6839 18.248C83.4411 17.4529 84.1165 16.651 84.7102 15.8422C85.1368 15.2562 85.6487 14.4783 86.2424 13.5085C86.3241 13.3645 86.381 13.2617 86.4166 13.2C86.5303 13.0081 86.5907 12.8505 86.5907 12.7237C86.5907 12.5969 86.5481 12.4701 86.4663 12.3433C86.2672 11.9629 86.1713 11.5962 86.1713 11.2467C86.1713 10.9622 86.2281 10.7086 86.3455 10.4859C86.4592 10.2631 86.6405 10.0986 86.8894 9.98554C86.9889 9.93756 87.0778 9.91357 87.1595 9.91357C87.4048 9.91357 87.6288 10.0335 87.8279 10.27C88.027 10.5064 88.1229 10.7943 88.1229 11.1267C88.1229 11.4283 88.1514 11.6339 88.2083 11.747C88.2651 11.8601 88.354 11.9149 88.4678 11.9149C88.5175 11.9149 88.6455 11.8944 88.8517 11.8567C89.0579 11.8155 89.1788 11.7984 89.2108 11.7984C89.3245 11.7847 89.4738 11.7744 89.6551 11.7744C90.2133 11.7744 90.6576 11.8772 90.9882 12.0828C91.4006 12.3536 91.6068 12.758 91.6068 13.296C91.6068 13.5976 91.5499 13.9231 91.4326 14.2727C91.1873 15.0814 90.7572 16.1232 90.1493 17.3912C89.2605 19.2658 88.7166 20.4481 88.5175 20.9381C88.386 21.2397 88.3185 21.4933 88.3185 21.6989C88.3185 21.9354 88.4251 22.0553 88.6384 22.0553C88.7877 22.0553 88.9477 22.0211 89.1183 21.9491C89.2925 21.8771 89.4418 21.788 89.5769 21.6749L94.2446 18.2445C94.3761 18.2274 94.4508 18.2274 94.465 18.2445C94.5005 18.2788 94.5183 18.3576 94.5183 18.4844Z" fill="#ED5243"/>
<path d="M120.231 18.46C120.245 18.6348 120.231 18.8061 120.181 18.974C120.131 19.142 120.007 19.2893 119.811 19.4161C119.779 19.447 119.399 19.7657 118.674 20.3722C118.361 20.6258 118.055 20.8657 117.76 21.0885C116.822 21.8047 116.089 22.3256 115.563 22.6443C114.557 23.268 113.75 23.5764 113.142 23.5764C113.029 23.5764 112.865 23.5525 112.662 23.5045C112.456 23.4565 112.353 23.2475 112.353 22.8808C112.353 22.706 112.303 22.3085 112.584 21.2324C112.62 21.0439 112.709 20.8383 112.673 20.7423C112.46 20.9 111.98 21.3455 111.24 22.0754C110.138 23.1549 109.164 23.6964 108.325 23.6964C107.995 23.6964 107.621 23.6176 107.202 23.4599C106.783 23.3023 106.413 22.8808 106.089 22.1988C105.769 21.5168 105.609 20.7218 105.609 19.8171C105.609 18.8027 105.83 17.8329 106.278 16.911C106.786 15.8486 107.572 14.9096 108.624 14.1009C109.808 13.2133 110.846 12.569 111.738 12.1715C113.053 11.5855 114.447 11.2908 115.912 11.2908C116.424 11.2908 117.007 11.3902 117.664 11.5889C118.322 11.7877 118.653 12.0139 118.653 12.2675C118.653 12.3634 118.624 12.3805 118.51 12.5485C118.453 12.617 118.407 12.6924 118.308 12.8158C118.205 12.9391 118.169 13.0317 118.087 13.0317C118.02 13.0317 117.924 12.9837 117.792 12.8877C117.593 12.7301 117.323 12.6033 116.978 12.5073C116.633 12.4114 116.278 12.3634 115.915 12.3634C114.515 12.3634 112.993 12.7986 111.347 13.6725C109.602 14.6081 108.3 15.7355 107.444 17.0549C107.031 17.6889 106.825 18.508 106.825 19.5086C106.825 20.0809 106.903 20.6121 107.06 21.1056C107.216 21.5991 107.302 21.8218 107.533 22.1234C107.703 22.3222 107.931 22.425 108.176 22.425C108.901 22.425 110.217 21.6094 111.5 20.2283C112.357 19.2927 113.089 18.4703 114.308 16.7842C115.41 15.2455 116.033 14.1763 116.079 14.1077C116.253 13.8439 116.584 13.9467 116.747 13.9981C116.95 14.0598 116.932 14.0632 117.092 14.1214C117.245 14.1797 117.302 14.2791 117.302 14.4402C117.302 14.5841 117.27 14.7246 117.202 14.8685C117.085 15.0741 117.003 15.2284 116.953 15.3209L114.902 19.3339C114.703 19.7314 114.515 20.1803 114.333 20.6841C114.152 21.1844 114.063 21.5648 114.063 21.8184C114.063 21.9932 114.113 22.12 114.212 22.2022C114.866 22.5758 115.489 22.1268 117.348 20.7835C118.205 20.0981 119.029 19.4881 119.9 18.7855C120.174 18.6725 120.231 18.2064 120.231 18.46Z" fill="#ED5243"/>
<path d="M130.534 18.6012C130.534 18.7931 130.517 18.9439 130.485 19.0536C130.453 19.1667 130.36 19.2763 130.214 19.386C128.931 20.7191 127.719 21.7266 126.585 22.412C125.301 23.1899 124.164 23.6423 122.962 23.6423C122.468 23.6423 121.889 23.584 121.519 23.4127C121.203 23.2653 120.548 22.8267 120.14 22.2064C119.628 21.4285 119.482 20.9007 119.34 19.8212C119.254 19.1735 119.411 18.3785 119.674 17.6622C119.937 16.946 120.197 16.1543 120.74 15.2188C121.818 13.5875 122.461 13.166 123.449 12.5115C124.601 11.7473 125.899 11.3943 127.555 11.3943C128.963 11.3943 129.67 12.1379 129.67 12.981C129.67 14.0125 129.315 15.0749 128.608 16.1715C128.526 16.3634 128.263 16.4559 127.818 16.4559C127.523 16.4559 127.388 16.36 127.424 16.1715C127.769 15.5204 128.032 14.9378 128.213 14.4203C128.394 13.9063 128.483 13.495 128.483 13.1934C128.483 12.7479 128.256 12.4464 127.619 12.4566C126.862 12.4704 125.646 12.7822 124.79 13.3716C124.409 13.6252 123.983 13.9302 122.923 14.996C122.376 15.6574 121.874 16.4799 121.455 17.3606C121.036 18.2448 120.826 19.0981 120.826 19.9274C120.826 20.4381 120.929 20.8973 121.135 21.3119C121.341 21.7266 121.547 22.0659 121.992 22.3195C122.45 22.5799 122.909 22.7958 123.684 22.765C124.722 22.7239 126.03 22.0693 127.744 20.8939C129.109 19.9583 129.571 19.0022 130.214 18.2414C130.364 18.2105 130.463 18.2345 130.509 18.3133C130.541 18.3819 130.549 18.4744 130.534 18.6012Z" fill="#ED5243"/>
<path d="M68.5393 13.3308C68.5819 13.2486 68.6282 13.1698 68.6708 13.0875C69.6307 10.9594 70.5869 8.82779 71.5574 6.70307C72.3218 5.02728 72.336 5.03414 73.1074 3.36178C73.2389 3.07734 73.5838 2.33369 73.7828 1.84706C71.7068 1.84706 70.2386 1.84706 68.7384 1.84706C66.6232 1.84706 66.1148 1.82307 64.2982 2.2343C63.6406 2.38166 62.8834 2.80661 62.3075 3.15959C61.6818 3.53998 61.5076 3.28981 61.4116 2.74835C61.2374 1.75453 61.5894 1.07599 62.6487 0.86009C65.5638 0.263797 67.9492 0.267224 71.1557 0.174696C74.7782 0.174696 77.8853 0.174696 81.6997 0.174696C82.7698 0.174696 84.3375 0.136999 85.3187 0.558516C85.7524 0.747 86.3069 1.08284 86.3069 1.49065C86.3069 2.11779 85.7986 2.20346 85.3969 2.16576C84.7357 1.51807 80.8501 1.69627 80.132 1.68942C78.6531 1.67571 75.9905 1.91217 75.9905 1.91217C75.5817 2.51189 75.3861 2.92998 75.0911 3.47487C71.7672 9.62285 69.1187 16.0381 67.0036 22.6625C66.9929 22.6899 66.9858 22.7173 66.9716 22.7447C66.7902 23.0977 66.6054 23.4507 66.4205 23.8071C66.0828 23.4609 65.5425 23.1559 65.45 22.755C65.3149 22.1724 65.3576 21.4699 65.5709 20.9044C66.4099 18.6666 67.3519 16.4631 68.2478 14.2424C68.3615 13.9408 68.4433 13.6324 68.5393 13.3308Z" fill="#ED5243"/>
<path d="M47.887 19.115C48.0221 19.0944 47.8693 19.2452 47.6524 19.4131C46.7175 20.1122 45.7718 20.8011 44.8191 21.4865C43.8664 22.1718 42.8746 22.7956 41.8401 23.3679C41.513 23.5598 41.1931 23.6523 40.8802 23.6523C40.2901 23.6523 39.4938 23.5324 39.5009 22.8847C39.508 22.4597 39.6289 22.2335 39.7107 21.9628C39.9559 21.2945 40.3114 20.4138 41.0402 18.8717C41.769 17.333 42.384 15.9176 42.8426 14.7113C42.9563 14.3926 43.1199 13.9917 43.1199 13.7518C43.1199 13.4022 42.9883 13.2583 42.7288 13.1281C42.5831 13.0561 42.4906 13.015 42.0463 13.015C41.5343 13.015 41.0722 13.1075 40.9549 13.1795C40.8411 13.2514 40.9016 13.1932 40.706 13.5564C40.1621 14.588 39.4476 15.6675 38.5588 16.7949C37.6701 17.9224 36.8454 18.7963 36.0881 19.4131C35.8749 19.4611 35.7824 19.3514 35.818 19.0807C35.818 18.81 35.8535 18.6215 35.9282 18.5084C36.0028 18.3988 36.0562 18.3096 36.0881 18.248C36.8454 17.4529 37.5208 16.651 38.1145 15.8422C38.5411 15.2562 39.053 14.4783 39.6467 13.5085C39.7284 13.3645 39.7853 13.2617 39.8209 13.2C39.9346 13.0081 39.995 12.8505 39.995 12.7237C39.995 12.5969 39.9524 12.4701 39.8706 12.3433C39.6715 11.9629 39.5756 11.5962 39.5756 11.2467C39.5756 10.9622 39.6324 10.7086 39.7498 10.4859C39.8635 10.2631 40.0448 10.0986 40.2937 9.98554C40.3932 9.93756 40.4821 9.91357 40.5638 9.91357C40.8091 9.91357 41.0331 10.0335 41.2322 10.27C41.4312 10.5064 41.5272 10.7943 41.5272 11.1267C41.5272 11.4283 41.5557 11.6339 41.6126 11.747C41.6694 11.8567 41.7583 11.9149 41.8721 11.9149C41.9218 11.9149 42.0498 11.8944 42.256 11.8567C42.4622 11.8155 42.5831 11.7984 42.615 11.7984C42.7288 11.7847 42.8781 11.7744 43.0594 11.7744C43.6175 11.7744 44.0619 11.8772 44.3925 12.0828C44.8049 12.3536 45.0111 12.758 45.0111 13.296C45.0111 13.5976 44.9542 13.9231 44.8369 14.2727C44.5916 15.0814 44.1615 16.1232 43.5536 17.3912C42.6648 19.2658 42.1209 20.4481 41.9218 20.9381C41.7903 21.2397 41.7228 21.4933 41.7228 21.6989C41.7228 21.9354 41.9076 22.2198 42.1102 22.2815C42.3591 22.3569 42.5866 22.1924 42.7608 22.1204C42.935 22.0485 44.2788 21.1609 44.4103 21.0478L47.6311 18.7894C47.7662 18.7757 47.7164 19.1424 47.887 19.115Z" fill="#ED5243"/>
<path d="M15.6087 1.63345C15.0008 -0.563235 12.0928 0.13244 12.0928 0.13244C9.68611 0.475137 6.89547 2.11665 6.89547 2.11665C2.81439 4.35447 2.33091 7.76087 2.33091 7.76087C1.69102 11.2735 5.14288 12.963 5.14288 12.963L7.9584 14.4983C10.6957 15.7663 11.197 17.2501 11.197 17.2501C12.0111 19.5462 10.358 21.0335 10.358 21.0335C6.89903 24.0081 3.40806 21.9451 3.40806 21.9451C0.866272 20.3344 1.1009 17.6203 1.1009 17.6203C1.11512 17.4009 1.12934 17.2296 1.15778 17L1.18266 16.7669C1.22888 16.3523 0.884047 16.3386 0.884047 16.3386C0.0912922 16.2186 0.0948472 16.6093 0.0948472 16.6093L0.0592977 16.8698C-0.264203 19.183 0.841387 20.8793 0.841387 20.8793C2.72196 24.1452 6.33023 23.8402 6.33023 23.8402C12.6083 23.3639 13.433 18.8711 13.433 18.8711C14.0374 14.6662 10.8806 13.3057 10.8806 13.3057C9.29507 12.4078 6.10983 11.3352 6.10983 11.3352C2.90326 10.2249 3.53604 8.31947 3.53604 8.31947C4.46033 3.82329 10.3971 1.82194 10.3971 1.82194C14.1618 0.495699 14.4178 2.18862 14.4178 2.18862C14.9581 3.38121 13.4935 4.64233 13.4935 4.64233C13.1273 5.03643 13.9378 5.41683 13.9378 5.41683C14.2578 5.59503 14.9759 4.70059 14.9759 4.70059C16.2059 2.97682 15.6087 1.63345 15.6087 1.63345Z" fill="#ED5243"/>
</svg>
