<svg width="32" height="27" viewBox="0 0 32 27" fill="none" xmlns="http://www.w3.org/2000/svg">
<path d="M27.2814 5.46236C25.1474 3.18135 21.3738 2.01681 16.0647 2.00024C16.0604 2 16.0559 2 16.0514 2H15.9494C15.9449 2 15.9404 2 15.9361 2.00024C10.627 2.01681 6.85334 3.18135 4.71937 5.46236C2.87429 7.43436 2.99841 9.50344 3.0034 9.55624V24.5151C3.0034 24.7829 3.22143 25 3.49035 25C3.75927 25 3.9773 24.7829 3.9773 24.5151L3.97712 22.0979H28.0235V24.5151C28.0235 24.7829 28.2415 25 28.5104 25C28.7793 25 28.9974 24.7829 28.9974 24.5151L28.9962 9.59058C29.0024 9.50344 29.1265 7.43436 27.2814 5.46236ZM3.97656 15.0273C16.8946 11.5988 26.642 14.5495 28.0235 15.0094V17.5539H3.97673L3.97656 15.0273ZM14.3064 12.4637C11.9674 12.5675 9.36194 12.8524 6.56112 13.425V10.313C6.56112 9.96068 6.84906 9.67393 7.20286 9.67393H13.6647C14.0185 9.67393 14.3064 9.96068 14.3064 10.313V12.4637ZM25.4397 13.321C24.3552 13.0896 23.0103 12.8546 21.428 12.6802C20.345 12.5608 19.0892 12.4676 17.6944 12.4309V10.313C17.6944 9.96068 17.9823 9.67393 18.3361 9.67393H24.7979C25.1517 9.67393 25.4397 9.96068 25.4397 10.313V13.321ZM5.43172 6.12348C7.3555 4.06742 11.0095 2.97747 16.0003 2.9699C20.972 2.97724 24.6186 4.05937 26.5474 6.10051C28.1131 7.75734 28.0289 9.453 28.0235 9.55624V13.9877C27.6653 13.8748 27.1215 13.7167 26.4136 13.5435V10.313C26.4136 9.42577 25.6888 8.70403 24.7979 8.70403H18.3361C17.4452 8.70403 16.7205 9.42577 16.7205 10.313V12.4155C16.2545 12.4129 15.7737 12.4178 15.2803 12.4298V10.313C15.2803 9.42577 14.5556 8.70403 13.6647 8.70403H7.20286C6.31194 8.70403 5.58722 9.42577 5.58722 10.313V13.6359C5.05638 13.7554 4.51965 13.8851 3.97647 14.0262L3.97611 9.52191C3.97492 9.50486 3.87244 7.79025 5.43172 6.12348ZM3.97703 21.128L3.97682 18.5238H28.0235V21.128H3.97703Z" fill="white"/>
</svg>
