<svg width="32" height="27" viewBox="0 0 32 27" fill="none" xmlns="http://www.w3.org/2000/svg">
<path d="M23.3276 9.12928V3.78479C23.3276 3.46661 23.067 3.20943 22.7458 3.20943H19.4201C19.099 3.20943 18.8384 3.46661 18.8384 3.78479V5.25885L16.3824 3.14154C16.1631 2.95282 15.8367 2.95282 15.618 3.14154L5.1993 12.1246C4.95731 12.3334 4.93229 12.6971 5.14288 12.9364C5.35404 13.1752 5.72111 13.2011 5.96369 12.9922L7.29933 11.8404V22.4246C7.29933 22.7428 7.55994 23 7.88105 23H24.1187C24.4398 23 24.7004 22.7428 24.7004 22.4246V11.8398L26.0361 12.9917C26.146 13.0866 26.2827 13.1332 26.4183 13.1332C26.5806 13.1332 26.7423 13.0665 26.8569 12.9359C27.0681 12.6965 27.0425 12.3329 26.8005 12.124L23.3276 9.12928ZM20.0019 6.22545V4.36015H22.1641V8.12644L19.9955 6.25652C19.996 6.24559 20.0019 6.23639 20.0019 6.22545ZM23.5376 21.8493H8.46336V10.8369L16.0008 4.33828L23.5382 10.8369V21.8493H23.5376Z" fill="white"/>
</svg>
