<svg width="32" height="27" viewBox="0 0 32 27" fill="none" xmlns="http://www.w3.org/2000/svg">
<g clip-path="url(#clip0)">
<path d="M10.4501 25.3701C8.99813 25.3701 7.81006 24.182 7.81006 22.7301C7.81006 21.2782 8.99813 20.0901 10.4501 20.0901C11.902 20.0901 13.0901 21.2782 13.0901 22.7301C13.0901 24.182 11.902 25.3701 10.4501 25.3701ZM10.4501 23.8701C11.0781 23.8701 11.5901 23.3582 11.5901 22.7301C11.5901 22.102 11.0781 21.5901 10.4501 21.5901C9.82199 21.5901 9.31006 22.102 9.31006 22.7301C9.31006 23.3582 9.82199 23.8701 10.4501 23.8701Z" fill="white" stroke="#12233D" stroke-width="0.5"/>
<path d="M22.9302 22.7301C22.9302 21.2782 24.1182 20.0901 25.5702 20.0901C27.0221 20.0901 28.2102 21.2782 28.2102 22.7301C28.2102 24.182 27.0221 25.3701 25.5702 25.3701C24.1182 25.3701 22.9302 24.182 22.9302 22.7301ZM24.4302 22.7301C24.4302 23.3582 24.9421 23.8701 25.5702 23.8701C26.1982 23.8701 26.7102 23.3582 26.7102 22.7301C26.7102 22.102 26.1982 21.5901 25.5702 21.5901C24.9421 21.5901 24.4302 22.102 24.4302 22.7301Z" fill="white" stroke="#12233D" stroke-width="0.5"/>
<path d="M4.20516 1.95107L4.16503 1.75H3.96H1C0.588071 1.75 0.25 1.41193 0.25 1C0.25 0.588071 0.588071 0.25 1 0.25H4.78C5.14363 0.25 5.44768 0.498289 5.51446 0.847018L5.51445 0.84702L5.5149 0.849278L6.6549 6.51928L6.65488 6.51928L6.65555 6.52238L6.68555 6.66238L6.7279 6.86H6.93H31.22C31.4535 6.86 31.6692 6.96473 31.811 7.15127C31.9532 7.33849 31.9988 7.5783 31.9387 7.8048C31.9386 7.80506 31.9385 7.80532 31.9384 7.80558L29.1088 18.1943L29.1087 18.1943L29.1075 18.1994C29.0263 18.524 28.7296 18.75 28.39 18.75H8.17C8.08755 18.75 7.98727 18.7284 7.89544 18.6951L7.88912 18.6928L7.87945 18.6864L7.86289 18.6756C7.85176 18.6685 7.83692 18.6594 7.81933 18.6502C7.7696 18.6216 7.72867 18.5946 7.68957 18.5638C7.67711 18.5483 7.66553 18.5348 7.65618 18.5239L7.65481 18.5223C7.63926 18.5041 7.6294 18.4925 7.62 18.48L7.62026 18.4798L7.61206 18.47C7.56256 18.4106 7.54409 18.3849 7.52979 18.3515L7.51798 18.324L7.50392 18.3052C7.50322 18.3036 7.50218 18.301 7.50084 18.2973C7.4978 18.2891 7.49523 18.2813 7.49016 18.2665C7.48684 18.2568 7.48264 18.2446 7.47764 18.2314C7.46827 18.1995 7.45702 18.1733 7.45097 18.1593L7.44979 18.1565C7.44589 18.1474 7.44392 18.1426 7.443 18.1402L5.17516 6.81107L5.17514 6.81093L4.20516 1.95107ZM7.89577 18.6969C7.89573 18.6968 7.89546 18.6967 7.89494 18.6964L7.89577 18.6969ZM30.1712 8.67583L30.2574 8.36H29.93H7.33H7.02533L7.08481 8.6588L8.75481 17.0488L8.79486 17.25H9H27.64H27.8309L27.8812 17.0658L30.1712 8.67583Z" fill="white" stroke="#12233D" stroke-width="0.5"/>
</g>
<defs>
<clipPath id="clip0">
<rect width="32" height="27" fill="white"/>
</clipPath>
</defs>
</svg>
