<svg width="32" height="27" viewBox="0 0 32 27" fill="none" xmlns="http://www.w3.org/2000/svg">
<path d="M16 2C9.92067 2 5 6.91975 5 13C5 19.0794 9.91975 24 16 24C22.0796 24 27 19.0801 27 13C27 6.92067 22.0803 2 16 2ZM16 23.0833C10.44 23.0833 5.91667 18.56 5.91667 13C5.91667 7.44 10.44 2.91667 16 2.91667C21.56 2.91667 26.0833 7.44 26.0833 13C26.0833 18.56 21.56 23.0833 16 23.0833Z" fill="white"/>
<path d="M21.3658 7.63423C21.1868 7.45526 20.8966 7.45526 20.7176 7.63423L10.6342 17.7176C10.4553 17.8965 10.4553 18.1868 10.6342 18.3658C10.8132 18.5448 11.1034 18.5447 11.2824 18.3658L21.3658 8.28246C21.5448 8.10343 21.5448 7.81321 21.3658 7.63423Z" fill="white"/>
<path d="M13.2492 12.0833C14.5128 12.0833 15.5409 11.0553 15.5409 9.79167C15.5409 8.52804 14.5128 7.5 13.2492 7.5C11.9856 7.5 10.9575 8.52804 10.9575 9.79167C10.9575 11.0553 11.9856 12.0833 13.2492 12.0833ZM13.2492 8.41667C14.0074 8.41667 14.6242 9.03349 14.6242 9.79167C14.6242 10.5498 14.0074 11.1667 13.2492 11.1667C12.491 11.1667 11.8742 10.5498 11.8742 9.79167C11.8742 9.03349 12.491 8.41667 13.2492 8.41667Z" fill="white"/>
<path d="M19.6667 13.4583C18.403 13.4583 17.375 14.4863 17.375 15.7499C17.375 17.0135 18.403 18.0416 19.6667 18.0416C20.9303 18.0416 21.9583 17.0135 21.9583 15.7499C21.9583 14.4863 20.9303 13.4583 19.6667 13.4583ZM19.6667 17.1249C18.9085 17.1249 18.2917 16.5081 18.2917 15.7499C18.2917 14.9917 18.9085 14.3749 19.6667 14.3749C20.4249 14.3749 21.0417 14.9917 21.0417 15.7499C21.0417 16.5081 20.4249 17.1249 19.6667 17.1249Z" fill="white"/>
</svg>
