<svg width="32" height="27" viewBox="0 0 32 27" fill="none" xmlns="http://www.w3.org/2000/svg">
<path d="M16.2566 11.1971L16.5979 10.9222C16.7177 10.8258 19.523 8.5312 19.523 5.59855C19.523 2.6659 16.7177 0.371277 16.5979 0.274919L16.2566 0L15.9153 0.274919C15.7955 0.371277 12.9902 2.6659 12.9902 5.59855C12.9902 8.5312 15.7955 10.8258 15.9153 10.9222L16.2566 11.1971ZM14.079 5.59855C14.079 3.73835 15.5674 2.09319 16.2566 1.43176C16.9458 2.09319 18.4342 3.7389 18.4342 5.59855C18.4342 7.45819 16.9458 9.1039 16.2566 9.76534C15.5674 9.1039 14.079 7.45874 14.079 5.59855Z" fill="white"/>
<path d="M25.4334 9.40306L25.3752 9.00129L24.9734 8.94304C24.8019 8.91855 20.7604 8.36 18.5283 10.5926C16.2958 12.8251 16.8543 16.8667 16.8788 17.0376L16.9371 17.4394L17.3388 17.4976C17.3976 17.5064 17.9105 17.5771 18.6503 17.5771C20.0679 17.5771 22.3173 17.3153 23.7845 15.8481C26.0165 13.6161 25.4585 9.57454 25.4334 9.40306ZM23.0147 15.0789C21.5443 16.5493 18.9323 16.5313 17.9164 16.4606C17.8462 15.4442 17.8277 12.8322 19.2981 11.3623C20.7685 9.89192 23.3805 9.90934 24.3964 9.98066C24.4666 10.9965 24.4846 13.6085 23.0147 15.0789Z" fill="white"/>
<path d="M24.9734 17.6532C24.8019 17.6288 20.7604 17.0702 18.5283 19.3028C16.2958 21.5348 16.8543 25.5769 16.8788 25.7478L16.9371 26.1496L17.3388 26.2079C17.3976 26.2166 17.9105 26.2873 18.6503 26.2873C20.0679 26.2873 22.3173 26.0255 23.7845 24.5583C26.017 22.3263 25.4585 18.2842 25.434 18.1133L25.3752 17.7115L24.9734 17.6532ZM23.0147 23.7891C21.5443 25.2595 18.9323 25.2421 17.9164 25.1708C17.8462 24.1544 17.8277 21.5424 19.2981 20.0725C20.7685 18.6021 23.3805 18.6201 24.3964 18.6909C24.4666 19.7067 24.4846 22.3187 23.0147 23.7891Z" fill="white"/>
<path d="M13.9852 10.5918C11.7526 8.35926 7.71101 8.91727 7.54008 8.94231L7.13777 9.0011L7.07952 9.40287C7.05502 9.57381 6.49647 13.6159 8.72903 15.8479C10.1962 17.3151 12.4451 17.5769 13.8632 17.5769C14.6025 17.5769 15.1159 17.5062 15.1747 17.4975L15.5764 17.4392L15.6347 17.0374C15.6592 16.866 16.2172 12.8244 13.9852 10.5918ZM14.5971 16.4604C13.5818 16.5312 10.9687 16.5486 9.4988 15.0787C8.0284 13.6083 8.04636 10.9963 8.11713 9.98047C9.13297 9.90915 11.7455 9.89228 13.2154 11.3621C14.6852 12.832 14.6673 15.444 14.5971 16.4604Z" fill="white"/>
<path d="M7.53953 17.6531L7.13777 17.7114L7.07952 18.1131C7.05502 18.2841 6.49647 22.3262 8.72903 24.5582C10.1962 26.0254 12.4451 26.2872 13.8632 26.2872C14.6025 26.2872 15.1159 26.2164 15.1747 26.2077L15.5764 26.1495L15.6347 25.7477C15.6592 25.5768 16.2177 21.5347 13.9852 19.3026C11.7526 17.0695 7.71101 17.6281 7.53953 17.6531ZM14.5971 25.1707C13.5818 25.242 10.9687 25.2589 9.4988 23.789C8.0284 22.3186 8.04636 19.7066 8.11713 18.6907C9.13297 18.62 11.7455 18.6026 13.2154 20.0724C14.6852 21.5423 14.6673 24.1543 14.5971 25.1707Z" fill="white"/>
</svg>
