<svg width="26" height="22" viewBox="0 0 26 22" fill="none" xmlns="http://www.w3.org/2000/svg">
<path d="M24.9835 4.16036C24.8449 3.9165 24.5347 3.83129 24.291 3.96993C24.0472 4.10856 23.9619 4.41863 24.1006 4.66243C25.6091 7.31514 25.1537 10.6769 22.9931 12.8374L22.608 13.2225C22.515 12.9784 22.3709 12.7494 22.1745 12.5531L16.9564 7.3351C17.2977 7.16721 17.613 6.94322 17.8898 6.66641L18.8906 5.66556C19.0889 5.46726 19.0889 5.14566 18.8906 4.94736C18.6922 4.74906 18.3707 4.74906 18.1723 4.94736L17.1715 5.94821C16.7013 6.41834 16.0763 6.67728 15.4114 6.67728H13.4108C13.2761 6.67728 13.147 6.7308 13.0516 6.82601L11.5201 8.35758C11.0653 8.81242 10.3252 8.81242 9.87045 8.35758C9.4156 7.90278 9.4156 7.16274 9.87045 6.70795L13.367 3.21141C15.5039 1.07453 18.8398 0.604602 21.4792 2.06862C21.7245 2.20457 22.0336 2.11616 22.1697 1.87083C22.3057 1.62556 22.2171 1.3164 21.9719 1.18036C20.5161 0.372988 18.8009 0.0498672 17.142 0.270816C15.5895 0.477547 14.1685 1.1276 13.0037 2.15907C11.5727 0.8905 9.75101 0.196777 7.82234 0.196777C5.7329 0.196777 3.76858 1.01045 2.2911 2.48787C0.813617 3.9653 0 5.92978 0 8.01917C0 15.6199 7.85052 17.4198 12.5262 20.2838L13.4849 21.2424C13.8463 21.6039 14.3269 21.803 14.8381 21.803C15.3492 21.803 15.8298 21.6039 16.1913 21.2425C16.5887 20.845 16.7744 20.3148 16.7485 19.7933C16.7804 19.7949 16.8123 19.7958 16.8443 19.7958C17.3344 19.7958 17.8245 19.6093 18.1976 19.2361C18.5901 18.8437 18.7758 18.3217 18.7554 17.8065C18.7811 17.8075 18.8068 17.8084 18.8326 17.8084C19.3438 17.8084 19.8244 17.6093 20.1858 17.2479C20.5783 16.8554 20.764 16.3334 20.7436 15.8182C20.7693 15.8192 20.795 15.8201 20.8209 15.8201C21.332 15.8201 21.8126 15.621 22.1741 15.2596C22.3577 15.076 22.4959 14.8639 22.5891 14.6376C22.6385 14.6135 22.685 14.5815 22.7261 14.5404L23.7109 13.5556C26.1942 11.0728 26.7173 7.20931 24.9835 4.16036ZM21.4562 14.5414C21.2866 14.711 21.0611 14.8044 20.8212 14.8044C20.5813 14.8044 20.3558 14.711 20.1862 14.5414L18.0723 12.4275L16.084 10.4392C15.8856 10.2409 15.5641 10.2409 15.3657 10.4392C15.1674 10.6375 15.1674 10.959 15.3657 11.1574L19.468 15.2595C19.8181 15.6097 19.8181 16.1794 19.468 16.5295C19.2983 16.6992 19.0728 16.7926 18.8329 16.7926C18.593 16.7926 18.3675 16.6992 18.1979 16.5295L14.0957 12.4274C13.8974 12.2291 13.5759 12.2291 13.3775 12.4274C13.1792 12.6257 13.1792 12.9473 13.3775 13.1456L15.3653 15.1335L17.4797 17.2478C17.8299 17.598 17.8299 18.1678 17.4798 18.5179C17.1295 18.8681 16.5597 18.8681 16.2097 18.5179L14.0958 16.404C14.0567 16.365 14.0127 16.3339 13.966 16.3102L13.363 15.7073C13.1647 15.509 12.8432 15.509 12.6448 15.7073C12.4465 15.9056 12.4465 16.2272 12.6448 16.4255L15.4734 19.2541C15.8236 19.6043 15.8236 20.174 15.4734 20.5242C15.3038 20.6938 15.0782 20.7872 14.8384 20.7872C14.5985 20.7872 14.373 20.6938 14.2034 20.5242C14.2034 20.5242 13.6773 19.889 12.5262 19.2361C11.375 18.5833 7.58333 17.5 3.0096 13.1456C1.8167 11.8786 1.01593 9.76706 1.01593 8.01907C1.01593 6.20095 1.72392 4.4916 3.0096 3.20602C4.29518 1.92044 6.00458 1.2124 7.82265 1.2124C9.47487 1.2124 11.0372 1.7972 12.2733 2.86878L9.15246 5.98965C8.74032 6.40184 8.51332 6.94982 8.51332 7.53269C8.51332 8.1156 8.74032 8.66358 9.15246 9.07578C9.5779 9.50117 10.1367 9.71389 10.6955 9.71389C11.2543 9.71389 11.8132 9.50122 12.2386 9.07578L13.6215 7.6929H15.4117C15.5595 7.6929 15.7057 7.6828 15.8501 7.66487L21.4565 13.2712C21.8064 13.6215 21.8064 14.1913 21.4562 14.5414Z" fill="white"/>
</svg>
