<svg width="51" height="50" viewBox="0 0 51 50" fill="none" xmlns="http://www.w3.org/2000/svg">
<path d="M37.2451 31.3418L45.3323 43.5326L35.6984 50.0001L27.6111 37.8088L26.1999 35.6823L35.8343 29.2148L37.2451 31.3416V31.3418Z" fill="#B1B0B1"/>
<path d="M25.1116 39.4871L26.8921 42.1712L19.5592 47.0937L16.3677 42.2829L17.9697 41.2076L23.7008 37.3604L25.1116 39.4871V39.4871Z" fill="#B1B0B1"/>
<path d="M41.2527 25.579L43.3095 24.1982L46.5008 29.009L41.767 32.187L39.9864 29.5027L42.6635 27.7057L41.2527 25.579V25.579ZM39.9864 29.5029L38.5757 27.3762L41.2527 25.579L42.6635 27.7057L39.9864 29.5029Z" fill="#B1B0B1"/>
<path d="M8.05908 26.2675L6.45701 27.3428L1.58046 19.9919L8.91358 15.0693L12.3316 20.2222L6.60073 24.0694L12.3318 20.222L13.7901 22.4203L8.05888 26.2673L8.05908 26.2675Z" fill="#B1B0B1"/>
<path d="M25.9231 14.2752L16.2888 20.7426L14.8306 18.5443L6.81889 6.46722L16.4533 0L24.4648 12.0769L25.9231 14.2752Z" fill="#B1B0B1"/>
<path d="M31.342 10.6393L28.665 12.4363L27.2064 10.238L23.7884 5.08534L28.5223 1.90723L33.3988 9.25834L31.342 10.6393Z" fill="#B1B0B1"/>
<path d="M19.3803 43.3343L17.9695 41.2076L23.7005 37.3604L25.1113 39.4871L19.3803 43.3343Z" fill="#B1B0B1"/>
<path d="M39.9864 29.502L38.5757 27.3753L41.2527 25.5781L42.6635 27.7048L39.9864 29.502Z" fill="#B1B0B1"/>
<path d="M8.05784 26.2672L6.59949 24.0692L12.3303 20.2217L13.7889 22.42L8.05764 26.2671L8.05784 26.2672Z" fill="#B1B0B1"/>
<path d="M28.6642 12.4359L27.2057 10.2376L29.8831 8.44043L31.3412 10.6389L28.6642 12.4359V12.4359Z" fill="#B1B0B1"/>
<path d="M37.2449 31.3418L27.6107 37.8088L26.1999 35.6823L35.8341 29.2148L37.2449 31.3416V31.3418Z" fill="#B1B0B1"/>
<path d="M24.466 12.0773L25.9244 14.2754L16.29 20.7429L14.8319 18.5446L24.4662 12.0771L24.466 12.0773Z" fill="#B1B0B1"/>
<path d="M5.32675 10.3203L7.14509 13.0615L4.42008 14.8906L2.60174 12.1494L5.32675 10.3203Z" fill="#B1B0B1"/>
<path d="M15.1454 43.1807L16.9637 45.9219L14.2389 47.751L12.4204 45.01L15.1454 43.1807V43.1807Z" fill="#B1B0B1"/>
<path d="M7.97774 45.942L0 33.8183L42.6345 5.13327L51 17.0634L7.97774 45.942Z" fill="#B1B0B1"/>
</svg>
