<svg width="96" height="50" viewBox="0 0 96 50" fill="none" xmlns="http://www.w3.org/2000/svg">
<path d="M5.00417 29.186H7.15817C8.8209 29.186 9.65221 28.6547 9.65221 27.6287C9.65221 26.6212 8.76415 26.0715 7.02592 26.0715H5.00417V29.186ZM5.00417 21.6745V24.5693H6.89367C8.31072 24.5693 9.04759 24.0562 9.04759 23.1219C9.04759 22.1691 8.29186 21.6745 6.87473 21.6745H5.00417ZM2 30.7434V29.186H3.26593V21.6745H2V20.1172H7.06373C9.38765 20.1172 10.8048 21.1615 10.8048 22.9753C10.8048 24.1661 10.0868 24.899 9.17992 25.247C10.4836 25.5952 11.4094 26.4929 11.4094 27.7203C11.4094 29.6624 9.86009 30.7434 7.32814 30.7434H2Z" fill="#12233D"/>
<path d="M20.5928 25.2105C20.4039 24.5877 19.9316 24.2212 19.3081 24.2212C17.8533 24.2212 16.4739 25.2654 16.4739 27.1708V29.1861H19.2703V30.7434H13.0352V29.1861H14.8111V24.496H13.413V22.9387H16.455V24.2578C16.9652 23.3418 18.0044 22.6823 19.3836 22.6823C20.9331 22.6823 21.8965 23.5434 22.18 24.7708L20.5928 25.2105Z" fill="#12233D"/>
<path d="M29.0957 27.5924C28.5666 27.4092 27.773 27.2627 27.0362 27.2627C25.978 27.2627 24.9577 27.5924 24.9577 28.5268C24.9577 29.2229 25.6 29.5528 26.4881 29.5528C27.7164 29.5528 29.0957 28.9115 29.0957 27.8123V27.5924ZM29.0957 26.2001V25.7604C29.0957 24.661 28.1886 24.203 27.2062 24.203C26.2804 24.203 25.4868 24.5696 24.8443 25.1373L23.7484 23.9833C24.5044 23.3053 25.5813 22.6824 27.2062 22.6824C29.2279 22.6824 30.7962 23.7267 30.7962 25.7053V29.1863H31.9676V30.7437H29.0957V29.9192C28.6611 30.5971 27.4897 31 26.337 31C24.6742 31 23.2383 30.1757 23.2383 28.5451C23.2383 26.6215 25.1846 25.8886 26.9604 25.8886C27.8298 25.8886 28.5477 26.0535 29.0957 26.2001Z" fill="#12233D"/>
<path d="M38.9585 21.3815H37.088V18.9999H38.9585V21.3815ZM42.0573 29.186V30.7434H33.9326V29.186H37.2959V24.496H34.7262V22.9387H38.9585V29.186H42.0573Z" fill="#12233D"/>
<path d="M44.0605 29.1861H45.2886V24.496H44.1359V22.9387H46.9324V23.9463C47.4237 23.1769 48.4439 22.6823 49.6909 22.6823C51.4859 22.6823 52.7707 23.7815 52.7707 25.5586V29.1861H53.9989V30.7434H49.8233V29.1861H51.1081V25.9982C51.1081 24.6426 50.2579 24.2578 49.4832 24.2578C48.2171 24.2578 46.9514 25.1739 46.9514 26.5845V29.1861H48.236V30.7434H44.0605V29.1861Z" fill="#12233D"/>
<path d="M56.2857 24.4961H54.1885V22.9387H56.2857V20.1173H57.9483V22.9387H61.8594V24.4961H57.9483V27.7755C57.9483 28.9848 58.8175 29.4794 59.8188 29.4794C60.7636 29.4794 61.5572 28.9666 62.1429 28.3986L63.2577 29.516C62.5209 30.2856 61.3872 31 59.8188 31C57.7972 31 56.2857 29.9192 56.2857 27.8306V24.4961Z" fill="#12233D"/>
<path d="M72.3272 25.2105C72.1382 24.5877 71.666 24.2212 71.0424 24.2212C69.5877 24.2212 68.2082 25.2654 68.2082 27.1708V29.1861H71.0047V30.7434H64.7695V29.1861H66.5456V24.496H65.1475V22.9387H68.1894V24.2578C68.6996 23.3418 69.7388 22.6823 71.1182 22.6823C72.6675 22.6823 73.631 23.5434 73.9145 24.7708L72.3272 25.2105Z" fill="#12233D"/>
<path d="M76.8055 26.0352H81.7557C81.5101 24.9176 80.4898 24.1664 79.3562 24.1664C78.0712 24.1664 77.0888 24.9359 76.8055 26.0352ZM83.513 29.5528C82.6817 30.3954 81.2078 31 79.564 31C76.8621 31 74.9727 29.2412 74.9727 26.8412C74.9727 24.4412 76.8055 22.6824 79.3562 22.6824C81.888 22.6824 83.6641 24.5696 83.6641 27.1343V27.4092H76.73C77.0132 28.71 78.128 29.4977 79.5829 29.4977C80.7922 29.4977 81.8312 29.0215 82.3982 28.4169L83.513 29.5528Z" fill="#12233D"/>
<path d="M87.1413 26.0352H92.0916C91.846 24.9176 90.8257 24.1664 89.692 24.1664C88.4073 24.1664 87.4247 24.9359 87.1413 26.0352ZM93.8489 29.5528C93.0174 30.3954 91.5438 31 89.8999 31C87.1981 31 85.3086 29.2412 85.3086 26.8412C85.3086 24.4412 87.1413 22.6824 89.692 22.6824C92.224 22.6824 94 24.5696 94 27.1343V27.4092H87.0657C87.3492 28.71 88.464 29.4977 89.9188 29.4977C91.1281 29.4977 92.1672 29.0215 92.7341 28.4169L93.8489 29.5528Z" fill="#12233D"/>
</svg>
