<svg width="96" height="50" viewBox="0 0 96 50" fill="none" xmlns="http://www.w3.org/2000/svg">
<path d="M43.821 20.6078L43.0781 22.5679H43.4279L43.6095 22.049H44.3822L44.5638 22.5679H44.9271L44.1816 20.6078H43.821ZM43.7017 21.7882L43.9945 20.9454H44.0026L44.2927 21.7882H43.7017Z" fill="#B1B0B1"/>
<path d="M45.1133 20.6073V22.5674H45.4524V21.8152H45.9678C46.1034 21.8152 46.2146 21.796 46.3042 21.7575C46.3882 21.7191 46.4561 21.6669 46.5049 21.6065C46.551 21.5489 46.5836 21.483 46.5998 21.4116C46.6161 21.3403 46.6243 21.2771 46.627 21.214C46.627 21.1536 46.6161 21.0877 46.5998 21.0163C46.5836 20.945 46.551 20.8791 46.5049 20.8187C46.4561 20.7583 46.391 20.7089 46.3042 20.6677C46.2173 20.6293 46.1034 20.6073 45.9678 20.6073H45.1133ZM45.4524 21.5352V20.8873H45.9542C45.9976 20.8873 46.041 20.8928 46.0817 20.901C46.1197 20.912 46.155 20.9285 46.1875 20.9532C46.2173 20.9779 46.2418 21.0108 46.2608 21.052C46.277 21.0959 46.2852 21.1481 46.2879 21.2112C46.2879 21.2744 46.277 21.3265 46.2553 21.3677C46.2336 21.4089 46.2065 21.4418 46.1739 21.4665C46.1414 21.4913 46.1034 21.5077 46.0654 21.5187C46.0247 21.5297 45.9868 21.5352 45.9488 21.5352H45.4524Z" fill="#B1B0B1"/>
<path d="M47.2419 20.6073L46.499 22.5674H46.8488L47.0304 22.0485H47.8031L47.9847 22.5674H48.348L47.6025 20.6073H47.2419ZM47.1226 21.7877L47.4154 20.945H47.4235L47.7136 21.7877H47.1226Z" fill="#B1B0B1"/>
<path d="M49.8405 21.2303H50.1794C50.1685 21.1259 50.1387 21.0299 50.0953 20.9475C50.0492 20.8651 49.9896 20.7965 49.9164 20.7389C49.8432 20.6812 49.7591 20.6373 49.6642 20.6071C49.5666 20.5769 49.4663 20.5604 49.3579 20.5604C49.2115 20.5604 49.0813 20.5879 48.9675 20.6428C48.8536 20.6977 48.756 20.7718 48.6774 20.8651C48.596 20.9585 48.5364 21.0683 48.493 21.1918C48.4496 21.3181 48.4307 21.4499 48.4307 21.5871C48.4307 21.7299 48.4496 21.8616 48.493 21.9852C48.5364 22.1115 48.596 22.2185 48.6774 22.3119C48.756 22.4052 48.8536 22.4793 48.9675 22.5342C49.0813 22.5891 49.2115 22.6138 49.3579 22.6138C49.4745 22.6138 49.5829 22.5946 49.6805 22.5562C49.7781 22.5177 49.8622 22.4656 49.9354 22.3942C50.0058 22.3228 50.0628 22.2405 50.1062 22.1417C50.1495 22.0456 50.1739 21.9385 50.1821 21.8205H49.8513C49.8432 21.8918 49.8269 21.9605 49.8052 22.0209C49.7808 22.084 49.7483 22.1389 49.7076 22.1856C49.6642 22.2322 49.6154 22.2679 49.5585 22.2954C49.4989 22.3228 49.4338 22.3338 49.3579 22.3338C49.2549 22.3338 49.1654 22.3146 49.0895 22.2707C49.0136 22.2295 48.9539 22.1746 48.9078 22.1032C48.859 22.0318 48.8238 21.9522 48.8021 21.8616C48.7804 21.7738 48.7696 21.6832 48.7696 21.5871C48.7668 21.4965 48.7804 21.4032 48.8021 21.3126C48.8238 21.2248 48.859 21.1452 48.9078 21.0738C48.9539 21.0024 49.0136 20.9475 49.0895 20.9036C49.1654 20.8624 49.2521 20.8432 49.3579 20.8404C49.4257 20.8404 49.488 20.8514 49.5422 20.8706C49.5965 20.8898 49.6425 20.9173 49.6832 20.9502C49.7212 20.9859 49.7537 21.0271 49.7808 21.0738C49.8052 21.1232 49.8242 21.1753 49.8405 21.2303Z" fill="#B1B0B1"/>
<path d="M50.4854 20.6073V22.5674H50.8244V21.6834H51.7061V22.5674H52.0451V20.6073H51.7061V21.3869H50.8244V20.6073H50.4854Z" fill="#B1B0B1"/>
<path d="M52.4531 20.6073V22.5674H53.8664V22.2709H52.7922V21.6971H53.7688V21.4171H52.7922V20.9038H53.8474V20.6073H52.4531Z" fill="#B1B0B1"/>
<path d="M47.2744 25.3818C47.2266 25.1747 47.1469 24.9906 47.0353 24.8219C46.9238 24.6532 46.7963 24.5152 46.6369 24.4001C46.4775 24.2928 46.3102 24.2084 46.1189 24.1471C45.9277 24.0857 45.7364 24.055 45.5292 24.055C45.1467 24.055 44.828 24.124 44.557 24.2621C44.2861 24.4001 44.063 24.5842 43.8877 24.8143C43.7123 25.0443 43.5848 25.2974 43.5052 25.5811C43.4255 25.8726 43.3856 26.164 43.3856 26.4631C43.3856 26.7622 43.4255 27.0536 43.5052 27.345C43.5848 27.6364 43.7123 27.8895 43.8877 28.1196C44.063 28.3496 44.2861 28.526 44.557 28.664C44.828 28.8021 45.1467 28.8711 45.5292 28.8711C45.7922 28.8711 46.0313 28.8251 46.2464 28.7331C46.4536 28.6487 46.6369 28.5183 46.7963 28.3573C46.9477 28.2039 47.0672 28.0199 47.1708 27.8051C47.2585 27.5904 47.3222 27.3603 47.3541 27.1149H47.896C47.8561 27.4524 47.7764 27.7591 47.6489 28.0275C47.5214 28.3036 47.3541 28.5337 47.1549 28.7177C46.9477 28.9095 46.7086 29.0552 46.4377 29.1549C46.1667 29.2622 45.8639 29.3082 45.5292 29.3082C45.083 29.3082 44.6845 29.2315 44.3498 29.0782C44.0152 28.9248 43.7363 28.7101 43.5131 28.4493C43.29 28.1886 43.1227 27.8895 43.0111 27.5444C42.8995 27.207 42.8438 26.8465 42.8438 26.4631C42.8438 26.0873 42.8995 25.7269 43.0111 25.3818C43.1227 25.0443 43.29 24.7376 43.5131 24.4768C43.7283 24.2161 44.0152 24.0013 44.3498 23.848C44.6845 23.6946 45.083 23.6179 45.5292 23.6102C45.8002 23.6102 46.0631 23.6486 46.3181 23.7253C46.5731 23.802 46.8122 23.917 47.0194 24.0704C47.2266 24.2237 47.4019 24.4078 47.5453 24.6225C47.6888 24.8449 47.7764 25.098 47.8163 25.3818H47.2744Z" fill="#B1B0B1"/>
<path d="M48.9569 26.4636C48.9569 26.7626 48.9968 27.0541 49.0764 27.3455C49.1561 27.6369 49.2836 27.89 49.4589 28.12C49.6343 28.3501 49.8574 28.5265 50.1283 28.6645C50.3993 28.8026 50.718 28.8716 51.1005 28.8716C51.475 28.8716 51.7938 28.8026 52.0647 28.6645C52.3357 28.5265 52.5508 28.3501 52.7261 28.12C52.9015 27.89 53.029 27.6369 53.1087 27.3455C53.1883 27.0541 53.2282 26.7626 53.2361 26.4636C53.2361 26.1645 53.1883 25.8731 53.1087 25.5816C53.029 25.2979 52.9015 25.0448 52.7261 24.8147C52.5508 24.5847 52.3357 24.4006 52.0647 24.2626C51.7938 24.1245 51.475 24.0555 51.1005 24.0555C50.718 24.0555 50.3993 24.1245 50.1283 24.2626C49.8574 24.4006 49.6343 24.5847 49.4589 24.8147C49.2836 25.0448 49.1561 25.2979 49.0764 25.5816C48.9968 25.8731 48.9569 26.1645 48.9569 26.4636ZM48.415 26.4636C48.415 26.0878 48.4708 25.7273 48.5824 25.3822C48.6939 25.0448 48.8613 24.738 49.0844 24.4773C49.2996 24.2166 49.5864 24.0018 49.9211 23.8485C50.2558 23.6951 50.6543 23.6184 51.1005 23.6107C51.5468 23.6107 51.9372 23.6951 52.2719 23.8485C52.6066 24.0018 52.8855 24.2166 53.1087 24.4773C53.3318 24.738 53.4991 25.0448 53.6107 25.3822C53.7222 25.7273 53.778 26.0878 53.778 26.4636C53.778 26.847 53.7222 27.2074 53.6107 27.5449C53.4991 27.89 53.3318 28.1891 53.1087 28.4498C52.8855 28.7106 52.6066 28.9253 52.2719 29.0787C51.9372 29.232 51.5468 29.3087 51.1005 29.3087C50.6543 29.3087 50.2558 29.232 49.9211 29.0787C49.5864 28.9253 49.3075 28.7106 49.0844 28.4498C48.8613 28.1891 48.6939 27.89 48.5824 27.5449C48.4708 27.2074 48.415 26.847 48.415 26.4636Z" fill="#B1B0B1"/>
<path d="M55.1591 26.3252H57.1831C57.3425 26.3252 57.5019 26.3022 57.6533 26.2562C57.7967 26.2102 57.9242 26.1335 58.0438 26.0415C58.1474 25.9495 58.243 25.8421 58.3067 25.7117C58.3705 25.5813 58.4024 25.428 58.4103 25.2592C58.4103 24.9295 58.3067 24.6611 58.1075 24.4617C57.9003 24.27 57.5975 24.1779 57.1831 24.1703H55.1591V26.3252ZM54.6172 23.7255H57.223C57.4541 23.7255 57.6772 23.7561 57.8844 23.8098C58.0916 23.8712 58.2749 23.9555 58.4342 24.0706C58.5936 24.1856 58.7131 24.3313 58.8088 24.5154C58.9044 24.6994 58.9522 24.9065 58.9522 25.1519C58.9522 25.5047 58.8566 25.8037 58.6733 26.0568C58.482 26.3176 58.2111 26.4786 57.8445 26.5476V26.563C58.0278 26.5936 58.1792 26.6397 58.3067 26.7087C58.4263 26.7777 58.5219 26.8621 58.6016 26.9694C58.6813 27.0768 58.737 27.2072 58.7689 27.3452C58.8008 27.4832 58.8247 27.6366 58.8406 27.7977C58.8406 27.8897 58.8486 28.0047 58.8566 28.1351C58.8566 28.2731 58.8725 28.4035 58.8885 28.5415C58.8964 28.6796 58.9283 28.8023 58.9602 28.925C58.992 29.0477 59.0399 29.1397 59.1036 29.2011H58.506C58.4741 29.1551 58.4422 29.0937 58.4263 29.017C58.4103 28.9403 58.3944 28.8636 58.3864 28.787C58.3785 28.7103 58.3705 28.6259 58.3705 28.5492C58.3625 28.4725 58.3545 28.4112 58.3545 28.3498C58.3386 28.1581 58.3227 27.9664 58.2988 27.7747C58.2749 27.5829 58.227 27.4142 58.1474 27.2608C58.0677 27.1075 57.9561 26.9924 57.8127 26.8927C57.6692 26.8084 57.47 26.7624 57.215 26.77H55.1591V29.2011H54.6172V23.7255Z" fill="#B1B0B1"/>
<path d="M59.9404 23.7255H61.9087C62.7693 23.7485 63.4228 23.9862 63.8611 24.431C64.2994 24.8758 64.5225 25.5583 64.5225 26.4633C64.5225 27.3759 64.2994 28.0584 63.8611 28.5032C63.4228 28.948 62.7693 29.1857 61.9087 29.2011H59.9404V23.7255ZM60.4823 28.7563H61.6378C62.0442 28.7563 62.3948 28.7179 62.6897 28.6336C62.9845 28.5492 63.2315 28.4112 63.4228 28.2271C63.6061 28.0431 63.7495 27.8053 63.8451 27.5139C63.9328 27.2225 63.9726 26.8774 63.9806 26.4633C63.9806 26.0568 63.9328 25.704 63.8451 25.4126C63.7495 25.1212 63.614 24.8835 63.4228 24.6994C63.2315 24.5154 62.9845 24.385 62.6897 24.3006C62.3948 24.2163 62.0442 24.1703 61.6378 24.1703H60.4823V28.7563Z" fill="#B1B0B1"/>
<path d="M65.6415 26.4636C65.6415 26.7626 65.6813 27.0541 65.761 27.3455C65.8407 27.6369 65.9682 27.89 66.1435 28.12C66.3188 28.3501 66.542 28.5265 66.8129 28.6645C67.0838 28.8026 67.4026 28.8716 67.7851 28.8716C68.1596 28.8716 68.4784 28.8026 68.7493 28.6645C69.0203 28.5265 69.2354 28.3501 69.4107 28.12C69.586 27.89 69.7135 27.6369 69.7932 27.3455C69.8729 27.0541 69.9128 26.7626 69.9207 26.4636C69.9207 26.1645 69.8729 25.8731 69.7932 25.5816C69.7135 25.2979 69.586 25.0448 69.4107 24.8147C69.2354 24.5847 69.0203 24.4006 68.7493 24.2626C68.4784 24.1245 68.1596 24.0555 67.7851 24.0555C67.4026 24.0555 67.0838 24.1245 66.8129 24.2626C66.542 24.4006 66.3188 24.5847 66.1435 24.8147C65.9682 25.0448 65.8407 25.2979 65.761 25.5816C65.6813 25.8731 65.6415 26.1645 65.6415 26.4636ZM65.0996 26.4636C65.0996 26.0878 65.1554 25.7273 65.267 25.3822C65.3785 25.0448 65.5459 24.738 65.769 24.4773C65.9841 24.2166 66.271 24.0018 66.6057 23.8485C66.9404 23.6951 67.3388 23.6184 67.7851 23.6107C68.2313 23.6107 68.6218 23.6951 68.9565 23.8485C69.2912 24.0018 69.5701 24.2166 69.7932 24.4773C70.0163 24.738 70.1837 25.0448 70.2953 25.3822C70.4068 25.7273 70.4626 26.0878 70.4626 26.4636C70.4626 26.847 70.4068 27.2074 70.2953 27.5449C70.1837 27.89 70.0163 28.1891 69.7932 28.4498C69.5701 28.7106 69.2912 28.9253 68.9565 29.0787C68.6218 29.232 68.2313 29.3087 67.7851 29.3087C67.3388 29.3087 66.9404 29.232 66.6057 29.0787C66.271 28.9253 65.9921 28.7106 65.769 28.4498C65.5459 28.1891 65.3785 27.89 65.267 27.5449C65.1554 27.2074 65.0996 26.847 65.0996 26.4636Z" fill="#B1B0B1"/>
<path d="M70.6797 23.7255H71.2534L73.1022 28.6259H73.1181L74.951 23.7255H75.5247L73.413 29.2011H72.7834L70.6797 23.7255Z" fill="#B1B0B1"/>
<path d="M76.403 27.0538H78.6422L77.5425 24.247L76.403 27.0538ZM77.2636 23.7255H77.8692L80.1005 29.2011H79.5188L78.8255 27.4986H76.2356L75.5503 29.2011H74.9766L77.2636 23.7255Z" fill="#B1B0B1"/>
<path d="M79.5039 23.5989V23.7936H79.9066V24.8863H80.1293V23.7936H80.5338V23.5989H79.5039Z" fill="#B1B0B1"/>
<path d="M80.6807 23.5984V24.8858H80.8927V23.8923H80.8963L81.249 24.8858H81.4326L81.7853 23.8923H81.7889V24.8858H82.0009V23.5984H81.6909L81.3488 24.6063H81.3453L80.9942 23.5984H80.6807H80.6807Z" fill="#B1B0B1"/>
<path fill-rule="evenodd" clip-rule="evenodd" d="M19.6619 13L14 22.1334L16.3168 37H20.2997L19.9743 33.5469H22.0179L22.2781 37H30.6216L30.8818 33.5469H32.9124L32.587 37H36.5959L38.8867 22.1334L33.2247 13H19.6619ZM20.8074 17.5469H24.4128L24.2177 19.2602H28.6952L28.4609 17.5469H32.1314L34.3702 22.1334L33.2638 31.3064H19.6619L18.5166 22.1334L20.8074 17.5469Z" fill="#B1B0B1"/>
<path d="M30.1314 28.2413C30.4391 28.2413 30.6885 27.2968 30.6885 26.1317C30.6885 24.9667 30.4391 24.0222 30.1314 24.0222C29.8237 24.0222 29.5742 24.9667 29.5742 26.1317C29.5742 27.2968 29.8237 28.2413 30.1314 28.2413Z" fill="#B1B0B1"/>
<path d="M22.9878 28.4088C23.2955 28.4088 23.545 27.4643 23.545 26.2992C23.545 25.1342 23.2955 24.1897 22.9878 24.1897C22.6801 24.1897 22.4307 25.1342 22.4307 26.2992C22.4307 27.4643 22.6801 28.4088 22.9878 28.4088Z" fill="#B1B0B1"/>
</svg>
