<svg width="96" height="50" viewBox="0 0 96 50" fill="none" xmlns="http://www.w3.org/2000/svg">
<path d="M43.821 20.6079L43.0781 22.568H43.4279L43.6095 22.0491H44.3822L44.5638 22.568H44.9271L44.1816 20.6079H43.821ZM43.7017 21.7883L43.9945 20.9456H44.0026L44.2927 21.7883H43.7017Z" fill="#12233D"/>
<path d="M45.1133 20.6074V22.5675H45.4524V21.8153H45.9678C46.1034 21.8153 46.2146 21.7961 46.3042 21.7577C46.3882 21.7192 46.4561 21.6671 46.5049 21.6067C46.551 21.549 46.5836 21.4831 46.5998 21.4118C46.6161 21.3404 46.6243 21.2772 46.627 21.2141C46.627 21.1537 46.6161 21.0878 46.5998 21.0165C46.5836 20.9451 46.551 20.8792 46.5049 20.8188C46.4561 20.7584 46.391 20.709 46.3042 20.6678C46.2173 20.6294 46.1034 20.6074 45.9678 20.6074H45.1133ZM45.4524 21.5353V20.8874H45.9542C45.9976 20.8874 46.041 20.8929 46.0817 20.9012C46.1197 20.9121 46.155 20.9286 46.1875 20.9533C46.2173 20.978 46.2418 21.011 46.2608 21.0521C46.277 21.0961 46.2852 21.1482 46.2879 21.2114C46.2879 21.2745 46.277 21.3267 46.2553 21.3678C46.2336 21.409 46.2065 21.442 46.1739 21.4667C46.1414 21.4914 46.1034 21.5078 46.0654 21.5188C46.0247 21.5298 45.9868 21.5353 45.9488 21.5353H45.4524Z" fill="#12233D"/>
<path d="M47.2419 20.6074L46.499 22.5675H46.8488L47.0304 22.0486H47.8031L47.9847 22.5675H48.348L47.6025 20.6074H47.2419ZM47.1226 21.7879L47.4154 20.9451H47.4235L47.7136 21.7879H47.1226Z" fill="#12233D"/>
<path d="M49.8405 21.2304H50.1794C50.1685 21.1261 50.1387 21.03 50.0953 20.9476C50.0492 20.8653 49.9896 20.7966 49.9164 20.739C49.8432 20.6813 49.7591 20.6374 49.6642 20.6072C49.5666 20.577 49.4663 20.5605 49.3579 20.5605C49.2115 20.5605 49.0813 20.588 48.9675 20.6429C48.8536 20.6978 48.756 20.7719 48.6774 20.8653C48.596 20.9586 48.5364 21.0684 48.493 21.1919C48.4496 21.3182 48.4307 21.45 48.4307 21.5872C48.4307 21.73 48.4496 21.8618 48.493 21.9853C48.5364 22.1116 48.596 22.2186 48.6774 22.312C48.756 22.4053 48.8536 22.4794 48.9675 22.5343C49.0813 22.5892 49.2115 22.614 49.3579 22.614C49.4745 22.614 49.5829 22.5947 49.6805 22.5563C49.7781 22.5179 49.8622 22.4657 49.9354 22.3943C50.0058 22.323 50.0628 22.2406 50.1062 22.1418C50.1495 22.0457 50.1739 21.9386 50.1821 21.8206H49.8513C49.8432 21.892 49.8269 21.9606 49.8052 22.021C49.7808 22.0841 49.7483 22.139 49.7076 22.1857C49.6642 22.2324 49.6154 22.2681 49.5585 22.2955C49.4989 22.323 49.4338 22.3339 49.3579 22.3339C49.2549 22.3339 49.1654 22.3147 49.0895 22.2708C49.0136 22.2296 48.9539 22.1747 48.9078 22.1033C48.859 22.032 48.8238 21.9524 48.8021 21.8618C48.7804 21.7739 48.7696 21.6833 48.7696 21.5872C48.7668 21.4967 48.7804 21.4033 48.8021 21.3127C48.8238 21.2249 48.859 21.1453 48.9078 21.0739C48.9539 21.0025 49.0136 20.9476 49.0895 20.9037C49.1654 20.8625 49.2521 20.8433 49.3579 20.8406C49.4257 20.8406 49.488 20.8515 49.5422 20.8708C49.5965 20.89 49.6425 20.9174 49.6832 20.9504C49.7212 20.9861 49.7537 21.0272 49.7808 21.0739C49.8052 21.1233 49.8242 21.1755 49.8405 21.2304Z" fill="#12233D"/>
<path d="M50.4854 20.6074V22.5675H50.8244V21.6835H51.7061V22.5675H52.0451V20.6074H51.7061V21.3871H50.8244V20.6074H50.4854Z" fill="#12233D"/>
<path d="M52.4531 20.6074V22.5675H53.8664V22.271H52.7922V21.6973H53.7688V21.4173H52.7922V20.9039H53.8474V20.6074H52.4531Z" fill="#12233D"/>
<path d="M47.2744 25.3819C47.2266 25.1748 47.1469 24.9908 47.0353 24.822C46.9238 24.6533 46.7963 24.5153 46.6369 24.4003C46.4775 24.2929 46.3102 24.2085 46.1189 24.1472C45.9277 24.0858 45.7364 24.0552 45.5292 24.0552C45.1467 24.0552 44.828 24.1242 44.557 24.2622C44.2861 24.4003 44.063 24.5843 43.8877 24.8144C43.7123 25.0444 43.5848 25.2975 43.5052 25.5813C43.4255 25.8727 43.3856 26.1641 43.3856 26.4632C43.3856 26.7623 43.4255 27.0537 43.5052 27.3451C43.5848 27.6365 43.7123 27.8896 43.8877 28.1197C44.063 28.3497 44.2861 28.5261 44.557 28.6642C44.828 28.8022 45.1467 28.8712 45.5292 28.8712C45.7922 28.8712 46.0313 28.8252 46.2464 28.7332C46.4536 28.6488 46.6369 28.5185 46.7963 28.3574C46.9477 28.204 47.0672 28.02 47.1708 27.8053C47.2585 27.5905 47.3222 27.3605 47.3541 27.115H47.896C47.8561 27.4525 47.7764 27.7592 47.6489 28.0277C47.5214 28.3037 47.3541 28.5338 47.1549 28.7179C46.9477 28.9096 46.7086 29.0553 46.4377 29.155C46.1667 29.2623 45.8639 29.3084 45.5292 29.3084C45.083 29.3084 44.6845 29.2317 44.3498 29.0783C44.0152 28.9249 43.7363 28.7102 43.5131 28.4494C43.29 28.1887 43.1227 27.8896 43.0111 27.5445C42.8995 27.2071 42.8438 26.8466 42.8438 26.4632C42.8438 26.0874 42.8995 25.727 43.0111 25.3819C43.1227 25.0444 43.29 24.7377 43.5131 24.4769C43.7283 24.2162 44.0152 24.0015 44.3498 23.8481C44.6845 23.6947 45.083 23.618 45.5292 23.6104C45.8002 23.6104 46.0631 23.6487 46.3181 23.7254C46.5731 23.8021 46.8122 23.9171 47.0194 24.0705C47.2266 24.2239 47.4019 24.4079 47.5453 24.6226C47.6888 24.845 47.7764 25.0981 47.8163 25.3819H47.2744Z" fill="#12233D"/>
<path d="M48.9569 26.4637C48.9569 26.7628 48.9968 27.0542 49.0764 27.3456C49.1561 27.637 49.2836 27.8901 49.4589 28.1202C49.6343 28.3502 49.8574 28.5266 50.1283 28.6647C50.3993 28.8027 50.718 28.8717 51.1005 28.8717C51.475 28.8717 51.7938 28.8027 52.0647 28.6647C52.3357 28.5266 52.5508 28.3502 52.7261 28.1202C52.9015 27.8901 53.029 27.637 53.1087 27.3456C53.1883 27.0542 53.2282 26.7628 53.2361 26.4637C53.2361 26.1646 53.1883 25.8732 53.1087 25.5818C53.029 25.298 52.9015 25.0449 52.7261 24.8149C52.5508 24.5848 52.3357 24.4007 52.0647 24.2627C51.7938 24.1247 51.475 24.0556 51.1005 24.0556C50.718 24.0556 50.3993 24.1247 50.1283 24.2627C49.8574 24.4007 49.6343 24.5848 49.4589 24.8149C49.2836 25.0449 49.1561 25.298 49.0764 25.5818C48.9968 25.8732 48.9569 26.1646 48.9569 26.4637ZM48.415 26.4637C48.415 26.0879 48.4708 25.7275 48.5824 25.3824C48.6939 25.0449 48.8613 24.7382 49.0844 24.4774C49.2996 24.2167 49.5864 24.002 49.9211 23.8486C50.2558 23.6952 50.6543 23.6185 51.1005 23.6108C51.5468 23.6108 51.9372 23.6952 52.2719 23.8486C52.6066 24.002 52.8855 24.2167 53.1087 24.4774C53.3318 24.7382 53.4991 25.0449 53.6107 25.3824C53.7222 25.7275 53.778 26.0879 53.778 26.4637C53.778 26.8471 53.7222 27.2076 53.6107 27.545C53.4991 27.8901 53.3318 28.1892 53.1087 28.4499C52.8855 28.7107 52.6066 28.9254 52.2719 29.0788C51.9372 29.2322 51.5468 29.3088 51.1005 29.3088C50.6543 29.3088 50.2558 29.2322 49.9211 29.0788C49.5864 28.9254 49.3075 28.7107 49.0844 28.4499C48.8613 28.1892 48.6939 27.8901 48.5824 27.545C48.4708 27.2076 48.415 26.8471 48.415 26.4637Z" fill="#12233D"/>
<path d="M55.1591 26.3254H57.1831C57.3425 26.3254 57.5019 26.3023 57.6533 26.2563C57.7967 26.2103 57.9242 26.1336 58.0438 26.0416C58.1474 25.9496 58.243 25.8422 58.3067 25.7118C58.3705 25.5815 58.4024 25.4281 58.4103 25.2594C58.4103 24.9296 58.3067 24.6612 58.1075 24.4618C57.9003 24.2701 57.5975 24.1781 57.1831 24.1704H55.1591V26.3254ZM54.6172 23.7256H57.223C57.4541 23.7256 57.6772 23.7563 57.8844 23.8099C58.0916 23.8713 58.2749 23.9557 58.4342 24.0707C58.5936 24.1857 58.7131 24.3314 58.8088 24.5155C58.9044 24.6995 58.9522 24.9066 58.9522 25.152C58.9522 25.5048 58.8566 25.8039 58.6733 26.0569C58.482 26.3177 58.2111 26.4787 57.8445 26.5477V26.5631C58.0278 26.5938 58.1792 26.6398 58.3067 26.7088C58.4263 26.7778 58.5219 26.8622 58.6016 26.9695C58.6813 27.0769 58.737 27.2073 58.7689 27.3453C58.8008 27.4834 58.8247 27.6367 58.8406 27.7978C58.8406 27.8898 58.8486 28.0048 58.8566 28.1352C58.8566 28.2733 58.8725 28.4036 58.8885 28.5417C58.8964 28.6797 58.9283 28.8024 58.9602 28.9251C58.992 29.0478 59.0399 29.1398 59.1036 29.2012H58.506C58.4741 29.1552 58.4422 29.0938 58.4263 29.0171C58.4103 28.9405 58.3944 28.8638 58.3864 28.7871C58.3785 28.7104 58.3705 28.626 58.3705 28.5493C58.3625 28.4726 58.3545 28.4113 58.3545 28.3499C58.3386 28.1582 58.3227 27.9665 58.2988 27.7748C58.2749 27.5831 58.227 27.4143 58.1474 27.261C58.0677 27.1076 57.9561 26.9925 57.8127 26.8929C57.6692 26.8085 57.47 26.7625 57.215 26.7701H55.1591V29.2012H54.6172V23.7256Z" fill="#12233D"/>
<path d="M59.9404 23.7256H61.9087C62.7693 23.7486 63.4228 23.9863 63.8611 24.4311C64.2994 24.8759 64.5225 25.5585 64.5225 26.4634C64.5225 27.376 64.2994 28.0585 63.8611 28.5033C63.4228 28.9481 62.7693 29.1859 61.9087 29.2012H59.9404V23.7256ZM60.4823 28.7564H61.6378C62.0442 28.7564 62.3948 28.7181 62.6897 28.6337C62.9845 28.5493 63.2315 28.4113 63.4228 28.2272C63.6061 28.0432 63.7495 27.8055 63.8451 27.514C63.9328 27.2226 63.9726 26.8775 63.9806 26.4634C63.9806 26.0569 63.9328 25.7042 63.8451 25.4127C63.7495 25.1213 63.614 24.8836 63.4228 24.6995C63.2315 24.5155 62.9845 24.3851 62.6897 24.3008C62.3948 24.2164 62.0442 24.1704 61.6378 24.1704H60.4823V28.7564Z" fill="#12233D"/>
<path d="M65.6415 26.4637C65.6415 26.7628 65.6813 27.0542 65.761 27.3456C65.8407 27.637 65.9682 27.8901 66.1435 28.1202C66.3188 28.3502 66.542 28.5266 66.8129 28.6647C67.0838 28.8027 67.4026 28.8717 67.7851 28.8717C68.1596 28.8717 68.4784 28.8027 68.7493 28.6647C69.0203 28.5266 69.2354 28.3502 69.4107 28.1202C69.586 27.8901 69.7135 27.637 69.7932 27.3456C69.8729 27.0542 69.9128 26.7628 69.9207 26.4637C69.9207 26.1646 69.8729 25.8732 69.7932 25.5818C69.7135 25.298 69.586 25.0449 69.4107 24.8149C69.2354 24.5848 69.0203 24.4007 68.7493 24.2627C68.4784 24.1247 68.1596 24.0556 67.7851 24.0556C67.4026 24.0556 67.0838 24.1247 66.8129 24.2627C66.542 24.4007 66.3188 24.5848 66.1435 24.8149C65.9682 25.0449 65.8407 25.298 65.761 25.5818C65.6813 25.8732 65.6415 26.1646 65.6415 26.4637ZM65.0996 26.4637C65.0996 26.0879 65.1554 25.7275 65.267 25.3824C65.3785 25.0449 65.5459 24.7382 65.769 24.4774C65.9841 24.2167 66.271 24.002 66.6057 23.8486C66.9404 23.6952 67.3388 23.6185 67.7851 23.6108C68.2313 23.6108 68.6218 23.6952 68.9565 23.8486C69.2912 24.002 69.5701 24.2167 69.7932 24.4774C70.0163 24.7382 70.1837 25.0449 70.2953 25.3824C70.4068 25.7275 70.4626 26.0879 70.4626 26.4637C70.4626 26.8471 70.4068 27.2076 70.2953 27.545C70.1837 27.8901 70.0163 28.1892 69.7932 28.4499C69.5701 28.7107 69.2912 28.9254 68.9565 29.0788C68.6218 29.2322 68.2313 29.3088 67.7851 29.3088C67.3388 29.3088 66.9404 29.2322 66.6057 29.0788C66.271 28.9254 65.9921 28.7107 65.769 28.4499C65.5459 28.1892 65.3785 27.8901 65.267 27.545C65.1554 27.2076 65.0996 26.8471 65.0996 26.4637Z" fill="#12233D"/>
<path d="M70.6797 23.7256H71.2534L73.1022 28.626H73.1181L74.951 23.7256H75.5247L73.413 29.2012H72.7834L70.6797 23.7256Z" fill="#12233D"/>
<path d="M76.403 27.0539H78.6422L77.5425 24.2471L76.403 27.0539ZM77.2636 23.7256H77.8692L80.1005 29.2012H79.5188L78.8255 27.4987H76.2356L75.5503 29.2012H74.9766L77.2636 23.7256Z" fill="#12233D"/>
<path d="M79.5039 23.5991V23.7939H79.9066V24.8865H80.1293V23.7939H80.5338V23.5991H79.5039Z" fill="#12233D"/>
<path d="M80.6807 23.5986V24.886H80.8927V23.8925H80.8963L81.249 24.886H81.4326L81.7853 23.8925H81.7889V24.886H82.0009V23.5986H81.6909L81.3488 24.6066H81.3453L80.9942 23.5986H80.6807H80.6807Z" fill="#12233D"/>
<path fill-rule="evenodd" clip-rule="evenodd" d="M19.6619 13L14 22.1334L16.3168 37H20.2997L19.9743 33.5469H22.0179L22.2781 37H30.6216L30.8818 33.5469H32.9124L32.587 37H36.5959L38.8867 22.1334L33.2247 13H19.6619ZM20.8074 17.5469H24.4128L24.2177 19.2602H28.6952L28.4609 17.5469H32.1314L34.3702 22.1334L33.2638 31.3064H19.6619L18.5166 22.1334L20.8074 17.5469Z" fill="#12233D"/>
<path d="M30.1314 28.2413C30.4391 28.2413 30.6885 27.2968 30.6885 26.1317C30.6885 24.9667 30.4391 24.0222 30.1314 24.0222C29.8237 24.0222 29.5742 24.9667 29.5742 26.1317C29.5742 27.2968 29.8237 28.2413 30.1314 28.2413Z" fill="#12233D"/>
<path d="M22.9878 28.4088C23.2955 28.4088 23.545 27.4643 23.545 26.2992C23.545 25.1342 23.2955 24.1897 22.9878 24.1897C22.6801 24.1897 22.4307 25.1342 22.4307 26.2992C22.4307 27.4643 22.6801 28.4088 22.9878 28.4088Z" fill="#12233D"/>
</svg>
