<svg width="166" height="57" viewBox="0 0 166 57" fill="none" xmlns="http://www.w3.org/2000/svg">
<g clip-path="url(#clip0)">
<path d="M57.1281 29.8797C57.1332 27.5577 56.4213 25.2909 55.0899 23.3901C53.7585 21.4893 51.8728 20.0474 49.6913 19.2621C50.1385 16.9225 50.0653 14.5129 49.4768 12.2049C48.8884 9.89683 47.7992 7.74714 46.2867 5.90885C44.7743 4.07057 42.8758 2.5889 40.7265 1.56934C38.5772 0.549781 36.23 0.0174141 33.8519 0.0101434C31.2964 0.00708379 28.7768 0.613026 26.5013 1.77793C24.2258 2.94283 22.2595 4.63326 20.765 6.70963C19.4969 5.72858 17.9797 5.12318 16.3856 4.96213C14.7914 4.80108 13.1841 5.09083 11.746 5.79849C10.3079 6.50615 9.09659 7.60339 8.24955 8.96572C7.4025 10.328 6.9536 11.9009 6.95381 13.5059C6.95737 14.5287 7.13708 15.5433 7.48501 16.5049C5.29594 17.2893 3.40209 18.7317 2.06225 20.6349C0.722415 22.5382 0.00194735 24.8093 -0.000694612 27.1382C-0.00333658 29.467 0.711976 31.7398 2.04749 33.6461C3.38301 35.5523 5.27358 36.999 7.46086 37.7885C6.75814 41.3994 7.30948 45.1425 9.02334 48.3964C10.7372 51.6502 13.5105 54.2191 16.8828 55.6765C20.2552 57.1338 24.0237 57.3921 27.5627 56.4084C31.1018 55.4246 34.1985 53.2581 36.3388 50.2684C37.8289 51.4546 39.6751 52.1023 41.5784 52.1065C43.8515 52.1058 46.0314 51.201 47.6388 49.591C49.2461 47.9809 50.1494 45.7974 50.15 43.5205C50.1465 42.4977 49.9668 41.4831 49.6188 40.5215C51.8073 39.7305 53.7007 38.286 55.0435 36.383C56.3864 34.48 57.114 32.21 57.1281 29.8797Z" fill="white"/>
<path d="M22.4553 24.5576L34.9626 30.2655L47.5666 19.1884C47.7528 18.2732 47.8419 17.3409 47.8322 16.407C47.8343 13.3921 46.8724 10.4557 45.0874 8.0281C43.3025 5.60051 40.7883 3.80932 37.9133 2.91697C35.0382 2.02462 31.9534 2.07801 29.1109 3.06933C26.2683 4.06064 23.8174 5.93777 22.1173 8.42568L20.0166 19.3335L22.4553 24.5576Z" fill="#cecece"/>
<path d="M9.51332 37.8116C9.32704 38.7431 9.23803 39.6915 9.24772 40.6414C9.25141 43.6688 10.2231 46.6155 12.0205 49.0495C13.8178 51.4834 16.3462 53.2767 19.2351 54.1665C22.124 55.0562 25.2215 54.9957 28.0735 53.9937C30.9256 52.9917 33.3822 51.1009 35.0834 48.5985L37.1599 37.7391L34.3831 32.4182L21.8275 26.6862L9.51332 37.8116Z" fill="#9e9e9e"/>
<path d="M9.44086 16.1411L18.0125 18.1727L19.8958 8.42577C18.7331 7.534 17.3127 7.04451 15.8483 7.03093C14.3839 7.01735 12.9548 7.48043 11.7757 8.35049C10.5967 9.22056 9.73159 10.4506 9.31052 11.8555C8.88945 13.2605 8.93519 14.7644 9.44086 16.1411Z" fill="#9a9a9a"/>
<path d="M8.69235 18.1969C6.83783 18.8065 5.21752 19.9769 4.05442 21.5469C2.89133 23.1169 2.24264 25.0095 2.19763 26.9641C2.15262 28.9186 2.7135 30.8391 3.80309 32.4612C4.89267 34.0833 6.45739 35.3273 8.28188 36.0219L20.3063 25.1382L18.1091 20.422L8.69235 18.1969Z" fill="#969696"/>
<path d="M37.2564 48.5984C38.42 49.4794 39.8367 49.9598 41.2953 49.968C42.7538 49.9761 44.1758 49.5116 45.3491 48.6438C46.5224 47.7759 47.3841 46.5513 47.8055 45.1526C48.2269 43.7539 48.1854 42.2563 47.6873 40.8832L39.1398 38.8757L37.2564 48.5984Z" fill="#b5b5b5"/>
<path d="M38.9949 36.6265L48.4116 38.8274C50.2662 38.2178 51.8865 37.0475 53.0496 35.4774C54.2127 33.9074 54.8614 32.0148 54.9064 30.0603C54.9514 28.1057 54.3905 26.1852 53.3009 24.5631C52.2113 22.941 50.6466 21.697 48.8221 21.0024L36.5079 31.8135L38.9949 36.6265Z" fill="#777777"/>
<path d="M79.8731 40.0367L81.008 39.9157L81.0804 42.2376C78.5377 42.6171 75.9727 42.8272 73.4022 42.8664C70.5771 42.8664 68.5731 42.0441 67.3899 40.3994C66.2068 38.7548 65.6273 36.1911 65.6273 32.7325C65.6273 25.8154 68.3719 22.3568 73.8609 22.3568C76.5169 22.3568 78.4969 23.1066 79.8007 24.5819C81.1046 26.0572 81.7565 28.4033 81.7565 31.5716L81.5875 33.8209H68.5972C68.5972 35.9976 68.9835 37.6181 69.7803 38.6581C70.5771 39.6981 71.9293 40.2301 73.8851 40.2301C75.8831 40.2736 77.8821 40.209 79.8731 40.0367ZM78.8107 31.4991C78.8107 29.0805 78.4244 27.3633 77.6518 26.3717C76.8791 25.38 75.6235 24.8721 73.8851 24.8721C72.1466 24.8721 70.8186 25.4042 69.9494 26.4442C69.0801 27.4842 68.6214 29.1772 68.5972 31.4991H78.8107ZM85.8612 42.5036V14.2062H88.807V42.5036H85.8612ZM107.423 28.7419V38.4404C107.423 39.432 109.862 39.6255 109.862 39.6255L109.717 42.2376C107.64 42.2376 105.926 42.4069 104.888 41.4152C102.66 42.4002 100.249 42.9029 97.8132 42.8906C96.0023 42.8906 94.626 42.3827 93.6844 41.3427C92.7427 40.3027 92.2598 38.8516 92.2598 36.9167C92.2598 34.9818 92.7427 33.579 93.7085 32.6842C94.6743 31.7893 96.1955 31.2088 98.272 31.0153L104.453 30.4349V28.7419C104.453 27.4116 104.163 26.4442 103.584 25.8638C103.005 25.2833 102.208 24.9931 101.218 24.9931H93.467V22.381H101.025C103.246 22.381 104.864 22.8889 105.878 23.9289C106.892 24.9689 107.423 26.5651 107.423 28.7419ZM95.3021 36.7716C95.3021 39.1902 96.2921 40.3994 98.2961 40.3994C100.089 40.4032 101.869 40.1006 103.56 39.5046L104.453 39.1902V32.6842L98.6342 33.2404C97.451 33.3372 96.606 33.6758 96.0748 34.2562C95.5436 34.8367 95.3021 35.6832 95.3021 36.7716ZM118.941 25.0172C116.091 25.0172 114.643 26.0089 114.643 28.0163C114.643 28.9354 114.981 29.5884 115.633 29.9753C116.285 30.3623 117.782 30.7493 120.124 31.1605C122.466 31.5716 124.108 32.1279 125.073 32.8776C126.039 33.6274 126.522 34.9818 126.522 37.0134C126.522 39.045 125.87 40.5204 124.566 41.4636C123.263 42.4069 121.379 42.8906 118.868 42.8906C117.25 42.8906 111.818 42.2859 111.818 42.2859L111.987 39.7222C115.101 40.0125 117.371 40.2543 118.892 40.2543C120.413 40.2543 121.572 40.0125 122.369 39.5288C123.166 39.045 123.576 38.2227 123.576 37.086C123.576 35.9492 123.238 35.1753 122.562 34.7641C121.886 34.353 120.389 33.966 118.071 33.6032C115.753 33.2404 114.111 32.7083 113.146 31.9828C112.18 31.2572 111.697 29.9512 111.697 28.0405C111.697 26.1298 112.373 24.7028 113.725 23.7838C115.077 22.8647 116.767 22.4052 118.771 22.4052C120.365 22.4052 125.919 22.8163 125.919 22.8163V25.4042C122.997 25.2349 120.607 25.0172 118.941 25.0172ZM140.768 25.3559H134.514V34.7883C134.514 37.0376 134.683 38.5371 134.997 39.2385C135.311 39.9399 136.108 40.3027 137.339 40.3027L140.84 40.0608L141.034 42.5036C139.71 42.7492 138.371 42.8948 137.025 42.939C134.973 42.939 133.573 42.4311 132.776 41.4394C131.979 40.4478 131.593 38.5371 131.593 35.7316V25.3559H128.792V22.7921H131.593V16.7457H134.514V22.768H140.768V25.3559ZM144.873 18.3178V14.9076H147.819V18.342L144.873 18.3178ZM144.873 42.5036V22.7921H147.819V42.5036H144.873ZM160.616 22.381C161.485 22.381 162.958 22.5503 165.034 22.8647L165.976 22.9856L165.855 25.38C164.317 25.1796 162.77 25.0585 161.219 25.0172C158.998 25.0172 157.477 25.5493 156.68 26.6135C155.883 27.6777 155.473 29.6609 155.473 32.539C155.473 35.4172 155.835 37.4246 156.583 38.5613C157.332 39.6981 158.877 40.2543 161.243 40.2543L165.879 39.8915L166 42.3343C163.561 42.6971 161.726 42.8906 160.519 42.8906C157.453 42.8906 155.328 42.0925 154.169 40.5204C153.01 38.9483 152.406 36.2878 152.406 32.539C152.406 28.7902 153.034 26.154 154.289 24.6545C155.545 23.1549 157.67 22.381 160.616 22.381Z" fill="#979797"/>
</g>
<defs>
<clipPath id="clip0">
<rect width="166" height="57" fill="white"/>
</clipPath>
</defs>
</svg>
