<svg width="96" height="50" viewBox="0 0 96 50" fill="none" xmlns="http://www.w3.org/2000/svg">
<path d="M41.1703 11.887C35.079 10.7922 30.263 11.9381 28.3435 15.2191C26.9112 17.6674 27.3206 20.9136 29.3365 24.3834C29.3766 24.4549 29.4307 24.5178 29.4957 24.5685C29.5607 24.6192 29.6353 24.6567 29.715 24.6787C29.7948 24.7007 29.8782 24.7068 29.9604 24.6967C30.0426 24.6866 30.122 24.6604 30.1938 24.6198C30.2657 24.5791 30.3287 24.5247 30.379 24.4599C30.4294 24.395 30.4662 24.3208 30.4873 24.2418C30.5084 24.1627 30.5133 24.0803 30.5018 23.9993C30.4903 23.9184 30.4626 23.8405 30.4203 23.7702C28.6044 20.6445 28.2509 17.8429 29.4254 15.8355C31.0199 13.11 35.3157 12.0879 40.9464 13.0999C41.0275 13.1155 41.111 13.1151 41.192 13.0986C41.273 13.0822 41.3498 13.05 41.4181 13.004C41.4864 12.958 41.5448 12.8991 41.5898 12.8306C41.6348 12.7622 41.6657 12.6856 41.6805 12.6053C41.6953 12.5251 41.6938 12.4427 41.6761 12.363C41.6584 12.2833 41.6249 12.2078 41.5774 12.141C41.53 12.0742 41.4695 12.0173 41.3997 11.9737C41.3298 11.9301 41.2518 11.9007 41.1703 11.887ZM50.1784 6.30341C49.6814 7.25208 48.6781 7.90056 47.5213 7.90056C45.8702 7.90056 44.5318 6.57958 44.5318 4.95028C44.5318 3.32081 45.8705 2 47.5213 2C49.1725 2 50.5108 3.32081 50.5108 4.95028C50.5108 4.99288 50.5098 5.03531 50.5082 5.07742C55.4567 7.60317 58.8953 16.2163 58.8953 26.167C58.8953 30.2597 58.3155 34.187 57.236 37.5915C57.2128 37.6702 57.1739 37.7437 57.1216 37.8074C57.0693 37.8712 57.0047 37.924 56.9314 37.9628C56.8582 38.0016 56.7778 38.0255 56.6951 38.0333C56.6123 38.041 56.5288 38.0324 56.4495 38.0079C56.3702 37.9834 56.2966 37.9435 56.2331 37.8906C56.1696 37.8377 56.1174 37.7728 56.0796 37.6997C56.0419 37.6266 56.0192 37.5469 56.0131 37.4651C56.007 37.3833 56.0174 37.3011 56.0439 37.2233C57.0846 33.9408 57.6462 30.1374 57.6462 26.167C57.6462 16.7973 54.4902 8.73468 50.1786 6.30341H50.1784ZM28.7661 34.0454C28.8404 34.04 28.915 34.0372 28.9895 34.0371C30.6406 34.0371 31.979 35.3583 31.979 36.9876C31.979 38.6171 30.6405 39.9377 28.9895 39.9377C27.3384 39.9377 26 38.6169 26 36.9876C26 35.8783 26.6203 34.9122 27.5371 34.4083C27.0869 28.8941 32.9596 21.5027 41.8346 16.446C45.5208 14.3456 49.3592 12.8548 52.9654 12.0922C53.1274 12.058 53.2965 12.0887 53.4356 12.1775C53.5747 12.2663 53.6723 12.406 53.707 12.5659C53.7417 12.7258 53.7107 12.8927 53.6207 13.03C53.5306 13.1672 53.3891 13.2636 53.2271 13.2978C49.7518 14.0327 46.0351 15.4762 42.4591 17.5137C34.1011 22.2758 28.5748 29.1395 28.7663 34.0454H28.7661ZM63.4113 38.4458C63.1548 38.0016 63.0202 37.4989 63.021 36.9876C63.021 35.3581 64.3595 34.0373 66.0105 34.0373C67.6616 34.0373 69 35.3581 69 36.9876C69 38.6171 67.6616 39.9377 66.0105 39.9377C65.3848 39.9387 64.7748 39.7451 64.267 39.3844C59.498 42.1531 50.3886 40.741 41.8163 35.8566C38.167 33.7774 34.9672 31.272 32.5043 28.6011C32.3958 28.4797 32.3401 28.3211 32.3491 28.1595C32.3581 27.998 32.4311 27.8464 32.5523 27.7375C32.6736 27.6285 32.8334 27.571 32.9972 27.5774C33.1611 27.5837 33.3158 27.6533 33.4281 27.7712C35.8022 30.3459 38.9007 32.7719 42.4408 34.7889C50.531 39.3985 59.0505 40.7703 63.4112 38.4458H63.4113ZM63.2155 27.8511C63.1074 27.9725 62.9555 28.0471 62.7922 28.059C62.629 28.0709 62.4676 28.0191 62.3426 27.9147C62.2177 27.8104 62.1393 27.6618 62.1242 27.5009C62.1092 27.3401 62.1587 27.1798 62.2621 27.0546C65.9483 22.757 67.1903 18.5864 65.5991 15.8669C64.4442 13.8926 61.8771 12.7969 58.3157 12.7512C58.2331 12.7509 58.1514 12.7345 58.0753 12.7029C57.9992 12.6713 57.9303 12.6251 57.8723 12.5671C57.8144 12.509 57.7688 12.4402 57.738 12.3646C57.7072 12.289 57.6919 12.2081 57.693 12.1266C57.6941 12.0452 57.7115 11.9647 57.7443 11.89C57.777 11.8152 57.8245 11.7475 57.8839 11.691C57.9433 11.6344 58.0135 11.59 58.0904 11.5604C58.1673 11.5308 58.2494 11.5165 58.332 11.5184C62.2918 11.5693 65.2716 12.8412 66.681 15.2504C68.5965 18.5246 67.2039 23.2013 63.2155 27.8511ZM38.1883 38.7152C38.1365 38.5623 38.1475 38.3954 38.2188 38.2504C38.2902 38.1053 38.4163 37.9937 38.5702 37.9393C38.724 37.8849 38.8933 37.8922 39.0417 37.9596C39.1901 38.0269 39.3059 38.149 39.3643 38.2996C41.2919 43.6115 44.3346 46.7672 47.5213 46.7672C49.8133 46.7672 52.0414 45.147 53.8554 42.1689C53.9408 42.0288 54.0791 41.9278 54.2398 41.8883C54.4006 41.8488 54.5707 41.8739 54.7127 41.9581C54.8547 42.0424 54.9569 42.1788 54.997 42.3375C55.037 42.4961 55.0116 42.664 54.9262 42.8041C52.9076 46.1177 50.3192 48 47.5213 48C43.6851 48 40.2735 44.4619 38.1883 38.7154V38.7152ZM67.7506 36.9874C67.7506 36.0389 66.9714 35.2699 66.0105 35.2699C65.0492 35.2699 64.27 36.0389 64.27 36.9873C64.27 37.9359 65.0494 38.7048 66.0103 38.7048C66.9714 38.7048 67.7505 37.9359 67.7505 36.9874H67.7506ZM28.9893 38.7048C29.9505 38.7048 30.7295 37.9359 30.7295 36.9874C30.7295 36.0389 29.9505 35.2699 28.9893 35.2699C28.0282 35.2699 27.2492 36.0389 27.2492 36.9873C27.2492 37.9359 28.0282 38.7048 28.9893 38.7048ZM47.5213 6.66743C48.4824 6.66743 49.2615 5.89862 49.2615 4.95011C49.2615 4.00161 48.4824 3.23279 47.5213 3.23279C46.5602 3.23279 45.7812 4.00161 45.7812 4.95011C45.7812 5.89862 46.5602 6.66743 47.5213 6.66743ZM47.9779 28.2533C46.8103 28.5023 45.6599 27.7699 45.4071 26.6175C45.1553 25.4651 45.8969 24.33 47.0646 24.0805C48.2322 23.8315 49.3826 24.5637 49.6354 25.7161C49.8877 26.8685 49.1456 28.0037 47.9779 28.2531V28.2533Z" fill="#47848F"/>
</svg>
