<svg width="96" height="50" viewBox="0 0 96 50" fill="none" xmlns="http://www.w3.org/2000/svg">
<path d="M17.4035 30.036V23.1192H26.0186V22.7146H17.4035V16.4045H26.5633V16H17V30.4404H26.6439V30.036H17.4036H17.4035ZM34.4117 20.0449L30.8407 24.7573L27.3501 20.045H26.8255L30.5985 25.0608L26.4623 30.4403H26.9465L30.8404 25.3639L34.7545 30.4403H35.2589L31.1027 25.0605L34.8957 20.0448H34.4116L34.4117 20.0449ZM36.4696 34V27.5282H36.5099C36.7521 28.472 37.2296 29.2304 37.9424 29.8035C38.6553 30.3764 39.5632 30.663 40.6661 30.663C41.379 30.663 42.0112 30.5181 42.5626 30.2282C43.1141 29.9384 43.5748 29.544 43.9447 29.0451C44.3145 28.5462 44.597 27.9664 44.7921 27.3057C44.9871 26.6451 45.0847 25.9506 45.0847 25.2227C45.0847 24.4406 44.9837 23.7192 44.7819 23.0586C44.5802 22.3979 44.2876 21.8248 43.9044 21.3395C43.521 20.8541 43.057 20.4764 42.5122 20.2069C41.9675 19.9372 41.3521 19.8024 40.6661 19.8024C40.1415 19.8024 39.654 19.8799 39.2034 20.0349C38.7528 20.1901 38.3527 20.409 38.003 20.6922C37.6512 20.9776 37.345 21.3152 37.095 21.6933C36.8395 22.0776 36.6444 22.499 36.5099 22.9575H36.4696V20.0449H36.0661V34H36.4696ZM40.6661 30.2786C39.4019 30.2786 38.3862 29.8438 37.6196 28.9742C36.853 28.1046 36.4696 26.8539 36.4696 25.2224C36.4696 24.5483 36.5638 23.9078 36.7521 23.3011C36.9404 22.6944 37.2127 22.1618 37.5691 21.7034C37.9256 21.2449 38.3661 20.8809 38.8906 20.6113C39.4152 20.3416 40.0071 20.2067 40.6661 20.2067C41.3386 20.2067 41.9271 20.3416 42.4315 20.6113C42.9359 20.8809 43.3529 21.2483 43.6824 21.7135C44.0119 22.1786 44.2607 22.7113 44.4289 23.3112C44.597 23.9112 44.6811 24.5483 44.6811 25.2224C44.6811 25.8293 44.6038 26.4327 44.449 27.0326C44.2944 27.6326 44.0556 28.1719 43.7328 28.6507C43.4101 29.1292 42.9965 29.5202 42.4921 29.8236C41.9876 30.127 41.379 30.2786 40.6661 30.2786ZM47.304 30.4404V24.5551C47.304 23.9888 47.3846 23.4359 47.5461 22.8967C47.7074 22.3573 47.9563 21.882 48.2926 21.4708C48.6288 21.0596 49.0558 20.7359 49.5737 20.5C50.0915 20.264 50.7069 20.1663 51.4198 20.2067V19.8022C50.801 19.7889 50.2597 19.8561 49.7957 20.0045C49.3315 20.1528 48.9315 20.355 48.5952 20.6113C48.2589 20.8674 47.99 21.1674 47.7882 21.5113C47.5866 21.8546 47.437 22.226 47.3443 22.6135H47.304V20.0449H46.9005V30.4405H47.304V30.4404ZM51.9242 25.3236H60.5997C60.6267 24.6089 60.5561 23.9214 60.3879 23.2607C60.2198 22.6 59.9507 22.0134 59.5809 21.5012C59.211 20.9888 58.7335 20.5775 58.1484 20.2674C57.5633 19.9572 56.8672 19.8022 56.0602 19.8022C55.4818 19.8022 54.9169 19.9236 54.3654 20.1664C53.814 20.409 53.3297 20.7629 52.9128 21.2281C52.4958 21.6932 52.1596 22.2629 51.9041 22.9372C51.6486 23.6113 51.5207 24.3798 51.5207 25.2427C51.5207 26.0112 51.6081 26.7292 51.783 27.3966C51.9578 28.064 52.2268 28.6439 52.5899 29.136C52.9532 29.6281 53.4206 30.009 53.9922 30.2786C54.5638 30.5483 55.2532 30.6764 56.0602 30.6629C57.2438 30.6629 58.2392 30.3291 59.0462 29.6618C59.8533 28.9943 60.3307 28.0539 60.4787 26.8404H60.0752C59.9004 27.9866 59.453 28.8461 58.7335 29.4191C58.0138 29.9921 57.1094 30.2786 56.0198 30.2786C55.28 30.2786 54.6546 30.1505 54.1434 29.8944C53.6324 29.6383 53.2154 29.2876 52.8926 28.8427C52.5698 28.3977 52.331 27.8753 52.1764 27.2752C52.0216 26.6753 51.9376 26.0247 51.9242 25.3236ZM60.1962 24.9191H51.9243C51.9645 24.191 52.099 23.5371 52.3276 22.9573C52.5564 22.3775 52.8556 21.882 53.2256 21.4708C53.5954 21.0596 54.0259 20.7461 54.5168 20.5303C55.0077 20.3146 55.5357 20.2067 56.1006 20.2067C56.7731 20.2067 57.3648 20.3315 57.876 20.5809C58.3871 20.8304 58.8142 21.1709 59.1572 21.6023C59.5002 22.0337 59.759 22.536 59.9339 23.109C60.1088 23.682 60.1962 24.2854 60.1962 24.9191ZM68.9727 23.1192H69.3762C69.3762 21.9595 69.0399 21.1169 68.3675 20.591C67.6948 20.0652 66.7802 19.8022 65.6235 19.8022C64.9778 19.8022 64.4332 19.8832 63.9892 20.045C63.5454 20.2067 63.1823 20.4157 62.8997 20.6719C62.6173 20.928 62.4156 21.2112 62.2945 21.5213C62.1734 21.8315 62.1129 22.1281 62.1129 22.4112C62.1129 22.9775 62.2137 23.4292 62.4156 23.7663C62.6173 24.1034 62.9334 24.3663 63.3638 24.5551C63.6597 24.6898 63.9959 24.8112 64.3726 24.9192C64.7492 25.027 65.1864 25.1416 65.684 25.2629C66.1279 25.3709 66.565 25.4787 66.9955 25.5865C67.4259 25.6944 67.8059 25.8393 68.1353 26.0213C68.465 26.2034 68.7339 26.436 68.9424 26.7192C69.1508 27.0022 69.2551 27.3731 69.2551 27.8314C69.2551 28.2764 69.151 28.654 68.9424 28.964C68.7357 29.2725 68.4636 29.5315 68.1455 29.7225C67.8227 29.918 67.4628 30.0595 67.0661 30.1471C66.6693 30.2348 66.2826 30.2786 65.906 30.2786C64.682 30.2786 63.7438 30.0056 63.0914 29.4596C62.4391 28.9135 62.113 28.0539 62.113 26.8808H61.7094C61.7094 28.1888 62.0625 29.1461 62.7686 29.7529C63.4748 30.3596 64.5206 30.6629 65.906 30.6629C66.3498 30.6629 66.797 30.6123 67.2477 30.5112C67.6982 30.4101 68.1018 30.245 68.4582 30.0157C68.8115 29.7896 69.1083 29.4852 69.3257 29.1259C69.5477 28.7617 69.6587 28.3169 69.6587 27.791C69.6587 27.2921 69.5611 26.8876 69.3661 26.5775C69.1711 26.2675 68.9156 26.0112 68.5994 25.809C68.2833 25.6068 67.9269 25.4483 67.5301 25.3338C67.1311 25.2185 66.7309 25.1072 66.3296 24.9999C65.8358 24.8701 65.3415 24.742 64.8467 24.6157C64.4231 24.5078 64.0297 24.3798 63.6665 24.2314C63.3168 24.0831 63.0377 23.8708 62.8291 23.5944C62.6206 23.318 62.5165 22.9236 62.5165 22.4112C62.5165 22.3169 62.5434 22.1483 62.5971 21.9056C62.6509 21.6629 62.7788 21.4168 62.9805 21.1674C63.1822 20.918 63.4915 20.6955 63.9086 20.5C64.3255 20.3045 64.8972 20.2067 65.6235 20.2067C66.1212 20.2067 66.5751 20.2607 66.9853 20.3685C67.3956 20.4764 67.7487 20.6483 68.0445 20.8843C68.3405 21.1203 68.5691 21.4202 68.7305 21.7843C68.8919 22.1484 68.9727 22.5933 68.9727 23.1192ZM78.314 23.1192H78.7175C78.7175 21.9595 78.3813 21.1169 77.7088 20.591C77.0362 20.0652 76.1216 19.8022 74.9648 19.8022C74.3192 19.8022 73.7744 19.8832 73.3306 20.045C72.8867 20.2067 72.5235 20.4157 72.2412 20.6719C71.9586 20.928 71.7569 21.2112 71.6358 21.5213C71.5147 21.8315 71.4543 22.1281 71.4543 22.4112C71.4543 22.9775 71.5552 23.4292 71.757 23.7663C71.9586 24.1034 72.2748 24.3663 72.7052 24.5551C73.0011 24.6898 73.3373 24.8112 73.7139 24.9192C74.0905 25.027 74.5276 25.1416 75.0253 25.2629C75.4693 25.3709 75.9064 25.4787 76.3368 25.5865C76.7673 25.6944 77.1471 25.8393 77.4768 26.0213C77.8063 26.2034 78.0753 26.436 78.2837 26.7192C78.4923 27.0022 78.5965 27.3731 78.5965 27.8314C78.5965 28.2764 78.4923 28.654 78.2837 28.964C78.077 29.2725 77.805 29.5315 77.4869 29.7225C77.164 29.918 76.8042 30.0595 76.4074 30.1471C76.0107 30.2348 75.6239 30.2786 75.2473 30.2786C74.0233 30.2786 73.0852 30.0056 72.4328 29.4596C71.7804 28.9135 71.4543 28.0539 71.4543 26.8808H71.0508C71.0508 28.1888 71.4038 29.1461 72.11 29.7529C72.8161 30.3596 73.8619 30.6629 75.2473 30.6629C75.6912 30.6629 76.1384 30.6123 76.589 30.5112C77.0395 30.4101 77.4431 30.245 77.7996 30.0157C78.153 29.7896 78.4498 29.4852 78.6671 29.1259C78.8891 28.7617 79 28.3169 79 27.791C79 27.2921 78.9025 26.8876 78.7074 26.5775C78.5125 26.2675 78.257 26.0112 77.9408 25.809C77.6247 25.6068 77.2682 25.4483 76.8715 25.3338C76.4725 25.2185 76.0723 25.1072 75.671 24.9999C75.1772 24.8701 74.6829 24.742 74.1881 24.6157C73.7644 24.5078 73.371 24.3798 73.0078 24.2314C72.6581 24.0831 72.379 23.8708 72.1706 23.5944C71.962 23.318 71.8578 22.9236 71.8578 22.4112C71.8578 22.3169 71.8847 22.1483 71.9385 21.9056C71.9923 21.6629 72.1202 21.4168 72.3218 21.1674C72.5235 20.918 72.8329 20.6955 73.2499 20.5C73.6669 20.3045 74.2385 20.2067 74.9649 20.2067C75.4626 20.2067 75.9165 20.2607 76.3267 20.3685C76.737 20.4764 77.09 20.6483 77.3859 20.8843C77.6819 21.1203 77.9105 21.4202 78.0719 21.7843C78.2334 22.1484 78.3141 22.5933 78.3141 23.1192H78.314Z" fill="#12233D"/>
</svg>
