<svg width="96" height="50" viewBox="0 0 96 50" fill="none" xmlns="http://www.w3.org/2000/svg">
<path fill-rule="evenodd" clip-rule="evenodd" d="M19.284 11.7817L25.9841 15.6995C26.1775 15.4923 26.3995 15.3144 26.6432 15.1714C28.0327 14.3623 29.8051 14.8427 30.6122 16.25C31.4111 17.6573 30.9368 19.4522 29.5471 20.2696C29.3053 20.4107 29.0447 20.5158 28.7733 20.5817V28.4203C29.0417 28.4863 29.2995 28.5907 29.5389 28.7303C30.9368 29.5477 31.4111 31.3427 30.6039 32.75C29.8051 34.1572 28.0244 34.6376 26.6348 33.8286C26.3656 33.6722 26.1231 33.4728 25.9166 33.2382L19.2573 37.1319C19.3548 37.431 19.4043 37.744 19.404 38.0589C19.404 39.6769 18.106 41 16.5 41C14.894 41 13.596 39.6852 13.596 38.0589C13.596 37.7698 13.637 37.4906 13.7135 37.2268L7.01521 33.3101C6.82389 33.5133 6.60503 33.6879 6.3652 33.8286C4.96731 34.6376 3.19492 34.1572 2.39606 32.75C1.59732 31.3427 2.07162 29.5477 3.46113 28.7303C3.7005 28.5906 3.95827 28.4862 4.22668 28.4202V20.5817C3.9553 20.5158 3.6947 20.4107 3.45286 20.2696C2.06324 19.4607 1.58893 17.6573 2.38779 16.25C3.18665 14.8427 4.9672 14.3623 6.35682 15.1714C6.59914 15.3136 6.82002 15.4904 7.01271 15.6962L13.7148 11.7773C13.6358 11.5058 13.5958 11.2241 13.596 10.941C13.596 9.31475 14.894 8 16.5 8C18.106 8 19.404 9.31464 19.404 10.941C19.404 11.2333 19.362 11.5154 19.284 11.7817ZM18.586 12.9888L25.302 16.9159C25.1951 17.2945 25.1644 17.691 25.2119 18.0818C25.2593 18.4727 25.3838 18.8499 25.5781 19.191C25.9869 19.9112 26.6529 20.3887 27.3921 20.5748V28.4231C27.3544 28.4324 27.3169 28.4426 27.2796 28.4534L18.5079 13.0674C18.5344 13.0417 18.5605 13.0156 18.586 12.9889V12.9888ZM14.4939 13.0691L5.72233 28.4549C5.6844 28.4438 5.64626 28.4335 5.60792 28.4239V20.5748C6.34707 20.3887 7.01305 19.9112 7.42189 19.191C7.61655 18.8492 7.74122 18.4712 7.78846 18.0796C7.83569 17.6879 7.80453 17.2907 7.69682 16.9115L14.411 12.9856C14.4381 13.0139 14.4657 13.0418 14.4939 13.069V13.0691ZM17.3114 13.7661L26.081 29.1484C25.8801 29.3426 25.7079 29.565 25.5697 29.8089C25.4319 30.0513 25.3288 30.3124 25.2636 30.5842H7.73658C7.6713 30.3124 7.56816 30.0513 7.43027 29.8089C7.29161 29.5667 7.11976 29.3456 6.91982 29.1522L15.6911 13.7668C15.954 13.8435 16.2263 13.8822 16.5 13.882C16.7817 13.882 17.0539 13.8416 17.3114 13.7661ZM18.6476 36.0776L25.3201 32.176C25.3001 32.1123 25.2822 32.048 25.2665 31.9831H7.73284C7.72355 32.0213 7.71347 32.0591 7.70271 32.0969L14.4078 36.0176C14.6786 35.7325 15.0035 35.5058 15.3631 35.3511C15.7226 35.1965 16.1094 35.1172 16.5 35.1179C16.9043 35.1172 17.3042 35.2022 17.6741 35.3675C18.044 35.5328 18.3756 35.7747 18.6476 36.0776Z" fill="#E535AB"/>
<path d="M44.6021 26.3501V25.2583L48.5439 25.252V28.7051C47.9388 29.1875 47.3146 29.5514 46.6714 29.7969C46.0282 30.0381 45.368 30.1587 44.6909 30.1587C43.7769 30.1587 42.9453 29.964 42.1963 29.5747C41.4515 29.1812 40.8887 28.6141 40.5078 27.8735C40.127 27.133 39.9365 26.3057 39.9365 25.3916C39.9365 24.486 40.1248 23.6418 40.5015 22.8589C40.8823 22.0718 41.4282 21.4878 42.1392 21.1069C42.8501 20.7261 43.6689 20.5356 44.5957 20.5356C45.2686 20.5356 45.8758 20.6457 46.4175 20.8657C46.9634 21.0815 47.3908 21.3841 47.6997 21.7734C48.0086 22.1628 48.2435 22.6706 48.4043 23.2969L47.2935 23.6016C47.1538 23.1276 46.9803 22.7552 46.7729 22.4844C46.5656 22.2135 46.2694 21.9977 45.8843 21.8369C45.4992 21.6719 45.0718 21.5894 44.6021 21.5894C44.0392 21.5894 43.5526 21.6761 43.1421 21.8496C42.7316 22.0189 42.3994 22.2432 42.1455 22.5225C41.8958 22.8018 41.7012 23.1086 41.5615 23.4429C41.3245 24.0184 41.2061 24.6426 41.2061 25.3154C41.2061 26.1449 41.3478 26.8389 41.6313 27.3975C41.9191 27.9561 42.3359 28.3708 42.8818 28.6416C43.4277 28.9124 44.0075 29.0479 44.6211 29.0479C45.1543 29.0479 45.6748 28.9463 46.1826 28.7432C46.6904 28.5358 47.0755 28.3158 47.3379 28.083V26.3501H44.6021ZM50.207 30V23.2588H51.2354V24.2808C51.4977 23.8026 51.7389 23.4873 51.959 23.335C52.1833 23.1826 52.4287 23.1064 52.6953 23.1064C53.0804 23.1064 53.4718 23.2292 53.8696 23.4746L53.4761 24.5347C53.1968 24.3696 52.9175 24.2871 52.6382 24.2871C52.3885 24.2871 52.1642 24.3633 51.9653 24.5156C51.7664 24.6637 51.6247 24.8711 51.54 25.1377C51.4131 25.5439 51.3496 25.9883 51.3496 26.4707V30H50.207ZM58.9478 29.1685C58.5246 29.5282 58.1162 29.7821 57.7227 29.9302C57.3333 30.0783 56.9144 30.1523 56.4658 30.1523C55.7253 30.1523 55.1561 29.9725 54.7583 29.6128C54.3605 29.2489 54.1616 28.7855 54.1616 28.2227C54.1616 27.8926 54.2357 27.5921 54.3838 27.3213C54.5361 27.0462 54.7329 26.8262 54.9741 26.6611C55.2196 26.4961 55.4946 26.3713 55.7993 26.2866C56.0236 26.2274 56.3621 26.1702 56.8149 26.1152C57.7375 26.0052 58.4167 25.874 58.8525 25.7217C58.8568 25.5651 58.8589 25.4657 58.8589 25.4233C58.8589 24.9578 58.751 24.6299 58.5352 24.4395C58.2432 24.1813 57.8094 24.0522 57.2339 24.0522C56.6965 24.0522 56.2987 24.1475 56.0405 24.3379C55.7866 24.5241 55.5983 24.8563 55.4756 25.3345L54.3584 25.1821C54.46 24.7039 54.6271 24.3188 54.8599 24.0269C55.0926 23.7306 55.429 23.5042 55.8691 23.3477C56.3092 23.1868 56.8192 23.1064 57.3989 23.1064C57.9744 23.1064 58.4421 23.1742 58.8018 23.3096C59.1615 23.445 59.4259 23.6164 59.5952 23.8237C59.7645 24.0269 59.883 24.285 59.9507 24.5981C59.9888 24.7928 60.0078 25.144 60.0078 25.6519V27.1753C60.0078 28.2375 60.0311 28.9103 60.0776 29.1938C60.1284 29.4731 60.2257 29.7419 60.3696 30H59.1763C59.0578 29.763 58.9816 29.4858 58.9478 29.1685ZM58.8525 26.6167C58.4378 26.786 57.8158 26.9299 56.9863 27.0483C56.5166 27.116 56.1844 27.1922 55.9897 27.2769C55.7951 27.3615 55.6449 27.4863 55.5391 27.6514C55.4333 27.8122 55.3804 27.992 55.3804 28.1909C55.3804 28.4956 55.4946 28.7495 55.7231 28.9526C55.9559 29.1558 56.2944 29.2573 56.7388 29.2573C57.1789 29.2573 57.5703 29.1621 57.9131 28.9717C58.2559 28.777 58.5076 28.5125 58.6685 28.1782C58.7912 27.9201 58.8525 27.5392 58.8525 27.0356V26.6167ZM61.7852 32.5835V23.2588H62.8262V24.1348C63.0716 23.792 63.3488 23.536 63.6577 23.3667C63.9666 23.1932 64.3411 23.1064 64.7812 23.1064C65.3568 23.1064 65.8646 23.2546 66.3047 23.5508C66.7448 23.847 67.077 24.266 67.3013 24.8076C67.5256 25.3451 67.6377 25.9354 67.6377 26.5786C67.6377 27.2684 67.5129 27.8905 67.2632 28.4448C67.0177 28.995 66.658 29.4181 66.1841 29.7144C65.7144 30.0063 65.2192 30.1523 64.6987 30.1523C64.3179 30.1523 63.9751 30.0719 63.6704 29.9111C63.37 29.7503 63.1224 29.5472 62.9277 29.3018V32.5835H61.7852ZM62.8198 26.6675C62.8198 27.535 62.9954 28.1761 63.3467 28.5908C63.6979 29.0055 64.1232 29.2129 64.6226 29.2129C65.1304 29.2129 65.5641 28.9992 65.9238 28.5718C66.2878 28.1401 66.4697 27.4736 66.4697 26.5723C66.4697 25.7132 66.292 25.07 65.9365 24.6426C65.5853 24.2152 65.1642 24.0015 64.6733 24.0015C64.1867 24.0015 63.755 24.23 63.3784 24.687C63.006 25.1398 62.8198 25.8 62.8198 26.6675ZM69.0215 30V20.6943H70.1641V24.0332C70.6973 23.4154 71.3701 23.1064 72.1826 23.1064C72.682 23.1064 73.1157 23.2059 73.4839 23.4048C73.8521 23.5994 74.1144 23.8703 74.271 24.2173C74.4318 24.5643 74.5122 25.0679 74.5122 25.728V30H73.3696V25.728C73.3696 25.1567 73.2448 24.742 72.9951 24.4839C72.7497 24.2215 72.4006 24.0903 71.9478 24.0903C71.6092 24.0903 71.2897 24.1792 70.9893 24.3569C70.693 24.5304 70.4814 24.7674 70.3545 25.0679C70.2275 25.3683 70.1641 25.783 70.1641 26.312V30H69.0215ZM83.4561 29.0034C84.0273 29.397 84.5542 29.6847 85.0366 29.8667L84.6748 30.7236C84.0062 30.4824 83.3397 30.1016 82.6753 29.5811C81.9855 29.9661 81.2238 30.1587 80.3901 30.1587C79.548 30.1587 78.7842 29.9556 78.0986 29.5493C77.4131 29.1431 76.8841 28.5718 76.5117 27.8354C76.1436 27.0991 75.9595 26.2697 75.9595 25.3472C75.9595 24.4289 76.1457 23.5931 76.5181 22.8398C76.8905 22.0866 77.4194 21.5132 78.105 21.1196C78.7948 20.7261 79.5649 20.5293 80.4155 20.5293C81.2746 20.5293 82.049 20.7345 82.7388 21.145C83.4285 21.5513 83.9533 22.1226 84.313 22.8589C84.6769 23.591 84.8589 24.4183 84.8589 25.3408C84.8589 26.1068 84.7425 26.7965 84.5098 27.4102C84.277 28.0195 83.9258 28.5506 83.4561 29.0034ZM80.7456 27.4292C81.4565 27.6281 82.0426 27.9243 82.5039 28.3179C83.2275 27.6577 83.5894 26.6654 83.5894 25.3408C83.5894 24.5876 83.4603 23.9295 83.2021 23.3667C82.9482 22.8039 82.5737 22.368 82.0786 22.0591C81.5877 21.7459 81.0355 21.5894 80.4219 21.5894C79.5036 21.5894 78.7419 21.9046 78.1367 22.5352C77.5316 23.1615 77.229 24.0988 77.229 25.3472C77.229 26.5575 77.5273 27.4863 78.124 28.1338C78.7249 28.7812 79.4909 29.105 80.4219 29.105C80.862 29.105 81.2767 29.0225 81.666 28.8574C81.2809 28.6077 80.8747 28.43 80.4473 28.3242L80.7456 27.4292ZM86.4712 30V20.6943H87.7026V28.9019H92.2856V30H86.4712Z" fill="#12233D"/>
</svg>
