<svg width="96" height="50" viewBox="0 0 96 50" fill="none" xmlns="http://www.w3.org/2000/svg">
<path fill-rule="evenodd" clip-rule="evenodd" d="M53.75 17L67.7894 31.8026C67.7894 31.8026 68.2678 32.1384 68.6334 31.7466C68.9993 31.355 68.718 30.9633 68.718 30.9633L53.75 17ZM58.1953 18.3991L68.8868 29.8718C68.8868 29.8718 69.3651 30.2077 69.7308 29.8158C70.0966 29.4242 69.8152 29.0325 69.8152 29.0325L58.1953 18.3991ZM55.0723 21.3932L65.7637 32.8661C65.7637 32.8661 66.242 33.2019 66.6077 32.8101C66.9735 32.4182 66.6921 32.0266 66.6921 32.0266L55.0723 21.3932ZM61.9533 19.6024L69.4228 27.6178C69.4228 27.6178 69.7569 27.8522 70.0124 27.5787C70.268 27.3049 70.0713 27.0312 70.0713 27.0312L61.9533 19.6024ZM56.1012 24.863L63.5706 32.8784C63.5706 32.8784 63.9048 33.1129 64.1603 32.8394C64.4158 32.5656 64.2193 32.2919 64.2193 32.2919L56.1012 24.8631V24.863ZM65.7919 21.3373L69.1773 24.9811C69.1773 24.9811 69.3426 25.091 69.469 24.9629C69.5954 24.8346 69.4981 24.7063 69.4981 24.7063L65.7918 21.3373H65.7919ZM57.9702 28.5568L61.3555 32.2006C61.3555 32.2006 61.521 32.3105 61.6474 32.1823C61.7738 32.054 61.6765 31.9257 61.6765 31.9257L57.9702 28.5568Z" fill="#DF4F4F"/>
<path fill-rule="evenodd" clip-rule="evenodd" d="M72.3857 22.9937V32.8193H74.619V29.6499H76.294L78.4476 32.8193H81L78.6071 29.4122C78.6071 29.4122 80.732 28.5762 80.732 26.3087C80.732 23.1075 77.8095 22.9939 77.8095 22.9939L72.3857 22.9937ZM74.619 24.8957V27.7483H77.4905C77.4905 27.7483 78.588 27.748 78.588 26.3217C78.588 24.8413 77.2511 24.8957 77.2511 24.8957H74.619ZM47.6595 22.9939V32.8193H55.1571V30.9176H49.8929V28.8577H54.4393V26.9559H49.8929V24.8941H55.1571V22.9939H47.6596H47.6595ZM36.8119 22.9939V24.8957H39.7631V32.8193H41.9964V24.8957H44.9476V22.9939H36.8119ZM26.6024 22.9939V32.8193H34.1V30.9176H28.8357V28.8577H33.3821V26.9559H28.8357V24.8941H34.1V22.9939H26.6024ZM14 22.9937V32.8196L16.2318 32.8194V26.6386L18.9437 30.6005L21.6571 26.6386V32.8196H23.8905V22.9937H21.6571L18.9439 27.0347L16.2318 22.9937H14Z" fill="#26262C"/>
</svg>
