<svg width="96" height="50" viewBox="0 0 96 50" fill="none" xmlns="http://www.w3.org/2000/svg">
<path fill-rule="evenodd" clip-rule="evenodd" d="M84.3007 22.9255C84.2252 22.9407 84.1493 23.1079 84.1493 23.1989C84.1342 23.8071 84.1191 25.4182 84.1191 26.5125C84.1191 26.543 84.1644 26.6038 84.2099 26.6038C84.4372 26.6189 84.9829 26.6341 85.4528 26.6341C86.1045 26.6341 86.4835 26.543 86.6959 26.4519C87.2413 26.1782 87.499 25.5854 87.499 24.9317C87.499 23.4575 86.4684 22.8951 84.9374 22.8951C84.8313 22.8799 84.5284 22.8799 84.3007 22.9255ZM88.2116 29.7197C88.2116 28.215 87.105 27.3789 85.1043 27.3789C85.0133 27.3789 84.3766 27.3638 84.225 27.3941C84.1795 27.4094 84.1191 27.4398 84.1191 27.4855C84.1191 28.5645 84.1038 30.2822 84.1493 30.9509C84.1795 31.2397 84.3919 31.6501 84.6496 31.7717C84.9223 31.9237 85.5438 31.954 85.9682 31.954C87.1656 31.954 88.2116 31.2853 88.2116 29.7197ZM81.2089 22.0896C81.3603 22.0896 81.815 22.1351 82.9821 22.1351C84.0887 22.1351 84.9678 22.1048 86.0439 22.1048C87.3625 22.1048 89.1815 22.5759 89.1815 24.5519C89.1815 25.5246 88.4993 26.2999 87.6051 26.6799C87.5598 26.695 87.5598 26.7253 87.6051 26.7405C88.8783 27.0599 90.0001 27.8501 90.0001 29.3396C90.0001 30.7989 89.0906 31.726 87.7719 32.3037C86.9685 32.6532 85.9682 32.7747 84.9527 32.7747C84.1795 32.7747 82.1031 32.6837 80.9512 32.7141C80.83 32.6683 81.0573 32.1212 81.1632 32.0301C81.4362 32.0148 81.6483 31.9996 81.9363 31.9084C82.3457 31.8021 82.391 31.6804 82.4516 31.0573C82.482 30.5253 82.482 28.6404 82.482 27.303C82.482 25.4638 82.4973 24.2175 82.482 23.6096C82.4669 23.1385 82.3002 22.9863 81.9667 22.8951C81.7089 22.8496 81.2846 22.7887 80.9359 22.7432C80.86 22.6671 81.1177 22.1503 81.2089 22.0896ZM72.4628 31.5437C72.8268 31.8323 73.5392 31.9538 74.1758 31.9538C74.9943 31.9538 75.8127 31.8021 76.601 31.0875C77.4043 30.3581 77.9651 29.2334 77.9651 27.4398C77.9651 25.7221 77.3133 24.3237 75.9795 23.5032C75.2216 23.0318 74.2515 22.8345 73.1299 22.8345C72.7964 22.8345 72.4781 22.8496 72.2812 22.9407C72.2355 22.9712 72.1296 23.1079 72.1296 23.1838C72.0992 23.4878 72.0992 25.8285 72.0992 27.1966C72.0992 28.6101 72.0992 30.5861 72.1296 30.8141C72.1296 31.0422 72.2355 31.3917 72.463 31.5437H72.4628ZM69.0221 22.0895C69.3102 22.0895 70.4166 22.1351 70.9471 22.1351C71.9023 22.1351 72.5842 22.0896 74.3879 22.0896C75.9036 22.0896 77.1768 22.4999 78.0863 23.275C79.1927 24.2327 79.7689 25.5551 79.7689 27.1661C79.7689 29.4613 78.7229 30.7837 77.677 31.5437C76.6314 32.3188 75.2671 32.7747 73.327 32.7747C72.2963 32.7747 70.5229 32.7444 69.0525 32.7291H69.0374C68.9617 32.5924 69.1586 32.0604 69.2798 32.0452C69.674 31.9996 69.7801 31.9843 69.9772 31.9085C70.2954 31.7868 70.3562 31.6196 70.4017 31.0573C70.447 30.0085 70.4319 28.747 70.4319 27.3181C70.4319 26.2999 70.447 24.3086 70.4166 23.6702C70.3713 23.1383 70.1439 23.0015 69.6891 22.9102C69.4618 22.8648 69.1586 22.8038 68.7343 22.7584C68.6736 22.6518 68.9464 22.1807 69.0221 22.0896V22.0895Z" fill="#B1B0B1"/>
<path fill-rule="evenodd" clip-rule="evenodd" d="M50.6817 32.1361C50.3028 32.0904 50.03 32.0298 49.6965 31.8778C49.651 31.8473 49.5751 31.6955 49.5751 31.6345C49.5449 31.1025 49.5449 29.5826 49.5449 28.5644C49.5449 27.7435 49.4086 27.0291 49.0599 26.5276C48.6506 25.9498 48.0596 25.6156 47.3016 25.6156C46.6347 25.6156 45.7404 26.0715 44.9976 26.7099C44.9825 26.7251 44.8613 26.8316 44.8764 26.6643C44.8764 26.4971 44.9068 26.1628 44.9219 25.9346C44.9372 25.7218 44.8158 25.6156 44.8158 25.6156C44.3308 25.8587 42.9667 26.1779 42.4664 26.2234C42.1027 26.2996 42.0117 26.6491 42.3908 26.7707H42.4059C42.8149 26.8923 43.0879 27.0291 43.2999 27.166C43.4515 27.2876 43.4364 27.4547 43.4364 27.5916C43.4515 28.7314 43.4515 30.4794 43.4062 31.437C43.3911 31.817 43.285 31.9537 43.012 32.0145L43.0424 31.9993C42.8302 32.045 42.6635 32.0904 42.4058 32.1209C42.3148 32.2122 42.3148 32.6985 42.4058 32.8049C42.5725 32.8049 43.4515 32.7593 44.1793 32.7593C45.1796 32.7593 45.695 32.8049 45.9526 32.8049C46.0587 32.6834 46.0891 32.2273 46.0285 32.1209C45.7404 32.1057 45.5282 32.0754 45.3312 32.0145C45.0584 31.9536 44.9825 31.817 44.9672 31.4978C44.9372 30.6921 44.9372 28.9898 44.9372 27.8347C44.9372 27.5155 45.028 27.3635 45.1188 27.2722C45.4676 26.9683 46.0285 26.7555 46.5286 26.7555C47.0137 26.7555 47.3318 26.9076 47.5744 27.1052C47.9078 27.3786 48.0139 27.7739 48.0594 28.0627C48.1352 28.7162 48.1049 30.0082 48.1049 31.133C48.1049 31.7409 48.0594 31.8929 47.8323 31.9689C47.726 32.0145 47.4532 32.0754 47.1349 32.1056C47.0288 32.2122 47.0591 32.6834 47.1349 32.7898C47.5744 32.7898 48.0898 32.7442 48.8477 32.7442C49.7874 32.7442 50.3938 32.7898 50.6364 32.7898C50.7119 32.6985 50.7423 32.2578 50.6817 32.1361ZM54.8803 26.3301C54.0771 26.3301 53.5768 26.9532 53.5768 27.9258C53.5768 28.9139 54.0163 30.0538 55.2592 30.0538C55.4714 30.0538 55.8656 29.9626 56.0473 29.7498C56.3354 29.4764 56.5325 28.929 56.5325 28.3514C56.5325 27.0899 55.911 26.3299 54.8803 26.3299V26.3301ZM54.7742 33.048C54.4711 33.048 54.2588 33.1393 54.1224 33.2154C53.4858 33.6255 53.1979 34.0208 53.1979 34.4922C53.1979 34.9328 53.3646 35.2823 53.7284 35.5864C54.1679 35.9663 54.7742 36.1488 55.5472 36.1488C57.0933 36.1488 57.7754 35.3128 57.7754 34.4922C57.7754 33.9144 57.4873 33.5344 56.8963 33.3218C56.4719 33.1393 55.6989 33.048 54.7742 33.048ZM54.8803 37C53.9557 37 53.2887 36.8024 52.7128 36.3616C52.1519 35.936 51.9095 35.2976 51.9095 34.8569C51.9095 34.7353 51.9399 34.4008 52.2127 34.0969C52.3792 33.9144 52.7432 33.5649 53.6072 32.9721C53.6374 32.957 53.6525 32.9418 53.6525 32.9112C53.6525 32.8809 53.6221 32.8504 53.5919 32.8354C52.8796 32.5618 52.6673 32.1209 52.6066 31.8778V31.8473C52.5916 31.7561 52.5612 31.665 52.6977 31.5737C52.8038 31.4978 52.9554 31.4066 53.122 31.3003C53.3797 31.1481 53.6525 30.981 53.8192 30.8441C53.8496 30.8138 53.8496 30.7835 53.8496 30.753C53.8496 30.7225 53.8192 30.6921 53.7888 30.6771C52.7281 30.3274 52.1976 29.537 52.1976 28.3514C52.1976 27.5763 52.5461 26.8771 53.1675 26.4363C53.5919 26.102 54.653 25.6915 55.3502 25.6915H55.3957C56.1081 25.7067 56.5021 25.8587 57.0629 26.0564C57.3661 26.1628 57.6542 26.2082 58.0484 26.2082C58.6393 26.2082 58.8971 26.0259 59.1091 25.8133C59.1244 25.8436 59.1548 25.9197 59.1699 26.1171C59.185 26.3148 59.1244 26.6035 58.9728 26.8163C58.8516 26.9835 58.5787 27.1052 58.3059 27.1052H58.23C57.9572 27.0747 57.8358 27.0443 57.8358 27.0443L57.7754 27.0747C57.7603 27.1052 57.7754 27.1355 57.7905 27.1811L57.8058 27.2116C57.836 27.3483 57.8966 27.7586 57.8966 27.8652C57.8966 29.1115 57.3965 29.6585 56.8659 30.069C56.3505 30.449 55.7595 30.6921 55.0925 30.753C55.0774 30.753 55.017 30.753 54.8803 30.7682C54.8046 30.7682 54.6985 30.7835 54.6832 30.7835H54.6681C54.5469 30.8138 54.2438 30.9658 54.2438 31.2241C54.2438 31.452 54.3801 31.7258 55.0319 31.7714C55.1682 31.7865 55.3046 31.7865 55.4563 31.8019C56.3203 31.8625 57.3965 31.9386 57.8966 32.1057C58.5938 32.364 59.0334 32.9873 59.0334 33.7321C59.0334 34.857 58.2302 35.9057 56.8963 36.5591C56.2446 36.848 55.5927 37 54.8803 37ZM63.5199 26.406C63.2017 26.406 62.9137 26.4818 62.7014 26.6338C62.1105 26.9987 61.8073 27.7283 61.8073 28.7922C61.8073 30.7835 62.8075 32.1818 64.2324 32.1818C64.6568 32.1818 64.9903 32.0601 65.2782 31.817C65.7177 31.452 65.9452 30.7225 65.9452 29.7041C65.9452 27.7283 64.9599 26.4059 63.5201 26.4059L63.5199 26.406ZM63.7929 32.9113C61.2161 32.9113 60.2915 31.0114 60.2915 29.2331C60.2915 27.9867 60.7917 27.0291 61.792 26.3451C62.5045 25.9043 63.3534 25.6612 64.1112 25.6612C66.0816 25.6612 67.4609 27.0747 67.4609 29.1115C67.4609 30.4946 66.9153 31.5889 65.8693 32.2578C65.3692 32.5921 64.5052 32.9113 63.7927 32.9113H63.7929ZM36.7824 26.4059C36.4641 26.4059 36.1762 26.4818 35.9638 26.6338C35.3728 26.9987 35.0696 27.7283 35.0696 28.7922C35.0696 30.7835 36.0699 32.1818 37.4948 32.1818C37.9192 32.1818 38.2527 32.0601 38.5408 31.817C38.9801 31.452 39.2076 30.7225 39.2076 29.7041C39.2076 27.7283 38.2375 26.4059 36.7824 26.4059ZM37.0553 32.9113C34.4785 32.9113 33.5539 31.0114 33.5539 29.2331C33.5539 27.9867 34.0541 27.0291 35.0544 26.3451C35.7669 25.9043 36.6157 25.6612 37.3736 25.6612C39.3441 25.6612 40.7233 27.0747 40.7233 29.1115C40.7233 30.4946 40.1777 31.5889 39.1317 32.2578C38.6467 32.5921 37.7827 32.9113 37.0553 32.9113ZM19.7304 32.7593C19.7 32.7139 19.6696 32.577 19.6849 32.4098C19.6849 32.2881 19.7153 32.2122 19.7304 32.1818C20.0487 32.1361 20.2154 32.0904 20.3972 32.045C20.7005 31.9689 20.8217 31.8019 20.8368 31.4219C20.8824 30.5099 20.8824 28.777 20.8672 27.5763V27.5458C20.8672 27.4091 20.8672 27.2418 20.7005 27.1202C20.4579 26.9683 20.1699 26.8316 19.791 26.7249C19.6547 26.6796 19.5637 26.6035 19.5788 26.5124C19.5788 26.4212 19.6698 26.3148 19.8669 26.2843C20.367 26.2387 21.6704 25.9197 22.1858 25.6915C22.2162 25.7218 22.2617 25.8133 22.2617 25.9348L22.2466 26.1018C22.2313 26.2692 22.2162 26.4668 22.2162 26.6643C22.2162 26.7251 22.2769 26.7707 22.3374 26.7707C22.3678 26.7707 22.3982 26.7555 22.4284 26.7402C23.3984 25.9803 24.2775 25.7067 24.7322 25.7067C25.4751 25.7067 26.0511 26.0564 26.4906 26.7859C26.5209 26.8316 26.5512 26.8468 26.5967 26.8468C26.627 26.8468 26.6723 26.8316 26.6876 26.8012C27.5819 26.1171 28.4763 25.7067 29.0672 25.7067C30.4768 25.7067 31.3106 26.7555 31.3106 28.5339C31.3106 29.0354 31.3106 29.689 31.2955 30.2819C31.2955 30.8138 31.2804 31.3002 31.2804 31.6498C31.2804 31.7256 31.3863 31.9689 31.553 32.0145C31.7652 32.1209 32.0533 32.1665 32.4323 32.2273H32.4474C32.4778 32.3337 32.4171 32.7288 32.3565 32.8049C32.2655 32.8049 32.1291 32.8049 31.9776 32.7898C31.5939 32.7697 31.2098 32.7595 30.8256 32.7593C29.8859 32.7593 29.4008 32.7745 28.9308 32.8049C28.9007 32.6834 28.8854 32.3186 28.9308 32.2273C29.2037 32.1818 29.3401 32.1361 29.5069 32.0906C29.8102 31.9993 29.8859 31.8625 29.9011 31.4673C29.9011 31.1786 29.9616 28.7162 29.8706 28.1234C29.7798 27.5155 29.325 26.8012 28.3245 26.8012C27.9456 26.8012 27.3546 26.9532 26.7786 27.3938C26.7483 27.4243 26.7178 27.5002 26.7178 27.5458V27.5611C26.7786 27.8802 26.7786 28.2452 26.7786 28.8075V29.7954C26.7786 30.4794 26.7633 31.1178 26.7786 31.604C26.7786 31.9386 26.9757 32.0145 27.1424 32.0754C27.2334 32.0904 27.2938 32.1057 27.3697 32.1209C27.506 32.1514 27.6425 32.1818 27.8547 32.2273C27.8851 32.2882 27.8851 32.4857 27.8396 32.6529C27.8244 32.7442 27.794 32.7896 27.7789 32.8049C27.2636 32.7898 26.7331 32.7745 25.9601 32.7745C25.7328 32.7745 25.3386 32.7898 25.0051 32.7898C24.7322 32.7898 24.4746 32.8049 24.3232 32.8049C24.3079 32.7745 24.2775 32.6682 24.2775 32.5009C24.2775 32.3642 24.3079 32.2578 24.3383 32.2273C24.414 32.2122 24.4746 32.197 24.5505 32.197C24.7322 32.1665 24.8839 32.1361 25.0354 32.1057C25.2932 32.0298 25.3841 31.8929 25.3992 31.5586C25.4447 30.7986 25.4902 28.6251 25.3841 28.0778C25.2023 27.1963 24.7021 26.7555 23.8986 26.7555C23.4288 26.7555 22.8375 26.9835 22.3527 27.3485C22.2768 27.4091 22.2162 27.561 22.2162 27.6978V28.5947C22.2162 29.689 22.2162 31.0571 22.2313 31.6498C22.2466 31.832 22.307 32.045 22.6557 32.1209C22.7316 32.1361 22.8528 32.1665 23.0044 32.1818L23.2771 32.2273C23.3076 32.3186 23.2923 32.6834 23.2317 32.8049C23.0801 32.8049 22.8983 32.7898 22.6859 32.7898C22.3678 32.7745 21.9585 32.7593 21.5038 32.7593C20.9733 32.7593 20.5944 32.7745 20.2911 32.7898C20.0789 32.7593 19.9122 32.7593 19.7304 32.7593Z" fill="#979797"/>
<path fill-rule="evenodd" clip-rule="evenodd" d="M11.7573 36.4074L11.136 36.1944C11.136 36.1944 11.2119 33.0179 10.0749 32.7899C9.31723 31.9082 10.1965 -4.60093 12.9247 32.6682C12.9247 32.6682 11.9848 33.1392 11.8181 33.945C11.6361 34.7354 11.7573 36.4074 11.7573 36.4074Z" fill="white"/>
<path fill-rule="evenodd" clip-rule="evenodd" d="M11.7573 36.4074L11.136 36.1944C11.136 36.1944 11.2119 33.0179 10.0749 32.7899C9.31723 31.9082 10.1965 -4.60093 12.9247 32.6682C12.9247 32.6682 11.9848 33.1392 11.8181 33.945C11.6361 34.7354 11.7573 36.4074 11.7573 36.4074Z" fill="#979797"/>
<path fill-rule="evenodd" clip-rule="evenodd" d="M12.0912 33.3371C12.0912 33.3371 17.5328 29.7499 16.2594 22.2868C15.0318 16.8608 12.1367 15.0825 11.8184 14.3985C11.4698 13.9121 11.1362 13.061 11.1362 13.061L11.3637 28.1539C11.3637 28.1692 10.8938 32.7746 12.0914 33.3372" fill="white"/>
<path fill-rule="evenodd" clip-rule="evenodd" d="M12.0912 33.3371C12.0912 33.3371 17.5328 29.7499 16.2594 22.2868C15.0318 16.8608 12.1367 15.0825 11.8184 14.3985C11.4698 13.9121 11.1362 13.061 11.1362 13.061L11.3637 28.1539C11.3637 28.1692 10.8938 32.7746 12.0914 33.3372" fill="#979797"/>
<path fill-rule="evenodd" clip-rule="evenodd" d="M10.818 33.5345C10.818 33.5345 5.70978 30.0385 6.01298 23.8829C6.30092 17.7271 9.90836 14.7024 10.6056 14.1553C11.0604 13.6689 11.0755 13.4864 11.1059 13C11.4242 13.684 11.3636 23.2293 11.409 24.354C11.5453 28.6858 11.1665 32.7139 10.818 33.5345Z" fill="white"/>
<path fill-rule="evenodd" clip-rule="evenodd" d="M10.818 33.5345C10.818 33.5345 5.70978 30.0385 6.01298 23.8829C6.30092 17.7271 9.90836 14.7024 10.6056 14.1553C11.0604 13.6689 11.0755 13.4864 11.1059 13C11.4242 13.684 11.3636 23.2293 11.409 24.354C11.5453 28.6858 11.1665 32.7139 10.818 33.5345Z" fill="#B1B0B1"/>
</svg>
