<svg width="96" height="50" viewBox="0 0 96 50" fill="none" xmlns="http://www.w3.org/2000/svg">
<path fill-rule="evenodd" clip-rule="evenodd" d="M84.3007 22.9257C84.2252 22.9408 84.1493 23.108 84.1493 23.1991C84.1342 23.8072 84.1191 25.4183 84.1191 26.5127C84.1191 26.5431 84.1644 26.6039 84.2099 26.6039C84.4372 26.6191 84.9829 26.6342 85.4528 26.6342C86.1045 26.6342 86.4835 26.5431 86.6959 26.4521C87.2413 26.1783 87.499 25.5855 87.499 24.9318C87.499 23.4577 86.4684 22.8952 84.9374 22.8952C84.8313 22.88 84.5284 22.88 84.3007 22.9257ZM88.2116 29.7199C88.2116 28.2151 87.105 27.379 85.1043 27.379C85.0133 27.379 84.3766 27.3639 84.225 27.3942C84.1795 27.4095 84.1191 27.44 84.1191 27.4856C84.1191 28.5646 84.1038 30.2823 84.1493 30.951C84.1795 31.2398 84.3919 31.6502 84.6496 31.7718C84.9223 31.9238 85.5438 31.9541 85.9682 31.9541C87.1656 31.9541 88.2116 31.2854 88.2116 29.7199ZM81.2089 22.0898C81.3603 22.0898 81.815 22.1352 82.9821 22.1352C84.0887 22.1352 84.9678 22.1049 86.0439 22.1049C87.3625 22.1049 89.1815 22.576 89.1815 24.552C89.1815 25.5247 88.4993 26.3 87.6051 26.68C87.5598 26.6952 87.5598 26.7255 87.6051 26.7406C88.8783 27.06 90.0001 27.8503 90.0001 29.3397C90.0001 30.799 89.0906 31.7262 87.7719 32.3038C86.9685 32.6533 85.9682 32.7749 84.9527 32.7749C84.1795 32.7749 82.1031 32.6838 80.9512 32.7142C80.83 32.6685 81.0573 32.1213 81.1632 32.0302C81.4362 32.0149 81.6483 31.9997 81.9363 31.9085C82.3457 31.8023 82.391 31.6805 82.4516 31.0574C82.482 30.5254 82.482 28.6405 82.482 27.3031C82.482 25.464 82.4973 24.2176 82.482 23.6097C82.4669 23.1386 82.3002 22.9864 81.9667 22.8952C81.7089 22.8497 81.2846 22.7888 80.9359 22.7433C80.86 22.6672 81.1177 22.1504 81.2089 22.0898ZM72.4628 31.5438C72.8268 31.8324 73.5392 31.954 74.1758 31.954C74.9943 31.954 75.8127 31.8023 76.601 31.0876C77.4043 30.3583 77.9651 29.2335 77.9651 27.44C77.9651 25.7222 77.3133 24.3239 75.9795 23.5033C75.2216 23.0319 74.2515 22.8346 73.1299 22.8346C72.7964 22.8346 72.4781 22.8497 72.2812 22.9408C72.2355 22.9713 72.1296 23.108 72.1296 23.1839C72.0992 23.488 72.0992 25.8286 72.0992 27.1967C72.0992 28.6102 72.0992 30.5862 72.1296 30.8142C72.1296 31.0423 72.2355 31.3918 72.463 31.5438H72.4628ZM69.0221 22.0896C69.3102 22.0896 70.4166 22.1352 70.9471 22.1352C71.9023 22.1352 72.5842 22.0898 74.3879 22.0898C75.9036 22.0898 77.1768 22.5001 78.0863 23.2752C79.1927 24.2328 79.7689 25.5552 79.7689 27.1662C79.7689 29.4614 78.7229 30.7839 77.677 31.5438C76.6314 32.3189 75.2671 32.7749 73.327 32.7749C72.2963 32.7749 70.5229 32.7445 69.0525 32.7292H69.0374C68.9617 32.5925 69.1586 32.0605 69.2798 32.0454C69.674 31.9997 69.7801 31.9844 69.9772 31.9087C70.2954 31.7869 70.3562 31.6198 70.4017 31.0574C70.447 30.0086 70.4319 28.7471 70.4319 27.3183C70.4319 26.3 70.447 24.3087 70.4166 23.6703C70.3713 23.1385 70.1439 23.0016 69.6891 22.9103C69.4618 22.8649 69.1586 22.8039 68.7343 22.7585C68.6736 22.6519 68.9464 22.1808 69.0221 22.0898V22.0896Z" fill="#8E714E"/>
<path fill-rule="evenodd" clip-rule="evenodd" d="M50.6817 32.1359C50.3028 32.0903 50.03 32.0297 49.6965 31.8777C49.651 31.8472 49.5751 31.6953 49.5751 31.6344C49.5449 31.1024 49.5449 29.5825 49.5449 28.5642C49.5449 27.7433 49.4086 27.029 49.0599 26.5275C48.6506 25.9497 48.0596 25.6155 47.3016 25.6155C46.6347 25.6155 45.7404 26.0714 44.9976 26.7098C44.9825 26.725 44.8613 26.8315 44.8764 26.6642C44.8764 26.497 44.9068 26.1626 44.9219 25.9345C44.9372 25.7217 44.8158 25.6155 44.8158 25.6155C44.3308 25.8586 42.9667 26.1778 42.4664 26.2233C42.1027 26.2995 42.0117 26.649 42.3908 26.7706H42.4059C42.8149 26.8921 43.0879 27.029 43.2999 27.1659C43.4515 27.2874 43.4364 27.4546 43.4364 27.5915C43.4515 28.7313 43.4515 30.4793 43.4062 31.4369C43.3911 31.8169 43.285 31.9536 43.012 32.0144L43.0424 31.9992C42.8302 32.0449 42.6635 32.0903 42.4058 32.1208C42.3148 32.212 42.3148 32.6984 42.4058 32.8048C42.5725 32.8048 43.4515 32.7592 44.1793 32.7592C45.1796 32.7592 45.695 32.8048 45.9526 32.8048C46.0587 32.6833 46.0891 32.2272 46.0285 32.1208C45.7404 32.1056 45.5282 32.0753 45.3312 32.0144C45.0584 31.9534 44.9825 31.8169 44.9672 31.4977C44.9372 30.6919 44.9372 28.9897 44.9372 27.8346C44.9372 27.5154 45.028 27.3634 45.1188 27.2721C45.4676 26.9682 46.0285 26.7554 46.5286 26.7554C47.0137 26.7554 47.3318 26.9074 47.5744 27.1051C47.9078 27.3785 48.0139 27.7738 48.0594 28.0625C48.1352 28.7161 48.1049 30.0081 48.1049 31.1329C48.1049 31.7408 48.0594 31.8928 47.8323 31.9688C47.726 32.0144 47.4532 32.0753 47.1349 32.1055C47.0288 32.212 47.0591 32.6833 47.1349 32.7897C47.5744 32.7897 48.0898 32.744 48.8477 32.744C49.7874 32.744 50.3938 32.7897 50.6364 32.7897C50.7119 32.6984 50.7423 32.2577 50.6817 32.1359ZM54.8803 26.33C54.0771 26.33 53.5768 26.9531 53.5768 27.9257C53.5768 28.9138 54.0163 30.0537 55.2592 30.0537C55.4714 30.0537 55.8656 29.9624 56.0473 29.7496C56.3354 29.4762 56.5325 28.9289 56.5325 28.3513C56.5325 27.0898 55.911 26.3298 54.8803 26.3298V26.33ZM54.7742 33.0479C54.4711 33.0479 54.2588 33.1392 54.1224 33.2153C53.4858 33.6254 53.1979 34.0207 53.1979 34.4921C53.1979 34.9327 53.3646 35.2822 53.7284 35.5862C54.1679 35.9662 54.7742 36.1487 55.5472 36.1487C57.0933 36.1487 57.7754 35.3127 57.7754 34.4921C57.7754 33.9143 57.4873 33.5343 56.8963 33.3217C56.4719 33.1392 55.6989 33.0479 54.7742 33.0479ZM54.8803 36.9999C53.9557 36.9999 53.2887 36.8023 52.7128 36.3615C52.1519 35.9359 51.9095 35.2975 51.9095 34.8567C51.9095 34.7352 51.9399 34.4007 52.2127 34.0968C52.3792 33.9143 52.7432 33.5648 53.6072 32.972C53.6374 32.9568 53.6525 32.9417 53.6525 32.911C53.6525 32.8807 53.6221 32.8503 53.5919 32.8353C52.8796 32.5617 52.6673 32.1208 52.6066 31.8777V31.8472C52.5916 31.756 52.5612 31.6649 52.6977 31.5736C52.8038 31.4977 52.9554 31.4064 53.122 31.3002C53.3797 31.148 53.6525 30.9808 53.8192 30.844C53.8496 30.8137 53.8496 30.7834 53.8496 30.7529C53.8496 30.7224 53.8192 30.6919 53.7888 30.677C52.7281 30.3273 52.1976 29.5368 52.1976 28.3513C52.1976 27.5762 52.5461 26.877 53.1675 26.4362C53.5919 26.1019 54.653 25.6914 55.3502 25.6914H55.3957C56.1081 25.7066 56.5021 25.8586 57.0629 26.0562C57.3661 26.1626 57.6542 26.2081 58.0484 26.2081C58.6393 26.2081 58.8971 26.0258 59.1091 25.8131C59.1244 25.8434 59.1548 25.9195 59.1699 26.117C59.185 26.3147 59.1244 26.6034 58.9728 26.8162C58.8516 26.9834 58.5787 27.1051 58.3059 27.1051H58.23C57.9572 27.0746 57.8358 27.0442 57.8358 27.0442L57.7754 27.0746C57.7603 27.1051 57.7754 27.1354 57.7905 27.181L57.8058 27.2115C57.836 27.3482 57.8966 27.7585 57.8966 27.8651C57.8966 29.1114 57.3965 29.6584 56.8659 30.0689C56.3505 30.4488 55.7595 30.6919 55.0925 30.7529C55.0774 30.7529 55.017 30.7529 54.8803 30.768C54.8046 30.768 54.6985 30.7834 54.6832 30.7834H54.6681C54.5469 30.8137 54.2438 30.9657 54.2438 31.2239C54.2438 31.4519 54.3801 31.7256 55.0319 31.7713C55.1682 31.7864 55.3046 31.7864 55.4563 31.8017C56.3203 31.8624 57.3965 31.9384 57.8966 32.1056C58.5938 32.3639 59.0334 32.9871 59.0334 33.732C59.0334 34.8569 58.2302 35.9056 56.8963 36.559C56.2446 36.8479 55.5927 36.9999 54.8803 36.9999ZM63.5199 26.4059C63.2017 26.4059 62.9137 26.4817 62.7014 26.6337C62.1105 26.9985 61.8073 27.7282 61.8073 28.792C61.8073 30.7834 62.8075 32.1817 64.2324 32.1817C64.6568 32.1817 64.9903 32.06 65.2782 31.8169C65.7177 31.4519 65.9452 30.7224 65.9452 29.704C65.9452 27.7282 64.9599 26.4057 63.5201 26.4057L63.5199 26.4059ZM63.7929 32.9112C61.2161 32.9112 60.2915 31.0113 60.2915 29.233C60.2915 27.9866 60.7917 27.029 61.792 26.345C62.5045 25.9042 63.3534 25.6611 64.1112 25.6611C66.0816 25.6611 67.4609 27.0746 67.4609 29.1114C67.4609 30.4945 66.9153 31.5888 65.8693 32.2577C65.3692 32.592 64.5052 32.9112 63.7927 32.9112H63.7929ZM36.7824 26.4057C36.4641 26.4057 36.1762 26.4817 35.9638 26.6337C35.3728 26.9985 35.0696 27.7282 35.0696 28.792C35.0696 30.7834 36.0699 32.1817 37.4948 32.1817C37.9192 32.1817 38.2527 32.06 38.5408 31.8169C38.9801 31.4519 39.2076 30.7224 39.2076 29.704C39.2076 27.7282 38.2375 26.4057 36.7824 26.4057ZM37.0553 32.9112C34.4785 32.9112 33.5539 31.0113 33.5539 29.233C33.5539 27.9866 34.0541 27.029 35.0544 26.345C35.7669 25.9042 36.6157 25.6611 37.3736 25.6611C39.3441 25.6611 40.7233 27.0746 40.7233 29.1114C40.7233 30.4945 40.1777 31.5888 39.1317 32.2577C38.6467 32.592 37.7827 32.9112 37.0553 32.9112ZM19.7304 32.7592C19.7 32.7137 19.6696 32.5769 19.6849 32.4097C19.6849 32.288 19.7153 32.212 19.7304 32.1817C20.0487 32.1359 20.2154 32.0903 20.3972 32.0449C20.7005 31.9688 20.8217 31.8017 20.8368 31.4218C20.8824 30.5098 20.8824 28.7769 20.8672 27.5762V27.5457C20.8672 27.409 20.8672 27.2416 20.7005 27.1201C20.4579 26.9682 20.1699 26.8315 19.791 26.7248C19.6547 26.6795 19.5637 26.6034 19.5788 26.5123C19.5788 26.4211 19.6698 26.3147 19.8669 26.2842C20.367 26.2386 21.6704 25.9195 22.1858 25.6914C22.2162 25.7217 22.2617 25.8131 22.2617 25.9347L22.2466 26.1017C22.2313 26.269 22.2162 26.4667 22.2162 26.6642C22.2162 26.725 22.2769 26.7706 22.3374 26.7706C22.3678 26.7706 22.3982 26.7554 22.4284 26.7401C23.3984 25.9801 24.2775 25.7066 24.7322 25.7066C25.4751 25.7066 26.0511 26.0562 26.4906 26.7857C26.5209 26.8315 26.5512 26.8467 26.5967 26.8467C26.627 26.8467 26.6723 26.8315 26.6876 26.801C27.5819 26.117 28.4763 25.7066 29.0672 25.7066C30.4768 25.7066 31.3106 26.7554 31.3106 28.5338C31.3106 29.0353 31.3106 29.6889 31.2955 30.2818C31.2955 30.8137 31.2804 31.3 31.2804 31.6497C31.2804 31.7255 31.3863 31.9688 31.553 32.0144C31.7652 32.1208 32.0533 32.1664 32.4323 32.2272H32.4474C32.4778 32.3336 32.4171 32.7287 32.3565 32.8048C32.2655 32.8048 32.1291 32.8048 31.9776 32.7897C31.5939 32.7696 31.2098 32.7594 30.8256 32.7592C29.8859 32.7592 29.4008 32.7743 28.9308 32.8048C28.9007 32.6833 28.8854 32.3184 28.9308 32.2272C29.2037 32.1817 29.3401 32.1359 29.5069 32.0905C29.8102 31.9992 29.8859 31.8624 29.9011 31.4672C29.9011 31.1785 29.9616 28.7161 29.8706 28.1233C29.7798 27.5154 29.325 26.801 28.3245 26.801C27.9456 26.801 27.3546 26.9531 26.7786 27.3937C26.7483 27.4241 26.7178 27.5001 26.7178 27.5457V27.561C26.7786 27.88 26.7786 28.245 26.7786 28.8074V29.7953C26.7786 30.4793 26.7633 31.1177 26.7786 31.6039C26.7786 31.9384 26.9757 32.0144 27.1424 32.0753C27.2334 32.0903 27.2938 32.1056 27.3697 32.1208C27.506 32.1513 27.6425 32.1817 27.8547 32.2272C27.8851 32.2881 27.8851 32.4856 27.8396 32.6528C27.8244 32.744 27.794 32.7895 27.7789 32.8048C27.2636 32.7897 26.7331 32.7743 25.9601 32.7743C25.7328 32.7743 25.3386 32.7897 25.0051 32.7897C24.7322 32.7897 24.4746 32.8048 24.3232 32.8048C24.3079 32.7743 24.2775 32.6681 24.2775 32.5008C24.2775 32.3641 24.3079 32.2577 24.3383 32.2272C24.414 32.212 24.4746 32.1969 24.5505 32.1969C24.7322 32.1664 24.8839 32.1359 25.0354 32.1056C25.2932 32.0297 25.3841 31.8928 25.3992 31.5585C25.4447 30.7985 25.4902 28.625 25.3841 28.0777C25.2023 27.1962 24.7021 26.7554 23.8986 26.7554C23.4288 26.7554 22.8375 26.9834 22.3527 27.3484C22.2768 27.409 22.2162 27.5608 22.2162 27.6977V28.5946C22.2162 29.6889 22.2162 31.0569 22.2313 31.6497C22.2466 31.8319 22.307 32.0448 22.6557 32.1208C22.7316 32.1359 22.8528 32.1664 23.0044 32.1817L23.2771 32.2272C23.3076 32.3184 23.2923 32.6833 23.2317 32.8048C23.0801 32.8048 22.8983 32.7897 22.6859 32.7897C22.3678 32.7743 21.9585 32.7592 21.5038 32.7592C20.9733 32.7592 20.5944 32.7743 20.2911 32.7897C20.0789 32.7592 19.9122 32.7592 19.7304 32.7592Z" fill="#442D22"/>
<path fill-rule="evenodd" clip-rule="evenodd" d="M11.7573 36.4075L11.136 36.1945C11.136 36.1945 11.2119 33.018 10.0749 32.79C9.31723 31.9083 10.1965 -4.60081 12.9247 32.6683C12.9247 32.6683 11.9848 33.1394 11.8181 33.9451C11.6361 34.7355 11.7573 36.4075 11.7573 36.4075Z" fill="white"/>
<path fill-rule="evenodd" clip-rule="evenodd" d="M11.7573 36.4075L11.136 36.1945C11.136 36.1945 11.2119 33.018 10.0749 32.79C9.31723 31.9083 10.1965 -4.60081 12.9247 32.6683C12.9247 32.6683 11.9848 33.1394 11.8181 33.9451C11.6361 34.7355 11.7573 36.4075 11.7573 36.4075Z" fill="#A6A385"/>
<path fill-rule="evenodd" clip-rule="evenodd" d="M12.0912 33.3371C12.0912 33.3371 17.5328 29.7499 16.2594 22.2868C15.0318 16.8608 12.1367 15.0825 11.8184 14.3985C11.4698 13.9121 11.1362 13.061 11.1362 13.061L11.3637 28.1539C11.3637 28.1692 10.8938 32.7746 12.0914 33.3372" fill="white"/>
<path fill-rule="evenodd" clip-rule="evenodd" d="M12.0912 33.3371C12.0912 33.3371 17.5328 29.7499 16.2594 22.2868C15.0318 16.8608 12.1367 15.0825 11.8184 14.3985C11.4698 13.9121 11.1362 13.061 11.1362 13.061L11.3637 28.1539C11.3637 28.1692 10.8938 32.7746 12.0914 33.3372" fill="#499D4A"/>
<path fill-rule="evenodd" clip-rule="evenodd" d="M10.818 33.5345C10.818 33.5345 5.70978 30.0385 6.01298 23.8829C6.30092 17.7271 9.90836 14.7024 10.6056 14.1553C11.0604 13.6689 11.0755 13.4864 11.1059 13C11.4242 13.684 11.3636 23.2293 11.409 24.354C11.5453 28.6858 11.1665 32.7139 10.818 33.5345Z" fill="white"/>
<path fill-rule="evenodd" clip-rule="evenodd" d="M10.818 33.5345C10.818 33.5345 5.70978 30.0385 6.01298 23.8829C6.30092 17.7271 9.90836 14.7024 10.6056 14.1553C11.0604 13.6689 11.0755 13.4864 11.1059 13C11.4242 13.684 11.3636 23.2293 11.409 24.354C11.5453 28.6858 11.1665 32.7139 10.818 33.5345Z" fill="#58AA50"/>
</svg>
