<svg width="96" height="50" viewBox="0 0 96 50" fill="none" xmlns="http://www.w3.org/2000/svg">
<path d="M31.6654 42.2622H29.3117C29.2285 38.2343 28.9992 34.4476 28.6245 30.8993H28.6035L25.02 42.2622H23.2279L19.6657 30.8993H19.6453C19.381 34.3061 19.2146 38.0937 19.1454 42.2622H17C17.1383 37.1931 17.4858 32.4408 18.0411 28.0049H20.9584L24.3536 38.481H24.3746L27.7908 28.0049H30.582C31.1933 33.2008 31.5545 37.9535 31.6654 42.2622ZM41.8731 31.7432C40.9148 37.0156 39.6504 40.8465 38.0812 43.2379C36.8586 45.0787 35.5192 46 34.0606 46C33.6717 46 33.1918 45.881 32.6233 45.6449V44.3736C32.9012 44.4142 33.2273 44.4373 33.6021 44.4373C34.2834 44.4373 34.831 44.2473 35.2486 43.8664C35.748 43.4025 35.9977 42.881 35.9977 42.3041C35.9977 41.9085 35.803 41.0997 35.4146 39.875L32.8316 31.7427H35.1439L36.9978 37.8248C37.4144 39.2059 37.5882 40.1701 37.5186 40.7193C38.5324 37.9742 39.2406 34.9811 39.644 31.7422H41.8731V31.7432Z" fill="#5D87A1"/>
<path d="M73.2037 42.2621H66.5178V28.0048H68.7669V40.5071H73.2037V42.2621ZM64.7676 42.6066L62.1824 41.3132C62.4116 41.1223 62.6308 40.9157 62.8282 40.6764C63.9271 39.3677 64.4752 37.4324 64.4752 34.869C64.4752 30.1523 62.6495 27.7927 58.9968 27.7927C57.2057 27.7927 55.8084 28.3913 54.8092 29.5888C53.7112 30.8984 53.1632 32.8267 53.1632 35.3763C53.1632 37.8824 53.6489 39.7209 54.6209 40.8871C55.5101 41.9435 56.8504 42.4724 58.6429 42.4724C59.3115 42.4724 59.9251 42.3894 60.484 42.222L63.8498 44.2085L64.7676 42.6066ZM56.3929 39.4092C55.8234 38.4805 55.5387 36.9893 55.5387 34.9331C55.5387 31.3433 56.6144 29.5464 58.768 29.5464C59.8937 29.5464 60.7187 29.9761 61.2463 30.8338C61.8149 31.7639 62.101 33.2418 62.101 35.2693C62.101 38.8886 61.0244 40.6985 58.8721 40.6985C57.746 40.6989 56.9209 40.2706 56.3929 39.4092ZM52.183 38.3104C52.183 39.5194 51.7455 40.5113 50.8713 41.2883C49.9962 42.062 48.8227 42.4498 47.3523 42.4498C45.9769 42.4498 44.6433 42.0044 43.3525 41.1181L43.957 39.8938C45.0677 40.4578 46.0733 40.7381 46.9761 40.7381C47.8235 40.7381 48.4857 40.5477 48.966 40.17C49.4459 39.791 49.7319 39.2593 49.7319 38.587C49.7319 37.74 49.1493 37.016 48.0805 36.4096C47.0949 35.8609 45.1236 34.7136 45.1236 34.7136C44.0552 33.9242 43.5204 33.0767 43.5204 31.6804C43.5204 30.5248 43.9193 29.592 44.7175 28.8823C45.5166 28.1699 46.5477 27.8149 47.8117 27.8149C49.117 27.8149 50.3037 28.1695 51.3725 28.8713L50.8303 30.096C49.9161 29.7022 49.0138 29.5053 48.1237 29.5053C47.4028 29.5053 46.8461 29.681 46.459 30.0338C46.0688 30.3851 45.8282 30.8347 45.8282 31.3862C45.8282 32.2291 46.4231 32.9623 47.521 33.5807C48.5198 34.1303 50.5402 35.2974 50.5402 35.2974C51.6358 36.0855 52.183 36.9252 52.183 38.3104Z" fill="#F8981D"/>
<path d="M76.0273 23.2295C74.6674 23.1945 73.6144 23.3333 72.7307 23.7123C72.4756 23.8156 72.0699 23.8156 72.0344 24.1426C72.1722 24.2809 72.1881 24.5041 72.3077 24.695C72.5115 25.0394 72.8667 25.5029 73.191 25.7445C73.5471 26.0212 73.9046 26.2951 74.2794 26.5362C74.9403 26.9508 75.6894 27.1919 76.3334 27.6051C76.7086 27.8453 77.0816 28.1561 77.4573 28.4148C77.6419 28.5527 77.7602 28.7763 77.9999 28.8626V28.81C77.8798 28.6551 77.8457 28.431 77.7279 28.2585L77.2176 27.7596C76.7245 27.0882 76.1119 26.5021 75.451 26.0207C74.9071 25.6407 73.7172 25.1243 73.4966 24.4889L73.4621 24.4538C73.8359 24.4183 74.2794 24.2809 74.6346 24.1753C75.2127 24.0208 75.7398 24.0559 76.3329 23.9014C76.6058 23.8322 76.8765 23.7455 77.1503 23.6602V23.5048C76.8428 23.1945 76.6236 22.7823 76.3002 22.489C75.4351 21.7314 74.4818 20.9904 73.4966 20.3702C72.969 20.0248 72.2904 19.8025 71.7287 19.5088C71.5263 19.405 71.1852 19.3539 71.066 19.1814C70.7613 18.8024 70.5898 18.3034 70.3688 17.8548C69.8776 16.9081 69.4005 15.8577 68.9766 14.8566C68.67 14.1852 68.4835 13.5147 68.1097 12.8936C66.3586 9.96549 64.457 8.19203 61.5342 6.45131C60.9061 6.08888 60.1588 5.9344 59.3606 5.74442L58.0857 5.67618C57.8138 5.55536 57.5413 5.22751 57.3039 5.07257C56.3342 4.45283 53.8377 3.10959 53.1245 4.88305C52.6651 6.00403 53.804 7.1061 54.1952 7.67466C54.484 8.06938 54.8583 8.5185 55.0602 8.96671C55.1799 9.25952 55.2135 9.57031 55.3331 9.87972C55.6051 10.6378 55.8594 11.4812 56.2169 12.1885C56.4033 12.5491 56.6066 12.9282 56.845 13.2546C56.9814 13.4455 57.2188 13.5299 57.2707 13.8412C57.0337 14.1843 57.0151 14.7021 56.8791 15.1328C56.2678 17.0792 56.5066 19.4903 57.373 20.9207C57.6441 21.3514 58.2909 22.2995 59.156 21.9361C59.9219 21.6262 59.7522 20.6445 59.9724 19.7836C60.0229 19.5756 59.9896 19.4392 60.0915 19.3027V19.3363C60.3285 19.8182 60.5677 20.2825 60.7874 20.7658C61.3146 21.6092 62.2324 22.4881 62.997 23.0723C63.404 23.384 63.7265 23.9171 64.2364 24.1075V24.0559H64.2027C64.0995 23.9014 63.9485 23.8322 63.8129 23.7123C63.5064 23.402 63.1671 23.023 62.9292 22.679C62.2169 21.7139 61.5865 20.6454 61.0271 19.5429C60.7533 19.008 60.5172 18.4233 60.2967 17.8893C60.1939 17.6832 60.1939 17.3724 60.0233 17.2687C59.7677 17.6473 59.3952 17.9751 59.2087 18.439C58.8853 19.1809 58.8517 20.0935 58.7316 21.0425L58.6647 21.0757C58.1235 20.9378 57.9352 20.3702 57.7296 19.8883C57.2207 18.6645 57.1352 16.7001 57.5768 15.2882C57.695 14.9271 58.2067 13.79 58.0025 13.446C57.9002 13.1163 57.56 12.9286 57.3735 12.669C57.1543 12.3426 56.9141 11.9294 56.7613 11.567C56.3538 10.6028 56.1486 9.53435 55.7097 8.57061C55.5046 8.12148 55.1485 7.65668 54.8601 7.24305C54.5363 6.77825 54.1801 6.45085 53.9241 5.89982C53.8395 5.7103 53.7208 5.40043 53.8568 5.19431C53.89 5.05597 53.9591 5.00433 54.0946 4.96974C54.3148 4.78115 54.9438 5.02093 55.1644 5.12468C55.7943 5.3829 56.321 5.62407 56.8468 5.98558C57.0847 6.1585 57.3398 6.4859 57.645 6.57213H58.0025C58.5451 6.69202 59.1569 6.60533 59.6676 6.76119C60.5677 7.05446 61.3832 7.48468 62.1146 7.94902C64.3401 9.37987 66.1753 11.4129 67.4142 13.8412C67.6175 14.2368 67.704 14.5993 67.8895 15.012C68.2475 15.8567 68.69 16.7181 69.0452 17.5449C69.4023 18.3541 69.7425 19.1805 70.2524 19.8528C70.5066 20.2143 71.5282 20.4038 71.9862 20.5933C72.325 20.7478 72.8526 20.8852 73.1582 21.0747C73.7363 21.4358 74.3121 21.8503 74.8557 22.2474C75.1263 22.4539 75.9768 22.8846 76.0273 23.2295ZM58.6957 8.25982C58.4611 8.25735 58.2272 8.2865 58.0002 8.34651V8.38109H58.033C58.1699 8.65638 58.4078 8.84728 58.5774 9.08752C58.7143 9.36373 58.833 9.63764 58.9672 9.91339L58.9999 9.87926C59.2396 9.70727 59.3588 9.43152 59.3588 9.0179C59.2556 8.89616 59.2396 8.77719 59.1537 8.65638C59.0536 8.48392 58.833 8.39815 58.6957 8.25982Z" fill="#5D87A1"/>
<path d="M77.6456 42.2599H77.9977V40.5132H77.4696L77.0389 41.7051L76.5709 40.5132H76.0624V42.2599H76.3949V40.9309H76.4135L76.9038 42.2599H77.1572L77.6456 40.9309V42.2599ZM74.8098 42.2599H75.1823V40.8092H75.6699V40.5127H74.3018V40.8092H74.8089L74.8098 42.2599Z" fill="#F8981D"/>
</svg>
