<svg width="96" height="50" viewBox="0 0 96 50" fill="none" xmlns="http://www.w3.org/2000/svg">
<path fill-rule="evenodd" clip-rule="evenodd" d="M48.3925 15C48.3398 15.0007 48.2865 15.0129 48.2396 15.0399C48.1457 15.0938 48.0866 15.1927 48.0866 15.2991V22.9259C48.0866 23.0009 48.0509 23.0678 47.9847 23.1054C47.9183 23.1431 47.8372 23.1431 47.7706 23.1054L46.4963 22.3876C46.3064 22.2805 46.0745 22.2806 45.8846 22.3876L40.7976 25.2589C40.6074 25.3662 40.4917 25.5726 40.4917 25.7873V31.5298C40.4917 31.7443 40.6075 31.9407 40.7976 32.0482L45.8846 34.9195C46.0748 35.0268 46.3061 35.0268 46.4963 34.9195L51.5833 32.0482C51.7734 31.9407 51.8892 31.7443 51.8892 31.5298V17.2133C51.8892 16.9955 51.7677 16.7911 51.5732 16.6849L48.5454 15.0299C48.4978 15.004 48.4451 14.9995 48.3925 15V15ZM15.6681 22.1682C15.5711 22.1721 15.48 22.1886 15.3929 22.238L10.3058 25.1093C10.1163 25.2165 10 25.4117 10 25.6277L10.0102 33.3343C10.0102 33.4415 10.0667 33.541 10.1631 33.5936C10.2575 33.6488 10.3748 33.6488 10.4689 33.5936L13.4865 31.8987C13.6776 31.7876 13.8025 31.5944 13.8025 31.3802V27.7812C13.8025 27.5665 13.918 27.3695 14.1084 27.2628L15.3929 26.535C15.4887 26.4808 15.5917 26.4552 15.6987 26.4552C15.8035 26.4552 15.9113 26.4808 16.0045 26.535L17.289 27.2628C17.4794 27.3695 17.5949 27.5665 17.5949 27.7812V31.3802C17.5949 31.5944 17.721 31.7889 17.9109 31.8987L20.9285 33.5936C21.0232 33.6488 21.1403 33.6488 21.2343 33.5936C21.328 33.541 21.3872 33.4415 21.3872 33.3343L21.3974 25.6277C21.3974 25.4117 21.2824 25.2165 21.0916 25.1093L16.0045 22.238C15.9185 22.1886 15.8269 22.1721 15.7293 22.1682H15.6681H15.6681ZM61.3803 22.238C61.274 22.2379 61.1698 22.2642 61.0744 22.3178L55.9874 25.1891C55.7973 25.2964 55.6815 25.4928 55.6815 25.7075V31.45C55.6815 31.666 55.8059 31.8618 55.9976 31.9685L61.0438 34.7799C61.2302 34.884 61.4577 34.8918 61.6453 34.7898L64.7037 33.1249C64.8007 33.0722 64.8664 32.9739 64.8668 32.8657C64.8674 32.7574 64.8097 32.6603 64.7139 32.6064L59.5962 29.7352C59.5004 29.6817 59.4331 29.5734 59.4331 29.466V27.6714C59.4331 27.5641 59.5012 27.4658 59.5962 27.4122L61.1866 26.5149C61.2812 26.4614 61.3974 26.4614 61.4924 26.5149L63.0827 27.4122C63.1778 27.4658 63.2357 27.5641 63.2357 27.6714V29.0871C63.2357 29.1946 63.2936 29.2928 63.3886 29.3463C63.484 29.4001 63.5994 29.4003 63.6944 29.3463L66.7426 27.6116C66.9318 27.5041 67.0484 27.3072 67.0484 27.0932V25.7074C67.0484 25.4934 66.9322 25.2965 66.7426 25.189L61.6861 22.3177C61.5909 22.2637 61.4865 22.2381 61.3803 22.2379V22.238ZM46.1701 26.525C46.1966 26.525 46.2278 26.5314 46.2516 26.5448L47.9949 27.5318C48.0422 27.5586 48.0764 27.608 48.0764 27.6614V29.6354C48.0764 29.689 48.0425 29.7384 47.9949 29.765L46.2516 30.752C46.2042 30.7785 46.1462 30.7785 46.0987 30.752L44.3554 29.765C44.308 29.7382 44.2739 29.689 44.2739 29.6354V27.6614C44.2739 27.608 44.3081 27.5587 44.3554 27.5318L46.0987 26.545C46.1225 26.5316 46.1435 26.5252 46.1701 26.5252V26.525Z" fill="#404137"/>
<path fill-rule="evenodd" clip-rule="evenodd" d="M76.621 22.0984C76.4447 22.0984 76.2732 22.1341 76.1215 22.218L71.3199 24.9298C71.0092 25.1047 70.8204 25.4355 70.8204 25.7872V31.2008C70.8204 31.5523 71.0092 31.8826 71.3199 32.0581L72.5738 32.766C73.1831 33.0596 73.4077 33.0551 73.685 33.0551C74.587 33.0551 75.1021 32.5198 75.1021 31.5896V26.2458C75.1021 26.1702 75.0352 26.1162 74.9593 26.1162H74.3579C74.2808 26.1162 74.2151 26.1702 74.2151 26.2458V31.5896C74.2151 32.0019 73.776 32.4166 73.0632 32.0681L71.7583 31.3204C71.7122 31.2958 71.6767 31.2525 71.6767 31.2008V25.7872C71.6767 25.7358 71.7118 25.6836 71.7583 25.6576L76.5497 22.9558C76.5945 22.9306 76.648 22.9306 76.6924 22.9558L81.4838 25.6576C81.5295 25.6844 81.5654 25.7342 81.5654 25.7872V31.2008C81.5654 31.2525 81.5389 31.3054 81.494 31.3303L76.6924 34.0321C76.6512 34.0561 76.5945 34.0561 76.5497 34.0321L75.3162 33.3143C75.2795 33.2933 75.2293 33.2949 75.1938 33.3143C74.8533 33.5031 74.7893 33.5251 74.47 33.6334C74.3913 33.6602 74.2718 33.7019 74.5108 33.8328L76.1215 34.7599C76.2748 34.8467 76.4457 34.8895 76.621 34.8895C76.7988 34.8895 76.9673 34.8467 77.1206 34.7599L81.9222 32.0581C82.2329 31.8814 82.4217 31.5523 82.4217 31.2008V25.7872C82.4217 25.4355 82.2329 25.1055 81.9222 24.9298L77.1206 22.218C76.9701 22.1341 76.7974 22.0984 76.621 22.0984ZM30.9497 22.208C30.8437 22.208 30.7388 22.2342 30.6439 22.2878L25.5568 25.1491C25.3666 25.2563 25.251 25.463 25.251 25.6775V31.4201C25.251 31.6348 25.3667 31.8311 25.5568 31.9385L30.6439 34.8098C30.8341 34.9172 31.0653 34.9172 31.2555 34.8098L36.3426 31.9385C36.5324 31.8311 36.6484 31.6348 36.6484 31.4201V25.6775C36.6484 25.4627 36.5328 25.2563 36.3426 25.1491L31.2555 22.2878C31.1606 22.2342 31.0557 22.208 30.9497 22.208ZM83.747 22.238V22.3776H84.1446V23.4045H84.3077V22.3776H84.7155V22.238H83.747ZM84.8582 22.238V23.4045H85.0111V22.7166C85.0111 22.6885 85.0124 22.6451 85.0111 22.587C85.0092 22.5278 85.0111 22.4762 85.0111 22.4474V22.4174L85.3475 23.4044H85.5106L85.8573 22.4174C85.8573 22.4802 85.8487 22.5408 85.8471 22.5968C85.8464 22.6514 85.8471 22.6924 85.8471 22.7165V23.4044H86V22.2379H85.7757L85.4291 23.225L85.0927 22.2379L84.8582 22.238ZM77.9056 25.9667C76.5383 25.9667 75.7239 26.5358 75.7239 27.4821C75.7239 28.5087 76.5322 28.7908 77.8444 28.9177C79.4143 29.068 79.5367 29.2935 79.5367 29.5957C79.5367 30.1199 79.1093 30.3434 78.0993 30.3434C76.8302 30.3434 76.5513 30.0336 76.4579 29.4162C76.4469 29.35 76.3947 29.2966 76.3254 29.2966H75.7035C75.6269 29.2966 75.5608 29.3611 75.5608 29.4362C75.5608 30.2264 76.0004 31.1609 78.0993 31.1609C79.6186 31.1609 80.495 30.5777 80.495 29.5558C80.495 28.5427 79.787 28.2708 78.3133 28.0803C76.8241 27.8876 76.6822 27.7933 76.6822 27.4522C76.6822 27.1707 76.8025 26.7942 77.9056 26.7942C78.8908 26.7942 79.2549 27.002 79.4041 27.6516C79.4172 27.7127 79.4722 27.7613 79.5367 27.7613H80.1585C80.1969 27.7613 80.234 27.7383 80.2605 27.7114C80.2866 27.6827 80.3049 27.6503 80.3013 27.6117C80.205 26.4929 79.4421 25.9667 77.9056 25.9667ZM61.3701 27.3326C61.3498 27.3326 61.3273 27.3326 61.3089 27.3425L60.3302 27.9008C60.2935 27.9212 60.2691 27.9592 60.2691 28.0005V29.0971C60.2691 29.1384 60.2935 29.1762 60.3302 29.1968L61.3089 29.7451C61.3456 29.7659 61.3848 29.7659 61.4211 29.7451L62.3997 29.1968C62.436 29.1764 62.4609 29.1384 62.4609 29.0971V28.0005C62.4609 27.9592 62.436 27.9213 62.3997 27.9008L61.4211 27.3425C61.4029 27.3319 61.3904 27.3326 61.3701 27.3326Z" fill="#83CD29"/>
</svg>
