<svg width="96" height="50" viewBox="0 0 96 50" fill="none" xmlns="http://www.w3.org/2000/svg">
<path fill-rule="evenodd" clip-rule="evenodd" d="M48.3925 15C48.3398 15.0007 48.2865 15.0129 48.2396 15.0399C48.1457 15.0938 48.0866 15.1927 48.0866 15.2991V22.9259C48.0866 23.0009 48.0509 23.0678 47.9847 23.1054C47.9183 23.1431 47.8372 23.1431 47.7706 23.1054L46.4963 22.3876C46.3064 22.2805 46.0745 22.2806 45.8846 22.3876L40.7976 25.2589C40.6074 25.3662 40.4917 25.5726 40.4917 25.7873V31.5298C40.4917 31.7443 40.6075 31.9407 40.7976 32.0482L45.8846 34.9195C46.0748 35.0268 46.3061 35.0268 46.4963 34.9195L51.5833 32.0482C51.7734 31.9407 51.8892 31.7443 51.8892 31.5298V17.2133C51.8892 16.9955 51.7677 16.7911 51.5732 16.6849L48.5454 15.0299C48.4978 15.004 48.4451 14.9995 48.3925 15V15ZM15.6681 22.1682C15.5711 22.1721 15.48 22.1886 15.3929 22.238L10.3058 25.1093C10.1163 25.2165 10 25.4117 10 25.6277L10.0102 33.3343C10.0102 33.4415 10.0667 33.541 10.1631 33.5936C10.2575 33.6488 10.3748 33.6488 10.4689 33.5936L13.4865 31.8987C13.6776 31.7876 13.8025 31.5944 13.8025 31.3802V27.7812C13.8025 27.5665 13.918 27.3695 14.1084 27.2628L15.3929 26.535C15.4887 26.4808 15.5917 26.4552 15.6987 26.4552C15.8035 26.4552 15.9113 26.4808 16.0045 26.535L17.289 27.2628C17.4794 27.3695 17.5949 27.5665 17.5949 27.7812V31.3802C17.5949 31.5944 17.721 31.7889 17.9109 31.8987L20.9285 33.5936C21.0232 33.6488 21.1403 33.6488 21.2343 33.5936C21.328 33.541 21.3872 33.4415 21.3872 33.3343L21.3974 25.6277C21.3974 25.4117 21.2824 25.2165 21.0916 25.1093L16.0045 22.238C15.9185 22.1886 15.8269 22.1721 15.7293 22.1682H15.6681H15.6681ZM61.3803 22.238C61.274 22.2379 61.1698 22.2642 61.0744 22.3178L55.9874 25.1891C55.7973 25.2964 55.6815 25.4928 55.6815 25.7075V31.45C55.6815 31.666 55.8059 31.8618 55.9976 31.9685L61.0438 34.7799C61.2302 34.884 61.4577 34.8918 61.6453 34.7898L64.7037 33.1249C64.8007 33.0722 64.8664 32.9739 64.8668 32.8657C64.8674 32.7574 64.8097 32.6603 64.7139 32.6064L59.5962 29.7352C59.5004 29.6817 59.4331 29.5734 59.4331 29.466V27.6714C59.4331 27.5641 59.5012 27.4658 59.5962 27.4122L61.1866 26.5149C61.2812 26.4614 61.3974 26.4614 61.4924 26.5149L63.0827 27.4122C63.1778 27.4658 63.2357 27.5641 63.2357 27.6714V29.0871C63.2357 29.1946 63.2936 29.2928 63.3886 29.3463C63.484 29.4001 63.5994 29.4003 63.6944 29.3463L66.7426 27.6116C66.9318 27.5041 67.0484 27.3072 67.0484 27.0932V25.7074C67.0484 25.4934 66.9322 25.2965 66.7426 25.189L61.6861 22.3177C61.5909 22.2637 61.4865 22.2381 61.3803 22.2379V22.238ZM46.1701 26.525C46.1966 26.525 46.2278 26.5314 46.2516 26.5448L47.9949 27.5318C48.0422 27.5586 48.0764 27.608 48.0764 27.6614V29.6354C48.0764 29.689 48.0425 29.7384 47.9949 29.765L46.2516 30.752C46.2042 30.7785 46.1462 30.7785 46.0987 30.752L44.3554 29.765C44.308 29.7382 44.2739 29.689 44.2739 29.6354V27.6614C44.2739 27.608 44.3081 27.5587 44.3554 27.5318L46.0987 26.545C46.1225 26.5316 46.1435 26.5252 46.1701 26.5252V26.525Z" fill="#B1B0B1"/>
<path fill-rule="evenodd" clip-rule="evenodd" d="M76.621 22.0985C76.4447 22.0985 76.2732 22.1342 76.1215 22.2182L71.3199 24.9299C71.0092 25.1049 70.8204 25.4356 70.8204 25.7873V31.2009C70.8204 31.5524 71.0092 31.8827 71.3199 32.0582L72.5738 32.7661C73.1831 33.0597 73.4077 33.0552 73.685 33.0552C74.587 33.0552 75.1021 32.52 75.1021 31.5897V26.2459C75.1021 26.1704 75.0352 26.1163 74.9593 26.1163H74.3579C74.2808 26.1163 74.2151 26.1704 74.2151 26.2459V31.5897C74.2151 32.002 73.776 32.4167 73.0632 32.0682L71.7583 31.3205C71.7122 31.2959 71.6767 31.2526 71.6767 31.2009V25.7873C71.6767 25.7359 71.7118 25.6837 71.7583 25.6577L76.5497 22.9559C76.5945 22.9307 76.648 22.9307 76.6924 22.9559L81.4838 25.6577C81.5295 25.6845 81.5654 25.7343 81.5654 25.7873V31.2009C81.5654 31.2526 81.5389 31.3055 81.494 31.3305L76.6924 34.0323C76.6512 34.0562 76.5945 34.0562 76.5497 34.0323L75.3162 33.3145C75.2795 33.2934 75.2293 33.295 75.1938 33.3145C74.8533 33.5032 74.7893 33.5252 74.47 33.6335C74.3913 33.6603 74.2718 33.702 74.5108 33.8329L76.1215 34.76C76.2748 34.8468 76.4457 34.8896 76.621 34.8896C76.7988 34.8896 76.9673 34.8468 77.1206 34.76L81.9222 32.0582C82.2329 31.8815 82.4217 31.5524 82.4217 31.2009V25.7873C82.4217 25.4356 82.2329 25.1056 81.9222 24.9299L77.1206 22.2182C76.9701 22.1342 76.7974 22.0985 76.621 22.0985ZM30.9497 22.2082C30.8437 22.2082 30.7388 22.2343 30.6439 22.2879L25.5568 25.1492C25.3666 25.2564 25.251 25.4631 25.251 25.6776V31.4202C25.251 31.6349 25.3667 31.8312 25.5568 31.9386L30.6439 34.8099C30.8341 34.9173 31.0653 34.9173 31.2555 34.8099L36.3426 31.9386C36.5324 31.8312 36.6484 31.6349 36.6484 31.4202V25.6776C36.6484 25.4628 36.5328 25.2564 36.3426 25.1492L31.2555 22.2879C31.1606 22.2343 31.0557 22.2082 30.9497 22.2082ZM83.747 22.2382V22.3777H84.1446V23.4046H84.3077V22.3777H84.7155V22.2382H83.747ZM84.8582 22.2382V23.4046H85.0111V22.7167C85.0111 22.6886 85.0124 22.6452 85.0111 22.5871C85.0092 22.5279 85.0111 22.4763 85.0111 22.4475V22.4175L85.3475 23.4045H85.5106L85.8573 22.4175C85.8573 22.4803 85.8487 22.5409 85.8471 22.597C85.8464 22.6515 85.8471 22.6925 85.8471 22.7166V23.4045H86V22.2381H85.7757L85.4291 23.2251L85.0927 22.2381H84.8582L84.8582 22.2382ZM77.9056 25.9668C76.5383 25.9668 75.7239 26.5359 75.7239 27.4822C75.7239 28.5088 76.5322 28.7909 77.8444 28.9179C79.4143 29.0682 79.5367 29.2936 79.5367 29.5958C79.5367 30.12 79.1093 30.3435 78.0993 30.3435C76.8302 30.3435 76.5513 30.0337 76.4579 29.4163C76.4469 29.3501 76.3947 29.2967 76.3254 29.2967H75.7035C75.6269 29.2967 75.5608 29.3612 75.5608 29.4363C75.5608 30.2265 76.0004 31.1611 78.0993 31.1611C79.6186 31.1611 80.495 30.5778 80.495 29.5559C80.495 28.5429 79.787 28.271 78.3133 28.0804C76.8241 27.8877 76.6822 27.7934 76.6822 27.4523C76.6822 27.1708 76.8025 26.7943 77.9056 26.7943C78.8908 26.7943 79.2549 27.0021 79.4041 27.6517C79.4172 27.7128 79.4722 27.7614 79.5367 27.7614H80.1585C80.1969 27.7614 80.234 27.7384 80.2605 27.7115C80.2866 27.6828 80.3049 27.6504 80.3013 27.6118C80.205 26.493 79.4421 25.9668 77.9056 25.9668ZM61.3701 27.3327C61.3498 27.3327 61.3273 27.3327 61.3089 27.3426L60.3302 27.9009C60.2935 27.9213 60.2691 27.9593 60.2691 28.0006V29.0972C60.2691 29.1385 60.2935 29.1764 60.3302 29.1969L61.3089 29.7453C61.3456 29.766 61.3848 29.766 61.4211 29.7453L62.3997 29.1969C62.436 29.1765 62.4609 29.1385 62.4609 29.0972V28.0006C62.4609 27.9593 62.436 27.9214 62.3997 27.9009L61.4211 27.3426C61.4029 27.3321 61.3904 27.3327 61.3701 27.3327Z" fill="#B1B0B1"/>
</svg>
