<svg width="96" height="50" viewBox="0 0 96 50" fill="none" xmlns="http://www.w3.org/2000/svg">
<path d="M62.1198 23.8058H60.1293C59.9389 23.8058 59.7608 23.8988 59.6542 24.0544L56.9081 28.0402L55.7446 24.2099C55.6716 23.9703 55.4476 23.8058 55.1938 23.8058H53.2374C53.0012 23.8058 52.8348 24.0349 52.9111 24.2551L55.1026 30.5966L53.0412 33.4635C52.8796 33.6885 53.0429 33.9996 53.3227 33.9996H55.3111C55.4993 33.9996 55.6758 33.9087 55.7835 33.7563L62.4029 24.3392C62.5613 24.1138 62.3981 23.8058 62.1198 23.8058ZM48.8124 27.605C48.621 28.7203 47.723 29.4692 46.5771 29.4692C46.0029 29.4692 45.5427 29.2868 45.2473 28.9421C44.9545 28.6004 44.8442 28.1132 44.9369 27.5714C45.115 26.4656 46.0279 25.693 47.1562 25.693C47.7188 25.693 48.1752 25.877 48.4765 26.2249C48.7799 26.5754 48.8993 27.0653 48.8124 27.605ZM51.5723 23.8057H49.592C49.4224 23.8057 49.2779 23.9271 49.2512 24.0927L49.1643 24.6382L49.0262 24.4406C48.597 23.8273 47.6409 23.6218 46.6864 23.6218C44.4986 23.6218 42.6297 25.2563 42.266 27.5483C42.0768 28.6919 42.3455 29.7845 43.0035 30.5471C43.6076 31.2477 44.4698 31.5394 45.4974 31.5394C47.2613 31.5394 48.2392 30.4231 48.2392 30.4231L48.1507 30.9655C48.1176 31.1715 48.2792 31.3581 48.4914 31.3581H50.2745C50.5576 31.3581 50.7981 31.1557 50.8424 30.8803L51.9131 24.1983C51.9461 23.9923 51.784 23.8057 51.5723 23.8057ZM39.6883 23.8526C39.4622 25.3158 38.3286 25.3158 37.2318 25.3158H36.6079L37.0457 22.5839C37.0718 22.4189 37.2163 22.2975 37.3859 22.2975H37.6722C38.4187 22.2975 39.1236 22.2975 39.4873 22.7163C39.7048 22.967 39.7704 23.3391 39.6883 23.8526ZM39.2111 20.0349H35.0754C34.7923 20.0349 34.5518 20.2378 34.5075 20.5132L32.8354 30.9656C32.8023 31.1716 32.9639 31.3582 33.1756 31.3582H35.1506C35.4332 31.3582 35.6737 31.1553 35.7179 30.8804L36.1696 28.0603C36.2133 27.7849 36.4543 27.582 36.7369 27.582H38.0454C40.7697 27.582 42.3421 26.2828 42.7527 23.707C42.9377 22.5813 42.7602 21.6962 42.2254 21.0766C41.6372 20.3954 40.5948 20.0349 39.2111 20.0349Z" fill="#979797"/>
<path d="M83.4045 20.3221L81.7073 30.9658C81.6742 31.1719 81.8358 31.3584 82.0475 31.3584H83.7549C84.0375 31.3584 84.2785 31.1556 84.3222 30.8802L85.996 20.4278C86.029 20.2218 85.8675 20.0352 85.6553 20.0352H83.7453C83.5752 20.0352 83.4307 20.1566 83.4045 20.3221ZM78.3105 27.605C78.119 28.7203 77.2211 29.4692 76.0752 29.4692C75.5009 29.4692 75.0408 29.2868 74.7454 28.9421C74.4521 28.6004 74.3423 28.1132 74.435 27.5714C74.6131 26.4656 75.526 25.693 76.6543 25.693C77.2168 25.693 77.6733 25.877 77.9745 26.2249C78.2779 26.5754 78.3974 27.0653 78.3105 27.605ZM81.0704 23.8057H79.09C78.9205 23.8057 78.776 23.9271 78.7493 24.0927L78.6624 24.6382L78.5238 24.4406C78.095 23.8273 77.139 23.6218 76.1845 23.6218C73.9967 23.6218 72.1278 25.2563 71.7641 27.5483C71.5748 28.6919 71.8436 29.7845 72.5016 30.5471C73.1057 31.2477 73.9679 31.5394 74.9954 31.5394C76.7593 31.5394 77.7373 30.4231 77.7373 30.4231L77.6487 30.9655C77.6157 31.1715 77.7773 31.3581 77.9895 31.3581H79.7726C80.0557 31.3581 80.2962 31.1557 80.3404 30.8803L81.4111 24.1983C81.4442 23.9923 81.2821 23.8057 81.0704 23.8057ZM69.1863 23.8526C68.9602 25.3158 67.8266 25.3158 66.7298 25.3158H66.1059L66.5437 22.5839C66.5698 22.4189 66.7143 22.2975 66.8839 22.2975H67.1702C67.9167 22.2975 68.6217 22.2975 68.9853 22.7163C69.2029 22.967 69.2684 23.3391 69.1863 23.8526ZM68.7091 20.0349H64.5735C64.2903 20.0349 64.0498 20.2378 64.0056 20.5132L62.3334 30.9656C62.3003 31.1716 62.4624 31.3582 62.6736 31.3582H64.7958C64.9936 31.3582 65.1621 31.2163 65.193 31.0239L65.6676 28.0603C65.7113 27.7849 65.9524 27.582 66.235 27.582H67.5435C70.2677 27.582 71.8402 26.2828 72.2508 23.707C72.4358 22.5813 72.2582 21.6962 71.7234 21.0766C71.1353 20.3954 70.0928 20.0349 68.7091 20.0349Z" fill="#B1B0B1"/>
<path d="M16.1401 19.8467C16.1796 19.5997 16.3406 19.3974 16.5571 19.2949C16.6557 19.2487 16.7656 19.2229 16.8807 19.2229H21.5773C22.1335 19.2229 22.6523 19.2586 23.1263 19.3338C23.2623 19.3553 23.394 19.38 23.522 19.4084C23.65 19.4363 23.7742 19.4678 23.8947 19.5025C23.955 19.5198 24.0142 19.5377 24.0723 19.5566C24.3053 19.6334 24.5223 19.7227 24.7217 19.8273C24.9569 18.3489 24.72 17.3435 23.9091 16.4327C23.016 15.4299 21.403 15 19.3389 15H13.3476C12.9259 15 12.567 15.3027 12.5009 15.7132L10.0065 31.3056C9.95689 31.6136 10.1984 31.8916 10.5141 31.8916H14.213L15.1419 26.0847L16.1401 19.8467Z" fill="#979797"/>
<path d="M24.7219 19.8271C24.7038 19.9401 24.684 20.0547 24.6606 20.173C23.8709 24.1709 21.1674 25.5537 17.7148 25.5537H15.9568C15.535 25.5537 15.1788 25.8564 15.1133 26.2669L14.2132 31.8915L13.9578 33.4871C13.9146 33.7562 14.1257 34 14.4019 34H17.5197C17.8887 34 18.2027 33.7351 18.2603 33.3762L18.2907 33.2196L18.8783 29.549L18.9162 29.3461C18.9738 28.9872 19.2879 28.7223 19.6569 28.7223H20.1234C23.1436 28.7223 25.5084 27.513 26.1995 24.0154C26.4879 22.5538 26.3386 21.3334 25.5756 20.4762C25.3442 20.2166 25.0568 20.0022 24.7219 19.8271" fill="#B1B0B1"/>
<path d="M23.8949 19.5023C23.7744 19.4676 23.6501 19.436 23.5222 19.4082C23.3942 19.3803 23.2619 19.3556 23.1265 19.3341C22.6519 19.2584 22.1337 19.2227 21.577 19.2227H16.8809C16.7652 19.2227 16.6554 19.2484 16.5572 19.2952C16.3402 19.3977 16.1797 19.5995 16.1403 19.847L15.1421 26.0849L15.1133 26.2668C15.1789 25.8563 15.5351 25.5536 15.9568 25.5536H17.7149C21.1675 25.5536 23.8709 24.1714 24.6606 20.1729C24.684 20.0546 24.7038 19.9401 24.7219 19.8271C24.5219 19.723 24.3055 19.6331 24.0724 19.5569C24.0143 19.538 23.9551 19.5196 23.8949 19.5023Z" fill="#7E7F81"/>
</svg>
