<svg width="96" height="50" viewBox="0 0 96 50" fill="none" xmlns="http://www.w3.org/2000/svg">
<path d="M14.246 29V19.06H18.362C18.7913 19.06 19.1833 19.1533 19.538 19.34C19.902 19.5173 20.2147 19.7553 20.476 20.054C20.7373 20.3433 20.9427 20.6747 21.092 21.048C21.2413 21.4213 21.316 21.7993 21.316 22.182C21.316 22.5927 21.246 22.9893 21.106 23.372C20.966 23.7453 20.77 24.0767 20.518 24.366C20.266 24.6553 19.9627 24.8887 19.608 25.066C19.2627 25.2433 18.8753 25.332 18.446 25.332H15.226V29H14.246ZM15.226 24.464H18.404C18.6933 24.464 18.9547 24.4033 19.188 24.282C19.4307 24.1513 19.636 23.9833 19.804 23.778C19.972 23.5633 20.1027 23.3207 20.196 23.05C20.2893 22.77 20.336 22.4807 20.336 22.182C20.336 21.874 20.28 21.5847 20.168 21.314C20.0653 21.034 19.9207 20.7913 19.734 20.586C19.5567 20.3807 19.342 20.222 19.09 20.11C18.8473 19.9887 18.5907 19.928 18.32 19.928H15.226V24.464ZM28.891 29H27.939V24.926C27.939 24.0953 27.7943 23.4747 27.505 23.064C27.225 22.6533 26.8097 22.448 26.259 22.448C25.9883 22.448 25.7177 22.504 25.447 22.616C25.1857 22.7187 24.9383 22.8633 24.705 23.05C24.4717 23.2367 24.2663 23.456 24.089 23.708C23.921 23.96 23.795 24.2353 23.711 24.534V29H22.759V18.78H23.711V23.358C24.0003 22.8073 24.4017 22.3733 24.915 22.056C25.4283 21.7387 25.9837 21.58 26.581 21.58C27.001 21.58 27.3557 21.6593 27.645 21.818C27.9343 21.9673 28.1723 22.182 28.359 22.462C28.5457 22.7327 28.681 23.064 28.765 23.456C28.849 23.8387 28.891 24.2633 28.891 24.73V29ZM34.0291 29.14C33.4971 29.14 33.0118 29.042 32.5731 28.846C32.1344 28.6407 31.7518 28.3653 31.4251 28.02C31.1078 27.6747 30.8604 27.2733 30.6831 26.816C30.5058 26.3587 30.4171 25.878 30.4171 25.374C30.4171 24.8607 30.5058 24.3753 30.6831 23.918C30.8698 23.4607 31.1218 23.0593 31.4391 22.714C31.7658 22.3687 32.1484 22.0933 32.5871 21.888C33.0258 21.6827 33.5064 21.58 34.0291 21.58C34.5518 21.58 35.0324 21.6827 35.4711 21.888C35.9191 22.0933 36.3018 22.3687 36.6191 22.714C36.9458 23.0593 37.1978 23.4607 37.3751 23.918C37.5618 24.3753 37.6551 24.8607 37.6551 25.374C37.6551 25.878 37.5664 26.3587 37.3891 26.816C37.2118 27.2733 36.9598 27.6747 36.6331 28.02C36.3158 28.3653 35.9331 28.6407 35.4851 28.846C35.0464 29.042 34.5611 29.14 34.0291 29.14ZM31.3831 25.388C31.3831 25.7987 31.4531 26.1813 31.5931 26.536C31.7331 26.8813 31.9198 27.1893 32.1531 27.46C32.3958 27.7213 32.6758 27.9267 32.9931 28.076C33.3198 28.2253 33.6651 28.3 34.0291 28.3C34.3931 28.3 34.7338 28.2253 35.0511 28.076C35.3778 27.9173 35.6624 27.7073 35.9051 27.446C36.1478 27.1753 36.3391 26.8627 36.4791 26.508C36.6191 26.1533 36.6891 25.7707 36.6891 25.36C36.6891 24.9587 36.6191 24.5807 36.4791 24.226C36.3391 23.862 36.1478 23.5493 35.9051 23.288C35.6624 23.0173 35.3778 22.8073 35.0511 22.658C34.7338 22.4993 34.3931 22.42 34.0291 22.42C33.6651 22.42 33.3244 22.4993 33.0071 22.658C32.6898 22.8073 32.4098 23.0173 32.1671 23.288C31.9244 23.5587 31.7331 23.876 31.5931 24.24C31.4531 24.5947 31.3831 24.9773 31.3831 25.388ZM45.3793 29H44.4273V24.926C44.4273 24.058 44.2966 23.428 44.0353 23.036C43.7833 22.644 43.3913 22.448 42.8593 22.448C42.5793 22.448 42.2993 22.4993 42.0193 22.602C41.7393 22.7047 41.4779 22.8493 41.2353 23.036C41.0019 23.2227 40.7919 23.4467 40.6053 23.708C40.4186 23.96 40.2833 24.2353 40.1993 24.534V29H39.2473V21.706H40.1153V23.358C40.4139 22.826 40.8386 22.3967 41.3893 22.07C41.9493 21.7433 42.5559 21.58 43.2093 21.58C43.6106 21.58 43.9513 21.6547 44.2313 21.804C44.5113 21.9533 44.7353 22.1633 44.9033 22.434C45.0713 22.7047 45.1926 23.036 45.2673 23.428C45.3419 23.82 45.3793 24.254 45.3793 24.73V29ZM50.5594 29.14C50.0274 29.14 49.5374 29.042 49.0894 28.846C48.6507 28.6407 48.268 28.3653 47.9414 28.02C47.6147 27.6653 47.358 27.2593 47.1714 26.802C46.994 26.3447 46.9054 25.8547 46.9054 25.332C46.9054 24.8187 46.994 24.338 47.1714 23.89C47.358 23.4327 47.61 23.036 47.9274 22.7C48.254 22.3547 48.6414 22.084 49.0894 21.888C49.5374 21.6827 50.0227 21.58 50.5454 21.58C51.0774 21.58 51.5627 21.6827 52.0014 21.888C52.4494 22.084 52.832 22.3547 53.1494 22.7C53.4667 23.0453 53.714 23.442 53.8914 23.89C54.0687 24.338 54.1574 24.814 54.1574 25.318C54.1574 25.3927 54.1574 25.4673 54.1574 25.542C54.1574 25.6167 54.1527 25.668 54.1434 25.696H47.8994C47.9274 26.088 48.016 26.452 48.1654 26.788C48.324 27.1147 48.5247 27.3993 48.7674 27.642C49.01 27.8847 49.2854 28.076 49.5934 28.216C49.9107 28.3467 50.2467 28.412 50.6014 28.412C50.8347 28.412 51.068 28.3793 51.3014 28.314C51.5347 28.2487 51.7494 28.16 51.9454 28.048C52.1414 27.936 52.3187 27.8007 52.4774 27.642C52.636 27.474 52.7574 27.292 52.8414 27.096L53.6674 27.32C53.5554 27.5907 53.3967 27.838 53.1914 28.062C52.986 28.2767 52.748 28.468 52.4774 28.636C52.2067 28.7947 51.908 28.916 51.5814 29C51.2547 29.0933 50.914 29.14 50.5594 29.14ZM53.2474 24.968C53.2194 24.576 53.126 24.2213 52.9674 23.904C52.818 23.5773 52.622 23.2973 52.3794 23.064C52.146 22.8307 51.8707 22.6487 51.5534 22.518C51.2454 22.3873 50.914 22.322 50.5594 22.322C50.2047 22.322 49.8687 22.3873 49.5514 22.518C49.234 22.6487 48.954 22.8307 48.7114 23.064C48.478 23.2973 48.2867 23.5773 48.1374 23.904C47.9974 24.2307 47.9134 24.5853 47.8854 24.968H53.2474ZM62.5142 27.88C61.7208 28.6733 60.7968 29.07 59.7422 29.07C59.0888 29.07 58.4728 28.9393 57.8942 28.678C57.3248 28.4167 56.8255 28.0573 56.3962 27.6C55.9762 27.1427 55.6402 26.606 55.3882 25.99C55.1455 25.3647 55.0242 24.6927 55.0242 23.974C55.0242 23.2927 55.1455 22.6533 55.3882 22.056C55.6402 21.4493 55.9808 20.922 56.4102 20.474C56.8488 20.0167 57.3622 19.6573 57.9502 19.396C58.5382 19.1253 59.1775 18.99 59.8682 18.99C60.8015 18.99 61.5995 19.186 62.2622 19.578C62.9342 19.97 63.4382 20.4973 63.7742 21.16L62.3322 22.224C62.0802 21.7293 61.7255 21.3513 61.2682 21.09C60.8202 20.8287 60.3302 20.698 59.7982 20.698C59.3782 20.698 58.9908 20.7867 58.6362 20.964C58.2908 21.1413 57.9922 21.384 57.7402 21.692C57.4975 22 57.3062 22.3547 57.1662 22.756C57.0355 23.1573 56.9702 23.582 56.9702 24.03C56.9702 24.4967 57.0448 24.9353 57.1942 25.346C57.3435 25.7473 57.5488 26.0973 57.8102 26.396C58.0715 26.6947 58.3795 26.9327 58.7342 27.11C59.0982 27.278 59.4902 27.362 59.9102 27.362C60.8715 27.362 61.7395 26.9093 62.5142 26.004V25.304H60.5122V23.89H64.1102V29H62.5142V27.88ZM67.5767 29.14C67.222 29.14 66.8907 29.084 66.5827 28.972C66.2747 28.8507 66.0087 28.6873 65.7847 28.482C65.5607 28.2673 65.3834 28.02 65.2527 27.74C65.1314 27.46 65.0707 27.152 65.0707 26.816C65.0707 26.4707 65.1454 26.1533 65.2947 25.864C65.4534 25.5653 65.668 25.3133 65.9387 25.108C66.2187 24.9027 66.55 24.744 66.9327 24.632C67.3154 24.5107 67.7354 24.45 68.1927 24.45C68.5194 24.45 68.8367 24.478 69.1447 24.534C69.462 24.59 69.742 24.6693 69.9847 24.772V24.352C69.9847 23.8667 69.8447 23.4933 69.5647 23.232C69.294 22.9707 68.888 22.84 68.3467 22.84C67.9547 22.84 67.572 22.91 67.1987 23.05C66.8254 23.19 66.4427 23.3953 66.0507 23.666L65.4767 22.476C66.4194 21.8507 67.4367 21.538 68.5287 21.538C69.5834 21.538 70.4 21.7993 70.9787 22.322C71.5667 22.8353 71.8607 23.582 71.8607 24.562V26.844C71.8607 27.04 71.8934 27.18 71.9587 27.264C72.0334 27.348 72.15 27.3947 72.3087 27.404V29C71.9914 29.0653 71.716 29.098 71.4827 29.098C71.128 29.098 70.8527 29.0187 70.6567 28.86C70.47 28.7013 70.3534 28.4913 70.3067 28.23L70.2647 27.824C69.938 28.2533 69.5414 28.58 69.0747 28.804C68.608 29.028 68.1087 29.14 67.5767 29.14ZM68.1087 27.768C68.426 27.768 68.7247 27.712 69.0047 27.6C69.294 27.488 69.518 27.3387 69.6767 27.152C69.882 26.9933 69.9847 26.816 69.9847 26.62V25.78C69.7607 25.696 69.518 25.6307 69.2567 25.584C68.9954 25.528 68.7434 25.5 68.5007 25.5C68.0154 25.5 67.6187 25.612 67.3107 25.836C67.0027 26.0507 66.8487 26.326 66.8487 26.662C66.8487 26.9793 66.97 27.2453 67.2127 27.46C67.4554 27.6653 67.754 27.768 68.1087 27.768ZM78.0098 29.14C77.4311 29.14 76.9271 29.014 76.4978 28.762C76.0684 28.5007 75.7324 28.1507 75.4898 27.712V31.982H73.6138V21.664H75.2518V22.924C75.5224 22.4947 75.8724 22.1587 76.3018 21.916C76.7311 21.664 77.2258 21.538 77.7858 21.538C78.2804 21.538 78.7378 21.6407 79.1578 21.846C79.5778 22.042 79.9371 22.3127 80.2358 22.658C80.5438 22.994 80.7818 23.3953 80.9498 23.862C81.1271 24.3193 81.2158 24.8047 81.2158 25.318C81.2158 25.85 81.1364 26.3493 80.9778 26.816C80.8191 27.2827 80.5951 27.6887 80.3058 28.034C80.0258 28.3793 79.6898 28.65 79.2978 28.846C78.9058 29.042 78.4764 29.14 78.0098 29.14ZM77.3798 27.544C77.6598 27.544 77.9164 27.4833 78.1498 27.362C78.3924 27.2407 78.5978 27.0773 78.7658 26.872C78.9338 26.6667 79.0644 26.4287 79.1578 26.158C79.2511 25.8873 79.2978 25.6073 79.2978 25.318C79.2978 25.01 79.2464 24.7253 79.1438 24.464C79.0411 24.1933 78.8964 23.96 78.7098 23.764C78.5324 23.568 78.3178 23.414 78.0658 23.302C77.8231 23.19 77.5571 23.134 77.2678 23.134C77.0904 23.134 76.9084 23.1667 76.7218 23.232C76.5351 23.288 76.3624 23.372 76.2038 23.484C76.0451 23.596 75.9004 23.7267 75.7698 23.876C75.6484 24.0253 75.5551 24.1887 75.4898 24.366V26.088C75.6578 26.508 75.9144 26.858 76.2598 27.138C76.6051 27.4087 76.9784 27.544 77.3798 27.544Z" fill="#12233D"/>
</svg>
