<svg width="96" height="50" viewBox="0 0 96 50" fill="none" xmlns="http://www.w3.org/2000/svg">
<g clip-path="url(#clip0)">
<path d="M48.3576 26.4987C58.4682 26.4987 66.6644 23.3502 66.6644 19.4664C66.6644 15.5826 58.4682 12.4341 48.3576 12.4341C38.247 12.4341 30.0508 15.5826 30.0508 19.4664C30.0508 23.3502 38.247 26.4987 48.3576 26.4987Z" stroke="#53C1DE" stroke-width="1.5"/>
<path d="M42.3044 22.9827C47.3597 31.7919 54.1681 37.3589 57.5113 35.417C60.8545 33.4751 59.4666 24.7596 54.4113 15.9504C49.356 7.14124 42.5476 1.57423 39.2044 3.51614C35.8612 5.45806 37.2491 14.1735 42.3044 22.9827Z" stroke="#53C1DE" stroke-width="1.5"/>
<path d="M42.3042 15.9504C37.2488 24.7595 35.8609 33.475 39.2041 35.4169C42.5473 37.3588 49.3557 31.7918 54.411 22.9826C59.4663 14.1735 60.8542 5.458 57.511 3.51608C54.1678 1.57417 47.3595 7.14118 42.3042 15.9504Z" stroke="#53C1DE" stroke-width="1.5"/>
<path d="M19.7861 49.9575V42.7993H22.96C23.598 42.7993 24.083 42.8644 24.415 42.9946C24.7471 43.1216 25.0124 43.3478 25.2109 43.6733C25.4095 43.9989 25.5088 44.3586 25.5088 44.7524C25.5088 45.2603 25.3444 45.6883 25.0156 46.0366C24.6868 46.3849 24.179 46.6063 23.4922 46.7007C23.7428 46.8211 23.9333 46.9399 24.0635 47.0571C24.3402 47.311 24.6022 47.6284 24.8496 48.0093L26.0947 49.9575H24.9033L23.9561 48.4683C23.6794 48.0386 23.4515 47.7098 23.2725 47.4819C23.0934 47.2541 22.9323 47.0946 22.7891 47.0034C22.6491 46.9123 22.5059 46.8488 22.3594 46.813C22.252 46.7902 22.0762 46.7788 21.832 46.7788H20.7334V49.9575H19.7861ZM20.7334 45.9585H22.7695C23.2025 45.9585 23.541 45.9146 23.7852 45.8267C24.0293 45.7355 24.2148 45.5923 24.3418 45.397C24.4688 45.1984 24.5322 44.9836 24.5322 44.7524C24.5322 44.4139 24.4085 44.1356 24.1611 43.9175C23.917 43.6994 23.5296 43.5903 22.999 43.5903H20.7334V45.9585ZM30.4355 48.2876L31.3438 48.3999C31.2005 48.9305 30.9352 49.3423 30.5479 49.6353C30.1605 49.9282 29.6657 50.0747 29.0635 50.0747C28.305 50.0747 27.7028 49.842 27.2568 49.3765C26.8141 48.9077 26.5928 48.2518 26.5928 47.4087C26.5928 46.5363 26.8174 45.8592 27.2666 45.3774C27.7158 44.8957 28.2985 44.6548 29.0146 44.6548C29.708 44.6548 30.2744 44.8908 30.7139 45.3628C31.1533 45.8348 31.373 46.4989 31.373 47.355C31.373 47.4071 31.3714 47.4852 31.3682 47.5894H27.501C27.5335 48.159 27.6947 48.5952 27.9844 48.8979C28.2741 49.2007 28.6354 49.3521 29.0684 49.3521C29.3906 49.3521 29.6657 49.2674 29.8936 49.0981C30.1214 48.9289 30.3021 48.6587 30.4355 48.2876ZM27.5498 46.8667H30.4453C30.4062 46.4305 30.2956 46.1034 30.1133 45.8853C29.8333 45.5467 29.4704 45.3774 29.0244 45.3774C28.6208 45.3774 28.2806 45.5125 28.0039 45.7827C27.7305 46.0529 27.5791 46.4142 27.5498 46.8667ZM35.8359 49.3179C35.5104 49.5946 35.1963 49.7899 34.8936 49.9038C34.5941 50.0177 34.2718 50.0747 33.9268 50.0747C33.3571 50.0747 32.9193 49.9364 32.6133 49.6597C32.3073 49.3797 32.1543 49.0233 32.1543 48.5903C32.1543 48.3364 32.2113 48.1053 32.3252 47.897C32.4424 47.6854 32.5938 47.5161 32.7793 47.3892C32.9681 47.2622 33.1797 47.1662 33.4141 47.1011C33.5866 47.0555 33.847 47.0116 34.1953 46.9692C34.9049 46.8846 35.4274 46.7837 35.7627 46.6665C35.766 46.5461 35.7676 46.4696 35.7676 46.437C35.7676 46.0789 35.6846 45.8267 35.5186 45.6802C35.2939 45.4816 34.9603 45.3823 34.5176 45.3823C34.1042 45.3823 33.7982 45.4556 33.5996 45.6021C33.4043 45.7453 33.2594 46.0008 33.165 46.3687L32.3057 46.2515C32.3838 45.8836 32.5124 45.5874 32.6914 45.3628C32.8704 45.1349 33.1292 44.9608 33.4678 44.8403C33.8063 44.7166 34.1986 44.6548 34.6445 44.6548C35.0872 44.6548 35.4469 44.7069 35.7236 44.811C36.0003 44.9152 36.2038 45.047 36.334 45.2065C36.4642 45.3628 36.5553 45.5614 36.6074 45.8022C36.6367 45.952 36.6514 46.2222 36.6514 46.6128V47.7847C36.6514 48.6017 36.6693 49.1193 36.7051 49.3374C36.7441 49.5522 36.819 49.759 36.9297 49.9575H36.0117C35.9206 49.7752 35.862 49.562 35.8359 49.3179ZM35.7627 47.355C35.4437 47.4852 34.9652 47.5959 34.3271 47.687C33.9658 47.7391 33.7103 47.7977 33.5605 47.8628C33.4108 47.9279 33.2952 48.0239 33.2139 48.1509C33.1325 48.2746 33.0918 48.4129 33.0918 48.5659C33.0918 48.8003 33.1797 48.9956 33.3555 49.1519C33.5345 49.3081 33.7949 49.3862 34.1367 49.3862C34.4753 49.3862 34.7764 49.313 35.04 49.1665C35.3037 49.0168 35.4974 48.8133 35.6211 48.5562C35.7155 48.3576 35.7627 48.0646 35.7627 47.6772V47.355ZM41.4023 48.0581L42.2666 48.1704C42.1722 48.7661 41.9297 49.2332 41.5391 49.5718C41.1517 49.9071 40.6748 50.0747 40.1084 50.0747C39.3988 50.0747 38.8275 49.8436 38.3945 49.3813C37.9648 48.9159 37.75 48.2502 37.75 47.3843C37.75 46.8244 37.8428 46.3345 38.0283 45.9146C38.2139 45.4946 38.4954 45.1805 38.873 44.9722C39.2539 44.7606 39.6673 44.6548 40.1133 44.6548C40.6764 44.6548 41.137 44.798 41.4951 45.0845C41.8532 45.3677 42.0827 45.7713 42.1836 46.2954L41.3291 46.4272C41.2477 46.0789 41.1029 45.8169 40.8945 45.6411C40.6895 45.4653 40.4404 45.3774 40.1475 45.3774C39.7048 45.3774 39.3451 45.5369 39.0684 45.856C38.7917 46.1717 38.6533 46.673 38.6533 47.3599C38.6533 48.0565 38.7868 48.5627 39.0537 48.8784C39.3206 49.1942 39.6689 49.3521 40.0986 49.3521C40.4437 49.3521 40.7318 49.2463 40.9629 49.0347C41.194 48.8231 41.3405 48.4976 41.4023 48.0581ZM44.9375 49.1714L45.0645 49.9478C44.8171 49.9998 44.5957 50.0259 44.4004 50.0259C44.0814 50.0259 43.834 49.9754 43.6582 49.8745C43.4824 49.7736 43.3587 49.6418 43.2871 49.479C43.2155 49.313 43.1797 48.9663 43.1797 48.439V45.4556H42.5352V44.772H43.1797V43.4878L44.0537 42.9604V44.772H44.9375V45.4556H44.0537V48.4878C44.0537 48.7384 44.0684 48.8996 44.0977 48.9712C44.1302 49.0428 44.1807 49.0998 44.249 49.1421C44.3206 49.1844 44.4215 49.2056 44.5518 49.2056C44.6494 49.2056 44.778 49.1942 44.9375 49.1714ZM48.6875 49.9575V42.7993H49.6592L53.4189 48.4194V42.7993H54.3271V49.9575H53.3555L49.5957 44.3325V49.9575H48.6875ZM59.1953 49.3179C58.8698 49.5946 58.5557 49.7899 58.2529 49.9038C57.9535 50.0177 57.6312 50.0747 57.2861 50.0747C56.7165 50.0747 56.2786 49.9364 55.9727 49.6597C55.6667 49.3797 55.5137 49.0233 55.5137 48.5903C55.5137 48.3364 55.5706 48.1053 55.6846 47.897C55.8018 47.6854 55.9531 47.5161 56.1387 47.3892C56.3275 47.2622 56.5391 47.1662 56.7734 47.1011C56.946 47.0555 57.2064 47.0116 57.5547 46.9692C58.2643 46.8846 58.7868 46.7837 59.1221 46.6665C59.1253 46.5461 59.127 46.4696 59.127 46.437C59.127 46.0789 59.0439 45.8267 58.8779 45.6802C58.6533 45.4816 58.3197 45.3823 57.877 45.3823C57.4635 45.3823 57.1576 45.4556 56.959 45.6021C56.7637 45.7453 56.6188 46.0008 56.5244 46.3687L55.665 46.2515C55.7432 45.8836 55.8717 45.5874 56.0508 45.3628C56.2298 45.1349 56.4886 44.9608 56.8271 44.8403C57.1657 44.7166 57.5579 44.6548 58.0039 44.6548C58.4466 44.6548 58.8063 44.7069 59.083 44.811C59.3597 44.9152 59.5632 45.047 59.6934 45.2065C59.8236 45.3628 59.9147 45.5614 59.9668 45.8022C59.9961 45.952 60.0107 46.2222 60.0107 46.6128V47.7847C60.0107 48.6017 60.0286 49.1193 60.0645 49.3374C60.1035 49.5522 60.1784 49.759 60.2891 49.9575H59.3711C59.2799 49.7752 59.2214 49.562 59.1953 49.3179ZM59.1221 47.355C58.8031 47.4852 58.3245 47.5959 57.6865 47.687C57.3252 47.7391 57.0697 47.7977 56.9199 47.8628C56.7702 47.9279 56.6546 48.0239 56.5732 48.1509C56.4919 48.2746 56.4512 48.4129 56.4512 48.5659C56.4512 48.8003 56.5391 48.9956 56.7148 49.1519C56.8939 49.3081 57.1543 49.3862 57.4961 49.3862C57.8346 49.3862 58.1357 49.313 58.3994 49.1665C58.6631 49.0168 58.8568 48.8133 58.9805 48.5562C59.0749 48.3576 59.1221 48.0646 59.1221 47.6772V47.355ZM63.2969 49.1714L63.4238 49.9478C63.1764 49.9998 62.9551 50.0259 62.7598 50.0259C62.4408 50.0259 62.1934 49.9754 62.0176 49.8745C61.8418 49.7736 61.7181 49.6418 61.6465 49.479C61.5749 49.313 61.5391 48.9663 61.5391 48.439V45.4556H60.8945V44.772H61.5391V43.4878L62.4131 42.9604V44.772H63.2969V45.4556H62.4131V48.4878C62.4131 48.7384 62.4277 48.8996 62.457 48.9712C62.4896 49.0428 62.54 49.0998 62.6084 49.1421C62.68 49.1844 62.7809 49.2056 62.9111 49.2056C63.0088 49.2056 63.1374 49.1942 63.2969 49.1714ZM64.166 43.8101V42.7993H65.0449V43.8101H64.166ZM64.166 49.9575V44.772H65.0449V49.9575H64.166ZM67.8281 49.9575L65.8555 44.772H66.7832L67.8965 47.8774C68.0169 48.2127 68.1276 48.561 68.2285 48.9224C68.3066 48.6489 68.4157 48.3201 68.5557 47.936L69.708 44.772H70.6113L68.6484 49.9575H67.8281ZM74.9375 48.2876L75.8457 48.3999C75.7025 48.9305 75.4372 49.3423 75.0498 49.6353C74.6624 49.9282 74.1676 50.0747 73.5654 50.0747C72.807 50.0747 72.2048 49.842 71.7588 49.3765C71.3161 48.9077 71.0947 48.2518 71.0947 47.4087C71.0947 46.5363 71.3193 45.8592 71.7686 45.3774C72.2178 44.8957 72.8005 44.6548 73.5166 44.6548C74.21 44.6548 74.7764 44.8908 75.2158 45.3628C75.6553 45.8348 75.875 46.4989 75.875 47.355C75.875 47.4071 75.8734 47.4852 75.8701 47.5894H72.0029C72.0355 48.159 72.1966 48.5952 72.4863 48.8979C72.776 49.2007 73.1374 49.3521 73.5703 49.3521C73.8926 49.3521 74.1676 49.2674 74.3955 49.0981C74.6234 48.9289 74.804 48.6587 74.9375 48.2876ZM72.0518 46.8667H74.9473C74.9082 46.4305 74.7975 46.1034 74.6152 45.8853C74.3353 45.5467 73.9723 45.3774 73.5264 45.3774C73.1227 45.3774 72.7826 45.5125 72.5059 45.7827C72.2324 46.0529 72.0811 46.4142 72.0518 46.8667Z" fill="#12233D"/>
</g>
<defs>
<clipPath id="clip0">
<rect width="96" height="50" fill="white"/>
</clipPath>
</defs>
</svg>
