<svg width="96" height="50" viewBox="0 0 96 50" fill="none" xmlns="http://www.w3.org/2000/svg">
<path d="M21.8556 30.822C31.1647 30.822 38.7112 27.9916 38.7112 24.5001C38.7112 21.0086 31.1647 18.1782 21.8556 18.1782C12.5465 18.1782 5 21.0086 5 24.5001C5 27.9916 12.5465 30.822 21.8556 30.822Z" stroke="#53C1DE" stroke-width="1.5"/>
<path d="M16.2822 27.6609C20.9368 35.5802 27.2054 40.5848 30.2836 38.8391C33.3618 37.0933 32.0839 29.2583 27.4293 21.3391C22.7747 13.4198 16.5061 8.4152 13.4279 10.1609C10.3497 11.9067 11.6276 19.7417 16.2822 27.6609Z" stroke="#53C1DE" stroke-width="1.5"/>
<path d="M16.2825 21.339C11.6279 29.2582 10.35 37.0932 13.4282 38.839C16.5063 40.5847 22.775 35.5801 27.4296 27.6608C32.0841 19.7416 33.3621 11.9066 30.2839 10.1608C27.2057 8.41512 20.937 13.4197 16.2825 21.339Z" stroke="#53C1DE" stroke-width="1.5"/>
<path d="M49.2246 30.7798V19.3267H54.3027C55.3236 19.3267 56.0996 19.4308 56.6309 19.6392C57.1621 19.8423 57.5866 20.2043 57.9043 20.7251C58.222 21.2459 58.3809 21.8215 58.3809 22.4517C58.3809 23.2642 58.1178 23.9491 57.5918 24.5063C57.0658 25.0636 56.2533 25.4178 55.1543 25.5688C55.5553 25.7616 55.86 25.9517 56.0684 26.1392C56.5111 26.5454 56.9303 27.0532 57.3262 27.6626L59.3184 30.7798H57.4121L55.8965 28.397C55.4538 27.7095 55.0892 27.1834 54.8027 26.8188C54.5163 26.4543 54.2585 26.1991 54.0293 26.0532C53.8053 25.9074 53.5762 25.8058 53.3418 25.7485C53.1699 25.7121 52.8887 25.6938 52.498 25.6938H50.7402V30.7798H49.2246ZM50.7402 24.3813H53.998C54.6908 24.3813 55.2324 24.311 55.623 24.1704C56.0137 24.0246 56.3105 23.7954 56.5137 23.4829C56.7168 23.1652 56.8184 22.8215 56.8184 22.4517C56.8184 21.91 56.6204 21.4647 56.2246 21.1157C55.834 20.7668 55.2142 20.5923 54.3652 20.5923H50.7402V24.3813ZM66.2637 28.1079L67.7168 28.2876C67.4876 29.1366 67.0632 29.7954 66.4434 30.2642C65.8236 30.7329 65.0319 30.9673 64.0684 30.9673C62.8548 30.9673 61.8913 30.5949 61.1777 29.8501C60.4694 29.1001 60.1152 28.0506 60.1152 26.7017C60.1152 25.3058 60.4746 24.2225 61.1934 23.4517C61.9121 22.6808 62.8444 22.2954 63.9902 22.2954C65.0996 22.2954 66.0059 22.673 66.709 23.4282C67.4121 24.1834 67.7637 25.2459 67.7637 26.6157C67.7637 26.6991 67.7611 26.8241 67.7559 26.9907H61.5684C61.6204 27.9022 61.8783 28.6001 62.3418 29.0845C62.8053 29.5688 63.3835 29.811 64.0762 29.811C64.5918 29.811 65.0319 29.6756 65.3965 29.4048C65.7611 29.134 66.0501 28.7017 66.2637 28.1079ZM61.6465 25.8345H66.2793C66.2168 25.1366 66.0397 24.6131 65.748 24.2642C65.3001 23.7225 64.7194 23.4517 64.0059 23.4517C63.36 23.4517 62.8158 23.6678 62.373 24.1001C61.9355 24.5324 61.6934 25.1105 61.6465 25.8345ZM74.9043 29.7563C74.3835 30.1991 73.8809 30.5116 73.3965 30.6938C72.9173 30.8761 72.4017 30.9673 71.8496 30.9673C70.9382 30.9673 70.2376 30.7459 69.748 30.3032C69.2585 29.8553 69.0137 29.285 69.0137 28.5923C69.0137 28.186 69.1048 27.8162 69.2871 27.4829C69.4746 27.1444 69.7168 26.8735 70.0137 26.6704C70.3158 26.4673 70.6543 26.3136 71.0293 26.2095C71.3053 26.1366 71.722 26.0662 72.2793 25.9985C73.4147 25.8631 74.2507 25.7017 74.7871 25.5142C74.7923 25.3215 74.7949 25.1991 74.7949 25.147C74.7949 24.5741 74.6621 24.1704 74.3965 23.936C74.0371 23.6183 73.5033 23.4595 72.7949 23.4595C72.1335 23.4595 71.6439 23.5767 71.3262 23.811C71.0137 24.0402 70.7819 24.4491 70.6309 25.0376L69.2559 24.8501C69.3809 24.2616 69.5866 23.7876 69.873 23.4282C70.1595 23.0636 70.5736 22.785 71.1152 22.5923C71.6569 22.3944 72.2845 22.2954 72.998 22.2954C73.7064 22.2954 74.2819 22.3787 74.7246 22.5454C75.1673 22.7121 75.4928 22.923 75.7012 23.1782C75.9095 23.4282 76.0553 23.7459 76.1387 24.1313C76.1855 24.3709 76.209 24.8032 76.209 25.4282V27.3032C76.209 28.6105 76.2376 29.4386 76.2949 29.7876C76.3574 30.1313 76.4772 30.4621 76.6543 30.7798H75.1855C75.0397 30.4881 74.946 30.147 74.9043 29.7563ZM74.7871 26.6157C74.2767 26.8241 73.5111 27.0011 72.4902 27.147C71.9121 27.2303 71.5033 27.3241 71.2637 27.4282C71.0241 27.5324 70.8392 27.686 70.709 27.8892C70.5788 28.0871 70.5137 28.3084 70.5137 28.5532C70.5137 28.9282 70.6543 29.2407 70.9355 29.4907C71.222 29.7407 71.6387 29.8657 72.1855 29.8657C72.7272 29.8657 73.209 29.7485 73.6309 29.5142C74.0527 29.2746 74.3626 28.9491 74.5605 28.5376C74.7116 28.2199 74.7871 27.7511 74.7871 27.1313V26.6157ZM83.8105 27.7407L85.1934 27.9204C85.0423 28.8735 84.6543 29.6209 84.0293 30.1626C83.4095 30.6991 82.6465 30.9673 81.7402 30.9673C80.6048 30.9673 79.6908 30.5975 78.998 29.8579C78.3105 29.1131 77.9668 28.048 77.9668 26.6626C77.9668 25.7668 78.1152 24.9829 78.4121 24.311C78.709 23.6392 79.1595 23.1366 79.7637 22.8032C80.373 22.4647 81.0345 22.2954 81.748 22.2954C82.6491 22.2954 83.3861 22.5246 83.959 22.9829C84.5319 23.436 84.8991 24.0819 85.0605 24.9204L83.6934 25.1313C83.5632 24.5741 83.3314 24.1548 82.998 23.8735C82.6699 23.5923 82.2715 23.4517 81.8027 23.4517C81.0944 23.4517 80.5189 23.7069 80.0762 24.2173C79.6335 24.7225 79.4121 25.5246 79.4121 26.6235C79.4121 27.7381 79.6257 28.548 80.0527 29.0532C80.4798 29.5584 81.0371 29.811 81.7246 29.811C82.2767 29.811 82.7376 29.6418 83.1074 29.3032C83.4772 28.9647 83.7116 28.4438 83.8105 27.7407ZM89.4668 29.522L89.6699 30.7642C89.2741 30.8475 88.9199 30.8892 88.6074 30.8892C88.097 30.8892 87.7012 30.8084 87.4199 30.647C87.1387 30.4855 86.9408 30.2746 86.8262 30.0142C86.7116 29.7485 86.6543 29.1938 86.6543 28.3501V23.5767H85.623V22.4829H86.6543V20.4282L88.0527 19.5845V22.4829H89.4668V23.5767H88.0527V28.4282C88.0527 28.8293 88.0762 29.0871 88.123 29.2017C88.1751 29.3162 88.2559 29.4074 88.3652 29.4751C88.4798 29.5428 88.6413 29.5767 88.8496 29.5767C89.0059 29.5767 89.2116 29.5584 89.4668 29.522Z" fill="#12233D"/>
</svg>
