<svg width="54" height="58" viewBox="0 0 54 58" fill="none" xmlns="http://www.w3.org/2000/svg">
<path d="M19.051 12.4663C11.4016 11.0858 5.35359 12.5306 2.943 16.6675C1.14434 19.7546 1.65839 23.8475 4.19006 28.2225C4.24042 28.3127 4.30837 28.3921 4.38998 28.456C4.47158 28.5199 4.5652 28.5671 4.66539 28.5949C4.76558 28.6226 4.87034 28.6303 4.97357 28.6176C5.0768 28.6048 5.17644 28.5718 5.26669 28.5206C5.35694 28.4693 5.43599 28.4008 5.49926 28.3189C5.56252 28.2371 5.60873 28.1436 5.63519 28.044C5.66165 27.9443 5.66784 27.8404 5.65339 27.7383C5.63894 27.6362 5.60415 27.538 5.55103 27.4494C3.27059 23.5083 2.82677 19.9759 4.30165 17.4448C6.30408 14.0083 11.6988 12.7196 18.7699 13.9956C18.8718 14.0152 18.9766 14.0147 19.0783 13.9939C19.18 13.9732 19.2765 13.9326 19.3623 13.8746C19.4481 13.8166 19.5213 13.7423 19.5779 13.656C19.6344 13.5697 19.6732 13.4732 19.6918 13.3719C19.7104 13.2707 19.7085 13.1669 19.6863 13.0663C19.6641 12.9658 19.622 12.8707 19.5624 12.7865C19.5028 12.7022 19.4269 12.6305 19.3391 12.5756C19.2513 12.5206 19.1534 12.4834 19.051 12.4663ZM30.3636 5.42604C29.7394 6.62219 28.4795 7.43983 27.0268 7.43983C24.9533 7.43983 23.2725 5.77425 23.2725 3.71992C23.2725 1.66537 24.9537 0 27.0268 0C29.1003 0 30.7811 1.66537 30.7811 3.71992C30.7811 3.77363 30.7798 3.82714 30.7777 3.88022C36.9921 7.06487 41.3104 17.9249 41.3104 30.4714C41.3104 35.6318 40.5823 40.5836 39.2266 44.8762C39.1975 44.9755 39.1486 45.0681 39.083 45.1485C39.0173 45.2289 38.9361 45.2955 38.8441 45.3444C38.7521 45.3933 38.6512 45.4235 38.5473 45.4332C38.4434 45.443 38.3385 45.4321 38.2389 45.4012C38.1393 45.3704 38.0469 45.3201 37.9672 45.2534C37.8874 45.1866 37.8219 45.1048 37.7744 45.0127C37.727 44.9206 37.6986 44.82 37.6909 44.7168C37.6832 44.6137 37.6963 44.51 37.7295 44.412C39.0365 40.2732 39.7417 35.4776 39.7417 30.4714C39.7417 18.6575 35.7784 8.49156 30.3638 5.42604H30.3636ZM3.47372 40.4051C3.56707 40.3982 3.66065 40.3947 3.75427 40.3947C5.82778 40.3947 7.50853 42.0605 7.50853 44.1148C7.50853 46.1693 5.82757 47.8345 3.75427 47.8345C1.68075 47.8345 0 46.1691 0 44.1148C0 42.7161 0.778992 41.498 1.93029 40.8626C1.36498 33.91 8.73998 24.5904 19.8853 18.2146C24.5145 15.5663 29.3349 13.6864 33.8635 12.725C34.0669 12.6818 34.2793 12.7205 34.454 12.8325C34.6287 12.9445 34.7513 13.1207 34.7949 13.3222C34.8385 13.5238 34.7994 13.7343 34.6864 13.9074C34.5734 14.0804 34.3956 14.2019 34.1921 14.2451C29.8278 15.1716 25.1604 16.9917 20.6696 19.5608C10.1735 25.5652 3.23346 34.2193 3.47393 40.4051H3.47372ZM46.9817 45.9534C46.6595 45.3933 46.4905 44.7595 46.4915 44.1148C46.4915 42.0602 48.1724 40.3949 50.2457 40.3949C52.3192 40.3949 54 42.0602 54 44.1148C54 46.1693 52.3192 47.8345 50.2457 47.8345C49.46 47.8358 48.6939 47.5917 48.0562 47.1368C42.0673 50.6279 30.6275 48.8473 19.8623 42.6887C15.2795 40.0672 11.2611 36.9082 8.16813 33.5405C8.03195 33.3874 7.96196 33.1875 7.97326 32.9838C7.98455 32.7801 8.07623 32.5889 8.22851 32.4516C8.38079 32.3142 8.58146 32.2417 8.78721 32.2497C8.99296 32.2577 9.1873 32.3455 9.32829 32.4942C12.3097 35.7405 16.2008 38.7993 20.6466 41.3425C30.8064 47.1546 41.5053 48.8843 46.9815 45.9534H46.9817ZM46.7357 32.5949C46.6001 32.7479 46.4092 32.842 46.2042 32.857C45.9992 32.872 45.7965 32.8067 45.6396 32.6751C45.4827 32.5435 45.3842 32.3562 45.3653 32.1534C45.3464 31.9506 45.4086 31.7485 45.5385 31.5906C50.1677 26.1719 51.7274 20.9133 49.7291 17.4843C48.2787 14.995 45.055 13.6135 40.5825 13.5558C40.4788 13.5555 40.3762 13.5348 40.2807 13.495C40.1851 13.4551 40.0985 13.3969 40.0257 13.3237C39.953 13.2505 39.8957 13.1637 39.857 13.0684C39.8184 12.9731 39.7991 12.8711 39.8005 12.7684C39.8019 12.6657 39.8237 12.5642 39.8649 12.4699C39.9061 12.3757 39.9657 12.2904 40.0403 12.2191C40.1149 12.1477 40.203 12.0918 40.2996 12.0544C40.3962 12.0171 40.4993 11.9991 40.6029 12.0014C45.5758 12.0656 49.3178 13.6693 51.0878 16.707C53.4933 20.8353 51.7444 26.7321 46.7357 32.5949ZM15.3063 46.2931C15.2412 46.1003 15.255 45.8899 15.3446 45.707C15.4342 45.5241 15.5926 45.3833 15.7858 45.3148C15.9789 45.2462 16.1915 45.2554 16.3779 45.3403C16.5644 45.4253 16.7098 45.5792 16.783 45.7691C19.2038 52.4667 23.0249 56.4456 27.0268 56.4456C29.905 56.4456 32.7031 54.4028 34.9812 50.6477C35.0884 50.471 35.2621 50.3438 35.464 50.2939C35.6658 50.2441 35.8794 50.2758 36.0578 50.382C36.2361 50.4882 36.3645 50.6602 36.4148 50.8603C36.4651 51.0603 36.4332 51.272 36.326 51.4487C33.7909 55.6267 30.5404 58 27.0268 58C22.2092 58 17.9248 53.5389 15.3063 46.2933V46.2931ZM52.431 44.1146C52.431 42.9186 51.4525 41.9491 50.2457 41.9491C49.0385 41.9491 48.06 42.9186 48.06 44.1144C48.06 45.3105 49.0387 46.2799 50.2455 46.2799C51.4525 46.2799 52.4308 45.3105 52.4308 44.1146H52.431ZM3.75405 46.2799C4.96104 46.2799 5.93937 45.3105 5.93937 44.1146C5.93937 42.9186 4.96104 41.9491 3.75405 41.9491C2.54707 41.9491 1.56874 42.9186 1.56874 44.1144C1.56874 45.3105 2.54707 46.2799 3.75405 46.2799ZM27.0268 5.88502C28.2338 5.88502 29.2121 4.91565 29.2121 3.71971C29.2121 2.52377 28.2338 1.55439 27.0268 1.55439C25.8198 1.55439 24.8415 2.52377 24.8415 3.71971C24.8415 4.91565 25.8198 5.88502 27.0268 5.88502ZM27.6001 33.102C26.1339 33.4159 24.6892 32.4925 24.3717 31.0395C24.0555 29.5865 24.9868 28.1552 26.4532 27.8406C27.9195 27.5267 29.3642 28.4499 29.6816 29.9029C29.9985 31.3559 29.0666 32.7872 27.6001 33.1018V33.102Z" fill="#B1B0B1"/>
</svg>
