<svg width="96" height="50" viewBox="0 0 96 50" fill="none" xmlns="http://www.w3.org/2000/svg">
<path d="M21.8556 30.822C31.1647 30.822 38.7112 27.9916 38.7112 24.5001C38.7112 21.0086 31.1647 18.1782 21.8556 18.1782C12.5465 18.1782 5 21.0086 5 24.5001C5 27.9916 12.5465 30.822 21.8556 30.822Z" stroke="#B1B0B1" stroke-width="1.5"/>
<path d="M16.2822 27.6609C20.9368 35.5802 27.2054 40.5848 30.2836 38.8391C33.3618 37.0933 32.0839 29.2583 27.4293 21.3391C22.7747 13.4198 16.5061 8.4152 13.4279 10.1609C10.3497 11.9067 11.6276 19.7417 16.2822 27.6609Z" stroke="#B1B0B1" stroke-width="1.5"/>
<path d="M16.2825 21.3391C11.6279 29.2584 10.35 37.0934 13.4282 38.8391C16.5063 40.5848 22.775 35.5802 27.4296 27.661C32.0841 19.7417 33.3621 11.9067 30.2839 10.161C27.2057 8.41524 20.937 13.4199 16.2825 21.3391Z" stroke="#B1B0B1" stroke-width="1.5"/>
<path d="M49.2246 30.7799V19.3268H54.3027C55.3236 19.3268 56.0996 19.4309 56.6309 19.6393C57.1621 19.8424 57.5866 20.2044 57.9043 20.7252C58.222 21.2461 58.3809 21.8216 58.3809 22.4518C58.3809 23.2643 58.1178 23.9492 57.5918 24.5065C57.0658 25.0638 56.2533 25.4179 55.1543 25.569C55.5553 25.7617 55.86 25.9518 56.0684 26.1393C56.5111 26.5455 56.9303 27.0533 57.3262 27.6627L59.3184 30.7799H57.4121L55.8965 28.3971C55.4538 27.7096 55.0892 27.1836 54.8027 26.819C54.5163 26.4544 54.2585 26.1992 54.0293 26.0533C53.8053 25.9075 53.5762 25.8059 53.3418 25.7487C53.1699 25.7122 52.8887 25.694 52.498 25.694H50.7402V30.7799H49.2246ZM50.7402 24.3815H53.998C54.6908 24.3815 55.2324 24.3112 55.623 24.1705C56.0137 24.0247 56.3105 23.7955 56.5137 23.483C56.7168 23.1653 56.8184 22.8216 56.8184 22.4518C56.8184 21.9101 56.6204 21.4648 56.2246 21.1158C55.834 20.7669 55.2142 20.5924 54.3652 20.5924H50.7402V24.3815ZM66.2637 28.108L67.7168 28.2877C67.4876 29.1367 67.0632 29.7955 66.4434 30.2643C65.8236 30.733 65.0319 30.9674 64.0684 30.9674C62.8548 30.9674 61.8913 30.595 61.1777 29.8502C60.4694 29.1002 60.1152 28.0507 60.1152 26.7018C60.1152 25.3059 60.4746 24.2226 61.1934 23.4518C61.9121 22.6809 62.8444 22.2955 63.9902 22.2955C65.0996 22.2955 66.0059 22.6731 66.709 23.4283C67.4121 24.1836 67.7637 25.2461 67.7637 26.6158C67.7637 26.6992 67.7611 26.8242 67.7559 26.9908H61.5684C61.6204 27.9023 61.8783 28.6002 62.3418 29.0846C62.8053 29.569 63.3835 29.8112 64.0762 29.8112C64.5918 29.8112 65.0319 29.6757 65.3965 29.4049C65.7611 29.1341 66.0501 28.7018 66.2637 28.108ZM61.6465 25.8346H66.2793C66.2168 25.1367 66.0397 24.6132 65.748 24.2643C65.3001 23.7226 64.7194 23.4518 64.0059 23.4518C63.36 23.4518 62.8158 23.6679 62.373 24.1002C61.9355 24.5325 61.6934 25.1106 61.6465 25.8346ZM74.9043 29.7565C74.3835 30.1992 73.8809 30.5117 73.3965 30.694C72.9173 30.8763 72.4017 30.9674 71.8496 30.9674C70.9382 30.9674 70.2376 30.7461 69.748 30.3033C69.2585 29.8554 69.0137 29.2851 69.0137 28.5924C69.0137 28.1862 69.1048 27.8164 69.2871 27.483C69.4746 27.1445 69.7168 26.8737 70.0137 26.6705C70.3158 26.4674 70.6543 26.3138 71.0293 26.2096C71.3053 26.1367 71.722 26.0664 72.2793 25.9987C73.4147 25.8632 74.2507 25.7018 74.7871 25.5143C74.7923 25.3216 74.7949 25.1992 74.7949 25.1471C74.7949 24.5742 74.6621 24.1705 74.3965 23.9362C74.0371 23.6184 73.5033 23.4596 72.7949 23.4596C72.1335 23.4596 71.6439 23.5768 71.3262 23.8112C71.0137 24.0403 70.7819 24.4492 70.6309 25.0377L69.2559 24.8502C69.3809 24.2617 69.5866 23.7877 69.873 23.4283C70.1595 23.0638 70.5736 22.7851 71.1152 22.5924C71.6569 22.3945 72.2845 22.2955 72.998 22.2955C73.7064 22.2955 74.2819 22.3789 74.7246 22.5455C75.1673 22.7122 75.4928 22.9231 75.7012 23.1783C75.9095 23.4283 76.0553 23.7461 76.1387 24.1315C76.1855 24.3711 76.209 24.8033 76.209 25.4283V27.3033C76.209 28.6106 76.2376 29.4388 76.2949 29.7877C76.3574 30.1315 76.4772 30.4622 76.6543 30.7799H75.1855C75.0397 30.4882 74.946 30.1471 74.9043 29.7565ZM74.7871 26.6158C74.2767 26.8242 73.5111 27.0013 72.4902 27.1471C71.9121 27.2304 71.5033 27.3242 71.2637 27.4283C71.0241 27.5325 70.8392 27.6862 70.709 27.8893C70.5788 28.0872 70.5137 28.3086 70.5137 28.5533C70.5137 28.9283 70.6543 29.2408 70.9355 29.4908C71.222 29.7408 71.6387 29.8658 72.1855 29.8658C72.7272 29.8658 73.209 29.7487 73.6309 29.5143C74.0527 29.2747 74.3626 28.9492 74.5605 28.5377C74.7116 28.22 74.7871 27.7513 74.7871 27.1315V26.6158ZM83.8105 27.7408L85.1934 27.9205C85.0423 28.8737 84.6543 29.6211 84.0293 30.1627C83.4095 30.6992 82.6465 30.9674 81.7402 30.9674C80.6048 30.9674 79.6908 30.5976 78.998 29.858C78.3105 29.1132 77.9668 28.0481 77.9668 26.6627C77.9668 25.7669 78.1152 24.983 78.4121 24.3112C78.709 23.6393 79.1595 23.1367 79.7637 22.8033C80.373 22.4648 81.0345 22.2955 81.748 22.2955C82.6491 22.2955 83.3861 22.5247 83.959 22.983C84.5319 23.4362 84.8991 24.082 85.0605 24.9205L83.6934 25.1315C83.5632 24.5742 83.3314 24.1549 82.998 23.8737C82.6699 23.5924 82.2715 23.4518 81.8027 23.4518C81.0944 23.4518 80.5189 23.707 80.0762 24.2174C79.6335 24.7226 79.4121 25.5247 79.4121 26.6237C79.4121 27.7382 79.6257 28.5481 80.0527 29.0533C80.4798 29.5586 81.0371 29.8112 81.7246 29.8112C82.2767 29.8112 82.7376 29.6419 83.1074 29.3033C83.4772 28.9648 83.7116 28.444 83.8105 27.7408ZM89.4668 29.5221L89.6699 30.7643C89.2741 30.8476 88.9199 30.8893 88.6074 30.8893C88.097 30.8893 87.7012 30.8086 87.4199 30.6471C87.1387 30.4856 86.9408 30.2747 86.8262 30.0143C86.7116 29.7487 86.6543 29.194 86.6543 28.3502V23.5768H85.623V22.483H86.6543V20.4283L88.0527 19.5846V22.483H89.4668V23.5768H88.0527V28.4283C88.0527 28.8294 88.0762 29.0872 88.123 29.2018C88.1751 29.3164 88.2559 29.4075 88.3652 29.4752C88.4798 29.5429 88.6413 29.5768 88.8496 29.5768C89.0059 29.5768 89.2116 29.5586 89.4668 29.5221Z" fill="#B1B0B1"/>
</svg>
