<svg width="96" height="50" viewBox="0 0 96 50" fill="none" xmlns="http://www.w3.org/2000/svg">
<path d="M23.8709 16.3411C25.1817 16.3411 26.4925 16.3564 27.8033 16.3328C28.0076 16.3185 28.2123 16.3555 28.3988 16.4402C28.5854 16.525 28.7481 16.655 28.8722 16.8186C29.0425 17.032 29.1987 17.276 29.4148 17.434C30.5823 18.2817 30.9218 19.4195 30.7655 20.819C30.6681 21.6914 30.7338 22.5875 30.7526 23.4682C30.7621 23.6535 30.7306 23.8386 30.6603 24.0103C30.59 24.1819 30.4828 24.3358 30.3462 24.4609C29.8282 24.9679 29.3373 25.502 28.831 26.0219C28.5221 26.3379 28.4552 26.6562 28.6619 27.083C29.3056 28.4059 29.9277 29.7393 30.5283 31.0834C30.7209 31.5114 30.9711 31.7542 31.4621 31.7C31.9002 31.6528 32.0364 31.8898 32.0305 32.3048C32.0094 33.8529 32.1856 33.6772 30.7045 33.6866C29.8823 33.6866 29.0601 33.6807 28.2379 33.6866C27.8186 33.6866 27.626 33.5074 27.6506 33.0794C27.6671 32.7859 27.6506 32.4899 27.6506 32.1964C27.6506 31.9346 27.7093 31.7153 28.0218 31.7047C28.3683 31.6929 28.4153 31.5361 28.2814 31.2496C27.6025 29.7908 26.9267 28.3308 26.2541 26.8696C26.2118 26.7589 26.1352 26.6648 26.0356 26.6011C25.936 26.5374 25.8186 26.5076 25.7008 26.5159C24.9574 26.5159 24.2139 26.5253 23.4692 26.5159C23.0816 26.5088 22.9594 26.6998 22.9618 27.0594C22.9688 28.4141 22.9735 29.7712 22.9618 31.1247C22.9618 31.5691 23.1603 31.7366 23.5702 31.6918C24.1481 31.6304 24.3172 31.9028 24.2937 32.451C24.2373 33.7668 24.5803 33.6831 23.091 33.6866C21.9963 33.6866 20.9004 33.6772 19.8022 33.6866C19.3641 33.6925 19.1304 33.5416 19.175 33.0712C19.1879 32.9344 19.175 32.7965 19.175 32.6585C19.175 31.7153 19.175 31.6965 20.0912 31.7C20.5809 31.7 20.736 31.5125 20.7348 31.0362C20.7231 26.9907 20.7231 22.9455 20.7348 18.9007C20.7348 18.4197 20.5762 18.2263 20.0888 18.244C19.7975 18.2546 19.3688 18.4032 19.2466 18.0377C19.0975 17.5466 19.0975 17.022 19.2466 16.5309C19.3171 16.2821 19.6072 16.3423 19.814 16.3423C21.1706 16.3387 22.5213 16.3411 23.8709 16.3411ZM22.9676 21.3731C22.9676 22.1984 22.9876 23.0237 22.9606 23.8431C22.9442 24.3371 23.1485 24.4975 23.6184 24.4892C24.4969 24.4644 25.3802 24.4338 26.2541 24.4963C27.0633 24.554 27.6635 24.3241 28.2003 23.6969C28.5386 23.2984 28.7535 22.9353 28.7265 22.4C28.6878 21.6572 28.7265 20.9109 28.7124 20.1599C28.7007 19.4796 27.6259 18.3914 26.9506 18.3843C25.8171 18.3725 24.6837 18.3914 23.5514 18.3749C23.125 18.3749 22.9536 18.5317 22.9641 18.9644C22.9817 19.7649 22.9688 20.569 22.9676 21.3731Z" fill="#979797"/>
<path d="M40.6295 33.6855H36.0487C35.1549 33.6855 35.1549 33.6855 35.1514 32.8153V32.5795C35.1514 31.7153 35.1514 31.6906 36.0323 31.7024C36.5444 31.7106 36.7135 31.5232 36.7124 31.015C36.6983 26.9891 36.6983 22.9628 36.7124 18.9361C36.7124 18.4291 36.5562 18.2369 36.0382 18.2464C35.1526 18.2629 35.1526 18.2358 35.1514 17.3197C35.1561 17.2411 35.1561 17.1624 35.1514 17.0839C35.0833 16.5274 35.3099 16.3222 35.8796 16.3305C37.699 16.3576 39.5207 16.3411 41.3378 16.3411C42.6885 16.3411 44.0393 16.3635 45.3888 16.3305C45.9632 16.3163 46.1382 16.5333 46.1218 17.0862C46.0912 18.1473 46.0947 19.2084 46.1218 20.2695C46.1335 20.7871 45.9209 20.9545 45.4264 20.9604C44.2061 20.9769 44.2072 20.9923 44.2072 19.7626C44.2072 18.2582 44.2072 18.2582 42.7226 18.2582C41.6655 18.2582 40.6084 18.2735 39.5513 18.2582C39.0944 18.2487 38.9288 18.4244 38.9335 18.8807C38.9499 20.3922 38.9499 21.9044 38.9335 23.4175C38.9276 23.882 39.112 24.0353 39.5607 24.0294C40.8903 24.0117 42.2222 24.0424 43.5542 24.0152C44.0968 24.0035 44.2671 24.2062 44.2589 24.738C44.246 25.9382 44.2671 25.9382 43.0984 25.9382C41.9298 25.9382 40.7493 25.9559 39.5748 25.9311C39.085 25.9205 38.9229 26.1056 38.9299 26.5867C38.9495 28.0801 38.9495 29.5735 38.9299 31.0669C38.9229 31.5621 39.1237 31.7153 39.5936 31.7094C40.9247 31.6898 42.2559 31.6898 43.5871 31.7094C44.0369 31.7094 44.2331 31.5597 44.2108 31.094C44.1861 30.5847 44.2108 30.073 44.2108 29.5613C44.2108 29.2477 44.3541 29.0897 44.6712 29.0897C44.7099 29.0897 44.7499 29.0897 44.7886 29.0897C46.1159 29.0272 46.1159 29.0272 46.1159 30.3477C46.1159 31.173 46.1159 31.9983 46.1159 32.8236C46.1159 33.6489 46.083 33.6972 45.2679 33.6984C43.721 33.6855 42.1764 33.6855 40.6295 33.6855Z" fill="#979797"/>
<path d="M54.7339 33.6854C53.9516 33.6854 53.1694 33.6783 52.3848 33.6854C52.2286 33.6929 52.0727 33.665 51.9287 33.6038C51.7848 33.5426 51.6564 33.4495 51.5532 33.3317C50.9588 32.6809 50.3504 32.0418 49.7479 31.3993C49.6739 31.3344 49.6133 31.2555 49.5698 31.1671C49.5263 31.0787 49.5006 30.9825 49.4942 30.8841C49.4942 30.1193 49.4942 29.3537 49.4942 28.5873C49.4861 28.5284 49.4946 28.4684 49.5188 28.414C49.9182 27.8658 50.489 28.2277 50.9765 28.1535C51.2995 28.104 51.4228 28.3327 51.4157 28.6345C51.4187 28.6738 51.4187 28.7132 51.4157 28.7524C51.1891 29.8642 51.7493 30.6117 52.541 31.2708C52.7404 31.4593 53.0035 31.565 53.2774 31.5667C54.2746 31.5608 55.2742 31.5738 56.2702 31.5667C56.9749 31.5584 57.8429 30.6777 57.8523 29.9585C57.8641 29.1144 57.8641 28.2702 57.8523 27.426C57.8429 26.6986 57.0677 25.9275 56.3419 25.9216C55.1097 25.9134 53.8753 25.9063 52.6443 25.9216C52.4502 25.9338 52.2558 25.9002 52.077 25.8234C51.8981 25.7466 51.7396 25.6288 51.6142 25.4795C51.1068 24.9077 50.5818 24.3524 50.0486 23.8053C49.9372 23.6959 49.85 23.5642 49.7927 23.4188C49.7355 23.2733 49.7094 23.1174 49.7162 22.9611C49.7256 21.7444 49.7256 20.5261 49.7162 19.3062C49.7104 19.1499 49.7372 18.9942 49.7951 18.849C49.853 18.7038 49.9405 18.5724 50.0521 18.4632C50.5838 17.913 51.1049 17.3542 51.6154 16.7867C51.7387 16.6357 51.8954 16.5157 52.073 16.4361C52.2506 16.3565 52.4442 16.3195 52.6385 16.328C54.0479 16.3493 55.4574 16.3457 56.8669 16.328C57.0512 16.3158 57.2358 16.3468 57.4062 16.4184C57.5766 16.49 57.7281 16.6003 57.8488 16.7407C58.3844 17.3384 58.9329 17.9268 59.4932 18.4986C59.6189 18.6196 59.7168 18.7667 59.7801 18.9296C59.8434 19.0925 59.8706 19.2673 59.8597 19.4418C59.842 20.0502 59.8467 20.6597 59.8597 21.2681C59.8597 21.6395 59.7011 21.7986 59.3288 21.7963C57.5939 21.788 57.8723 21.9507 57.8512 20.3932C57.8382 19.4135 56.8128 18.3701 55.8427 18.3665C55.1191 18.3665 54.3944 18.3665 53.6709 18.3665C52.8029 18.3724 51.8844 19.2956 51.8774 20.1669C51.8774 20.6786 51.9408 21.1985 51.8621 21.6996C51.7247 22.5779 52.2144 23.092 52.7912 23.5931C53.0049 23.777 53.2528 23.7864 53.5076 23.7864C54.7022 23.7864 55.8955 23.7982 57.0889 23.7864C57.2831 23.773 57.4779 23.8051 57.6577 23.8802C57.8375 23.9553 57.9974 24.0713 58.1248 24.2191C58.6687 24.8428 59.2383 25.4323 59.8103 26.0218C59.9057 26.12 59.9798 26.2368 60.0281 26.365C60.0764 26.4932 60.0978 26.6301 60.091 26.767C60.091 28.0438 60.0805 29.3207 60.091 30.5964C60.0911 30.7736 60.0546 30.9488 59.9838 31.1111C59.9131 31.2735 59.8096 31.4193 59.6799 31.5396C59.0927 32.1468 58.4995 32.7433 57.9181 33.3576C57.8112 33.4705 57.6809 33.5584 57.5364 33.615C57.3918 33.6717 57.2366 33.6957 57.0818 33.6854C56.2996 33.6854 55.5173 33.6854 54.7339 33.6854Z" fill="#979797"/>
<path d="M69.3745 25.0174C69.3745 27.0005 69.3921 28.9848 69.3639 30.9678C69.3557 31.5432 69.5601 31.7637 70.1133 31.6953C70.2107 31.6888 70.3084 31.6888 70.4057 31.6953C71.7765 31.6953 71.8422 31.7802 71.6978 33.182C71.6637 33.5204 71.5192 33.6819 71.1845 33.6819C69.2668 33.6819 67.3484 33.6819 65.4291 33.6819C65.0298 33.6819 64.8935 33.4862 64.8759 33.0983C64.8125 31.6941 64.8019 31.6941 66.1809 31.6941C67.1463 31.6941 67.1358 31.6941 67.1346 30.7285C67.1299 26.8606 67.1299 22.9919 67.1346 19.1224C67.1346 18.2629 67.1346 18.2593 66.296 18.257C65.6887 18.257 65.0815 18.2747 64.4766 18.257C64.0302 18.2393 63.8259 18.3937 63.8505 18.8642C63.8764 19.3735 63.8411 19.8864 63.8576 20.3969C63.8717 20.8036 63.6884 20.9427 63.2985 20.9628C62.064 21.0241 62.057 21.0276 62.057 19.7838C62.057 18.8406 62.0722 17.8974 62.057 16.9542C62.0476 16.4932 62.2343 16.3352 62.683 16.3376C66.4205 16.347 70.1575 16.347 73.8942 16.3376C74.3346 16.3376 74.5402 16.4767 74.5331 16.9447C74.5159 18.0632 74.5159 19.1825 74.5331 20.3025C74.5425 20.7907 74.3335 20.951 73.8672 20.9604C72.6515 20.984 72.6609 20.9982 72.6492 19.7968C72.6327 18.0165 72.8841 18.2747 71.1363 18.264C69.3886 18.2534 69.3745 18.264 69.3745 20.0137V25.0174Z" fill="#979797"/>
<path d="M84.6686 35.9503C82.9961 35.9256 83.1252 36.1649 83.1018 34.5709C83.0935 34.0498 83.3003 33.8965 83.7983 33.8977C85.1126 33.8977 85.862 32.9804 85.7281 31.6694C85.5695 30.1095 85.4697 28.5426 85.3322 26.9793C85.2994 26.6032 85.4579 26.3638 85.7292 26.1233C86.9931 24.9986 86.9919 24.9856 85.7492 23.8962C85.4438 23.6274 85.2958 23.3338 85.3346 22.92C85.4861 21.28 85.613 19.6364 85.768 17.9964C85.8549 17.0768 85.0492 16.1501 84.1236 16.11C83.7936 16.0971 83.312 16.288 83.184 15.8683C83.0262 15.3184 83.0307 14.7344 83.1969 14.1871C83.2451 14.0185 83.4424 14.0067 83.6009 14.0055C84.1683 14.0055 84.7356 14.0055 85.3017 14.0055C85.4105 14.0059 85.5179 14.0304 85.6162 14.0773C85.7144 14.1241 85.8012 14.1922 85.8702 14.2767C86.4575 14.9063 87.0448 15.5358 87.6532 16.1501C87.779 16.2709 87.8742 16.4202 87.9306 16.5856C87.987 16.751 88.003 16.9275 87.9774 17.1004C87.8258 18.8005 87.7248 20.5042 87.5768 22.2043C87.5263 22.7938 87.6673 23.223 88.1817 23.5519C88.769 23.9221 89.0333 24.4397 88.9969 25.1848C88.964 25.8333 88.5447 26.128 88.1394 26.4334C87.6696 26.7871 87.5275 27.1856 87.5768 27.7445C87.726 29.4646 87.8341 31.1872 87.9868 32.9073C88.0106 33.0603 87.9972 33.2167 87.9477 33.3633C87.8982 33.5099 87.8141 33.6423 87.7025 33.7491C87.1822 34.2809 86.6454 34.8008 86.1885 35.3891C85.7058 36.0105 85.0856 35.9763 84.6686 35.9503Z" fill="#979797"/>
<path d="M10.3459 35.9468C9.60942 36.1425 8.98338 35.7876 8.49359 35.0625C8.30666 34.7846 8.07201 34.5423 7.8006 34.3469C6.98428 33.7691 6.89267 32.978 6.98898 32.0678C7.14872 30.5457 7.22389 29.0142 7.36954 27.4909C7.40947 27.0783 7.2697 26.8472 6.97488 26.5949C6.53208 26.2164 6 25.9323 6 25.1671C6 24.4019 6.20907 23.8796 6.83276 23.4906C7.27087 23.2159 7.42004 22.8515 7.36249 22.3033C7.19218 20.5654 7.09939 18.8193 6.95961 17.0779C6.93377 16.7631 6.97371 16.5026 7.19453 16.2703C7.85463 15.5948 8.50299 14.9133 9.15252 14.2318C9.23708 14.1498 9.3382 14.0869 9.44903 14.0475C9.55987 14.008 9.67784 13.9929 9.795 14.0031C10.2648 14.0031 10.7346 14.0208 11.2045 14.0031C11.6743 13.9854 11.8505 14.1917 11.8117 14.6374C11.8047 14.7152 11.8117 14.7942 11.8117 14.8732C11.7988 16.0522 11.9726 16.1571 10.6372 16.1371C9.89836 16.1182 9.09261 17.1428 9.15956 17.8655C9.31108 19.5067 9.42384 21.1514 9.58828 22.7914C9.64818 23.3809 9.37333 23.7417 8.96106 24.0883C7.7266 25.1282 7.91571 24.9584 8.93992 25.8568C9.51076 26.3591 9.62704 26.8613 9.55422 27.5534C9.38625 29.1333 9.2641 30.7191 9.14077 32.3036C9.09027 32.9521 10.1309 33.8929 10.8768 33.9047C11.8094 33.9201 11.8094 33.9201 11.8164 34.8479C11.8164 35.9397 11.8164 35.9397 10.7311 35.9397L10.3459 35.9468Z" fill="#979797"/>
</svg>
