<svg width="78" height="33" viewBox="0 0 78 33" fill="none" xmlns="http://www.w3.org/2000/svg">
<path fill-rule="evenodd" clip-rule="evenodd" d="M8.15085 14.8442C6.47008 14.21 5.54897 13.7168 5.54897 12.9417C5.54897 12.284 6.0786 11.9082 7.02268 11.9082C8.74956 11.9082 10.5224 12.5894 11.7427 13.2L12.4335 8.85488C11.4664 8.38507 9.48624 7.60998 6.74638 7.60998C4.81228 7.60998 3.20042 8.12665 2.04928 9.0897C0.851867 10.0996 0.230192 11.5559 0.230192 13.3175C0.230192 16.5117 2.14132 17.8741 5.2497 19.0249C7.25287 19.753 7.92066 20.2698 7.92066 21.0684C7.92066 21.8435 7.27584 22.2897 6.10157 22.2897C4.65099 22.2897 2.25651 21.5616 0.69075 20.6222L0 25.0143C1.33539 25.7894 3.82209 26.5879 6.40101 26.5879C8.45012 26.5879 10.154 26.0946 11.3053 25.1552C12.5946 24.1217 13.2624 22.5951 13.2624 20.6222C13.2624 17.3573 11.3053 15.995 8.15085 14.8442V14.8442ZM24.5073 12.2839L25.198 7.96229H21.5514V2.71599L16.6485 3.53899L15.9404 7.96229L14.216 8.24767L13.5705 12.2839H15.9334V20.7631C15.9334 22.9709 16.486 24.4976 17.6141 25.4371C18.5582 26.2121 19.9166 26.5879 21.8277 26.5879C23.3012 26.5879 24.1992 26.3296 24.8209 26.1651V21.585C24.4755 21.6791 23.6927 21.8435 23.1631 21.8435C22.0349 21.8435 21.5514 21.2563 21.5514 19.9175V12.2839H24.5073ZM35.4584 7.70986C33.8467 7.70986 32.5573 8.57303 32.0508 10.1232L31.7054 7.96229H26.7091V26.2356H32.4191V14.3744C33.133 13.4818 34.146 13.1591 35.5275 13.1591C35.827 13.1591 36.1492 13.1591 36.5407 13.2296V7.85079C36.1492 7.75689 35.8038 7.70986 35.4584 7.70986ZM40.8004 6.15369C42.4582 6.15369 43.7935 4.76804 43.7935 3.07693C43.7935 1.36222 42.4582 0 40.8004 0C39.1194 0 37.784 1.36222 37.784 3.07693C37.784 4.76804 39.1194 6.15369 40.8004 6.15369V6.15369ZM37.9222 7.96229H43.6554V26.2356H37.9222V7.96229V7.96229ZM59.9023 9.60636C58.8892 8.26757 57.4847 7.60998 55.6888 7.60998C54.031 7.60998 52.5804 8.31461 51.2219 9.79432L50.9226 7.96229H45.9031V33L51.6133 32.0371V26.1651C52.4882 26.447 53.3862 26.5879 54.1921 26.5879C55.6197 26.5879 57.6919 26.2121 59.3036 24.4271C60.8463 22.7124 61.6292 20.0585 61.6292 16.5587C61.6292 13.4584 61.0535 11.1097 59.9023 9.60636ZM55.1591 20.8804C54.6986 21.773 53.9849 22.2428 53.156 22.2428C52.5804 22.2428 52.0737 22.1253 51.6133 21.8905V13.2C52.5804 12.1666 53.4552 12.0491 53.7776 12.0491C55.2282 12.0491 55.9419 13.6463 55.9419 16.7701C55.9419 18.5551 55.6888 19.941 55.1591 20.8804V20.8804ZM78 16.9345C78 14.0221 77.3783 11.7202 76.1579 10.0996C74.9146 8.45553 73.0496 7.60998 70.678 7.60998C65.8197 7.60998 62.8035 11.274 62.8035 17.1459C62.8035 20.4342 63.6093 22.9004 65.198 24.474C66.6256 25.8833 68.6749 26.5879 71.3227 26.5879C73.7633 26.5879 76.0198 26.0008 77.4474 25.0377L76.8257 21.0449C75.4211 21.82 73.7864 22.2428 71.9444 22.2428C70.8392 22.2428 70.0793 22.0078 69.5267 21.5146C68.928 20.9979 68.5827 20.1524 68.4676 18.9545H77.9309C77.9539 18.6726 78 17.3573 78 16.9345V16.9345ZM68.4215 15.3843C68.5827 12.7772 69.2734 11.5559 70.5858 11.5559C71.8753 11.5559 72.5431 12.8008 72.6351 15.3843H68.4215V15.3843Z" fill="#B1B0B1"/>
</svg>
