<svg width="96" height="50" viewBox="0 0 96 50" fill="none" xmlns="http://www.w3.org/2000/svg">
<path d="M66.0861 22.2422C65.1997 22.2422 65.2923 23.271 65.2555 24.3693H66.7323C66.7323 23.1313 66.7323 22.2422 66.0861 22.2422ZM65.2555 26.1653C65.2555 27.159 65.7723 27.3508 66.64 27.3508C67.6371 27.3508 68.9846 27.0716 69.5016 26.9845V29.3908C69.0956 29.5304 67.8586 29.8614 66.64 29.8614C64.443 29.8614 61.7658 29.5301 61.7658 25.1016C61.7658 21.1959 63.8706 20.2718 66.086 20.2718C68.3569 20.2718 70 21.3703 70 25.0666V26.1653H65.2555ZM56.5952 22.7129C56.3923 22.7129 55.986 22.8698 55.7646 22.992V27.4553C55.9306 27.5079 56.2261 27.5427 56.3554 27.5427C56.9647 27.5427 57.3339 27.0544 57.3339 25.0145C57.3337 22.9396 57.1674 22.7129 56.5952 22.7129ZM57.0013 29.8616C56.5582 29.8616 56.0967 29.7395 55.7644 29.6697V33H52.2566V20.4462H55.0996L55.6167 21.0216C56.152 20.5683 56.9091 20.2718 57.7029 20.2718C59.1428 20.2718 60.8414 20.6553 60.8414 25.0143C60.8414 29.792 58.2937 29.8616 57.0013 29.8616ZM49.025 19.3129C48.0467 19.3129 47.2897 18.5632 47.2897 17.6565C47.2897 16.7498 48.0467 16 49.025 16C50.0037 16 50.7606 16.7498 50.7606 17.6565C50.7606 18.5632 50.0037 19.3129 49.025 19.3129ZM47.2713 29.6873V20.4462H50.7791V29.6873H47.2713ZM45.1473 23.0442C44.5934 23.0442 44.1687 23.2535 43.984 23.3581V29.6873H40.4763V20.4462H43.2641L43.781 21.3354C43.984 20.76 44.5379 20.2717 45.3503 20.2717C45.9042 20.2717 46.2734 20.3764 46.4394 20.4635V23.2182C46.0886 23.1313 45.6272 23.0442 45.1473 23.0442ZM38.4816 27.3509C38.7032 27.3509 39.4787 27.2464 39.7369 27.2113V29.5651C39.2017 29.6871 38.02 29.8616 37.2447 29.8616C36.2476 29.8616 34.383 29.7571 34.383 27.194V22.556H33.0907V20.4462H34.3832L34.8263 18.354L37.891 17.6566V20.4463H39.7372L39.2757 22.5561H37.8911V26.6013C37.8909 27.2287 38.0939 27.3509 38.4816 27.3509ZM29.4157 23.1139C29.4157 23.4801 29.6743 23.6021 30.2834 23.8636L30.6528 24.0206C31.5204 24.3868 32.7203 24.9796 32.7203 26.7233C32.7203 29.513 30.5233 29.8616 28.9541 29.8616C27.9386 29.8616 26.8678 29.635 26.1478 29.4259V27.0371C26.7754 27.1943 27.8649 27.4381 28.3447 27.4381C28.8801 27.4381 29.2863 27.3685 29.2863 26.9151C29.2863 26.5664 29.0278 26.4095 28.4555 26.1655L28.0124 25.9736C27.1817 25.6074 26 24.9799 26 23.2885C26 20.8126 28.0492 20.2722 29.7663 20.2722C31.0588 20.2722 31.908 20.5511 32.351 20.7081V23.027C31.834 22.8702 30.7819 22.6609 30.1541 22.6609C29.7296 22.6607 29.4157 22.7652 29.4157 23.1139Z" fill="#979797"/>
</svg>
