<svg width="96" height="50" viewBox="0 0 96 50" fill="none" xmlns="http://www.w3.org/2000/svg">
<g clip-path="url(#clip0)">
<path d="M36.056 21.922C35.776 21.6047 35.4027 21.348 34.936 21.152C34.4693 20.956 33.9373 20.858 33.34 20.858C32.4627 20.858 31.8233 21.026 31.422 21.362C31.0207 21.6887 30.82 22.1367 30.82 22.706C30.82 23.0047 30.8713 23.252 30.974 23.448C31.086 23.6347 31.254 23.798 31.478 23.938C31.702 24.078 31.9867 24.1993 32.332 24.302C32.6867 24.4047 33.102 24.5073 33.578 24.61C34.11 24.722 34.586 24.848 35.006 24.988C35.4353 25.128 35.7993 25.3053 36.098 25.52C36.3967 25.7253 36.6253 25.9773 36.784 26.276C36.9427 26.5747 37.022 26.948 37.022 27.396C37.022 27.8533 36.9333 28.25 36.756 28.586C36.5787 28.922 36.3313 29.202 36.014 29.426C35.6967 29.65 35.3187 29.818 34.88 29.93C34.4413 30.0327 33.9607 30.084 33.438 30.084C31.898 30.084 30.568 29.6033 29.448 28.642L29.938 27.844C30.1153 28.0307 30.3253 28.208 30.568 28.376C30.82 28.544 31.0953 28.6933 31.394 28.824C31.702 28.9453 32.0287 29.0433 32.374 29.118C32.7193 29.1833 33.0833 29.216 33.466 29.216C34.2593 29.216 34.8753 29.076 35.314 28.796C35.762 28.5067 35.986 28.0727 35.986 27.494C35.986 27.186 35.9207 26.9293 35.79 26.724C35.6687 26.5093 35.482 26.3273 35.23 26.178C34.978 26.0193 34.6653 25.884 34.292 25.772C33.9187 25.66 33.4847 25.548 32.99 25.436C32.4673 25.3147 32.01 25.1887 31.618 25.058C31.226 24.9273 30.8947 24.764 30.624 24.568C30.3533 24.372 30.148 24.1387 30.008 23.868C29.8773 23.588 29.812 23.2473 29.812 22.846C29.812 22.3887 29.896 21.9827 30.064 21.628C30.2413 21.264 30.4887 20.9653 30.806 20.732C31.1233 20.4893 31.4967 20.3073 31.926 20.186C32.3553 20.0553 32.8313 19.99 33.354 19.99C34.0167 19.99 34.6047 20.0927 35.118 20.298C35.6407 20.494 36.112 20.774 36.532 21.138L36.056 21.922ZM41.7978 20.06L45.3538 28.782L48.8958 20.06H49.9178L45.7738 30H44.9198L40.7758 20.06H41.7978ZM61.1095 29.132V30H54.4315V20.06H60.9835V20.928H55.4115V24.512H60.2695V25.338H55.4115V29.132H61.1095ZM66.5312 30V20.06H67.5112V29.132H73.2512V30H66.5312ZM84.5383 20.928H80.9963V30H80.0163V20.928H76.4743V20.06H84.5383V20.928ZM95.8771 29.132V30H89.1991V20.06H95.7511V20.928H90.1791V24.512H95.0371V25.338H90.1791V29.132H95.8771Z" fill="#B1B0B1"/>
<path d="M13.3232 12.0006C16.7424 11.9539 20.1047 14.4365 20.8495 18.0954C21.2052 19.8386 20.9306 21.4932 20.0225 23.029C19.915 23.2127 19.9027 23.3476 19.9946 23.5416C21.2117 26.1274 20.7974 29.1533 18.9198 31.1722C18.4978 31.6224 18.0231 32.0202 17.506 32.3571C15.6124 33.5962 13.6789 34.7752 11.7895 36.0203C8.92002 37.915 4.98921 37.5109 2.46038 35.1669C0.776278 33.6054 -0.0824288 31.6719 0.00623621 29.3575C0.0462591 28.2341 0.377333 27.1403 0.967043 26.1833C1.07828 26.0011 1.08634 25.8652 0.994985 25.6706C-0.215158 23.101 0.196463 20.1229 2.02189 18.0729C2.69413 17.3205 3.54316 16.8036 4.38091 16.2705C6.03349 15.2152 7.68588 14.1623 9.33809 13.1119C10.5321 12.3564 11.8384 11.9829 13.3232 12.0006ZM17.7328 21.0423C18.0371 20.3456 18.1438 19.5785 18.0412 18.8252C17.6151 15.565 13.81 13.7551 11.0351 15.4983C9.06565 16.7343 7.10105 17.982 5.15257 19.2524C3.6673 20.2196 3.04073 21.6318 3.2718 23.3756C3.69739 26.5804 7.51697 28.3489 10.2607 26.6325C10.9964 26.172 11.7267 25.7029 12.4564 25.2327C12.6079 25.129 12.7786 25.0566 12.9584 25.0197C13.1383 24.9828 13.3236 24.9821 13.5037 25.0177C14.0228 25.1172 14.4624 25.5551 14.5785 26.0957C14.6275 26.3345 14.602 26.5826 14.5053 26.8064C14.4086 27.0301 14.2454 27.2188 14.0379 27.3467C12.0711 28.6063 10.1008 29.8601 8.12688 31.1082C7.67173 31.3957 7.18219 31.3683 6.72973 31.0851C6.27727 30.8019 6.04191 30.3801 6.08489 29.8427C6.10209 29.6418 6.03599 29.5794 5.86458 29.5295C5.00502 29.2743 4.19871 28.8658 3.48459 28.3236C3.41581 28.2726 3.34112 28.2285 3.25353 28.171C2.95184 28.8619 2.84463 29.622 2.94347 30.3694C3.33628 33.608 7.14619 35.4507 9.91522 33.7284C11.9214 32.4807 13.9125 31.2101 15.8886 29.9169C17.3523 28.9539 17.9553 27.5374 17.7108 25.8206C17.2492 22.5738 13.4393 20.8537 10.6713 22.612C9.93833 23.0768 9.21181 23.5513 8.47509 24.0091C7.82004 24.4164 6.9882 24.2058 6.58088 23.5459C6.19882 22.9253 6.38689 22.2197 7.05269 21.7925C7.59435 21.4443 8.13924 21.1004 8.68251 20.7538C10.0478 19.884 11.413 19.0134 12.7783 18.1422C13.2619 17.8337 13.7622 17.8165 14.2469 18.1132C14.7193 18.4017 14.9578 18.8397 14.8971 19.4028C14.8767 19.5936 14.9681 19.628 15.1088 19.6715C15.9679 19.9278 16.7741 20.3359 17.4894 20.8763C17.5603 20.9306 17.6355 20.9746 17.7328 21.0423Z" fill="#B1B0B1"/>
</g>
<defs>
<clipPath id="clip0">
<rect width="96" height="50" fill="white"/>
</clipPath>
</defs>
</svg>
