<svg width="96" height="50" viewBox="0 0 96 50" fill="none" xmlns="http://www.w3.org/2000/svg">
<path d="M56.9419 30.0734L63.4435 39.826L55.6985 45L49.197 35.247L48.0625 33.5458L55.8078 28.3718L56.9419 30.0732V30.0734Z" fill="#B1B0B1"/>
<path d="M47.1876 36.5896L48.619 38.7368L42.7239 42.6749L40.1582 38.8263L41.4461 37.966L46.0535 34.8882L47.1876 36.5896Z" fill="#B1B0B1"/>
<path d="M60.1638 25.4631L61.8173 24.3585L64.3829 28.2072L60.5773 30.7495L59.1459 28.6021L61.298 27.1645L60.1638 25.4631ZM59.1459 28.6022L58.0117 26.9008L60.1638 25.4631L61.298 27.1645L59.1459 28.6022Z" fill="#B1B0B1"/>
<path d="M33.4788 26.014L32.1909 26.8742L28.2705 20.9935L34.1658 17.0554L36.9136 21.1777L32.3064 24.2555L36.9137 21.1775L38.0861 22.9361L33.4786 26.0138L33.4788 26.014Z" fill="#B1B0B1"/>
<path d="M47.8398 16.4201L40.0945 21.594L38.9222 19.8354L32.4814 10.1738L40.2267 5L46.6674 14.6615L47.8398 16.4201Z" fill="#B1B0B1"/>
<path d="M52.1965 13.5114L50.0444 14.949L48.8718 13.1903L46.124 9.06824L49.9297 6.52576L53.85 12.4066L52.1965 13.5114Z" fill="#B1B0B1"/>
<path d="M42.5804 39.6674L41.4463 37.966L46.0536 34.8882L47.1878 36.5896L42.5804 39.6674Z" fill="#B1B0B1"/>
<path d="M59.1459 28.6016L58.0117 26.9003L60.1638 25.4625L61.298 27.1639L59.1459 28.6016Z" fill="#B1B0B1"/>
<path d="M33.4781 26.0137L32.3057 24.2552L36.9128 21.1772L38.0854 22.9359L33.4779 26.0135L33.4781 26.0137Z" fill="#B1B0B1"/>
<path d="M50.0437 14.9487L48.8711 13.19L51.0235 11.7523L52.1958 13.5111L50.0437 14.9487Z" fill="#B1B0B1"/>
<path d="M56.9418 30.0734L49.1967 35.247L48.0625 33.5458L55.8076 28.3718L56.9418 30.0732V30.0734Z" fill="#B1B0B1"/>
<path d="M46.6689 14.6619L47.8413 16.4204L40.0961 21.5943L38.9238 19.8357L46.6691 14.6617L46.6689 14.6619Z" fill="#B1B0B1"/>
<path d="M31.2825 13.2562L32.7443 15.4492L30.5536 16.9125L29.0918 14.7195L31.2825 13.2562Z" fill="#B1B0B1"/>
<path d="M39.176 39.5444L40.6378 41.7374L38.4473 43.2007L36.9854 41.0079L39.176 39.5444Z" fill="#B1B0B1"/>
<path d="M33.4135 41.7535L27 32.0546L61.2748 9.10657L68 18.6506L33.4135 41.7535Z" fill="#B1B0B1"/>
</svg>
