<svg width="24" height="24" viewBox="0 0 24 24" fill="none" xmlns="http://www.w3.org/2000/svg">
<path d="M11.983 14.3868C13.3031 14.3868 14.3864 13.3036 14.3864 11.9835C14.3864 11.4757 14.2171 10.9679 13.9463 10.5956C13.5062 9.98628 12.7954 9.58008 11.983 9.58008C11.1706 9.58008 10.4597 9.98628 10.0196 10.5956C9.74884 11.0018 9.57959 11.4757 9.57959 11.9835C9.57959 13.3036 10.6628 14.3868 11.983 14.3868Z" fill="#12233D"/>
<path d="M17.2298 9.07201V7.04098V6.73633H16.9252H14.928V9.07201H17.2298Z" fill="#12233D"/>
<path d="M11.9831 0C5.38223 0 0 5.38223 0 11.9831C0 18.6178 5.38223 24 11.9831 24C18.6178 24 24 18.6178 24 11.9831C24 5.38223 18.6178 0 11.9831 0ZM18.8209 10.5952V16.1805C18.8209 17.6361 17.6361 18.8209 16.1805 18.8209H7.81946C6.36389 18.8209 5.17913 17.6361 5.17913 16.1805V10.5952V7.81946C5.17913 6.36389 6.36389 5.17913 7.81946 5.17913H16.1805C17.6361 5.17913 18.8209 6.36389 18.8209 7.81946V10.5952Z" fill="#12233D"/>
<path d="M15.7405 11.9826C15.7405 14.0475 14.0819 15.7061 12.017 15.7061C9.9521 15.7061 8.29343 14.0475 8.29343 11.9826C8.29343 11.4748 8.39498 11.0009 8.56423 10.5947H6.5332V16.1801C6.5332 16.8909 7.10866 17.5002 7.85337 17.5002H16.2144C16.9253 17.5002 17.5346 16.9248 17.5346 16.1801V10.5947H15.5036C15.639 11.0348 15.7405 11.5087 15.7405 11.9826Z" fill="#12233D"/>
</svg>
