<svg xmlns="http://www.w3.org/2000/svg" width="54.6" height="81.34" viewBox="0 0 54.6 81.34">
  <metadata><?xpacket begin="﻿" id="W5M0MpCehiHzreSzNTczkc9d"?>
<x:xmpmeta xmlns:x="adobe:ns:meta/" x:xmptk="Adobe XMP Core 5.6-c138 79.159824, 2016/09/14-01:09:01        ">
   <rdf:RDF xmlns:rdf="http://www.w3.org/1999/02/22-rdf-syntax-ns#">
      <rdf:Description rdf:about=""/>
   </rdf:RDF>
</x:xmpmeta>
                                                                                                    
                                                                                                    
                                                                                                    
                                                                                                    
                                                                                                    
                                                                                                    
                                                                                                    
                                                                                                    
                                                                                                    
                                                                                                    
                                                                                                    
                                                                                                    
                                                                                                    
                                                                                                    
                                                                                                    
                                                                                                    
                                                                                                    
                                                                                                    
                                                                                                    
                                                                                                    
                           
<?xpacket end="w"?></metadata>
<defs>
    <style>
      .cls-1 {
        fill: #4179f8;
        fill-rule: evenodd;
      }
    </style>
  </defs>
  <path id="_2" data-name="2" class="cls-1" d="M1586.42,4337.52v-2.8h-51.94a33.988,33.988,0,0,1,.77-5.81,32.245,32.245,0,0,1,3.15-8.61,39.694,39.694,0,0,1,6.72-9.17,35.868,35.868,0,0,1,11.62-7.77q3.915-1.68,8.82-3.64a48.645,48.645,0,0,0,9.24-4.9,26.162,26.162,0,0,0,7.21-7.28,19.861,19.861,0,0,0,1.26-18.13,19.666,19.666,0,0,0-4.83-6.65,25.029,25.029,0,0,0-7.98-4.76,30.969,30.969,0,0,0-11.06-1.82,28.187,28.187,0,0,0-10.99,2.03,38.741,38.741,0,0,0-8.19,4.55,45.838,45.838,0,0,0-7,6.72l2.24,1.68c0.37-.46,1.16-1.35,2.38-2.66a30.171,30.171,0,0,1,4.83-4.06,35.678,35.678,0,0,1,7.21-3.78,25.445,25.445,0,0,1,9.52-1.68,28.439,28.439,0,0,1,10.01,1.61,22.321,22.321,0,0,1,7.07,4.13,16.813,16.813,0,0,1,4.2,5.74,16.713,16.713,0,0,1-1.26,15.75,24.536,24.536,0,0,1-6.65,6.51,45.941,45.941,0,0,1-8.54,4.48c-3.04,1.22-5.86,2.38-8.47,3.5a37.058,37.058,0,0,0-13.23,8.75,39.275,39.275,0,0,0-7.21,10.64,35.473,35.473,0,0,0-2.94,10.15,65.755,65.755,0,0,0-.56,7.28h54.6Z" transform="translate(-1531.81 -4256.19)"/>
</svg>
