<svg xmlns="http://www.w3.org/2000/svg" width="49.874" height="29.375" viewBox="0 0 49.874 29.375">
  <metadata><?xpacket begin="﻿" id="W5M0MpCehiHzreSzNTczkc9d"?>
<x:xmpmeta xmlns:x="adobe:ns:meta/" x:xmptk="Adobe XMP Core 5.6-c138 79.159824, 2016/09/14-01:09:01        ">
   <rdf:RDF xmlns:rdf="http://www.w3.org/1999/02/22-rdf-syntax-ns#">
      <rdf:Description rdf:about=""/>
   </rdf:RDF>
</x:xmpmeta>
                                                                                                    
                                                                                                    
                                                                                                    
                                                                                                    
                                                                                                    
                                                                                                    
                                                                                                    
                                                                                                    
                                                                                                    
                                                                                                    
                                                                                                    
                                                                                                    
                                                                                                    
                                                                                                    
                                                                                                    
                                                                                                    
                                                                                                    
                                                                                                    
                                                                                                    
                                                                                                    
                           
<?xpacket end="w"?></metadata>
<defs>
    <style>
      .cls-1 {
        fill: #b5b5b5;
        fill-rule: evenodd;
      }
    </style>
  </defs>
  <path id="_" data-name="   “" class="cls-1" d="M193.048,600.138a60.957,60.957,0,0,0-9.695,5.976,23.56,23.56,0,0,0-6.11,7.5,17.9,17.9,0,0,0-2.058,8.035,8.116,8.116,0,0,0,1.959,5.678,6.107,6.107,0,0,0,4.681,2.158,6.367,6.367,0,0,0,4.781-2.092,6.85,6.85,0,0,0,1.993-4.881,5.907,5.907,0,0,0-.465-2.257,13.818,13.818,0,0,0-1.893-2.623,14.235,14.235,0,0,1-1.693-2.225,6.149,6.149,0,0,1-.332-2.191,7.148,7.148,0,0,1,1.726-4.848,22.648,22.648,0,0,1,8.633-6.176Zm30.68,0.464q-9.9,4.518-14.012,9.961A18.33,18.33,0,0,0,205.6,621.72a7.967,7.967,0,0,0,1.959,5.677,6.262,6.262,0,0,0,4.748,2.092,6.368,6.368,0,0,0,4.781-2.092,7.011,7.011,0,0,0,1.992-5.013,6.075,6.075,0,0,0-.465-2.325,15.339,15.339,0,0,0-1.826-2.39,11.341,11.341,0,0,1-1.693-2.258,5.615,5.615,0,0,1-.465-2.391,7.768,7.768,0,0,1,1.859-4.681q1.859-2.424,8.567-6.143Z" transform="translate(-175.188 -600.125)"/>
</svg>
