<?xml version="1.0"?>
<svg xmlns="http://www.w3.org/2000/svg" height="512px" viewBox="0 0 512 512" width="512px" class=""><g><path d="m393.53125 239.007812c10.894531-25.871093-2.042969-71.488281-29.957031-83.0625 0 0-9.53125-63.316406-63.316407-63.316406-53.789062 0-57.871093 63.316406-23.828124 79.65625 0 0 12.253906 35.402344 54.464843 35.402344 42.214844 0 42.210938 31.320312 42.210938 31.320312l8.964843 8.964844zm0 0" fill="#65687f" data-original="#65687F" class="" data-old_color="#65687f" style="fill:#2D4352"/><path d="m104.855469 239.007812h288.675781v69.445313h-288.675781zm0 0" fill="#d8edf7" data-original="#D8EDF7" class="" data-old_color="#d8edf7" style="fill:#D8EDF7"/><path d="m104.855469 279.859375h288.675781v28.59375h-288.675781zm0 0" fill="#a8c3cf" data-original="#A8C3CF" class=""/><path d="m362.214844 239.007812h31.316406v69.445313h-31.316406zm0 0" fill="#ff5a73" data-original="#FF5A73" class="" data-old_color="#ff5a73" style="fill:#D62C2C"/><path d="m362.214844 279.859375h31.316406v28.59375h-31.316406zm0 0" fill="#d4243e" data-original="#D4243E" class="" data-old_color="#d4243e" style="fill:#D4243E"/><path d="m104.855469 239.007812h78.980469v69.445313h-78.980469zm0 0" fill="#f2b375" data-original="#F2B375" class="" data-old_color="#f2b375" style="fill:#E3611E"/><path d="m104.855469 279.859375h78.980469v28.59375h-78.980469zm0 0" fill="#e09544" data-original="#E09544" class="active-path" style="fill:#E3611E" data-old_color="#e09544"/><path d="m256 0c-141.386719 0-256 114.613281-256 256s114.613281 256 256 256 256-114.613281 256-256-114.613281-256-256-256zm-209.953125 256c0-71.15625 35.40625-134.03125 89.550781-172.003906l200.417969 366.152344c-24.664063 10.175781-51.679687 15.800781-80.015625 15.800781-115.953125.003906-209.953125-93.996094-209.953125-209.949219zm330.347656 172.007812-200.414062-366.15625c24.660156-10.175781 51.683593-15.804687 80.019531-15.804687 115.953125 0 209.941406 94 209.941406 209.953125 0 71.15625-35.402344 134.035156-89.546875 172.007812zm0 0" fill="#ff5a73" data-original="#FF5A73" class="" data-old_color="#ff5a73" style="fill:#D62C2C"/></g> </svg>
