<?xml version="1.0"?>
<svg xmlns="http://www.w3.org/2000/svg" xmlns:xlink="http://www.w3.org/1999/xlink" version="1.1" id="Capa_1" x="0px" y="0px" viewBox="0 0 491.52 491.52" style="enable-background:new 0 0 491.52 491.52;" xml:space="preserve" width="512px" height="512px" class=""><g><circle style="fill:#DE4F4F" cx="245.76" cy="245.76" r="245.76" data-original="#E05B49" class="" data-old_color="#E05B49"/><path style="fill:#D62C2C" d="M489.417,277.452L332.426,120.46v0.005  c-2.506-2.529-5.977-4.101-9.814-4.101h-2.458l-11.418-11.418H182.784l2.509,11.418h-16.384c-7.629,0-13.824,6.195-13.824,13.824  v157.133c0,22.872,8.498,43.738,22.469,59.685l-0.014,0.008l0.257,0.257c2.57,2.91,5.307,5.666,8.226,8.226l126.71,126.71  C406.041,455.825,476.751,375.759,489.417,277.452z" data-original="#000000" class="" data-old_color="#000000"/><path style="fill:#E7E5E5" d="M322.612,116.359H168.908c-7.631,0-13.816,6.185-13.816,13.816v157.158  c0,50.075,40.593,90.668,90.669,90.668l0,0c50.074,0,90.667-40.593,90.667-90.668V130.174  C336.428,122.544,330.242,116.359,322.612,116.359z" data-original="#EBF0F3" class="" data-old_color="#EBF0F3"/><g>
	<polygon style="fill:#2D4352" points="182.797,104.96 188.616,131.313 302.904,131.313 308.723,104.96  " data-original="#64798A" class="" data-old_color="#64798A"/>
	<rect x="179.61" y="157.665" style="fill:#2D4352" width="132.326" height="83.2" data-original="#64798A" class="" data-old_color="#64798A"/>
</g><polygon style="fill:#3A556A;" points="179.597,240.866 179.597,157.666 311.923,157.666 " data-original="#3A556A" class=""/><rect x="185.559" y="163.635" style="fill:#FFFFFF;" width="120.412" height="71.291" data-original="#FFFFFF" class=""/><path style="fill:#FCD462;" d="M245.76,310.551c-7.077,0-12.814,5.736-12.814,12.814v63.195h25.628v-63.195  C258.574,316.287,252.838,310.551,245.76,310.551z" data-original="#FCD462" class=""/><rect x="232.96" y="329.165" style="fill:#E3611E" width="25.651" height="22.564" data-original="#F6C358" class="" data-old_color="#F6C358"/><circle style="fill:#D62C2C" cx="245.76" cy="340.429" r="4.547" data-original="#E56353" class="active-path" data-old_color="#E56353"/><path style="fill:#2D4352" d="M245.76,261.572c-21.728,0-39.342,17.614-39.342,39.341v68.13c9.093,4.386,19.035,7.285,29.507,8.415  v-54.093c0-5.424,4.412-9.836,9.836-9.836c5.424,0,9.836,4.412,9.836,9.836v54.093c10.47-1.13,20.41-4.029,29.503-8.415v-68.13  C285.101,279.185,267.487,261.572,245.76,261.572z" data-original="#64798A" class="" data-old_color="#64798A"/><circle style="fill:#D62C2C" cx="245.76" cy="283.187" r="8.105" data-original="#E56353" class="active-path" data-old_color="#E56353"/><g>
	<rect x="206.438" y="298.291" style="fill:#3A556A;" width="78.684" height="4.598" data-original="#3A556A" class=""/>
	<polygon style="fill:#3A556A;" points="204.708,176.554 202.566,178.591 204.708,180.627 220.11,180.627 222.253,178.591    220.11,176.554  " data-original="#3A556A" class=""/>
	<polygon style="fill:#3A556A;" points="225.094,181.105 223.057,178.962 221.021,181.105 221.021,196.507 223.057,198.649    225.094,196.507  " data-original="#3A556A" class=""/>
	<polygon style="fill:#3A556A;" points="204.132,181.105 202.096,178.962 200.059,181.105 200.059,196.507 202.096,198.649    204.132,196.507  " data-original="#3A556A" class=""/>
	<polygon style="fill:#3A556A;" points="204.708,221.978 202.566,219.941 204.708,217.905 220.11,217.905 222.253,219.941    220.11,221.978  " data-original="#3A556A" class=""/>
	<polygon style="fill:#3A556A;" points="225.094,217.427 223.057,219.57 221.021,217.427 221.021,202.025 223.057,199.883    225.094,202.025  " data-original="#3A556A" class=""/>
	<polygon style="fill:#3A556A;" points="204.132,217.427 202.096,219.57 200.059,217.427 200.059,202.025 202.096,199.883    204.132,202.025  " data-original="#3A556A" class=""/>
	<polygon style="fill:#3A556A;" points="237.892,176.554 235.749,178.591 237.892,180.627 253.293,180.627 255.437,178.591    253.293,176.554  " data-original="#3A556A" class=""/>
	<polygon style="fill:#3A556A;" points="258.278,181.105 256.241,178.962 254.204,181.105 254.204,196.507 256.241,198.649    258.278,196.507  " data-original="#3A556A" class=""/>
	<polygon style="fill:#3A556A;" points="237.316,181.105 235.28,178.962 233.243,181.105 233.243,196.507 235.28,198.649    237.316,196.507  " data-original="#3A556A" class=""/>
	<polygon style="fill:#3A556A;" points="237.892,221.978 235.749,219.941 237.892,217.905 253.293,217.905 255.437,219.941    253.293,221.978  " data-original="#3A556A" class=""/>
	<polygon style="fill:#3A556A;" points="258.278,217.427 256.241,219.57 254.204,217.427 254.204,202.025 256.241,199.883    258.278,202.025  " data-original="#3A556A" class=""/>
	<polygon style="fill:#3A556A;" points="237.316,217.427 235.28,219.57 233.243,217.427 233.243,202.025 235.28,199.883    237.316,202.025  " data-original="#3A556A" class=""/>
	<polygon style="fill:#3A556A;" points="271.076,176.554 268.933,178.591 271.076,180.627 286.477,180.627 288.62,178.591    286.477,176.554  " data-original="#3A556A" class=""/>
	<polygon style="fill:#3A556A;" points="291.462,181.105 289.425,178.962 287.388,181.105 287.388,196.507 289.425,198.649    291.462,196.507  " data-original="#3A556A" class=""/>
	<polygon style="fill:#3A556A;" points="270.5,181.105 268.464,178.962 266.426,181.105 266.426,196.507 268.464,198.649    270.5,196.507  " data-original="#3A556A" class=""/>
	<polygon style="fill:#3A556A;" points="271.076,221.978 268.933,219.941 271.076,217.905 286.477,217.905 288.62,219.941    286.477,221.978  " data-original="#3A556A" class=""/>
	<polygon style="fill:#3A556A;" points="291.462,217.427 289.425,219.57 287.388,217.427 287.388,202.025 289.425,199.883    291.462,202.025  " data-original="#3A556A" class=""/>
	<polygon style="fill:#3A556A;" points="270.5,217.427 268.464,219.57 266.426,217.427 266.426,202.025 268.464,199.883    270.5,202.025  " data-original="#3A556A" class=""/>
</g></g> </svg>
