<svg width="40" height="40" viewBox="0 0 40 40" fill="none" xmlns="http://www.w3.org/2000/svg">
<path d="M12.1457 32.665C11.9453 32.665 11.7501 32.5862 11.6035 32.4406L7.539 28.3865C7.33706 28.1853 7.26274 27.8884 7.34526 27.6151C8.32934 24.358 9.60455 21.1081 11.1371 17.9555C12.668 14.792 14.5747 10.8526 17.1482 8.10486L17.1507 8.10229C22.9256 1.99712 32.1878 1.73007 37.1948 2.11393C37.5751 2.14326 37.8765 2.44787 37.9031 2.82967C38.2532 7.85427 37.9421 17.1373 31.9289 22.8514C29.2258 25.4278 25.2443 27.327 22.045 28.8532C18.8883 30.3798 15.63 31.6523 12.3656 32.6331C12.2934 32.6542 12.219 32.665 12.1457 32.665ZM8.9526 27.6203L12.3615 31.021C15.4025 30.0824 18.4347 28.8856 21.3813 27.4603C24.6472 25.9027 28.3447 24.1388 30.871 21.7307C36.1748 16.6917 36.6653 8.4774 36.4106 3.60767C31.5589 3.32261 23.3618 3.7785 18.2676 9.16432C15.8555 11.7412 14.0063 15.5618 12.5204 18.6316C11.0925 21.5681 9.89311 24.5896 8.9526 27.6203Z" fill="#12233D"/>
<path d="M9.54997 23.8132C9.52947 23.8132 9.50845 23.8127 9.48795 23.8107L2.7075 23.2678C2.4743 23.2493 2.26262 23.1253 2.13141 22.9308C2.00071 22.7363 1.96534 22.4924 2.03505 22.2686C2.2621 21.5379 4.55984 15.0087 15.0849 10.7524C15.3776 10.6345 15.7149 10.7076 15.9322 10.9397C16.1495 11.1712 16.2023 11.5129 16.0665 11.8C15.9732 11.996 15.8081 12.1355 15.617 12.2013C7.68533 15.4199 4.80074 19.8677 3.87406 21.8127L9.60994 22.2722C10.0333 22.3061 10.349 22.6781 10.3152 23.1026C10.2834 23.5066 9.94719 23.8132 9.54997 23.8132Z" fill="#12233D"/>
<path d="M17.5426 37.9999C17.3904 37.9999 17.2402 37.9546 17.1116 37.8671C16.9184 37.7359 16.7954 37.5239 16.7764 37.2903L16.2321 30.5291C16.1982 30.1041 16.5135 29.7321 16.9363 29.6976C17.3556 29.6626 17.7307 29.9796 17.7646 30.4051L18.2248 36.1243C20.1684 35.2048 24.6296 32.3347 27.8602 24.4363C27.9181 24.2408 28.0534 24.0684 28.2507 23.9696C28.5362 23.826 28.8852 23.8734 29.12 24.092C29.3552 24.3107 29.4337 24.6503 29.3127 24.9483C25.0468 35.4451 18.5016 37.7385 17.7697 37.9654C17.6954 37.9886 17.619 37.9999 17.5426 37.9999Z" fill="#12233D"/>
</svg>
