<svg width="40" height="40" viewBox="0 0 40 40" fill="none" xmlns="http://www.w3.org/2000/svg">
<mask id="path-2-inside-1" fill="white">
<path fill-rule="evenodd" clip-rule="evenodd" d="M12.1459 32.665C11.9455 32.665 11.7502 32.5862 11.6036 32.4406L7.53915 28.3865C7.33721 28.1853 7.26289 27.8884 7.34541 27.6151C7.70402 26.4282 8.10128 25.2423 8.53557 24.0616L2.70957 23.5926C2.47596 23.5736 2.26397 23.4506 2.13276 23.2574C2.04528 23.1287 2 22.9786 2 22.8263C2 22.75 2.01132 22.6736 2.03448 22.5993C2.25954 21.8733 4.51752 15.4284 14.7967 11.161C15.5143 10.059 16.2946 9.01637 17.1483 8.10486L17.1509 8.10229C22.9257 1.99712 32.1879 1.73007 37.195 2.11393C37.5753 2.14326 37.8766 2.44787 37.9033 2.82967C38.2534 7.85427 37.9422 17.1373 31.9291 22.8514C31.1506 23.5934 30.2661 24.2791 29.3249 24.916C29.3211 24.9268 29.317 24.9375 29.3127 24.9482C25.0468 35.445 18.5016 37.7384 17.7696 37.9653C17.6953 37.9885 17.619 37.9998 17.5426 37.9998C17.3904 37.9998 17.2402 37.9545 17.1115 37.867C16.9183 37.7358 16.7953 37.5238 16.7763 37.2902L16.295 31.3107C14.9904 31.7971 13.6786 32.2387 12.3658 32.6331C12.2935 32.6542 12.2192 32.665 12.1459 32.665ZM16.0661 12.0353C16.7439 10.9913 17.4755 10.0107 18.2677 9.16432C23.3619 3.7785 31.559 3.32261 36.4108 3.60767C36.6655 8.4774 36.175 16.6917 30.8712 21.7307C28.3449 24.1388 24.6474 25.9027 21.3814 27.4603C18.4348 28.8856 15.4026 30.0824 12.3617 31.021L8.95275 27.6203C9.89326 24.5896 11.0926 21.5681 12.5206 18.6316C13.4741 16.6617 14.5772 14.3826 15.8826 12.3214C15.9412 12.2639 15.9914 12.1959 16.0303 12.1183C16.0439 12.0911 16.0559 12.0635 16.0661 12.0353ZM13.4124 13.4763C12.5638 15.0076 11.8138 16.5573 11.1372 17.9555C10.3996 19.4728 9.72161 21.0128 9.10699 22.5652L3.87554 22.1441C4.70621 20.3884 7.12884 16.5779 13.4124 13.4763ZM22.0456 28.8529C23.5968 28.113 25.3317 27.2854 27.0157 26.3354C23.8924 32.8064 20.0039 35.2826 18.2248 36.1243L17.7909 30.7322C19.2234 30.1581 20.6443 29.5307 22.0452 28.8532L22.0456 28.853L22.0456 28.8529Z"/>
</mask>
<path fill-rule="evenodd" clip-rule="evenodd" d="M12.1459 32.665C11.9455 32.665 11.7502 32.5862 11.6036 32.4406L7.53915 28.3865C7.33721 28.1853 7.26289 27.8884 7.34541 27.6151C7.70402 26.4282 8.10128 25.2423 8.53557 24.0616L2.70957 23.5926C2.47596 23.5736 2.26397 23.4506 2.13276 23.2574C2.04528 23.1287 2 22.9786 2 22.8263C2 22.75 2.01132 22.6736 2.03448 22.5993C2.25954 21.8733 4.51752 15.4284 14.7967 11.161C15.5143 10.059 16.2946 9.01637 17.1483 8.10486L17.1509 8.10229C22.9257 1.99712 32.1879 1.73007 37.195 2.11393C37.5753 2.14326 37.8766 2.44787 37.9033 2.82967C38.2534 7.85427 37.9422 17.1373 31.9291 22.8514C31.1506 23.5934 30.2661 24.2791 29.3249 24.916C29.3211 24.9268 29.317 24.9375 29.3127 24.9482C25.0468 35.445 18.5016 37.7384 17.7696 37.9653C17.6953 37.9885 17.619 37.9998 17.5426 37.9998C17.3904 37.9998 17.2402 37.9545 17.1115 37.867C16.9183 37.7358 16.7953 37.5238 16.7763 37.2902L16.295 31.3107C14.9904 31.7971 13.6786 32.2387 12.3658 32.6331C12.2935 32.6542 12.2192 32.665 12.1459 32.665ZM16.0661 12.0353C16.7439 10.9913 17.4755 10.0107 18.2677 9.16432C23.3619 3.7785 31.559 3.32261 36.4108 3.60767C36.6655 8.4774 36.175 16.6917 30.8712 21.7307C28.3449 24.1388 24.6474 25.9027 21.3814 27.4603C18.4348 28.8856 15.4026 30.0824 12.3617 31.021L8.95275 27.6203C9.89326 24.5896 11.0926 21.5681 12.5206 18.6316C13.4741 16.6617 14.5772 14.3826 15.8826 12.3214C15.9412 12.2639 15.9914 12.1959 16.0303 12.1183C16.0439 12.0911 16.0559 12.0635 16.0661 12.0353ZM13.4124 13.4763C12.5638 15.0076 11.8138 16.5573 11.1372 17.9555C10.3996 19.4728 9.72161 21.0128 9.10699 22.5652L3.87554 22.1441C4.70621 20.3884 7.12884 16.5779 13.4124 13.4763ZM22.0456 28.8529C23.5968 28.113 25.3317 27.2854 27.0157 26.3354C23.8924 32.8064 20.0039 35.2826 18.2248 36.1243L17.7909 30.7322C19.2234 30.1581 20.6443 29.5307 22.0452 28.8532L22.0456 28.853L22.0456 28.8529Z" fill="#12233D"/>
<path d="M11.6036 32.4406L11.3918 32.653L11.3922 32.6535L11.6036 32.4406ZM7.53915 28.3865L7.75101 28.1741L7.75088 28.1739L7.53915 28.3865ZM7.34541 27.6151L7.05823 27.5284L7.05822 27.5284L7.34541 27.6151ZM8.53557 24.0616L8.81713 24.1652L8.95355 23.7943L8.55965 23.7626L8.53557 24.0616ZM2.70957 23.5926L2.68529 23.8916L2.68549 23.8916L2.70957 23.5926ZM2.13276 23.2574L2.38094 23.0889L2.38084 23.0887L2.13276 23.2574ZM2.03448 22.5993L2.3209 22.6885L2.32102 22.6881L2.03448 22.5993ZM14.7967 11.161L14.9117 11.4381L14.9975 11.4025L15.0481 11.3247L14.7967 11.161ZM17.1483 8.10486L16.9357 7.89304L16.9294 7.89978L17.1483 8.10486ZM17.1509 8.10229L17.3635 8.31408L17.3688 8.30844L17.1509 8.10229ZM37.195 2.11393L37.218 1.81481L37.2179 1.8148L37.195 2.11393ZM37.9033 2.82967L38.2026 2.80882L38.2026 2.80878L37.9033 2.82967ZM31.9291 22.8514L31.7224 22.6339L31.7221 22.6343L31.9291 22.8514ZM29.3249 24.916L29.1568 24.6676L29.0751 24.7228L29.0422 24.8157L29.3249 24.916ZM29.3127 24.9482L29.5906 25.0611L29.5906 25.061L29.3127 24.9482ZM17.7696 37.9653L17.6808 37.6788L17.6804 37.6789L17.7696 37.9653ZM17.1115 37.867L17.2802 37.619L17.2801 37.6188L17.1115 37.867ZM16.7763 37.2902L16.4773 37.3143L16.4773 37.3145L16.7763 37.2902ZM16.295 31.3107L16.594 31.2867L16.5621 30.891L16.1902 31.0296L16.295 31.3107ZM12.3658 32.6331L12.4498 32.9211L12.4521 32.9204L12.3658 32.6331ZM16.0661 12.0353L15.8144 11.872L15.7958 11.9007L15.7841 11.9329L16.0661 12.0353ZM18.2677 9.16432L18.0498 8.95817L18.0487 8.95931L18.2677 9.16432ZM36.4108 3.60767L36.7103 3.592L36.6963 3.32393L36.4284 3.30819L36.4108 3.60767ZM30.8712 21.7307L30.6645 21.5132L30.6642 21.5136L30.8712 21.7307ZM21.3814 27.4603L21.2523 27.1895L21.2508 27.1902L21.3814 27.4603ZM12.3617 31.021L12.1498 31.2334L12.2776 31.3609L12.4502 31.3076L12.3617 31.021ZM8.95275 27.6203L8.66622 27.5314L8.61247 27.7046L8.74087 27.8327L8.95275 27.6203ZM12.5206 18.6316L12.7904 18.7628L12.7906 18.7623L12.5206 18.6316ZM15.8826 12.3214L15.6725 12.1073L15.6477 12.1316L15.6292 12.1609L15.8826 12.3214ZM16.0303 12.1183L15.7623 11.9835L15.762 11.984L16.0303 12.1183ZM13.4124 13.4763L13.6748 13.6217L14.1396 12.7827L13.2796 13.2072L13.4124 13.4763ZM11.1372 17.9555L11.407 18.0866L11.4072 18.0861L11.1372 17.9555ZM9.10699 22.5652L9.08293 22.8642L9.30421 22.882L9.38593 22.6756L9.10699 22.5652ZM3.87554 22.1441L3.60436 22.0158L3.41867 22.4083L3.85148 22.4432L3.87554 22.1441ZM27.0157 26.3354L27.2859 26.4658L27.7019 25.6039L26.8683 26.0741L27.0157 26.3354ZM22.0456 28.8529L22.1639 29.1289L22.1748 29.1237L22.0456 28.8529ZM18.2248 36.1243L17.9258 36.1483L17.9606 36.5811L18.3531 36.3954L18.2248 36.1243ZM17.7909 30.7322L17.6793 30.4537L17.4741 30.536L17.4918 30.7563L17.7909 30.7322ZM22.0452 28.8532L21.9155 28.5826L21.9146 28.5831L22.0452 28.8532ZM22.0456 28.853L21.9273 28.577L21.9159 28.5824L22.0456 28.853ZM11.3922 32.6535C11.5953 32.8553 11.8668 32.965 12.1459 32.965V32.365C12.0242 32.365 11.9051 32.3172 11.8151 32.2278L11.3922 32.6535ZM7.32729 28.5989L11.3918 32.653L11.8155 32.2282L7.75101 28.1741L7.32729 28.5989ZM7.05822 27.5284C6.94383 27.9072 7.04663 28.3193 7.32741 28.599L7.75088 28.1739C7.62778 28.0513 7.58195 27.8696 7.6326 27.7019L7.05822 27.5284ZM8.25402 23.9581C7.81772 25.1442 7.41857 26.3357 7.05823 27.5284L7.63259 27.7019C7.98946 26.5207 8.38484 25.3404 8.81713 24.1652L8.25402 23.9581ZM2.68549 23.8916L8.5115 24.3607L8.55965 23.7626L2.73364 23.2936L2.68549 23.8916ZM1.88457 23.4259C2.06716 23.6948 2.36175 23.8653 2.68529 23.8916L2.73384 23.2936C2.59017 23.2819 2.46078 23.2064 2.38094 23.0889L1.88457 23.4259ZM1.7 22.8263C1.7 23.0382 1.76306 23.2472 1.88467 23.4261L2.38084 23.0887C2.32751 23.0103 2.3 22.919 2.3 22.8263H1.7ZM1.74805 22.51C1.71575 22.6137 1.7 22.7202 1.7 22.8263H2.3C2.3 22.7797 2.30689 22.7335 2.3209 22.6885L1.74805 22.51ZM14.6817 10.8839C4.30445 15.1921 1.99388 21.7172 1.74793 22.5104L2.32102 22.6881C2.52521 22.0295 4.73059 15.6648 14.9117 11.4381L14.6817 10.8839ZM16.9294 7.89978C16.0605 8.8275 15.2695 9.88509 14.5453 10.9973L15.0481 11.3247C15.759 10.2329 16.5288 9.20524 17.3673 8.30994L16.9294 7.89978ZM16.9383 7.89057L16.9358 7.89314L17.3609 8.31658L17.3634 8.31401L16.9383 7.89057ZM37.2179 1.8148C32.2017 1.43025 22.8099 1.68299 16.9329 7.89613L17.3688 8.30844C23.0415 2.31125 32.1741 2.02989 37.172 2.41305L37.2179 1.8148ZM38.2026 2.80878C38.1656 2.27943 37.7475 1.85565 37.218 1.81481L37.1719 2.41304C37.403 2.43086 37.5877 2.61631 37.604 2.85056L38.2026 2.80878ZM32.1357 23.0689C35.2002 20.1568 36.8022 16.3447 37.5957 12.6449C38.3893 8.94479 38.3787 5.33748 38.2026 2.80882L37.604 2.85052C37.7779 5.34646 37.7868 8.89297 37.0091 12.5191C36.2313 16.1455 34.6711 19.8319 31.7224 22.6339L32.1357 23.0689ZM29.493 25.1645C30.4444 24.5208 31.3427 23.8247 32.1361 23.0686L31.7221 22.6343C30.9586 23.362 30.0879 24.0375 29.1568 24.6676L29.493 25.1645ZM29.5906 25.061C29.5966 25.0462 29.6023 25.0314 29.6076 25.0164L29.0422 24.8157C29.0398 24.8222 29.0373 24.8288 29.0347 24.8353L29.5906 25.061ZM17.8585 38.2519C18.6585 38.0038 25.2844 35.6571 29.5906 25.0611L29.0347 24.8352C24.8091 35.233 18.3446 37.473 17.6808 37.6788L17.8585 38.2519ZM17.5426 38.2998C17.6487 38.2998 17.7552 38.284 17.8589 38.2517L17.6804 37.6789C17.6354 37.6929 17.5892 37.6998 17.5426 37.6998V38.2998ZM16.9429 38.1151C17.1217 38.2367 17.3308 38.2998 17.5426 38.2998V37.6998C17.45 37.6998 17.3587 37.6723 17.2802 37.619L16.9429 38.1151ZM16.4773 37.3145C16.5036 37.638 16.6741 37.9326 16.943 38.1152L17.2801 37.6188C17.1625 37.539 17.087 37.4096 17.0754 37.266L16.4773 37.3145ZM15.9959 31.3348L16.4773 37.3143L17.0754 37.2662L16.594 31.2867L15.9959 31.3348ZM12.4521 32.9204C13.7712 32.5241 15.0892 32.0804 16.3997 31.5918L16.1902 31.0296C14.8915 31.5137 13.5859 31.9532 12.2795 32.3457L12.4521 32.9204ZM12.1459 32.965C12.2485 32.965 12.3511 32.9499 12.4498 32.921L12.2817 32.3451C12.2359 32.3584 12.1899 32.365 12.1459 32.365V32.965ZM16.3177 12.1987C16.9891 11.1647 17.7099 10.1992 18.4867 9.36934L18.0487 8.95931C17.241 9.82219 16.4988 10.8179 15.8144 11.872L16.3177 12.1987ZM18.4857 9.37047C23.4804 4.08981 31.5518 3.6227 36.3932 3.90715L36.4284 3.30819C31.5663 3.02252 23.2434 3.4672 18.0498 8.95818L18.4857 9.37047ZM36.1112 3.62334C36.2377 6.04184 36.1784 9.28289 35.433 12.5388C34.6875 15.795 33.26 19.0473 30.6645 21.5132L31.0778 21.9482C33.7861 19.3751 35.2559 16.0008 36.0179 12.6727C36.7799 9.3442 36.8386 6.04323 36.7103 3.592L36.1112 3.62334ZM30.6642 21.5136C28.1793 23.8822 24.5297 25.6264 21.2523 27.1895L21.5106 27.731C24.765 26.179 28.5104 24.3955 31.0782 21.9479L30.6642 21.5136ZM21.2508 27.1902C18.3174 28.6091 15.2993 29.8003 12.2732 30.7343L12.4502 31.3076C15.5059 30.3645 18.5522 29.162 21.5121 27.7303L21.2508 27.1902ZM12.5736 30.8086L9.16462 27.4079L8.74087 27.8327L12.1498 31.2334L12.5736 30.8086ZM9.23927 27.7092C10.1752 24.6934 11.3689 21.6861 12.7904 18.7628L12.2508 18.5004C10.8164 21.4502 9.61137 24.4857 8.66622 27.5314L9.23927 27.7092ZM12.7906 18.7623C13.7453 16.7899 14.8413 14.5263 16.1361 12.4819L15.6292 12.1609C14.3131 14.2389 13.2028 16.5334 12.2505 18.5009L12.7906 18.7623ZM16.0928 12.5355C16.1747 12.4551 16.2447 12.3602 16.2986 12.2526L15.762 11.984C15.7382 12.0316 15.7077 12.0727 15.6725 12.1073L16.0928 12.5355ZM16.2983 12.253C16.3173 12.2153 16.3339 12.1768 16.348 12.1377L15.7841 11.9329C15.7779 11.9501 15.7706 11.967 15.7623 11.9835L16.2983 12.253ZM13.15 13.3309C12.2968 14.8706 11.5433 16.4276 10.8672 17.8248L11.4072 18.0861C12.0843 16.6871 12.8309 15.1447 13.6748 13.6217L13.15 13.3309ZM10.8674 17.8243C10.1265 19.3484 9.44547 20.8953 8.82806 22.4547L9.38593 22.6756C9.99775 21.1302 10.6727 19.5972 11.407 18.0866L10.8674 17.8243ZM9.13106 22.2661L3.89961 21.8451L3.85148 22.4432L9.08293 22.8642L9.13106 22.2661ZM4.14672 22.2724C4.95084 20.5728 7.32712 16.8146 13.5452 13.7453L13.2796 13.2072C6.93055 16.3412 4.46159 20.2039 3.60436 22.0158L4.14672 22.2724ZM26.8683 26.0741C25.1947 27.0182 23.4689 27.8416 21.9165 28.5822L22.1748 29.1237C23.7247 28.3844 25.4688 27.5525 27.1631 26.5967L26.8683 26.0741ZM18.3531 36.3954C20.1892 35.5268 24.1305 33.0034 27.2859 26.4658L26.7455 26.205C23.6544 32.6095 19.8185 35.0384 18.0965 35.8531L18.3531 36.3954ZM17.4918 30.7563L17.9258 36.1483L18.5238 36.1002L18.0899 30.7081L17.4918 30.7563ZM21.9146 28.5831C20.5199 29.2576 19.1053 29.8822 17.6793 30.4537L17.9025 31.0107C19.3415 30.434 20.7687 29.8037 22.1758 29.1232L21.9146 28.5831ZM21.9159 28.5824L21.9155 28.5826L22.1749 29.1237L22.1753 29.1235L21.9159 28.5824ZM21.9275 28.5772L21.9274 28.5772L22.1638 29.1287L22.1638 29.1287L21.9275 28.5772Z" fill="#FAFAFA" mask="url(#path-2-inside-1)"/>
</svg>
