<svg width="40" height="40" viewBox="0 0 40 40" fill="none" xmlns="http://www.w3.org/2000/svg">
<g clip-path="url(#clip0)">
<path d="M6.10008 16.5077L5.44355 16.7467L6.06897 17.0582L17.2259 22.614L22.7818 33.771L23.0933 34.3964L23.3323 33.7399L32.9765 7.24802L33.1966 6.64338L32.592 6.86349L6.10008 16.5077ZM16.1341 23.8407L16.0893 23.7507L15.9993 23.7059L3.17218 17.3183C2.78955 17.1278 2.63383 16.6659 2.81891 16.2893C2.90469 16.1148 3.05438 15.9804 3.2374 15.9138L34.2134 4.63712C34.6085 4.49328 35.0517 4.6978 35.2004 5.09796C35.2641 5.26944 35.2647 5.45683 35.2029 5.62658L23.9262 36.6026C23.7829 36.9962 23.346 37.1986 22.9472 37.0505C22.7622 36.9817 22.6097 36.8447 22.5216 36.6678L16.1341 23.8407Z" fill="#12233D" stroke="#FAFAFA" stroke-width="0.6"/>
</g>
<defs>
<clipPath id="clip0">
<rect width="40" height="40" fill="white"/>
</clipPath>
</defs>
</svg>
