<svg width="40" height="40" viewBox="0 0 40 40" fill="none" xmlns="http://www.w3.org/2000/svg">
<rect width="40" height="40" fill="white"/>
<path d="M1.25591 23.8471C1.15061 23.6904 1.12203 23.4937 1.17826 23.3131L1.17829 23.313C1.39451 22.6172 3.66206 16.1376 14.1174 11.901L14.1599 11.8838L14.1855 11.8458C14.8226 10.9014 15.5071 10.0106 16.2458 9.22021L16.2598 9.20537C21.9836 3.15422 31.1809 2.87998 36.1834 3.26348C36.4891 3.28706 36.7321 3.53208 36.7536 3.84009C36.9281 6.34421 36.9374 9.90593 36.1557 13.5505C35.374 17.1953 33.8034 20.9131 30.8257 23.7427L30.8255 23.7428C30.0546 24.4777 29.177 25.1583 28.2408 25.7918L28.2 25.8194L28.1835 25.8658C28.1804 25.8745 28.1771 25.8831 28.1737 25.8917C23.9279 36.339 17.4231 38.6057 16.7252 38.822L16.725 38.8221C16.6654 38.8407 16.604 38.8498 16.5426 38.8498C16.4201 38.8498 16.2994 38.8134 16.1958 38.743L16.1958 38.7429C16.0404 38.6374 15.9411 38.4667 15.9258 38.2781L15.4444 32.2987L15.4285 32.1009L15.2425 32.1702C13.9411 32.6553 12.6325 33.0958 11.3231 33.4893C11.2642 33.5064 11.2043 33.515 11.1459 33.515C10.9849 33.515 10.8278 33.4518 10.7095 33.3344L1.25591 23.8471ZM1.25591 23.8471C1.36174 24.0038 1.53206 24.1034 1.71938 24.1182L1.71948 24.1182L7.66536 24.5943L7.86348 24.6101L7.79389 24.7963C7.31449 26.0789 6.87881 27.3682 6.48896 28.6585C6.42239 28.879 6.48246 29.1183 6.64498 29.2802L6.64504 29.2803L10.7093 33.3342L1.25591 23.8471ZM16.735 31.593L16.6324 31.6341L16.6413 31.7442L17.0752 37.1363L17.0926 37.3527L17.2889 37.2598C19.0965 36.4047 23.0114 33.9049 26.1507 27.4006L26.3588 26.9696L25.942 27.2048C24.2631 28.1518 22.5327 28.9773 20.981 29.7176L20.9802 29.7179C19.5825 30.3939 18.1643 31.0202 16.735 31.593ZM8.22385 23.3917L8.33384 23.4005L8.375 23.2981C8.95382 21.8584 9.58719 20.43 10.2721 19.021L10.2722 19.0208C11.0078 17.5008 11.8277 15.8068 12.7658 14.1523L13.0026 13.7348L12.5702 13.9432C6.09391 17.0652 3.59724 20.946 2.73864 22.7481L2.64495 22.9447L2.86208 22.9621L8.22385 23.3917ZM11.2557 32.1272L11.3196 32.1909L11.4059 32.1643C14.4542 31.2235 17.4935 30.0238 20.4467 28.5953L20.4547 28.5915C23.7127 27.0377 27.4297 25.265 29.9745 22.8395C32.6546 20.2932 34.1137 16.9493 34.8716 13.6392C35.6295 10.3289 35.6883 7.04288 35.5605 4.59984L35.5535 4.4658L35.4195 4.45793C30.5626 4.17256 22.3026 4.62285 17.1587 10.0612L17.1582 10.0618C14.7305 12.6554 12.8733 16.4924 11.391 19.555L11.3856 19.566C11.3856 19.566 11.3856 19.566 11.3856 19.566C9.95445 22.5092 8.75228 25.5377 7.80945 28.5758L7.78257 28.6624L7.84677 28.7265L11.2557 32.1272ZM16.2646 9.19967C16.265 9.19911 16.2654 9.19868 16.2653 9.19886L16.2648 9.19938L16.2646 9.19967Z" fill="#12233D" stroke="#FAFAFA" stroke-width="0.3"/>
</svg>
