<svg width="40" height="40" viewBox="0 0 40 40" fill="none" xmlns="http://www.w3.org/2000/svg">
<g clip-path="url(#clip0)">
<path fill-rule="evenodd" clip-rule="evenodd" d="M12.0313 2.14014L12.0694 2.14472L12.1071 2.14963L12.1451 2.15491L12.1827 2.16122L12.2203 2.16823L12.2578 2.17593L12.2954 2.18363L12.3328 2.19273L12.3699 2.20217L12.4073 2.21197L12.4443 2.2228L12.4814 2.23363L12.5187 2.24552L12.5556 2.25774L12.5921 2.27031L12.629 2.28393L12.6659 2.29755L12.7027 2.31187L12.7391 2.32652L12.7758 2.34224L12.8119 2.35792L12.8486 2.37433L12.8849 2.39108L12.9212 2.40853L12.9585 2.42706L13.0299 2.46295L13.1019 2.50167L13.1742 2.54214L13.246 2.58434L13.3177 2.62794L13.3897 2.67329L13.4612 2.72038L13.5327 2.76886L13.6041 2.81874L13.6757 2.87037L13.7465 2.92337L13.818 2.9778L13.8891 3.03325L13.96 3.0908L14.0309 3.14905L14.1017 3.20869L14.1725 3.26973L14.2431 3.33217L14.3134 3.39563L14.3839 3.46016L14.454 3.52642L14.5241 3.59337L14.5944 3.66139L14.664 3.73007L14.7339 3.80052L14.803 3.87163L14.8724 3.94381L14.9418 4.01668L15.0104 4.09092L15.0796 4.16589L15.1478 4.24186L15.2163 4.31819L15.2843 4.39556L15.352 4.47396L15.4193 4.5527L15.4865 4.63283L15.5533 4.7126L15.6201 4.79376L15.6862 4.8756L15.7519 4.95777L15.8175 5.04064L15.8828 5.12384L15.9473 5.20772L16.0118 5.29229L16.0759 5.3772L16.139 5.46242L16.2023 5.548L16.2646 5.63389L16.3269 5.72048L16.3885 5.80704L16.4497 5.89393L16.5105 5.98117L16.63 6.15625L16.6887 6.2441L16.747 6.33159L16.8046 6.41975L16.8619 6.50755L16.9185 6.59602L16.9743 6.68376L17.0295 6.77218L17.0843 6.86023L17.1911 7.03623L17.2434 7.12385L17.2951 7.21143L17.346 7.29899L17.396 7.38617L17.4456 7.47298L17.4938 7.55973L17.5416 7.64613L17.5885 7.73214L17.6343 7.81775L17.6797 7.90301L17.7242 7.98788L17.7676 8.07236L17.8099 8.15645L17.8516 8.23982L17.8919 8.32313L17.9319 8.40538L17.9705 8.48758L18.0081 8.5687L18.0447 8.64943L18.0806 8.72943L18.1152 8.80868L18.1487 8.88755L18.1816 8.96569L18.2127 9.04272L18.2432 9.11972L18.2723 9.19527L18.3004 9.27044L18.3272 9.34485L18.3529 9.41818L18.3776 9.49112L18.401 9.56261L18.4234 9.63371L18.4444 9.70407L18.464 9.77367L18.4823 9.84182L18.4992 9.90992L18.5151 9.97694L18.5296 10.0432L18.5425 10.1084L18.554 10.1728L18.5596 10.2093L18.5646 10.2452L18.569 10.281L18.5729 10.3171L18.5758 10.3529L18.578 10.3886L18.5798 10.4247L18.5806 10.4604L18.5808 10.5317L18.5799 10.567L18.5782 10.6022L18.5759 10.6375L18.5732 10.6723L18.5695 10.7075L18.5654 10.7423L18.561 10.7767L18.5559 10.8111L18.5501 10.8455L18.5436 10.8799L18.5367 10.9139L18.521 10.9811L18.5128 11.0144L18.5035 11.0479L18.4942 11.0808L18.4836 11.1136L18.4733 11.1461L18.4624 11.1785L18.4507 11.2109L18.4267 11.275L18.4136 11.3067L18.3998 11.3397L18.3728 11.4006L18.3437 11.4621L18.3125 11.5228L18.2802 11.5831L18.2466 11.6427L18.2113 11.7011L18.1754 11.7588L18.138 11.8165L18.0989 11.8731L18.0592 11.9296L18.0184 11.985L17.9763 12.0404L17.9334 12.0951L17.8896 12.1487L17.8447 12.2026L17.7992 12.2557L17.7526 12.3085L17.705 12.3609L17.6571 12.4129L17.6081 12.4646L17.5588 12.5159L17.5084 12.5667L17.4578 12.6173L17.4064 12.6678L17.354 12.7179L17.2485 12.8174L17.1947 12.8668L17.0865 12.9648L17.031 13.0137L16.9208 13.1102L16.8088 13.2063L16.6962 13.3017L16.5828 13.3971L16.4692 13.4914L16.3549 13.5857L16.1277 13.7729L16.0149 13.8658L15.9031 13.9584L15.7924 14.0508L15.6831 14.1431L15.5756 14.2352L15.4695 14.3274L15.418 14.3733L15.3669 14.4189L15.3158 14.4645L15.2164 14.5559L15.1681 14.6016L15.1202 14.647L15.073 14.6924L15.0272 14.7379L14.9817 14.783L14.9377 14.8282L14.8943 14.8734L14.8517 14.9186L14.8101 14.9636L14.77 15.0086L14.7305 15.0529L14.6929 15.0976L14.6555 15.142L14.6196 15.1864L14.5848 15.2306L14.5517 15.2744L14.5194 15.3183L14.4884 15.3615L14.4585 15.4051L14.4301 15.4481L14.4031 15.4911L14.3775 15.5335L14.3533 15.576L14.3301 15.6181L14.3088 15.6599L14.2885 15.7015L14.2692 15.7441L14.2608 15.763L14.2522 15.7833L14.244 15.804L14.2362 15.8243L14.2287 15.8443L14.2216 15.8646L14.2145 15.8843L14.2081 15.9047L14.2017 15.9244L14.196 15.9441L14.1907 15.9641L14.1807 16.0036L14.1761 16.023L14.1718 16.0428L14.1682 16.0626L14.1647 16.0817L14.1615 16.1011L14.1586 16.1209L14.1565 16.1401L14.154 16.1596L14.1522 16.1791L14.1511 16.1986L14.1496 16.2178L14.1481 16.2569L14.1481 16.2768L14.1487 16.316L14.1497 16.3356L14.1523 16.3755L14.154 16.3952L14.1568 16.4152L14.1591 16.4356L14.1622 16.456L14.1656 16.476L14.1738 16.5176L14.1783 16.538L14.1923 16.5962L14.2079 16.6562L14.2248 16.7177L14.243 16.7806L14.2629 16.8453L14.2849 16.9115L14.3074 16.9791L14.332 17.0482L14.3582 17.1191L14.3858 17.1908L14.4147 17.2639L14.445 17.3384L14.4766 17.4137L14.5095 17.4905L14.5442 17.5683L14.5801 17.6476L14.6171 17.7273L14.6558 17.8088L14.6954 17.8907L14.7365 17.9733L14.7788 18.0574L14.8222 18.1426L14.867 18.2278L14.9131 18.3145L14.9598 18.4019L15.0079 18.4901L15.0574 18.579L15.1079 18.6683L15.1594 18.7586L15.212 18.8494L15.2655 18.9413L15.3197 19.0331L15.3756 19.1261L15.4323 19.2192L15.4896 19.3129L15.5479 19.407L15.6076 19.5019L15.668 19.5968L15.729 19.6924L15.7911 19.7885L15.8539 19.8845L15.9177 19.9809L15.9822 20.0781L16.0474 20.1753L16.1133 20.2725L16.1802 20.3701L16.2475 20.4681L16.3154 20.566L16.3844 20.6644L16.4537 20.7625L16.5945 20.9593L16.7381 21.1563L16.8106 21.2548L16.8835 21.353L16.9567 21.4515L17.1052 21.6479L17.1802 21.7462L17.2555 21.8441L17.3312 21.9417L17.4073 22.0396L17.4837 22.1365L17.5605 22.2338L17.7156 22.427L17.7931 22.5229L17.8714 22.6188L17.9493 22.7144L18.028 22.8093L18.1063 22.9038L18.1858 22.9981L18.2645 23.0916L18.3436 23.1847L18.4235 23.2772L18.5027 23.369L18.5823 23.4604L18.7415 23.6419L18.8212 23.7312L18.9803 23.9081L19.1396 24.0823L19.2195 24.1681L19.2987 24.2533L19.3777 24.3373L19.4567 24.4207L19.536 24.503L19.6148 24.5847L19.6932 24.6652L19.7717 24.7451L19.8495 24.8235L19.9274 24.9012L20.005 24.9779L20.0823 25.0535L20.1586 25.1281L20.2353 25.2016L20.3114 25.2736L20.3872 25.3446L20.462 25.4146L20.5369 25.4831L20.6115 25.5506L20.6855 25.6166L20.7585 25.6816L20.8312 25.7448L20.9033 25.8073L20.9751 25.868L21.0456 25.9273L21.1162 25.9852L21.1854 26.0416L21.2544 26.097L21.3224 26.1499L21.3898 26.2021L21.4562 26.2525L21.5217 26.3011L21.5865 26.3483L21.6504 26.3937L21.7137 26.4376L21.7753 26.4798L21.8363 26.5199L21.896 26.5585L21.9548 26.5953L22.0122 26.6307L22.0687 26.6635L22.1236 26.6946L22.1771 26.7242L22.1955 26.734L22.214 26.7431L22.2321 26.7518L22.2503 26.7606L22.2685 26.7686L22.2867 26.7759L22.3049 26.7832L22.3235 26.7902L22.3418 26.7969L22.36 26.8035L22.3787 26.8091L22.397 26.815L22.4157 26.8199L22.434 26.8251L22.4531 26.8297L22.4715 26.8342L22.4906 26.8381L22.5097 26.842L22.5285 26.8455L22.5477 26.8486L22.5672 26.8515L22.5868 26.8543L22.6063 26.8564L22.6263 26.8582L22.6459 26.8597L22.6662 26.8611L22.6862 26.8622L22.7065 26.863L22.7269 26.8638L22.7473 26.8638L22.7683 26.8639L22.7895 26.8633L22.8106 26.8627L22.8318 26.8614L22.8533 26.8605L22.873 26.8591L22.9186 26.8549L22.9632 26.8496L23.0083 26.8433L23.0541 26.8355L23.1003 26.8268L23.1472 26.8167L23.1953 26.8055L23.2438 26.7934L23.2928 26.7795L23.3425 26.7649L23.3926 26.7493L23.4435 26.7324L23.4948 26.7144L23.5465 26.6954L23.5986 26.6753L23.6515 26.6539L23.7048 26.6321L23.7585 26.6086L23.8126 26.5848L23.8668 26.5595L23.922 26.5333L23.977 26.5067L24.0327 26.4787L24.0888 26.4504L24.145 26.4207L24.2015 26.3907L24.2581 26.36L24.3154 26.3286L24.3728 26.2965L24.4306 26.2633L24.488 26.2299L24.5459 26.196L24.6634 26.126L24.7807 26.0542L24.8991 25.9807L25.0179 25.9062L25.1372 25.8299L25.2572 25.753L25.3773 25.6753L25.6189 25.5187L25.74 25.4408L25.8616 25.3625L25.9834 25.2853L26.1054 25.2091L26.2275 25.1337L26.3487 25.0603L26.4106 25.0235L26.4717 24.9873L26.5328 24.9519L26.5942 24.9168L26.6555 24.8824L26.7169 24.8487L26.7785 24.8153L26.8398 24.7823L26.9014 24.7504L26.9629 24.7192L27.0248 24.6883L27.0866 24.6588L27.1484 24.6293L27.2104 24.6016L27.2725 24.5738L27.3351 24.5475L27.3971 24.5219L27.4596 24.4977L27.5221 24.4742L27.5849 24.4517L27.6483 24.4307L27.7114 24.4107L27.7747 24.3917L27.8386 24.3742L27.9024 24.3581L27.9666 24.343L28.031 24.3297L28.0956 24.3182L28.1609 24.308L28.2257 24.2996L28.2894 24.2929L28.324 24.2901L28.3568 24.2881L28.3896 24.2862L28.4228 24.2847L28.4559 24.2838L28.4889 24.2837L28.5219 24.2842L28.5553 24.2851L28.5883 24.2864L28.6216 24.288L28.6549 24.2903L28.6881 24.2933L28.7213 24.297L28.7548 24.301L28.7879 24.3061L28.821 24.3112L28.8545 24.3173L28.8875 24.3238L28.9205 24.331L28.9538 24.3386L28.9867 24.3471L29.0196 24.3564L29.0525 24.3664L29.0853 24.3764L29.1177 24.3874L29.1501 24.3991L29.1825 24.4115L29.2148 24.4246L29.2467 24.438L29.2783 24.4525L29.3101 24.4673L29.3416 24.4832L29.3727 24.4994L29.4037 24.5163L29.4582 24.5477L29.5133 24.5805L29.5683 24.6148L29.6232 24.6511L29.6788 24.6881L29.7342 24.7273L29.7903 24.7678L29.8467 24.8095L29.9033 24.8528L29.9599 24.8976L30.0167 24.9434L30.0741 24.9907L30.1319 25.0397L30.1899 25.0898L30.2482 25.1409L30.3067 25.1938L30.3655 25.2478L30.4247 25.3028L30.4844 25.3592L30.5438 25.4167L30.6037 25.4755L30.664 25.5355L30.7238 25.5965L30.7847 25.6585L30.8454 25.722L30.9061 25.7861L30.9668 25.8517L31.0281 25.918L31.0893 25.9856L31.1505 26.054L31.212 26.1234L31.2734 26.1936L31.3348 26.2651L31.3961 26.3373L31.4574 26.4102L31.5186 26.4838L31.5802 26.5585L31.6417 26.6339L31.7027 26.7103L31.7638 26.7874L31.8245 26.8648L31.8854 26.9433L31.9457 27.0225L32.0062 27.102L32.0664 27.1826L32.1261 27.2635L32.1859 27.3451L32.2456 27.4274L32.3042 27.51L32.3628 27.5933L32.4213 27.6773L32.4792 27.7613L32.537 27.846L32.5944 27.931L32.6508 28.0163L32.7071 28.1023L32.763 28.1886L32.8183 28.275L32.8732 28.3616L32.9273 28.449L32.9811 28.5359L33.0342 28.6236L33.0869 28.7115L33.1382 28.7995L33.1898 28.8877L33.24 28.976L33.2899 29.0645L33.339 29.1531L33.3875 29.2416L33.4348 29.3304L33.4815 29.4192L33.5275 29.508L33.5724 29.5964L33.6166 29.6854L33.6601 29.7738L33.7026 29.8624L33.7437 29.951L33.7844 30.0392L33.824 30.1277L33.8627 30.2159L33.9003 30.3036L33.9368 30.3917L33.9719 30.479L34.0064 30.5663L34.0394 30.6535L34.0718 30.7408L34.1027 30.8272L34.1323 30.9136L34.1609 30.9996L34.1881 31.0849L34.2142 31.1705L34.2385 31.2556L34.2619 31.3404L34.2842 31.4248L34.3048 31.5088L34.3236 31.5923L34.3414 31.6755L34.3578 31.7586L34.3721 31.8409L34.3854 31.9229L34.397 32.0044L34.4068 32.0856L34.4147 32.1652L34.4183 32.2069L34.4216 32.2469L34.4239 32.2872L34.4259 32.3271L34.4275 32.3667L34.4288 32.4066L34.4294 32.4458L34.4296 32.4853L34.4287 32.5642L34.4272 32.6033L34.4253 32.6421L34.4231 32.6811L34.4202 32.7202L34.4167 32.7585L34.4127 32.7971L34.4084 32.8354L34.4035 32.8737L34.3975 32.9116L34.3911 32.9498L34.3844 32.9876L34.377 33.0255L34.3601 33.1003L34.3506 33.1374L34.3404 33.1744L34.3299 33.2111L34.3187 33.2477L34.3065 33.2839L34.2935 33.3201L34.2799 33.3563L34.2659 33.3922L34.2509 33.4276L34.2355 33.4627L34.2192 33.4974L34.2021 33.532L34.184 33.5663L34.1655 33.6002L34.1461 33.6337L34.1259 33.6672L34.105 33.7L34.0832 33.7324L34.0606 33.7641L34.0374 33.7957L34.0135 33.8266L33.9889 33.8575L33.9633 33.8873L33.937 33.9171L33.9101 33.9461L33.8832 33.9738L33.8568 33.9997L33.8314 34.0246L33.8047 34.0495L33.7506 34.0985L33.7214 34.1236L33.665 34.1708L33.6056 34.2185L33.5439 34.2658L33.4808 34.3131L33.4152 34.3599L33.3472 34.4063L33.2777 34.4526L33.2066 34.4985L33.1326 34.5443L33.0576 34.5898L32.9801 34.6354L32.9009 34.6807L32.8196 34.7259L32.7366 34.7706L32.6517 34.8157L32.5652 34.8603L32.4765 34.9049L32.3861 34.949L32.2943 34.9931L32.2004 35.0371L32.1048 35.0807L32.0077 35.1242L31.909 35.1674L31.8081 35.2104L31.7062 35.2531L31.6025 35.2953L31.4971 35.3378L31.3906 35.38L31.2821 35.4213L31.1725 35.463L31.0615 35.5039L30.9489 35.5444L30.8351 35.5853L30.7196 35.625L30.6031 35.665L30.4852 35.7042L30.3659 35.7427L30.2456 35.7816L30.1239 35.8196L30.0015 35.857L29.8778 35.8943L29.7526 35.9308L29.6265 35.967L29.4993 36.0027L29.3714 36.0378L29.2425 36.0724L29.1123 36.1063L28.9817 36.1399L28.8497 36.1726L28.7175 36.2051L28.5838 36.2367L28.4495 36.2677L28.3145 36.2979L28.1789 36.3281L28.0426 36.3569L27.9053 36.3853L27.768 36.413L27.6293 36.4399L27.4907 36.4662L27.3511 36.4914L27.2115 36.5158L27.0709 36.5399L26.9304 36.5626L26.7892 36.5852L26.6477 36.6061L26.5059 36.6266L26.3634 36.6465L26.2211 36.6649L26.0783 36.6829L25.9353 36.6999L25.7924 36.7155L25.6491 36.7307L25.5056 36.7449L25.3621 36.7577L25.2187 36.7698L25.0753 36.7805L24.9313 36.7904L24.788 36.799L24.6445 36.8073L24.5013 36.8138L24.3579 36.8192L24.2149 36.8236L24.0723 36.827L23.9291 36.8289L23.787 36.8299L23.645 36.8294L23.5034 36.828L23.3618 36.8251L23.2207 36.8212L23.0797 36.8159L22.9398 36.8088L22.7999 36.8011L22.6608 36.7921L22.5222 36.7813L22.3836 36.7691L22.2462 36.7558L22.1092 36.7409L21.9737 36.7246L21.9053 36.7158L21.8372 36.7066L21.7699 36.6974L21.7026 36.6875L21.635 36.6773L21.5684 36.6667L21.5015 36.6558L21.435 36.6446L21.3685 36.6326L21.302 36.6207L21.2363 36.6081L21.1705 36.5955L21.1052 36.5818L21.0399 36.5682L20.9746 36.5538L20.9096 36.5399L20.8451 36.5249L20.7805 36.5091L20.7164 36.4938L20.6526 36.4774L20.5888 36.461L20.5255 36.4436L20.4621 36.4262L20.3991 36.4085L20.3368 36.39L20.2743 36.3712L20.2121 36.3521L20.1502 36.3327L20.0888 36.3122L20.0274 36.2917L19.9667 36.2705L19.906 36.2494L19.8453 36.2275L19.7854 36.205L19.7259 36.1821L19.666 36.1589L19.6069 36.135L19.5481 36.1108L19.4897 36.0862L19.4318 36.0606L19.3738 36.035L19.3162 36.0091L19.2593 35.9825L19.2025 35.9551L19.146 35.9275L19.09 35.8988L19.0343 35.8705L18.979 35.8412L18.924 35.8115L18.8691 35.7811L18.8153 35.7504L18.7615 35.719L18.7081 35.6873L18.6555 35.6549L18.5974 35.6188L18.5393 35.582L18.4809 35.5449L18.4226 35.5063L18.3643 35.4678L18.3054 35.4285L18.2468 35.3882L18.1872 35.3475L18.1284 35.3062L18.0689 35.2641L18.0094 35.2213L17.9496 35.1781L17.8899 35.1343L17.8298 35.0894L17.7698 35.0445L17.7094 34.9985L17.6488 34.9522L17.5878 34.9048L17.4663 34.809L17.3438 34.7107L17.2208 34.6103L17.0976 34.5074L16.9734 34.4021L16.8487 34.2946L16.7234 34.185L16.5979 34.073L16.4714 33.9592L16.345 33.8433L16.2177 33.7249L16.0906 33.6044L15.9625 33.4821L15.8341 33.3581L15.7058 33.2319L15.5766 33.104L15.4472 32.9737L15.3179 32.8419L15.1883 32.7084L15.0578 32.5731L14.9277 32.4361L14.7973 32.2973L14.6664 32.1571L14.5355 32.0148L14.4044 31.8714L14.2733 31.726L14.142 31.5794L14.0112 31.4312L13.8797 31.2815L13.7486 31.1308L13.6173 30.9784L13.486 30.8245L13.3545 30.6696L13.2237 30.5133L13.0926 30.356L12.9617 30.1973L12.8311 30.0375L12.7002 29.8767L12.5702 29.7145L12.4401 29.5516L12.3102 29.3873L12.1806 29.2227L12.0514 29.0563L11.9223 28.8892L11.7936 28.7219L11.6657 28.5531L11.5377 28.3836L11.4106 28.2135L11.2835 28.0427L11.1571 27.8712L11.031 27.6994L10.9058 27.5262L10.7809 27.3533L10.6568 27.1791L10.533 27.0046L10.41 26.83L10.2877 26.6549L10.1661 26.479L10.0449 26.3028L9.92476 26.1263L9.80534 25.9498L9.68628 25.773L9.56867 25.5956L9.45138 25.4185L9.33517 25.241L9.22004 25.0633L9.1056 24.8856L8.9922 24.7083L8.87954 24.5304L8.76791 24.3528L8.65731 24.1756L8.54779 23.9981L8.43967 23.8206L8.33189 23.6435L8.22583 23.4669L8.12048 23.2902L8.01686 23.114L7.91395 22.9378L7.81239 22.7623L7.71225 22.5869L7.61313 22.4119L7.51538 22.2376L7.41866 22.0638L7.32368 21.8903L7.23006 21.7176L7.13747 21.5453L7.04658 21.3741L6.95709 21.2029L6.86893 21.0332L6.78217 20.8635L6.69711 20.695L6.61378 20.5269L6.53177 20.3602L6.4515 20.1939L6.37255 20.0291L6.29534 19.8647L6.21983 19.7014L6.14638 19.5389L6.07425 19.3778L6.00382 19.2179L5.93546 19.0587L5.86879 18.9006L5.80377 18.7444L5.74083 18.5889L5.67957 18.4345L5.62035 18.2817L5.56319 18.1295L5.50768 17.9792L5.45387 17.83L5.40279 17.6824L5.35304 17.5361L5.30597 17.3921L5.28266 17.3192L5.26068 17.2477L5.23869 17.1763L5.21737 17.1056L5.19638 17.0352L5.17642 16.9653L5.15679 16.8957L5.1375 16.8264L5.1189 16.7572L5.10097 16.6887L5.08337 16.6206L5.0661 16.5528L5.04987 16.4855L5.03396 16.4184L5.0208 16.3589L5.00731 16.2989L4.99489 16.2387L4.98247 16.1784L4.97079 16.1175L4.95944 16.057L4.94883 15.9958L4.93856 15.9349L4.92832 15.8733L4.91949 15.8118L4.91033 15.75L4.90186 15.6881L4.89377 15.6259L4.88638 15.5638L4.87899 15.5016L4.87234 15.4388L4.86603 15.3764L4.86045 15.3132L4.85488 15.2501L4.85 15.187L4.8455 15.1236L4.84132 15.0605L4.83789 14.9967L4.83446 14.933L4.83173 14.8693L4.82937 14.8052L4.82738 14.7408L4.82573 14.6768L4.82481 14.6121L4.82389 14.5474L4.82331 14.483L4.82346 14.418L4.82395 14.3534L4.82448 14.288L4.82604 14.223L4.82768 14.1567L4.8322 14.0268L4.8382 13.8956L4.84528 13.7641L4.8545 13.632L4.86512 13.4999L4.87682 13.3675L4.89029 13.2348L4.90521 13.1015L4.92153 12.9682L4.93891 12.8346L4.95808 12.7008L4.97795 12.5669L4.99996 12.4325L5.023 12.2984L5.04745 12.1644L5.07296 12.0301L5.09993 11.8951L5.12825 11.7609L5.15765 11.6264L5.18812 11.4915L5.21996 11.3575L5.25323 11.2227L5.28721 11.088L5.32256 10.9541L5.35897 10.8198L5.39679 10.6856L5.43564 10.5518L5.47553 10.4183L5.51648 10.2846L5.55848 10.1513L5.6015 10.0183L5.64592 9.88538L5.69101 9.75319L5.73717 9.6207L5.78433 9.48929L5.83256 9.35757L5.88145 9.22657L5.93174 9.09563L5.98269 8.96541L6.03431 8.83592L6.08733 8.70648L6.14101 8.57776L6.19573 8.44943L6.25111 8.32182L6.30752 8.19461L6.36459 8.06812L6.42233 7.94235L6.4811 7.81697L6.54086 7.69267L6.60096 7.56874L6.66208 7.4452L6.72383 7.32308L6.78628 7.20098L6.84973 7.07997L6.91346 6.96002L6.97823 6.84046L7.04363 6.72232L7.10968 6.6049L7.17607 6.48785L7.24307 6.37222L7.31108 6.25767L7.37974 6.14385L7.44907 6.03075L7.51832 5.91905L7.5886 5.80773L7.65913 5.69818L7.73066 5.58971L7.80248 5.4823L7.87496 5.37561L7.94736 5.27032L8.02076 5.16611L8.09477 5.06333L8.16908 4.9616L8.24369 4.86094L8.31891 4.7617L8.39476 4.66388L8.47053 4.56745L8.54696 4.47175L8.62364 4.3778L8.70095 4.28528L8.77851 4.19451L8.85636 4.10481L8.93483 4.01652L9.01323 3.92964L9.09225 3.84417L9.17152 3.76046L9.25141 3.67817L9.33123 3.59728L9.41162 3.5185L9.49194 3.44113L9.57288 3.36517L9.65408 3.29097L9.73552 3.21853L9.81722 3.14784L9.89918 3.07892L9.98105 3.01138L10.0631 2.94631L10.1054 2.91399L10.1469 2.88234L10.1881 2.85103L10.2299 2.82044L10.2713 2.79019L10.3131 2.7603L10.3548 2.73111L10.3969 2.70228L10.4386 2.67379L10.4806 2.64635L10.5225 2.61892L10.5645 2.59218L10.6068 2.56581L10.649 2.54013L10.6912 2.51445L10.7338 2.48984L10.7763 2.46522L10.8188 2.442L10.8616 2.41844L10.904 2.39591L10.9467 2.37375L10.9898 2.35195L11.0321 2.33082L11.0755 2.31008L11.1185 2.29037L11.1629 2.27002L11.1974 2.25524L11.2341 2.24054L11.2711 2.2269L11.3081 2.21396L11.3456 2.20244L11.3828 2.19125L11.4207 2.18149L11.4584 2.17243L11.4965 2.16442L11.5346 2.15711L11.5726 2.1505L11.6105 2.14529L11.6491 2.14079L11.6876 2.137L11.7257 2.13424L11.7638 2.13218L11.8022 2.13117L11.8405 2.13087L11.8788 2.13126L11.9171 2.13235L11.9553 2.13414L11.9931 2.13696L12.0313 2.14014ZM11.8889 3.11776L11.8703 3.11671L11.8524 3.11639L11.8345 3.11606L11.8169 3.1161L11.8 3.11686L11.783 3.11762L11.7668 3.11841L11.7509 3.12026L11.735 3.12211L11.7194 3.12432L11.7041 3.12689L11.6885 3.1298L11.6739 3.13309L11.6593 3.13639L11.6446 3.14038L11.6307 3.1444L11.6164 3.14876L11.6024 3.15347L11.5888 3.15855L11.5751 3.16433L11.5599 3.17075L11.5289 3.18497L11.496 3.20016L11.4631 3.21605L11.4303 3.23194L11.3969 3.24887L11.3633 3.26613L11.3303 3.28411L11.2965 3.30207L11.2628 3.32142L11.229 3.34078L11.1948 3.36046L11.1606 3.38085L11.1267 3.4016L11.0924 3.42338L11.0582 3.44516L11.0231 3.46762L10.9888 3.49079L10.954 3.5143L10.9193 3.53782L10.8842 3.56236L10.8494 3.58727L10.8145 3.61288L10.7793 3.63882L10.7437 3.66509L10.7088 3.69209L10.6742 3.71876L10.6024 3.77584L10.5316 3.834L10.4604 3.89389L10.3887 3.95551L10.3176 4.01925L10.246 4.08473L10.174 4.15193L10.1026 4.22056L10.0307 4.29161L9.95917 4.36372L9.88746 4.43793L9.81568 4.51353L9.74416 4.59089L9.67255 4.66965L9.6012 4.75016L9.53009 4.83243L9.45891 4.91609L9.38765 5.00115L9.31702 5.08763L9.2463 5.17551L9.17621 5.26481L9.10604 5.3555L9.03649 5.44762L8.96686 5.54113L8.89786 5.63606L8.82882 5.73169L8.76036 5.82944L8.69223 5.92755L8.62435 6.02742L8.55747 6.12838L8.49017 6.23037L8.42388 6.33344L8.35787 6.43757L8.29215 6.54277L8.22706 6.64938L8.16263 6.75672L8.09849 6.86512L8.03501 6.97425L7.97216 7.08479L7.90964 7.1957L7.84811 7.30769L7.78687 7.42074L7.7263 7.53452L7.66638 7.64902L7.60713 7.76424L7.54854 7.88019L7.49095 7.99723L7.43369 8.11463L7.37709 8.23275L7.32148 8.35195L7.26657 8.47119L7.21233 8.59114L7.15875 8.71182L7.1062 8.83289L7.05432 8.95469L7.00346 9.07687L6.95364 9.19944L6.90415 9.32237L6.85603 9.44606L6.80824 9.5701L6.76184 9.6942L6.71616 9.81832L6.67146 9.94354L6.62784 10.0684L6.58488 10.1941L6.54332 10.3197L6.50247 10.4454L6.46265 10.5715L6.4239 10.6973L6.38651 10.8239L6.3495 10.9501L6.31421 11.0767L6.27964 11.2033L6.2465 11.3293L6.21403 11.456L6.18333 11.5825L6.15333 11.7089L6.12441 11.8351L6.09688 11.9613L6.07043 12.0872L6.04539 12.2131L6.02141 12.3388L5.99851 12.4641L5.97738 12.5891L5.95696 12.7142L5.93798 12.8386L5.92043 12.9624L5.90393 13.0866L5.88923 13.2098L5.87524 13.333L5.86306 13.4553L5.85229 13.5776L5.84225 13.6992L5.83437 13.8202L5.82722 13.9405L5.82184 14.0606L5.81787 14.1807L5.8163 14.2397L5.81455 14.3578L5.81405 14.4165L5.81387 14.4755L5.81501 14.5923L5.81595 14.6504L5.81924 14.7666L5.824 14.8814L5.82676 14.9385L5.83021 14.9956L5.83786 15.1091L5.84243 15.1653L5.84733 15.2217L5.85226 15.2775L5.8579 15.3333L5.86992 15.4442L5.87667 15.499L5.88376 15.5541L5.89158 15.6086L5.89907 15.6627L5.90726 15.7169L5.91616 15.771L5.92509 15.8245L5.9344 15.8776L5.94441 15.9308L5.95478 15.9836L5.96483 16.0361L5.97595 16.0882L5.98777 16.1404L5.99926 16.1922L6.01378 16.2526L6.02827 16.3136L6.04412 16.3753L6.0596 16.4374L6.09329 16.5632L6.11112 16.6271L6.12929 16.6914L6.14779 16.7561L6.16732 16.8211L6.18682 16.8869L6.20734 16.953L6.2282 17.0195L6.24939 17.0864L6.29408 17.2226L6.34047 17.36L6.38851 17.4992L6.43929 17.6399L6.49172 17.7824L6.5465 17.9267L6.60262 18.0725L6.66112 18.2194L6.72129 18.3682L6.78348 18.5184L6.8477 18.67L6.91361 18.8228L6.98121 18.9767L7.05048 19.1325L7.12181 19.2889L7.19483 19.4466L7.26918 19.6056L7.34593 19.7658L7.42367 19.9271L7.50314 20.0888L7.58464 20.2519L7.6668 20.4158L7.75136 20.5809L7.83729 20.7466L7.92424 20.9128L8.01323 21.0804L8.10324 21.2485L8.19499 21.4169L8.28774 21.5864L8.38222 21.7564L8.47773 21.9267L8.5746 22.0978L8.67284 22.2697L8.77249 22.4415L8.87279 22.6142L8.9752 22.7868L9.07795 22.9599L9.18205 23.1337L9.28723 23.3072L9.39414 23.4811L9.50139 23.6554L9.61004 23.8297L9.71938 24.0041L9.83014 24.1785L9.94159 24.3529L10.0537 24.5274L10.1673 24.7019L10.2812 24.876L10.3962 25.0506L10.5122 25.2249L10.629 25.3984L10.7465 25.572L10.8647 25.7457L10.9836 25.9186L11.1032 26.0916L11.2236 26.2639L11.3447 26.4356L11.4662 26.6069L11.5883 26.7782L11.7109 26.9486L11.8343 27.1182L11.9583 27.2878L12.0824 27.4561L12.2072 27.6244L12.3321 27.7913L12.4581 27.9579L12.5837 28.1234L12.7101 28.2883L12.837 28.4521L12.9638 28.6152L13.0908 28.7769L13.2184 28.938L13.3462 29.0984L13.474 29.2573L13.6018 29.4149L13.7301 29.5714L13.8585 29.7273L13.9869 29.8817L14.115 30.0344L14.2436 30.1861L14.3719 30.3367L14.5006 30.4855L14.629 30.6333L14.7572 30.7794L14.8854 30.924L15.0134 31.0676L15.1415 31.2091L15.2689 31.3492L15.3965 31.4872L15.5238 31.6241L15.6508 31.7593L15.7773 31.8923L15.9038 32.024L16.0298 32.1535L16.1555 32.2813L16.2806 32.4069L16.4054 32.5308L16.5297 32.6526L16.653 32.7726L16.7765 32.8905L16.899 33.0059L17.0213 33.1196L17.1426 33.2308L17.2634 33.3398L17.3832 33.4471L17.5025 33.5516L17.6212 33.6539L17.7389 33.7538L17.8558 33.8511L17.9717 33.946L18.0875 34.0385L18.2019 34.1288L18.2582 34.1725L18.3148 34.2159L18.3708 34.2585L18.4271 34.3009L18.4828 34.3418L18.5385 34.3827L18.5936 34.4228L18.6483 34.4619L18.7031 34.5011L18.7572 34.5387L18.8117 34.5761L18.8652 34.6124L18.9187 34.6486L18.9719 34.6838L19.0245 34.7183L19.0771 34.7521L19.1294 34.7849L19.1806 34.8172L19.2251 34.8444L19.2697 34.8709L19.3143 34.8967L19.3596 34.9225L19.4053 34.948L19.4517 34.9728L19.4981 34.9976L19.5453 35.0218L19.5928 35.0456L19.6404 35.0694L19.6886 35.0925L19.7376 35.115L19.7863 35.1371L19.8357 35.1592L19.8855 35.181L19.9359 35.2022L19.9868 35.223L20.0377 35.2437L20.0893 35.2639L20.1413 35.2836L20.1932 35.3034L20.246 35.3225L20.2987 35.341L20.3522 35.3594L20.406 35.3775L20.4599 35.3949L20.5144 35.4123L20.569 35.4291L20.6244 35.4458L20.6797 35.4619L20.7354 35.4776L20.7919 35.4934L20.8479 35.5088L20.9048 35.5235L20.962 35.5379L21.0196 35.5519L21.0768 35.5656L21.1351 35.579L21.1934 35.5924L21.2522 35.6047L21.3109 35.6171L21.37 35.6291L21.4298 35.6411L21.4893 35.6521L21.5495 35.6631L21.6101 35.6738L21.6703 35.6841L21.7313 35.6944L21.7926 35.7037L21.854 35.713L21.9153 35.7223L21.9774 35.7309L22.0392 35.7392L22.101 35.7468L22.2274 35.762L22.3532 35.7758L22.4805 35.7883L22.6086 35.7994L22.7371 35.8095L22.8667 35.8179L22.9967 35.8252L23.1272 35.8315L23.2591 35.8365L23.3907 35.8404L23.5235 35.8426L23.6567 35.8445L23.7903 35.8446L23.9243 35.8437L24.0587 35.8418L24.1935 35.8388L24.3285 35.8344L24.4641 35.8294L24.5995 35.8233L24.7356 35.8158L24.8718 35.8077L25.0081 35.7981L25.1444 35.7879L25.2808 35.7762L25.4172 35.7639L25.554 35.7505L25.6905 35.736L25.8271 35.7209L25.9634 35.7047L26.0997 35.6878L26.2354 35.6702L26.3715 35.6515L26.5073 35.6318L26.6424 35.6114L26.7775 35.5903L26.9124 35.5681L27.0466 35.5452L27.1805 35.5219L27.3141 35.4975L27.447 35.4725L27.5792 35.4467L27.7115 35.4202L27.8425 35.393L27.9734 35.365L28.1034 35.3367L28.2326 35.3077L28.3613 35.2779L28.4892 35.2474L28.6161 35.2165L28.7424 35.1849L28.8676 35.1529L28.9918 35.1206L29.1153 35.0875L29.2378 35.054L29.359 35.0197L29.4798 34.9851L29.5988 34.9501L29.7172 34.915L29.8339 34.8789L29.9498 34.8427L30.0644 34.8064L30.178 34.7691L30.2898 34.7321L30.4002 34.6943L30.5096 34.6561L30.6172 34.6182L30.7235 34.5796L30.8283 34.5409L30.9318 34.5021L31.0339 34.4626L31.1339 34.423L31.2321 34.3837L31.3292 34.344L31.4243 34.3042L31.5177 34.2641L31.6092 34.2242L31.6987 34.1842L31.7864 34.1438L31.8723 34.1037L31.9562 34.0635L32.0383 34.0236L32.1179 33.9832L32.1958 33.9432L32.2711 33.9033L32.3448 33.8638L32.4156 33.8242L32.4846 33.7848L32.5511 33.7457L32.6152 33.7069L32.6771 33.6687L32.7363 33.6304L32.7933 33.5926L32.8474 33.5555L32.8991 33.5187L32.9475 33.4827L32.9935 33.4471L33.0369 33.4123L33.0783 33.3775L33.096 33.3621L33.1142 33.3457L33.132 33.3296L33.1487 33.3138L33.165 33.2983L33.1795 33.2838L33.1918 33.2714L33.2035 33.2589L33.2144 33.2463L33.2253 33.2338L33.2359 33.2202L33.2457 33.2073L33.256 33.1941L33.2656 33.1801L33.2751 33.1661L33.2841 33.1514L33.2933 33.1371L33.3019 33.122L33.3102 33.1066L33.3184 33.0912L33.3264 33.0747L33.334 33.0586L33.3416 33.0417L33.3485 33.0249L33.3555 33.0073L33.3621 32.9894L33.3688 32.9707L33.3748 32.9521L33.3811 32.9331L33.3868 32.9134L33.3922 32.8933L33.3972 32.8729L33.4022 32.8525L33.4069 32.831L33.411 32.8094L33.415 32.7872L33.4188 32.7646L33.4222 32.7417L33.4253 32.7184L33.4284 32.6944L33.4308 32.6704L33.4325 32.6456L33.4347 32.6205L33.4364 32.5951L33.4372 32.5692L33.4383 32.5431L33.4388 32.5162L33.4393 32.4893L33.4387 32.462L33.4385 32.4343L33.4376 32.406L33.4364 32.3773L33.4349 32.3489L33.433 32.3195L33.4308 32.2897L33.4286 32.2613L33.4223 32.1988L33.4145 32.137L33.4058 32.0734L33.3954 32.0087L33.3836 31.9432L33.3705 31.8763L33.3564 31.8083L33.3403 31.7396L33.3235 31.6694L33.3046 31.5984L33.2851 31.5267L33.2639 31.4539L33.2417 31.3807L33.2177 31.3064L33.1932 31.2314L33.1672 31.1556L33.1399 31.079L33.1115 31.0021L33.0818 30.9244L33.051 30.8464L33.0193 30.7679L32.9865 30.6884L32.9523 30.6088L32.9171 30.5288L32.8812 30.4481L32.8439 30.3674L32.8063 30.2863L32.767 30.2047L32.7269 30.1232L32.6862 30.0409L32.6444 29.9589L32.6016 29.8766L32.5581 29.7942L32.5142 29.7114L32.4693 29.629L32.4234 29.5462L32.3767 29.4633L32.3293 29.3804L32.2813 29.2982L32.2325 29.2153L32.1834 29.1327L32.1332 29.0504L32.0829 28.9681L32.0317 28.8861L31.9804 28.8041L31.928 28.7225L31.8753 28.6411L31.8219 28.5598L31.7684 28.4791L31.7143 28.3984L31.6597 28.3188L31.6051 28.2391L31.5495 28.1598L31.4942 28.0808L31.4385 28.0028L31.382 27.9249L31.3256 27.8476L31.2691 27.771L31.2118 27.6951L31.1549 27.6195L31.0976 27.545L31.0406 27.4709L30.9829 27.3974L30.9254 27.325L30.8676 27.2529L30.8101 27.1818L30.7522 27.1118L30.6946 27.0422L30.6369 26.974L30.5795 26.9061L30.5218 26.8393L30.4646 26.7738L30.4075 26.7091L30.3503 26.6451L30.2933 26.5828L30.2367 26.5209L30.1803 26.4608L30.1242 26.401L30.0684 26.343L30.0129 26.286L29.9581 26.2304L29.9035 26.1759L29.8492 26.1225L29.7955 26.0705L29.7421 26.0203L29.6893 25.9707L29.6372 25.9233L29.5856 25.8766L29.5347 25.8321L29.4845 25.7882L29.4348 25.7465L29.386 25.7066L29.3383 25.6677L29.2908 25.6306L29.245 25.5954L29.1998 25.5615L29.1552 25.5298L29.1122 25.4991L29.0702 25.471L29.0296 25.4443L28.9902 25.4197L28.9521 25.3966L28.9153 25.3757L28.9009 25.3681L28.8866 25.3606L28.8719 25.3534L28.8575 25.3466L28.8435 25.3401L28.829 25.334L28.8142 25.3282L28.7998 25.3227L28.7853 25.3173L28.7705 25.3122L28.756 25.3075L28.7411 25.3031L28.7259 25.299L28.711 25.2953L28.6961 25.2916L28.6804 25.2885L28.6651 25.2852L28.6498 25.2825L28.6338 25.2798L28.6177 25.2778L28.6017 25.2758L28.5856 25.2738L28.5688 25.2725L28.5527 25.2711L28.5355 25.2701L28.5187 25.2695L28.5015 25.2692L28.4839 25.2693L28.4663 25.2693L28.4484 25.2697L28.43 25.2704L28.412 25.2714L28.3933 25.2725L28.3764 25.274L28.3361 25.278L28.2971 25.2829L28.257 25.2894L28.2158 25.2969L28.1742 25.3055L28.1318 25.3154L28.0883 25.3264L28.044 25.3387L27.9989 25.3517L27.9527 25.3664L27.9065 25.3818L27.8591 25.3989L27.8113 25.417L27.7628 25.4358L27.7135 25.456L27.6638 25.4772L27.613 25.4994L27.5624 25.5226L27.5108 25.5469L27.4584 25.5719L27.4063 25.5979L27.3531 25.6249L27.2994 25.6529L27.2458 25.6817L27.1914 25.7111L27.1362 25.7412L27.0814 25.7723L27.0258 25.8041L26.9698 25.8363L26.9134 25.8695L26.8574 25.903L26.7427 25.9724L26.6276 26.0436L26.5113 26.1165L26.3935 26.1914L26.275 26.267L26.1556 26.344L25.9144 26.5002L25.7925 26.5789L25.6703 26.6578L25.5473 26.736L25.4234 26.8139L25.2991 26.8913L25.1742 26.9674L25.0494 27.042L24.9858 27.0791L24.9229 27.1156L24.8597 27.1517L24.7961 27.1874L24.7326 27.2224L24.6688 27.257L24.605 27.291L24.5412 27.3242L24.4771 27.3571L24.4131 27.3893L24.3487 27.4205L24.284 27.4512L24.2194 27.4806L24.1545 27.5096L24.0893 27.5376L24.0241 27.5649L23.9586 27.5911L23.8932 27.6166L23.8271 27.6407L23.7611 27.664L23.6945 27.686L23.6282 27.7069L23.5614 27.7264L23.4942 27.7449L23.4268 27.7623L23.3591 27.7779L23.2915 27.7921L23.2236 27.8053L23.1551 27.8164L23.0863 27.8264L23.0177 27.8343L22.9502 27.8405L22.9142 27.8433L22.8792 27.8451L22.8443 27.847L22.8095 27.8481L22.7749 27.8489L22.7398 27.849L22.705 27.8487L22.6702 27.8478L22.6351 27.8464L22.6001 27.8444L22.565 27.8424L22.5301 27.839L22.4951 27.8356L22.4598 27.8318L22.4249 27.827L22.3897 27.8218L22.3549 27.8163L22.3197 27.8098L22.2849 27.8029L22.2498 27.7956L22.2151 27.7873L22.1801 27.7786L22.1451 27.7693L22.1105 27.7596L22.0763 27.7489L22.0418 27.7378L22.0073 27.726L21.9728 27.7135L21.9387 27.7007L21.9047 27.6872L21.8711 27.6726L21.8371 27.6577L21.8035 27.6425L21.77 27.6258L21.7365 27.6092L21.7037 27.5919L21.6358 27.5547L21.567 27.5158L21.4982 27.4754L21.4289 27.433L21.3593 27.3895L21.2887 27.3442L21.2182 27.2975L21.1471 27.2486L21.075 27.1987L21.0031 27.1474L20.9304 27.0947L20.8572 27.0399L20.7834 26.9843L20.7092 26.927L20.6348 26.8686L20.5598 26.8088L20.4845 26.7473L20.4082 26.6846L20.332 26.6206L20.2549 26.5555L20.1777 26.4889L20.1003 26.4214L20.0223 26.3523L19.944 26.2823L19.8657 26.2108L19.7865 26.1383L19.707 26.0647L19.6275 25.9897L19.5474 25.914L19.4674 25.8368L19.387 25.7594L19.3064 25.6801L19.2255 25.5998L19.1443 25.5192L19.0631 25.4371L18.9816 25.3547L18.8999 25.2705L18.8185 25.186L18.7361 25.1004L18.6545 25.0141L18.5726 24.9268L18.49 24.8388L18.4082 24.75L18.3257 24.6606L18.2436 24.5701L18.1612 24.4793L18.0792 24.3874L17.9971 24.2955L17.9148 24.2026L17.8329 24.1086L17.7511 24.0147L17.6692 23.92L17.5874 23.8246L17.5059 23.7289L17.4245 23.6325L17.3435 23.5358L17.2625 23.4384L17.1819 23.3413L17.1013 23.2429L17.0214 23.1444L16.9412 23.0456L16.8613 22.9465L16.7826 22.847L16.7035 22.7472L16.6247 22.6471L16.5463 22.5473L16.4687 22.4469L16.3914 22.3461L16.3141 22.2453L16.2375 22.1438L16.1617 22.0431L16.0858 21.9417L16.0107 21.8403L15.9362 21.7389L15.8625 21.6375L15.7887 21.5362L15.7161 21.4345L15.6437 21.3332L15.5721 21.232L15.5012 21.1307L15.4309 21.0295L15.361 20.9286L15.2922 20.8275L15.224 20.727L15.1563 20.6263L15.0895 20.5259L15.0238 20.4259L14.9584 20.3262L14.894 20.2263L14.8304 20.1271L14.7677 20.0282L14.7058 19.9294L14.6445 19.8313L14.5847 19.7333L14.5255 19.636L14.4673 19.5391L14.4102 19.4425L14.3537 19.346L14.2983 19.2506L14.2443 19.1552L14.1912 19.061L14.1389 18.9667L14.0875 18.8735L14.0376 18.7804L13.9886 18.6884L13.9411 18.5964L13.8942 18.5052L13.8487 18.4154L13.8042 18.3252L13.7614 18.2362L13.7192 18.148L13.6785 18.0604L13.6391 17.9737L13.6007 17.8873L13.564 17.802L13.5284 17.7171L13.4944 17.6333L13.4615 17.55L13.4299 17.468L13.4001 17.3865L13.3713 17.3054L13.3441 17.2253L13.318 17.1464L13.2939 17.0682L13.2713 16.9901L13.2499 16.9135L13.2303 16.8372L13.2124 16.7621L13.2043 16.7251L13.1966 16.6878L13.1899 16.6508L13.1836 16.6135L13.1783 16.5766L13.1733 16.5394L13.1691 16.5021L13.1652 16.4653L13.1627 16.4285L13.1602 16.3917L13.1588 16.3546L13.158 16.3182L13.1577 16.2815L13.1576 16.2451L13.1589 16.2088L13.1603 16.1725L13.1623 16.1362L13.1654 16.1004L13.1685 16.0645L13.1726 16.029L13.1771 15.9931L13.1826 15.9577L13.1881 15.9222L13.1943 15.8875L13.2012 15.8521L13.2085 15.8178L13.2164 15.7828L13.225 15.7485L13.2336 15.7142L13.2433 15.6803L13.2529 15.6464L13.2633 15.6126L13.2743 15.5794L13.2857 15.5459L13.2974 15.5128L13.3098 15.4797L13.3222 15.4473L13.3357 15.4146L13.3491 15.3826L13.3636 15.3489L13.3921 15.2867L13.4227 15.2239L13.4547 15.1618L13.4884 15.1002L13.5232 15.0396L13.5596 14.9795L13.5967 14.92L13.6352 14.8613L13.6754 14.8031L13.7163 14.7455L13.7578 14.6887L13.8011 14.6323L13.8447 14.5763L13.8896 14.521L13.9356 14.4661L13.982 14.4116L14.0297 14.3578L14.0777 14.3044L14.1264 14.251L14.1765 14.1983L14.2266 14.1457L14.2777 14.0941L14.3291 14.0422L14.3816 13.9907L14.4341 13.9399L14.4872 13.8891L14.5414 13.8387L14.5956 13.7883L14.6501 13.7383L14.7053 13.689L14.7604 13.6397L14.8167 13.59L14.9284 13.4929L15.0414 13.3957L15.1555 13.2997L15.2695 13.2044L15.3839 13.1094L15.4982 13.0151L15.725 12.8282L15.8375 12.7356L15.9489 12.6434L16.0582 12.5517L16.166 12.46L16.2721 12.3692L16.3764 12.2781L16.4267 12.2331L16.4767 12.1878L16.526 12.1432L16.575 12.0982L16.6229 12.0535L16.67 12.0088L16.7162 11.9644L16.7616 11.9199L16.8059 11.8758L16.8495 11.8316L16.8921 11.7878L16.9336 11.7436L16.9737 11.7L17.0131 11.6564L17.0514 11.6131L17.0886 11.5701L17.1245 11.527L17.1592 11.4843L17.1922 11.4418L17.2248 11.3997L17.2553 11.3575L17.2851 11.316L17.3135 11.2744L17.3404 11.2335L17.3659 11.1925L17.39 11.1521L17.4123 11.1121L17.4339 11.0727L17.4537 11.0329L17.4724 10.9941L17.4902 10.9542L17.4975 10.9363L17.5052 10.9174L17.5126 10.8988L17.5197 10.8798L17.5263 10.8612L17.5327 10.8422L17.5387 10.8236L17.5443 10.8052L17.5495 10.7873L17.5544 10.7689L17.5593 10.7506L17.5635 10.7322L17.5677 10.7145L17.5711 10.6968L17.5743 10.6788L17.5774 10.6607L17.5802 10.643L17.5826 10.6256L17.5846 10.6079L17.5863 10.5897L17.588 10.5723L17.589 10.5549L17.5897 10.5371L17.5903 10.5193L17.5903 10.5015L17.5898 10.484L17.5898 10.4661L17.5887 10.4486L17.5876 10.4304L17.5861 10.4125L17.5843 10.395L17.5822 10.3764L17.5794 10.3584L17.5769 10.3401L17.5685 10.2947L17.5593 10.2469L17.5487 10.1975L17.5365 10.1464L17.523 10.0931L17.5085 10.0387L17.4927 9.98217L17.4752 9.92454L17.4567 9.86512L17.437 9.80425L17.4159 9.74193L17.3935 9.67816L17.3704 9.61368L17.3453 9.54771L17.3195 9.48033L17.2924 9.41219L17.2644 9.34297L17.2349 9.2723L17.2045 9.20124L17.1731 9.1291L17.1406 9.05587L17.1068 8.98189L17.072 8.90682L17.0362 8.83136L16.9994 8.75482L16.9619 8.67756L16.923 8.60024L16.8835 8.5215L16.8426 8.44271L16.8014 8.36286L16.7588 8.28295L16.7156 8.20232L16.6713 8.1213L16.6266 8.03993L16.581 7.95816L16.5343 7.876L16.4865 7.79346L16.4385 7.71055L16.3897 7.62762L16.3399 7.54429L16.2894 7.46095L16.2382 7.37757L16.1867 7.29383L16.1341 7.21041L16.0812 7.12662L16.0275 7.0428L15.9732 6.95896L15.9182 6.87509L15.8628 6.79156L15.8063 6.70834L15.7498 6.62511L15.693 6.54222L15.6354 6.45931L15.5771 6.37637L15.5189 6.29413L15.4595 6.21219L15.4005 6.13062L15.3403 6.04936L15.2802 5.96809L15.2197 5.88786L15.1588 5.80797L15.0976 5.72841L15.0359 5.64989L14.9739 5.5717L14.9118 5.49421L14.8493 5.41705L14.7872 5.34096L14.724 5.26517L14.661 5.19044L14.5977 5.11675L14.5347 5.04341L14.4709 4.97145L14.4074 4.89985L14.3435 4.82928L14.2799 4.75977L14.2159 4.6913L14.1519 4.62352L14.0885 4.55717L14.0243 4.49148L13.9604 4.42755L13.8965 4.36432L13.8332 4.30252L13.7695 4.24174L13.7064 4.18239L13.6428 4.12407L13.5796 4.06751L13.5166 4.01201L13.4543 3.95792L13.3918 3.90524L13.33 3.85398L13.2682 3.80411L13.2069 3.75636L13.1459 3.70967L13.0851 3.66473L13.025 3.62122L12.9658 3.5795L12.9066 3.53917L12.8479 3.50095L12.7902 3.46453L12.7331 3.42952L12.6766 3.39663L12.6207 3.36516L12.5657 3.33618L12.5104 3.30753L12.485 3.29539L12.4583 3.2825L12.4323 3.27034L12.4062 3.25887L12.3801 3.2474L12.3547 3.23666L12.3293 3.22661L12.3045 3.21659L12.2797 3.20727L12.2556 3.19867L12.2311 3.19041L12.2073 3.18217L12.1838 3.175L12.1606 3.16818L12.1375 3.16137L12.115 3.15528L12.0928 3.14955L12.0709 3.14488L12.0494 3.13988L12.0278 3.13557L12.0073 3.13165L11.9867 3.12843L11.9665 3.12557L11.9466 3.12308L11.927 3.12094L11.9078 3.11917L11.8889 3.11776Z" fill="#12233D"/>
</g>
<defs>
<clipPath id="clip0">
<rect width="40" height="40" fill="white"/>
</clipPath>
</defs>
</svg>
